<?xml version="1.0" encoding="utf-8"?>
<!-- Generator: Adobe Illustrator 15.1.0, SVG Export Plug-In . SVG Version: 6.00 Build 0)  -->
<!DOCTYPE svg PUBLIC "-//W3C//DTD SVG 1.1//EN" "http://www.w3.org/Graphics/SVG/1.1/DTD/svg11.dtd">
<svg version="1.1" id="Layer_1" xmlns="http://www.w3.org/2000/svg" xmlns:xlink="http://www.w3.org/1999/xlink" x="0px" y="0px"
	 width="273.311px" height="425.133px" viewBox="0 0 273.311 425.133" enable-background="new 0 0 273.311 425.133"
	 xml:space="preserve">
<g>
	<defs>
		<rect id="SVGID_1_" x="49" y="412.938" width="168.832" height="12.195"/>
	</defs>
	<clipPath id="SVGID_2_">
		<use xlink:href="#SVGID_1_"  overflow="visible"/>
	</clipPath>
	<g clip-path="url(#SVGID_2_)">
		<defs>
			<rect id="SVGID_3_" x="49" y="412.938" width="168.832" height="12.195"/>
		</defs>
		<clipPath id="SVGID_4_">
			<use xlink:href="#SVGID_3_"  overflow="visible"/>
		</clipPath>
		<g opacity="0.3" clip-path="url(#SVGID_4_)">
			<g>
				<defs>
					<rect id="SVGID_5_" x="49" y="412.938" width="168.832" height="12.195"/>
				</defs>
				<clipPath id="SVGID_6_">
					<use xlink:href="#SVGID_5_"  overflow="visible"/>
				</clipPath>
				<path clip-path="url(#SVGID_6_)" fill="#010101" d="M217.832,419.035c0,3.368-37.795,6.098-84.416,6.098S49,422.403,49,419.035
					c0-3.369,37.795-6.098,84.416-6.098S217.832,415.666,217.832,419.035"/>
			</g>
		</g>
	</g>
</g>
<g>
	<path fill="#763B19" d="M200.092,18.195c0,0,35.007,97.354,5.221,201.986l-27.967,42.766l-10.918-44.584
		C166.428,218.362,224.657,148.304,200.092,18.195"/>
	<path fill="#763B19" d="M137.313,134.658c0,0,19.105-52.772,20.018-93.716c0,0,25.477,59.142,9.098,105.541l-14.102,10.01
		L137.313,134.658z"/>
	<path fill="#763B19" d="M119.623,232.921c-9.014-2.279-19.15-43.469-21.143-50.637c-13.765-49.478,6.317-97.153,7.399-146.03
		c-0.309,13.871,6.465,29.725,7.39,43.937c0.95,14.685-0.824,29.22-0.675,43.897c0.26,25.759,6.59,57.202,38.637,56.343
		l15.197,64.314C166.428,244.745,119.65,232.929,119.623,232.921"/>
	<path fill="#763B19" d="M66.689,18.195c0,0-19.453,72.788,16.033,138.298l21.838,93.713
		C104.561,250.206,5.164,104.633,66.689,18.195"/>
	<path fill="#763B19" d="M137.313,270.399c-26.883-18.043-44.654-36.139-59.586-64.178c-8.123-15.258-18.154-27.156-22.049-44.361
		c-4.117-18.186-6.592-36.719-13.953-53.97c-4.162-9.749-9.642-19.173-17.055-26.821C18.021,74.21,5.567,71.774,0,65.627
		c43.665,48.219,26.631,115.067,51.133,171.053c11.79,26.949,36.729,61.198,68.49,65.043L137.313,270.399z"/>
	<path fill="#763B19" d="M166.428,171.96c0,0-50.951-80.977-8.189-171.96c0,0-82.794,94.623-5.912,236.56L166.428,171.96z"/>
	<path fill="#763B19" d="M154.617,226.065c0,0-66.437-24.08-64.618-101.417c1.821-77.337,4.552-88.253-5.458-106.454
		c4.471,8.128-1.74,33.549-2.914,42.334c-2.93,21.898-9.25,43.152-12.932,64.961c-9.676,57.316,16.336,123.472,64.069,156.561
		L154.617,226.065z"/>
	<path fill="#763B19" d="M137.313,294.79c1.536-1.082,23.43,2.293,27.668,1.273c28.408-6.832,43.969-35.231,53.674-60.443
		c13.725-35.66,17.798-73.902,24.996-111.184c3.046-15.791,5.576-31.036,8.875-46.756c1.354-6.43,9.572-43.121,20.785-41.103
		c-16.473-2.963-26.457,15.061-31.673,27.106c-8.276,19.109-13.253,39.348-17.859,59.597
		C209.129,187.647,195.25,254.013,137.313,294.79"/>
	<path fill="#763B19" d="M104.561,298.532c0,0,44.578-32.225,46.401-108.647c1.819-76.421,22.741-116.016,49.13-130.746
		c0,0-31.844,46.036-19.109,140.872C180.982,200.011,196.453,334.438,104.561,298.532"/>
	<polygon fill="#56381E" points="219.441,285.742 42.9,285.742 46.595,325.041 59.555,325.041 71.659,420.133 190.683,420.133 
		202.786,325.041 215.746,325.041 	"/>
</g>
</svg>
