<?xml version="1.0" encoding="utf-8"?>
<!-- Generator: Adobe Illustrator 15.1.0, SVG Export Plug-In . SVG Version: 6.00 Build 0)  -->
<!DOCTYPE svg PUBLIC "-//W3C//DTD SVG 1.1//EN" "http://www.w3.org/Graphics/SVG/1.1/DTD/svg11.dtd">
<svg version="1.1" id="Layer_1" xmlns="http://www.w3.org/2000/svg" xmlns:xlink="http://www.w3.org/1999/xlink" x="0px" y="0px"
	 width="286.196px" height="353.263px" viewBox="0 0 286.196 353.263" enable-background="new 0 0 286.196 353.263"
	 xml:space="preserve">
<g>
	<path fill="#FEC20F" d="M286.196,250.065c0,78.388-64.067,103.198-143.099,103.198C64.067,353.263,0,328.453,0,250.065
		c0-78.388,64.067-141.934,143.097-141.934C222.129,108.131,286.196,171.677,286.196,250.065"/>
	<path fill="#EFF7FD" d="M258.803,243.651c0,62.389-51.804,89.958-115.705,89.958c-63.901,0-115.705-27.569-115.705-89.958
		s51.804-112.965,115.705-112.965C206.999,130.686,258.803,181.262,258.803,243.651"/>
	<path fill="#2F160D" d="M93.582,163.618c-11.637-5.135-24.186-5.85-23.977,3.296c0.211,9.147,8.248,12.852,17.669,12.701
		c9.424-0.15,17.743-1.621,16.923-7.136C103.381,166.964,93.582,163.618,93.582,163.618"/>
	<path fill="#2F160D" d="M204.618,167.458c12.374-2.943,24.845-1.375,22.983,7.58c-1.862,8.959-11.204,10.035-20.442,8.181
		c-9.24-1.853-16.39-3.69-14.586-8.967C194.375,168.977,204.618,167.458,204.618,167.458"/>
	<path fill="#F26A21" d="M130.46,239.229c0.181,12.111,12.432,31.237,21.994,30.281c9.563-0.956,21.022-20.354,21.038-30.281
		C173.545,206.396,129.955,205.277,130.46,239.229"/>
	<path fill="#CC2A2B" d="M132.242,95.793c-34.1-11.423-58.859-32.781-60.104-51.115C70.891,26.343,84.27-12.977,117.422,4.275
		c32.577,16.955,7.695,35.317,4.968,46.866c-2.725,11.549,5.473,16.781,12.03,9.623c6.556-7.159,1.439-35.254,20.837-26.981
		c19.398,8.275-0.735,23.697-5.461,32.938c-3.629,7.1,6.242,4.639,10.327-3.762c7.065-14.533,34.021,6.072,17.73,20.701
		C154.939,104.238,146.168,100.458,132.242,95.793"/>
	<path fill="#2F160D" d="M213.841,202.993c0,14.336-13.307,14.336-13.307,0C200.534,188.659,213.841,188.659,213.841,202.993"/>
	<path fill="#2F160D" d="M82.445,199.993c0,14.336,13.307,14.336,13.307,0S82.445,185.657,82.445,199.993"/>
	<path fill="#2C2D2D" d="M140.209,210.643l-106.522-13.43c0,0-4.138,15.641,14.988,33.661
		C67.8,248.894,116.99,266.107,140.209,210.643"/>
	<path fill="#2C2D2D" d="M161.581,210.643l105.566-13.43c0,0,5.094,15.641-14.032,33.66
		C233.99,248.894,184.8,266.107,161.581,210.643"/>
	<path fill="#2C2D2D" d="M114.904,227.73c0,0,0.577-1.312,1.984-3.299c0.701-0.995,1.613-2.152,2.738-3.416
		c0.565-0.627,1.196-1.261,1.865-1.94c0.683-0.655,1.423-1.323,2.211-2.012c0.803-0.664,1.651-1.348,2.563-2.02
		c0.923-0.653,1.879-1.335,2.918-1.961c2.061-1.275,4.351-2.48,6.869-3.469c0.633-0.242,1.272-0.487,1.914-0.734
		c0.651-0.228,1.33-0.411,2.004-0.616c0.681-0.188,1.367-0.38,2.055-0.57c0.709-0.138,1.422-0.274,2.137-0.414
		c1.425-0.304,2.908-0.443,4.402-0.546l1.12-0.084l0.28-0.021l0.561-0.001l0.482,0.011l1.931,0.043l0.966,0.036l1.166,0.121
		c0.787,0.083,1.57,0.188,2.352,0.294c0.384,0.057,0.794,0.1,1.153,0.169l1.052,0.229c0.698,0.157,1.395,0.314,2.087,0.472
		c2.739,0.694,5.321,1.616,7.725,2.649c2.396,1.05,4.62,2.205,6.636,3.436c2.018,1.229,3.843,2.497,5.459,3.758
		c1.613,1.264,3.028,2.498,4.225,3.664c1.203,1.157,2.195,2.232,2.978,3.157c1.573,1.837,2.308,3.064,2.308,3.064
		s-1.414-0.196-3.732-0.638c-1.141-0.227-2.526-0.503-4.115-0.819c-1.541-0.331-3.278-0.706-5.174-1.114
		c-1.84-0.407-3.832-0.849-5.94-1.316c-2.081-0.446-4.24-0.909-6.439-1.348c-2.2-0.43-4.438-0.824-6.665-1.161
		c-0.554-0.073-1.109-0.147-1.667-0.222l-0.835-0.121c-0.271-0.039-0.501-0.041-0.754-0.065c-0.494-0.04-0.987-0.078-1.479-0.142
		c-0.252-0.027-0.479-0.064-0.753-0.087l-0.966-0.024l-1.931-0.075l-0.481-0.021l-0.12-0.006l-0.061-0.004
		c0.609,0.005,0.154,0.002,0.284,0.004h-0.024l-0.201,0.008l-0.803,0.027c-0.535,0.021-1.07,0.026-1.606,0.025
		c-0.535-0.01-1.074,0.094-1.613,0.115c-0.54,0.036-1.079,0.072-1.614,0.109c-0.541,0.068-1.078,0.138-1.613,0.207
		c-0.537,0.068-1.077,0.104-1.611,0.189c-0.536,0.09-1.07,0.179-1.598,0.267c-2.13,0.325-4.215,0.784-6.232,1.224
		c-2.015,0.454-3.947,0.951-5.76,1.428c-1.839,0.506-3.525,0.971-5.019,1.383c-1.542,0.442-2.885,0.828-3.992,1.146
		c-1.119,0.334-2.029,0.585-2.653,0.76C115.241,227.635,114.904,227.73,114.904,227.73"/>
	<path fill="#666766" d="M211.848,223.101c0,6.514-5.993,13.707-13.387,13.707c-7.395,0-13.389-7.193-13.389-13.707
		c0-6.513,5.994-9.881,13.389-9.881C205.854,213.22,211.848,216.588,211.848,223.101"/>
	<path fill="#666766" d="M85.99,218.747c0,6.516-5.993,13.708-13.387,13.708s-13.388-7.192-13.388-13.708
		c0-6.512,5.994-9.879,13.388-9.879S85.99,212.235,85.99,218.747"/>
</g>
</svg>
