<?xml version="1.0" encoding="utf-8"?>
<!-- Generator: Adobe Illustrator 15.1.0, SVG Export Plug-In . SVG Version: 6.00 Build 0)  -->
<!DOCTYPE svg PUBLIC "-//W3C//DTD SVG 1.1//EN" "http://www.w3.org/Graphics/SVG/1.1/DTD/svg11.dtd">
<svg version="1.1" xmlns="http://www.w3.org/2000/svg" xmlns:xlink="http://www.w3.org/1999/xlink" x="0px" y="0px" width="400px"
	 height="400px" viewBox="0 0 400 400" enable-background="new 0 0 400 400" xml:space="preserve">
<g id="Layer_1">
	<circle fill="#C3E6E4" cx="202.5" cy="241.713" r="158.287"/>
</g>
<g id="Layer_6">
	<g>
		<path fill="#508E42" d="M328.206,259.744c0,69.768-56.557,108.604-126.323,108.604c-69.77,0-126.324-38.836-126.324-108.604
			s56.555-156.047,126.324-156.047C271.649,103.697,328.206,189.977,328.206,259.744"/>
		<path fill="#BFB69A" d="M284.232,55.766c7.343-22.326,36.955-11.619,31.896,7.426c-1.185,4.453-2.68,6.207-4.41,10.732
			c9.92-2.304,22.381,4.623,19.473,15.495c-3.787,14.162-20.693,11.019-28.898,7.515c-9.777,17.479-21.152,28.784-29.566,25.938
			C264.146,119.969,277.635,75.828,284.232,55.766"/>
		<path fill="#BFB69A" d="M129.432,42.873c-10.645-18.244-34.957-7.619-29.896,11.426c1.184,4.452,2.678,6.208,4.407,10.732
			c-9.916-2.305-22.377,4.623-19.47,15.496c3.785,14.162,20.693,11.018,28.897,7.513c9.78,17.479,21.154,28.786,29.567,25.938
			C151.516,111.076,140.072,61.115,129.432,42.873"/>
		<path fill="#2B2C2B" d="M211.985,298.615c0,0,0.065-0.182,0.192-0.532c0.135-0.351,0.32-0.882,0.617-1.534
			c0.288-0.66,0.658-1.47,1.139-2.386c0.472-0.929,1.045-1.976,1.742-3.106c1.373-2.287,3.213-4.953,5.619-7.813
			c2.404-2.864,5.402-5.894,9.111-8.843c3.713-2.94,8.154-5.803,13.475-8.109c5.303-2.297,11.537-4.032,18.455-4.418
			c6.889-0.411,14.442,0.66,21.438,3.396c7.018,2.698,13.332,6.912,18.516,11.731l1.937,1.829c0.652,0.607,1.184,1.266,1.777,1.898
			c1.147,1.275,2.326,2.567,3.362,3.893c1.009,1.332,2.008,2.667,2.967,4.021l0.724,1.012c-0.43-0.577-0.099-0.131-0.186-0.245
			l0.036,0.053l0.072,0.104l0.145,0.209l0.289,0.42c0.388,0.561,0.772,1.117,1.144,1.686l1.119,1.689l0.278,0.423l0.229,0.319
			l0.453,0.633c0.595,0.859,1.142,1.729,1.756,2.595c0.656,0.862,1.281,1.754,1.914,2.633c0.638,0.827,1.271,1.647,1.896,2.462
			c2.512,3.178,4.946,5.85,7.213,7.889c0.281,0.248,0.557,0.453,0.838,0.692c0.279,0.214,0.565,0.522,0.832,0.687
			c0.539,0.39,1.104,0.848,1.635,1.158c1.097,0.76,2.18,1.254,3.369,1.717c1.183,0.438,2.449,0.652,3.801,0.787
			c1.332,0.037,2.744,0.021,4.125-0.227c2.788-0.412,5.406-1.402,7.607-2.329c2.189-0.96,3.965-1.907,5.177-2.591
			c0.612-0.355,1.081-0.627,1.397-0.811c0.314-0.196,0.477-0.299,0.477-0.299s-0.013,0.192-0.036,0.567
			c-0.035,0.373-0.076,0.94-0.205,1.655c-0.123,0.718-0.299,1.605-0.588,2.628c-0.278,1.03-0.66,2.202-1.203,3.485
			c-1.076,2.569-2.709,5.672-5.617,8.807c-0.365,0.389-0.736,0.796-1.133,1.191c-0.424,0.375-0.854,0.754-1.29,1.141
			c-0.864,0.805-1.913,1.469-2.966,2.216c-2.195,1.358-4.765,2.619-7.695,3.411c-5.849,1.671-12.871,1.35-19.181-0.586
			c-6.311-1.945-12.014-5.209-17.061-9.012c-1.215-0.971-2.516-1.931-3.686-2.967c-1.146-1.039-2.313-2.078-3.461-3.158
			c-1.138-1.121-2.263-2.332-3.398-3.519l-0.838-0.911l-0.415-0.455l-0.331-0.382l-1.328-1.532
			c-0.449-0.509-0.881-1.031-1.316-1.553l-0.326-0.393l-0.162-0.194l-0.083-0.099l-0.039-0.049
			c-0.113-0.148,0.192,0.266-0.263-0.347l-0.535-0.597c-0.719-0.789-1.401-1.605-2.079-2.43c-0.688-0.797-1.445-1.455-2.123-2.229
			c-0.351-0.359-0.679-0.784-1.048-1.094c-0.363-0.323-0.731-0.643-1.084-0.975c-2.842-2.664-5.678-4.802-8.59-6.416
			c-2.916-1.611-5.955-2.789-9.353-3.549c-3.384-0.758-7.106-1.061-10.931-0.98c-3.822,0.074-7.717,0.517-11.439,1.119
			c-3.726,0.604-7.273,1.377-10.506,2.123c-3.225,0.766-6.1,1.551-8.531,2.197C214.84,297.82,211.985,298.615,211.985,298.615"/>
		<path fill="#2B2C2B" d="M266.891,216.999c0,13.241-12.293,13.241-12.293,0C254.598,203.755,266.891,203.755,266.891,216.999"/>
		<path fill="#2B2C2B" d="M254.346,181.118c17.44-5.779,35.584-5.063,34.021,8.055c-1.569,13.125-14.88,15.827-28.405,14.312
			c-13.527-1.519-24.045-3.276-22.113-11.094C239.794,184.574,254.346,181.118,254.346,181.118"/>
		<path fill="#2B2C2B" d="M150.639,214.743c0,13.243-12.293,13.243-12.293,0C138.346,201.502,150.639,201.502,150.639,214.743"/>
		<path fill="#4F2110" d="M177.701,306.566c0,0,0.813,0.19,2.229,0.525c1.345,0.338,3.261,0.821,5.563,1.401
			c1.117,0.284,2.312,0.582,3.562,0.864c1.246,0.297,2.547,0.576,3.871,0.826c1.321,0.26,2.674,0.465,4.02,0.633
			c0.669,0.063,1.342,0.127,2.02,0.189l1.002,0.051c0.166,0.004,0.332-0.005,0.496,0.006l0.25,0.01l0.123,0.007l0.061,0.003h0.017
			c-0.043,0.001,0.119-0.001-0.093,0.002h0.035c0.768-0.016,1.617-0.009,2.312-0.042c0.671-0.039,1.293-0.011,2.002-0.091
			c1.39-0.08,2.759-0.225,4.089-0.398c0.67-0.072,1.313-0.209,1.965-0.287c0.646-0.117,1.275-0.229,1.891-0.341
			c1.223-0.262,2.404-0.507,3.484-0.801c1.093-0.271,2.084-0.579,2.981-0.86c0.894-0.285,1.672-0.568,2.325-0.816
			c0.635-0.264,1.184-0.453,1.518-0.633c0.359-0.162,0.553-0.248,0.553-0.248s-0.071,0.197-0.234,0.562
			c-0.166,0.363-0.43,0.892-0.838,1.521c-0.408,0.625-0.957,1.354-1.663,2.123c-0.706,0.766-1.558,1.592-2.573,2.373
			c-1.006,0.81-2.174,1.568-3.463,2.295c-1.298,0.699-2.718,1.375-4.251,1.892c-0.763,0.271-1.548,0.534-2.36,0.722
			c-0.807,0.217-1.633,0.4-2.475,0.54c-0.818,0.165-1.76,0.235-2.646,0.351c-0.867,0.068-1.588,0.076-2.395,0.117l-0.783-0.002
			c-0.228,0-0.455-0.013-0.682-0.021l-1.342-0.108c-0.889-0.09-1.764-0.218-2.613-0.406c-1.705-0.346-3.314-0.867-4.813-1.461
			c-1.494-0.604-2.871-1.306-4.123-2.039c-1.246-0.746-2.365-1.527-3.354-2.303c-0.982-0.785-1.838-1.553-2.557-2.273
			c-0.719-0.727-1.311-1.393-1.771-1.969C178.12,307.32,177.701,306.566,177.701,306.566"/>
		<path fill="#508E42" d="M122.07,127.076c0,0-8.383-5.15-18.439-13.075c-10.06-7.924-37.057-17.998-25.058,6.538
			C90.571,145.074,101.071,139.074,122.07,127.076"/>
		<path fill="#508E42" d="M291.575,136.016c0,0,8.384-5.15,18.44-13.074c10.059-7.926,37.056-18,25.058,6.537
			C323.074,154.014,312.575,148.014,291.575,136.016"/>
		<path fill="#046938" d="M189.895,257.085c0,0,0.092,0.013,0.261,0.034c0.16,0.027,0.444,0.041,0.707,0.111
			c0.274,0.063,0.631,0.129,0.953,0.25c0.342,0.106,0.729,0.229,1.089,0.396c0.732,0.326,1.449,0.778,2.082,1.333
			c0.629,0.555,1.141,1.23,1.531,1.968c0.384,0.742,0.641,1.55,0.732,2.384c0.092,0.836,0.047,1.682-0.111,2.469
			c-0.073,0.39-0.194,0.775-0.307,1.121c-0.089,0.332-0.24,0.662-0.35,0.922c-0.096,0.256-0.248,0.496-0.318,0.644
			c-0.082,0.152-0.124,0.233-0.124,0.233s-0.092-0.012-0.262-0.033c-0.16-0.027-0.446-0.041-0.709-0.111
			c-0.278-0.062-0.634-0.128-0.955-0.246c-0.347-0.106-0.733-0.229-1.093-0.396c-0.735-0.325-1.452-0.777-2.081-1.332
			c-0.628-0.557-1.14-1.232-1.524-1.975c-0.377-0.744-0.632-1.554-0.724-2.389c-0.089-0.836-0.043-1.681,0.114-2.468
			c0.07-0.39,0.193-0.776,0.304-1.12c0.088-0.332,0.239-0.66,0.346-0.921c0.093-0.254,0.248-0.496,0.315-0.642
			C189.852,257.167,189.895,257.085,189.895,257.085"/>
		<path fill="#046938" d="M214.954,257.018c0,0,0.043,0.08,0.123,0.231c0.067,0.146,0.224,0.388,0.313,0.642
			c0.107,0.262,0.261,0.59,0.349,0.922c0.108,0.342,0.231,0.729,0.303,1.119c0.158,0.787,0.203,1.633,0.113,2.469
			c-0.09,0.834-0.347,1.644-0.724,2.389c-0.385,0.74-0.896,1.417-1.522,1.975c-0.629,0.555-1.347,1.006-2.082,1.332
			c-0.358,0.165-0.746,0.288-1.092,0.395c-0.322,0.119-0.679,0.187-0.955,0.248c-0.265,0.07-0.549,0.084-0.709,0.111
			c-0.17,0.021-0.263,0.032-0.263,0.032s-0.043-0.081-0.123-0.233c-0.07-0.146-0.225-0.388-0.318-0.643
			c-0.109-0.262-0.261-0.59-0.352-0.923c-0.11-0.345-0.231-0.731-0.307-1.121c-0.158-0.787-0.203-1.634-0.111-2.469
			c0.093-0.833,0.351-1.642,0.732-2.384c0.391-0.736,0.903-1.412,1.532-1.967c0.632-0.556,1.349-1.008,2.082-1.334
			c0.358-0.166,0.747-0.289,1.089-0.396c0.322-0.12,0.678-0.186,0.953-0.248c0.262-0.071,0.547-0.085,0.705-0.112
			C214.863,257.029,214.954,257.018,214.954,257.018"/>
		<path fill="#2B2C2B" d="M153.59,178.189c-17.441-5.779-35.584-5.064-34.021,8.055c1.57,13.126,14.88,15.826,28.406,14.311
			c13.526-1.517,24.045-3.275,22.113-11.094C168.139,181.645,153.59,178.189,153.59,178.189"/>
		<path fill="#046938" d="M183.6,121.148c0,0,0.121-0.158,0.397-0.416c0.281-0.244,0.692-0.637,1.302-1
			c0.598-0.392,1.373-0.801,2.324-1.148c0.477-0.164,0.995-0.32,1.549-0.473c0.559-0.104,1.158-0.246,1.785-0.295
			c0.627-0.047,1.297-0.119,1.977-0.076c0.687,0.012,1.396,0.056,2.109,0.18c0.362,0.057,0.729,0.114,1.098,0.171
			c0.359,0.093,0.725,0.187,1.093,0.281c0.368,0.097,0.743,0.192,1.116,0.306c0.359,0.137,0.725,0.276,1.091,0.416
			c0.366,0.143,0.737,0.287,1.11,0.434c0.354,0.178,0.709,0.356,1.068,0.537c0.714,0.365,1.455,0.721,2.115,1.186l1.025,0.664
			l0.515,0.335l0.129,0.086l0.03,0.021l0.018,0.012l0.146,0.115l0.056,0.047l0.22,0.184l1.764,1.48
			c0.617,0.642,1.236,1.363,1.834,2.052c0.586,0.698,0.974,1.459,1.451,2.183c0.85,1.498,1.457,3.094,1.836,4.662
			c0.377,1.571,0.523,3.113,0.521,4.553c-0.016,1.439-0.17,2.777-0.413,3.98c-0.247,1.202-0.56,2.273-0.905,3.193
			c-0.334,0.922-0.701,1.693-1.023,2.313c-0.301,0.627-0.618,1.086-0.813,1.401c-0.203,0.313-0.328,0.47-0.328,0.47
			s0.094-0.796,0.185-2.142c0.053-0.67,0.071-1.488,0.081-2.405c0.015-0.917-0.01-1.944-0.086-3.039
			c-0.074-1.097-0.219-2.263-0.448-3.454c-0.231-1.191-0.568-2.402-1.017-3.593c-0.281-0.572-0.438-1.201-0.774-1.755l-0.474-0.846
			c-0.149-0.287-0.287-0.582-0.496-0.836c-0.392-0.512-0.746-1.098-1.147-1.566l-1.235-1.379l-1.735-1.512l-0.216-0.188
			l-0.055-0.048c-0.123-0.098,0.149,0.119,0.116,0.095l-0.013-0.011l-0.027-0.018l-0.107-0.076l-0.428-0.313l-0.852-0.625
			c-0.559-0.438-1.148-0.781-1.721-1.154c-0.287-0.183-0.574-0.365-0.857-0.546c-0.293-0.157-0.584-0.315-0.871-0.47
			c-0.289-0.159-0.577-0.316-0.859-0.473c-0.293-0.131-0.582-0.26-0.867-0.387c-0.287-0.133-0.572-0.262-0.853-0.391
			c-0.289-0.102-0.573-0.202-0.854-0.303c-0.561-0.233-1.12-0.369-1.668-0.518c-0.545-0.184-1.082-0.236-1.605-0.35
			c-1.045-0.178-2.031-0.25-2.922-0.249c-0.879,0.041-1.68,0.079-2.326,0.2C184.354,120.865,183.6,121.148,183.6,121.148"/>
		<path fill="#046938" d="M218.866,115.204c0,0,0.547,0.206,1.403,0.771c0.428,0.283,0.935,0.651,1.466,1.137
			c0.534,0.479,1.106,1.062,1.668,1.754c0.28,0.345,0.543,0.729,0.832,1.115c0.262,0.402,0.526,0.826,0.786,1.268
			c0.232,0.458,0.47,0.929,0.711,1.411c0.203,0.497,0.412,1.008,0.626,1.526c0.164,0.535,0.332,1.078,0.504,1.629
			c0.127,0.561,0.257,1.129,0.388,1.701c0.118,0.574,0.176,1.164,0.258,1.75l0.059,0.441l0.031,0.464
			c0.014,0.294,0.049,0.554,0.039,0.886c0.028,1.28-0.139,2.486-0.472,3.674c-0.321,1.179-0.819,2.289-1.444,3.26
			c-1.229,1.966-2.867,3.384-4.359,4.352c-1.496,0.977-2.869,1.533-3.842,1.852c-0.973,0.32-1.551,0.406-1.551,0.406
			s0.52-0.265,1.371-0.791c0.85-0.531,2.032-1.328,3.291-2.433c1.248-1.108,2.559-2.545,3.522-4.306
			c0.469-0.885,0.862-1.84,1.125-2.848c0.258-1,0.371-2.096,0.389-3.115c0.021-0.242-0.012-0.556-0.018-0.836l-0.019-0.395
			l-0.048-0.412c-0.062-0.549-0.124-1.095-0.186-1.637c-0.091-0.537-0.183-1.07-0.272-1.598c-0.128-0.517-0.256-1.027-0.381-1.531
			c-0.152-0.495-0.303-0.982-0.451-1.459c-0.182-0.467-0.359-0.922-0.533-1.364c-0.203-0.431-0.401-0.851-0.593-1.257
			c-0.222-0.391-0.419-0.781-0.639-1.137c-0.446-0.707-0.871-1.354-1.308-1.885c-0.431-0.535-0.824-0.994-1.183-1.341
			C219.342,115.542,218.866,115.204,218.866,115.204"/>
		<path fill="#EF9724" d="M204.241,335.468c0,0,0.155,0.078,0.414,0.248c0.248,0.177,0.646,0.419,1.071,0.772
			c0.875,0.697,2,1.772,3.086,3.229c1.082,1.455,2.14,3.285,2.896,5.448c0.183,0.547,0.345,1.109,0.507,1.684
			c0.135,0.588,0.254,1.194,0.358,1.807c0.177,1.244,0.257,2.558,0.169,3.928c-0.031,0.671-0.167,1.402-0.281,2.09
			c-0.111,0.694-0.386,1.436-0.601,2.129l-0.091,0.262l-0.122,0.347l-0.023,0.044l-0.045,0.089l-0.18,0.354l-0.377,0.695
			c-0.259,0.458-0.519,0.908-0.791,1.346c-0.755,1.076-1.544,2.15-2.361,2.947c-0.858,0.743-1.608,1.447-2.474,1.934
			c-0.84,0.504-1.61,0.916-2.377,1.175c-0.731,0.282-1.409,0.45-1.981,0.541c-0.547,0.116-1.045,0.1-1.341,0.12
			c-0.313,0.007-0.484-0.023-0.484-0.023s0.245-0.645,0.562-1.658c0.166-0.502,0.358-1.08,0.543-1.74
			c0.215-0.627,0.391-1.357,0.599-2.09c0.115-0.354,0.221-0.729,0.295-1.131c0.086-0.394,0.202-0.771,0.301-1.16
			c0.164-0.773,0.238-1.461,0.451-2.16c0.096-0.506,0.213-1.012,0.334-1.523l0.196-0.768l0.106-0.383l0.027-0.096l0.014-0.048
			c-0.199,0.562-0.055,0.149-0.1,0.272v-0.008l0.002-0.016l0.008-0.125c0.018-0.343,0.1-0.621,0.121-0.994
			c0.004-0.379,0.094-0.711,0.096-1.119c0.011-0.406,0.063-0.789,0.074-1.218c-0.004-0.429,0.041-0.851,0.053-1.29
			c-0.002-0.445,0.023-0.889,0.043-1.336c0.005-0.456,0.015-0.908,0.044-1.361c0.021-0.914,0.063-1.824,0.116-2.718
			c0.05-0.891,0.123-1.763,0.189-2.583c0.154-1.646,0.374-3.113,0.572-4.179c0.089-0.528,0.213-0.976,0.266-1.267
			C204.202,335.631,204.241,335.468,204.241,335.468"/>
		<path fill="#EF9724" d="M214.984,337.188c0,0,0.148,0.02,0.417,0.082c0.264,0.068,0.667,0.146,1.141,0.311
			c0.976,0.294,2.316,0.811,3.822,1.625c1.506,0.813,3.178,1.922,4.8,3.375c0.809,0.732,1.605,1.545,2.352,2.454
			c0.367,0.456,0.732,0.942,1.076,1.437c0.348,0.494,0.646,1.053,0.969,1.58c0.309,0.537,0.541,1.159,0.805,1.734
			c0.268,0.578,0.402,1.257,0.59,1.876l0.064,0.235l0.055,0.234l0.008,0.049l0.014,0.1l0.056,0.393l0.086,0.783
			c0.056,0.52,0.118,1.031,0.149,1.54c-0.004,1.19-0.026,2.379-0.178,3.416c-0.222,1.022-0.357,1.974-0.699,2.815
			c-0.309,0.846-0.604,1.598-0.981,2.228c-0.326,0.639-0.705,1.153-1.021,1.563c-0.283,0.42-0.611,0.703-0.787,0.904
			c-0.194,0.196-0.316,0.285-0.316,0.285s0.011-0.602-0.026-1.572c-0.006-0.482-0.047-1.063-0.104-1.714
			c-0.021-0.642-0.129-1.362-0.213-2.12c-0.027-0.377-0.08-0.77-0.17-1.171c-0.064-0.396-0.129-0.805-0.197-1.226
			c-0.159-0.814-0.393-1.577-0.531-2.403c-0.16-0.483-0.292-0.981-0.434-1.485l-0.213-0.759l-0.096-0.385l-0.023-0.097l-0.012-0.049
			c0.078,0.348,0.02,0.092,0.037,0.166l-0.005-0.009l-0.008-0.019l-0.06-0.143c-0.291-0.748-0.627-1.539-1.066-2.326
			c-0.418-0.804-0.93-1.594-1.432-2.398c-0.28-0.389-0.537-0.79-0.797-1.189c-0.283-0.388-0.563-0.771-0.82-1.168
			c-1.146-1.582-2.219-3.058-3.137-4.322c-0.938-1.307-1.723-2.455-2.265-3.289C215.285,337.706,214.984,337.188,214.984,337.188"/>
		<path fill="#EF9724" d="M196.733,338.811c0,0,0.019,0.148,0.024,0.424c0,0.272,0.029,0.683-0.01,1.185
			c-0.038,1.017-0.195,2.444-0.604,4.106c-0.405,1.664-1.055,3.563-2.049,5.5c-0.504,0.965-1.088,1.943-1.777,2.895
			c-0.35,0.473-0.727,0.949-1.116,1.406c-0.392,0.46-0.854,0.892-1.282,1.338c-0.443,0.434-0.986,0.814-1.476,1.217
			c-0.491,0.405-1.114,0.707-1.664,1.046l-0.213,0.122l-0.214,0.112l-0.045,0.021l-0.092,0.037l-0.365,0.153l-0.735,0.28
			c-0.487,0.187-0.967,0.377-1.451,0.537c-1.153,0.295-2.309,0.576-3.35,0.695c-1.046,0.043-1.998,0.153-2.901,0.036
			c-0.896-0.084-1.697-0.18-2.402-0.385c-0.701-0.155-1.295-0.39-1.772-0.591c-0.478-0.168-0.834-0.412-1.073-0.532
			c-0.24-0.14-0.357-0.233-0.357-0.233s0.584-0.143,1.515-0.425c0.467-0.128,1.017-0.315,1.632-0.536
			c0.614-0.183,1.284-0.472,1.997-0.744c0.356-0.121,0.72-0.271,1.088-0.461c0.367-0.162,0.746-0.328,1.134-0.5
			c0.748-0.361,1.428-0.781,2.192-1.125c0.428-0.277,0.876-0.531,1.326-0.797l0.68-0.398l0.349-0.188l0.086-0.048l0.045-0.021
			c-0.314,0.162-0.084,0.041-0.151,0.076l0.008-0.007l0.015-0.012l0.123-0.095c0.65-0.471,1.328-0.994,1.979-1.621
			c0.672-0.606,1.306-1.301,1.958-1.991c0.305-0.371,0.629-0.72,0.947-1.071c0.305-0.372,0.605-0.74,0.924-1.091
			c1.238-1.511,2.395-2.92,3.386-4.128c1.026-1.24,1.94-2.289,2.608-3.023C196.307,339.232,196.733,338.811,196.733,338.811"/>
		<path fill="#2B2C2B" d="M194.014,298.096c0,0-2.854-0.796-7.85-2.187c-2.431-0.647-5.306-1.433-8.531-2.196
			c-3.231-0.746-6.779-1.521-10.508-2.123c-3.72-0.605-7.615-1.045-11.438-1.119c-3.822-0.08-7.547,0.223-10.932,0.98
			c-3.396,0.759-6.435,1.936-9.35,3.548c-2.913,1.614-5.749,3.753-8.59,6.415c-0.354,0.334-0.721,0.65-1.086,0.975
			c-0.368,0.309-0.695,0.735-1.047,1.094c-0.678,0.773-1.433,1.434-2.123,2.229c-0.678,0.823-1.359,1.64-2.08,2.429l-0.532,0.598
			c-0.457,0.611-0.151,0.197-0.263,0.347l-0.043,0.049l-0.08,0.099l-0.163,0.195l-0.326,0.391c-0.437,0.522-0.87,1.045-1.317,1.554
			l-1.328,1.532l-0.33,0.383l-0.416,0.453l-0.838,0.912c-1.137,1.187-2.262,2.396-3.397,3.519c-1.147,1.079-2.317,2.119-3.461,3.156
			c-1.17,1.038-2.472,1.998-3.687,2.968c-5.047,3.803-10.75,7.066-17.061,9.014c-6.309,1.935-13.331,2.256-19.18,0.584
			c-2.932-0.791-5.5-2.053-7.694-3.41c-1.054-0.748-2.103-1.412-2.966-2.217c-0.438-0.386-0.867-0.766-1.293-1.141
			c-0.395-0.396-0.765-0.803-1.13-1.191c-2.907-3.135-4.541-6.236-5.617-8.806c-0.543-1.282-0.925-2.455-1.203-3.485
			c-0.29-1.021-0.465-1.91-0.587-2.629c-0.13-0.715-0.171-1.283-0.206-1.654c-0.024-0.379-0.037-0.571-0.037-0.571
			s0.162,0.103,0.476,0.3c0.317,0.184,0.785,0.455,1.398,0.809c1.212,0.685,2.987,1.633,5.176,2.592
			c2.202,0.929,4.821,1.916,7.608,2.328c1.381,0.246,2.793,0.266,4.125,0.229c1.35-0.134,2.618-0.35,3.801-0.787
			c1.19-0.463,2.272-0.957,3.37-1.718c0.529-0.312,1.094-0.769,1.633-1.156c0.268-0.165,0.553-0.475,0.832-0.688
			c0.282-0.238,0.557-0.443,0.839-0.691c2.267-2.039,4.702-4.71,7.212-7.889c0.627-0.813,1.26-1.635,1.897-2.463
			c0.634-0.879,1.258-1.77,1.914-2.633c0.614-0.865,1.161-1.733,1.756-2.594l0.453-0.633l0.229-0.32l0.28-0.42l1.119-1.693
			c0.37-0.566,0.757-1.125,1.142-1.684l0.289-0.419l0.145-0.21l0.072-0.105l0.037-0.053c-0.088,0.115,0.244-0.332-0.185,0.245
			l0.722-1.011c0.959-1.355,1.957-2.689,2.967-4.021c1.036-1.324,2.217-2.617,3.363-3.893c0.594-0.634,1.125-1.29,1.778-1.898
			l1.935-1.83c5.184-4.817,11.498-9.032,18.516-11.73c6.996-2.736,14.55-3.809,21.438-3.396c6.918,0.387,13.154,2.121,18.456,4.418
			c5.319,2.309,9.761,5.17,13.474,8.109c3.709,2.951,6.707,5.979,9.111,8.844c2.407,2.86,4.247,5.526,5.62,7.814
			c0.696,1.131,1.271,2.179,1.742,3.105c0.479,0.916,0.85,1.726,1.138,2.385c0.297,0.652,0.484,1.185,0.618,1.535
			C193.95,297.915,194.014,298.096,194.014,298.096"/>
	</g>
</g>
</svg>
