<?xml version="1.0" encoding="utf-8"?>
<!-- Generator: Adobe Illustrator 15.1.0, SVG Export Plug-In . SVG Version: 6.00 Build 0)  -->
<!DOCTYPE svg PUBLIC "-//W3C//DTD SVG 1.1//EN" "http://www.w3.org/Graphics/SVG/1.1/DTD/svg11.dtd">
<svg version="1.1" xmlns="http://www.w3.org/2000/svg" xmlns:xlink="http://www.w3.org/1999/xlink" x="0px" y="0px" width="400px"
	 height="400px" viewBox="0 0 400 400" enable-background="new 0 0 400 400" xml:space="preserve">
<g id="Layer_1">
	<circle fill="#C3E6E4" cx="202.5" cy="241.713" r="158.287"/>
</g>
<g id="Layer_8">
	<g>
		<path fill="#642F14" d="M115.575,120.101c0.003-0.002-32.76,26.449-42.479,85.179c-9.717,58.732,7.921,95.805,7.921,95.805
			s2.16-19.112,5.04-31.013l2.879-11.899c0,0,2.422,36.134,17.641,56.191C121.794,334.42,207.37,388,207.37,388
			s71.144-40.374,100.685-86.917c18.744-29.531,17.161-55.172,17.161-55.172s5.829,11.038,6.983,22.604
			c1.438,14.427,1.799,24.043,1.799,24.043s17.728-46.753-3.872-105.828c-23.611-64.572-61.075-102.228-125.987-102.228
			C143.292,84.506,115.575,120.101,115.575,120.101"/>
		<path fill="#BE4E33" d="M312.472,230.777c10.868,66.813-48.114,111.195-107.467,111.195c-59.354,0-117.498-44.251-107.466-111.195
			c10.4-69.418,47.304-128.496,106.659-128.496C263.55,102.281,301.18,161.359,312.472,230.777"/>
		<path fill="#2E1811" d="M171.567,154.324c-12.882-3.279-26.085-2.071-24.56,6.899c1.526,8.972,11.306,10.303,21.123,8.719
			c9.812-1.582,17.426-3.209,15.785-8.513C182.274,156.125,171.567,154.324,171.567,154.324"/>
	</g>
	<g>
		<path fill="#E2735D" d="M283.824,303.109c0,38.685-34.91,52.992-77.974,52.992s-77.978-14.308-77.978-52.992
			c0-38.686,34.914-70.947,77.978-70.947C248.913,232.162,283.824,264.424,283.824,303.109"/>
	</g>
	<g>
		<path fill="#2E1811" d="M178.738,202.638c0,13.646-12.667,13.646-12.667,0C166.071,188.994,178.738,188.994,178.738,202.638"/>
		<path fill="#4F2110" d="M161.946,298.723c0,0,1.253,0.766,3.474,2.01c2.224,1.239,5.43,2.939,9.342,4.77
			c1.966,0.894,4.105,1.824,6.391,2.727c2.295,0.881,4.733,1.729,7.28,2.492c2.55,0.751,5.218,1.355,7.937,1.834
			c2.717,0.475,5.519,0.675,8.27,0.684c1.483,0,2.855-0.021,4.269-0.094c1.413-0.061,2.814-0.181,4.204-0.321
			c2.778-0.259,5.5-0.656,8.099-1.202c2.598-0.556,5.096-1.168,7.405-1.947c2.308-0.775,4.464-1.605,6.383-2.53
			c1.914-0.93,3.639-1.868,5.083-2.834c1.441-0.967,2.657-1.892,3.596-2.729c0.94-0.837,1.627-1.56,2.088-2.063
			c0.447-0.52,0.685-0.795,0.685-0.795s-0.174,0.323-0.5,0.929c-0.361,0.583-0.875,1.469-1.696,2.475
			c-1.603,2.034-4.319,4.68-8.146,7.037c-1.905,1.182-4.053,2.349-6.43,3.327c-2.373,0.987-4.926,1.929-7.647,2.609
			c-2.715,0.698-5.558,1.286-8.476,1.654c-1.46,0.172-2.935,0.319-4.418,0.406c-1.481,0.104-3.021,0.15-4.451,0.171
			c-3.071,0.051-6.088-0.303-9.014-0.837c-2.925-0.525-5.727-1.347-8.37-2.273c-2.649-0.914-5.128-1.989-7.412-3.124
			c-2.295-1.114-4.395-2.294-6.273-3.465c-1.893-1.151-3.568-2.295-5.013-3.357c-1.455-1.047-2.673-2.027-3.661-2.85
			C162.968,299.78,161.946,298.723,161.946,298.723"/>
		<path fill="#642F14" d="M192.489,261.598c0,0,0.094,0.012,0.269,0.035c0.164,0.027,0.458,0.042,0.728,0.115
			c0.284,0.063,0.651,0.133,0.982,0.255c0.353,0.112,0.753,0.237,1.124,0.41c0.754,0.336,1.492,0.801,2.143,1.372
			c0.65,0.572,1.178,1.266,1.581,2.027c0.395,0.765,0.659,1.598,0.755,2.456c0.094,0.859,0.046,1.733-0.117,2.545
			c-0.074,0.401-0.2,0.799-0.315,1.155c-0.09,0.344-0.248,0.68-0.36,0.951c-0.097,0.263-0.256,0.511-0.327,0.662
			c-0.083,0.157-0.128,0.24-0.128,0.24s-0.094-0.013-0.269-0.034c-0.165-0.028-0.462-0.042-0.731-0.113
			c-0.285-0.064-0.652-0.132-0.983-0.255c-0.356-0.109-0.755-0.236-1.128-0.407c-0.755-0.335-1.495-0.8-2.143-1.373
			c-0.646-0.574-1.174-1.27-1.572-2.032c-0.387-0.768-0.648-1.604-0.744-2.463c-0.092-0.861-0.047-1.732,0.116-2.543
			c0.072-0.4,0.199-0.801,0.313-1.154c0.091-0.342,0.247-0.681,0.356-0.949c0.096-0.262,0.256-0.511,0.325-0.661
			C192.445,261.682,192.489,261.598,192.489,261.598"/>
		<path fill="#642F14" d="M218.312,261.527c0,0,0.043,0.083,0.126,0.239c0.071,0.15,0.229,0.399,0.324,0.661
			c0.111,0.27,0.269,0.607,0.356,0.949c0.113,0.354,0.24,0.753,0.315,1.154c0.163,0.811,0.207,1.683,0.116,2.544
			c-0.096,0.859-0.357,1.694-0.745,2.461c-0.398,0.763-0.925,1.46-1.571,2.033c-0.648,0.573-1.388,1.037-2.143,1.373
			c-0.373,0.171-0.771,0.298-1.128,0.408c-0.331,0.123-0.698,0.19-0.984,0.255c-0.27,0.07-0.565,0.085-0.73,0.112
			c-0.176,0.023-0.27,0.034-0.27,0.034s-0.044-0.084-0.128-0.239c-0.071-0.151-0.23-0.4-0.327-0.663
			c-0.114-0.271-0.27-0.608-0.36-0.951c-0.114-0.355-0.24-0.754-0.318-1.155c-0.163-0.812-0.209-1.683-0.114-2.544
			c0.097-0.858,0.361-1.691,0.755-2.455c0.402-0.761,0.931-1.456,1.578-2.029c0.652-0.57,1.39-1.036,2.146-1.373
			c0.369-0.171,0.769-0.298,1.124-0.407c0.33-0.125,0.698-0.193,0.979-0.257c0.271-0.073,0.566-0.086,0.729-0.115
			C218.218,261.54,218.312,261.527,218.312,261.527"/>
		<path fill="#642F14" d="M191.147,82.832c0,0-0.216-0.064-0.588-0.274c-0.353-0.213-0.922-0.524-1.506-1.063
			c-0.617-0.521-1.266-1.251-1.924-2.193c-0.321-0.471-0.605-1.007-0.915-1.583c-0.258-0.583-0.552-1.221-0.759-1.9
			c-0.426-1.361-0.747-2.925-0.779-4.564c-0.022-0.411-0.026-0.831-0.024-1.258c0.034-0.415,0.066-0.836,0.101-1.262
			c0.037-0.428,0.074-0.864,0.133-1.3c0.087-0.421,0.176-0.848,0.264-1.277c0.098-0.431,0.197-0.864,0.297-1.303
			c0.137-0.417,0.273-0.836,0.411-1.259c0.293-0.84,0.582-1.71,0.985-2.495l0.585-1.208l0.299-0.606l0.078-0.151l0.018-0.038
			l0.209-0.325l0.041-0.061l0.158-0.247c0.423-0.664,0.868-1.316,1.311-1.969c0.681-0.814,1.455-1.668,2.226-2.445
			c0.387-0.43,0.783-0.671,1.184-0.997l1.199-0.903c0.799-0.589,1.713-0.997,2.561-1.456c0.856-0.447,1.778-0.7,2.647-1.009
			c1.768-0.521,3.508-0.743,5.118-0.785c1.612-0.019,3.1,0.148,4.424,0.429c1.323,0.292,2.491,0.669,3.485,1.096
			c0.994,0.422,1.819,0.862,2.474,1.283c0.659,0.392,1.137,0.807,1.46,1.054c0.322,0.264,0.479,0.431,0.479,0.431
			s-0.886,0.194-2.298,0.555c-1.409,0.353-3.347,0.85-5.43,1.552c-1.042,0.346-2.114,0.762-3.168,1.227
			c-1.057,0.466-2.079,1.022-3.049,1.619c-0.455,0.349-0.974,0.587-1.4,0.962l-0.655,0.528c-0.221,0.17-0.462,0.314-0.646,0.535
			c-0.374,0.401-0.857,0.778-1.183,1.144c-0.286,0.385-0.598,0.678-0.958,1.046c-0.455,0.645-0.908,1.292-1.379,1.923l-0.173,0.237
			l-0.044,0.06l-0.01,0.014c-0.174,0.268,0.221-0.346,0.179-0.278l-0.017,0.027l-0.064,0.107l-0.262,0.427
			c-0.175,0.284-0.346,0.568-0.531,0.846c-0.388,0.556-0.676,1.118-0.998,1.672c-0.163,0.275-0.328,0.548-0.489,0.822
			c-0.139,0.275-0.276,0.549-0.413,0.818c-0.146,0.273-0.292,0.541-0.436,0.811c-0.114,0.27-0.234,0.535-0.362,0.799
			c-0.127,0.27-0.25,0.534-0.374,0.797c-0.089,0.264-0.186,0.525-0.296,0.785c-0.101,0.26-0.229,0.521-0.307,0.778
			c-0.076,0.257-0.146,0.513-0.241,0.769c-0.207,0.517-0.271,1.012-0.421,1.512c-0.243,0.994-0.376,1.951-0.459,2.847
			c-0.06,0.886-0.078,1.716-0.036,2.409C190.938,81.945,191.147,82.832,191.147,82.832"/>
		<path fill="#642F15" d="M318.033,212.649c-30.824-0.854-27.323-0.57-43.24-4.315c-14.614-3.439-25.462-13.619-25.462-13.619
			l16.915,21.387c0,0-30.719-8.255-49.994-28.861c-27.967-29.9-32.586-59.807-32.586-59.807s-6.908-4.769-40.063,15.764
			c-33.153,20.53-45.979,53.871-45.979,53.871s15.872-69.326,76.903-87.131c61.029-17.805,83.955,12.252,105.297,36.764
			C301.167,171.214,318.033,212.649,318.033,212.649"/>
		<path fill="#642F14" d="M317.375,212.942c-5.845-0.144-11.688-0.259-17.535-0.449c-3.033-0.102-6.07-0.226-9.105-0.513
			c-1.517-0.164-3.035-0.346-4.536-0.627c-1.504-0.263-2.99-0.59-4.472-0.922l-4.434-1.029c-1.465-0.337-2.97-0.686-4.431-1.08
			c-0.734-0.173-1.467-0.411-2.199-0.65c-0.732-0.232-1.47-0.462-2.178-0.747c-1.44-0.519-2.844-1.13-4.239-1.755l-2.064-1.001
			l-2.026-1.079c-1.333-0.746-2.644-1.532-3.933-2.357c-1.276-0.841-2.544-1.697-3.767-2.62c-1.23-0.918-2.42-1.857-3.589-2.902
			l0.996-0.915l17.071,21.264l1.691,2.105l-2.605-0.715c-2.612-0.718-5.131-1.557-7.651-2.455c-2.512-0.903-5.001-1.88-7.457-2.924
			c-4.912-2.095-9.725-4.443-14.358-7.125c-4.641-2.666-9.105-5.666-13.305-9.024c-2.088-1.696-4.109-3.478-6.046-5.355
			c-0.932-0.95-1.929-1.933-2.807-2.909c-0.9-0.972-1.804-1.936-2.685-2.961c-0.894-1.007-1.776-2.02-2.623-3.055
			c-0.867-1.02-1.706-2.063-2.531-3.118c-1.669-2.094-3.252-4.257-4.804-6.44c-3.068-4.395-5.909-8.954-8.448-13.68
			c-2.536-4.729-4.813-9.604-6.742-14.626c-0.967-2.509-1.854-5.053-2.639-7.634c-0.775-2.604-1.479-5.151-1.981-7.941l0.733,1.169
			c0.029,0.027,0.104,0.066,0.107,0.069l-0.027-0.007c-0.027-0.006-0.015-0.015-0.069-0.025l-0.256-0.069
			c-0.225-0.024-0.425-0.078-0.674-0.089l-0.747-0.034l-0.796,0.038c-1.071,0.07-2.182,0.264-3.292,0.513
			c-2.225,0.523-4.453,1.228-6.643,2.095c-1.095,0.426-2.193,0.846-3.27,1.346c-1.077,0.491-2.174,0.927-3.234,1.471l-3.202,1.568
			l-3.157,1.678c-2.118,1.087-4.162,2.343-6.244,3.51c-2.063,1.208-4.091,2.481-6.141,3.718c-0.962,0.596-2.007,1.3-3.006,1.943
			c-0.996,0.663-1.929,1.345-2.896,2.014c-0.955,0.685-1.896,1.414-2.844,2.118l-2.775,2.212l-2.702,2.303
			c-0.876,0.798-1.766,1.58-2.627,2.39c-1.719,1.629-3.409,3.289-5.027,5.019c-1.636,1.712-3.197,3.496-4.725,5.306
			c-1.523,1.814-2.997,3.671-4.408,5.573c-1.431,1.891-2.772,3.845-4.093,5.811c-1.309,1.975-2.555,3.988-3.753,6.03
			c-1.195,2.042-2.33,4.117-3.394,6.226c-1.051,2.087-2.086,4.28-2.9,6.344l-4.614-1.409c0.817-3.415,1.807-6.58,2.893-9.798
			c1.088-3.195,2.278-6.354,3.577-9.467c2.588-6.229,5.577-12.296,8.973-18.144c6.796-11.671,15.229-22.533,25.51-31.537
			c5.124-4.506,10.714-8.515,16.675-11.893c5.951-3.398,12.278-6.141,18.809-8.221c0.837-0.254,1.592-0.519,2.496-0.762l2.398-0.664
			l2.399-0.663c0.809-0.21,1.663-0.392,2.491-0.587c3.343-0.807,6.664-1.447,10.029-1.986c6.723-1.062,13.581-1.573,20.461-1.279
			c3.439,0.104,6.875,0.533,10.288,1.063c1.693,0.364,3.409,0.613,5.078,1.093l2.514,0.658l2.476,0.79
			c3.289,1.088,6.513,2.392,9.594,3.97c1.564,0.741,3.046,1.631,4.556,2.471c1.459,0.917,2.94,1.799,4.343,2.798
			c5.691,3.87,10.786,8.466,15.477,13.322c4.704,4.854,9.016,9.98,13.3,15.046c2.139,2.507,4.308,5.097,6.351,7.821
			c2.04,2.686,3.949,5.455,5.812,8.248c3.698,5.602,7.124,11.354,10.293,17.23c3.187,5.871,6.168,11.839,8.98,17.88
			c1.395,3.025,2.746,6.069,4.058,9.13l1.934,4.606l0.938,2.315l0.461,1.162l0.228,0.583l0.114,0.293l0.057,0.146l0.028,0.074
			c-0.241,0.128,0.581-0.179-0.536,0.304L317.375,212.942z M318.794,212.364l-1.046,0.402c-1.139,0.436-0.334,0.081-0.596,0.159
			l-0.03-0.069l-0.063-0.142l-0.125-0.281l-0.254-0.564l-0.513-1.129l-1.045-2.249l-2.141-4.477
			c-1.451-2.973-2.941-5.926-4.47-8.856c-3.045-5.871-6.211-11.673-9.587-17.341c-3.374-5.667-6.889-11.243-10.686-16.598
			c-1.906-2.671-3.85-5.309-5.904-7.845c-2.028-2.517-4.18-4.969-6.406-7.458c-4.406-4.964-8.772-9.898-13.42-14.466
			c-2.313-2.3-4.714-4.479-7.188-6.551c-2.464-2.084-5.028-4.024-7.704-5.778c-1.315-0.91-2.703-1.697-4.063-2.526
			c-1.407-0.746-2.784-1.547-4.233-2.203c-2.85-1.402-5.816-2.544-8.842-3.489c-3.012-1.002-6.137-1.6-9.25-2.199
			c-3.146-0.466-6.31-0.85-9.507-0.927c-6.387-0.234-12.825,0.273-19.2,1.319c-3.184,0.527-6.382,1.164-9.484,1.931
			c-0.785,0.19-1.556,0.355-2.351,0.566l-2.403,0.647l-2.402,0.645c-0.702,0.179-1.518,0.452-2.27,0.673
			c-6.133,1.894-12.071,4.407-17.677,7.544c-5.606,3.131-10.901,6.83-15.824,10.994c-9.843,8.35-18.109,18.574-24.793,29.743
			c-3.345,5.589-6.315,11.413-8.899,17.407c-1.297,2.996-2.489,6.034-3.582,9.106c-1.077,3.055-2.095,6.225-2.857,9.256
			l-4.613-1.409c0.986-2.411,2.049-4.567,3.188-6.773c1.138-2.187,2.343-4.329,3.608-6.435c1.267-2.104,2.588-4.175,3.965-6.203
			c1.393-2.021,2.808-4.028,4.311-5.967c1.486-1.952,3.035-3.857,4.635-5.717c1.604-1.856,3.245-3.683,4.962-5.438
			c1.698-1.771,3.471-3.472,5.273-5.138c0.904-0.83,1.837-1.63,2.755-2.446l2.831-2.355l2.909-2.26
			c0.996-0.723,1.97-1.46,2.984-2.168c1.023-0.691,2.051-1.419,3.069-2.077c1.034-0.649,1.996-1.283,3.091-1.947
			c2.095-1.233,4.165-2.501,6.277-3.706c2.137-1.169,4.221-2.416,6.405-3.51l3.25-1.68l3.313-1.578
			c1.092-0.545,2.245-0.991,3.366-1.487c1.117-0.503,2.276-0.933,3.434-1.368c2.306-0.882,4.692-1.616,7.168-2.169
			c1.246-0.263,2.518-0.474,3.854-0.546l1.011-0.035l1.059,0.059c0.354,0.024,0.744,0.108,1.115,0.17
			c0.452,0.145,0.691,0.129,1.454,0.573l0.597,0.348l0.138,0.822c0.411,2.436,1.079,5.021,1.796,7.505
			c0.729,2.502,1.563,4.98,2.476,7.43c1.823,4.902,3.99,9.682,6.415,14.326c1.227,2.316,2.494,4.613,3.851,6.857
			c1.339,2.258,2.769,4.456,4.229,6.637c1.489,2.16,3.009,4.303,4.615,6.379c0.795,1.047,1.603,2.082,2.438,3.095
			c0.818,1.03,1.664,2.03,2.516,3.021c0.832,0.998,1.73,1.982,2.615,2.969c0.882,1.009,1.766,1.898,2.675,2.855
			c1.847,1.842,3.779,3.601,5.786,5.276c4.037,3.329,8.356,6.328,12.876,9.012c4.508,2.7,9.212,5.082,14.025,7.217
			c2.408,1.064,4.846,2.064,7.313,2.992c2.461,0.917,4.966,1.794,7.459,2.518l-0.915,1.391l-16.759-21.511l0.994-0.914
			c1.077,0.992,2.255,1.952,3.44,2.861c1.186,0.921,2.418,1.78,3.662,2.623c1.255,0.828,2.531,1.618,3.833,2.371l1.974,1.086
			l2.013,1.012c1.361,0.632,2.731,1.252,4.138,1.779c0.694,0.292,1.402,0.521,2.111,0.759c0.704,0.24,1.41,0.482,2.15,0.669
			c1.46,0.419,2.906,0.765,4.394,1.119l4.418,1.061c1.474,0.342,2.946,0.677,4.426,0.946c1.479,0.29,2.971,0.479,4.468,0.652
			c2.997,0.307,6.021,0.455,9.048,0.578c6.053,0.241,12.114,0.407,18.175,0.604L318.794,212.364z"/>
		<path fill="#BE4E33" d="M124.403,104.558c24.876-11.425,15.514-29.141,4.863-37.002S94.218,48.016,91.305,56.259
			C88.393,64.502,91.036,119.884,124.403,104.558"/>
		<path fill="#BE4E33" d="M296.024,115.932c-24.298-12.609-14.093-29.853-3.076-37.192c11.016-7.341,35.946-17.83,38.46-9.456
			C333.923,77.656,328.615,132.846,296.024,115.932"/>
		<path fill="#642F15" d="M291.126,238.539c-1.354,1.351-3.544,1.346-4.893-0.004c-1.352-1.354-1.352-3.544,0.002-4.896
			c1.353-1.351,3.543-1.349,4.895,0.007C292.476,235,292.476,237.191,291.126,238.539"/>
		<path fill="#642F15" d="M267.674,235.234c-1.143,1.141-2.996,1.137-4.139-0.005c-1.142-1.144-1.14-2.997,0.004-4.14
			s2.998-1.14,4.141,0.006C268.818,232.239,268.818,234.093,267.674,235.234"/>
		<path fill="#642F15" d="M279.574,249.983c-1.146,1.143-2.999,1.139-4.141-0.005c-1.141-1.143-1.141-2.995,0.004-4.139
			c1.143-1.142,2.996-1.14,4.139,0.005C280.716,246.989,280.716,248.842,279.574,249.983"/>
		<path fill="#642F15" d="M125.263,231.137c1.145,1.143,2.997,1.137,4.14-0.005c1.141-1.145,1.14-2.995-0.003-4.14
			c-1.146-1.141-2.998-1.139-4.141,0.006C124.118,228.142,124.118,229.995,125.263,231.137"/>
		<path fill="#642F15" d="M147.274,228.21c1.144,1.141,2.997,1.139,4.139-0.004c1.141-1.145,1.141-2.999-0.003-4.139
			c-1.145-1.143-2.998-1.141-4.14,0.005C146.13,225.216,146.13,227.068,147.274,228.21"/>
		<path fill="#642F15" d="M138.038,241.728c1.379,1.378,3.614,1.373,4.991-0.006c1.376-1.379,1.375-3.613-0.005-4.991
			c-1.38-1.375-3.614-1.373-4.991,0.008C136.659,238.116,136.659,240.352,138.038,241.728"/>
	</g>
</g>
</svg>
