<?xml version="1.0" encoding="utf-8"?>
<!-- Generator: Adobe Illustrator 15.1.0, SVG Export Plug-In . SVG Version: 6.00 Build 0)  -->
<!DOCTYPE svg PUBLIC "-//W3C//DTD SVG 1.1//EN" "http://www.w3.org/Graphics/SVG/1.1/DTD/svg11.dtd">
<svg version="1.1" id="Layer_1" xmlns="http://www.w3.org/2000/svg" xmlns:xlink="http://www.w3.org/1999/xlink" x="0px" y="0px"
	 width="40.861px" height="40.861px" viewBox="0 0 40.861 40.861" enable-background="new 0 0 40.861 40.861" xml:space="preserve">
<path fill="#FFFFFF" d="M20.361,21.313l-5.979-5.99c-0.38-0.381-0.38-0.999,0-1.379c0.38-0.381,0.997-0.381,1.377,0l5.291,5.299
	l5.29-5.299c0.38-0.381,0.997-0.381,1.377,0c0.38,0.38,0.38,0.999,0,1.379l-5.979,5.99c-0.191,0.19-0.439,0.286-0.688,0.286
	C20.8,21.599,20.551,21.503,20.361,21.313z"/>
<path fill="#FFFFFF" d="M20.361,28.436l-5.979-5.99c-0.38-0.381-0.38-0.999,0-1.379s0.997-0.381,1.377,0l5.291,5.299l5.29-5.299
	c0.38-0.381,0.997-0.381,1.377,0c0.38,0.381,0.38,0.999,0,1.379l-5.979,5.99c-0.191,0.19-0.439,0.286-0.688,0.286
	C20.8,28.721,20.551,28.625,20.361,28.436z"/>
<path fill="#FFFFFF" d="M20.431,40.861C9.165,40.861,0,31.696,0,20.431S9.165,0,20.431,0s20.431,9.165,20.431,20.431
	S31.696,40.861,20.431,40.861z M20.431,3C10.819,3,3,10.819,3,20.431s7.819,17.431,17.431,17.431s17.431-7.819,17.431-17.431
	S30.042,3,20.431,3z"/>
</svg>
