<?xml version="1.0" encoding="utf-8"?>
<!-- Generator: Adobe Illustrator 15.1.0, SVG Export Plug-In . SVG Version: 6.00 Build 0)  -->
<!DOCTYPE svg PUBLIC "-//W3C//DTD SVG 1.1//EN" "http://www.w3.org/Graphics/SVG/1.1/DTD/svg11.dtd">
<svg version="1.1" xmlns="http://www.w3.org/2000/svg" xmlns:xlink="http://www.w3.org/1999/xlink" x="0px" y="0px" width="400px"
	 height="400px" viewBox="0 0 400 400" enable-background="new 0 0 400 400" xml:space="preserve">
<g id="Layer_1">
	<circle fill="#C3E6E4" cx="202.5" cy="241.713" r="158.287"/>
</g>
<g id="Layer_2">
	<g>
		<path fill="#DDD2B4" d="M220.484,120.12c-67.921-1.587-214.097-3.136-219.811-21.392C-5.04,80.474,27.487,7.28,27.487,7.28
			s4.59-13.443,12.655-3.794c8.063,9.648,11.126,65.563,31.34,68.869c20.715,3.389,254.593,17.596,275.299,2.555
			c0,0,19.238-48.524,23.502-62.243c2.107-6.779,30.787,44.481,29.688,80.578C398.973,126.011,341.665,122.953,220.484,120.12"/>
		<path fill="#9C6F3C" d="M149.306,348.504c19.368,21.931,75.299,28.699,99.336,2.942c27.558-29.529,62.422-122.73,42.578-190.238
			c-11.315-38.497-147.47-40.763-172.132-19.522c-23.188,19.97-16.354,70.398-10.251,108.32
			C115.266,289.94,133.945,331.114,149.306,348.504"/>
		<path fill="#2E1811" d="M145.605,164.5c-11.958-2.075-23.894-0.04-21.872,8.019c2.024,8.059,11.022,8.58,19.848,6.445
			c8.819-2.134,15.637-4.154,13.769-8.867C155.48,165.384,145.605,164.5,145.605,164.5"/>
		<path fill="#2E1811" d="M264.026,221.182c0,12.46-11.565,12.46-11.565,0S264.026,208.722,264.026,221.182"/>
		<path fill="#2E1811" d="M258.51,168.141c11.494-1.198,22.552,1.682,19.821,9.534c-2.733,7.854-11.278,7.722-19.387,4.97
			c-8.107-2.756-14.334-5.254-12.092-9.798C249.099,168.303,258.51,168.141,258.51,168.141"/>
		<path fill="#2E1811" d="M151.684,217.419c0,12.459-11.567,12.459-11.567,0C140.116,204.959,151.684,204.959,151.684,217.419"/>
		<path fill="#664119" d="M222.591,286.514c0,0,0.056,0.115,0.134,0.315c0.064,0.192,0.207,0.502,0.294,0.844
			c0.098,0.349,0.237,0.782,0.322,1.241c0.095,0.463,0.168,0.967,0.217,1.499c0.086,1.06,0.047,2.219-0.179,3.359
			c-0.219,1.146-0.636,2.268-1.194,3.313c-0.57,1.039-1.285,1.998-2.128,2.803c-0.836,0.809-1.788,1.471-2.727,1.97
			c-0.476,0.249-0.938,0.459-1.38,0.629c-0.433,0.177-0.873,0.294-1.223,0.398c-0.335,0.114-0.674,0.16-0.872,0.212
			c-0.211,0.042-0.34,0.057-0.34,0.057s-0.058-0.116-0.136-0.317c-0.064-0.192-0.21-0.504-0.296-0.846
			c-0.1-0.351-0.24-0.784-0.326-1.243c-0.096-0.464-0.17-0.968-0.218-1.501c-0.09-1.06-0.051-2.218,0.178-3.358
			c0.221-1.145,0.641-2.266,1.206-3.307c0.574-1.036,1.292-1.994,2.138-2.799c0.837-0.809,1.792-1.468,2.729-1.969
			c0.473-0.25,0.934-0.459,1.374-0.63c0.433-0.178,0.873-0.295,1.219-0.402c0.333-0.111,0.673-0.159,0.87-0.212
			C222.461,286.526,222.591,286.514,222.591,286.514"/>
		<path fill="#664119" d="M173.649,285c0,0,0.13,0.023,0.342,0.084c0.2,0.066,0.543,0.138,0.881,0.28
			c0.351,0.135,0.797,0.289,1.232,0.503c0.444,0.208,0.913,0.462,1.391,0.757c0.946,0.59,1.91,1.349,2.754,2.256
			c0.851,0.903,1.572,1.96,2.146,3.092c0.566,1.136,0.981,2.345,1.197,3.567c0.226,1.219,0.255,2.444,0.155,3.557
			c-0.054,0.559-0.132,1.085-0.232,1.568c-0.093,0.478-0.235,0.926-0.341,1.289c-0.091,0.354-0.239,0.674-0.306,0.873
			c-0.083,0.207-0.142,0.325-0.142,0.325s-0.129-0.023-0.345-0.083c-0.2-0.065-0.543-0.138-0.882-0.278
			c-0.354-0.135-0.8-0.287-1.236-0.5c-0.445-0.21-0.914-0.462-1.395-0.755c-0.949-0.589-1.911-1.35-2.751-2.257
			c-0.849-0.906-1.568-1.966-2.137-3.099c-0.56-1.138-0.976-2.349-1.187-3.572c-0.22-1.22-0.252-2.445-0.154-3.557
			c0.051-0.558,0.13-1.084,0.229-1.567c0.091-0.476,0.233-0.925,0.337-1.286c0.09-0.354,0.236-0.673,0.305-0.873
			C173.592,285.117,173.649,285,173.649,285"/>
		<path fill="#664119" d="M158.879,277.338c0,0,0.054-0.068,0.159-0.201c0.11-0.124,0.25-0.338,0.485-0.558
			c0.234-0.232,0.525-0.516,0.864-0.851c0.175-0.168,0.365-0.361,0.572-0.541c0.207-0.17,0.425-0.349,0.655-0.537
			c0.927-0.755,2.105-1.672,3.504-2.508c0.697-0.446,1.461-0.866,2.266-1.342c0.809-0.479,1.676-0.82,2.582-1.27
			c0.91-0.421,1.871-0.811,2.871-1.243c1.002-0.442,2.046-0.702,3.123-1.078c2.159-0.641,4.479-1.39,6.875-1.755
			c1.2-0.246,2.427-0.414,3.672-0.603c1.242-0.184,2.514-0.417,3.779-0.441c2.533-0.185,5.117-0.201,7.699-0.245l0.969,0.021
			l0.241,0.004l0.122,0.001l0.426,0.021l0.46,0.038l1.834,0.149c1.22,0.081,2.429,0.275,3.635,0.405
			c1.212,0.138,2.372,0.295,3.59,0.524c1.306,0.283,2.59,0.566,3.836,0.912c1.25,0.335,2.477,0.626,3.653,1.007
			c0.295,0.089,0.587,0.18,0.879,0.27c0.283,0.109,0.563,0.221,0.842,0.331c0.56,0.215,1.108,0.433,1.643,0.673
			c2.145,0.927,4.128,1.771,5.895,2.922c0.877,0.558,1.715,1.06,2.483,1.589c0.385,0.25,0.757,0.524,1.111,0.82
			c0.355,0.283,0.699,0.563,1.019,0.844c0.646,0.562,1.244,1.062,1.767,1.569c0.521,0.536,0.983,1.052,1.38,1.525
			c0.813,0.887,1.33,1.793,1.683,2.333c0.351,0.557,0.486,0.948,0.49,0.926l-0.623,0.707c0,0-0.057-0.043-0.167-0.123
			c-0.11-0.083-0.268-0.205-0.517-0.35c-0.478-0.294-1.155-0.752-2.121-1.196c-0.475-0.232-0.991-0.508-1.568-0.774
			c-0.596-0.233-1.239-0.484-1.928-0.753c-1.351-0.592-2.969-1.022-4.708-1.565c-1.719-0.609-3.678-0.942-5.718-1.398
			c-0.51-0.11-1.028-0.221-1.552-0.334c-0.261-0.058-0.525-0.113-0.79-0.172l-0.813-0.106c-1.086-0.144-2.196-0.288-3.324-0.438
			c-1.128-0.148-2.275-0.3-3.435-0.453c-1.178-0.095-2.381-0.137-3.588-0.21c-1.209-0.065-2.426-0.132-3.648-0.198l-1.837-0.101
			l-0.459-0.022c-0.085-0.01-0.286,0-0.424-0.002l-0.918,0.009c-2.443-0.017-4.889-0.034-7.296-0.051
			c-2.404,0.011-4.765,0.211-7.055,0.301c-2.294,0.055-4.484,0.392-6.572,0.598c-2.096,0.178-4.043,0.535-5.849,0.844
			c-1.813,0.276-3.442,0.646-4.896,0.957c-1.463,0.277-2.695,0.656-3.725,0.934c-1.043,0.261-1.793,0.573-2.338,0.738
			c-0.537,0.184-0.823,0.31-0.823,0.31L158.879,277.338z"/>
		<path fill="#9C6F3C" d="M40.947,161.896c0,0,0.029-0.118,0.085-0.351c0.058-0.226,0.132-0.588,0.256-0.999
			c0.119-0.424,0.265-0.945,0.458-1.517c0.181-0.593,0.407-1.234,0.67-1.936c1.04-2.823,2.709-6.453,5.037-10.101
			c2.329-3.644,5.327-7.275,8.878-10.425c3.54-3.172,7.649-5.827,12.046-7.847c4.398-2.021,9.095-3.384,13.807-3.982
			c4.702-0.624,9.41-0.502,13.69,0.137c2.134,0.307,4.18,0.782,6.019,1.261c1.852,0.508,3.51,1.047,4.921,1.595
			c0.703,0.264,1.336,0.514,1.904,0.771c0.56,0.23,1.05,0.463,1.448,0.656c0.392,0.177,0.715,0.359,0.924,0.466
			c0.212,0.11,0.32,0.167,0.32,0.167s-0.028,0.12-0.083,0.353c-0.059,0.227-0.132,0.591-0.255,1.005
			c-0.116,0.425-0.263,0.948-0.454,1.521c-0.18,0.597-0.406,1.24-0.668,1.941c-0.514,1.427-1.195,3.031-2.027,4.76
			c-0.846,1.703-1.828,3.559-2.998,5.37c-2.326,3.648-5.324,7.28-8.879,10.421c-3.545,3.162-7.656,5.812-12.066,7.806
			c-4.409,1.993-9.109,3.349-13.827,3.939c-4.706,0.611-9.414,0.493-13.692-0.142c-4.278-0.638-8.113-1.759-10.926-2.829
			c-0.701-0.26-1.334-0.511-1.9-0.764c-0.557-0.229-1.047-0.46-1.445-0.65c-0.393-0.177-0.713-0.357-0.922-0.461
			C41.054,161.952,40.947,161.896,40.947,161.896"/>
		<path fill="#9C6F3C" d="M292.584,140.007c0,0,0.108-0.056,0.319-0.167c0.209-0.103,0.531-0.283,0.923-0.461
			c0.398-0.189,0.887-0.421,1.443-0.65c0.566-0.253,1.2-0.503,1.9-0.764c2.814-1.069,6.649-2.19,10.929-2.828
			c4.277-0.635,8.985-0.754,13.691-0.141c4.717,0.589,9.418,1.947,13.827,3.94c4.411,1.992,8.521,4.642,12.065,7.805
			c3.555,3.142,6.553,6.771,8.881,10.422c1.169,1.811,2.15,3.665,2.997,5.367c0.832,1.729,1.514,3.336,2.027,4.76
			c0.262,0.704,0.489,1.347,0.668,1.942c0.19,0.573,0.337,1.097,0.453,1.522c0.124,0.415,0.196,0.777,0.255,1.005
			c0.056,0.231,0.085,0.351,0.085,0.351s-0.108,0.059-0.322,0.168c-0.208,0.106-0.53,0.287-0.922,0.467
			c-0.399,0.192-0.89,0.426-1.448,0.657c-0.568,0.256-1.202,0.506-1.904,0.771c-1.41,0.546-3.07,1.085-4.92,1.593
			c-1.84,0.479-3.887,0.954-6.018,1.261c-4.281,0.64-8.989,0.76-13.69,0.14c-4.712-0.602-9.41-1.964-13.808-3.985
			c-4.399-2.02-8.507-4.675-12.048-7.847c-3.551-3.149-6.549-6.782-8.879-10.425c-2.326-3.647-3.997-7.277-5.037-10.102
			c-0.263-0.701-0.489-1.342-0.671-1.936c-0.191-0.569-0.338-1.092-0.456-1.516c-0.125-0.411-0.198-0.774-0.256-1
			C292.613,140.125,292.584,140.007,292.584,140.007"/>
		<path fill="#9B8D6B" d="M135.202,121.763c0,0-0.249-0.004-0.721-0.1c-0.458-0.11-1.16-0.263-1.982-0.629
			c-0.422-0.171-0.878-0.389-1.347-0.668c-0.497-0.254-0.981-0.595-1.498-0.974c-1.047-0.749-2.108-1.756-3.137-2.979
			c-0.55-0.597-0.957-1.306-1.471-2.009c-0.503-0.712-0.854-1.514-1.311-2.316c-0.786-1.638-1.484-3.441-1.952-5.348
			c-0.301-0.95-0.448-1.926-0.605-2.915c-0.083-0.496-0.165-0.995-0.247-1.497c-0.088-0.502-0.083-1.002-0.127-1.507
			c-0.051-1.009-0.159-2.032-0.157-3.052c0.033-1.013,0.066-2.028,0.098-3.045l0.041-0.762l0.021-0.382l0.061-0.504l0.183-1.418
			c0.059-0.474,0.12-0.942,0.194-1.411s0.128-0.917,0.267-1.459c0.229-1.04,0.482-2.068,0.752-3.07
			c0.293-0.989,0.667-1.931,1.025-2.856c0.171-0.464,0.359-0.92,0.602-1.361c0.225-0.448,0.454-0.884,0.689-1.312
			c0.426-0.862,1.018-1.66,1.567-2.419c1.109-1.523,2.461-2.781,3.812-3.752c0.68-0.477,1.41-0.844,2.061-1.196
			c0.72-0.262,1.353-0.569,2.007-0.713c0.654-0.142,1.232-0.311,1.808-0.331c0.277-0.021,0.544-0.044,0.798-0.064
			c0.258-0.003,0.502,0.011,0.729,0.019c0.913,0.019,1.613,0.208,2.07,0.315c0.461,0.131,0.686,0.243,0.686,0.243
			s-0.249,0.058-0.685,0.191c-0.436,0.136-1.059,0.369-1.782,0.733c-0.179,0.092-0.368,0.187-0.564,0.286
			c-0.185,0.114-0.382,0.235-0.586,0.363c-0.406,0.228-0.803,0.556-1.223,0.869c-0.415,0.316-0.801,0.734-1.22,1.107
			c-0.364,0.465-0.786,0.866-1.138,1.382c-0.713,1.017-1.39,2.147-1.918,3.473c-0.25,0.675-0.586,1.295-0.76,2.058
			c-0.18,0.751-0.51,1.418-0.627,2.238c-0.139,0.794-0.374,1.576-0.51,2.376c-0.096,0.804-0.216,1.609-0.36,2.413
			c-0.082,0.372-0.109,0.867-0.149,1.339c-0.033,0.472-0.083,0.944-0.133,1.417l-0.15,1.424l-0.021,0.177l-0.009,0.09l-0.003,0.044
			l-0.002,0.022c0.005-0.059-0.017,0.163,0.012-0.127l-0.01,0.337l-0.022,0.67c-0.052,0.894-0.101,1.785-0.152,2.674
			c-0.006,0.882-0.012,1.758-0.018,2.629c-0.028,0.877,0.029,1.722,0.069,2.563c0.039,0.845,0.063,1.686,0.173,2.482
			c0.143,1.626,0.398,3.165,0.707,4.618c0.327,1.444,0.723,2.797,1.19,4.017c0.473,1.217,0.99,2.329,1.547,3.269
			c0.268,0.482,0.545,0.922,0.823,1.313c0.264,0.414,0.542,0.763,0.795,1.085C134.408,121.123,135.202,121.763,135.202,121.763"/>
		<path fill="#9B8D6B" d="M173.649,72.263c0,0-0.149,0.18-0.427,0.515c-0.276,0.329-0.645,0.847-1.113,1.465
			c-0.221,0.319-0.466,0.67-0.733,1.053c-0.248,0.384-0.518,0.801-0.804,1.246c-0.257,0.467-0.562,0.92-0.839,1.428
			c-0.256,0.525-0.571,1.029-0.832,1.595c-0.54,1.12-1.064,2.332-1.508,3.627c-0.45,1.295-0.822,2.669-1.103,4.099
			c-0.063,0.361-0.112,0.727-0.185,1.086c-0.082,0.357-0.145,0.723-0.162,1.101c-0.035,0.371-0.069,0.748-0.104,1.123
			c-0.038,0.376-0.109,0.746-0.095,1.134c-0.021,0.766-0.037,1.537-0.057,2.313c0.038,0.78,0.075,1.565,0.114,2.349l0.005,0.296
			c-0.005-0.051,0.013,0.139-0.011-0.108l0.002,0.021l0.004,0.04l0.008,0.084l0.018,0.165l0.068,0.663l0.135,1.32
			c0.083,0.932,0.203,1.628,0.311,2.399c0.091,0.749,0.226,1.52,0.378,2.299c0.133,0.774,0.286,1.535,0.467,2.276
			c0.16,0.749,0.338,1.482,0.54,2.192c0.188,0.717,0.379,1.419,0.605,2.088c0.205,0.682,0.414,1.346,0.655,1.971
			c0.216,0.643,0.446,1.257,0.69,1.837c0.222,0.598,0.464,1.155,0.707,1.685c0.222,0.548,0.468,1.043,0.698,1.52
			c0.449,0.961,0.897,1.781,1.275,2.469c0.753,1.372,1.291,2.152,1.291,2.152s-0.229-0.062-0.64-0.229
			c-0.398-0.179-1.011-0.431-1.722-0.854c-0.716-0.415-1.566-0.971-2.462-1.702c-0.463-0.357-0.922-0.771-1.395-1.221
			c-0.49-0.441-0.954-0.943-1.437-1.479c-0.965-1.067-1.915-2.319-2.788-3.727c-0.472-0.689-0.847-1.448-1.259-2.22
			c-0.438-0.762-0.757-1.588-1.111-2.424c-0.17-0.42-0.369-0.837-0.515-1.272c-0.139-0.435-0.281-0.876-0.422-1.318
			c-0.143-0.445-0.283-0.893-0.427-1.342c-0.106-0.475-0.214-0.95-0.321-1.429c-0.199-0.95-0.462-1.978-0.533-2.811l-0.169-1.32
			l-0.084-0.658l-0.055-0.461l-0.015-0.37c-0.022-0.989-0.043-1.98-0.065-2.966c0.028-0.992,0.171-1.981,0.259-2.958
			c0.276-1.95,0.743-3.854,1.423-5.612c0.658-1.762,1.521-3.376,2.467-4.795c0.451-0.72,1-1.353,1.489-1.976
			c0.505-0.612,1.061-1.151,1.568-1.672c0.528-0.505,1.069-0.952,1.574-1.372c0.527-0.401,1.038-0.761,1.521-1.087
			c0.501-0.307,0.967-0.586,1.404-0.829c0.452-0.227,0.864-0.43,1.241-0.597c0.764-0.333,1.393-0.52,1.813-0.647
			C173.42,72.297,173.649,72.263,173.649,72.263"/>
		<path fill="#9B8D6B" d="M208.705,75.745c0,0,0.083,0.185,0.209,0.531c0.116,0.346,0.322,0.854,0.514,1.498
			c0.402,1.286,0.882,3.12,1.272,5.311c0.396,2.188,0.704,4.733,0.848,7.45c0.079,1.357,0.108,2.756,0.108,4.179
			c-0.008,1.419-0.054,2.86-0.14,4.299c-0.09,1.438-0.215,2.872-0.379,4.284c-0.169,1.411-0.377,2.796-0.616,4.135
			c-0.472,2.677-1.091,5.166-1.75,7.291c-0.658,2.124-1.36,3.886-1.921,5.115c-0.27,0.614-0.536,1.094-0.697,1.423
			c-0.167,0.328-0.273,0.502-0.273,0.502s-0.084-0.187-0.212-0.531c-0.117-0.347-0.323-0.855-0.516-1.5
			c-0.406-1.286-0.887-3.121-1.28-5.311c-0.398-2.188-0.704-4.733-0.845-7.449c-0.073-1.357-0.113-2.76-0.106-4.178
			c0.01-1.421,0.062-2.862,0.148-4.299c0.089-1.439,0.22-2.874,0.385-4.285c0.176-1.412,0.376-2.798,0.622-4.135
			c0.474-2.677,1.091-5.166,1.751-7.29c0.655-2.125,1.354-3.886,1.913-5.117c0.268-0.612,0.535-1.092,0.691-1.421
			C208.6,75.918,208.705,75.745,208.705,75.745"/>
		<path fill="#9B8D6B" d="M239.272,121.763c0,0,0.102-0.188,0.293-0.541c0.192-0.343,0.44-0.871,0.765-1.507
			c0.634-1.288,1.479-3.104,2.281-5.254c0.807-2.152,1.563-4.636,2.056-7.282c0.237-1.325,0.436-2.685,0.532-4.075
			c0.022-0.345,0.086-0.688,0.081-1.041c-0.003-0.352,0-0.702,0.018-1.053l0.04-1.055c-0.009-0.354-0.04-0.708-0.058-1.063
			l-0.029-1.063l-0.006-0.265l-0.002-0.133l-0.002-0.066v-0.017c-0.01-0.108,0.017,0.13,0.013,0.098l-0.005-0.037l-0.062-0.6
			c-0.099-0.785-0.129-1.621-0.21-2.365c-0.104-0.681-0.184-1.361-0.244-2.045c-0.102-0.69-0.239-1.382-0.322-2.073
			c-0.247-1.354-0.506-2.668-0.813-3.907c-0.309-1.238-0.651-2.402-1.003-3.487c-0.37-1.071-0.74-2.063-1.115-2.938
			c-0.377-0.871-0.739-1.642-1.068-2.267c-0.645-1.266-1.141-1.981-1.141-1.981s0.216,0.04,0.599,0.178
			c0.374,0.147,0.954,0.353,1.612,0.733c0.678,0.361,1.447,0.88,2.292,1.549c0.428,0.329,0.825,0.727,1.282,1.132
			c0.428,0.424,0.849,0.894,1.301,1.386c0.413,0.514,0.848,1.058,1.271,1.636c0.396,0.592,0.814,1.21,1.196,1.865
			c0.365,0.664,0.748,1.354,1.081,2.076c0.33,0.723,0.65,1.477,0.939,2.249c0.276,0.778,0.533,1.572,0.774,2.397
			c0.221,0.848,0.422,1.715,0.604,2.595c0.146,0.825,0.273,1.583,0.373,2.389l0.079,0.599l0.02,0.193l0.007,0.085l0.009,0.169
			l0.02,0.338l0.071,1.351c0.008,0.452,0.031,0.902,0.025,1.354l-0.082,1.355c-0.042,0.902-0.139,1.794-0.317,2.672
			c-0.159,0.879-0.291,1.753-0.572,2.586c-0.265,0.832-0.449,1.675-0.809,2.445c-0.605,1.577-1.363,3.021-2.175,4.314
			c-0.819,1.291-1.706,2.421-2.591,3.394c-0.895,0.964-1.781,1.771-2.609,2.428c-0.834,0.652-1.599,1.161-2.254,1.539
			C240.105,121.505,239.272,121.763,239.272,121.763"/>
		<path fill="#9B8D6B" d="M272.067,125.469c0,0,0.5-0.782,1.291-2.12c0.792-1.331,1.887-3.209,3.004-5.444
			c0.256-0.571,0.566-1.134,0.831-1.742c0.258-0.599,0.526-1.219,0.801-1.858c0.221-0.654,0.49-1.294,0.731-1.96
			c0.185-0.684,0.413-1.354,0.629-2.038c0.138-0.704,0.309-1.398,0.484-2.097c0.093-0.713,0.181-1.426,0.313-2.136
			c0.049-0.716,0.04-1.435,0.113-2.151c0-0.716-0.077-1.435-0.097-2.151c-0.024-0.719-0.212-1.427-0.297-2.142l-0.079-0.535
			l-0.009-0.067c0.019,0.069-0.047-0.178,0.043,0.151l-0.006-0.019l-0.012-0.039l-0.038-0.157l-0.077-0.314l-0.313-1.253
			c-0.213-0.829-0.407-1.658-0.584-2.482c-0.091-0.409-0.182-0.817-0.27-1.222c-0.107-0.358-0.215-0.715-0.319-1.069
			c-0.199-0.708-0.421-1.397-0.591-2.103c-0.089-0.352-0.177-0.696-0.264-1.04c-0.099-0.343-0.243-0.669-0.346-1.005
			c-0.225-0.675-0.441-1.331-0.65-1.965c-0.104-0.321-0.193-0.646-0.303-0.951c-0.118-0.298-0.247-0.586-0.355-0.88
			c-0.456-1.157-0.839-2.28-1.294-3.198c-0.205-0.478-0.413-0.921-0.587-1.354c-0.207-0.406-0.396-0.778-0.566-1.116
			c-0.335-0.701-0.637-1.228-0.847-1.599c-0.209-0.372-0.337-0.566-0.337-0.566s0.055,0.019,0.161,0.056
			c0.101,0.037,0.271,0.087,0.46,0.185c0.376,0.189,0.998,0.437,1.661,0.885c0.349,0.215,0.726,0.464,1.139,0.743
			c0.386,0.296,0.785,0.637,1.227,0.999c0.912,0.709,1.761,1.646,2.705,2.688c0.996,1.021,1.763,2.296,2.695,3.615
			c0.227,0.333,0.461,0.667,0.664,1.029c0.195,0.37,0.393,0.746,0.593,1.124c0.407,0.759,0.776,1.56,1.177,2.366
			c0.193,0.404,0.409,0.817,0.581,1.229c0.142,0.391,0.283,0.784,0.427,1.179c0.292,0.79,0.571,1.594,0.835,2.409l0.407,1.224
			l0.104,0.307l0.052,0.154l0.012,0.038l0.056,0.211l0.018,0.093l0.145,0.746c0.162,0.997,0.42,1.988,0.484,3.006
			c0.022,1.021,0.086,2.045,0.054,3.056c-0.088,1.012-0.218,2.016-0.362,2.997c-0.222,0.969-0.469,1.922-0.735,2.849
			c-0.337,0.899-0.678,1.781-1.042,2.63c-0.428,0.814-0.836,1.615-1.274,2.375c-0.482,0.728-0.948,1.436-1.428,2.103
			c-0.513,0.643-1.018,1.253-1.518,1.829c-0.519,0.561-1.041,1.078-1.542,1.565c-1.033,0.953-2.023,1.754-2.952,2.395
			c-0.924,0.644-1.762,1.149-2.48,1.521c-0.7,0.389-1.304,0.617-1.696,0.792C272.29,125.405,272.067,125.469,272.067,125.469"/>
		<path fill="#4F2110" d="M185.472,325.204c0,0,0.536,0.082,1.376,0.244c0.403,0.086,0.892,0.19,1.454,0.309
			c0.521,0.124,1.109,0.262,1.751,0.413c0.615,0.155,1.263,0.318,1.918,0.472c0.649,0.165,1.311,0.316,1.957,0.45
			c0.646,0.132,1.274,0.249,1.866,0.328c0.297,0.042,0.58,0.071,0.855,0.094l0.405,0.029l0.194,0.006l0.095,0.006l0.05,0.003h0.014
			c-0.287,0.007-0.073,0.002-0.135,0.003h0.01l0.04-0.001l0.646-0.011h0.323c0.112,0.002,0.141-0.014,0.217-0.014
			c0.256-0.012,0.506,0.002,0.846-0.031c0.639-0.021,1.271-0.113,1.916-0.181c0.634-0.098,1.28-0.185,1.902-0.319
			c0.631-0.119,1.235-0.271,1.823-0.414c0.583-0.151,1.137-0.311,1.644-0.464c0.502-0.156,0.955-0.31,1.348-0.443
			c0.371-0.146,0.719-0.246,0.921-0.345c0.226-0.088,0.347-0.134,0.347-0.134s0.043,0.526-0.145,1.42
			c-0.199,0.876-0.655,2.104-1.558,3.355c-0.453,0.619-0.999,1.271-1.672,1.856c-0.658,0.609-1.443,1.153-2.311,1.649
			c-0.882,0.461-1.846,0.884-2.881,1.141c-0.49,0.147-1.091,0.244-1.688,0.328c-0.138,0.021-0.321,0.044-0.423,0.052l-0.324,0.023
			l-0.644,0.041l-0.233,0.006l-0.113-0.002l-0.225-0.004l-0.451-0.019c-0.293-0.03-0.592-0.052-0.88-0.096
			c-0.573-0.093-1.133-0.213-1.659-0.377c-1.058-0.325-2.005-0.771-2.838-1.287c-0.833-0.515-1.554-1.093-2.181-1.682
			c-0.618-0.603-1.138-1.215-1.573-1.813c-0.429-0.607-0.773-1.191-1.045-1.733c-0.267-0.547-0.468-1.041-0.607-1.467
			C185.527,325.745,185.472,325.204,185.472,325.204"/>
	</g>
</g>
</svg>
