<?xml version="1.0" encoding="utf-8"?>
<!-- Generator: Adobe Illustrator 15.1.0, SVG Export Plug-In . SVG Version: 6.00 Build 0)  -->
<!DOCTYPE svg PUBLIC "-//W3C//DTD SVG 1.1//EN" "http://www.w3.org/Graphics/SVG/1.1/DTD/svg11.dtd">
<svg version="1.1" id="Layer_1" xmlns="http://www.w3.org/2000/svg" xmlns:xlink="http://www.w3.org/1999/xlink" x="0px" y="0px"
	 width="400px" height="400px" viewBox="0 0 400 400" enable-background="new 0 0 400 400" xml:space="preserve">
<g id="Layer_1_1_">
	<circle fill="#C3E6E4" cx="202.5" cy="241.713" r="158.287"/>
</g>
<g id="Layer_5">
	<g>
		<path fill="#FFFFFF" d="M157.148,193.199c16.537-5.223,1.741-70.496-11.313-105.308C132.777,53.078,84.914-21.766,41.398,6.082
			C5.412,29.113,59.467,88.477,81.431,116.611C89.44,126.873,140.222,198.545,157.148,193.199"/>
		<path fill="#FFFFFF" d="M338.693,251.475c0,52.793-60.729,76.785-135.637,76.785c-74.911,0-135.638-23.992-135.638-76.785
			c0-52.795,60.727-114.401,135.638-114.401C277.965,137.072,338.693,198.679,338.693,251.475"/>
		<path fill="#FFFFFF" d="M247.598,195.892c-16.535-5.224-1.74-70.495,11.313-105.308c13.055-34.813,51.703-109.659,95.219-81.81
			c35.986,23.031-8.854,82.394-30.813,110.528C315.306,129.564,264.523,201.236,247.598,195.892"/>
		<path fill="#FFFFFF" d="M177.901,239.273c0,18.326-14.856,33.186-33.185,33.186c-18.326,0-33.184-14.857-33.184-33.186
			c0-18.33,14.857-33.187,33.184-33.187C163.045,206.088,177.901,220.945,177.901,239.273"/>
		<path fill="#2E1811" d="M144.717,277.459c-21.055,0-38.184-17.131-38.184-38.186c0-21.057,17.129-38.187,38.184-38.187
			c21.056,0,38.185,17.13,38.185,38.187C182.901,260.328,165.774,277.459,144.717,277.459 M144.717,211.09
			c-15.541,0-28.184,12.645-28.184,28.186s12.643,28.185,28.184,28.185s28.185-12.644,28.185-28.185
			C172.901,223.734,160.258,211.09,144.717,211.09"/>
		<path fill="#FFFFFF" d="M299.189,239.08c0,18.328-14.855,33.188-33.187,33.188c-18.326,0-33.185-14.856-33.185-33.188
			c0-18.326,14.855-33.184,33.185-33.184C284.334,205.896,299.189,220.754,299.189,239.08"/>
		<path fill="#2E1811" d="M266.004,277.268c-21.056,0-38.186-17.131-38.186-38.188c0-21.055,17.13-38.184,38.186-38.184
			c21.057,0,38.188,17.129,38.188,38.184C304.19,260.137,287.061,277.268,266.004,277.268 M266.004,210.896
			c-15.541,0-28.186,12.645-28.186,28.186s12.645,28.186,28.186,28.186s28.188-12.645,28.188-28.186
			S281.545,210.896,266.004,210.896"/>
		<path fill="#2E1811" d="M262.318,239.393c0,13.215-12.269,13.215-12.269,0C250.051,226.18,262.318,226.18,262.318,239.393"/>
		<path fill="#2E1811" d="M148.726,239.08c0,13.215,12.266,13.215,12.266,0S148.726,225.865,148.726,239.08"/>
		<path fill="#4F2110" d="M190.164,265.391c0,0,0.432,0.697,1.204,1.773c0.386,0.539,0.847,1.172,1.399,1.844
			c0.545,0.676,1.17,1.391,1.876,2.078c0.696,0.691,1.471,1.361,2.315,1.928c0.838,0.574,1.734,1.062,2.686,1.43
			c0.943,0.39,1.958,0.652,3.036,0.834c0.543,0.07,1.092,0.168,1.672,0.197c0.282,0.029,0.576,0.037,0.873,0.033l0.442,0.023
			l0.108,0.006c-0.033,0,0.097,0-0.069,0.002h0.017h0.034l0.066-0.002h0.276c0.342-0.008,0.797,0.004,1.045-0.02l0.861-0.037
			c0.613-0.025,1.215-0.078,1.791-0.158c1.166-0.133,2.242-0.383,3.238-0.689c1-0.316,1.877-0.754,2.701-1.262
			c0.807-0.525,1.531-1.148,2.158-1.838c1.248-1.387,2.08-2.979,2.58-4.164c0.241-0.596,0.44-1.094,0.545-1.438
			c0.117-0.354,0.18-0.541,0.18-0.541s0.104,0.172,0.262,0.515c0.143,0.344,0.377,0.858,0.553,1.553
			c0.354,1.373,0.613,3.517-0.131,6.101c-0.375,1.276-1.021,2.653-1.996,3.93c-0.973,1.273-2.264,2.461-3.754,3.352
			c-1.479,0.922-3.141,1.564-4.818,2.01c-0.842,0.199-1.69,0.355-2.541,0.478c-0.424,0.069-0.893,0.092-1.336,0.127
			c-0.485,0.041-0.771,0.035-1.164,0.056c-1.771,0.057-3.553-0.123-5.313-0.572c-1.754-0.447-3.437-1.211-4.895-2.191
			c-0.725-0.496-1.391-1.049-1.992-1.625c-0.598-0.586-1.113-1.211-1.583-1.826c-0.915-1.262-1.54-2.557-1.966-3.768
			c-0.418-1.217-0.641-2.352-0.745-3.352c-0.098-1.005-0.091-1.871-0.03-2.582C189.879,266.162,190.164,265.391,190.164,265.391"/>
		<path fill="#E96AA8" d="M214.896,253.613c0,3.674-4.063,6.652-9.073,6.652c-5.013,0-9.073-2.979-9.073-6.652
			c0-3.676,4.063-6.654,9.073-6.654C210.833,246.959,214.896,249.939,214.896,253.613"/>
		<path fill="#2E1811" d="M116.762,242.311c0,0-0.057,0.129-0.172,0.336c-0.118,0.189-0.278,0.528-0.51,0.847
			c-0.227,0.332-0.498,0.758-0.83,1.157c-0.328,0.412-0.709,0.839-1.134,1.265c-0.852,0.843-1.884,1.66-3.042,2.319
			c-1.156,0.668-2.443,1.164-3.769,1.492c-1.328,0.314-2.698,0.461-4.032,0.396c-1.33-0.06-2.622-0.315-3.764-0.685
			c-0.572-0.188-1.104-0.395-1.586-0.61c-0.478-0.209-0.912-0.466-1.267-0.66c-0.35-0.178-0.646-0.407-0.84-0.524
			c-0.196-0.133-0.306-0.224-0.306-0.224s0.057-0.129,0.172-0.336c0.117-0.19,0.277-0.53,0.509-0.851
			c0.228-0.336,0.498-0.76,0.829-1.164c0.329-0.411,0.709-0.838,1.134-1.268c0.851-0.846,1.884-1.66,3.042-2.316
			c1.157-0.666,2.443-1.159,3.771-1.479c1.33-0.312,2.701-0.452,4.035-0.385c1.332,0.063,2.623,0.319,3.764,0.687
			c0.572,0.188,1.104,0.393,1.585,0.608c0.478,0.205,0.912,0.461,1.265,0.653c0.352,0.177,0.647,0.404,0.84,0.521
			C116.653,242.223,116.762,242.311,116.762,242.311"/>
		<path fill="#2E1811" d="M119.879,222.699c0,0-0.123,0.068-0.338,0.168c-0.209,0.082-0.539,0.258-0.914,0.375
			c-0.381,0.131-0.852,0.313-1.357,0.438c-0.51,0.135-1.068,0.248-1.663,0.338c-1.187,0.17-2.502,0.211-3.826,0.051
			c-1.325-0.153-2.653-0.521-3.915-1.049c-1.256-0.537-2.443-1.235-3.473-2.084c-1.035-0.84-1.918-1.817-2.616-2.791
			c-0.349-0.492-0.651-0.979-0.907-1.438c-0.261-0.451-0.457-0.916-0.625-1.283c-0.176-0.353-0.277-0.713-0.361-0.924
			c-0.078-0.224-0.113-0.358-0.113-0.358s0.123-0.068,0.338-0.17c0.21-0.084,0.541-0.261,0.916-0.379
			c0.381-0.134,0.854-0.313,1.359-0.438c0.51-0.137,1.068-0.25,1.664-0.342c1.187-0.172,2.502-0.213,3.826-0.051
			c1.324,0.155,2.651,0.526,3.909,1.063c1.253,0.543,2.439,1.246,3.47,2.096c1.032,0.844,1.914,1.822,2.614,2.793
			c0.349,0.49,0.653,0.975,0.909,1.436c0.262,0.449,0.457,0.916,0.626,1.278c0.177,0.353,0.278,0.712,0.363,0.919
			C119.844,222.564,119.879,222.699,119.879,222.699"/>
		<path fill="#2E1811" d="M296.18,244.453c0,0,0.107-0.09,0.307-0.223c0.189-0.115,0.488-0.344,0.839-0.521
			c0.354-0.19,0.788-0.446,1.266-0.653c0.48-0.22,1.016-0.425,1.584-0.607c1.145-0.365,2.437-0.625,3.768-0.686
			c1.334-0.068,2.704,0.071,4.034,0.383c1.325,0.32,2.612,0.813,3.771,1.479c1.159,0.656,2.192,1.476,3.043,2.317
			c0.424,0.429,0.806,0.854,1.133,1.267c0.33,0.404,0.604,0.828,0.828,1.164c0.231,0.317,0.395,0.655,0.511,0.851
			c0.114,0.207,0.173,0.338,0.173,0.338s-0.108,0.09-0.309,0.223c-0.19,0.117-0.487,0.348-0.84,0.525
			c-0.354,0.192-0.789,0.448-1.268,0.658c-0.48,0.219-1.015,0.426-1.585,0.61c-1.143,0.366-2.434,0.625-3.766,0.685
			c-1.332,0.065-2.703-0.078-4.031-0.396c-1.323-0.328-2.609-0.824-3.77-1.492c-1.158-0.659-2.189-1.479-3.042-2.319
			c-0.424-0.427-0.805-0.853-1.135-1.265c-0.33-0.399-0.604-0.825-0.83-1.157c-0.229-0.314-0.395-0.654-0.51-0.847
			C296.236,244.582,296.18,244.453,296.18,244.453"/>
		<path fill="#2E1811" d="M293.063,224.846c0,0,0.035-0.139,0.111-0.359c0.086-0.209,0.188-0.567,0.363-0.92
			c0.17-0.362,0.365-0.83,0.627-1.278c0.256-0.461,0.563-0.94,0.909-1.435c0.698-0.973,1.581-1.951,2.614-2.793
			c1.028-0.852,2.216-1.554,3.47-2.098c1.257-0.531,2.585-0.902,3.91-1.061c1.32-0.164,2.64-0.123,3.823,0.051
			c0.597,0.09,1.153,0.205,1.665,0.34c0.507,0.127,0.979,0.309,1.357,0.439c0.375,0.117,0.707,0.295,0.916,0.379
			c0.215,0.1,0.338,0.168,0.338,0.168s-0.033,0.139-0.112,0.361c-0.085,0.209-0.188,0.569-0.359,0.922
			c-0.168,0.367-0.363,0.832-0.624,1.285c-0.256,0.461-0.563,0.942-0.907,1.438c-0.699,0.975-1.582,1.951-2.617,2.791
			c-1.029,0.849-2.217,1.549-3.473,2.086c-1.261,0.525-2.589,0.896-3.916,1.047c-1.324,0.162-2.642,0.119-3.826-0.051
			c-0.594-0.088-1.152-0.201-1.664-0.338c-0.504-0.123-0.977-0.305-1.354-0.437c-0.375-0.116-0.705-0.293-0.914-0.375
			C293.184,224.912,293.063,224.846,293.063,224.846"/>
		<path fill="#2E1811" d="M180.254,236.656l-6.023-7.982c0.607-0.459,15.076-11.217,31.671-10.975
			c16.599,0.269,29.531,10.646,30.074,11.088l-6.313,7.756c-0.1-0.08-10.867-8.635-23.926-8.844
			C192.58,227.494,180.377,236.564,180.254,236.656"/>
		<path fill="#F0588A" d="M279.146,168.129c0,0-11.769-40.02-30.297-20.223C230.318,167.701,266.232,186.117,279.146,168.129"/>
		<path fill="#F0588A" d="M274.182,169.004c0,0,29.023-29.957,36.226-3.813C317.607,191.332,277.25,190.936,274.182,169.004"/>
	</g>
</g>
</svg>
