<?xml version="1.0" encoding="utf-8"?>
<!-- Generator: Adobe Illustrator 15.1.0, SVG Export Plug-In . SVG Version: 6.00 Build 0)  -->
<!DOCTYPE svg PUBLIC "-//W3C//DTD SVG 1.1//EN" "http://www.w3.org/Graphics/SVG/1.1/DTD/svg11.dtd">
<svg version="1.1" xmlns="http://www.w3.org/2000/svg" xmlns:xlink="http://www.w3.org/1999/xlink" x="0px" y="0px" width="400px"
	 height="400px" viewBox="0 0 400 400" enable-background="new 0 0 400 400" xml:space="preserve">
<g id="Layer_1">
	<circle fill="#C3E6E4" cx="202.5" cy="241.713" r="158.287"/>
</g>
<g id="Layer_10">
	<g>
		<path fill="#F9AD86" d="M336.083,202.152c5.52-23.273,46.227-79.645,54.468-21.785
			C396.431,221.617,350.062,247.037,336.083,202.152"/>
		<path fill="#B55D28" d="M330.295,219.761c-0.145,70.323-61.58,65.923-131.616,65.923c-70.035,0-122.156-9.97-126.809-56.767
			c-7.099-71.417,56.773-113.533,126.809-113.533C268.715,115.384,330.41,162.994,330.295,219.761"/>
		<path fill="#F9AD86" d="M147.174,141.937c-47.718,18.312-61.346,46.695-47.012,69.585c11.961,19.101,68.07-0.914,64.24,5.932
			c-20.858,37.29,7.491,54.123,39.54,54.123c33.875,0,56.767-10.612,42.355-42.849c-3.794-8.485-13.865-16.668,12.579-8.05
			c48.373,15.766,75.994-43.948,12.819-70.501C244.379,138.695,192.309,124.615,147.174,141.937"/>
		<path fill="#2E1811" d="M140.752,195.55c0,13.126-12.184,13.126-12.184,0S140.752,182.424,140.752,195.55"/>
		<path fill="#2E1811" d="M278.655,200.317c0,13.127-12.184,13.127-12.184,0C266.472,187.191,278.655,187.191,278.655,200.317"/>
		<path fill="#B55D28" d="M163.76,118.653c0,0,45.044-3.271,60.325-21.583c5.961-7.146,8.24-18.312,8.24-18.312
			s18.047,11.49,23.805,28.384c6.479,19.013-21.059,20.144-21.059,20.144L163.76,118.653z"/>
		<path fill="#4F2110" d="M185.218,210.604c0,0,0.473,0.825,1.341,2.105c0.432,0.64,0.947,1.399,1.574,2.207
			c0.301,0.408,0.641,0.824,1.001,1.248c0.34,0.435,0.735,0.853,1.14,1.278c0.793,0.858,1.705,1.68,2.678,2.426
			c0.468,0.398,1.023,0.686,1.521,1.044c0.526,0.319,1.099,0.569,1.629,0.874c0.576,0.238,1.174,0.435,1.738,0.691
			c0.617,0.165,1.248,0.295,1.853,0.499c0.645,0.126,1.323,0.162,1.97,0.308c0.661,0.114,1.388,0.07,2.075,0.126l0.521,0.045
			l0.131,0.015l0.033,0.003l0.016,0.001c0.071-0.001-0.563,0.02-0.285,0.011l0.082-0.003l0.322-0.016l1.292-0.065
			c0.43-0.022,0.858-0.044,1.287-0.046l0.817-0.144c0.269-0.042,0.541-0.076,0.813-0.105c0.279-0.026,0.564-0.147,0.848-0.21
			c0.293-0.073,0.581-0.146,0.866-0.215c0.261-0.109,0.519-0.218,0.777-0.323c0.253-0.113,0.546-0.181,0.778-0.322
			c0.226-0.15,0.461-0.29,0.707-0.418c0.533-0.218,0.876-0.652,1.354-0.96c0.452-0.337,0.787-0.793,1.22-1.165
			c0.348-0.449,0.72-0.876,1.046-1.335c1.298-1.847,2.178-3.808,2.765-5.222c0.591-1.426,0.884-2.335,0.884-2.335
			s0.12,0.207,0.299,0.61c0.161,0.403,0.429,1.009,0.638,1.808c0.225,0.797,0.425,1.788,0.521,2.964
			c0.101,1.177,0.059,2.532-0.188,4.044c-0.128,0.752-0.384,1.524-0.609,2.35c-0.344,0.782-0.667,1.633-1.154,2.441
			c-0.524,0.785-1.024,1.657-1.759,2.366c-0.348,0.376-0.714,0.747-1.095,1.113c-0.384,0.358-0.829,0.633-1.256,0.955
			c-0.438,0.301-0.875,0.64-1.343,0.904c-0.48,0.225-0.966,0.45-1.453,0.679c-0.498,0.211-0.973,0.466-1.514,0.634
			c-0.554,0.141-1.111,0.281-1.673,0.421c-0.558,0.13-1.153,0.267-1.689,0.368c-0.426,0.054-0.854,0.085-1.283,0.118l-1.287,0.103
			l-0.323,0.026l-0.079,0.006l-0.326,0.011l-0.024-0.001l-0.049-0.002l-0.192-0.008l-0.771-0.037
			c-1.03-0.097-2.048-0.105-3.078-0.302c-1.033-0.212-2.052-0.456-3.052-0.749c-0.993-0.378-1.969-0.768-2.896-1.224
			c-0.897-0.542-1.798-1.045-2.597-1.657c-0.758-0.671-1.557-1.259-2.184-1.983c-0.307-0.361-0.613-0.721-0.911-1.075
			c-0.305-0.35-0.592-0.699-0.812-1.092c-0.99-1.48-1.695-2.972-2.157-4.377c-0.472-1.404-0.725-2.715-0.847-3.872
			c-0.129-1.159-0.123-2.166-0.066-2.99c0.042-0.82,0.179-1.465,0.252-1.896C185.142,210.826,185.218,210.604,185.218,210.604"/>
		<path fill="#2E1811" d="M200.279,198.946c0,1.516-1.229,2.745-2.746,2.745c-1.518,0-2.747-1.229-2.747-2.745
			c0-1.517,1.229-2.747,2.747-2.747C199.05,196.199,200.279,197.431,200.279,198.946"/>
		<path fill="#2E1811" d="M210.022,198.946c0,1.516-1.23,2.745-2.747,2.745s-2.748-1.229-2.748-2.745
			c0-1.517,1.231-2.747,2.748-2.747S210.022,197.431,210.022,198.946"/>
		<path fill="#2E1811" d="M133.577,142.208c-10.956,3.147-20.211,9.76-15.197,15.74c5.013,5.983,12.831,2.735,19.413-2.684
			c6.582-5.421,11.513-9.923,8.001-13.141C142.286,138.907,133.577,142.208,133.577,142.208"/>
		<path fill="#2E1811" d="M270.958,144.27c10.954,3.146,20.21,9.759,15.195,15.74c-5.014,5.982-12.829,2.736-19.413-2.686
			c-6.582-5.421-11.512-9.922-8.003-13.139C262.249,140.969,270.958,144.27,270.958,144.27"/>
		<path fill="#F9AD86" d="M65.918,202.152c-5.522-23.273-46.226-79.645-54.47-21.785C5.571,221.617,51.937,247.037,65.918,202.152"
			/>
	</g>
</g>
</svg>
