<svg xmlns="http://www.w3.org/2000/svg" width="341.828" height="109.203" viewBox="0 0 341.828 109.203"><path fill="#fff" d="M4.912 69.135s-.742-1.482-1.608-1.482c-.867 0-2.1.373-2.6 1.36-.495.99-.617 1.483-.617 4.084 0 2.593-.12 6.426 0 9.27C.21 85.21.704 90.16 1.45 92.76c.744 2.595 1.976 7.418 5.937 10.016 3.954 2.6 10.136-.868 13.353-3.46 3.215-2.602 25.228-21.77 27.206-23.374 1.976-1.612 16.446-14.595 26.217-25.107 10.755-11.577 25.225-28.814 27.823-32.77 2.595-3.958 5.07-9.895 5.07-9.895s1.734 2.35 2.23 1.732c.493-.62 1.11-2.598.858-4.577-.243-1.98-.616-4.205-1.11-4.7-.495-.493-.99-.74-1.483-.493-.494.247-2.6.616-2.97 1.98-.368 1.358.25 1.483-.614 3.337-.867 1.854-4.642 10.28-27.572 35.546-3.5 3.858-13.037 15.305-36.124 35.075-10.452 8.95-19.504 17.177-24.135 19.54-4.632 2.363-9.154 3.998-10.84-7.127-1.837-12.15-.383-19.348-.383-19.348"/><path fill="none" stroke="#fff" stroke-width=".066" stroke-miterlimit="3.864" d="M4.912 69.135s-.742-1.482-1.608-1.482c-.867 0-2.1.373-2.6 1.36-.495.99-.617 1.483-.617 4.084 0 2.593-.12 6.426 0 9.27C.21 85.21.704 90.16 1.45 92.76c.744 2.595 1.976 7.418 5.937 10.016 3.954 2.6 10.136-.868 13.353-3.46 3.215-2.602 25.228-21.77 27.206-23.374 1.976-1.612 16.446-14.595 26.217-25.107 10.755-11.577 25.225-28.814 27.823-32.77 2.595-3.958 5.07-9.895 5.07-9.895s1.734 2.35 2.23 1.732c.493-.62 1.11-2.598.858-4.577-.243-1.98-.616-4.205-1.11-4.7-.495-.493-.99-.74-1.483-.493-.494.247-2.6.616-2.97 1.98-.368 1.358.25 1.483-.614 3.337-.867 1.854-4.642 10.28-27.572 35.546-3.5 3.858-13.037 15.305-36.124 35.075-10.452 8.95-19.504 17.177-24.135 19.54-4.632 2.363-9.154 3.998-10.84-7.127-1.837-12.15-.383-19.348-.383-19.348z"/><path fill-rule="evenodd" clip-rule="evenodd" fill="#fff" d="M122.57 75.676s.656-1.445 1.706-4.205c1.05-2.76 1.74-5.68 2.133-8.44.39-2.757-.66-3.97-1.213-3.97-.56 0-2.5.785-3.284 6.86-.792 6.076.657 9.756.657 9.756m-73.074 31.262s-1.178 1.448-1.835 1.842c-.656.392-2.396-1.842-2.528-2.498-.132-.657-.43-1.05.525-1.972.95-.918 5.444-6.42 19.54-14.382 12.38-6.994 14.647-6.865 14.647-6.865s.656-.13 1.178.265c.528.392 1.45.757.792 2.102-.656 1.345-6.21 9.887-7.65 14.253-1.447 4.367-.265 4.927 1.837 3.187 2.104-1.74 5.682-5.68 6.732-6.21 1.053-.528 1.316-1.05 2.102-1.05.788 0 1.74.79 2.136 1.58.393.783 1.707.654 3.152.522 1.446-.13 3.447-.523 4.896.132 1.442.657 3.51 2.235 5.907 2.235 2.398 0 8.735-3.847 12.676-9.1 3.94-5.257 5.028-8.046 5.028-8.046s-1.087.394-2.797.656c-1.705.26-3.116.657-4.592 1.183-1.48.524-2.658.524-2.922-.525-.264-1.05-.79-2.627-.528-3.155.264-.524 1.02-2.1 1.97-2.1.955 0 2.005-.395 2.925-.395.918 0 4.632-.822 5.153-.95.53-.134.035-1.187-.13-2.764-.165-1.57-1.74-11.72 3.678-18.06 1.723-2.016 7.523-4.236 8.31 2.235.334 2.738-.997 8.395-2.493 13.2-.656 2.102-1.317 3.81-1.317 3.81s8.833-2.1 11.988-2.757c3.15-.657 3.712-.792 3.712-.396s-1.083 2.23-1.872 3.023c-.79.785-4.347 2.322-5.65 2.79-1.477.523-9.656 2.76-9.656 2.76s.823 2.527 2.268 4.89c1.447 2.364 3.975 6.732 7.388 9.23 3.42 2.5 4.47 2.5 5.386 2.5.92 0 2.005-.922 2.53-1.98.527-1.05 1.44-1.966 2.362-1.966.92 0 1.053 1.966.92 2.758-.132.79-1.577 3.122-2.626 4.074-1.05.95-2.265 2-3.974 2-1.707 0-4.76-.29-8.173-3.314-3.42-3.022-6.998-8.048-8.316-10.28-1.31-2.232-1.31-2.757-1.31-2.757s-3.708 5.68-5.55 7.78c-1.838 2.105-3.283 3.684-3.283 3.684s-1.186.256-1.314.783c-.132.528-.426.79-1.084 1.186-.657.39-1.185.39-1.446.917-.264.524-3.118 2.264-5.255 3.313-2.137 1.05-4.235 1.577-6.077.656-1.835-.917-2.918-2.098-5.553-2.098-2.623 0-4.363.785-5.413.523-1.053-.26-1.71-1.017-2.234-1.443-.525-.427-1.544 1.05-4.863 4.072-3.314 3.02-5.812 3.414-6.994 3.02-1.18-.398-2.922-3.546-2.79-5.252.133-1.71.688-4.767 1.873-7.39 1.18-2.633 3.41-5.687 3.41-5.687l-1.968.66c-1.18.395-6.075 2.497-12.412 6.993-6.338 4.503-4.59 3.38-6.206 4.632-2.368 1.844-4.208 3.943-4.208 3.943"/><path fill="#fff" d="M122.57 75.676s.656-1.445 1.706-4.205c1.05-2.76 1.74-5.68 2.133-8.44.39-2.757-.66-3.97-1.213-3.97-.56 0-2.5.785-3.284 6.86-.792 6.076.657 9.756.657 9.756m-73.074 31.262s-1.178 1.448-1.835 1.842c-.656.392-2.396-1.842-2.528-2.498-.132-.657-.43-1.05.525-1.972.95-.918 5.444-6.42 19.54-14.382 12.38-6.994 14.647-6.865 14.647-6.865s.656-.13 1.178.265c.528.392 1.45.757.792 2.102-.656 1.345-6.21 9.887-7.65 14.253-1.447 4.367-.265 4.927 1.837 3.187 2.104-1.74 5.682-5.68 6.732-6.21 1.053-.528 1.316-1.05 2.102-1.05.788 0 1.74.79 2.136 1.58.393.783 1.707.654 3.152.522 1.446-.13 3.447-.523 4.896.132 1.442.657 3.51 2.235 5.907 2.235 2.398 0 8.735-3.847 12.676-9.1 3.94-5.257 5.028-8.046 5.028-8.046s-1.087.394-2.797.656c-1.705.26-3.116.657-4.592 1.183-1.48.524-2.658.524-2.922-.525-.264-1.05-.79-2.627-.528-3.155.264-.524 1.02-2.1 1.97-2.1.955 0 2.005-.395 2.925-.395.918 0 4.632-.822 5.153-.95.53-.134.035-1.187-.13-2.764-.165-1.57-1.74-11.72 3.678-18.06 1.723-2.016 7.523-4.236 8.31 2.235.334 2.738-.997 8.395-2.493 13.2-.656 2.102-1.317 3.81-1.317 3.81s8.833-2.1 11.988-2.757c3.15-.657 3.712-.792 3.712-.396s-1.083 2.23-1.872 3.023c-.79.785-4.347 2.322-5.65 2.79-1.477.523-9.656 2.76-9.656 2.76s.823 2.527 2.268 4.89c1.447 2.364 3.975 6.732 7.388 9.23 3.42 2.5 4.47 2.5 5.386 2.5.92 0 2.005-.922 2.53-1.98.527-1.05 1.44-1.966 2.362-1.966.92 0 1.053 1.966.92 2.758-.132.79-1.577 3.122-2.626 4.074-1.05.95-2.265 2-3.974 2-1.707 0-4.76-.29-8.173-3.314-3.42-3.022-6.998-8.048-8.316-10.28-1.31-2.232-1.31-2.757-1.31-2.757s-3.708 5.68-5.55 7.78c-1.838 2.105-3.283 3.684-3.283 3.684s-1.186.256-1.314.783c-.132.528-.426.79-1.084 1.186-.657.39-1.185.39-1.446.917-.264.524-3.118 2.264-5.255 3.313-2.137 1.05-4.235 1.577-6.077.656-1.835-.917-2.918-2.098-5.553-2.098-2.623 0-4.363.785-5.413.523-1.053-.26-1.71-1.017-2.234-1.443-.525-.427-1.544 1.05-4.863 4.072-3.314 3.02-5.812 3.414-6.994 3.02-1.18-.398-2.922-3.546-2.79-5.252.133-1.71.688-4.767 1.873-7.39 1.18-2.633 3.41-5.687 3.41-5.687l-1.968.66c-1.18.395-6.075 2.497-12.412 6.993-6.338 4.503-4.59 3.38-6.206 4.632-2.368 1.844-4.208 3.943-4.208 3.943"/><path fill="none" stroke="#fff" stroke-width=".066" stroke-miterlimit="3.864" d="M122.57 75.676s.656-1.445 1.706-4.205c1.05-2.76 1.74-5.68 2.133-8.44.39-2.757-.66-3.97-1.213-3.97-.56 0-2.5.785-3.284 6.86-.792 6.076.657 9.756.657 9.756zm-73.074 31.262s-1.178 1.448-1.835 1.842c-.656.392-2.396-1.842-2.528-2.498-.132-.657-.43-1.05.525-1.972.95-.918 5.444-6.42 19.54-14.382 12.38-6.994 14.647-6.865 14.647-6.865s.656-.13 1.178.265c.528.392 1.45.757.792 2.102-.656 1.345-6.21 9.887-7.65 14.253-1.447 4.367-.265 4.927 1.837 3.187 2.104-1.74 5.682-5.68 6.732-6.21 1.053-.528 1.316-1.05 2.102-1.05.788 0 1.74.79 2.136 1.58.393.783 1.707.654 3.152.522 1.446-.13 3.447-.523 4.896.132 1.442.657 3.51 2.235 5.907 2.235 2.398 0 8.735-3.847 12.676-9.1 3.94-5.257 5.028-8.046 5.028-8.046s-1.087.394-2.797.656c-1.705.26-3.116.657-4.592 1.183-1.48.524-2.658.524-2.922-.525-.264-1.05-.79-2.627-.528-3.155.264-.524 1.02-2.1 1.97-2.1.955 0 2.005-.395 2.925-.395.918 0 4.632-.822 5.153-.95.53-.134.035-1.187-.13-2.764-.165-1.57-1.74-11.72 3.678-18.06 1.723-2.016 7.523-4.236 8.31 2.235.334 2.738-.997 8.395-2.493 13.2-.656 2.102-1.317 3.81-1.317 3.81s8.833-2.1 11.988-2.757c3.15-.657 3.712-.792 3.712-.396s-1.083 2.23-1.872 3.023c-.79.785-4.347 2.322-5.65 2.79-1.477.523-9.656 2.76-9.656 2.76s.823 2.527 2.268 4.89c1.447 2.364 3.975 6.732 7.388 9.23 3.42 2.5 4.47 2.5 5.386 2.5.92 0 2.005-.922 2.53-1.98.527-1.05 1.44-1.966 2.362-1.966.92 0 1.053 1.966.92 2.758-.132.79-1.577 3.122-2.626 4.074-1.05.95-2.265 2-3.974 2-1.707 0-4.76-.29-8.173-3.314-3.42-3.022-6.998-8.048-8.316-10.28-1.31-2.232-1.31-2.757-1.31-2.757s-3.708 5.68-5.55 7.78c-1.838 2.105-3.283 3.684-3.283 3.684s-1.186.256-1.314.783c-.132.528-.426.79-1.084 1.186-.657.39-1.185.39-1.446.917-.264.524-3.118 2.264-5.255 3.313-2.137 1.05-4.235 1.577-6.077.656-1.835-.917-2.918-2.098-5.553-2.098-2.623 0-4.363.785-5.413.523-1.053-.26-1.71-1.017-2.234-1.443-.525-.427-1.544 1.05-4.863 4.072-3.314 3.02-5.812 3.414-6.994 3.02-1.18-.398-2.922-3.546-2.79-5.252.133-1.71.688-4.767 1.873-7.39 1.18-2.633 3.41-5.687 3.41-5.687l-1.968.66c-1.18.395-6.075 2.497-12.412 6.993-6.338 4.503-4.59 3.38-6.206 4.632-2.368 1.844-4.208 3.943-4.208 3.943z"/><path fill-rule="evenodd" clip-rule="evenodd" fill="#fff" d="M304.07 81.357c.13-.394-1.048-1.186-1.97-1.97-.92-.79-2.396-1.612-5.416-2.27-2.96-.643-3.94 0-2.627 1.612 1.653 2.026 4.727 3.282 6.987 3.546 2.27.262 2.893-.527 3.027-.92m-44.464 13.725s-2.363 2.596-1.706 5.52c.656 2.927 2.918 3.712 4.63 3.19 1.707-.528 2.493-2.662 2.364-3.583-.136-.92-1.184-2.098-2.234-3.15-1.05-1.055-3.054-1.976-3.054-1.976m-4.334-9.092s1.05-.56 1.442-1.084c.394-.527 1.313-1.184-.393-2.498-1.712-1.313-3.153-.785-3.153 1.05 0 1.84 2.105 2.532 2.105 2.532m-20.59-3.974s1.442-.792 4.76-4.63c3.318-3.84 5.45-8.886 4.334-14.484-1.05-5.29-3.63-11.733-7.522-3.71-4.727 9.753-3.94 18.883-3.677 21.903.264 3.02 2.106.92 2.106.92m-23.22 12.676c2.378-.932 3.448-2.005 9.13-4.24 5.68-2.228 7.752-5.153 2.36-5.153-5.382 0-8.042.428-16.742 4.24-8.707 3.805-7.26 6.204-4.632 7.25 2.16.867 6.866-.913 9.886-2.098m-55.27-6.864s3.453-1.696 7.13-3.842c7.647-4.47 29.418-20.296 35.756-26.11 6.34-5.813 10.278-10.54 9.1-13.2-1.185-2.66-5.68-8.31-20.07-3.812-14.38 4.5-20.025 10.805-25.185 16.884-5.153 6.073-6.595 10.542-8.304 16.616-1.71 6.074.26 13.464.396 13.86.13.393 1.178-.396 1.178-.396m-5.255 2.888s.128-.92-.13-1.835c-.264-.922-.524-1.843-.792-3.71-.52-3.682-.52-20.692 13.305-33.895 14.915-14.247 28.634-16.094 35.628-16.094 6.996 0 13.3 3.023 13.3 10.412s-13.17 17.57-15.14 19.148c-1.97 1.57-13.462 10.28-19.535 14.646-6.08 4.367-18.063 11.592-19.774 12.642-1.708 1.053-.818 1.053-.818 1.053 1.71 2.76 4.76 7.784 14.514 9.524 9.756 1.74 25.322-2.92 25.322-2.92s-4.333-4.864.29-8.574c7.747-6.206 15.832-8.047 21.222-9.232 5.383-1.178 10.015.792 10.015.792s-.528-2.627-.135-9.097c.398-6.47 1.876-11.46 5.815-18.588 3.94-7.126 8.802-5.082 9.886-2.925 5.02 10.053 3.84 17.966 1.605 22.823-2.234 4.86-9.52 10.68-10.048 11.104-.52.427-.52.786-.52.786l1.306 1.71c1.32 1.71 4.375 2.887 7.658 2.758 3.278-.13 6.074-2.362 6.074-2.362l-.528-.656c-.393-.396-1.185-2.627-1.185-4.63 0-2.006 2.5-5.256 5.032-5.817 6.507-1.437 8.173 3.053 8.437 5.288.263 2.233-2.92 4.895-2.92 4.895l1.605 1.05s4.204-2.233 9.23-3.578 12.513-1.445 14.517-1.577 5.904 0 5.904 0-.13 0-.914-.918c-.792-.92-.92-1.842-.92-1.842s-.657-3.84.392-5.944c1.05-2.102 4.63-3.022 10.807-1.707 6.177 1.313 8.208 4.495 9.128 5.68.922 1.186.394 3.284-.264 3.813-.656.52-.264.786-.264.786s19.114 1.448 21.74 1.71c2.63.26 8.838.294 10.706.95 1.876.656 1.185 3.02 1.185 3.02s-1.447.793-2.233 1.186c-.785.393-2.525.92-3.182.785-.657-.13-.657-1.05-1.45-1.178-.784-.136-7.65-.4-10.277-.528-2.628-.13-6.595-.524-11.098-.92-4.503-.394-12.385-.92-13.034-1.05-.657-.13-2.533 0-2.533 0s-.785 0-2.89.13c-2.1.133-13.99.397-20.856 1.054-6.858.658-10.278 2.232-10.278 2.232l2.633 2.23c2.628 2.235 3.048 6.177 3.048 7.917 0 1.738-5.808 8.868-9.912 6.73-4.104-2.13-5.126-6.042-4.598-8.966.528-2.92 1.835-5.682 1.835-5.682s-.13 0-.785-.394c-1.077-.643-1.578-1.97-4.76-.263-3.19 1.706-8.052 2.925-10.936 2.925-2.892 0-6.603-1.707-8.18-4.104-1.577-2.396-1.97-2.104-1.97-2.104s-.657.656-4.24 2.762c-3.574 2.1-13.853 7.123-16.744 7.915l-5.288 1.442s-12.378 3.582-16.088 4.24c-14.326 2.53-22.397.916-27.028-1.973-4.63-2.892-6.863-7.002-7.523-8.05-.657-1.05-.52-.262-.52-.262s-.398 0-1.054.652c-.66.657-1.05.528-1.84.528s-1.347-.392-1.74-2.363c-.393-1.97.52-2.268 1.182-2.528.656-.26 1.607-1.053 1.607-1.053"/><path fill="#fff" d="M304.07 81.357c.13-.394-1.048-1.186-1.97-1.97-.92-.79-2.396-1.612-5.416-2.27-2.96-.643-3.94 0-2.627 1.612 1.653 2.026 4.727 3.282 6.987 3.546 2.27.262 2.893-.527 3.027-.92m-44.464 13.725s-2.363 2.596-1.706 5.52c.656 2.927 2.918 3.712 4.63 3.19 1.707-.528 2.493-2.662 2.364-3.583-.136-.92-1.184-2.098-2.234-3.15-1.05-1.055-3.054-1.976-3.054-1.976m-4.334-9.092s1.05-.56 1.442-1.084c.394-.527 1.313-1.184-.393-2.498-1.712-1.313-3.153-.785-3.153 1.05 0 1.84 2.105 2.532 2.105 2.532m-20.59-3.974s1.442-.792 4.76-4.63c3.318-3.84 5.45-8.886 4.334-14.484-1.05-5.29-3.63-11.733-7.522-3.71-4.727 9.753-3.94 18.883-3.677 21.903.264 3.02 2.106.92 2.106.92m-23.22 12.676c2.378-.932 3.448-2.005 9.13-4.24 5.68-2.228 7.752-5.153 2.36-5.153-5.382 0-8.042.428-16.742 4.24-8.707 3.805-7.26 6.204-4.632 7.25 2.16.867 6.866-.913 9.886-2.098m-55.27-6.864s3.453-1.696 7.13-3.842c7.647-4.47 29.418-20.296 35.756-26.11 6.34-5.813 10.278-10.54 9.1-13.2-1.185-2.66-5.68-8.31-20.07-3.812-14.38 4.5-20.025 10.805-25.185 16.884-5.153 6.073-6.595 10.542-8.304 16.616-1.71 6.074.26 13.464.396 13.86.13.393 1.178-.396 1.178-.396m-5.255 2.888s.128-.92-.13-1.835c-.264-.922-.524-1.843-.792-3.71-.52-3.682-.52-20.692 13.305-33.895 14.915-14.247 28.634-16.094 35.628-16.094 6.996 0 13.3 3.023 13.3 10.412s-13.17 17.57-15.14 19.148c-1.97 1.57-13.462 10.28-19.535 14.646-6.08 4.367-18.063 11.592-19.774 12.642-1.708 1.053-.818 1.053-.818 1.053 1.71 2.76 4.76 7.784 14.514 9.524 9.756 1.74 25.322-2.92 25.322-2.92s-4.333-4.864.29-8.574c7.747-6.206 15.832-8.047 21.222-9.232 5.383-1.178 10.015.792 10.015.792s-.528-2.627-.135-9.097c.398-6.47 1.876-11.46 5.815-18.588 3.94-7.126 8.802-5.082 9.886-2.925 5.02 10.053 3.84 17.966 1.605 22.823-2.234 4.86-9.52 10.68-10.048 11.104-.52.427-.52.786-.52.786l1.306 1.71c1.32 1.71 4.375 2.887 7.658 2.758 3.278-.13 6.074-2.362 6.074-2.362l-.528-.656c-.393-.396-1.185-2.627-1.185-4.63 0-2.006 2.5-5.256 5.032-5.817 6.507-1.437 8.173 3.053 8.437 5.288.263 2.233-2.92 4.895-2.92 4.895l1.605 1.05s4.204-2.233 9.23-3.578 12.513-1.445 14.517-1.577 5.904 0 5.904 0-.13 0-.914-.918c-.792-.92-.92-1.842-.92-1.842s-.657-3.84.392-5.944c1.05-2.102 4.63-3.022 10.807-1.707 6.177 1.313 8.208 4.495 9.128 5.68.922 1.186.394 3.284-.264 3.813-.656.52-.264.786-.264.786s19.114 1.448 21.74 1.71c2.63.26 8.838.294 10.706.95 1.876.656 1.185 3.02 1.185 3.02s-1.447.793-2.233 1.186c-.785.393-2.525.92-3.182.785-.657-.13-.657-1.05-1.45-1.178-.784-.136-7.65-.4-10.277-.528-2.628-.13-6.595-.524-11.098-.92-4.503-.394-12.385-.92-13.034-1.05-.657-.13-2.533 0-2.533 0s-.785 0-2.89.13c-2.1.133-13.99.397-20.856 1.054-6.858.658-10.278 2.232-10.278 2.232l2.633 2.23c2.628 2.235 3.048 6.177 3.048 7.917 0 1.738-5.808 8.868-9.912 6.73-4.104-2.13-5.126-6.042-4.598-8.966.528-2.92 1.835-5.682 1.835-5.682s-.13 0-.785-.394c-1.077-.643-1.578-1.97-4.76-.263-3.19 1.706-8.052 2.925-10.936 2.925-2.892 0-6.603-1.707-8.18-4.104-1.577-2.396-1.97-2.104-1.97-2.104s-.657.656-4.24 2.762c-3.574 2.1-13.853 7.123-16.744 7.915l-5.288 1.442s-12.378 3.582-16.088 4.24c-14.326 2.53-22.397.916-27.028-1.973-4.63-2.892-6.863-7.002-7.523-8.05-.657-1.05-.52-.262-.52-.262s-.398 0-1.054.652c-.66.657-1.05.528-1.84.528s-1.347-.392-1.74-2.363c-.393-1.97.52-2.268 1.182-2.528.656-.26 1.607-1.053 1.607-1.053"/><path fill="none" stroke="#fff" stroke-width=".066" stroke-miterlimit="3.864" d="M304.07 81.357c.13-.394-1.048-1.186-1.97-1.97-.92-.79-2.396-1.612-5.416-2.27-2.96-.643-3.94 0-2.627 1.612 1.653 2.026 4.727 3.282 6.987 3.546 2.27.262 2.893-.527 3.027-.92zM259.607 95.08s-2.363 2.596-1.706 5.52c.656 2.927 2.918 3.712 4.63 3.19 1.707-.528 2.493-2.662 2.364-3.583-.136-.92-1.184-2.098-2.234-3.15-1.05-1.055-3.054-1.976-3.054-1.976zm-4.334-9.092s1.05-.56 1.442-1.084c.394-.527 1.313-1.184-.393-2.498-1.712-1.313-3.153-.785-3.153 1.05 0 1.84 2.105 2.532 2.105 2.532zm-20.59-3.974s1.442-.792 4.76-4.63c3.318-3.84 5.45-8.886 4.334-14.484-1.05-5.29-3.63-11.733-7.522-3.71-4.727 9.753-3.94 18.883-3.677 21.903.264 3.02 2.106.92 2.106.92zM211.465 94.69c2.377-.932 3.447-2.005 9.128-4.24 5.68-2.228 7.753-5.153 2.362-5.153-5.383 0-8.043.428-16.743 4.24-8.707 3.805-7.26 6.204-4.632 7.25 2.16.867 6.866-.913 9.886-2.098zm-55.27-6.864s3.453-1.696 7.13-3.842c7.647-4.47 29.418-20.296 35.756-26.11 6.34-5.813 10.278-10.54 9.1-13.2-1.185-2.66-5.68-8.31-20.07-3.812-14.38 4.5-20.025 10.805-25.185 16.884-5.153 6.073-6.595 10.542-8.304 16.616-1.71 6.074.26 13.464.396 13.86.13.393 1.178-.396 1.178-.396zm-5.255 2.888s.128-.92-.13-1.835c-.264-.922-.524-1.843-.792-3.71-.52-3.682-.52-20.692 13.305-33.895 14.915-14.247 28.634-16.094 35.628-16.094 6.996 0 13.3 3.023 13.3 10.412s-13.17 17.57-15.14 19.148c-1.97 1.57-13.462 10.28-19.535 14.646-6.08 4.367-18.063 11.592-19.774 12.642-1.708 1.053-.818 1.053-.818 1.053 1.71 2.76 4.76 7.784 14.514 9.524 9.756 1.74 25.322-2.92 25.322-2.92s-4.333-4.864.29-8.574c7.747-6.206 15.832-8.047 21.222-9.232 5.383-1.178 10.015.792 10.015.792s-.528-2.627-.135-9.097c.398-6.47 1.876-11.46 5.815-18.588 3.94-7.126 8.802-5.082 9.886-2.925 5.02 10.053 3.84 17.966 1.605 22.823-2.234 4.86-9.52 10.68-10.048 11.104-.52.427-.52.786-.52.786l1.306 1.71c1.32 1.71 4.375 2.887 7.658 2.758 3.278-.13 6.074-2.362 6.074-2.362l-.528-.656c-.393-.396-1.185-2.627-1.185-4.63 0-2.006 2.5-5.256 5.032-5.817 6.507-1.437 8.173 3.053 8.437 5.288.263 2.233-2.92 4.895-2.92 4.895l1.605 1.05s4.204-2.233 9.23-3.578 12.513-1.445 14.517-1.577 5.904 0 5.904 0-.13 0-.914-.918c-.792-.92-.92-1.842-.92-1.842s-.657-3.84.392-5.944c1.05-2.102 4.63-3.022 10.807-1.707 6.177 1.313 8.208 4.495 9.128 5.68.922 1.186.394 3.284-.264 3.813-.656.52-.264.786-.264.786s19.114 1.448 21.74 1.71c2.63.26 8.838.294 10.706.95 1.876.656 1.185 3.02 1.185 3.02s-1.447.793-2.233 1.186c-.785.393-2.525.92-3.182.785-.657-.13-.657-1.05-1.45-1.178-.784-.136-7.65-.4-10.277-.528-2.628-.13-6.595-.524-11.098-.92-4.503-.394-12.385-.92-13.034-1.05-.657-.13-2.533 0-2.533 0s-.785 0-2.89.13c-2.1.133-13.99.397-20.856 1.054-6.858.658-10.278 2.232-10.278 2.232l2.633 2.23c2.628 2.235 3.048 6.177 3.048 7.917 0 1.738-5.808 8.868-9.912 6.73-4.104-2.13-5.126-6.042-4.598-8.966.528-2.92 1.835-5.682 1.835-5.682s-.13 0-.785-.394c-1.077-.643-1.578-1.97-4.76-.263-3.19 1.706-8.052 2.925-10.936 2.925-2.892 0-6.603-1.707-8.18-4.104-1.577-2.396-1.97-2.104-1.97-2.104s-.657.656-4.24 2.762c-3.574 2.1-13.853 7.123-16.744 7.915l-5.288 1.442s-12.378 3.582-16.088 4.24c-14.326 2.53-22.397.916-27.028-1.973-4.63-2.892-6.863-7.002-7.523-8.05-.657-1.05-.52-.262-.52-.262s-.398 0-1.054.652c-.66.657-1.05.528-1.84.528s-1.347-.392-1.74-2.363c-.393-1.97.52-2.268 1.182-2.528.656-.26 1.607-1.053 1.607-1.053z"/><path fill="#fff" d="M76.394 68.547c.66.264 3.186-.13 4.5-.786s2.234-1.448 2.362-2.362c.136-.92-.128-2.762-.128-2.762s-2.235-1.605-3.416-1.87c-1.18-.264-1.344-.426-2.53.525-1.18.952-1.577 1.48-1.577 1.48s.133 1.313.133 2.627 0 2.89.656 3.15"/><path fill="none" stroke="#fff" stroke-width=".066" stroke-miterlimit="3.864" d="M76.394 68.547c.66.264 3.186-.13 4.5-.786s2.234-1.448 2.362-2.362c.136-.92-.128-2.762-.128-2.762s-2.235-1.605-3.416-1.87c-1.18-.264-1.344-.426-2.53.525-1.18.952-1.577 1.48-1.577 1.48s.133 1.313.133 2.627 0 2.89.656 3.15z"/></svg>