<?xml version="1.0" encoding="utf-8"?>
<!-- Generator: Adobe Illustrator 15.1.0, SVG Export Plug-In . SVG Version: 6.00 Build 0)  -->
<!DOCTYPE svg PUBLIC "-//W3C//DTD SVG 1.1//EN" "http://www.w3.org/Graphics/SVG/1.1/DTD/svg11.dtd">
<svg version="1.1" id="Layer_1" xmlns="http://www.w3.org/2000/svg" xmlns:xlink="http://www.w3.org/1999/xlink" x="0px" y="0px"
	 width="236.106px" height="398.201px" viewBox="0 0 236.106 398.201" enable-background="new 0 0 236.106 398.201"
	 xml:space="preserve">
<g>
	<defs>
		<rect id="SVGID_1_" x="38" y="386.005" width="168.832" height="12.195"/>
	</defs>
	<clipPath id="SVGID_2_">
		<use xlink:href="#SVGID_1_"  overflow="visible"/>
	</clipPath>
	<g clip-path="url(#SVGID_2_)">
		<defs>
			<rect id="SVGID_3_" x="38" y="386.005" width="168.832" height="12.195"/>
		</defs>
		<clipPath id="SVGID_4_">
			<use xlink:href="#SVGID_3_"  overflow="visible"/>
		</clipPath>
		<g opacity="0.3" clip-path="url(#SVGID_4_)">
			<g>
				<defs>
					<rect id="SVGID_5_" x="38" y="386.005" width="168.832" height="12.195"/>
				</defs>
				<clipPath id="SVGID_6_">
					<use xlink:href="#SVGID_5_"  overflow="visible"/>
				</clipPath>
				<path clip-path="url(#SVGID_6_)" fill="#010101" d="M206.832,392.103c0,3.368-37.795,6.098-84.416,6.098S38,395.471,38,392.103
					c0-3.369,37.795-6.098,84.416-6.098S206.832,388.734,206.832,392.103"/>
			</g>
		</g>
	</g>
</g>
<g>
	<path fill="#763B19" d="M79.648,263.039c0,0-70.244-65.134-68.734-110.74c1.506-45.608,21.221-78.124,72.588-86.937
		c51.373-8.812,104.924-3.177,128.325,36.41c23.409,39.588,27.716,71.677-16.256,119.827l-31.887,42.739L79.648,263.039z"/>
	<polygon fill="#763B19" points="140.396,170.683 143.987,190.808 148.297,170.683 166.982,180.744 149.737,162.671 
		140.396,162.671 122.429,176.739 	"/>
	<polygon fill="#763B19" points="75.424,170.683 79.02,190.808 83.33,170.683 102.019,180.744 84.771,162.671 75.424,162.671 
		57.459,176.739 	"/>
	<polygon fill="#763B19" points="136.434,115.563 140.437,137.977 145.242,115.563 166.052,126.769 146.839,106.64 136.434,106.64 
		116.426,122.309 	"/>
	<polygon fill="#763B19" points="72.404,115.563 76.399,137.977 81.202,115.563 102.018,126.769 82.803,106.64 72.404,106.64 
		52.389,122.309 	"/>
	<polygon fill="#763B19" points="141.523,221.53 144.173,236.368 147.353,221.53 161.136,228.949 148.412,215.62 141.523,215.62 
		128.269,225.996 	"/>
	<polygon fill="#763B19" points="186.477,194.266 188.494,205.589 190.922,194.266 201.432,199.928 191.728,189.759 
		186.477,189.759 176.363,197.675 	"/>
	<polygon fill="#763B19" points="26.97,159.267 28.998,170.586 31.422,159.267 41.93,164.923 32.225,154.755 26.97,154.755 
		16.863,162.672 	"/>
	<polygon fill="#763B19" points="32.342,118.456 33.715,126.12 35.349,118.456 42.472,122.286 35.9,115.405 32.342,115.405 
		25.494,120.76 	"/>
	<polygon fill="#763B19" points="107.47,80.798 109.49,92.121 111.919,80.798 122.429,86.456 112.726,76.29 107.47,76.29 
		97.359,84.207 	"/>
	<polygon fill="#763B19" points="152.744,88.716 154.762,100.037 157.188,88.716 167.698,94.375 157.994,84.207 152.744,84.207 
		142.633,92.122 	"/>
	<polygon fill="#763B19" points="191.674,103.802 193.363,113.246 195.385,103.802 204.154,108.523 196.06,100.037 191.674,100.037 
		183.235,106.643 	"/>
	<polygon fill="#763B19" points="153.143,244.793 154.83,254.24 156.85,244.793 165.62,249.512 157.531,241.029 153.143,241.029 
		144.705,247.635 	"/>
	<polygon fill="#763B19" points="50.367,209.871 52.055,219.318 54.079,209.871 62.848,214.593 54.754,206.11 50.367,206.11 
		41.93,212.713 	"/>
	<polygon fill="#763B19" points="220.48,189.66 229.34,197.003 223.877,186.79 235.561,184.329 221.582,182.827 217.575,186.214 
		214.959,198.789 	"/>
	<polygon fill="#763B19" points="225.463,128.702 236.106,124.352 224.53,124.352 227.871,112.889 219.953,124.503 221.055,129.639 
		230.908,137.878 	"/>
	<polygon fill="#763B19" points="20.113,106.962 9.412,102.738 17.779,110.748 7.437,116.716 21.19,113.805 23.943,109.334 
		22.527,96.57 	"/>
	<polygon fill="#763B19" points="10.234,167.872 0,173.104 11.533,172.126 9.176,183.833 16.082,171.586 14.549,166.563 
		4.037,159.188 	"/>
	<polygon fill="#763B19" points="31.629,209.883 23.426,214.501 32.824,213.32 31.283,222.974 36.535,212.727 35.111,208.67 
		26.271,202.985 	"/>
	<polygon fill="#763B19" points="53.529,237.101 46.988,242.159 55.008,239.933 54.898,248.516 58.154,238.948 56.399,235.605 
		47.994,231.791 	"/>
	<polygon fill="#763B19" points="197.047,78.6 202.408,68.425 193.539,75.87 188.725,64.942 190.127,78.93 194.273,82.153 
		207.121,82.128 	"/>
	<polygon fill="#763B19" points="188.861,235.155 197.945,242.206 192.166,232.176 203.764,229.338 189.746,228.286 
		185.841,231.804 183.635,244.456 	"/>
	<polygon fill="#763B19" points="191.445,147.829 194.091,162.671 197.269,147.829 211.051,155.248 198.33,141.917 191.445,141.917 
		178.184,152.295 	"/>
	<polygon fill="#763B19" points="158.344,59.035 155.694,44.19 152.516,59.035 138.732,51.611 151.46,64.942 158.344,64.942 
		171.599,54.564 	"/>
	<polygon fill="#763B19" points="105.191,59.035 102.543,44.19 99.366,59.035 85.584,51.611 98.308,64.942 105.191,64.942 
		118.45,54.564 	"/>
	<polygon fill="#763B19" points="49.59,73.23 38.951,62.544 44.792,76.55 29.24,78.31 47.291,82.006 52.955,78.086 57.926,62.004 	
		"/>
	<polygon fill="#763B19" points="82.404,225.225 85.053,240.069 88.236,225.225 102.018,232.642 89.288,219.315 82.404,219.315 
		69.148,229.691 	"/>
	<polygon fill="#763B19" points="116.711,248.804 119.359,263.645 122.535,248.804 136.319,256.223 123.595,242.896 
		116.711,242.896 103.455,253.273 	"/>
	<path fill="#763B19" d="M178.672,29.642l-9.516,9.833l3.477-21.898l-10.521,12.937l-7.458-29.487
		c-0.667-0.346-1.322-0.703-2.008-1.027l-12.959,31.858l-7.041-18.497l-4.217,11.095l-9.44-21.103l-9.769,27.51L97.359,21.38
		l-7.133,13.817L78.328,24.143c-0.537,1.866-0.977,3.768-1.184,5.745c-2.377,22.556,18.586,43.255,46.824,46.233
		c28.236,2.978,53.058-12.896,55.438-35.452C179.803,36.915,179.496,33.221,178.672,29.642"/>
	<polygon fill="#56381E" points="212.057,258.81 35.516,258.81 39.209,298.109 52.17,298.109 64.273,393.201 183.297,393.201 
		195.4,298.109 208.36,298.109 	"/>
</g>
</svg>
