<?xml version="1.0" encoding="utf-8"?>
<!-- Generator: Adobe Illustrator 15.1.0, SVG Export Plug-In . SVG Version: 6.00 Build 0)  -->
<!DOCTYPE svg PUBLIC "-//W3C//DTD SVG 1.1//EN" "http://www.w3.org/Graphics/SVG/1.1/DTD/svg11.dtd">
<svg version="1.1" xmlns="http://www.w3.org/2000/svg" xmlns:xlink="http://www.w3.org/1999/xlink" x="0px" y="0px" width="400px"
	 height="400px" viewBox="0 0 400 400" enable-background="new 0 0 400 400" xml:space="preserve">
<g id="Layer_1">
	<circle fill="#C3E6E4" cx="202.5" cy="241.713" r="158.287"/>
</g>
<g id="Layer_12">
	<g>
		<path fill="#301E14" d="M299.06,155.058c5.726-14.271,128.108,24.119,72.908,80.668
			C321.276,287.672,281.938,197.722,299.06,155.058"/>
		<path fill="#301E14" d="M111.994,151.204c-5.459-14.85-132.493,20.959-77.414,80.782
			C85.16,286.937,128.322,195.601,111.994,151.204"/>
		<path fill="#9C6F3C" d="M125.584,133.964c24.166-13.614,147.312-11.614,168.185,11.073
			c35.096,38.148,59.204,111.796,22.396,139.005c-51.013,37.713-152.074,38.34-210.119,7.928
			c-51.578-27.021-40.037-72.694-33.92-86.6C81.632,183.756,107.798,143.984,125.584,133.964"/>
	</g>
	<g>
		<path fill="#FAE9D4" d="M243.931,146.636c17.444-2.841,50.437,7.274,62.085,39.306c7.805,21.458,6.164,50.731-21.148,60.969
			c-14.906,5.591-48.445,3.868-61.138-27.777C211.039,187.489,226.744,149.433,243.931,146.636"/>
	</g>
	<g>
		<path fill="#2E1811" d="M214.662,208.421c0,6.889-8.479,15.241-18.938,15.241c-10.457,0-18.936-8.354-18.936-15.241
			c0-6.889,8.479-9.698,18.936-9.698C206.185,198.722,214.662,201.532,214.662,208.421"/>
		<path fill="#2E1811" d="M133.638,139.114c-12.879,0.737-24.744,5.724-20.705,13.576c4.039,7.854,13.478,6.223,22.097,1.884
			c8.616-4.338,15.185-8.073,12.114-12.501C144.072,137.646,133.638,139.114,133.638,139.114"/>
		<path fill="#2E1811" d="M253.582,210.996c0,13.242-12.293,13.242-12.293,0S253.582,197.754,253.582,210.996"/>
		<path fill="#2E1811" d="M262.82,142.146c12.238,1.061,23.198,6.291,18.77,13.937c-4.432,7.647-13.322,5.792-21.229,1.286
			c-7.91-4.506-13.904-8.365-10.65-12.656C252.967,140.424,262.82,142.146,262.82,142.146"/>
		<path fill="#2E1811" d="M154.06,207.421c0,13.242-12.292,13.242-12.292,0C141.768,194.18,154.06,194.18,154.06,207.421"/>
		<path fill="#4F2110" d="M175.879,234.247c1.037,0.323,2.051,0.634,3.054,0.909c0.5,0.146,1.008,0.251,1.5,0.383
			c0.498,0.109,0.995,0.223,1.49,0.3c0.985,0.188,1.964,0.282,2.921,0.318c0.477,0.003,0.954,0.011,1.416-0.04
			c0.473-0.01,0.921-0.098,1.384-0.146c0.235-0.017,0.449-0.094,0.677-0.136c0.213-0.047,0.498-0.075,0.658-0.135
			c0.508-0.173,1.047-0.311,1.447-0.492c0.441-0.149,0.887-0.398,1.33-0.637c0.414-0.276,0.847-0.551,1.214-0.901
			c0.38-0.338,0.722-0.722,1.021-1.137c0.308-0.408,0.559-0.856,0.778-1.318c0.237-0.453,0.392-0.946,0.535-1.435
			c0.136-0.479,0.218-1.015,0.245-1.456l0.279-4.441l1.074,4.498c0.112,0.467,0.299,1.012,0.516,1.491
			c0.229,0.486,0.481,0.957,0.779,1.391c0.287,0.438,0.606,0.848,0.941,1.232c0.175,0.187,0.335,0.384,0.516,0.56
			c0.192,0.168,0.377,0.338,0.56,0.511c0.403,0.304,0.782,0.631,1.235,0.865c0.42,0.272,0.892,0.47,1.351,0.681
			c0.465,0.201,0.97,0.327,1.45,0.499l0.759,0.181l0.377,0.103l0.094,0.025l0.048,0.013l0.006,0.001
			c0.02,0.004-0.148-0.026-0.074-0.013l0.014,0.002l0.027,0.004l0.215,0.034l0.861,0.146l0.431,0.078l0.36,0.022
			c0.479,0.056,0.965,0.105,1.489,0.091c0.521,0.038,1.029-0.032,1.55-0.069c0.504-0.098,1.037-0.125,1.537-0.282
			c0.514-0.116,1.01-0.298,1.522-0.468c0.495-0.204,0.991-0.425,1.483-0.678c0.971-0.52,1.922-1.158,2.799-1.919l0.252,0.163
			c-0.235,0.572-0.543,1.103-0.898,1.605c-0.357,0.501-0.761,0.977-1.208,1.413c-0.229,0.21-0.454,0.435-0.696,0.636l-0.758,0.572
			c-0.529,0.352-1.076,0.693-1.668,0.948c-0.287,0.146-0.587,0.271-0.895,0.375c-0.305,0.107-0.608,0.229-0.924,0.305
			c-0.631,0.144-1.268,0.313-1.916,0.362c-0.637,0.097-1.313,0.089-2,0.07l-0.512-0.02l-0.434-0.055l-0.865-0.119
			c-0.743-0.117-1.283-0.308-1.93-0.478c-0.61-0.229-1.219-0.468-1.803-0.769c-0.58-0.316-1.16-0.626-1.682-1.045
			c-0.549-0.369-1.021-0.85-1.498-1.303c-0.453-0.488-0.863-1.007-1.219-1.562c-0.348-0.557-0.641-1.145-0.868-1.751
			c-0.228-0.604-0.388-1.229-0.511-1.853c-0.107-0.639-0.182-1.234-0.174-1.929l1.354,0.056c-0.148,0.609-0.363,1.101-0.57,1.628
			c-0.217,0.515-0.465,1.012-0.723,1.501c-0.26,0.487-0.553,0.959-0.861,1.419c-0.146,0.233-0.305,0.462-0.475,0.682
			c-0.16,0.229-0.322,0.456-0.507,0.666c-0.341,0.447-0.726,0.858-1.112,1.281c-0.425,0.38-0.813,0.803-1.314,1.152
			c-0.5,0.395-0.942,0.672-1.402,0.941c-0.587,0.309-1.109,0.532-1.699,0.715c-0.582,0.145-1.176,0.297-1.773,0.313
			c-0.598,0.072-1.187,0.021-1.773-0.009c-0.582-0.063-1.16-0.144-1.721-0.273c-0.561-0.131-1.112-0.28-1.645-0.479
			c-0.539-0.175-1.045-0.433-1.556-0.658c-0.507-0.237-0.991-0.521-1.463-0.813c-0.478-0.284-0.922-0.621-1.36-0.953
			c-0.433-0.35-0.849-0.713-1.227-1.126L175.879,234.247z"/>
		<path fill="#2E1811" d="M134.863,233.119c0,1.337-1.084,2.422-2.422,2.422s-2.422-1.085-2.422-2.422
			c0-1.338,1.084-2.422,2.422-2.422S134.863,231.781,134.863,233.119"/>
		<path fill="#2E1811" d="M143.453,233.119c0,1.337-1.086,2.422-2.422,2.422c-1.338,0-2.423-1.085-2.423-2.422
			c0-1.338,1.085-2.422,2.423-2.422C142.367,230.697,143.453,231.781,143.453,233.119"/>
		<path fill="#2E1811" d="M258.426,235.541c0,1.338-1.083,2.423-2.422,2.423c-1.338,0-2.422-1.085-2.422-2.423
			s1.084-2.422,2.422-2.422C257.343,233.119,258.426,234.203,258.426,235.541"/>
		<path fill="#2E1811" d="M267.016,235.541c0,1.338-1.085,2.423-2.422,2.423s-2.422-1.085-2.422-2.423s1.085-2.422,2.422-2.422
			S267.016,234.203,267.016,235.541"/>
		<path fill="#9C6F3C" d="M189.379,119.838c0,0,34.186-39.421,47.435-22.088c13.249,17.334-35.041,22.249-35.041,22.249
			s37.624,15.084,25.624,29.751s-29.042-18-29.042-18"/>
		<path fill="#4F2110" d="M225.768,146.369c0,0-0.085,0.137-0.243,0.393c-0.168,0.248-0.389,0.631-0.718,1.082
			c-0.191,0.215-0.406,0.455-0.639,0.714c-0.229,0.278-0.51,0.541-0.84,0.78c-0.623,0.528-1.438,1.051-2.438,1.39
			c-0.254,0.08-0.514,0.162-0.775,0.246c-0.268,0.08-0.549,0.094-0.834,0.144c-0.576,0.116-1.166,0.072-1.781,0.049
			c-0.609-0.035-1.223-0.167-1.844-0.299c-0.6-0.178-1.231-0.354-1.81-0.632c-1.208-0.486-2.312-1.195-3.399-1.943
			c-1.054-0.781-2.072-1.635-3.007-2.553c-0.944-0.913-1.813-1.882-2.628-2.864c-0.818-0.979-1.561-1.985-2.252-2.974
			c-1.359-1.993-2.495-3.928-3.357-5.642c-0.883-1.703-1.498-3.182-1.9-4.226c-0.402-1.045-0.578-1.665-0.578-1.665
			s0.398,0.498,1.098,1.37c0.682,0.867,1.659,2.105,2.83,3.591c0.584,0.733,1.219,1.528,1.887,2.368
			c0.68,0.823,1.396,1.692,2.137,2.589c0.748,0.887,1.531,1.788,2.338,2.685c0.818,0.884,1.639,1.791,2.52,2.619
			c0.853,0.861,1.767,1.633,2.664,2.382c0.928,0.69,1.844,1.383,2.795,1.87c0.938,0.526,1.887,0.899,2.813,1.112
			c0.464,0.085,0.921,0.177,1.363,0.167c0.222,0.003,0.447,0.043,0.662,0.019s0.427-0.049,0.634-0.074
			c0.829-0.126,1.599-0.372,2.25-0.692c0.163-0.075,0.331-0.142,0.481-0.22c0.145-0.09,0.283-0.176,0.416-0.258
			c0.277-0.167,0.531-0.32,0.762-0.459C225.248,146.751,225.768,146.369,225.768,146.369"/>
		<path fill="#4F2110" d="M228.717,141.882c-0.206-0.746-0.415-1.496-0.721-2.2c-0.123-0.362-0.299-0.704-0.476-1.046
			c-0.17-0.344-0.338-0.688-0.554-1.005c-0.385-0.664-0.852-1.271-1.313-1.877c-0.498-0.581-0.986-1.165-1.539-1.694
			c-0.535-0.543-1.113-1.047-1.705-1.528c-0.588-0.485-1.207-0.934-1.834-1.371c-1.271-0.85-2.582-1.639-3.933-2.361
			c-2.715-1.418-5.567-2.58-8.487-3.531c-2.904-0.986-5.89-1.813-8.888-2.393l-1.442-0.278l1.342-0.558
			c0.715-0.297,1.433-0.574,2.154-0.837c0.725-0.258,1.438-0.54,2.176-0.761l2.203-0.684c0.729-0.238,1.467-0.454,2.221-0.615
			l2.244-0.532c0.748-0.181,1.5-0.322,2.254-0.446c1.509-0.264,3.016-0.531,4.527-0.771c-1.482,0.384-2.971,0.742-4.457,1.102
			c-0.746,0.173-1.488,0.363-2.215,0.59l-2.197,0.619c-0.736,0.188-1.457,0.431-2.172,0.696l-2.152,0.763
			c-0.721,0.244-1.416,0.563-2.127,0.831c-0.713,0.27-1.418,0.554-2.111,0.853l-0.102-0.836c3.086,0.555,6.092,1.347,9.06,2.31
			c2.95,1.003,5.835,2.221,8.587,3.705c0.68,0.385,1.365,0.761,2.023,1.185c0.67,0.403,1.302,0.872,1.938,1.326
			c0.625,0.475,1.241,0.957,1.826,1.48c0.587,0.517,1.158,1.058,1.688,1.637c0.543,0.566,1.029,1.184,1.508,1.804
			c0.436,0.654,0.871,1.306,1.22,2.009c0.198,0.338,0.349,0.699,0.498,1.061c0.155,0.357,0.312,0.715,0.415,1.094
			C228.447,140.358,228.572,141.119,228.717,141.882"/>
	</g>
</g>
</svg>
