<svg xmlns="http://www.w3.org/2000/svg" width="400" height="400" viewBox="0 0 400 400"><circle fill="#C3E6E4" cx="202.5" cy="241.713" r="158.287"/><g><path fill="#98A4B6" d="M331.407 246.314c0 68.506-75.125 81.383-128.687 81.383-43.492 0-129.646-12.877-129.646-81.383 0-68.508 33.05-124.045 129.646-124.045 98.426 0 128.687 55.537 128.687 124.044"/><path fill="#2E1811" d="M144.518 158.095c-12.855-1.067-25.3 2.213-22.396 10.554 2.903 8.34 12.476 8.042 21.617 4.947 9.136-3.092 16.162-5.873 13.74-10.686-2.426-4.812-12.962-4.815-12.962-4.815M268.994 207.79c0 13.242-12.293 13.242-12.293 0 0-13.243 12.294-13.243 12.294 0M262.73 159.42c12.256-.86 23.896 2.598 20.713 10.84-3.187 8.246-12.256 7.8-20.77 4.58-8.515-3.217-15.04-6.094-12.494-10.84 2.55-4.744 12.55-4.58 12.55-4.58M149.592 206.79c0 13.242-12.293 13.242-12.293 0s12.292-13.242 12.292 0"/><path fill="#fff" d="M244.912 235.344c0 23.956-19.42 38.198-43.375 38.198-23.957 0-43.377-14.242-43.377-38.198 0-23.955 19.42-38.554 43.377-38.554 23.955 0 43.375 14.597 43.375 38.554"/><path fill="#E0A9B6" d="M220.527 218.605c0 5.565-7.832 10.078-17.495 10.078s-17.495-4.513-17.495-10.078 7.832-10.078 17.495-10.078 17.495 4.513 17.495 10.078"/><path fill="#4F2110" d="M183.5 232.164l1.96.734c1.16.46 2.82 1.115 4.813 1.903.96.385 1.983.782 3.05 1.163 1.06.396 2.165.77 3.28 1.1 1.11.34 2.24.61 3.344.82.558.097 1.103.175 1.642.24.268.03.534.037.803.062.13.004.26-.002.393.01l.195.012.1.006.026.002-.138.003h.015l.067-.002 1.06-.022.53-.012c.184 0 .275-.03.42-.033.52-.036 1.03-.04 1.63-.14 1.17-.095 2.3-.355 3.43-.568.547-.16 1.11-.27 1.648-.428.54-.162 1.075-.313 1.594-.49 1.047-.332 2.022-.728 2.95-1.1.462-.203.904-.397 1.325-.578.424-.203.823-.396 1.198-.578.754-.377 1.412-.735 1.974-1.043.527-.326 1.005-.565 1.283-.77l.472-.29s-.025.188-.105.544c-.082.353-.217.872-.46 1.515-.247.633-.597 1.387-1.083 2.207-.488.817-1.11 1.7-1.887 2.596-.785.88-1.697 1.806-2.79 2.632-1.073.858-2.32 1.633-3.683 2.315-1.373.654-2.867 1.232-4.45 1.6-.76.2-1.645.33-2.526.455-.474.07-.815.08-1.163.1l-1.06.06-.296.007-.165-.002-.334-.004c-.223 0-.444-.014-.665-.025-.437-.047-.877-.08-1.306-.146-.858-.124-1.697-.29-2.492-.536-1.603-.45-3.063-1.104-4.382-1.828-1.316-.733-2.482-1.563-3.518-2.404-1.025-.857-1.916-1.734-2.683-2.59-.76-.863-1.4-1.694-1.92-2.465-.52-.772-.935-1.473-1.242-2.07-.62-1.206-.853-1.963-.853-1.963"/><path fill="#2E1811" d="M170.918 234.29s-4.05.49-10.125.825c-1.52.088-3.164.184-4.903.24-1.74.067-3.575.153-5.474.186-1.896.033-3.858.11-5.852.11l-6.042.03c-2.024-.02-4.048-.047-6.042-.07-1.992-.007-3.953-.102-5.852-.145-3.795-.116-7.336-.29-10.373-.493-6.07-.377-10.118-.896-10.118-.896s4.05-.49 10.125-.828c3.036-.185 6.58-.333 10.377-.426 1.896-.03 3.857-.113 5.85-.107l6.042-.03c2.025.023 4.048.05 6.042.07 1.992.014 3.953.105 5.852.148 1.896.044 3.73.143 5.472.222 1.74.07 3.384.176 4.9.274 6.075.375 10.12.892 10.12.89M172.438 240.09s-3.662 1.8-9.285 4.122c-1.403.584-2.926 1.218-4.55 1.85-1.62.638-3.323 1.325-5.103 1.978-1.783.657-3.607 1.378-5.49 2.036-1.877.668-3.784 1.347-5.69 2.023-1.92.645-3.838 1.292-5.728 1.93-1.883.65-3.764 1.208-5.57 1.792-3.622 1.143-7.022 2.148-9.956 2.96-5.856 1.647-9.847 2.495-9.847 2.495s3.66-1.8 9.282-4.123c2.808-1.178 6.103-2.487 9.655-3.828 1.78-.657 3.605-1.38 5.488-2.034 1.878-.668 3.785-1.347 5.692-2.024 1.918-.646 3.838-1.29 5.728-1.927 1.886-.645 3.767-1.206 5.572-1.79 1.805-.587 3.57-1.1 5.237-1.6 1.666-.507 3.25-.95 4.717-1.36 5.858-1.65 9.848-2.5 9.848-2.5M234.168 233.798s4.047-.516 10.12-.89c1.52-.102 3.16-.206 4.9-.275 1.74-.078 3.575-.178 5.472-.22 1.898-.046 3.86-.136 5.854-.147 1.992-.023 4.018-.05 6.04-.07 2.024.01 4.05.02 6.044.027 1.99-.006 3.953.076 5.852.108 3.798.093 7.34.242 10.378.427 6.073.336 10.125.828 10.125.827 0 0-4.048.52-10.12.895-3.036.204-6.577.376-10.372.493-1.896.045-3.857.14-5.852.146-1.992.02-4.02.047-6.043.07-2.022-.014-4.05-.022-6.04-.033-1.993 0-3.956-.076-5.855-.11-1.896-.027-3.732-.115-5.473-.184-1.74-.06-3.387-.153-4.904-.24-6.072-.337-10.125-.825-10.125-.825M232.648 239.598s3.99.852 9.848 2.5c1.465.408 3.053.853 4.72 1.36 1.667.5 3.43 1.01 5.235 1.6 1.808.58 3.69 1.145 5.57 1.79 1.892.637 3.812 1.28 5.73 1.928 1.908.68 3.813 1.354 5.69 2.022 1.886.653 3.708 1.377 5.49 2.034 3.552 1.34 6.847 2.65 9.652 3.828 5.623 2.322 9.285 4.124 9.285 4.124s-3.992-.85-9.85-2.497c-2.933-.81-6.333-1.816-9.954-2.96-1.807-.583-3.688-1.142-5.57-1.792-1.89-.637-3.81-1.282-5.73-1.928-1.905-.68-3.812-1.357-5.69-2.025-1.88-.658-3.706-1.38-5.487-2.037-1.78-.654-3.483-1.342-5.104-1.98-1.623-.63-3.146-1.263-4.55-1.85-5.62-2.32-9.284-4.12-9.284-4.117"/><path fill="#98A4B6" d="M110.95 129.464s22.005-59.582-43.307-57.084C2.333 74.877 11.1 184.16 110.95 129.464M299.047 139.464S277.045 79.882 342.36 82.38c65.307 2.497 56.54 111.78-43.313 57.084"/><path fill="#E0A9B6" d="M96.543 114.247c-2.652 7.68-7.404 13.713-19.008 13.713-11.6 0-22.005-10.587-22.005-18.713 0-8.125 10.405-16.713 22.005-16.713 11.605 0 21.213 15.334 19.008 21.713M315.18 126.32c2.652 7.683 7.404 13.714 19.008 13.714 11.603 0 22.008-10.586 22.008-18.713 0-8.124-10.405-16.712-22.008-16.712-11.604 0-21.212 15.334-19.01 21.713"/><path fill="#98A4B6" d="M205.723 131.993s-.965.033-2.588-.273c-.81-.157-1.773-.41-2.862-.78-.548-.18-1.097-.43-1.7-.67-.598-.25-1.188-.574-1.83-.89-.63-.332-1.246-.74-1.912-1.14-.648-.417-1.27-.915-1.94-1.403-.655-.508-1.262-1.102-1.922-1.682-.635-.604-1.23-1.277-1.85-1.955-.59-.7-1.138-1.46-1.707-2.226-.532-.787-1.016-1.625-1.512-2.466-.47-.855-.858-1.764-1.267-2.668-.408-.903-.663-1.87-.984-2.81l-.22-.714-.014-.046-.067-.27-.02-.08-.032-.158-.065-.314-.248-1.26-.12-.633-.09-.81c-.053-.54-.11-1.075-.148-1.61-.095-1.083-.01-1.985 0-2.966.045-.956.19-1.882.305-2.79.152-.903.354-1.773.562-2.62.247-.833.483-1.642.754-2.415.31-.76.586-1.5.903-2.194.347-.684.657-1.347 1.002-1.96.366-.604.69-1.187 1.048-1.72.375-.523.7-1.025 1.054-1.474.698-.9 1.356-1.644 1.937-2.224 1.165-1.16 1.966-1.693 1.966-1.693l-.14 2.528c-.09 1.568-.223 3.746-.31 6.23-.044 1.24-.06 2.56-.066 3.917.034.682.018 1.367.038 2.065.066.695.068 1.397.117 2.1.088.698.103 1.41.2 2.107l.144 1.048c.036.354.07.712.147.996.068.305.116.608.168.914l.07.458.152.618.3 1.25.07.313.036.157.02.078c-.11-.45-.028-.115-.05-.212l.004.016.012.033.17.513c.23.68.39 1.39.648 2.06.273.665.478 1.357.75 2.018.285.662.566 1.318.847 1.966.31.646.62 1.282.922 1.91.34.61.66 1.23.98 1.845.354.602.696 1.19 1.032 1.763.706 1.143 1.41 2.237 2.102 3.25.696 1.01 1.367 1.947 1.983 2.788.644.85 1.2 1.59 1.66 2.2.49.626.875 1.12 1.135 1.456l.423.53M202.836 118.964s-.242-.594-.424-1.662c-.176-1.063-.27-2.597-.016-4.41.127-.904.334-1.88.668-2.886.143-.515.36-1.01.578-1.53.196-.53.475-1.03.758-1.55.143-.256.28-.522.434-.78l.508-.756.537-.756c.19-.245.4-.48.604-.722.41-.48.836-.96 1.324-1.384.475-.44.948-.878 1.485-1.25l.797-.57.2-.14.102-.07.266-.17.355-.193.713-.38c.13-.066.213-.117.383-.193l.503-.22c.67-.28 1.36-.563 1.96-.7.616-.172 1.228-.322 1.835-.395.605-.104 1.197-.164 1.78-.164.58-.025 1.142-.017 1.687.03 1.086.073 2.086.27 2.98.515 1.79.5 3.15 1.242 4.043 1.857.893.625 1.32 1.105 1.32 1.105l-1.595.48c-.98.294-2.313.695-3.774 1.194-.73.25-1.495.516-2.258.828-.38.16-.77.285-1.146.476-.188.09-.38.17-.57.247-.188.09-.37.184-.56.276-.735.338-1.528.793-2.052 1.12l-.224.12c-.076.04-.215.14-.317.205l-.68.44-.34.218.154-.097-.01.007-.016.013-.03.025-.064.052-.127.097-.522.386c-.365.23-.684.532-1.027.797-.35.26-.675.55-1.003.84-.34.275-.664.57-.98.878-.333.287-.65.592-.962.9-.326.297-.62.613-.93.923-.314.303-.603.618-.896.928-.595.61-1.15 1.227-1.677 1.81-2.26 2.528-3.777 4.214-3.777 4.214"/></g></svg>