<?xml version="1.0" encoding="utf-8"?>
<!-- Generator: Adobe Illustrator 15.1.0, SVG Export Plug-In . SVG Version: 6.00 Build 0)  -->
<!DOCTYPE svg PUBLIC "-//W3C//DTD SVG 1.1//EN" "http://www.w3.org/Graphics/SVG/1.1/DTD/svg11.dtd">
<svg version="1.1" id="Layer_1" xmlns="http://www.w3.org/2000/svg" xmlns:xlink="http://www.w3.org/1999/xlink" x="0px" y="0px"
	 width="25.458px" height="25.681px" viewBox="0 0 25.458 25.681" enable-background="new 0 0 25.458 25.681" xml:space="preserve">
<path fill="#FFFFFF" d="M20.778,16.321c-1.488,0-2.795,0.708-3.652,1.792l-7.95-4.063c0.103-0.388,0.178-0.787,0.178-1.209
	c0-0.461-0.086-0.895-0.211-1.312l7.909-4.048c0.855,1.138,2.197,1.874,3.727,1.874c2.592,0,4.68-2.09,4.68-4.676
	c0-2.583-2.088-4.68-4.68-4.68c-2.58,0-4.674,2.097-4.674,4.68c0,0.422,0.074,0.823,0.178,1.21L8.338,9.954
	C7.481,8.87,6.17,8.161,4.679,8.161C2.094,8.161,0,10.257,0,12.841s2.094,4.679,4.679,4.679c1.53,0,2.871-0.747,3.727-1.883
	l7.912,4.047c-0.127,0.422-0.218,0.855-0.218,1.318c0,2.584,2.099,4.679,4.679,4.679c2.584,0,4.68-2.095,4.68-4.679
	C25.458,18.416,23.362,16.321,20.778,16.321"/>
</svg>
