<?xml version="1.0" encoding="utf-8"?>
<!-- Generator: Adobe Illustrator 15.1.0, SVG Export Plug-In . SVG Version: 6.00 Build 0)  -->
<!DOCTYPE svg PUBLIC "-//W3C//DTD SVG 1.1//EN" "http://www.w3.org/Graphics/SVG/1.1/DTD/svg11.dtd">
<svg version="1.1" xmlns="http://www.w3.org/2000/svg" xmlns:xlink="http://www.w3.org/1999/xlink" x="0px" y="0px" width="400px"
	 height="400px" viewBox="0 0 400 400" enable-background="new 0 0 400 400" xml:space="preserve">
<g id="Layer_1">
	<circle fill="#C3E6E4" cx="202.5" cy="241.713" r="158.287"/>
</g>
<g id="Layer_13">
	<g>
		<path fill="#F49083" d="M346.885,243.762c0,64.364-65.092,99.23-145.385,99.23s-145.385-34.866-145.385-99.23
			c0-64.362,65.092-133.847,145.385-133.847S346.885,179.399,346.885,243.762"/>
		<path fill="#B75A53" d="M139.511,169.282c-14.859,0.852-28.55,6.604-23.891,15.665c4.66,9.063,15.552,7.18,25.496,2.174
			c9.943-5.005,17.521-9.315,13.979-14.422C151.55,167.589,139.511,169.282,139.511,169.282"/>
		<path fill="#2E1811" d="M265.219,222.224c0,15.28-14.185,15.28-14.185,0C251.034,206.942,265.219,206.942,265.219,222.224"/>
		<path fill="#B75A53" d="M259.722,172.782c14.12,1.223,26.768,7.258,21.656,16.08c-5.113,8.824-15.373,6.684-24.497,1.483
			c-9.124-5.198-16.043-9.652-12.286-14.603C248.353,170.795,259.722,172.782,259.722,172.782"/>
		<path fill="#2E1811" d="M150.381,218.098c0,15.283-14.182,15.283-14.182,0C136.199,202.818,150.381,202.818,150.381,218.098"/>
		<path fill="#B75A53" d="M236.47,245.622c0,14.567-12.704,29.519-36.124,29.519c-23.418,0-36.122-14.951-36.122-29.519
			s12.704-23.237,36.122-23.237C223.766,222.385,236.47,231.055,236.47,245.622"/>
		<path fill="#F49083" d="M216.499,242.994c0,0,0.044,0.09,0.129,0.255c0.072,0.159,0.234,0.427,0.331,0.703
			c0.111,0.286,0.27,0.646,0.358,1.008c0.112,0.375,0.239,0.798,0.308,1.221c0.155,0.857,0.188,1.774,0.074,2.679
			c-0.117,0.901-0.409,1.771-0.835,2.567c-0.433,0.793-1.005,1.513-1.699,2.098c-0.695,0.586-1.483,1.056-2.292,1.387
			c-0.394,0.171-0.817,0.295-1.196,0.401c-0.354,0.12-0.742,0.183-1.044,0.243c-0.287,0.069-0.599,0.075-0.773,0.101
			c-0.186,0.02-0.286,0.03-0.286,0.03s-0.044-0.09-0.13-0.257c-0.074-0.16-0.234-0.427-0.335-0.704
			c-0.112-0.287-0.271-0.646-0.36-1.01c-0.115-0.377-0.241-0.798-0.312-1.223c-0.158-0.858-0.189-1.775-0.072-2.677
			c0.118-0.902,0.413-1.77,0.845-2.564c0.438-0.79,1.012-1.506,1.705-2.092c0.701-0.584,1.486-1.055,2.294-1.387
			c0.393-0.172,0.817-0.295,1.192-0.403c0.353-0.12,0.741-0.183,1.04-0.244c0.288-0.069,0.599-0.076,0.772-0.103
			C216.4,243.005,216.499,242.994,216.499,242.994"/>
		<path fill="#F49083" d="M184.192,241.84c0,0,0.101,0.018,0.287,0.05c0.177,0.039,0.492,0.067,0.78,0.159
			c0.306,0.084,0.699,0.175,1.057,0.326c0.38,0.141,0.809,0.296,1.208,0.503c0.813,0.404,1.609,0.953,2.313,1.615
			c0.701,0.662,1.275,1.458,1.715,2.32c0.431,0.865,0.724,1.8,0.836,2.758c0.11,0.958,0.072,1.927-0.095,2.819
			c-0.075,0.443-0.205,0.882-0.325,1.27c-0.095,0.379-0.258,0.747-0.374,1.041c-0.103,0.289-0.269,0.558-0.345,0.722
			c-0.088,0.171-0.135,0.262-0.135,0.262s-0.1-0.017-0.289-0.049c-0.178-0.039-0.494-0.068-0.783-0.16
			c-0.307-0.082-0.701-0.171-1.06-0.324c-0.382-0.139-0.81-0.295-1.21-0.502c-0.815-0.403-1.611-0.951-2.313-1.613
			c-0.701-0.665-1.271-1.461-1.706-2.327c-0.425-0.868-0.717-1.803-0.827-2.762c-0.106-0.963-0.067-1.928,0.097-2.822
			c0.074-0.44,0.206-0.88,0.323-1.266c0.091-0.379,0.255-0.748,0.369-1.04c0.102-0.288,0.268-0.558,0.344-0.721
			C184.146,241.93,184.192,241.84,184.192,241.84"/>
		<path fill="#FBCBCA" d="M133.798,245.782c0,5.469-7.502,9.903-16.761,9.903c-9.256,0-16.759-4.435-16.759-9.903
			c0-5.472,7.503-9.903,16.759-9.903C126.297,235.879,133.798,240.312,133.798,245.782"/>
		<path fill="#FBCBCA" d="M307.101,245.782c0,5.469-7.503,9.903-16.76,9.903c-9.255,0-16.761-4.435-16.761-9.903
			c0-5.472,7.506-9.903,16.761-9.903C299.598,235.879,307.101,240.312,307.101,245.782"/>
		<path fill="#4F2110" d="M165.921,276.545c0,0,1.118,0.62,3.079,1.706c0.963,0.525,2.131,1.167,3.473,1.9
			c1.33,0.721,2.825,1.521,4.458,2.343c1.626,0.833,3.388,1.696,5.253,2.526c1.857,0.847,3.827,1.657,5.86,2.375
			c2.026,0.729,4.132,1.338,6.244,1.79c1.062,0.218,2.12,0.386,3.177,0.521c0.53,0.067,1.056,0.086,1.585,0.136l1.513,0.05
			l0.936-0.009l0.467-0.004l0.396-0.021c0.521-0.022,1.041-0.048,1.608-0.097c1.112-0.056,2.213-0.194,3.306-0.347
			c2.187-0.309,4.319-0.804,6.381-1.376c2.048-0.605,4.02-1.302,5.869-2.072c1.843-0.778,3.567-1.617,5.143-2.466
			c3.149-1.694,5.673-3.438,7.41-4.753c0.861-0.665,1.548-1.206,1.996-1.601c0.458-0.394,0.701-0.604,0.701-0.604
			s-0.091,0.31-0.302,0.883c-0.232,0.557-0.55,1.406-1.095,2.412c-1.068,2.019-2.909,4.791-5.75,7.592
			c-1.416,1.398-3.068,2.816-4.964,4.135c-1.895,1.316-4.019,2.564-6.35,3.601c-2.325,1.049-4.854,1.89-7.492,2.492
			c-1.325,0.271-2.67,0.521-4.034,0.676c-0.667,0.089-1.392,0.13-2.114,0.176l-0.539,0.033l-0.467,0.014l-0.936,0.028
			c-0.835,0.003-1.478-0.016-2.224-0.054c-0.711-0.074-1.429-0.124-2.131-0.227c-1.404-0.198-2.784-0.461-4.104-0.843
			c-2.66-0.715-5.121-1.739-7.377-2.885c-2.251-1.158-4.286-2.463-6.117-3.799c-1.822-1.352-3.438-2.738-4.854-4.083
			c-1.407-1.357-2.621-2.666-3.64-3.873c-1.016-1.211-1.845-2.307-2.491-3.239C166.503,277.715,165.921,276.545,165.921,276.545"/>
		<path fill="#F49083" d="M104.189,129.912c13.188-2.93,26.542-14.615,26.542-23.846c0-14.619-28.462-28.463-40.002-30.001
			S57.652,91.451,60.728,97.604c3.078,6.153,15.385-2.309,18.462-0.77C82.27,98.373,79.961,135.296,104.189,129.912"/>
		<path fill="#B75A53" d="M84.485,95.019c0,0-0.007-0.067-0.021-0.195c-0.006-0.123-0.047-0.329-0.041-0.539
			c-0.014-0.446,0.017-1.037,0.129-1.678c0.228-1.276,0.861-2.678,1.852-3.758c0.972-1.096,2.305-1.864,3.554-2.212
			c0.63-0.173,1.215-0.259,1.661-0.288c0.208-0.026,0.418-0.006,0.54-0.011c0.13,0.003,0.199,0.003,0.199,0.003
			s0.007,0.068,0.021,0.197c0.009,0.123,0.047,0.329,0.043,0.539c0.016,0.447-0.015,1.039-0.124,1.681
			c-0.228,1.278-0.861,2.678-1.857,3.753c-0.98,1.09-2.312,1.857-3.561,2.209c-0.628,0.171-1.212,0.259-1.655,0.288
			c-0.211,0.028-0.42,0.008-0.541,0.012C84.553,95.019,84.485,95.019,84.485,95.019"/>
		<path fill="#F49083" d="M295.432,129.911c-13.184-2.93-26.538-14.614-26.538-23.845c0-14.62,28.461-28.464,40.001-30.001
			c11.538-1.539,33.078,15.386,30,21.538c-3.076,6.154-15.384-2.308-18.462-0.769C317.357,98.373,319.665,135.296,295.432,129.911"
			/>
		<path fill="#B75A53" d="M315.139,95.019c0,0-0.068,0-0.197,0.001c-0.123-0.004-0.332,0.017-0.541-0.012
			c-0.444-0.029-1.027-0.117-1.657-0.288c-1.247-0.353-2.581-1.119-3.559-2.21c-0.997-1.074-1.631-2.475-1.857-3.753
			c-0.11-0.641-0.14-1.232-0.122-1.68c-0.007-0.21,0.033-0.416,0.041-0.539c0.015-0.129,0.022-0.197,0.022-0.197
			s0.067,0,0.197-0.003c0.124,0.005,0.335-0.016,0.542,0.011c0.446,0.029,1.032,0.115,1.66,0.288
			c1.249,0.349,2.582,1.117,3.554,2.213c0.989,1.079,1.624,2.481,1.852,3.757c0.11,0.641,0.141,1.231,0.126,1.678
			c0.008,0.21-0.033,0.416-0.041,0.539C315.145,94.951,315.139,95.019,315.139,95.019"/>
		<path fill="#2E1811" d="M146.959,212.742c0,0-0.332,0.29-1.022,0.592c-0.688,0.31-1.746,0.63-3.069,0.681
			c-1.316,0.06-2.893-0.169-4.447-0.786c-0.402-0.133-0.772-0.331-1.155-0.522c-0.393-0.183-0.763-0.404-1.122-0.648
			c-0.368-0.235-0.741-0.469-1.068-0.756l-0.509-0.414l-0.128-0.104l-0.064-0.053l-0.031-0.025l-0.131-0.123l-0.208-0.206
			c-0.276-0.297-0.523-0.534-0.819-0.884c-0.324-0.41-0.618-0.848-0.9-1.273c-0.224-0.428-0.433-0.859-0.62-1.289
			c-0.145-0.453-0.293-0.896-0.395-1.34c-0.061-0.456-0.152-0.896-0.163-1.329c0.011-0.435-0.017-0.854,0.043-1.256
			c0.095-0.805,0.283-1.528,0.532-2.154c0.496-1.256,1.172-2.121,1.692-2.662c0.52-0.545,0.896-0.77,0.896-0.77
			s-0.055,0.434-0.106,1.133c-0.044,0.701-0.085,1.674,0.007,2.731c0.043,0.527,0.134,1.075,0.26,1.614
			c0.06,0.271,0.16,0.532,0.232,0.801c0.103,0.254,0.205,0.513,0.311,0.775c0.141,0.247,0.272,0.495,0.393,0.748
			c0.175,0.231,0.336,0.468,0.48,0.716c0.173,0.195,0.347,0.377,0.485,0.592c0.208,0.242,0.537,0.54,0.798,0.81l0.2,0.213
			l0.007,0.006c-0.198-0.191-0.052-0.05-0.094-0.092l0.012,0.01l0.024,0.022l0.049,0.042l0.097,0.084l0.389,0.336
			c0.256,0.23,0.509,0.453,0.775,0.656c0.518,0.43,1.049,0.813,1.577,1.175c0.527,0.36,1.058,0.69,1.582,0.977
			c0.522,0.294,1.039,0.554,1.536,0.768c0.495,0.23,0.975,0.409,1.408,0.563c0.436,0.155,0.834,0.287,1.17,0.379
			C146.532,212.662,146.959,212.742,146.959,212.742"/>
		<path fill="#2E1811" d="M255.819,218.325c0,0,0.426-0.08,1.099-0.269c0.337-0.09,0.733-0.221,1.17-0.376
			c0.436-0.155,0.913-0.334,1.408-0.564c0.497-0.213,1.014-0.474,1.536-0.768c0.523-0.285,1.055-0.615,1.582-0.976
			c0.526-0.362,1.059-0.747,1.576-1.178c0.267-0.2,0.521-0.424,0.775-0.653l0.388-0.338l0.098-0.084l0.049-0.041l0.023-0.022
			l0.013-0.011l0.007-0.005c-0.2,0.192-0.054,0.05-0.096,0.091l0.202-0.214c0.26-0.271,0.588-0.567,0.796-0.808
			c0.141-0.215,0.313-0.397,0.485-0.593c0.146-0.247,0.306-0.483,0.48-0.716c0.121-0.252,0.253-0.5,0.394-0.747
			c0.104-0.264,0.209-0.522,0.31-0.776c0.072-0.268,0.174-0.53,0.233-0.8c0.126-0.54,0.217-1.087,0.258-1.615
			c0.092-1.057,0.052-2.029,0.008-2.731c-0.053-0.7-0.107-1.132-0.107-1.132s0.377,0.225,0.895,0.77
			c0.522,0.539,1.198,1.406,1.693,2.661c0.249,0.627,0.438,1.351,0.533,2.154c0.06,0.401,0.031,0.821,0.043,1.257
			c-0.013,0.434-0.104,0.873-0.164,1.327c-0.101,0.445-0.249,0.888-0.393,1.342c-0.188,0.43-0.396,0.86-0.622,1.289
			c-0.281,0.426-0.575,0.861-0.899,1.272c-0.295,0.349-0.542,0.587-0.818,0.885l-0.208,0.206l-0.114,0.111l-0.016,0.012
			l-0.031,0.026l-0.064,0.052l-0.127,0.105l-0.509,0.414c-0.329,0.288-0.703,0.521-1.069,0.755
			c-0.359,0.245-0.729,0.466-1.122,0.648c-0.383,0.193-0.752,0.391-1.155,0.523c-1.555,0.615-3.131,0.843-4.447,0.785
			c-1.323-0.05-2.38-0.37-3.066-0.68C256.15,218.615,255.819,218.325,255.819,218.325"/>
		<path fill="#2E1811" d="M255.219,214.57c0,0,1.308,0.971,3.436,1.681c0.529,0.182,1.117,0.329,1.733,0.463
			c0.619,0.133,1.28,0.212,1.961,0.274c0.683,0.063,1.39,0.065,2.109,0.03c0.36-0.006,0.722-0.029,1.086-0.074l0.547-0.053
			l0.137-0.013l0.069-0.009l0.031-0.003l0.02-0.001c-0.027,0.004,0.072-0.012-0.061,0.01l0.01-0.002l0.287-0.057
			c0.375-0.077,0.789-0.134,1.132-0.223c0.302-0.111,0.61-0.196,0.918-0.29c0.303-0.146,0.609-0.279,0.917-0.406
			c0.284-0.172,0.563-0.342,0.837-0.509c0.251-0.203,0.501-0.402,0.744-0.598c0.221-0.223,0.466-0.421,0.661-0.655
			c0.396-0.464,0.756-0.932,1.05-1.403c0.58-0.942,0.962-1.831,1.202-2.469c0.242-0.637,0.346-1.028,0.346-1.028
			s0.081,0.396,0.081,1.104c-0.005,0.705-0.087,1.735-0.495,2.921c-0.197,0.595-0.482,1.226-0.878,1.848
			c-0.191,0.317-0.439,0.607-0.671,0.925c-0.248,0.305-0.559,0.566-0.848,0.858c-0.319,0.256-0.658,0.501-1.003,0.755
			c-0.365,0.211-0.745,0.415-1.132,0.609c-0.419,0.158-0.85,0.313-1.284,0.45c-0.408,0.111-0.771,0.163-1.161,0.247l-0.288,0.054
			l-0.106,0.016l-0.039,0.003l-0.078,0.007l-0.154,0.014l-0.618,0.05c-0.411,0.047-0.824,0.042-1.235,0.031
			c-0.408,0.004-0.815-0.014-1.216-0.072c-0.399-0.047-0.794-0.082-1.179-0.171c-0.771-0.129-1.499-0.359-2.163-0.618
			c-0.67-0.247-1.275-0.56-1.798-0.888c-0.535-0.31-0.982-0.665-1.356-0.992c-0.383-0.318-0.675-0.645-0.906-0.911
			C255.4,214.932,255.219,214.57,255.219,214.57"/>
		<path fill="#2E1811" d="M146.938,208.991c0,0-0.181,0.362-0.642,0.905c-0.231,0.267-0.522,0.593-0.904,0.911
			c-0.377,0.326-0.823,0.682-1.357,0.99c-0.525,0.329-1.128,0.643-1.799,0.888c-0.666,0.259-1.394,0.49-2.165,0.619
			c-0.382,0.088-0.778,0.124-1.179,0.171c-0.398,0.06-0.806,0.074-1.214,0.072c-0.411,0.01-0.824,0.018-1.236-0.031l-0.617-0.051
			l-0.155-0.014l-0.077-0.006l-0.039-0.004l-0.021-0.001l-0.086-0.014l-0.289-0.053c-0.39-0.082-0.752-0.138-1.16-0.247
			c-0.435-0.139-0.864-0.294-1.285-0.45c-0.387-0.195-0.767-0.399-1.133-0.609c-0.342-0.254-0.683-0.499-1.002-0.756
			c-0.289-0.291-0.601-0.553-0.847-0.857c-0.232-0.318-0.482-0.609-0.671-0.925c-0.396-0.623-0.681-1.253-0.878-1.849
			c-0.41-1.186-0.49-2.216-0.495-2.92c0-0.709,0.08-1.105,0.08-1.105s0.105,0.391,0.346,1.028c0.239,0.638,0.623,1.525,1.203,2.469
			c0.293,0.472,0.653,0.939,1.05,1.402c0.195,0.234,0.439,0.433,0.658,0.656c0.246,0.194,0.493,0.394,0.746,0.597
			c0.275,0.167,0.554,0.338,0.837,0.509c0.309,0.126,0.614,0.26,0.914,0.407c0.311,0.092,0.618,0.179,0.92,0.289
			c0.344,0.09,0.757,0.146,1.132,0.222l0.288,0.059c-0.027-0.006,0.074,0.012-0.061-0.011l0.01,0.001l0.016,0.002l0.035,0.003
			l0.068,0.008l0.136,0.013l0.548,0.054c0.363,0.044,0.726,0.068,1.083,0.074c0.722,0.033,1.431,0.032,2.113-0.031
			c0.68-0.063,1.34-0.141,1.959-0.273c0.615-0.134,1.203-0.282,1.734-0.463C145.631,209.963,146.938,208.991,146.938,208.991"/>
		<path fill="#B75A53" d="M161.107,160.72c1.29,0.862,2.76,1.503,4.248,1.954c1.497,0.447,3.047,0.687,4.587,0.698
			c3.091,0.05,6.107-0.904,8.709-2.512c0.658-0.405,1.259-0.825,1.912-1.318c0.652-0.474,1.286-0.955,1.888-1.443
			c1.229-0.96,2.412-2.009,3.547-3.071c0.558-0.543,1.11-1.089,1.637-1.654c0.531-0.558,1.05-1.13,1.527-1.722
			c0.492-0.585,0.936-1.195,1.359-1.808c0.2-0.309,0.401-0.617,0.578-0.928c0.166-0.285,0.367-0.674,0.424-0.838l2.69-7.537
			l0.372,8.143c0.028,0.665,0.1,1.43,0.189,2.144c0.092,0.725,0.208,1.446,0.351,2.159c0.281,1.422,0.673,2.807,1.196,4.088
			c0.527,1.271,1.198,2.44,2.028,3.291c0.409,0.43,0.85,0.781,1.322,1.024c0.237,0.118,0.469,0.241,0.723,0.308
			c0.124,0.035,0.241,0.094,0.374,0.109l0.193,0.038l0.096,0.021l0.048,0.012l0.024,0.005l0.011,0.004
			c-0.053-0.01,0.127,0.02-0.116-0.021l0.01,0.001l0.572,0.064l0.141,0.014l0.067-0.011l0.13-0.014
			c0.073,0.003,0.187-0.012,0.311-0.034c0.116-0.019,0.236-0.026,0.349-0.068c0.465-0.11,0.92-0.312,1.368-0.62
			c0.898-0.605,1.763-1.545,2.486-2.656c0.734-1.101,1.354-2.357,1.896-3.65c0.267-0.653,0.52-1.314,0.755-1.982
			c0.229-0.65,0.452-1.386,0.608-1.96l1.783-6.632l3.387,6.097c0.354,0.639,0.801,1.38,1.234,2.058
			c0.438,0.691,0.873,1.384,1.335,2.052c0.93,1.333,1.859,2.652,2.897,3.804c0.999,1.17,2.105,2.226,3.195,2.859
			c0.539,0.306,1.056,0.528,1.505,0.605c0.056,0.002-0.045-0.004-0.049,0.014c0.019-0.004,0.035,0.008,0.06,0.005
			c0.047-0.001,0.106-0.002,0.185-0.028c0.153-0.043,0.364-0.149,0.59-0.313c0.461-0.324,0.941-0.861,1.409-1.446
			c0.469-0.59,0.909-1.256,1.327-1.952c0.821-1.401,1.575-2.912,2.285-4.456c1.393-3.102,2.64-6.338,3.845-9.605l0.534,0.107
			c-0.113,1.761-0.32,3.505-0.598,5.247c-0.29,1.736-0.617,3.477-1.071,5.2c-0.437,1.729-0.961,3.45-1.68,5.158
			c-0.36,0.854-0.757,1.71-1.252,2.562c-0.494,0.855-1.092,1.698-1.948,2.508c-0.87,0.777-2.026,1.635-3.899,1.654
			c-1.285-0.027-2.453-0.352-3.46-0.819c-2.015-0.939-3.539-2.232-4.927-3.563c-1.347-1.37-2.547-2.8-3.596-4.317
			c-0.525-0.755-1.039-1.516-1.512-2.301c-0.476-0.8-0.906-1.555-1.367-2.445l5.168-0.537c-0.279,0.9-0.565,1.619-0.885,2.403
			c-0.317,0.769-0.662,1.524-1.044,2.267c-0.767,1.486-1.628,2.943-2.714,4.323c-1.079,1.37-2.365,2.719-4.1,3.716
			c-0.86,0.499-1.856,0.878-2.906,1.049c-0.259,0.057-0.524,0.074-0.79,0.093c-0.259,0.022-0.53,0.035-0.841,0.014l-0.447-0.025
			l-0.223-0.019l-0.145-0.023l-0.567-0.097l-0.144-0.025l-0.022-0.006l-0.047-0.012l-0.091-0.025l-0.184-0.05l-0.366-0.103
			c-0.246-0.061-0.479-0.171-0.716-0.262c-0.477-0.178-0.922-0.432-1.35-0.692c-0.86-0.532-1.589-1.21-2.194-1.932
			c-1.225-1.453-1.973-3.071-2.525-4.671c-0.54-1.608-0.881-3.224-1.098-4.835c-0.106-0.806-0.187-1.61-0.236-2.416
			c-0.049-0.817-0.077-1.589-0.06-2.462l3.061,0.605c-0.267,0.569-0.472,0.873-0.727,1.27c-0.241,0.373-0.5,0.721-0.755,1.068
			c-0.529,0.676-1.07,1.331-1.65,1.939c-1.143,1.229-2.363,2.356-3.64,3.397c-1.287,1.033-2.585,2.016-3.957,2.928
			c-0.682,0.474-1.36,0.908-2.04,1.326c-0.663,0.421-1.404,0.877-2.135,1.263c-2.949,1.578-6.349,2.412-9.676,2.146
			c-1.661-0.112-3.287-0.511-4.821-1.089c-1.535-0.594-2.987-1.354-4.293-2.374L161.107,160.72z"/>
	</g>
</g>
</svg>
