<svg xmlns="http://www.w3.org/2000/svg" xmlns:xlink="http://www.w3.org/1999/xlink" width="400" height="400" viewBox="0 0 400 400"><circle fill="#C3E6E4" cx="202.5" cy="241.713" r="158.287"/><g><defs><path id="a" d="M-11.756 99H360.36v341.466H-11.755z"/></defs><clipPath id="b"><use xlink:href="#a" overflow="visible"/></clipPath><path clip-path="url(#b)" fill="#F89821" d="M201.698 158.554c-78.89 0-142.84 42.325-142.84 94.535s63.95 94.536 142.84 94.536S344.542 305.3 344.542 253.09s-63.955-94.536-142.844-94.536"/><defs><path id="c" d="M-11.756 99H360.36v341.466H-11.755z"/></defs><clipPath id="d"><use xlink:href="#c" overflow="visible"/></clipPath><path clip-path="url(#d)" fill="#6E3B20" d="M81.864 148.063s-15.826 6.06-18.045-12.702c-2.22-18.764 2.683-29.78 10.602-34.014 7.92-4.23 39.984-2.197 40 13.28.02 15.477-24.545 32.145-32.558 33.437"/><defs><path id="e" d="M-11.756 99H360.36v341.466H-11.755z"/></defs><clipPath id="f"><use xlink:href="#e" overflow="visible"/></clipPath><path clip-path="url(#f)" fill="#6E3B20" d="M292.495 139.985c-14.455-12.437-16.087-17.068-8.09-26.825 6.046-7.378 22.98-14.202 40.15.658 11.91 10.305-.485 40.54-5.88 40.415-7.712-.177-16.135-5.604-26.18-14.248"/><defs><path id="g" d="M-11.756 99H360.36v341.466H-11.755z"/></defs><clipPath id="h"><use xlink:href="#g" overflow="visible"/></clipPath><path clip-path="url(#h)" fill="#F89821" d="M287.73 319.05c3.223-10.558 31.03-7.714 43.59-25.815 61.318-88.387-56.445-180.603-129.347-183.433-95.776-3.72-179.404 103.223-129.983 183.06 9.15 14.79 30.923 11.153 35.93 27.372"/><defs><path id="i" d="M71.99 292.86c9.152 14.792 30.922 11.155 35.93 27.374l10.55 105.513 159.012 14.72 26.73-132.533c1.395-4.572 4.312-4.545 8.192-4.516 5.072.036 11.796.075 18.912-10.186 61.32-88.385-56.444-180.602-129.345-183.432-1.624-.063-3.25-.095-4.87-.095-93.708-.002-173.693 104.675-125.11 183.156"/></defs><clipPath id="j"><use xlink:href="#i" overflow="visible"/></clipPath><path clip-path="url(#j)" fill="#FFFAF5" d="M120.198 174.21C47.2 294.605 204.043 338.906 273.948 288.122c97.678-70.958-79.44-236.474-153.75-113.912-15.102 24.91 12.958-21.373 0 0"/><defs><path id="k" d="M71.99 292.86c9.152 14.792 30.922 11.155 35.93 27.374l10.55 105.513 159.012 14.72 26.73-132.533c1.395-4.572 4.312-4.545 8.192-4.516 5.072.036 11.796.075 18.912-10.186 61.32-88.385-56.444-180.602-129.345-183.432-1.624-.063-3.25-.095-4.87-.095-93.708-.002-173.693 104.675-125.11 183.156"/></defs><clipPath id="l"><use xlink:href="#k" overflow="visible"/></clipPath><path clip-path="url(#l)" fill="#2E1811" d="M145.062 200.266c-9.85-6.03-21.125-8.42-22.162-.58-1.038 7.84 6.74 11.46 15.294 12.664 8.556 1.205 15.296 1.81 15.296-3.014 0-4.826-8.428-9.07-8.428-9.07"/><defs><path id="m" d="M71.99 292.86c9.152 14.792 30.922 11.155 35.93 27.374l10.55 105.513 159.012 14.72 26.73-132.533c1.395-4.572 4.312-4.545 8.192-4.516 5.072.036 11.796.075 18.912-10.186 61.32-88.385-56.444-180.602-129.345-183.432-1.624-.063-3.25-.095-4.87-.095-93.708-.002-173.693 104.675-125.11 183.156"/></defs><clipPath id="n"><use xlink:href="#m" overflow="visible"/></clipPath><path clip-path="url(#n)" fill="#2E1811" d="M143.67 223.877c0 11.857-11.006 11.857-11.006 0 0-11.856 11.006-11.856 11.006 0"/><defs><path id="o" d="M71.99 292.86c9.152 14.792 30.922 11.155 35.93 27.374l10.55 105.513 159.012 14.72 26.73-132.533c1.395-4.572 4.312-4.545 8.192-4.516 5.072.036 11.796.075 18.912-10.186 61.32-88.385-56.444-180.602-129.345-183.432-1.624-.063-3.25-.095-4.87-.095-93.708-.002-173.693 104.675-125.11 183.156"/></defs><clipPath id="p"><use xlink:href="#o" overflow="visible"/></clipPath><path clip-path="url(#p)" fill="#2E1811" d="M173.32 242.555c16.25 23.086 40.34 22.807 58.137 3.116-15.875 25.63-44.4 27.797-58.138-3.115"/><defs><path id="q" d="M71.99 292.86c9.152 14.792 30.922 11.155 35.93 27.374l10.55 105.513 159.012 14.72 26.73-132.533c1.395-4.572 4.312-4.545 8.192-4.516 5.072.036 11.796.075 18.912-10.186 61.32-88.385-56.444-180.602-129.345-183.432-1.624-.063-3.25-.095-4.87-.095-93.708-.002-173.693 104.675-125.11 183.156"/></defs><clipPath id="r"><use xlink:href="#q" overflow="visible"/></clipPath><path clip-path="url(#r)" fill="#F89722" d="M123.037 168.96c0-1.363 12.108-20.898 26.167-9.086 14.062 11.81 9.373 73.138 53.51 79.044 44.134 5.906 33.23-75.966 52.336-78.592 13.228-1.815 32.026 25.896 32.026 25.896L251.146 99l-94.522 1.816-33.587 68.143z"/><defs><path id="s" d="M71.99 292.86c9.152 14.792 30.922 11.155 35.93 27.374l10.55 105.513 159.012 14.72 26.73-132.533c1.395-4.572 4.312-4.545 8.192-4.516 5.072.036 11.796.075 18.912-10.186 61.32-88.385-56.444-180.602-129.345-183.432-1.624-.063-3.25-.095-4.87-.095-93.708-.002-173.693 104.675-125.11 183.156"/></defs><clipPath id="t"><use xlink:href="#s" overflow="visible"/></clipPath><path clip-path="url(#t)" fill="#F89722" d="M156.268 117.8s10.546 62.408 14.673 81.61c4.13 19.204 4.59 18.67 8.255 20.27 3.67 1.6 10.942 3.2 24.276 3.2 13.332 0 19.753-1.067 25.253-1.603 5.504-.53 20.178-100.81 18.8-103.478-1.375-2.667-69.245-23.47-91.255 0"/><defs><path id="u" d="M71.99 292.86c9.152 14.792 30.922 11.155 35.93 27.374l10.55 105.513 159.012 14.72 26.73-132.533c1.395-4.572 4.312-4.545 8.192-4.516 5.072.036 11.796.075 18.912-10.186 61.32-88.385-56.444-180.602-129.345-183.432-1.624-.063-3.25-.095-4.87-.095-93.708-.002-173.693 104.675-125.11 183.156"/></defs><clipPath id="v"><use xlink:href="#u" overflow="visible"/></clipPath><path clip-path="url(#v)" fill="#2E1811" d="M255.578 204.374c9.58-5.407 20.32-7.086 20.918.803.594 7.894-6.913 11.02-15.035 11.69-8.124.67-14.504.853-14.27-3.967.236-4.814 8.388-8.526 8.388-8.526"/><defs><path id="w" d="M71.99 292.86c9.152 14.792 30.922 11.155 35.93 27.374l10.55 105.513 159.012 14.72 26.73-132.533c1.395-4.572 4.312-4.545 8.192-4.516 5.072.036 11.796.075 18.912-10.186 61.32-88.385-56.444-180.602-129.345-183.432-1.624-.063-3.25-.095-4.87-.095-93.708-.002-173.693 104.675-125.11 183.156"/></defs><clipPath id="x"><use xlink:href="#w" overflow="visible"/></clipPath><path clip-path="url(#x)" fill="#2E1811" d="M268.245 228.186c0 11.856-11.007 11.856-11.007 0 0-11.858 11.007-11.858 11.007 0"/><defs><path id="y" d="M123.503 169.413l.996-2.022c-.648 1.037-.997 1.792-.997 2.023m24.74-50.195L124.5 167.39c3.17-5.067 13.494-16.87 25.17-7.062 14.062 11.812 9.374 73.14 53.507 79.045 44.136 5.906 33.234-75.966 52.337-78.59 13.23-1.817 32.03 25.894 32.03 25.894l-24.087-58.465c-20.917-11.01-42.693-17.68-61.484-18.41-1.625-.062-3.25-.094-4.87-.094-16.965 0-33.474 3.426-48.86 9.51"/></defs><clipPath id="z"><use xlink:href="#y" overflow="visible"/></clipPath><path clip-path="url(#z)" fill="#6E3B20" d="M166.465 208.813s17.867 8.174 37.537 8.63c19.486.456 37.452-10.447 37.452-10.447s-6.024 36.37-38.23 33.162c-20.63-2.054-30.12-15.902-36.76-31.345"/><defs><path id="A" d="M71.99 292.86c9.152 14.792 30.922 11.155 35.93 27.374l10.55 105.513 159.012 14.72 26.73-132.533c1.395-4.572 4.312-4.545 8.192-4.516 5.072.036 11.796.075 18.912-10.186 61.32-88.385-56.444-180.602-129.345-183.432-1.624-.063-3.25-.095-4.87-.095-93.708-.002-173.693 104.675-125.11 183.156"/></defs><clipPath id="B"><use xlink:href="#A" overflow="visible"/></clipPath><path clip-path="url(#B)" fill="#6E3B20" d="M237.36 127.92c-11.605-6.473-24.893-9.036-26.11-.62-1.223 8.417 7.94 12.302 18.02 13.597 10.078 1.294 18.02 1.942 18.02-3.237-.003-5.18-9.93-9.74-9.93-9.74"/><defs><path id="C" d="M71.99 292.86c9.152 14.792 30.922 11.155 35.93 27.374l10.55 105.513 159.012 14.72 26.73-132.533c1.395-4.572 4.312-4.545 8.192-4.516 5.072.036 11.796.075 18.912-10.186 61.32-88.385-56.444-180.602-129.345-183.432-1.624-.063-3.25-.095-4.87-.095-93.708-.002-173.693 104.675-125.11 183.156"/></defs><clipPath id="D"><use xlink:href="#C" overflow="visible"/></clipPath><path clip-path="url(#D)" fill="#6E3B20" d="M231.31 156.496c-11.603-6.475-17.857-7.222-19.08 1.195-1.22 8.42.91 10.485 10.99 11.78 10.078 1.296 18.02 1.943 18.02-3.235-.002-5.18-9.93-9.74-9.93-9.74"/><defs><path id="E" d="M71.99 292.86c9.152 14.792 30.922 11.155 35.93 27.374l10.55 105.513 159.012 14.72 26.73-132.533c1.395-4.572 4.312-4.545 8.192-4.516 5.072.036 11.796.075 18.912-10.186 61.32-88.385-56.444-180.602-129.345-183.432-1.624-.063-3.25-.095-4.87-.095-93.708-.002-173.693 104.675-125.11 183.156"/></defs><clipPath id="F"><use xlink:href="#E" overflow="visible"/></clipPath><path clip-path="url(#F)" fill="#6E3B20" d="M223.784 188.895c-8.205-4.76-12.627-5.31-13.49.878-.862 6.19.646 7.71 7.772 8.662 7.123.953 12.735 1.428 12.735-2.38.003-3.81-7.016-7.16-7.016-7.16"/><defs><path id="G" d="M71.99 292.86c9.152 14.792 30.922 11.155 35.93 27.374l10.55 105.513 159.012 14.72 26.73-132.533c1.395-4.572 4.312-4.545 8.192-4.516 5.072.036 11.796.075 18.912-10.186 61.32-88.385-56.444-180.602-129.345-183.432-1.624-.063-3.25-.095-4.87-.095-93.708-.002-173.693 104.675-125.11 183.156"/></defs><clipPath id="H"><use xlink:href="#G" overflow="visible"/></clipPath><path clip-path="url(#H)" fill="#6E3B20" d="M172.696 125.418c12.002-5.404 25.416-6.76 26.07 1.74.655 8.505-8.737 11.548-18.873 11.93-10.134.377-18.095.307-17.748-4.856.345-5.165 10.55-8.814 10.55-8.814"/><defs><path id="I" d="M71.99 292.86c9.152 14.792 30.922 11.155 35.93 27.374l10.55 105.513 159.012 14.72 26.73-132.533c1.395-4.572 4.312-4.545 8.192-4.516 5.072.036 11.796.075 18.912-10.186 61.32-88.385-56.444-180.602-129.345-183.432-1.624-.063-3.25-.095-4.87-.095-93.708-.002-173.693 104.675-125.11 183.156"/></defs><clipPath id="J"><use xlink:href="#I" overflow="visible"/></clipPath><path clip-path="url(#J)" fill="#6E3B20" d="M179.278 155.44c12.005-5.406 18.286-5.586 18.945 2.915.652 8.503-1.61 10.37-11.745 10.753-10.134.38-18.094.307-17.75-4.857.348-5.163 10.55-8.81 10.55-8.81"/><defs><path id="K" d="M71.99 292.86c9.152 14.792 30.922 11.155 35.93 27.374l10.55 105.513 159.012 14.72 26.73-132.533c1.395-4.572 4.312-4.545 8.192-4.516 5.072.036 11.796.075 18.912-10.186 61.32-88.385-56.444-180.602-129.345-183.432-1.624-.063-3.25-.095-4.87-.095-93.708-.002-173.693 104.675-125.11 183.156"/></defs><clipPath id="L"><use xlink:href="#K" overflow="visible"/></clipPath><path clip-path="url(#L)" fill="#6E3B20" d="M184.306 187.986c8.203-4.763 12.626-5.31 13.488.878.864 6.188-.642 7.71-7.768 8.662-7.126.952-12.74 1.43-12.74-2.38 0-3.81 7.02-7.16 7.02-7.16"/><defs><path id="M" d="M71.99 292.86c9.152 14.792 30.922 11.155 35.93 27.374l10.55 105.513 159.012 14.72 26.73-132.533c1.395-4.572 4.312-4.545 8.192-4.516 5.072.036 11.796.075 18.912-10.186 61.32-88.385-56.444-180.602-129.345-183.432-1.624-.063-3.25-.095-4.87-.095-93.708-.002-173.693 104.675-125.11 183.156"/></defs><clipPath id="N"><use xlink:href="#M" overflow="visible"/></clipPath><path clip-path="url(#N)" fill="#6E3B20" d="M57.605 204.975c18.637-.207 37.414 5.91 34.574 17.822-2.842 11.91-16.907 10.467-30.81 4.97-13.902-5.493-24.658-10.312-21.924-17.105 2.732-6.796 18.16-5.687 18.16-5.687"/><defs><path id="O" d="M71.99 292.86c9.152 14.792 30.922 11.155 35.93 27.374l10.55 105.513 159.012 14.72 26.73-132.533c1.395-4.572 4.312-4.545 8.192-4.516 5.072.036 11.796.075 18.912-10.186 61.32-88.385-56.444-180.602-129.345-183.432-1.624-.063-3.25-.095-4.87-.095-93.708-.002-173.693 104.675-125.11 183.156"/></defs><clipPath id="P"><use xlink:href="#O" overflow="visible"/></clipPath><path clip-path="url(#P)" fill="#6E3B20" d="M57.774 261.886c18.193-5.92 37.964-5.69 37.886 6.843-.08 12.53-14.177 15.432-29.033 14.317-14.855-1.115-26.478-2.53-25.342-10.02 1.134-7.49 16.49-11.14 16.49-11.14"/><defs><path id="Q" d="M71.99 292.86c9.152 14.792 30.922 11.155 35.93 27.374l10.55 105.513 159.012 14.72 26.73-132.533c1.395-4.572 4.312-4.545 8.192-4.516 5.072.036 11.796.075 18.912-10.186 61.32-88.385-56.444-180.602-129.345-183.432-1.624-.063-3.25-.095-4.87-.095-93.708-.002-173.693 104.675-125.11 183.156"/></defs><clipPath id="R"><use xlink:href="#Q" overflow="visible"/></clipPath><path clip-path="url(#R)" fill="#6E3B20" d="M76.384 154.498c16.555 6.083 31.66 17.817 26.182 27.41-5.476 9.59-17.572 3.58-28.515-5.96-10.943-9.544-19.27-17.43-15.16-22.523 4.107-5.1 17.494 1.073 17.494 1.073"/><defs><path id="S" d="M71.99 292.86c9.152 14.792 30.922 11.155 35.93 27.374l10.55 105.513 159.012 14.72 26.73-132.533c1.395-4.572 4.312-4.545 8.192-4.516 5.072.036 11.796.075 18.912-10.186 61.32-88.385-56.444-180.602-129.345-183.432-1.624-.063-3.25-.095-4.87-.095-93.708-.002-173.693 104.675-125.11 183.156"/></defs><clipPath id="T"><use xlink:href="#S" overflow="visible"/></clipPath><path clip-path="url(#T)" fill="#6E3B20" d="M345.135 215.868c-16.594-2.248-34.503 1.595-34.208 13.4.296 11.81 13.122 11.958 26.563 8.187 13.44-3.777 23.946-7.246 22.785-14.104-1.162-6.854-15.14-7.482-15.14-7.482"/><defs><path id="U" d="M71.99 292.86c9.152 14.792 30.922 11.155 35.93 27.374l10.55 105.513 159.012 14.72 26.73-132.533c1.395-4.572 4.312-4.545 8.192-4.516 5.072.036 11.796.075 18.912-10.186 61.32-88.385-56.444-180.602-129.345-183.432-1.624-.063-3.25-.095-4.87-.095-93.708-.002-173.693 104.675-125.11 183.156"/></defs><clipPath id="V"><use xlink:href="#U" overflow="visible"/></clipPath><path clip-path="url(#V)" fill="#6E3B20" d="M339.627 261.09c-16.62-5.796-34.846-4.863-35.093 8.727-.247 13.59 12.672 16.248 26.393 14.527s24.466-3.658 23.612-11.74c-.855-8.084-14.913-11.513-14.913-11.513"/><defs><path id="W" d="M71.99 292.86c9.152 14.792 30.922 11.155 35.93 27.374l10.55 105.513 159.012 14.72 26.73-132.533c1.395-4.572 4.312-4.545 8.192-4.516 5.072.036 11.796.075 18.912-10.186 61.32-88.385-56.444-180.602-129.345-183.432-1.624-.063-3.25-.095-4.87-.095-93.708-.002-173.693 104.675-125.11 183.156"/></defs><clipPath id="X"><use xlink:href="#W" overflow="visible"/></clipPath><path clip-path="url(#X)" fill="#6E3B20" d="M331.325 169.733c-16.778 4.535-31.61 15.044-25.16 25.503 6.45 10.458 18.588 5.53 29.255-3.156 10.665-8.688 18.73-15.94 14.05-21.62-4.673-5.685-18.145-.727-18.145-.727"/><defs><path id="Y" d="M71.99 292.86c9.152 14.792 30.922 11.155 35.93 27.374l10.55 105.513 159.012 14.72 26.73-132.533c1.395-4.572 4.312-4.545 8.192-4.516 5.072.036 11.796.075 18.912-10.186 61.32-88.385-56.444-180.602-129.345-183.432-1.624-.063-3.25-.095-4.87-.095-93.708-.002-173.693 104.675-125.11 183.156"/></defs><clipPath id="Z"><use xlink:href="#Y" overflow="visible"/></clipPath><path clip-path="url(#Z)" fill="#010101" d="M178.07 250.447l.2-.188 8.114-7.69 1.16-1.1.345 1.505 3.432 15.045.232 1.014-.854-.543-11.553-7.355-1.077-.688zm2.198 1.306l10.865 6.013-.623.47-4.354-14.808 1.504.406-7.392 7.92z"/><defs><path id="aa" d="M71.99 292.86c9.152 14.792 30.922 11.155 35.93 27.374l10.55 105.513 159.012 14.72 26.73-132.533c1.395-4.572 4.312-4.545 8.192-4.516 5.072.036 11.796.075 18.912-10.186 61.32-88.385-56.444-180.602-129.345-183.432-1.624-.063-3.25-.095-4.87-.095-93.708-.002-173.693 104.675-125.11 183.156"/></defs><clipPath id="ab"><use xlink:href="#aa" overflow="visible"/></clipPath><path clip-path="url(#ab)" fill="#010101" d="M226.988 251.384l-.336.238-9.607 6.786-1.286.906-.094-1.517-.863-14.054-.054-.855.684.473 10.47 7.272 1.084.752zm-2.215-1.434l-9.787-5.9.632-.38 1.765 13.97-1.378-.606 8.768-7.084z"/><defs><path id="ac" d="M71.99 292.86c9.152 14.792 30.922 11.155 35.93 27.374l10.55 105.513 159.012 14.72 26.73-132.533c1.395-4.572 4.312-4.545 8.192-4.516 5.072.036 11.796.075 18.912-10.186 61.32-88.385-56.444-180.602-129.345-183.432-1.624-.063-3.25-.095-4.87-.095-93.708-.002-173.693 104.675-125.11 183.156"/></defs><clipPath id="ad"><use xlink:href="#ac" overflow="visible"/></clipPath><path clip-path="url(#ad)" fill="#6E3B20" d="M150.378 241.042c0 1.298-1.054 2.35-2.35 2.35-1.3 0-2.352-1.052-2.352-2.35 0-1.3 1.053-2.35 2.35-2.35 1.298 0 2.352 1.053 2.352 2.35"/><defs><path id="ae" d="M71.99 292.86c9.152 14.792 30.922 11.155 35.93 27.374l10.55 105.513 159.012 14.72 26.73-132.533c1.395-4.572 4.312-4.545 8.192-4.516 5.072.036 11.796.075 18.912-10.186 61.32-88.385-56.444-180.602-129.345-183.432-1.624-.063-3.25-.095-4.87-.095-93.708-.002-173.693 104.675-125.11 183.156"/></defs><clipPath id="af"><use xlink:href="#ae" overflow="visible"/></clipPath><path clip-path="url(#af)" fill="#6E3B20" d="M126.996 244.02c0 1.298-1.052 2.352-2.35 2.352-1.297 0-2.35-1.054-2.35-2.35s1.053-2.35 2.35-2.35c1.298.003 2.35 1.055 2.35 2.35"/><defs><path id="ag" d="M71.99 292.86c9.152 14.792 30.922 11.155 35.93 27.374l10.55 105.513 159.012 14.72 26.73-132.533c1.395-4.572 4.312-4.545 8.192-4.516 5.072.036 11.796.075 18.912-10.186 61.32-88.385-56.444-180.602-129.345-183.432-1.624-.063-3.25-.095-4.87-.095-93.708-.002-173.693 104.675-125.11 183.156"/></defs><clipPath id="ah"><use xlink:href="#ag" overflow="visible"/></clipPath><path clip-path="url(#ah)" fill="#6E3B20" d="M141.972 251.824c0 1.298-1.052 2.35-2.348 2.35-1.3 0-2.35-1.052-2.35-2.35 0-1.3 1.05-2.35 2.35-2.35 1.296 0 2.348 1.05 2.348 2.35"/><defs><path id="ai" d="M304.212 307.934c1.396-4.572 4.313-4.545 8.193-4.516 5.072.036 11.796.075 18.912-10.186 61.32-88.385-56.444-180.602-129.345-183.432-1.625-.063-3.252-.095-4.87-.095-93.71-.003-173.696 104.674-125.114 183.155"/></defs><clipPath><use xlink:href="#ai" overflow="visible"/></clipPath><defs><path id="aj" d="M304.212 307.934c1.396-4.572 4.313-4.545 8.193-4.516 5.072.036 11.796.075 18.912-10.186 61.32-88.385-56.444-180.602-129.345-183.432-1.625-.063-3.252-.095-4.87-.095-93.71-.003-173.696 104.674-125.114 183.155"/></defs><defs><path id="al" d="M71.99 292.86c9.152 14.792 30.922 11.155 35.93 27.374"/></defs><clipPath id="ak"><use xlink:href="#aj" overflow="visible"/></clipPath><clipPath id="am" clip-path="url(#ak)"><use xlink:href="#al" overflow="visible"/></clipPath><path clip-path="url(#am)" fill="#6E3B20" d="M283.396 248.3c-.918.917-2.405.914-3.32-.004-.918-.918-.916-2.403 0-3.32.92-.92 2.404-.917 3.324.003.914.916.914 2.404-.004 3.32"/><defs><path id="an" d="M304.212 307.934c1.396-4.572 4.313-4.545 8.193-4.516 5.072.036 11.796.075 18.912-10.186 61.32-88.385-56.444-180.602-129.345-183.432-1.625-.063-3.252-.095-4.87-.095-93.71-.003-173.696 104.674-125.114 183.155"/></defs><clipPath><use xlink:href="#an" overflow="visible"/></clipPath><defs><path id="ao" d="M304.212 307.934c1.396-4.572 4.313-4.545 8.193-4.516 5.072.036 11.796.075 18.912-10.186 61.32-88.385-56.444-180.602-129.345-183.432-1.625-.063-3.252-.095-4.87-.095-93.71-.003-173.696 104.674-125.114 183.155"/></defs><defs><path id="aq" d="M71.99 292.86c9.152 14.792 30.922 11.155 35.93 27.374"/></defs><clipPath id="ap"><use xlink:href="#ao" overflow="visible"/></clipPath><clipPath id="ar" clip-path="url(#ap)"><use xlink:href="#aq" overflow="visible"/></clipPath><path clip-path="url(#ar)" fill="#6E3B20" d="M260.527 248.3c-.92.917-2.407.914-3.324-.004-.915-.918-.913-2.405.002-3.32.92-.92 2.406-.917 3.325.003.915.916.915 2.404-.003 3.32"/><defs><path id="as" d="M304.212 307.934c1.396-4.572 4.313-4.545 8.193-4.516 5.072.036 11.796.075 18.912-10.186 61.32-88.385-56.444-180.602-129.345-183.432-1.625-.063-3.252-.095-4.87-.095-93.71-.003-173.696 104.674-125.114 183.155"/></defs><clipPath><use xlink:href="#as" overflow="visible"/></clipPath><defs><path id="at" d="M304.212 307.934c1.396-4.572 4.313-4.545 8.193-4.516 5.072.036 11.796.075 18.912-10.186 61.32-88.385-56.444-180.602-129.345-183.432-1.625-.063-3.252-.095-4.87-.095-93.71-.003-173.696 104.674-125.114 183.155"/></defs><defs><path id="av" d="M71.99 292.86c9.152 14.792 30.922 11.155 35.93 27.374"/></defs><clipPath id="au"><use xlink:href="#at" overflow="visible"/></clipPath><clipPath id="aw" clip-path="url(#au)"><use xlink:href="#av" overflow="visible"/></clipPath><path clip-path="url(#aw)" fill="#6E3B20" d="M274.393 259.88c-.918.916-2.406.914-3.324-.005-.917-.917-.917-2.404.004-3.32.915-.918 2.405-.916 3.32.004.915.917.915 2.404 0 3.32"/></g></svg>