<svg xmlns="http://www.w3.org/2000/svg" width="400" height="400" viewBox="0 0 400 400"><circle fill="#C3E6E4" cx="202.5" cy="241.713" r="158.287"/><g><path fill="#FDC215" d="M341.598 247.28c0 75.945-62.07 99.983-138.643 99.983-76.57 0-138.642-24.038-138.642-99.983 0-75.948 62.072-137.517 138.642-137.517s138.643 61.57 138.643 137.517"/><path fill="#EFF8FD" d="M315.058 241.065c0 60.446-50.19 87.156-112.102 87.156-61.912 0-112.103-26.71-112.103-87.155s50.19-109.447 112.103-109.447c61.91 0 112.102 49 112.102 109.447"/><path fill="#2E1811" d="M154.982 163.524c-11.275-4.975-23.434-5.668-23.23 3.192.203 8.863 7.99 12.453 17.118 12.306 9.13-.146 17.19-1.57 16.396-6.913-.79-5.344-10.284-8.586-10.284-8.586M262.56 167.244c11.99-2.852 24.072-1.332 22.268 7.345-1.804 8.68-10.854 9.722-19.805 7.924-8.952-1.794-15.88-3.574-14.132-8.688 1.747-5.11 11.67-6.582 11.67-6.582"/><path fill="#F16B24" d="M190.712 236.78c.175 11.733 12.044 30.265 21.31 29.338 9.265-.926 20.366-19.72 20.383-29.337.05-31.81-42.182-32.894-41.693 0"/><path fill="#CC2A2C" d="M192.438 97.81c-33.04-11.065-57.026-31.76-58.233-49.52-1.208-17.766 11.755-55.86 43.874-39.147 31.562 16.427 7.455 34.217 4.812 45.407-2.64 11.19 5.303 16.258 11.655 9.323 6.352-6.937 1.395-34.157 20.188-26.14 18.794 8.017-.713 22.958-5.29 31.912-3.517 6.88 6.047 4.495 10.005-3.646 6.845-14.082 32.96 5.882 17.178 20.055-22.2 19.937-30.697 16.276-44.19 11.756"/><path fill="#2E1811" d="M271.496 201.673c0 13.89-12.893 13.89-12.893 0 0-13.888 12.893-13.888 12.893 0M144.19 198.767c0 13.89 12.894 13.89 12.894 0s-12.893-13.89-12.893 0"/><path fill="#2C2D2D" d="M200.157 209.086L96.95 196.072s-4.008 15.155 14.522 32.613c18.53 17.46 66.19 34.136 88.685-19.6M220.863 209.086l102.278-13.014s4.938 15.155-13.593 32.61c-18.528 17.463-66.188 34.14-88.684-19.596M175.64 225.64s.56-1.27 1.922-3.196c.68-.963 1.563-2.085 2.653-3.31.547-.607 1.158-1.223 1.808-1.88.66-.635 1.378-1.282 2.142-1.948.778-.644 1.6-1.308 2.482-1.96.895-.63 1.82-1.29 2.827-1.898 1.998-1.234 4.217-2.4 6.655-3.36.612-.235 1.232-.472 1.853-.712.632-.22 1.29-.397 1.94-.597.66-.183 1.326-.37 1.992-.553l2.07-.4c1.38-.295 2.817-.43 4.265-.53l1.086-.08.27-.02.544-.003.468.01 1.87.043.936.034 1.13.118c.763.08 1.52.184 2.28.285.37.056.77.097 1.116.163l1.02.224c.676.15 1.35.303 2.02.456 2.655.674 5.156 1.566 7.485 2.567 2.32 1.017 4.477 2.137 6.43 3.33 1.955 1.19 3.724 2.417 5.29 3.64 1.562 1.225 2.933 2.42 4.092 3.55 1.166 1.12 2.127 2.163 2.886 3.058 1.523 1.782 2.236 2.97 2.236 2.97s-1.37-.188-3.617-.618l-3.986-.793c-1.493-.32-3.176-.684-5.014-1.08l-5.755-1.274c-2.016-.432-4.107-.88-6.238-1.306-2.132-.417-4.3-.8-6.458-1.126-.536-.07-1.073-.143-1.614-.214l-.81-.117c-.262-.038-.485-.04-.73-.064-.48-.04-.956-.075-1.433-.138-.244-.026-.464-.063-.73-.085l-.936-.022-1.87-.072-.468-.02-.115-.007-.06-.004c.59.004.15.002.275.004h-.023l-.195.008-.778.026c-.52.02-1.036.024-1.556.022-.518-.01-1.04.093-1.562.11-.523.037-1.045.07-1.563.107-.524.065-1.045.133-1.563.2-.52.065-1.044.1-1.562.183l-1.548.26c-2.064.313-4.084.76-6.038 1.185-1.952.44-3.824.92-5.58 1.383-1.782.49-3.416.943-4.863 1.34l-3.867 1.112c-1.083.323-1.965.567-2.57.735-.616.17-.943.263-.943.263"/><path fill="#676867" d="M269.565 221.154c0 6.312-5.807 13.28-12.97 13.28-7.166 0-12.973-6.97-12.973-13.28s5.807-9.573 12.972-9.573c7.164 0 12.97 3.264 12.97 9.574M147.627 216.937c0 6.313-5.807 13.28-12.97 13.28s-12.973-6.968-12.973-13.28c0-6.31 5.808-9.57 12.972-9.57s12.97 3.26 12.97 9.57"/></g></svg>