<?xml version="1.0" encoding="utf-8"?>
<!-- Generator: Adobe Illustrator 15.1.0, SVG Export Plug-In . SVG Version: 6.00 Build 0)  -->
<!DOCTYPE svg PUBLIC "-//W3C//DTD SVG 1.1//EN" "http://www.w3.org/Graphics/SVG/1.1/DTD/svg11.dtd">
<svg version="1.1" xmlns="http://www.w3.org/2000/svg" xmlns:xlink="http://www.w3.org/1999/xlink" x="0px" y="0px" width="400px"
	 height="400px" viewBox="0 0 400 400" enable-background="new 0 0 400 400" xml:space="preserve">
<g id="Layer_1">
	<circle fill="#C3E6E4" cx="202.5" cy="241.713" r="158.287"/>
</g>
<g id="Layer_9">
	<g>
		<path fill="#FFFFFF" d="M364.119,228.468c0,77.576-72.267,102.132-161.41,102.132C113.564,330.6,41.3,306.044,41.3,228.468
			C41.3,150.89,113.564,88,202.71,88C291.854,88,364.119,150.89,364.119,228.468"/>
		<path fill="#E2DFD7" d="M95.51,225.156c-1.493,50.223,44.992,73.897,103.15,75.723c58.151,1.826,105.96-18.888,107.455-69.111
			s-44.65-107.147-102.809-108.975C145.15,120.97,97.005,174.932,95.51,225.156"/>
		<path fill="#FFFFFF" d="M147.007,100.351c0,11.882-9.641,21.515-21.532,21.515c-11.893,0-21.535-9.633-21.535-21.515
			c0-11.885,9.643-21.517,21.535-21.517C137.366,78.834,147.007,88.466,147.007,100.351"/>
		<path fill="#FFFFFF" d="M180.443,88.525c0,11.882-9.641,21.516-21.531,21.516c-11.895,0-21.534-9.634-21.534-21.516
			c0-11.883,9.64-21.515,21.534-21.515C170.803,67.01,180.443,76.643,180.443,88.525"/>
		<path fill="#FFFFFF" d="M224.483,81.159c0,12.9-10.47,23.357-23.38,23.357s-23.378-10.457-23.378-23.357
			s10.468-23.36,23.378-23.36S224.483,68.257,224.483,81.159"/>
		<path fill="#FFFFFF" d="M265.49,85.381c0,13.619-11.048,24.658-24.675,24.658c-13.63,0-24.678-11.039-24.678-24.658
			c0-13.616,11.048-24.657,24.678-24.657C254.442,60.724,265.49,71.766,265.49,85.381"/>
		<path fill="#FFFFFF" d="M296.575,95.002c0,11.883-9.641,21.517-21.531,21.517c-11.895,0-21.533-9.634-21.533-21.517
			s9.641-21.516,21.533-21.516C286.936,73.486,296.575,83.119,296.575,95.002"/>
		<path fill="#FFFFFF" d="M113.938,121.466c0,9.525-7.725,17.248-17.26,17.248c-9.534,0-17.26-7.723-17.26-17.248
			c0-9.524,7.726-17.249,17.26-17.249C106.213,104.217,113.938,111.941,113.938,121.466"/>
		<path fill="#FFFFFF" d="M316.764,124.201c0,9.526-7.728,17.248-17.26,17.248c-9.535,0-17.264-7.722-17.264-17.248
			c0-9.527,7.729-17.249,17.264-17.249C309.037,106.952,316.764,114.674,316.764,124.201"/>
		<path fill="#3A3B3B" d="M169.585,232.382c0,0,0.305,0.042,0.878,0.119c0.562,0.096,1.403,0.192,2.438,0.365
			c1.026,0.172,2.274,0.381,3.704,0.62c1.401,0.25,2.981,0.53,4.706,0.837c1.705,0.313,3.539,0.641,5.455,0.967
			c1.917,0.337,3.921,0.66,5.967,0.957c2.046,0.294,4.143,0.563,6.225,0.734c0.521,0.044,1.043,0.089,1.566,0.134l1.551,0.052
			l1.547,0.061l1.511-0.036l0.755-0.004h0.189h0.095c-0.089,0.008,0.232-0.018-0.192,0.017l0.025-0.002l0.057-0.005l0.435-0.041
			l1.741-0.15l0.858-0.074l0.693-0.106l1.391-0.19c0.446-0.035,0.988-0.193,1.477-0.283c0.505-0.091,1.009-0.181,1.51-0.271
			c1.001-0.234,1.987-0.487,2.979-0.696c0.987-0.269,1.959-0.532,2.909-0.788c0.959-0.284,1.898-0.563,2.812-0.833
			c1.836-0.566,3.589-1.129,5.219-1.676c3.327-1.126,6.1-2.064,8.041-2.724c1.005-0.332,1.798-0.595,2.336-0.772
			c0.551-0.18,0.844-0.273,0.844-0.273s-0.646,1.068-2.01,2.735c-1.369,1.654-3.471,3.891-6.332,6.21
			c-1.429,1.157-3.049,2.332-4.846,3.474c-0.893,0.584-1.865,1.087-2.839,1.657c-0.984,0.554-2.049,1.009-3.106,1.532
			c-1.087,0.479-2.218,0.908-3.37,1.341c-1.195,0.381-2.336,0.783-3.644,1.082c-0.671,0.144-1.341,0.287-2.014,0.433l-1.017,0.208
			l-0.874,0.109l-1.734,0.203l-0.436,0.048l-0.329,0.026l-0.125,0.003l-0.248,0.007l-0.996,0.021l-1.99,0.015
			c-0.655-0.019-1.298-0.092-1.942-0.136c-0.643-0.053-1.291-0.099-1.922-0.187c-0.625-0.103-1.246-0.203-1.864-0.305
			c-1.252-0.168-2.441-0.47-3.617-0.768c-1.186-0.267-2.312-0.624-3.419-0.991c-2.214-0.71-4.279-1.56-6.187-2.443
			c-1.908-0.885-3.653-1.822-5.222-2.758c-3.138-1.867-5.561-3.724-7.186-5.119c-0.816-0.687-1.415-1.301-1.835-1.693
			C169.786,232.618,169.585,232.382,169.585,232.382"/>
		<polygon fill="#3A3B3B" points="208.976,239.313 203.762,254.35 199.784,238.938 		"/>
		<path fill="#212121" d="M184.92,256.287c0,0,0.166,0.049,0.479,0.141c0.306,0.1,0.772,0.207,1.328,0.389
			c1.134,0.325,2.718,0.789,4.566,1.284c0.929,0.243,1.919,0.492,2.956,0.736c1.038,0.233,2.123,0.451,3.23,0.646
			c1.11,0.177,2.241,0.332,3.377,0.426c1.128,0.078,2.298,0.141,3.375,0.075c0.66-0.021,1.341-0.031,1.827-0.106
			c0.53-0.062,1.071-0.078,1.666-0.18c1.155-0.151,2.313-0.331,3.439-0.555c0.569-0.092,1.12-0.221,1.671-0.332
			c0.553-0.103,1.088-0.229,1.617-0.349c1.06-0.226,2.068-0.466,3.01-0.691c1.928-0.446,3.535-0.82,4.659-1.081
			c0.569-0.146,1.044-0.224,1.354-0.3c0.32-0.066,0.49-0.103,0.49-0.103s-0.099,0.146-0.304,0.402
			c-0.212,0.243-0.508,0.633-0.934,1.058c-0.831,0.884-2.097,2.062-3.785,3.255c-0.843,0.597-1.789,1.202-2.835,1.77
			c-1.044,0.572-2.184,1.125-3.417,1.591c-0.606,0.259-1.248,0.463-1.902,0.659c-0.328,0.102-0.66,0.2-0.992,0.301l-1.028,0.231
			c-1.305,0.325-3.096,0.513-4.271,0.555c-1.539,0.047-2.994-0.058-4.42-0.313c-1.423-0.234-2.773-0.629-4.035-1.085
			c-1.262-0.461-2.422-1.019-3.481-1.598c-0.522-0.308-1.025-0.604-1.503-0.907c-0.465-0.324-0.918-0.626-1.337-0.937
			c-0.831-0.635-1.556-1.256-2.166-1.839c-0.613-0.584-1.101-1.143-1.497-1.601C185.274,256.902,184.92,256.287,184.92,256.287"/>
		<path fill="#E2DFD7" d="M70.494,173.277c0,9.526-7.728,17.248-17.261,17.248c-9.535,0-17.263-7.722-17.263-17.248
			c0-9.527,7.728-17.248,17.263-17.248C62.766,156.028,70.494,163.75,70.494,173.277"/>
		<path fill="#FFFFFF" d="M93.422,146.722c0,11.882-9.641,21.515-21.531,21.515c-11.895,0-21.534-9.633-21.534-21.515
			c0-11.885,9.639-21.516,21.534-21.516C83.781,125.206,93.422,134.837,93.422,146.722"/>
		<path fill="#FFFFFF" d="M341.713,146.72c0,9.527-7.727,17.248-17.262,17.248c-9.534,0-17.263-7.721-17.263-17.248
			c0-9.526,7.729-17.247,17.263-17.247C333.986,129.473,341.713,137.193,341.713,146.72"/>
		<path fill="#FFFFFF" d="M58.222,199.872c0,7.883-6.395,14.271-14.283,14.271c-7.889,0-14.283-6.388-14.283-14.271
			c0-7.882,6.395-14.271,14.283-14.271C51.828,185.601,58.222,191.99,58.222,199.872"/>
		<path fill="#FFFFFF" d="M47.466,226.077c0,9.525-7.729,17.246-17.261,17.246c-9.533,0-17.262-7.721-17.262-17.246
			c0-9.527,7.729-17.248,17.262-17.248C39.738,208.829,47.466,216.55,47.466,226.077"/>
		<path fill="#FFFFFF" d="M58.465,256.966c0,10.969-8.9,19.859-19.879,19.859c-10.978,0-19.878-8.891-19.878-19.859
			c0-10.974,8.9-19.864,19.878-19.864C49.564,237.102,58.465,245.992,58.465,256.966"/>
		<path fill="#FFFFFF" d="M78.101,279.102c0,10.968-8.899,19.86-19.877,19.86c-10.979,0-19.879-8.891-19.879-19.86
			c0-10.974,8.9-19.863,19.879-19.863C69.201,259.238,78.101,268.128,78.101,279.102"/>
		<path fill="#FFFFFF" d="M99.295,300.99c0,10.969-8.898,19.861-19.877,19.861s-19.879-8.891-19.879-19.861
			c0-10.974,8.901-19.865,19.879-19.865C90.396,281.127,99.295,290.017,99.295,300.99"/>
		<path fill="#FFFFFF" d="M123.817,320.852c0,10.969-8.899,19.86-19.878,19.86s-19.879-8.891-19.879-19.86
			c0-10.973,8.9-19.864,19.879-19.864S123.817,309.877,123.817,320.852"/>
		<path fill="#FFFFFF" d="M162.423,330.603c0,13.818-11.214,25.02-25.045,25.02c-13.83,0-25.045-11.201-25.045-25.02
			c0-13.825,11.215-25.025,25.045-25.025C151.209,305.575,162.423,316.775,162.423,330.603"/>
		<path fill="#FFFFFF" d="M196.693,330.601c0,10.467-8.492,18.95-18.968,18.95s-18.968-8.483-18.968-18.95
			c0-10.47,8.492-18.954,18.968-18.954S196.693,320.131,196.693,330.601"/>
		<path fill="#FFFFFF" d="M234.019,330.603c0,13.818-11.213,25.02-25.044,25.02s-25.045-11.201-25.045-25.02
			c0-13.825,11.214-25.025,25.045-25.025S234.019,316.775,234.019,330.603"/>
		<path fill="#FFFFFF" d="M259.653,330.603c0,11.228-9.111,20.33-20.35,20.33c-11.237,0-20.35-9.102-20.35-20.33
			c0-11.234,9.112-20.335,20.35-20.335C250.542,310.268,259.653,319.368,259.653,330.603"/>
		<path fill="#FFFFFF" d="M294.292,330.603c0,11.228-9.112,20.33-20.35,20.33s-20.35-9.102-20.35-20.33
			c0-11.234,9.112-20.335,20.35-20.335S294.292,319.368,294.292,330.603"/>
		<path fill="#FFFFFF" d="M314.643,311.648c0,11.229-9.112,20.331-20.351,20.331s-20.35-9.102-20.35-20.331
			c0-11.233,9.111-20.333,20.35-20.333S314.643,300.415,314.643,311.648"/>
		<path fill="#FFFFFF" d="M332.048,300.991c0,11.229-9.112,20.331-20.35,20.331c-11.238,0-20.351-9.103-20.351-20.331
			c0-11.234,9.112-20.333,20.351-20.333C322.936,280.658,332.048,289.757,332.048,300.991"/>
		<path fill="#FFFFFF" d="M352.398,300.991c0,11.229-9.112,20.331-20.351,20.331c-11.237,0-20.35-9.103-20.35-20.331
			c0-11.234,9.112-20.333,20.35-20.333C343.286,280.658,352.398,289.757,352.398,300.991"/>
		<path fill="#FFFFFF" d="M371.503,276.827c0,11.229-9.11,20.332-20.349,20.332c-11.237,0-20.35-9.102-20.35-20.332
			c0-11.233,9.112-20.333,20.35-20.333C362.393,256.494,371.503,265.594,371.503,276.827"/>
		<path fill="#FFFFFF" d="M378.308,258.051c0,11.229-9.112,20.331-20.351,20.331c-11.237,0-20.35-9.102-20.35-20.331
			c0-11.233,9.112-20.333,20.35-20.333C369.195,237.718,378.308,246.817,378.308,258.051"/>
		<path fill="#FFFFFF" d="M387.831,224.666c1.48,13.087-7.937,24.901-21.037,26.383c-13.101,1.482-24.921-7.926-26.402-21.016
			c-1.483-13.09,7.937-24.902,21.037-26.385C374.528,202.165,386.35,211.575,387.831,224.666"/>
		<path fill="#FFFFFF" d="M372.132,193.774c0,9.527-7.728,17.248-17.261,17.248s-17.262-7.721-17.262-17.248
			c0-9.525,7.729-17.248,17.262-17.248S372.132,184.249,372.132,193.774"/>
		<path fill="#E2DFD7" d="M351.152,170.303c0,7.476-6.063,13.534-13.543,13.534c-7.481,0-13.546-6.059-13.546-13.534
			s6.064-13.532,13.546-13.532C345.089,156.771,351.152,162.827,351.152,170.303"/>
		<path fill="#2E1811" d="M145.357,211.328c0,0,0.046-0.153,0.154-0.437c0.116-0.276,0.265-0.699,0.519-1.197
			c0.48-1.016,1.258-2.429,2.412-3.996c0.582-0.779,1.266-1.589,2.046-2.406c0.404-0.398,0.825-0.8,1.27-1.204
			c0.462-0.385,0.938-0.777,1.445-1.155c1.031-0.733,2.174-1.428,3.447-1.96c1.274-0.528,2.666-0.933,4.122-1.055l1.092-0.069
			l0.137-0.008l0.032-0.002l0.114,0.002l0.056,0.004l0.233,0.01l0.465,0.024c0.634,0.035,1.192,0.043,1.905,0.16
			c1.383,0.161,2.646,0.465,3.846,0.841c2.407,0.766,4.475,1.954,6.021,3.201c0.778,0.616,1.427,1.257,1.956,1.856
			c0.546,0.578,0.946,1.156,1.265,1.625c0.631,0.949,0.849,1.563,0.849,1.563s-0.509-0.403-1.423-0.987
			c-0.457-0.296-1.021-0.624-1.669-0.98c-0.321-0.182-0.668-0.359-1.046-0.527c-0.365-0.184-0.754-0.361-1.167-0.528
			c-0.811-0.357-1.711-0.681-2.663-0.975c-0.952-0.296-1.97-0.537-3.025-0.738c-1.061-0.191-2.172-0.322-3.228-0.398
			c-0.498-0.072-1.179-0.034-1.779-0.066l-0.465-0.014l-0.233-0.008l-0.059-0.001l-0.015-0.001c0.156,0.004,0.037,0.002,0.068,0.003
			l-0.023,0.003l-0.097,0.01l-0.768,0.068c-1.025,0.059-2.052,0.347-3.064,0.675c-0.507,0.152-0.994,0.412-1.494,0.596
			c-0.491,0.217-0.957,0.495-1.441,0.719c-0.468,0.272-0.927,0.539-1.378,0.803c-0.442,0.289-0.876,0.573-1.299,0.848
			c-0.835,0.581-1.623,1.156-2.342,1.715c-1.443,1.112-2.623,2.124-3.458,2.841C145.837,210.911,145.357,211.328,145.357,211.328"/>
		<path fill="#2E1811" d="M221.665,204.668c0,0,0.071-0.145,0.229-0.402c0.162-0.251,0.383-0.643,0.72-1.087
			c0.653-0.915,1.667-2.167,3.08-3.508c0.711-0.664,1.527-1.341,2.442-2.006c0.466-0.32,0.953-0.643,1.46-0.961
			c0.525-0.3,1.062-0.601,1.627-0.883c1.146-0.54,2.392-1.021,3.741-1.321c1.346-0.294,2.788-0.446,4.241-0.31l1.086,0.124
			l0.136,0.016l0.034,0.004l0.109,0.022l0.058,0.012l0.226,0.052l0.453,0.106c0.619,0.148,1.166,0.254,1.849,0.496
			c1.333,0.4,2.522,0.923,3.637,1.506c2.234,1.179,4.061,2.712,5.36,4.213c0.66,0.742,1.185,1.486,1.599,2.171
			c0.435,0.667,0.729,1.306,0.959,1.823c0.452,1.045,0.559,1.688,0.559,1.688s-0.429-0.487-1.225-1.222
			c-0.399-0.371-0.896-0.797-1.47-1.26c-0.284-0.235-0.595-0.471-0.937-0.702c-0.327-0.246-0.68-0.489-1.056-0.727
			c-0.736-0.495-1.564-0.973-2.448-1.429c-0.886-0.46-1.845-0.876-2.849-1.261c-1.009-0.375-2.08-0.7-3.105-0.96
			c-0.478-0.158-1.156-0.24-1.742-0.379l-0.455-0.098l-0.228-0.046l-0.057-0.013l-0.016-0.004c0.153,0.032,0.035,0.009,0.065,0.017
			l-0.022-0.002l-0.097-0.008l-0.767-0.068c-1.021-0.124-2.082-0.021-3.137,0.124c-0.526,0.063-1.05,0.23-1.575,0.323
			c-0.522,0.126-1.031,0.317-1.546,0.451c-0.509,0.187-1.009,0.369-1.497,0.547c-0.487,0.207-0.965,0.408-1.43,0.606
			c-0.924,0.426-1.802,0.851-2.607,1.273c-1.617,0.841-2.955,1.629-3.905,2.185C222.211,204.344,221.665,204.668,221.665,204.668"/>
		<path fill="#EDAEB1" d="M145.357,228.498c0,7.429-6.187,13.45-13.82,13.45c-7.631,0-13.818-6.022-13.818-13.45
			s6.188-13.447,13.818-13.447C139.172,215.051,145.357,221.071,145.357,228.498"/>
		<path fill="#EDAEB1" d="M287.761,226.027c0,7.427-6.186,13.447-13.818,13.447c-7.634,0-13.819-6.021-13.819-13.447
			c0-7.43,6.188-13.45,13.819-13.45C281.576,212.577,287.761,218.599,287.761,226.027"/>
		<path fill="#1B1B1B" d="M93.445,158.718c4.328-5.969-30.979-21.246-55.978,2.113C12.467,184.189,49.575,219.177,93.445,158.718"/>
		<path fill="#1B1B1B" d="M306.191,155.032c-4.05-6.162,31.927-19.785,55.818,4.708
			C385.898,184.231,347.208,217.462,306.191,155.032"/>
		<path fill="#94928C" d="M101.406,114.38c0,0,13.928,6.642,29.733,1.37c16.51-5.508,17.402-18.23,17.402-18.23
			s-10.783-52.528-53.725-64.867c-42.944-12.34-73.263,29.556-73.263,29.556s35.626-14.013,56.273,2.483
			C92.626,76.517,101.406,114.38,101.406,114.38"/>
		<path fill="#94928C" d="M307.19,117.053c0,0-13.86,10.71-29.665,5.438c-16.51-5.506-20.468-21.296-20.468-21.296
			s13.849-49.462,56.79-61.8c42.944-12.339,70.196,37.73,70.196,37.73s-32.56-22.186-53.207-5.691
			C316.037,83.257,307.19,117.053,307.19,117.053"/>
		<path fill="#2E1811" d="M150.66,204.504c0,0-0.044,0.184-0.22,0.484c-0.094,0.134-0.195,0.328-0.36,0.493
			c-0.165,0.163-0.34,0.396-0.589,0.546c-0.24,0.166-0.5,0.384-0.816,0.502c-0.313,0.135-0.649,0.305-1.017,0.359
			c-0.364,0.066-0.753,0.184-1.139,0.158c-0.408-0.009-0.739,0.013-1.226-0.061c-0.177-0.038-0.325-0.062-0.526-0.115
			c-0.225-0.069-0.447-0.155-0.661-0.241c-0.393-0.188-0.749-0.433-1.051-0.715c-0.295-0.29-0.534-0.607-0.705-0.927
			c-0.172-0.322-0.281-0.643-0.346-0.938c-0.141-0.589-0.103-1.085-0.048-1.417c0.06-0.334,0.142-0.512,0.142-0.512
			s0.364,0.706,0.97,1.432c0.153,0.181,0.333,0.35,0.516,0.514c0.184,0.16,0.391,0.298,0.599,0.427
			c0.112,0.055,0.224,0.109,0.329,0.169c0.123,0.039,0.24,0.083,0.355,0.136c0.109,0.026,0.218,0.047,0.321,0.09
			c0.134,0.035,0.333,0.062,0.497,0.094c0.201,0.037,0.574,0.039,0.851,0.084c0.302,0.06,0.583,0.012,0.87,0.033
			c0.292,0.026,0.555-0.023,0.824-0.036c0.274,0,0.515-0.065,0.761-0.092C149.943,204.804,150.66,204.504,150.66,204.504"/>
		<path fill="#2E1811" d="M249.965,200.673c0,0,0.719,0.301,1.67,0.468c0.244,0.028,0.488,0.092,0.76,0.092
			c0.271,0.014,0.533,0.065,0.825,0.036c0.288-0.021,0.57,0.027,0.871-0.032c0.276-0.044,0.648-0.048,0.851-0.084
			c0.164-0.032,0.362-0.06,0.496-0.094c0.104-0.043,0.211-0.064,0.322-0.09c0.113-0.054,0.231-0.098,0.354-0.136
			c0.106-0.061,0.217-0.115,0.33-0.169c0.208-0.129,0.413-0.267,0.599-0.428c0.182-0.163,0.361-0.333,0.516-0.514
			c0.604-0.726,0.97-1.431,0.97-1.431s0.082,0.178,0.141,0.512c0.057,0.331,0.094,0.825-0.047,1.416
			c-0.063,0.296-0.174,0.616-0.346,0.938c-0.173,0.319-0.41,0.637-0.705,0.926c-0.303,0.282-0.66,0.527-1.051,0.716
			c-0.214,0.086-0.436,0.172-0.661,0.241c-0.199,0.054-0.35,0.077-0.526,0.115c-0.486,0.071-0.816,0.052-1.226,0.06
			c-0.386,0.026-0.775-0.092-1.138-0.157c-0.368-0.056-0.705-0.225-1.017-0.359c-0.317-0.119-0.577-0.337-0.817-0.502
			c-0.248-0.151-0.424-0.384-0.588-0.546c-0.164-0.165-0.268-0.361-0.361-0.493C250.009,200.856,249.965,200.673,249.965,200.673"/>
		<path fill="#FFFFFF" d="M198.16,102.581c-22.514,2.044-70.038,21.088-87.168,60.977c-17.128,39.892-13.598,32.377-13.598,32.377
			s26.453-5.556,55.066-17.265c28.614-11.709,45.838-29.936,45.838-29.936s6.774,8.409,48.173,26.44
			c32.107,13.985,54.185,13.715,54.185,13.715S273.791,95.711,198.16,102.581"/>
	</g>
</g>
</svg>
