<?xml version="1.0" encoding="utf-8"?>
<!-- Generator: Adobe Illustrator 15.1.0, SVG Export Plug-In . SVG Version: 6.00 Build 0)  -->
<!DOCTYPE svg PUBLIC "-//W3C//DTD SVG 1.1//EN" "http://www.w3.org/Graphics/SVG/1.1/DTD/svg11.dtd">
<svg version="1.1" id="Lanterns" xmlns="http://www.w3.org/2000/svg" xmlns:xlink="http://www.w3.org/1999/xlink" x="0px" y="0px"
	 width="1417.32px" height="884.41px" viewBox="0 0 1417.32 884.41" enable-background="new 0 0 1417.32 884.41"
	 xml:space="preserve">
<g>
	<rect x="176" y="254" fill="#C44566" width="6" height="103"/>
	<rect x="176" y="12" fill="#C44566" width="6" height="144"/>
	<g>
		<defs>
			<path id="XMLID_2_" d="M244.596,217.373c0.469-50.133-41.992-66.531-65.185-66.531c-23.194,0-65.654,16.398-65.185,66.531
				l-0.06-1.406c0,33.737,36.429,46.855,65.245,46.855c28.815,0,65.245-13.118,65.245-46.855L244.596,217.373z"/>
		</defs>
		<use xlink:href="#XMLID_2_"  overflow="visible" fill="#C44566"/>
		<clipPath id="XMLID_4_">
			<use xlink:href="#XMLID_2_"  overflow="visible"/>
		</clipPath>
		<path clip-path="url(#XMLID_4_)" fill="#FFE7C2" d="M177.569,266.698c-7.016-4.209-16.435-23.632-15.411-53.634
			c1.715-50.178,16.527-63.344,17.157-63.879l0.837,0.98c-0.15,0.129-15.014,13.455-16.705,62.943
			c-1.007,29.479,8.04,48.436,14.785,52.482L177.569,266.698z"/>
		<path clip-path="url(#XMLID_4_)" fill="#FFE7C2" d="M168.958,265.461c-0.231-0.078-23.358-8.393-23.358-49.785
			c0-42.656,25.4-67.075,32.4-67.075v1.29c-6,0-31.11,24.709-31.11,65.785c0,40.48,22.178,48.488,22.401,48.564L168.958,265.461z"/>
		<path clip-path="url(#XMLID_4_)" fill="#FFE7C2" d="M168.85,267.57c-0.685-0.385-1.628-0.848-2.722-1.384
			c-10.25-5.025-34.505-16.794-34.505-52.271c0-41.006,27.377-63.684,45.377-63.684v1.291c-18,0-44.087,22.218-44.087,62.393
			c0,34.672,23.624,46.193,33.658,51.112c1.11,0.544,2.132,1.015,2.849,1.418L168.85,267.57z"/>
		<path clip-path="url(#XMLID_4_)" fill="#FFE7C2" d="M167,265.928c-27,0-46.071-23.674-46.071-56.293
			c0-13.934,6.396-29.439,18.083-42.54C149.501,155.336,162,147.736,171,147.736v1.291c-17,0-48.996,30.549-48.996,60.607
			c0,31.871,18.996,55.004,44.996,55.004V265.928z"/>
		<path clip-path="url(#XMLID_4_)" fill="#FFE7C2" d="M181.252,266.698l-0.663-1.106c6.745-4.047,15.791-23.004,14.784-52.482
			c-1.696-49.613-16.554-62.814-16.704-62.941l0.836-0.982c0.63,0.535,15.441,13.701,17.157,63.879
			C197.687,243.066,188.268,262.489,181.252,266.698z"/>
		<path clip-path="url(#XMLID_4_)" fill="#FFE7C2" d="M189.863,265.461l-0.417-1.22c0.223-0.077,22.075-8.158,22.075-48.565
			c0-41.076-24.521-65.785-31.521-65.785v-1.29c7,0,32.812,24.419,32.812,67.075C212.812,257.068,190.095,265.383,189.863,265.461z"
			/>
		<path clip-path="url(#XMLID_4_)" fill="#FFE7C2" d="M189.971,267.57l-0.632-1.124c0.716-0.403,1.675-0.873,2.786-1.417
			c10.035-4.92,33.373-16.441,33.373-51.113c0-40.175-26.498-62.393-44.498-62.393v-1.291c19,0,45.788,22.678,45.788,63.684
			c0,35.477-23.925,47.245-34.176,52.271C191.519,266.723,190.656,267.186,189.971,267.57z"/>
		<path clip-path="url(#XMLID_4_)" fill="#FFE7C2" d="M192,265.928v-1.289c26,0,44.495-23.133,44.495-55.004
			c0-30.059-31.495-60.607-49.495-60.607v-1.291c10,0,22.001,7.6,32.49,19.358c11.686,13.101,18.393,28.606,18.393,42.54
			C237.883,242.254,219,265.928,192,265.928z"/>
	</g>
	<circle fill="#FFAC58" cx="179.25" cy="133.161" r="12.25"/>
	<circle fill="#FFAC58" cx="179.125" cy="105.497" r="6.875"/>
	<circle fill="#FFAC58" cx="179.125" cy="86.051" r="6.875"/>
	<circle fill="#FFAC58" cx="179.125" cy="66.875" r="6.875"/>
	<circle fill="#FFAC58" cx="179.125" cy="46.497" r="6.875"/>
	<circle fill="#FFAC58" cx="179.125" cy="27.051" r="6.875"/>
	<circle fill="#FFAC58" cx="179.125" cy="7.875" r="6.875"/>
	<circle fill="#FFAC58" cx="179.081" cy="282.17" r="11.331"/>
	<circle fill="#FFAC58" cx="178.808" cy="303.113" r="6.202"/>
	<circle fill="#FFAC58" cx="178.808" cy="317.949" r="6.202"/>
	<circle fill="#FFAC58" cx="178.808" cy="332.541" r="6.202"/>
	<path fill="#FFAC58" d="M179.5,353.762c-6.687,0-12.107,5.42-12.107,12.107h24.214C191.607,359.182,186.187,353.762,179.5,353.762z
		"/>
	<polygon fill="#C44566" points="167.61,365.869 191.195,365.869 190.873,420.575 185.119,421.044 184.203,406.143 183.427,421.316 
		171.825,421.456 170.807,412.14 170.046,421.492 166.318,421.293 	"/>
</g>
<g>
	<rect x="1236" y="254" fill="#C44566" width="6" height="103"/>
	<rect x="1236" y="12" fill="#C44566" width="6" height="144"/>
	<g>
		<defs>
			<path id="XMLID_3_" d="M1304.596,217.373c0.469-50.133-41.992-66.531-65.185-66.531c-23.194,0-65.654,16.398-65.185,66.531
				l-0.061-1.406c0,33.737,36.43,46.855,65.245,46.855s65.245-13.118,65.245-46.855L1304.596,217.373z"/>
		</defs>
		<use xlink:href="#XMLID_3_"  overflow="visible" fill="#C44566"/>
		<clipPath id="XMLID_5_">
			<use xlink:href="#XMLID_3_"  overflow="visible"/>
		</clipPath>
		<path clip-path="url(#XMLID_5_)" fill="#FFE7C2" d="M1237.569,266.698c-7.017-4.209-16.435-23.632-15.411-53.634
			c1.716-50.178,16.527-63.344,17.158-63.879l0.836,0.98c-0.149,0.129-15.014,13.455-16.705,62.943
			c-1.006,29.479,8.04,48.436,14.785,52.482L1237.569,266.698z"/>
		<path clip-path="url(#XMLID_5_)" fill="#FFE7C2" d="M1228.957,265.461c-0.23-0.078-23.357-8.393-23.357-49.785
			c0-42.656,25.4-67.075,32.4-67.075v1.29c-6,0-31.11,24.709-31.11,65.785c0,40.48,22.178,48.488,22.401,48.564L1228.957,265.461z"
			/>
		<path clip-path="url(#XMLID_5_)" fill="#FFE7C2" d="M1228.85,267.57c-0.685-0.385-1.629-0.848-2.722-1.384
			c-10.251-5.025-34.505-16.794-34.505-52.271c0-41.006,27.377-63.684,45.377-63.684v1.291c-18,0-44.087,22.218-44.087,62.393
			c0,34.672,23.624,46.193,33.658,51.112c1.11,0.544,2.132,1.015,2.849,1.418L1228.85,267.57z"/>
		<path clip-path="url(#XMLID_5_)" fill="#FFE7C2" d="M1227,265.928c-27,0-46.07-23.674-46.07-56.293
			c0-13.934,6.396-29.439,18.082-42.54c10.489-11.759,22.988-19.358,31.988-19.358v1.291c-17,0-48.996,30.549-48.996,60.607
			c0,31.871,18.996,55.004,44.996,55.004V265.928z"/>
		<path clip-path="url(#XMLID_5_)" fill="#FFE7C2" d="M1241.252,266.698l-0.662-1.106c6.744-4.047,15.791-23.004,14.783-52.482
			c-1.695-49.613-16.553-62.814-16.703-62.941l0.836-0.982c0.63,0.535,15.441,13.701,17.156,63.879
			C1257.688,243.066,1248.268,262.489,1241.252,266.698z"/>
		<path clip-path="url(#XMLID_5_)" fill="#FFE7C2" d="M1249.863,265.461l-0.417-1.22c0.224-0.077,22.075-8.158,22.075-48.565
			c0-41.076-24.521-65.785-31.521-65.785v-1.29c7,0,32.812,24.419,32.812,67.075
			C1272.812,257.068,1250.096,265.383,1249.863,265.461z"/>
		<path clip-path="url(#XMLID_5_)" fill="#FFE7C2" d="M1249.971,267.57l-0.631-1.124c0.716-0.403,1.675-0.873,2.785-1.417
			c10.035-4.92,33.373-16.441,33.373-51.113c0-40.175-26.498-62.393-44.498-62.393v-1.291c19,0,45.787,22.678,45.787,63.684
			c0,35.477-23.924,47.245-34.176,52.271C1251.52,266.723,1250.656,267.186,1249.971,267.57z"/>
		<path clip-path="url(#XMLID_5_)" fill="#FFE7C2" d="M1252,265.928v-1.289c26,0,44.495-23.133,44.495-55.004
			c0-30.059-31.495-60.607-49.495-60.607v-1.291c10,0,22.001,7.6,32.49,19.358c11.686,13.101,18.393,28.606,18.393,42.54
			C1297.883,242.254,1279,265.928,1252,265.928z"/>
	</g>
	<circle fill="#FFAC58" cx="1239.25" cy="133.161" r="12.25"/>
	<circle fill="#FFAC58" cx="1239.125" cy="105.497" r="6.875"/>
	<circle fill="#FFAC58" cx="1239.125" cy="86.051" r="6.875"/>
	<circle fill="#FFAC58" cx="1239.125" cy="66.875" r="6.875"/>
	<circle fill="#FFAC58" cx="1239.125" cy="46.497" r="6.875"/>
	<circle fill="#FFAC58" cx="1239.125" cy="27.051" r="6.875"/>
	<circle fill="#FFAC58" cx="1239.125" cy="7.875" r="6.875"/>
	<circle fill="#FFAC58" cx="1239.081" cy="282.17" r="11.331"/>
	<circle fill="#FFAC58" cx="1238.808" cy="303.113" r="6.202"/>
	<circle fill="#FFAC58" cx="1238.808" cy="317.949" r="6.202"/>
	<circle fill="#FFAC58" cx="1238.808" cy="332.541" r="6.202"/>
	<path fill="#FFAC58" d="M1239.5,353.762c-6.687,0-12.107,5.42-12.107,12.107h24.215
		C1251.607,359.182,1246.187,353.762,1239.5,353.762z"/>
	<polygon fill="#C44566" points="1227.61,365.869 1251.195,365.869 1250.873,420.575 1245.119,421.044 1244.203,406.143 
		1243.428,421.316 1231.824,421.456 1230.807,412.14 1230.047,421.492 1226.318,421.293 	"/>
</g>
</svg>
