<?xml version="1.0" encoding="utf-8"?>
<!-- Generator: Adobe Illustrator 16.0.0, SVG Export Plug-In . SVG Version: 6.00 Build 0)  -->
<!DOCTYPE svg PUBLIC "-//W3C//DTD SVG 1.1//EN" "http://www.w3.org/Graphics/SVG/1.1/DTD/svg11.dtd">
<svg version="1.1" xmlns="http://www.w3.org/2000/svg" xmlns:xlink="http://www.w3.org/1999/xlink" x="0px" y="0px"
	 width="182.225px" height="212.06px" viewBox="0 0 182.225 212.06" enable-background="new 0 0 182.225 212.06"
	 xml:space="preserve">
<g id="Layer_2">
</g>
<g id="Layer_1">
	<ellipse opacity="0.4" fill="#232323" cx="86.417" cy="206.217" rx="28.862" ry="5.843"/>
	<g>
		<path fill="#E2E2E1" d="M121.203,156.971c0,30.974-19.97,29.179-33.832,29.179c-11.021,0-33.832,1.795-33.832-29.179
			c0-30.972,15.147-59.777,33.832-59.777C106.058,97.193,121.203,125.999,121.203,156.971z"/>
		<path fill="#232323" d="M97.052,116.811c0,0,1.094,16.011,1.809,22.306c0.631,5.574,4.662,18.83,10.683,21.971
			c6.019,3.136,13.587,0.592,13.587,0.592s1.551-25.588-5.477-42.177c-7.023-16.589-7.303-10.536-7.303-10.536L97.052,116.811z"/>
		<path fill="#232323" d="M77.6,116.811c0,0-0.719,16.468-1.809,21.971c-1.163,5.853-2.646,17.486-8.666,20.621
			c-6.018,3.142-15.269,0.931-15.269,0.931s-1.887-24.242,5.14-40.831c7.025-16.589,7.303-10.538,7.303-10.536L77.6,116.811z"/>
		<path fill="#4F8E42" d="M128.772,81.612c0,23.457-19.017,36.518-42.479,36.518c-23.459,0-42.477-13.061-42.477-36.518
			c0-23.461,19.018-52.474,42.477-52.474C109.756,29.139,128.772,58.151,128.772,81.612z"/>
		<path fill="#BFB499" d="M113.985,13.021c2.47-7.505,12.427-3.906,10.726,2.498c-0.398,1.498-0.901,2.086-1.482,3.609
			c3.335-0.775,7.525,1.554,6.546,5.211c-1.272,4.761-6.957,3.703-9.715,2.524c-3.289,5.878-7.114,9.682-9.942,8.723
			C107.232,34.61,111.768,19.768,113.985,13.021z"/>
		<path fill="#BFB499" d="M61.933,8.688C58.354,2.552,50.18,6.124,51.88,12.528c0.397,1.498,0.902,2.088,1.482,3.609
			c-3.333-0.774-7.526,1.555-6.548,5.21c1.274,4.763,6.96,3.706,9.719,2.526c3.289,5.878,7.111,9.681,9.94,8.723
			C69.359,31.62,65.512,14.821,61.933,8.688z"/>
		<path fill="#2A2B2A" d="M89.691,94.681c0,0,0.021-0.062,0.065-0.18c0.045-0.115,0.107-0.296,0.209-0.514
			c0.096-0.223,0.222-0.494,0.382-0.805c0.158-0.311,0.351-0.663,0.586-1.041c0.46-0.771,1.08-1.667,1.889-2.631
			c0.809-0.962,1.817-1.98,3.063-2.973c1.25-0.988,2.742-1.951,4.533-2.727c1.78-0.772,3.879-1.355,6.204-1.485
			c2.317-0.138,4.857,0.221,7.209,1.143c2.359,0.906,4.483,2.323,6.226,3.943l0.652,0.615c0.218,0.206,0.397,0.425,0.596,0.64
			c0.388,0.43,0.782,0.861,1.13,1.309c0.342,0.448,0.677,0.896,0.999,1.353l0.243,0.34c-0.145-0.194-0.033-0.044-0.062-0.083
			l0.01,0.018l0.027,0.035l0.047,0.072l0.098,0.139c0.131,0.19,0.259,0.376,0.384,0.567l0.378,0.567l0.094,0.145l0.077,0.105
			l0.15,0.215c0.201,0.288,0.386,0.581,0.593,0.873c0.22,0.288,0.429,0.588,0.642,0.882c0.214,0.28,0.428,0.556,0.639,0.827
			c0.844,1.072,1.664,1.969,2.426,2.654c0.095,0.084,0.186,0.152,0.281,0.234c0.093,0.071,0.191,0.174,0.279,0.229
			c0.182,0.132,0.37,0.285,0.549,0.39c0.371,0.256,0.735,0.422,1.135,0.578c0.397,0.146,0.822,0.219,1.277,0.264
			c0.449,0.013,0.924,0.008,1.387-0.076c0.938-0.139,1.819-0.471,2.56-0.782c0.734-0.322,1.333-0.642,1.74-0.872
			c0.204-0.12,0.364-0.21,0.47-0.271c0.104-0.066,0.16-0.102,0.16-0.102s-0.005,0.064-0.012,0.191
			c-0.012,0.125-0.027,0.315-0.068,0.557c-0.043,0.24-0.103,0.54-0.199,0.885c-0.094,0.346-0.223,0.74-0.405,1.172
			c-0.361,0.863-0.91,1.906-1.888,2.961c-0.123,0.131-0.248,0.268-0.38,0.4c-0.143,0.127-0.287,0.254-0.437,0.383
			c-0.289,0.27-0.644,0.493-0.996,0.744c-0.736,0.457-1.602,0.883-2.588,1.146c-1.967,0.564-4.327,0.456-6.449-0.195
			c-2.12-0.654-4.039-1.753-5.735-3.029c-0.407-0.328-0.846-0.65-1.24-0.999c-0.385-0.348-0.777-0.698-1.162-1.063
			c-0.384-0.376-0.762-0.782-1.144-1.181l-0.283-0.309l-0.14-0.152l-0.11-0.129l-0.447-0.516c-0.15-0.17-0.295-0.346-0.444-0.521
			l-0.108-0.132l-0.055-0.064l-0.025-0.032l-0.014-0.018c-0.039-0.051,0.063,0.088-0.09-0.117l-0.181-0.2
			c-0.24-0.266-0.471-0.54-0.697-0.815c-0.233-0.268-0.488-0.49-0.714-0.75c-0.119-0.121-0.229-0.265-0.353-0.367
			c-0.125-0.11-0.248-0.217-0.364-0.33c-0.956-0.895-1.911-1.613-2.888-2.156c-0.981-0.541-2.005-0.937-3.146-1.193
			c-1.139-0.254-2.392-0.355-3.676-0.328c-1.284,0.025-2.595,0.174-3.847,0.375c-1.253,0.202-2.446,0.463-3.532,0.715
			c-1.085,0.256-2.054,0.521-2.869,0.738C90.651,94.413,89.691,94.681,89.691,94.681z"/>
		<path fill="#EE9622" d="M145.06,183.808c0,0,0.493-7.048,4.803-11.539c4.31-4.488,8.939-6.098,8.939-6.098l-2.608,6.098
			c0,0,9.841-2.973,13.543-6.781c3.543-3.643,7.173-9.18,7.173-9.18s1.068,10.854-1.481,19.642
			c-2.251,7.762-11.004,13.325-11.004,13.325h9.257c0,0-9.007,7.117-19.503,4.303C145.729,191.309,145.017,184.501,145.06,183.808z"
			/>
		<path fill="#2A2B2A" d="M108.154,67.238c0,4.453-4.134,4.453-4.134,0C104.021,62.784,108.154,62.784,108.154,67.238z"/>
		<path fill="#2A2B2A" d="M103.936,55.173c5.865-1.945,11.967-1.703,11.439,2.707c-0.527,4.414-5.002,5.321-9.551,4.813
			c-4.55-0.51-8.086-1.102-7.436-3.729C99.042,56.334,103.936,55.173,103.936,55.173z"/>
		<path fill="#2A2B2A" d="M69.063,66.479c0,4.454-4.133,4.454-4.133,0C64.931,62.025,69.063,62.025,69.063,66.479z"/>
		<path fill="#4F8E42" d="M116.455,168.381c0,0,10.971,22.692,28.716,17.446c11.82-3.494,16.813-8.52,16.813-8.52
			s-8.406,19.758-25.219,23.119c-19.455,3.893-36.183-10.76-36.183-10.76L116.455,168.381z"/>
		<path fill="#4F1E0B" d="M78.162,97.354c0,0,0.274,0.064,0.752,0.178c0.45,0.115,1.096,0.275,1.871,0.47
			c0.376,0.097,0.777,0.198,1.198,0.292c0.417,0.1,0.854,0.193,1.3,0.277c0.443,0.087,0.899,0.156,1.352,0.213
			c0.225,0.021,0.452,0.043,0.679,0.064l0.337,0.016c0.056,0.002,0.11,0,0.167,0.003l0.085,0.004l0.041,0.002h0.021h0.006
			c-0.016,0,0.039,0-0.031,0.001l0.012-0.001c0.259-0.004,0.544-0.002,0.775-0.013c0.228-0.014,0.437-0.004,0.675-0.032
			c0.467-0.024,0.927-0.075,1.374-0.132c0.226-0.023,0.442-0.071,0.662-0.097c0.218-0.04,0.427-0.077,0.635-0.114
			c0.412-0.09,0.809-0.172,1.171-0.27c0.368-0.093,0.699-0.195,1.003-0.289c0.302-0.098,0.563-0.193,0.781-0.275
			c0.215-0.088,0.399-0.152,0.511-0.213c0.121-0.053,0.186-0.084,0.186-0.084s-0.022,0.066-0.078,0.188
			c-0.057,0.123-0.145,0.302-0.283,0.514c-0.137,0.209-0.321,0.455-0.558,0.713c-0.237,0.258-0.523,0.535-0.866,0.798
			c-0.337,0.272-0.73,0.528-1.165,0.772c-0.436,0.236-0.912,0.462-1.428,0.637c-0.257,0.09-0.521,0.179-0.796,0.242
			c-0.271,0.072-0.547,0.133-0.831,0.18c-0.274,0.056-0.589,0.08-0.889,0.121c-0.291,0.021-0.535,0.025-0.805,0.037H85.76
			c-0.076,0-0.152-0.004-0.227-0.008l-0.453-0.037c-0.298-0.029-0.594-0.072-0.879-0.137c-0.573-0.116-1.115-0.289-1.618-0.492
			c-0.503-0.201-0.966-0.438-1.387-0.684c-0.419-0.25-0.795-0.516-1.127-0.776c-0.331-0.263-0.619-0.521-0.858-0.764
			c-0.244-0.243-0.441-0.468-0.598-0.661C78.305,97.608,78.162,97.354,78.162,97.354z"/>
		<path fill="#4F8E42" d="M59.457,37c0,0-2.818-1.731-6.2-4.396c-3.382-2.664-12.459-6.052-8.426,2.2
			C48.867,43.053,52.396,41.034,59.457,37z"/>
		<path fill="#4F8E42" d="M116.455,40.008c0,0,2.818-1.733,6.2-4.397c3.382-2.666,12.461-6.054,8.427,2.197
			C127.048,46.058,123.516,44.04,116.455,40.008z"/>
		<path fill="#006838" d="M82.264,80.716c0,0,0.031,0.004,0.09,0.012c0.053,0.01,0.146,0.015,0.236,0.039
			c0.093,0.02,0.213,0.043,0.32,0.084c0.115,0.035,0.246,0.078,0.365,0.133c0.248,0.108,0.486,0.263,0.703,0.447
			c0.21,0.187,0.384,0.414,0.513,0.661c0.129,0.251,0.216,0.523,0.248,0.803c0.028,0.279,0.015,0.565-0.038,0.829
			c-0.027,0.131-0.066,0.263-0.104,0.379c-0.031,0.112-0.082,0.223-0.119,0.309c-0.033,0.086-0.082,0.167-0.106,0.217
			c-0.027,0.051-0.041,0.078-0.041,0.078s-0.031-0.004-0.089-0.012c-0.054-0.008-0.149-0.014-0.236-0.036
			c-0.095-0.021-0.215-0.044-0.322-0.083c-0.118-0.037-0.247-0.078-0.369-0.133c-0.246-0.111-0.486-0.262-0.698-0.449
			c-0.211-0.187-0.384-0.414-0.515-0.663c-0.125-0.251-0.21-0.522-0.243-0.803c-0.028-0.282-0.013-0.566,0.039-0.832
			c0.024-0.13,0.066-0.26,0.103-0.376c0.031-0.11,0.081-0.221,0.116-0.309c0.032-0.085,0.084-0.167,0.106-0.217
			C82.25,80.744,82.264,80.716,82.264,80.716z"/>
		<path fill="#006838" d="M90.69,80.692c0,0,0.015,0.029,0.042,0.08c0.023,0.047,0.074,0.129,0.105,0.216
			c0.037,0.087,0.086,0.198,0.117,0.308c0.037,0.117,0.076,0.246,0.1,0.377c0.056,0.266,0.069,0.552,0.041,0.832
			c-0.032,0.279-0.117,0.552-0.243,0.801c-0.129,0.25-0.303,0.477-0.513,0.664c-0.211,0.188-0.454,0.34-0.7,0.449
			c-0.12,0.055-0.253,0.096-0.368,0.133c-0.108,0.043-0.228,0.063-0.321,0.082c-0.087,0.024-0.184,0.029-0.237,0.038
			c-0.059,0.007-0.088,0.011-0.088,0.011s-0.016-0.027-0.043-0.078c-0.023-0.05-0.074-0.128-0.107-0.217
			c-0.036-0.088-0.086-0.197-0.116-0.309c-0.038-0.117-0.08-0.247-0.104-0.378c-0.053-0.263-0.066-0.548-0.038-0.831
			c0.032-0.279,0.117-0.551,0.247-0.8c0.131-0.249,0.304-0.474,0.515-0.661c0.214-0.188,0.453-0.34,0.7-0.449
			c0.121-0.057,0.252-0.098,0.367-0.133c0.107-0.041,0.227-0.063,0.319-0.083c0.088-0.025,0.183-0.03,0.238-0.038
			S90.69,80.692,90.69,80.692z"/>
		<path fill="#232323" d="M120.77,164.998c-20.988-0.355-45.808,0.351-66.799-0.006c2.504,10.152,7.357,31.409,18.011,39.808
			c8.423,6.641-0.181-9.514,8.423-13.563c2.958-1.392,12.757-0.835,15.486,2.912c3.449,4.742-3.064,17.513,5.869,10.604
			C103.591,203.337,118.598,185.558,120.77,164.998z"/>
		<path fill="#E2E2E1" d="M53.971,164.992c0,0,12.365,3.155,31.831,3.38c19.468,0.221,34.968-3.374,34.968-3.374l-32.145-10.974
			L53.971,164.992z"/>
		<path fill="#4F8E42" d="M28.195,160.796c0,0,4.075-1.363,7.156-0.989c3.077,0.378,7.759,3.894,7.759,3.894
			s-2.863,9.813-9.266,8.529C27.445,170.946,26.737,165.964,28.195,160.796z"/>
		<path fill="#232323" d="M60.49,111.483c0,0-13.251,7.852-20.223,18.258c-7.256,10.83-13.363,25.295-13.363,25.295l19.211,4.678
			c0,0,1.931-11.064,6.614-23.36c3.493-9.17,8.675-13.681,8.675-13.681L60.49,111.483z"/>
		<path fill="#E2E2E1" d="M28.116,155.079c0,0,3.22,0.387,7.297,1.297c6.762,1.515,9.054,2.287,9.054,2.287l-1.288,6.301
			l-18.212-3.773L28.116,155.079z"/>
		<path fill="#4F8E42" d="M146.294,159.628c0,0-4.056-1.271-7.094-0.834s-7.595,4.004-7.595,4.004s3.03,9.645,9.334,8.248
			C147.244,169.647,147.842,164.705,146.294,159.628z"/>
		<path fill="#232323" d="M113.131,110.812c0,0,13.408,7.578,20.592,17.842c7.477,10.679,13.877,25.014,13.877,25.014l-19.112,5.07
			c0,0-2.154-11.022-7.09-23.22c-3.679-9.097-8.949-13.499-8.949-13.499L113.131,110.812z"/>
		<path fill="#E2E2E1" d="M146.476,153.837c0,0-4.462,0.076-8.576,1.499c-7.321,2.53-8.104,3.489-8.104,3.489l1.208,6.941
			l18.578-5.313L146.476,153.837z"/>
		<polygon fill="#5C5C5C" points="71.531,117.456 65.453,126.003 70.261,130.935 66.661,133.933 70.261,145.058 68.49,133.933 
			73.101,131.258 67.012,126.003 		"/>
		<polygon fill="#5C5C5C" points="102.153,117.456 108.23,126.003 103.424,130.935 107.022,133.933 103.424,145.058 
			105.191,133.933 100.582,131.258 106.672,126.003 		"/>
		<path fill="#DB3F3B" d="M87.147,121.968c3.543-0.057,4.497,1.01,4.192,1.906c-0.307,0.896-1.908,3.249-1.908,3.249l5.293,26.116
			l-7.663,6.043l-8.134-6.38l6.05-25.779c0,0-1.681-2.382-2.014-3.699C82.61,122.034,84.818,122.005,87.147,121.968z"/>
		<path fill="#2A2B2A" d="M70.056,54.187c-5.863-1.942-11.964-1.702-11.438,2.709c0.528,4.414,5.002,5.322,9.55,4.813
			c4.55-0.51,8.086-1.101,7.437-3.73C74.949,55.349,70.056,54.187,70.056,54.187z"/>
		<path fill="#006838" d="M28.131,172.835c0,0-0.027-0.059-0.063-0.16c-0.028-0.098-0.09-0.252-0.134-0.427
			c-0.096-0.358-0.189-0.845-0.214-1.376c-0.011-0.266-0.007-0.544,0.017-0.828c0.025-0.283,0.066-0.573,0.135-0.859
			c0.026-0.146,0.075-0.285,0.116-0.428c0.041-0.146,0.088-0.287,0.145-0.426c0.111-0.277,0.24-0.547,0.389-0.809
			c0.147-0.262,0.318-0.513,0.507-0.746c0.087-0.121,0.187-0.23,0.287-0.342c0.098-0.11,0.198-0.219,0.308-0.318
			c0.425-0.406,0.904-0.741,1.374-0.992c0.471-0.252,0.934-0.419,1.288-0.522c0.173-0.052,0.337-0.077,0.435-0.103
			c0.104-0.021,0.167-0.029,0.167-0.029l0.234,0.131c0,0-0.066,0.137-0.186,0.372c-0.119,0.233-0.279,0.576-0.492,0.974
			c-0.213,0.398-0.452,0.869-0.726,1.359c-0.276,0.494-0.566,1.02-0.859,1.545c-0.302,0.52-0.604,1.039-0.887,1.528
			c-0.284,0.487-0.566,0.933-0.798,1.317c-0.233,0.389-0.444,0.698-0.584,0.922c-0.146,0.221-0.227,0.35-0.227,0.35L28.131,172.835z
			"/>
		<path fill="#006838" d="M37.994,174.612c0,0-0.059-0.025-0.152-0.076c-0.09-0.053-0.238-0.124-0.391-0.222
			c-0.313-0.196-0.712-0.489-1.092-0.862c-0.188-0.188-0.375-0.395-0.553-0.619c-0.172-0.225-0.34-0.466-0.485-0.721
			c-0.079-0.126-0.139-0.26-0.205-0.395c-0.068-0.131-0.129-0.269-0.182-0.408c-0.108-0.279-0.197-0.564-0.267-0.857
			c-0.07-0.295-0.113-0.592-0.138-0.891c-0.019-0.147-0.022-0.297-0.021-0.447c-0.003-0.148-0.006-0.295,0.011-0.444
			c0.034-0.585,0.157-1.155,0.331-1.66c0.172-0.505,0.396-0.944,0.59-1.257c0.092-0.16,0.191-0.287,0.247-0.374
			c0.061-0.085,0.102-0.134,0.104-0.134l0.261-0.063c0,0,0.043,0.145,0.117,0.398c0.072,0.252,0.187,0.612,0.301,1.048
			c0.114,0.438,0.259,0.943,0.391,1.491c0.135,0.547,0.281,1.131,0.424,1.717c0.13,0.586,0.266,1.174,0.387,1.723
			c0.126,0.549,0.221,1.068,0.314,1.51c0.09,0.44,0.147,0.813,0.196,1.072c0.047,0.26,0.072,0.406,0.072,0.406L37.994,174.612z"/>
		<path fill="#006838" d="M139.551,163.751c0,0,0.037,0.051,0.094,0.141c0.051,0.09,0.146,0.227,0.227,0.389
			c0.175,0.327,0.373,0.778,0.517,1.291c0.07,0.258,0.128,0.529,0.171,0.813c0.036,0.281,0.061,0.574,0.06,0.867
			c0.006,0.148-0.01,0.293-0.02,0.441c-0.006,0.15-0.022,0.299-0.044,0.445c-0.043,0.299-0.11,0.59-0.197,0.879
			c-0.086,0.287-0.197,0.567-0.325,0.84c-0.058,0.137-0.129,0.27-0.205,0.398c-0.072,0.131-0.142,0.256-0.229,0.377
			c-0.322,0.493-0.712,0.926-1.116,1.274c-0.401,0.352-0.813,0.622-1.139,0.797c-0.157,0.09-0.31,0.153-0.402,0.2
			c-0.096,0.045-0.152,0.064-0.152,0.064l-0.262-0.076c0,0,0.037-0.147,0.1-0.402c0.064-0.258,0.145-0.625,0.261-1.06
			c0.119-0.435,0.247-0.948,0.406-1.488c0.155-0.542,0.323-1.12,0.488-1.698c0.178-0.574,0.357-1.148,0.526-1.688
			c0.166-0.537,0.341-1.034,0.479-1.463c0.141-0.43,0.278-0.78,0.364-1.027c0.09-0.25,0.141-0.393,0.141-0.393L139.551,163.751z"/>
		<path fill="#006838" d="M143.276,162.689c0,0,0.055,0.031,0.144,0.089c0.082,0.061,0.223,0.148,0.363,0.263
			c0.294,0.228,0.66,0.558,1.001,0.968c0.169,0.206,0.335,0.43,0.487,0.672c0.147,0.242,0.29,0.498,0.409,0.767
			c0.067,0.134,0.112,0.272,0.165,0.413c0.054,0.137,0.102,0.279,0.139,0.425c0.082,0.288,0.141,0.581,0.18,0.88
			s0.053,0.6,0.044,0.898c0.006,0.149-0.005,0.302-0.021,0.447c-0.016,0.149-0.025,0.293-0.057,0.441
			c-0.094,0.58-0.273,1.133-0.497,1.619c-0.224,0.481-0.491,0.897-0.715,1.193c-0.106,0.145-0.219,0.264-0.285,0.344
			c-0.069,0.08-0.113,0.123-0.113,0.123l-0.27,0.034c0,0-0.026-0.146-0.073-0.406c-0.045-0.259-0.122-0.628-0.193-1.074
			c-0.07-0.445-0.165-0.964-0.24-1.524c-0.078-0.558-0.162-1.15-0.247-1.746c-0.071-0.6-0.144-1.195-0.21-1.756
			c-0.067-0.559-0.112-1.084-0.159-1.533c-0.048-0.449-0.064-0.826-0.09-1.087c-0.019-0.265-0.029-0.415-0.029-0.415
			L143.276,162.689z"/>
		<path fill="#006838" d="M80.147,35.008c0,0,0.041-0.053,0.134-0.141c0.095-0.081,0.232-0.213,0.438-0.335
			c0.2-0.132,0.462-0.271,0.782-0.389c0.161-0.055,0.334-0.107,0.521-0.158c0.188-0.034,0.391-0.08,0.601-0.097
			c0.208-0.017,0.437-0.04,0.663-0.027c0.231,0.003,0.471,0.019,0.711,0.062c0.12,0.019,0.245,0.037,0.369,0.057
			c0.119,0.031,0.243,0.063,0.366,0.096c0.126,0.03,0.252,0.063,0.375,0.102c0.123,0.046,0.244,0.094,0.368,0.14
			c0.123,0.048,0.247,0.097,0.373,0.144c0.118,0.06,0.238,0.123,0.359,0.183c0.24,0.121,0.487,0.241,0.711,0.399l0.346,0.223
			l0.173,0.113l0.043,0.027l0.01,0.009l0.006,0.003l0.049,0.04l0.02,0.015l0.072,0.063l0.594,0.498
			c0.208,0.215,0.416,0.459,0.616,0.688c0.197,0.235,0.327,0.491,0.488,0.735c0.285,0.502,0.491,1.039,0.618,1.565
			c0.128,0.53,0.177,1.049,0.175,1.53c-0.006,0.486-0.056,0.936-0.139,1.341c-0.083,0.404-0.188,0.765-0.305,1.071
			c-0.111,0.313-0.235,0.572-0.344,0.779c-0.101,0.211-0.209,0.365-0.272,0.472c-0.07,0.105-0.111,0.156-0.111,0.156
			s0.031-0.267,0.062-0.72c0.017-0.223,0.023-0.5,0.027-0.807c0.007-0.311-0.004-0.655-0.028-1.023
			c-0.026-0.367-0.074-0.76-0.151-1.16c-0.076-0.402-0.191-0.811-0.343-1.209c-0.093-0.19-0.146-0.402-0.26-0.589l-0.157-0.284
			c-0.051-0.096-0.098-0.197-0.169-0.283c-0.13-0.172-0.251-0.367-0.386-0.525l-0.414-0.465l-0.586-0.508l-0.07-0.063l-0.02-0.018
			c-0.039-0.031,0.052,0.041,0.039,0.034l-0.004-0.005l-0.008-0.008l-0.036-0.025l-0.145-0.102L86.021,36.4
			c-0.188-0.146-0.387-0.265-0.579-0.389c-0.097-0.062-0.192-0.123-0.289-0.183c-0.099-0.053-0.196-0.107-0.294-0.158
			c-0.096-0.054-0.193-0.106-0.287-0.16c-0.1-0.043-0.194-0.086-0.293-0.129c-0.097-0.045-0.192-0.088-0.287-0.131
			c-0.096-0.035-0.193-0.069-0.286-0.104c-0.188-0.077-0.377-0.123-0.562-0.174c-0.183-0.059-0.363-0.078-0.54-0.117
			c-0.351-0.059-0.683-0.084-0.981-0.084c-0.297,0.016-0.565,0.027-0.783,0.066C80.401,34.911,80.147,35.008,80.147,35.008z"/>
		<path fill="#006838" d="M92.006,33.009c0,0,0.184,0.068,0.474,0.257c0.144,0.097,0.313,0.222,0.49,0.384
			c0.182,0.163,0.374,0.356,0.562,0.59c0.096,0.115,0.183,0.244,0.279,0.374c0.089,0.136,0.179,0.278,0.266,0.427
			c0.078,0.155,0.156,0.313,0.239,0.477c0.067,0.166,0.139,0.338,0.21,0.512c0.053,0.178,0.11,0.363,0.169,0.547
			c0.044,0.189,0.088,0.38,0.131,0.574c0.04,0.191,0.059,0.39,0.086,0.588l0.021,0.146l0.01,0.158
			c0.006,0.099,0.018,0.186,0.014,0.296c0.01,0.433-0.046,0.836-0.158,1.237c-0.109,0.395-0.276,0.77-0.486,1.096
			c-0.413,0.659-0.965,1.137-1.465,1.463c-0.505,0.328-0.965,0.516-1.294,0.623c-0.325,0.107-0.521,0.137-0.521,0.137
			s0.174-0.09,0.462-0.268c0.286-0.178,0.682-0.444,1.106-0.818c0.421-0.373,0.859-0.854,1.183-1.446
			c0.16-0.298,0.293-0.62,0.38-0.958c0.086-0.336,0.125-0.703,0.13-1.048c0.007-0.081-0.003-0.187-0.005-0.28l-0.006-0.133
			l-0.017-0.139c-0.021-0.185-0.042-0.369-0.062-0.55c-0.031-0.181-0.063-0.361-0.091-0.538c-0.043-0.174-0.087-0.346-0.13-0.515
			c-0.05-0.166-0.101-0.329-0.151-0.491c-0.062-0.157-0.12-0.31-0.179-0.459c-0.07-0.146-0.135-0.284-0.201-0.423
			c-0.074-0.13-0.139-0.263-0.213-0.382c-0.149-0.235-0.293-0.456-0.439-0.631c-0.146-0.182-0.277-0.338-0.397-0.453
			C92.165,33.122,92.006,33.009,92.006,33.009z"/>
		<path fill="#EE9622" d="M87.089,107.075c0,0,0.052,0.025,0.138,0.082c0.084,0.059,0.218,0.141,0.362,0.26
			c0.294,0.234,0.672,0.595,1.036,1.086c0.364,0.488,0.72,1.104,0.974,1.832c0.062,0.183,0.118,0.373,0.17,0.564
			c0.046,0.199,0.086,0.402,0.12,0.609c0.063,0.417,0.089,0.858,0.058,1.32c-0.01,0.225-0.055,0.473-0.095,0.701
			c-0.037,0.232-0.129,0.482-0.201,0.716l-0.031,0.089l-0.039,0.115l-0.009,0.016l-0.015,0.03l-0.061,0.12l-0.127,0.232
			c-0.088,0.155-0.174,0.308-0.267,0.452c-0.253,0.362-0.521,0.724-0.793,0.993c-0.289,0.248-0.544,0.484-0.831,0.65
			c-0.283,0.168-0.543,0.307-0.8,0.394c-0.247,0.095-0.477,0.152-0.667,0.183c-0.184,0.038-0.352,0.033-0.453,0.041
			c-0.103,0-0.163-0.01-0.163-0.01s0.085-0.216,0.19-0.56c0.057-0.167,0.12-0.36,0.183-0.582c0.072-0.212,0.131-0.458,0.203-0.702
			c0.037-0.121,0.074-0.246,0.097-0.382c0.031-0.132,0.068-0.259,0.103-0.39c0.055-0.261,0.079-0.49,0.151-0.727
			c0.032-0.17,0.072-0.341,0.112-0.513l0.065-0.259l0.036-0.129l0.01-0.031l0.004-0.018c-0.067,0.193-0.019,0.052-0.035,0.093
			v-0.001l0.003-0.008l0.003-0.039c0.004-0.115,0.033-0.209,0.04-0.335c0.001-0.127,0.031-0.239,0.032-0.377
			c0.004-0.138,0.021-0.266,0.025-0.409c-0.002-0.146,0.014-0.287,0.017-0.434c-0.001-0.15,0.009-0.301,0.015-0.449
			c0.002-0.152,0.006-0.307,0.016-0.458c0.006-0.308,0.021-0.613,0.039-0.913c0.016-0.301,0.041-0.593,0.063-0.869
			c0.052-0.553,0.127-1.048,0.192-1.405c0.03-0.179,0.071-0.327,0.089-0.425C87.075,107.128,87.089,107.075,87.089,107.075z"/>
		<path fill="#EE9622" d="M90.7,107.651c0,0,0.05,0.006,0.141,0.029c0.089,0.022,0.224,0.047,0.384,0.104
			c0.327,0.098,0.779,0.271,1.285,0.546c0.505,0.273,1.068,0.646,1.613,1.136c0.271,0.246,0.541,0.52,0.792,0.824
			c0.122,0.154,0.246,0.318,0.362,0.482c0.115,0.166,0.216,0.354,0.324,0.531c0.104,0.181,0.184,0.391,0.271,0.584
			c0.091,0.195,0.137,0.424,0.198,0.63l0.022,0.079l0.019,0.08l0.003,0.016l0.003,0.033l0.02,0.135l0.027,0.26
			c0.02,0.176,0.04,0.348,0.052,0.52c-0.002,0.4-0.01,0.801-0.06,1.147c-0.074,0.345-0.12,0.665-0.234,0.948
			c-0.104,0.285-0.204,0.535-0.331,0.747c-0.109,0.216-0.235,0.39-0.343,0.527c-0.095,0.144-0.206,0.237-0.266,0.303
			c-0.065,0.067-0.106,0.097-0.106,0.097s0.005-0.199-0.008-0.528c-0.002-0.161-0.018-0.358-0.035-0.576
			c-0.008-0.214-0.045-0.458-0.072-0.712c-0.01-0.127-0.027-0.258-0.057-0.395c-0.023-0.133-0.045-0.27-0.068-0.412
			c-0.051-0.275-0.131-0.531-0.177-0.809c-0.055-0.162-0.1-0.33-0.146-0.5l-0.073-0.253l-0.03-0.13l-0.009-0.035l-0.004-0.014
			c0.025,0.115,0.006,0.029,0.013,0.055l-0.003-0.002l-0.002-0.006l-0.018-0.047c-0.1-0.253-0.212-0.519-0.36-0.784
			c-0.141-0.27-0.313-0.535-0.481-0.808c-0.093-0.13-0.181-0.264-0.267-0.399c-0.097-0.13-0.191-0.259-0.278-0.393
			c-0.385-0.532-0.744-1.026-1.053-1.452c-0.316-0.439-0.579-0.828-0.763-1.107C90.802,107.825,90.7,107.651,90.7,107.651z"/>
		<path fill="#EE9622" d="M84.563,108.198c0,0,0.006,0.048,0.01,0.142c0,0.092,0.008,0.229-0.005,0.398
			c-0.013,0.341-0.063,0.821-0.2,1.38c-0.138,0.561-0.355,1.197-0.689,1.851c-0.171,0.323-0.366,0.653-0.597,0.972
			c-0.119,0.16-0.245,0.32-0.376,0.473c-0.132,0.154-0.289,0.301-0.434,0.451c-0.147,0.145-0.329,0.275-0.495,0.411
			c-0.165,0.136-0.374,0.235-0.56,0.35l-0.071,0.042l-0.07,0.036l-0.016,0.007l-0.031,0.015l-0.125,0.05l-0.245,0.096
			c-0.165,0.063-0.327,0.127-0.489,0.181c-0.388,0.097-0.775,0.192-1.125,0.233c-0.352,0.015-0.673,0.051-0.978,0.012
			c-0.301-0.027-0.57-0.062-0.806-0.129c-0.236-0.053-0.438-0.132-0.597-0.197c-0.16-0.057-0.281-0.141-0.36-0.183
			c-0.081-0.044-0.121-0.077-0.121-0.077s0.196-0.049,0.509-0.143c0.157-0.044,0.342-0.105,0.548-0.18
			c0.208-0.063,0.432-0.158,0.674-0.251c0.119-0.04,0.24-0.091,0.364-0.155c0.125-0.055,0.25-0.11,0.382-0.166
			c0.251-0.124,0.481-0.264,0.738-0.379c0.143-0.094,0.294-0.18,0.444-0.27l0.229-0.133l0.118-0.063l0.028-0.017l0.017-0.008
			c-0.107,0.054-0.031,0.014-0.052,0.025l0.001-0.001l0.006-0.005l0.041-0.031c0.22-0.158,0.447-0.335,0.666-0.545
			c0.228-0.205,0.44-0.438,0.658-0.67c0.103-0.124,0.211-0.242,0.318-0.361c0.104-0.124,0.204-0.248,0.312-0.365
			c0.417-0.508,0.807-0.982,1.138-1.389c0.345-0.416,0.652-0.77,0.879-1.016C84.421,108.339,84.563,108.198,84.563,108.198z"/>
		<path fill="#2A2B2A" d="M83.65,94.506c0,0-0.961-0.267-2.642-0.734c-0.816-0.216-1.782-0.482-2.868-0.739
			c-1.087-0.25-2.279-0.51-3.533-0.713c-1.25-0.203-2.562-0.353-3.846-0.377c-1.284-0.027-2.537,0.074-3.677,0.328
			c-1.141,0.258-2.163,0.653-3.145,1.194c-0.978,0.544-1.933,1.263-2.886,2.158c-0.12,0.112-0.243,0.22-0.366,0.325
			s-0.233,0.248-0.352,0.371c-0.227,0.257-0.481,0.48-0.714,0.748c-0.228,0.277-0.456,0.551-0.698,0.816l-0.181,0.201
			c-0.154,0.205-0.053,0.067-0.09,0.115l-0.012,0.018l-0.028,0.032l-0.053,0.067l-0.111,0.131c-0.146,0.176-0.292,0.35-0.441,0.522
			l-0.448,0.515l-0.109,0.128l-0.141,0.153l-0.283,0.307c-0.381,0.398-0.76,0.805-1.144,1.184c-0.386,0.363-0.777,0.712-1.163,1.062
			c-0.392,0.349-0.83,0.671-1.239,0.997c-1.696,1.279-3.614,2.375-5.737,3.03c-2.12,0.649-4.48,0.759-6.447,0.196
			c-0.986-0.268-1.851-0.689-2.588-1.145c-0.353-0.252-0.705-0.479-0.997-0.746c-0.146-0.131-0.291-0.26-0.435-0.386
			c-0.133-0.131-0.258-0.269-0.381-0.399c-0.978-1.054-1.527-2.096-1.889-2.961c-0.182-0.432-0.311-0.826-0.406-1.171
			s-0.154-0.644-0.194-0.886c-0.045-0.24-0.059-0.431-0.07-0.555c-0.008-0.127-0.012-0.191-0.012-0.191s0.055,0.033,0.159,0.098
			c0.105,0.064,0.266,0.155,0.47,0.274c0.407,0.229,1.005,0.548,1.74,0.87c0.74,0.314,1.62,0.645,2.56,0.785
			c0.464,0.08,0.938,0.086,1.386,0.076c0.454-0.047,0.881-0.118,1.278-0.266c0.401-0.155,0.766-0.322,1.134-0.578
			c0.178-0.102,0.367-0.257,0.55-0.389c0.09-0.055,0.185-0.159,0.28-0.229c0.093-0.083,0.186-0.15,0.28-0.233
			c0.762-0.686,1.58-1.584,2.426-2.652c0.212-0.275,0.422-0.55,0.639-0.827c0.212-0.298,0.422-0.595,0.642-0.886
			c0.208-0.293,0.392-0.586,0.593-0.873l0.151-0.213l0.077-0.108l0.095-0.14l0.375-0.572c0.126-0.188,0.255-0.376,0.386-0.564
			l0.097-0.14l0.049-0.07l0.025-0.035l0.012-0.021c-0.029,0.039,0.081-0.109-0.064,0.084l0.243-0.341
			c0.323-0.455,0.658-0.904,0.998-1.353c0.349-0.444,0.746-0.879,1.132-1.307c0.198-0.213,0.378-0.435,0.597-0.639l0.652-0.617
			c1.744-1.618,3.866-3.037,6.225-3.945c2.352-0.918,4.894-1.279,7.207-1.142c2.329,0.131,4.424,0.713,6.208,1.487
			c1.79,0.775,3.282,1.738,4.531,2.727c1.246,0.992,2.254,2.01,3.063,2.975c0.809,0.961,1.43,1.857,1.89,2.626
			c0.233,0.38,0.428,0.732,0.584,1.045c0.164,0.31,0.287,0.581,0.386,0.802c0.1,0.219,0.162,0.398,0.207,0.518
			C83.626,94.444,83.65,94.506,83.65,94.506z"/>
	</g>
</g>
</svg>
