<?xml version="1.0" encoding="utf-8"?>
<!-- Generator: Adobe Illustrator 15.1.0, SVG Export Plug-In . SVG Version: 6.00 Build 0)  -->
<!DOCTYPE svg PUBLIC "-//W3C//DTD SVG 1.1//EN" "http://www.w3.org/Graphics/SVG/1.1/DTD/svg11.dtd">
<svg version="1.1" id="Layer_1" xmlns="http://www.w3.org/2000/svg" xmlns:xlink="http://www.w3.org/1999/xlink" x="0px" y="0px"
	 width="182.225px" height="212.061px" viewBox="0 0 182.225 212.061" enable-background="new 0 0 182.225 212.061"
	 xml:space="preserve">
<g id="Layer_2">
</g>
<g id="Layer_1_1_">
	<ellipse opacity="0.4" fill="#232323" enable-background="new    " cx="91.15" cy="206.202" rx="28.934" ry="5.857"/>
	<g>
		<path fill="#97A4B6" d="M135.313,107.755c0,20.709-25.221,37.498-43.203,37.498c-14.602,0-43.523-16.789-43.523-37.498
			c0-20.711,11.096-37.497,43.523-37.497C125.152,70.258,135.313,87.044,135.313,107.755z"/>
		<path fill="#232323" d="M125.963,165.866c-20.867-0.344-45.544,0.334-66.412-0.008c2.487,9.733,7.313,30.115,17.906,38.169
			c8.373,6.366-0.18-9.122,8.373-13.006c2.94-1.335,12.683-0.803,15.396,2.794c3.43,4.545-3.047,16.791,5.836,10.167
			C108.883,202.624,123.803,185.577,125.963,165.866z"/>
		<path fill="#622879" d="M59.551,165.858c0,0,19.019,6.42,32.721,6.881c13.701,0.457,33.691-6.873,33.691-6.873l-25.148-26.227
			L59.551,165.858"/>
		<path fill="#2F160C" d="M74.375,81.26c-4.146-0.343-8.158,0.717-7.223,3.404c0.938,2.689,4.022,2.592,6.97,1.595
			c2.946-0.996,5.212-1.893,4.431-3.443C77.771,81.265,74.375,81.26,74.375,81.26z"/>
		<path fill="#2F160C" d="M114.506,97.284c0,4.271-3.963,4.271-3.963,0C110.543,93.014,114.506,93.015,114.506,97.284z"/>
		<path fill="#2F160C" d="M112.486,81.69c3.952-0.278,7.704,0.836,6.68,3.494c-1.027,2.657-3.952,2.514-6.696,1.477
			c-2.745-1.038-4.85-1.965-4.027-3.496C109.263,81.637,112.486,81.69,112.486,81.69z"/>
		<path fill="#2F160C" d="M76.01,96.962c0,4.271-3.963,4.271-3.963,0C72.047,92.692,76.01,92.692,76.01,96.962z"/>
		<path fill="#FFFFFF" d="M106.743,106.168c0,7.725-6.264,12.315-13.986,12.315s-13.985-4.592-13.985-12.315
			c0-7.723,6.263-12.429,13.985-12.429S106.743,98.444,106.743,106.168z"/>
		<ellipse fill="#DFA8B5" cx="93.238" cy="100.771" rx="5.642" ry="3.251"/>
		<path fill="#4F1E0B" d="M86.942,105.143c0,0,0.229,0.086,0.633,0.235c0.374,0.148,0.909,0.36,1.552,0.614
			c0.31,0.123,0.64,0.252,0.982,0.375c0.343,0.128,0.697,0.248,1.058,0.354c0.358,0.108,0.723,0.195,1.08,0.266
			c0.178,0.031,0.354,0.056,0.526,0.077c0.088,0.011,0.172,0.012,0.261,0.02c0.041,0.002,0.083-0.001,0.126,0.003l0.063,0.005
			l0.031,0.001l0.008,0.001c0.014,0-0.09,0.002-0.043,0.002h0.004l0.023-0.002l0.34-0.008l0.172-0.003
			c0.059,0,0.088-0.011,0.134-0.012c0.168-0.012,0.333-0.012,0.527-0.043c0.376-0.031,0.739-0.116,1.104-0.187
			c0.178-0.051,0.357-0.087,0.531-0.137c0.174-0.053,0.348-0.102,0.514-0.158c0.338-0.106,0.652-0.233,0.951-0.354
			c0.15-0.064,0.292-0.127,0.429-0.186c0.137-0.064,0.266-0.129,0.387-0.187c0.243-0.123,0.456-0.238,0.637-0.336
			c0.17-0.106,0.324-0.185,0.413-0.25c0.101-0.061,0.151-0.093,0.151-0.093s-0.009,0.062-0.033,0.176
			c-0.026,0.114-0.069,0.282-0.148,0.488c-0.08,0.202-0.192,0.445-0.35,0.711c-0.158,0.265-0.357,0.55-0.607,0.837
			c-0.253,0.283-0.549,0.582-0.899,0.85c-0.347,0.277-0.748,0.525-1.188,0.747c-0.441,0.211-0.924,0.396-1.435,0.514
			c-0.246,0.065-0.531,0.106-0.815,0.148c-0.15,0.021-0.265,0.025-0.375,0.032l-0.343,0.018l-0.095,0.002h-0.054l-0.107-0.002
			c-0.071,0-0.144-0.004-0.215-0.009c-0.14-0.015-0.283-0.026-0.42-0.048c-0.277-0.039-0.548-0.091-0.805-0.171
			c-0.517-0.146-0.986-0.356-1.412-0.592c-0.425-0.234-0.8-0.501-1.134-0.772c-0.332-0.277-0.617-0.561-0.865-0.835
			c-0.244-0.278-0.45-0.548-0.618-0.796c-0.168-0.249-0.304-0.476-0.4-0.668C87.018,105.385,86.942,105.143,86.942,105.143z"/>
		<path fill="#DD5345" d="M48.645,111.114c0,0,17.027,15.096,45.724,14.992c28.692-0.104,40.799-17.728,40.799-17.728
			s1.688,13.668-0.822,28.583c-2.926,17.405-9.13,33.564-9.13,33.564s-5.848,5.734-31.975,5.771
			c-27.333,0.038-31.383-4.914-32.491-5.771c0,0-8.097-14.327-12.163-33.842C44.756,118.313,48.645,111.114,48.645,111.114z"/>
		<path fill="#97A4B6" d="M36.104,127.746c0,0-20.726,15.3-14.922,18.776c5.803,3.476,21.025-7.563,21.025-7.563L36.104,127.746z"/>
		<g>
			<g>
				<defs>
					<path id="SVGID_1_" d="M48.645,111.114c0,0,17.027,15.096,45.724,14.992c28.691-0.104,40.799-17.728,40.799-17.728
						s2.725,13.197,2.081,28.307c-0.646,15.109-12.033,33.842-12.033,33.842s-5.848,6.702-31.975,6.737
						c-26.225,0.036-32.491-6.737-32.491-6.737s-12.486-15.1-13.453-33.842C46.329,117.942,48.645,111.114,48.645,111.114z"/>
				</defs>
				<clipPath id="SVGID_2_">
					<use xlink:href="#SVGID_1_"  overflow="visible"/>
				</clipPath>
				<path clip-path="url(#SVGID_2_)" fill="#F3E9E0" d="M56.705,116.55c0.02,0.007,9.387,10.603,16.155,18.19
					c6.771,7.589,14.081,12.074,21.827,12.074c9.072,0,13.167-4.217,17.835-8.732c6.813-6.591,17.986-24.52,17.986-24.52
					s-27.055,9.647-36.596,9.433S56.705,116.55,56.705,116.55z"/>
			</g>
		</g>
		<path fill="#F3E9E0" d="M48.162,117.166c0,0,4.093,7.401,5.061,13.159c0.967,5.758,0.103,12.283,0.103,12.283l-13.297,1.702
			l-8.223-16.916L48.162,117.166z"/>
		<polygon fill="#F3E9E0" points="36.912,147.99 28.469,129.338 35.833,120.628 44.6,145.095 		"/>
		<path fill="#2F160C" d="M82.885,105.827c0,0-1.305,0.158-3.263,0.267c-0.489,0.028-1.021,0.06-1.582,0.078
			c-0.561,0.021-1.151,0.051-1.765,0.061c-0.612,0.01-1.243,0.035-1.886,0.035c-0.643,0.004-1.297,0.008-1.948,0.01
			c-0.652-0.008-1.307-0.014-1.948-0.021c-0.644-0.003-1.274-0.032-1.887-0.047c-1.224-0.039-2.364-0.094-3.345-0.159
			c-1.958-0.121-3.262-0.288-3.262-0.288s1.305-0.159,3.263-0.269c0.98-0.06,2.123-0.105,3.346-0.138
			c0.613-0.01,1.245-0.036,1.888-0.034c0.643-0.003,1.297-0.007,1.948-0.01c0.652,0.008,1.305,0.015,1.947,0.021
			c0.643,0.005,1.275,0.033,1.887,0.048c0.612,0.016,1.203,0.048,1.765,0.072c0.561,0.021,1.09,0.056,1.581,0.089
			C81.582,105.662,82.885,105.827,82.885,105.827z"/>
		<path fill="#2F160C" d="M83.375,107.698c0,0-1.181,0.58-2.992,1.328c-0.453,0.188-0.944,0.395-1.467,0.597
			c-0.522,0.205-1.071,0.427-1.646,0.638c-0.574,0.213-1.162,0.443-1.769,0.656c-0.605,0.216-1.223,0.436-1.835,0.652
			c-0.619,0.211-1.238,0.418-1.848,0.623c-0.607,0.209-1.215,0.389-1.797,0.578c-1.168,0.368-2.265,0.692-3.209,0.953
			c-1.888,0.53-3.175,0.806-3.175,0.806s1.18-0.581,2.992-1.329c0.905-0.38,1.969-0.802,3.113-1.234
			c0.573-0.213,1.161-0.444,1.77-0.655c0.604-0.217,1.221-0.435,1.836-0.652c0.617-0.209,1.236-0.416,1.846-0.621
			c0.607-0.208,1.216-0.389,1.798-0.578c0.582-0.188,1.149-0.354,1.688-0.516c0.537-0.164,1.049-0.308,1.521-0.438
			C82.091,107.972,83.375,107.698,83.375,107.698z"/>
		<path fill="#2F160C" d="M103.277,105.669c0,0,1.307-0.166,3.264-0.286c0.488-0.031,1.021-0.066,1.582-0.088
			c0.561-0.026,1.15-0.058,1.763-0.07c0.613-0.017,1.244-0.045,1.886-0.049c0.645-0.008,1.296-0.017,1.95-0.023
			c0.651,0.004,1.304,0.008,1.945,0.011c0.644-0.003,1.274,0.023,1.889,0.034c1.225,0.029,2.365,0.077,3.345,0.137
			c1.958,0.109,3.265,0.269,3.265,0.269s-1.305,0.167-3.263,0.289c-0.979,0.063-2.121,0.119-3.344,0.158
			c-0.611,0.016-1.245,0.044-1.888,0.049c-0.643,0.006-1.295,0.014-1.948,0.021c-0.651-0.004-1.305-0.008-1.946-0.01
			c-0.644,0-1.274-0.025-1.888-0.035s-1.204-0.039-1.765-0.06c-0.562-0.021-1.093-0.053-1.58-0.079
			C104.584,105.827,103.277,105.669,103.277,105.669z"/>
		<path fill="#2F160C" d="M102.789,107.54c0,0,1.287,0.273,3.174,0.806c0.473,0.131,0.982,0.274,1.52,0.438
			c0.539,0.16,1.108,0.325,1.689,0.515c0.583,0.188,1.188,0.37,1.797,0.577c0.607,0.206,1.229,0.414,1.846,0.621
			c0.616,0.221,1.23,0.438,1.836,0.653c0.606,0.212,1.195,0.442,1.771,0.655c1.146,0.432,2.207,0.854,3.113,1.232
			c1.813,0.751,2.991,1.331,2.991,1.331s-1.284-0.272-3.174-0.805c-0.947-0.263-2.043-0.586-3.211-0.955
			c-0.582-0.188-1.188-0.367-1.795-0.578c-0.609-0.205-1.229-0.412-1.847-0.621c-0.614-0.219-1.23-0.438-1.835-0.651
			c-0.607-0.212-1.195-0.444-1.771-0.657c-0.574-0.21-1.123-0.433-1.646-0.64c-0.523-0.202-1.015-0.404-1.466-0.595
			C103.969,108.119,102.789,107.54,102.789,107.54z"/>
		<path fill="#97A4B6" d="M148.724,126.165c0,0,20.727,15.3,14.921,18.775c-5.803,3.477-21.023-7.563-21.023-7.563L148.724,126.165z
			"/>
		<path fill="#97A4B6" d="M63.551,72.032c0,0,7.097-19.21-13.963-18.405C28.533,54.432,31.36,89.666,63.551,72.032z"/>
		<path fill="#F3E9E0" d="M135.213,114.925c0,0-3.449,7.402-4.416,13.16c-0.969,5.758-0.104,12.283-0.104,12.283l11.927,3.535
			l9.591-18.75L135.213,114.925z"/>
		<polygon fill="#F3E9E0" points="144.555,145.192 156.947,127.284 149.583,118.575 135.615,143.888 		"/>
		<path fill="#B53930" d="M59.295,119.639c0,0-0.003,0.021-0.008,0.061c-0.006,0.037-0.009,0.103-0.024,0.167
			c-0.026,0.138-0.079,0.316-0.157,0.508c-0.16,0.383-0.453,0.789-0.835,1.082c-0.377,0.299-0.841,0.482-1.251,0.543
			c-0.207,0.029-0.394,0.033-0.533,0.025c-0.065,0-0.13-0.015-0.167-0.019c-0.04-0.004-0.062-0.008-0.062-0.008
			s0.003-0.02,0.006-0.061c0.006-0.038,0.01-0.104,0.025-0.168c0.026-0.138,0.077-0.316,0.154-0.51
			c0.161-0.383,0.454-0.787,0.84-1.078c0.377-0.298,0.842-0.482,1.25-0.542c0.207-0.029,0.395-0.035,0.532-0.026
			c0.066,0,0.13,0.014,0.167,0.016C59.273,119.635,59.295,119.639,59.295,119.639z"/>
		<path fill="#B53930" d="M63.518,125.052c0,0-0.002,0.021-0.006,0.062c-0.007,0.039-0.008,0.104-0.025,0.168
			c-0.026,0.137-0.075,0.316-0.155,0.509c-0.16,0.382-0.453,0.787-0.836,1.08c-0.377,0.3-0.843,0.483-1.252,0.543
			c-0.205,0.03-0.393,0.034-0.533,0.026c-0.065,0-0.129-0.015-0.167-0.018c-0.04-0.005-0.062-0.01-0.062-0.01
			s0.002-0.021,0.007-0.06c0.007-0.038,0.01-0.103,0.023-0.168c0.027-0.138,0.078-0.316,0.158-0.511
			c0.16-0.382,0.453-0.786,0.836-1.077c0.377-0.299,0.843-0.481,1.252-0.543c0.207-0.029,0.393-0.033,0.532-0.025
			c0.066,0,0.131,0.012,0.169,0.017C63.497,125.049,63.518,125.052,63.518,125.052z"/>
		<path fill="#B53930" d="M68.102,130.471c0,0-0.002,0.02-0.002,0.061c-0.002,0.038,0,0.103-0.01,0.168
			c-0.015,0.138-0.05,0.321-0.11,0.521c-0.126,0.394-0.384,0.823-0.736,1.149c-0.349,0.33-0.797,0.557-1.197,0.653
			c-0.203,0.048-0.389,0.067-0.529,0.07c-0.065,0.008-0.131-0.002-0.169-0.002c-0.04-0.001-0.063-0.002-0.063-0.002
			s0.001-0.021,0.003-0.061c0.003-0.04-0.002-0.104,0.01-0.17c0.014-0.139,0.048-0.322,0.11-0.521
			c0.125-0.396,0.382-0.824,0.734-1.148c0.354-0.329,0.799-0.557,1.202-0.652c0.202-0.047,0.388-0.066,0.528-0.074
			c0.063-0.004,0.129,0.004,0.167,0.002C68.08,130.468,68.102,130.471,68.102,130.471z"/>
		<path fill="#B53930" d="M72.459,135.507c0,0,0.005,0.021,0.014,0.063c0.008,0.037,0.025,0.098,0.03,0.164
			c0.019,0.139,0.026,0.325,0.016,0.531c-0.03,0.414-0.177,0.893-0.441,1.293c-0.263,0.404-0.644,0.729-1.013,0.918
			c-0.186,0.094-0.358,0.157-0.497,0.194c-0.062,0.022-0.126,0.029-0.162,0.037c-0.039,0.01-0.062,0.013-0.062,0.013
			s-0.004-0.021-0.013-0.06c-0.005-0.038-0.025-0.1-0.029-0.166c-0.021-0.139-0.03-0.326-0.017-0.532
			c0.026-0.416,0.176-0.893,0.442-1.29c0.265-0.403,0.646-0.729,1.015-0.92c0.185-0.092,0.357-0.156,0.493-0.194
			c0.063-0.021,0.126-0.027,0.164-0.037C72.439,135.512,72.459,135.507,72.459,135.507z"/>
		<path fill="#B53930" d="M78.305,140.892c0,0,0.008,0.02,0.021,0.058c0.01,0.036,0.033,0.097,0.047,0.161
			c0.032,0.136,0.061,0.32,0.069,0.527c0.015,0.416-0.084,0.904-0.308,1.33c-0.217,0.431-0.563,0.792-0.911,1.02
			c-0.174,0.112-0.342,0.192-0.473,0.244c-0.062,0.027-0.123,0.041-0.16,0.055c-0.039,0.012-0.06,0.019-0.06,0.019
			s-0.006-0.021-0.019-0.06c-0.009-0.037-0.034-0.097-0.047-0.162c-0.033-0.135-0.063-0.318-0.071-0.526
			c-0.015-0.414,0.084-0.904,0.31-1.33c0.221-0.429,0.565-0.789,0.913-1.018c0.175-0.111,0.343-0.191,0.472-0.245
			c0.059-0.027,0.123-0.041,0.16-0.055S78.305,140.892,78.305,140.892z"/>
		<path fill="#B53930" d="M93.439,148.021c0,0,0.021,0.014,0.062,0.045c0.034,0.027,0.104,0.071,0.159,0.124
			c0.125,0.107,0.277,0.262,0.419,0.443c0.139,0.185,0.254,0.396,0.338,0.623c0.08,0.228,0.116,0.469,0.112,0.707
			c-0.004,0.241-0.049,0.48-0.14,0.705c-0.089,0.226-0.214,0.433-0.36,0.609c-0.068,0.089-0.151,0.17-0.225,0.242
			c-0.068,0.071-0.148,0.135-0.212,0.187c-0.059,0.051-0.129,0.089-0.165,0.118c-0.041,0.027-0.063,0.042-0.063,0.042
			s-0.021-0.017-0.061-0.045c-0.037-0.029-0.104-0.071-0.161-0.126c-0.061-0.053-0.14-0.119-0.202-0.191
			c-0.071-0.075-0.149-0.158-0.219-0.252c-0.139-0.184-0.256-0.395-0.336-0.623c-0.082-0.227-0.117-0.468-0.112-0.708
			c0.006-0.239,0.053-0.479,0.143-0.704c0.09-0.225,0.216-0.432,0.358-0.607c0.149-0.179,0.308-0.325,0.438-0.429
			c0.057-0.052,0.127-0.093,0.164-0.118C93.418,148.034,93.439,148.021,93.439,148.021z"/>
		<path fill="#B53930" d="M85.261,145.595c0,0,0.007,0.021,0.024,0.057c0.013,0.036,0.043,0.094,0.062,0.158
			c0.045,0.131,0.09,0.313,0.116,0.518c0.053,0.411,0,0.909-0.185,1.354c-0.178,0.446-0.487,0.839-0.813,1.096
			c-0.163,0.129-0.322,0.225-0.448,0.287c-0.058,0.033-0.119,0.053-0.154,0.067c-0.035,0.017-0.057,0.023-0.057,0.023
			s-0.009-0.019-0.022-0.057c-0.015-0.035-0.046-0.093-0.063-0.157c-0.046-0.131-0.091-0.313-0.118-0.52
			c-0.053-0.409,0-0.907,0.187-1.352c0.18-0.447,0.49-0.84,0.815-1.096c0.162-0.127,0.322-0.226,0.447-0.288
			c0.057-0.032,0.119-0.054,0.153-0.069C85.24,145.604,85.261,145.595,85.261,145.595z"/>
		<path fill="#B53930" d="M127.76,119.394c0,0,0.022-0.002,0.061-0.009c0.038-0.004,0.104-0.021,0.168-0.021
			c0.14-0.012,0.325-0.012,0.531,0.014c0.412,0.052,0.882,0.228,1.267,0.516c0.391,0.281,0.693,0.68,0.862,1.059
			c0.082,0.19,0.138,0.368,0.167,0.505c0.019,0.064,0.021,0.129,0.028,0.168c0.006,0.039,0.009,0.062,0.009,0.062
			s-0.021,0.002-0.061,0.009c-0.038,0.005-0.102,0.021-0.167,0.021c-0.142,0.013-0.328,0.013-0.533-0.012
			c-0.412-0.051-0.881-0.225-1.264-0.516c-0.391-0.283-0.693-0.683-0.861-1.063c-0.084-0.189-0.138-0.367-0.168-0.503
			c-0.018-0.063-0.021-0.129-0.03-0.166C127.764,119.415,127.76,119.394,127.76,119.394z"/>
		<path fill="#B53930" d="M123.986,125.229c0,0,0.021-0.004,0.062-0.011c0.039-0.004,0.101-0.02,0.168-0.021
			c0.138-0.012,0.324-0.012,0.531,0.014c0.409,0.052,0.881,0.226,1.267,0.513c0.39,0.281,0.692,0.681,0.861,1.06
			c0.083,0.19,0.138,0.368,0.168,0.506c0.017,0.063,0.021,0.128,0.027,0.166c0.007,0.039,0.01,0.063,0.01,0.063
			s-0.021,0.001-0.062,0.009c-0.039,0.006-0.102,0.02-0.169,0.021c-0.139,0.013-0.326,0.013-0.533-0.013
			c-0.41-0.051-0.879-0.224-1.264-0.515c-0.387-0.283-0.691-0.683-0.859-1.062c-0.084-0.188-0.14-0.368-0.169-0.505
			c-0.019-0.063-0.021-0.13-0.027-0.165C123.988,125.251,123.986,125.229,123.986,125.229z"/>
		<path fill="#B53930" d="M119.531,130.753c0,0,0.021-0.002,0.063-0.006c0.037,0,0.102-0.012,0.167-0.006
			c0.14,0.002,0.326,0.021,0.528,0.063c0.405,0.086,0.858,0.302,1.217,0.62c0.362,0.317,0.63,0.742,0.765,1.134
			c0.065,0.195,0.104,0.382,0.122,0.52c0.012,0.064,0.01,0.129,0.015,0.168c0.002,0.039,0.002,0.062,0.002,0.062
			s-0.021,0.002-0.062,0.006c-0.039,0-0.102,0.008-0.169,0.005c-0.14-0.001-0.325-0.02-0.53-0.063
			c-0.403-0.085-0.855-0.301-1.213-0.623c-0.36-0.317-0.629-0.741-0.764-1.134c-0.064-0.195-0.105-0.38-0.123-0.517
			c-0.012-0.066-0.01-0.131-0.014-0.17C119.534,130.773,119.531,130.753,119.531,130.753z"/>
		<path fill="#B53930" d="M115.293,135.891c0,0,0.02,0.003,0.061,0.011c0.037,0.01,0.103,0.014,0.166,0.035
			c0.135,0.033,0.311,0.094,0.497,0.183c0.373,0.184,0.762,0.497,1.034,0.895c0.277,0.393,0.438,0.866,0.475,1.28
			c0.019,0.205,0.012,0.394-0.004,0.531c-0.004,0.067-0.021,0.129-0.026,0.168c-0.008,0.039-0.012,0.062-0.012,0.062
			s-0.021-0.005-0.06-0.013c-0.039-0.007-0.104-0.012-0.167-0.034c-0.136-0.032-0.312-0.095-0.5-0.183
			c-0.374-0.181-0.761-0.496-1.03-0.895c-0.276-0.394-0.435-0.868-0.474-1.281c-0.02-0.206-0.013-0.396,0.002-0.533
			c0.003-0.063,0.021-0.127,0.025-0.166C115.289,135.912,115.293,135.891,115.293,135.891z"/>
		<path fill="#B53930" d="M109.575,141.409c0,0,0.021,0.006,0.059,0.017c0.036,0.013,0.101,0.024,0.161,0.053
			c0.131,0.048,0.3,0.126,0.477,0.233c0.354,0.219,0.706,0.572,0.938,0.993c0.233,0.42,0.344,0.909,0.34,1.323
			c-0.005,0.208-0.029,0.393-0.059,0.529c-0.012,0.065-0.035,0.126-0.046,0.162c-0.01,0.04-0.017,0.061-0.017,0.061
			s-0.021-0.006-0.059-0.019c-0.038-0.012-0.103-0.023-0.161-0.051c-0.132-0.047-0.304-0.125-0.479-0.232
			c-0.353-0.219-0.706-0.571-0.935-0.995c-0.232-0.421-0.343-0.909-0.337-1.324c0.003-0.208,0.025-0.393,0.058-0.529
			c0.008-0.063,0.033-0.125,0.043-0.162C109.57,141.431,109.575,141.409,109.575,141.409z"/>
		<path fill="#B53930" d="M102.732,146.274c0,0,0.021,0.008,0.058,0.021c0.035,0.017,0.098,0.034,0.153,0.067
			c0.127,0.059,0.289,0.153,0.455,0.277c0.332,0.248,0.651,0.634,0.843,1.074c0.194,0.438,0.26,0.937,0.218,1.349
			c-0.022,0.207-0.064,0.39-0.106,0.521c-0.016,0.064-0.047,0.122-0.061,0.16c-0.013,0.037-0.021,0.056-0.021,0.056
			s-0.02-0.007-0.058-0.021c-0.034-0.015-0.099-0.033-0.155-0.064c-0.126-0.059-0.287-0.151-0.455-0.276
			c-0.331-0.249-0.65-0.633-0.838-1.076c-0.196-0.439-0.26-0.937-0.217-1.348c0.022-0.21,0.063-0.392,0.104-0.523
			c0.016-0.063,0.044-0.122,0.059-0.158S102.732,146.274,102.732,146.274z"/>
		<path fill="#B53930" d="M86.819,152.108c0,0,0.016,0.007,0.043,0.022c0.026,0.017,0.067,0.041,0.12,0.082
			c0.097,0.072,0.236,0.183,0.416,0.319c0.164,0.138,0.369,0.293,0.603,0.442c0.229,0.153,0.483,0.309,0.762,0.444
			c0.276,0.14,0.58,0.257,0.9,0.359c0.318,0.103,0.662,0.179,1.021,0.248c0.361,0.059,0.738,0.113,1.137,0.139
			c0.393,0.039,0.804,0.045,1.218,0.063l0.612-0.003l0.177-0.004l0.121-0.01l0.252-0.013c0.36-0.023,0.709-0.053,1.043-0.1
			c0.336-0.041,0.659-0.098,0.978-0.164c0.318-0.065,0.626-0.146,0.923-0.234c0.298-0.088,0.578-0.191,0.84-0.287
			c0.259-0.102,0.496-0.197,0.697-0.285c0.207-0.096,0.366-0.17,0.479-0.221c0.108-0.057,0.174-0.086,0.174-0.086l0.174,0.086
			c0,0-0.027,0.06-0.083,0.158c-0.057,0.101-0.143,0.244-0.265,0.418c-0.123,0.174-0.279,0.379-0.479,0.598
			c-0.196,0.224-0.445,0.448-0.733,0.674c-0.573,0.447-1.335,0.869-2.22,1.117c-0.438,0.125-0.907,0.209-1.385,0.248
			c-0.484,0.039-0.966,0.014-1.447-0.021c-0.958-0.082-1.918-0.264-2.771-0.593c-0.852-0.324-1.58-0.805-2.104-1.317
			c-0.519-0.521-0.838-1.046-1.04-1.41c-0.101-0.183-0.181-0.324-0.232-0.421c-0.052-0.092-0.088-0.145-0.088-0.145L86.819,152.108z
			"/>
		<path fill="#97A4B6" d="M124.195,75.257c0,0-7.094-19.211,13.964-18.405C159.215,57.656,156.389,92.89,124.195,75.257z"/>
		<path fill="#C0B59D" d="M91.135,127.103c0,0-1.779,2.735-2.521,4.617c-1.307,3.306-1.66,4.132-1.66,4.132
			s-5.004-3.669-7.328-5.713c-2.326-2.042-7.578-6.194-7.578-6.194s5.172,5.154,8.016,8.1c2.848,2.943,7.79,6.779,7.79,6.779
			s1.143-4.461,1.853-6.852C90.17,130.4,91.135,127.103,91.135,127.103z"/>
		<path fill="#C0B59D" d="M96.553,127.103c0,0,1.779,2.735,2.523,4.617c1.305,3.306,1.659,4.133,1.659,4.133s5.002-3.67,7.328-5.713
			c2.325-2.043,7.577-6.193,7.577-6.193s-5.17,5.152-8.016,8.098c-2.849,2.943-7.79,6.779-7.79,6.779s-1.142-4.461-1.853-6.851
			C97.518,130.4,96.553,127.103,96.553,127.103z"/>
		<ellipse fill="#C0B59D" cx="94.008" cy="140.271" rx="2.014" ry="1.997"/>
		<path fill="#B53930" d="M68.345,169.075c0,0,0.046,0.012,0.14,0.035c0.091,0.022,0.228,0.057,0.408,0.094
			c0.357,0.082,0.896,0.162,1.567,0.277c0.676,0.112,1.501,0.215,2.441,0.338c0.94,0.127,2.011,0.216,3.173,0.33
			c1.157,0.124,2.424,0.197,3.757,0.293c1.33,0.104,2.738,0.171,4.193,0.235c0.729,0.037,1.468,0.076,2.218,0.113
			c0.75,0.023,1.509,0.048,2.273,0.072c1.526,0.033,3.092,0.119,4.634,0.139c0.797,0.021,1.55-0.003,2.31,0.015
			c0.767,0.006,1.531,0.016,2.287,0c0.758-0.006,1.509-0.033,2.248-0.063c0.371-0.021,0.738-0.021,1.104-0.032
			c0.365-0.016,0.729-0.027,1.089-0.043c1.438-0.067,2.825-0.19,4.144-0.291c1.316-0.114,2.555-0.278,3.704-0.418
			c0.571-0.076,1.121-0.158,1.64-0.252c0.52-0.088,1.019-0.162,1.479-0.253c0.467-0.085,0.897-0.178,1.299-0.266
			c0.401-0.082,0.77-0.167,1.102-0.245c0.66-0.168,1.187-0.303,1.538-0.41c0.354-0.106,0.534-0.176,0.534-0.176l0.102,0.164
			c0,0-0.174,0.104-0.505,0.271c-0.331,0.169-0.821,0.401-1.462,0.661c-1.276,0.522-3.15,1.159-5.451,1.698
			c-2.301,0.545-5.025,0.993-7.968,1.266c-1.472,0.14-2.995,0.224-4.544,0.273c-0.777,0.029-1.559,0.031-2.344,0.041
			c-0.783-0.005-1.572-0.015-2.357-0.043c-0.784-0.021-1.574-0.064-2.354-0.103c-0.781-0.044-1.563-0.068-2.335-0.131
			c-0.772-0.053-1.539-0.104-2.297-0.158c-0.755-0.066-1.502-0.133-2.235-0.197c-1.469-0.148-2.888-0.303-4.227-0.489
			c-0.672-0.082-1.32-0.187-1.949-0.283c-0.631-0.092-1.236-0.198-1.817-0.305c-0.581-0.1-1.136-0.211-1.662-0.32
			c-0.53-0.102-1.026-0.219-1.495-0.325c-0.935-0.216-1.742-0.436-2.406-0.628c-0.657-0.197-1.176-0.367-1.521-0.499
			c-0.347-0.128-0.529-0.21-0.529-0.21L68.345,169.075z"/>
		<path fill="#B53930" d="M63.748,148.444c0,0-0.052,0.016-0.138,0.033c-0.084,0.016-0.219,0.052-0.369,0.063
			c-0.153,0.021-0.345,0.051-0.55,0.058c-0.207,0.011-0.433,0.011-0.674-0.002c-0.479-0.023-1.014-0.104-1.549-0.257
			c-0.138-0.033-0.269-0.082-0.403-0.127c-0.137-0.043-0.27-0.093-0.399-0.15c-0.271-0.102-0.527-0.235-0.787-0.366
			c-0.252-0.146-0.506-0.287-0.738-0.453c-0.121-0.078-0.234-0.164-0.346-0.252c-0.114-0.088-0.226-0.172-0.328-0.268
			c-0.424-0.363-0.786-0.763-1.073-1.148c-0.142-0.195-0.268-0.383-0.372-0.561c-0.106-0.175-0.188-0.349-0.259-0.486
			c-0.073-0.133-0.115-0.264-0.15-0.344c-0.032-0.082-0.047-0.131-0.047-0.131l0.092-0.171c0,0,0.13,0.063,0.357,0.175
			c0.228,0.112,0.56,0.264,0.945,0.466c0.771,0.398,1.802,0.936,2.833,1.47c1.018,0.563,2.03,1.127,2.792,1.549
			c0.383,0.209,0.689,0.402,0.91,0.528c0.22,0.129,0.345,0.202,0.345,0.202L63.748,148.444z"/>
		<path fill="#B53930" d="M130.166,143.035c0,0-0.017,0.051-0.05,0.132c-0.038,0.078-0.087,0.209-0.162,0.341
			c-0.073,0.137-0.161,0.31-0.274,0.479c-0.111,0.174-0.242,0.356-0.391,0.549c-0.299,0.377-0.674,0.762-1.109,1.111
			c-0.104,0.092-0.221,0.17-0.336,0.254c-0.113,0.087-0.232,0.168-0.355,0.24c-0.238,0.159-0.496,0.291-0.754,0.428
			c-0.264,0.12-0.526,0.245-0.798,0.338c-0.133,0.055-0.271,0.098-0.407,0.137c-0.135,0.041-0.27,0.084-0.405,0.111
			c-0.541,0.135-1.076,0.199-1.559,0.208c-0.24,0.004-0.467-0.003-0.673-0.021c-0.205-0.014-0.393-0.047-0.547-0.07
			c-0.15-0.02-0.282-0.061-0.365-0.077c-0.088-0.021-0.136-0.038-0.136-0.038l-0.086-0.173c0,0,0.128-0.07,0.349-0.191
			c0.228-0.119,0.54-0.303,0.929-0.498c0.774-0.397,1.809-0.928,2.842-1.457c1.047-0.5,2.095-1.002,2.881-1.377
			c0.392-0.188,0.727-0.328,0.958-0.433c0.233-0.105,0.365-0.164,0.365-0.164L130.166,143.035z"/>
		<path fill="#DFA8B5" d="M58.906,67.125c-0.855,2.477-2.388,4.421-6.128,4.421c-3.739,0-7.096-3.412-7.096-6.032
			c0-2.618,3.355-5.389,7.096-5.389C56.52,60.125,59.618,65.068,58.906,67.125z"/>
		<path fill="#DFA8B5" d="M129.396,71.019c0.855,2.476,2.39,4.421,6.129,4.421c3.74,0,7.096-3.413,7.096-6.032
			c0-2.62-3.354-5.389-7.096-5.389C131.784,64.019,128.686,68.962,129.396,71.019z"/>
		<path fill="#97A4B6" d="M94.105,72.847c0,0-0.311,0.012-0.832-0.089c-0.262-0.049-0.571-0.131-0.924-0.251
			c-0.176-0.059-0.354-0.14-0.548-0.216c-0.193-0.08-0.382-0.186-0.591-0.287c-0.203-0.106-0.4-0.237-0.615-0.366
			c-0.211-0.136-0.41-0.298-0.627-0.453c-0.211-0.164-0.406-0.355-0.619-0.543c-0.205-0.193-0.396-0.412-0.596-0.629
			c-0.189-0.228-0.367-0.473-0.553-0.719c-0.171-0.254-0.326-0.523-0.486-0.796c-0.15-0.274-0.277-0.567-0.407-0.858
			c-0.132-0.291-0.215-0.604-0.319-0.906l-0.068-0.229l-0.005-0.015l-0.022-0.088l-0.006-0.026l-0.011-0.05l-0.021-0.102
			l-0.079-0.406l-0.038-0.204l-0.028-0.261c-0.019-0.175-0.035-0.349-0.048-0.521c-0.03-0.349-0.004-0.641,0-0.957
			c0.015-0.308,0.06-0.604,0.098-0.897c0.05-0.291,0.114-0.57,0.181-0.845c0.081-0.27,0.156-0.529,0.244-0.778
			c0.101-0.245,0.188-0.484,0.291-0.707c0.112-0.223,0.211-0.437,0.322-0.633c0.119-0.195,0.224-0.384,0.34-0.556
			c0.121-0.168,0.225-0.33,0.339-0.475c0.227-0.291,0.438-0.53,0.624-0.717c0.377-0.375,0.635-0.546,0.635-0.546
			s-0.016,0.296-0.045,0.813c-0.028,0.507-0.071,1.208-0.101,2.009c-0.013,0.4-0.02,0.824-0.021,1.264
			c0.013,0.22,0.005,0.439,0.013,0.667c0.021,0.224,0.021,0.448,0.037,0.676c0.028,0.226,0.032,0.454,0.064,0.68
			c0.015,0.111,0.03,0.226,0.047,0.338c0.013,0.113,0.022,0.229,0.048,0.322c0.021,0.097,0.036,0.196,0.055,0.293l0.021,0.146
			l0.049,0.2l0.097,0.403l0.023,0.101l0.012,0.052l0.006,0.023c-0.035-0.144-0.009-0.037-0.018-0.067l0.003,0.006l0.003,0.01
			l0.057,0.165c0.074,0.221,0.125,0.449,0.209,0.665c0.089,0.215,0.152,0.438,0.243,0.651c0.091,0.212,0.182,0.424,0.271,0.633
			c0.101,0.209,0.197,0.414,0.297,0.615c0.109,0.196,0.213,0.396,0.316,0.594c0.113,0.195,0.224,0.386,0.332,0.569
			c0.229,0.367,0.455,0.722,0.678,1.049c0.227,0.326,0.441,0.627,0.641,0.898c0.205,0.273,0.387,0.512,0.535,0.707
			c0.156,0.203,0.28,0.361,0.365,0.471C94.06,72.788,94.105,72.847,94.105,72.847z"/>
		<path fill="#97A4B6" d="M93.177,68.646c0,0-0.078-0.19-0.137-0.535c-0.059-0.343-0.087-0.838-0.005-1.422
			c0.04-0.291,0.106-0.606,0.215-0.933c0.045-0.164,0.116-0.325,0.188-0.492c0.063-0.169,0.152-0.333,0.244-0.497
			c0.046-0.084,0.09-0.17,0.139-0.254c0.056-0.08,0.109-0.162,0.164-0.242l0.175-0.245c0.061-0.078,0.128-0.153,0.193-0.232
			c0.132-0.154,0.271-0.31,0.427-0.443c0.152-0.145,0.308-0.286,0.48-0.404l0.257-0.184l0.063-0.046l0.031-0.021l0.088-0.056
			l0.112-0.063l0.23-0.124c0.043-0.021,0.069-0.036,0.123-0.061l0.163-0.07c0.216-0.092,0.438-0.184,0.631-0.227
			c0.198-0.058,0.396-0.104,0.593-0.128c0.195-0.032,0.385-0.053,0.574-0.053c0.188-0.01,0.367-0.008,0.543,0.008
			c0.35,0.025,0.672,0.089,0.961,0.166c0.578,0.162,1.017,0.401,1.305,0.601c0.287,0.201,0.424,0.355,0.424,0.355
			s-0.186,0.058-0.513,0.155c-0.314,0.094-0.746,0.223-1.217,0.385c-0.235,0.08-0.483,0.166-0.729,0.268
			c-0.122,0.051-0.249,0.091-0.367,0.152c-0.063,0.029-0.123,0.058-0.187,0.08c-0.06,0.028-0.119,0.059-0.18,0.089
			c-0.237,0.108-0.492,0.257-0.661,0.36l-0.072,0.039c-0.023,0.014-0.068,0.045-0.104,0.066l-0.218,0.141l-0.109,0.07
			c0.104-0.064,0.026-0.017,0.05-0.03l-0.003,0.003l-0.004,0.002l-0.012,0.01l-0.021,0.017l-0.042,0.03l-0.168,0.126
			c-0.118,0.073-0.22,0.172-0.331,0.257c-0.113,0.084-0.218,0.178-0.323,0.271c-0.109,0.089-0.215,0.184-0.316,0.282
			c-0.107,0.093-0.208,0.19-0.31,0.291c-0.104,0.095-0.199,0.197-0.299,0.296c-0.104,0.099-0.195,0.2-0.289,0.3
			c-0.191,0.197-0.371,0.396-0.541,0.584C93.664,68.103,93.177,68.646,93.177,68.646z"/>
	</g>
</g>
</svg>
