<?xml version="1.0" encoding="utf-8"?>
<!-- Generator: Adobe Illustrator 16.0.0, SVG Export Plug-In . SVG Version: 6.00 Build 0)  -->
<!DOCTYPE svg PUBLIC "-//W3C//DTD SVG 1.1//EN" "http://www.w3.org/Graphics/SVG/1.1/DTD/svg11.dtd">
<svg version="1.1" xmlns="http://www.w3.org/2000/svg" xmlns:xlink="http://www.w3.org/1999/xlink" x="0px" y="0px"
	 width="182.225px" height="212.064px" viewBox="0 0 182.225 212.064" enable-background="new 0 0 182.225 212.064"
	 xml:space="preserve">
<g id="Layer_2">
</g>
<g id="Layer_1">
	<ellipse opacity="0.4" fill="#232323" cx="84.139" cy="205.921" rx="28.933" ry="5.856"/>
	<g>
		<path d="M52.127,169.573c0,0,16.899,7.03,34.785,7.03c17.889,0,30.363-5.671,30.363-5.671s-1.672,11.508-6.402,21.454
			c-2.981,6.271-13.112,17.248-16.771,14.323c-3.66-2.921,0.656-6.721-1.521-11.399c-2.177-4.676-14.474-4.968-16.894-0.292
			c-2.461,4.755,3.628,11.614-3.545,11.985c-5.632,0.294-14.923-15.367-16.931-21.63C52.542,177.05,51.95,173.095,52.127,169.573z"
			/>
		<path fill="#E4318A" d="M38.896,100.102c0,0-11.699,92.793,44.782,92.793c56.479,0,44.723-92.59,44.723-92.59
			s-10.969,9.826-42.575,9.021C44.151,108.262,38.896,100.102,38.896,100.102z"/>
		<path fill="#E4318A" d="M42.929,158.384c0,0,20.171,8.556,42.225,8.018c22.057-0.539,38.868-6.722,38.868-6.722l-6.725,31.196
			c0,0-6.049,7.936-33.418,7.936s-34.898-9.684-34.898-9.684L42.929,158.384z"/>
		<path fill="#F38E81" d="M125.809,109.895c0,0-5.279,4.387-5.146,11.017c0.131,6.625,5.146,10.867,5.146,10.867
			s13.813,8.276,24.84,0c11.027-8.273,13.181-23.874,11.299-29.522c-1.885-5.649-4.307-7.455-4.307-7.455l-2.958,5.301l-4.57-3.687
			c0,0-3.766,5.302-1.802,10.991c1.434,4.142-0.418,11.754-6.706,11.842C135.318,119.334,131.151,109.519,125.809,109.895z"/>
		<path fill="#F3F3D4" d="M92.146,118.187c0,0,7.326,4.572,12.137,5.917c4.809,1.343,7.729,2.169,10.997,1.614
			c3.265-0.557,11.072-6.227,12.911-9.684c1.834-3.458,3.048-8.001,2.031-11.028c-1.014-3.025-2.302-5.379-2.302-5.379
			s-1.218-1.345-3.704,0c-2.483,1.345-21.215,12.643-25.028,14.256C95.375,115.497,90.535,115.497,92.146,118.187z"/>
		<path fill="#F38E81" d="M134.512,82.216c0,22.504-22.76,34.695-50.835,34.695S32.846,104.72,32.846,82.216
			s22.756-46.801,50.831-46.801S134.512,59.712,134.512,82.216z"/>
		<path fill="#B55952" d="M62.003,56.174c-5.194,0.297-9.982,2.309-8.353,5.479c1.628,3.167,5.436,2.51,8.915,0.758
			c3.477-1.749,6.126-3.256,4.887-5.043C66.211,55.584,62.003,56.174,62.003,56.174z"/>
		<path fill="#2F160C" d="M105.955,74.686c0,5.34-4.959,5.34-4.959,0C100.996,69.342,105.955,69.342,105.955,74.686z"/>
		<path fill="#B55952" d="M104.034,57.399c4.937,0.426,9.359,2.533,7.572,5.62s-5.375,2.337-8.565,0.52
			c-3.19-1.818-5.607-3.375-4.294-5.106C100.057,56.702,104.034,57.399,104.034,57.399z"/>
		<path fill="#2F160C" d="M65.803,73.241c0,5.343-4.958,5.343-4.958,0S65.803,67.898,65.803,73.241z"/>
		<path fill="#B55952" d="M95.903,82.867c0,5.091-4.44,10.322-12.629,10.322s-12.63-5.231-12.63-10.322
			c0-5.094,4.441-8.126,12.63-8.126S95.903,77.773,95.903,82.867z"/>
		<path fill="#F38E81" d="M88.922,81.946c0,0,0.017,0.032,0.044,0.089c0.026,0.057,0.086,0.15,0.116,0.247
			c0.039,0.097,0.094,0.225,0.127,0.351c0.038,0.132,0.084,0.281,0.106,0.429c0.055,0.299,0.066,0.622,0.025,0.938
			c-0.039,0.312-0.142,0.616-0.289,0.895c-0.153,0.277-0.354,0.527-0.595,0.735c-0.245,0.203-0.519,0.367-0.803,0.484
			c-0.138,0.059-0.283,0.103-0.417,0.141c-0.125,0.043-0.26,0.063-0.365,0.085c-0.1,0.022-0.21,0.026-0.271,0.034
			c-0.063,0.008-0.098,0.011-0.098,0.011s-0.017-0.03-0.048-0.09c-0.025-0.056-0.082-0.15-0.117-0.245
			c-0.036-0.102-0.094-0.228-0.126-0.353c-0.04-0.134-0.081-0.278-0.108-0.43c-0.056-0.299-0.066-0.62-0.024-0.937
			c0.042-0.313,0.144-0.617,0.294-0.895c0.153-0.277,0.355-0.527,0.597-0.731c0.245-0.204,0.521-0.37,0.802-0.486
			c0.14-0.061,0.287-0.104,0.417-0.142c0.125-0.042,0.261-0.063,0.364-0.085c0.1-0.024,0.21-0.026,0.271-0.034
			C88.889,81.949,88.922,81.946,88.922,81.946z"/>
		<path fill="#F38E81" d="M77.625,81.543c0,0,0.035,0.006,0.101,0.018c0.063,0.014,0.174,0.024,0.276,0.056
			c0.104,0.03,0.241,0.061,0.366,0.114c0.134,0.05,0.283,0.104,0.423,0.175c0.286,0.142,0.563,0.335,0.809,0.566
			c0.245,0.233,0.448,0.509,0.601,0.811c0.151,0.304,0.253,0.63,0.292,0.964c0.038,0.336,0.023,0.675-0.033,0.986
			c-0.028,0.156-0.072,0.307-0.116,0.446c-0.029,0.129-0.086,0.258-0.128,0.361c-0.037,0.102-0.095,0.196-0.122,0.254
			c-0.031,0.06-0.045,0.091-0.045,0.091s-0.035-0.007-0.104-0.018c-0.061-0.013-0.173-0.024-0.273-0.056
			c-0.109-0.029-0.245-0.061-0.37-0.112c-0.133-0.05-0.284-0.105-0.425-0.175c-0.284-0.143-0.561-0.335-0.806-0.566
			c-0.245-0.232-0.445-0.51-0.598-0.813c-0.146-0.306-0.25-0.631-0.287-0.965c-0.04-0.336-0.026-0.675,0.032-0.986
			c0.025-0.155,0.072-0.308,0.113-0.444c0.031-0.132,0.088-0.262,0.128-0.363c0.035-0.102,0.094-0.192,0.122-0.25
			C77.61,81.574,77.625,81.543,77.625,81.543z"/>
		<ellipse fill="#FACACA" cx="54.146" cy="82.922" rx="5.859" ry="3.463"/>
		<ellipse fill="#FACACA" cx="114.741" cy="82.922" rx="5.859" ry="3.463"/>
		<path fill="#4F1E0B" d="M71.236,93.677c0,0,0.395,0.217,1.076,0.597c0.339,0.184,0.746,0.41,1.217,0.664
			c0.464,0.253,0.987,0.532,1.557,0.82c0.568,0.291,1.186,0.595,1.838,0.884c0.65,0.296,1.338,0.579,2.051,0.829
			c0.708,0.258,1.44,0.468,2.184,0.626c0.37,0.076,0.737,0.136,1.109,0.184c0.186,0.022,0.37,0.031,0.555,0.048l0.527,0.017
			l0.327-0.004h0.164l0.138-0.008c0.182-0.007,0.362-0.017,0.564-0.033c0.387-0.019,0.771-0.067,1.154-0.121
			c0.764-0.108,1.511-0.281,2.231-0.48c0.714-0.212,1.404-0.458,2.05-0.727c0.647-0.271,1.25-0.565,1.799-0.86
			c1.1-0.592,1.982-1.204,2.592-1.664c0.3-0.231,0.541-0.421,0.697-0.559c0.159-0.138,0.245-0.212,0.245-0.212
			s-0.03,0.109-0.106,0.308c-0.08,0.196-0.189,0.492-0.382,0.844c-0.374,0.709-1.019,1.68-2.011,2.657
			c-0.495,0.49-1.074,0.984-1.736,1.444c-0.661,0.459-1.404,0.896-2.218,1.258c-0.814,0.368-1.699,0.662-2.62,0.872
			c-0.466,0.096-0.934,0.184-1.41,0.238c-0.233,0.029-0.489,0.043-0.74,0.06l-0.19,0.012l-0.162,0.007l-0.326,0.01
			c-0.293,0.001-0.517-0.007-0.776-0.021c-0.25-0.025-0.502-0.043-0.744-0.08c-0.493-0.068-0.977-0.16-1.438-0.292
			c-0.928-0.251-1.789-0.61-2.58-1.008c-0.786-0.408-1.495-0.864-2.136-1.331c-0.639-0.473-1.204-0.956-1.699-1.427
			c-0.493-0.477-0.917-0.932-1.271-1.354c-0.355-0.426-0.646-0.808-0.871-1.134C71.441,94.088,71.236,93.677,71.236,93.677z"/>
		<path fill="#F38E81" d="M49.654,42.409c4.611-1.025,9.279-5.111,9.279-8.34c0-5.109-9.953-9.951-13.986-10.489
			c-4.034-0.538-11.566,5.381-10.488,7.532c1.074,2.151,5.377-0.807,6.454-0.271C41.987,31.381,41.181,44.29,49.654,42.409z"/>
		<path fill="#B55952" d="M42.763,30.207c0,0-0.001-0.024-0.006-0.066c-0.002-0.043-0.019-0.117-0.015-0.188
			c-0.004-0.157,0.005-0.364,0.047-0.589c0.076-0.444,0.302-0.935,0.645-1.313c0.344-0.383,0.807-0.651,1.244-0.771
			c0.221-0.062,0.426-0.092,0.58-0.103c0.074-0.009,0.146-0.001,0.188-0.002c0.045,0.001,0.07,0.001,0.07,0.001
			s0.002,0.021,0.009,0.067c0.002,0.042,0.015,0.116,0.015,0.189c0.005,0.156-0.006,0.362-0.047,0.588
			c-0.075,0.446-0.299,0.934-0.648,1.312c-0.343,0.382-0.809,0.648-1.243,0.772c-0.22,0.06-0.423,0.089-0.58,0.101
			c-0.071,0.009-0.146,0.003-0.188,0.003C42.789,30.207,42.763,30.207,42.763,30.207z"/>
		<path fill="#F38E81" d="M116.521,42.409c-4.611-1.025-9.279-5.111-9.279-8.34c0-5.109,9.949-9.951,13.987-10.486
			c4.034-0.542,11.564,5.378,10.488,7.529c-1.077,2.151-5.38-0.807-6.454-0.271C124.188,31.381,124.994,44.29,116.521,42.409z"/>
		<path fill="#F38E81" d="M38.149,141.305c0,0,4.857-1.322,5.53-7.789c0.668-6.469-6.056-14.268-6.056-14.268
			s-21.247,21.779-18.288,33.213c2.956,11.434,10.488,13.585,16.136,14.391c5.651,0.807,9.498-2.505,9.498-2.505l-5.734-5.526
			l7.401-2.19c0,0-1.881-2.691-4.974-4.976c-3.097-2.283-8.071,0.404-9.282-1.748C31.17,147.757,33.565,145.553,38.149,141.305z"/>
		<path fill="#B55952" d="M123.41,30.207c0,0-0.022,0-0.07,0c-0.042,0-0.114,0.006-0.188-0.003
			c-0.153-0.012-0.358-0.041-0.577-0.101c-0.438-0.124-0.902-0.391-1.245-0.774c-0.349-0.376-0.568-0.863-0.649-1.311
			c-0.038-0.225-0.049-0.431-0.042-0.587c-0.002-0.073,0.011-0.147,0.013-0.189c0.006-0.046,0.008-0.067,0.008-0.067
			s0.025,0,0.072-0.001c0.039,0.001,0.114-0.007,0.187,0.002c0.157,0.011,0.362,0.041,0.58,0.103
			c0.439,0.12,0.904,0.389,1.244,0.771c0.344,0.38,0.569,0.869,0.648,1.313c0.039,0.225,0.049,0.432,0.041,0.589
			c0.003,0.071-0.01,0.146-0.013,0.188C123.414,30.183,123.41,30.207,123.41,30.207z"/>
		<path fill="#2F160C" d="M64.608,71.369c0,0-0.117,0.1-0.36,0.206c-0.237,0.109-0.609,0.223-1.071,0.24
			c-0.46,0.02-1.013-0.062-1.556-0.277c-0.139-0.043-0.268-0.113-0.403-0.182c-0.138-0.063-0.265-0.142-0.392-0.226
			c-0.13-0.083-0.26-0.164-0.373-0.266l-0.181-0.145l-0.042-0.036l-0.024-0.018l-0.012-0.011l-0.043-0.042l-0.074-0.072
			c-0.096-0.105-0.184-0.187-0.287-0.311c-0.112-0.142-0.216-0.295-0.315-0.443c-0.078-0.149-0.148-0.302-0.215-0.449
			c-0.052-0.16-0.102-0.314-0.139-0.472c-0.021-0.159-0.053-0.312-0.057-0.464c0.004-0.151-0.006-0.3,0.016-0.438
			c0.03-0.281,0.1-0.532,0.184-0.754c0.175-0.438,0.412-0.741,0.595-0.929c0.181-0.191,0.312-0.27,0.312-0.27
			s-0.018,0.151-0.036,0.394c-0.015,0.248-0.031,0.585,0.001,0.955c0.017,0.184,0.046,0.377,0.092,0.566
			c0.021,0.093,0.055,0.185,0.08,0.279c0.034,0.089,0.073,0.18,0.109,0.272c0.047,0.085,0.096,0.172,0.136,0.26
			c0.063,0.08,0.119,0.163,0.168,0.25c0.063,0.07,0.122,0.132,0.17,0.208c0.073,0.083,0.19,0.187,0.281,0.283l0.068,0.073
			l0.002,0.002c-0.068-0.065-0.018-0.017-0.033-0.032l0.005,0.004l0.01,0.009l0.017,0.015l0.033,0.028l0.138,0.117
			c0.09,0.082,0.177,0.16,0.271,0.23c0.181,0.15,0.364,0.285,0.551,0.411c0.182,0.127,0.367,0.241,0.551,0.34
			c0.185,0.104,0.365,0.192,0.539,0.268c0.173,0.083,0.341,0.145,0.492,0.198c0.152,0.054,0.291,0.099,0.408,0.132
			C64.458,71.341,64.608,71.369,64.608,71.369z"/>
		<path fill="#BC237F" d="M119.229,143.68c0,0,0.002-0.006,0.002-0.022c0-0.01,0-0.021,0.004-0.034v-0.02c0-0.002,0-0.002,0-0.002
			c-0.024,0.002,0.043,0.021,0.03,0.009l0,0v0.002v0.011c-0.013,0.067-0.026,0.168-0.053,0.296
			c-0.057,0.258-0.138,0.641-0.295,1.109c-0.301,0.941-0.862,2.269-1.884,3.682c-0.512,0.703-1.137,1.424-1.881,2.107
			c-0.75,0.681-1.619,1.32-2.59,1.867c-0.975,0.543-2.046,0.996-3.169,1.312c-1.124,0.324-2.298,0.522-3.468,0.596l-0.438,0.027
			l-0.248,0.008l-0.203,0.003l-0.821,0.008c-0.589-0.019-1.186-0.036-1.751-0.095c-1.139-0.113-2.258-0.312-3.314-0.626
			c-1.063-0.312-2.059-0.727-2.943-1.232c-0.885-0.498-1.654-1.082-2.292-1.69c-0.64-0.606-1.146-1.237-1.53-1.824
			c-0.392-0.59-0.645-1.148-0.835-1.607c-0.189-0.461-0.278-0.844-0.339-1.101c-0.059-0.257-0.068-0.397-0.068-0.397
			s0.063,0.125,0.201,0.345c0.135,0.221,0.357,0.528,0.646,0.898c0.589,0.739,1.536,1.695,2.846,2.522
			c0.655,0.412,1.397,0.785,2.214,1.104c0.818,0.313,1.705,0.564,2.649,0.741c0.941,0.174,1.932,0.285,2.946,0.319
			c0.514,0.033,1.004,0.022,1.512,0.022l0.821-0.029l0.206-0.006l0.167-0.009l0.38-0.026c1.018-0.087,2.022-0.235,2.989-0.474
			c0.962-0.237,1.889-0.554,2.752-0.94c0.864-0.382,1.667-0.835,2.397-1.328c0.731-0.49,1.393-1.02,1.968-1.55
			c0.584-0.529,1.087-1.058,1.519-1.549c0.425-0.492,0.788-0.942,1.073-1.326c0.272-0.389,0.495-0.699,0.634-0.921
			c0.07-0.108,0.126-0.193,0.16-0.249l0.008-0.012l0.004-0.003l0.002-0.003c-0.014-0.011,0.057,0.006,0.029,0.01
			c0,0.005,0,0.008,0,0.008l-0.011,0.021c-0.005,0.01-0.01,0.018-0.014,0.027C119.234,143.674,119.229,143.68,119.229,143.68z"/>
		<path fill="#F3F3D4" d="M38.896,100.428c0,0-2.963,0.271-3.233,6.726c-0.268,6.454-2.289,11.574,0,14.522
			c2.297,2.95,9.748,8.07,25.991,13.449c16.24,5.378,44.574,8.069,47.216,6.455c2.646-1.613,4.229-4.978,6.71-10.086
			c2.773-5.72,2.993-9.819,0-11.836c-2.99-2.015-30.798-2.419-45.673-6.453C55.032,109.169,44.814,102.579,38.896,100.428z"/>
		<path fill="#BC237F" d="M50.8,163.116c0,0,0.191,0.196,0.594,0.519c0.394,0.332,1.013,0.768,1.808,1.298
			c0.396,0.266,0.859,0.527,1.35,0.824c0.513,0.265,1.048,0.583,1.645,0.872c1.193,0.585,2.562,1.196,4.1,1.749
			c0.382,0.138,0.773,0.279,1.175,0.42c0.397,0.145,0.818,0.253,1.237,0.383c0.422,0.13,0.849,0.261,1.281,0.392
			c0.439,0.119,0.891,0.223,1.342,0.338c0.454,0.113,0.914,0.225,1.376,0.342c0.473,0.091,0.949,0.184,1.431,0.276
			c0.479,0.096,0.967,0.191,1.457,0.287c0.491,0.092,0.997,0.15,1.501,0.229c1.008,0.146,2.03,0.313,3.078,0.388
			c0.523,0.048,1.05,0.1,1.581,0.147c0.262,0.026,0.525,0.054,0.79,0.08l0.801,0.042c1.063,0.054,2.139,0.104,3.216,0.16
			c1.094,0,2.192,0,3.29,0.001c0.556,0.014,1.093-0.015,1.632-0.038c0.544-0.021,1.083-0.043,1.625-0.063
			c1.073-0.021,2.15-0.135,3.22-0.226c0.534-0.044,1.068-0.092,1.596-0.137c0.528-0.063,1.053-0.13,1.573-0.191
			c0.523-0.063,1.04-0.126,1.557-0.189c0.518-0.058,1.022-0.16,1.528-0.238c2.021-0.312,3.961-0.69,5.795-1.088
			c1.83-0.412,3.55-0.852,5.133-1.288c0.785-0.233,1.539-0.457,2.256-0.669c0.712-0.229,1.391-0.447,2.022-0.65
			c0.632-0.22,1.223-0.424,1.769-0.614c0.543-0.204,1.04-0.388,1.488-0.556c0.448-0.176,0.848-0.332,1.194-0.471
			c0.344-0.143,0.638-0.265,0.874-0.364c0.475-0.206,0.724-0.321,0.724-0.321s-0.234,0.141-0.686,0.396
			c-0.45,0.25-1.119,0.614-1.985,1.037c-0.434,0.209-0.919,0.436-1.44,0.686c-0.531,0.241-1.111,0.484-1.729,0.755
			c-0.625,0.251-1.289,0.518-1.989,0.802c-0.703,0.269-1.455,0.522-2.235,0.805c-0.784,0.274-1.611,0.522-2.462,0.802
			c-0.848,0.276-1.749,0.496-2.664,0.755c-1.839,0.484-3.791,0.951-5.837,1.311c-0.513,0.09-1.025,0.206-1.546,0.275
			c-0.523,0.077-1.05,0.156-1.579,0.233c-0.528,0.076-1.06,0.156-1.597,0.233c-0.537,0.052-1.078,0.102-1.619,0.154
			c-1.088,0.102-2.183,0.224-3.295,0.257c-0.555,0.026-1.109,0.053-1.664,0.079c-0.558,0.026-1.116,0.061-1.665,0.049
			c-1.097-0.011-2.197-0.021-3.291-0.03c-1.108-0.063-2.213-0.127-3.31-0.189l-0.815-0.048c-0.271-0.032-0.542-0.063-0.811-0.094
			c-0.535-0.062-1.073-0.124-1.606-0.188c-1.063-0.103-2.106-0.3-3.134-0.475c-0.511-0.088-1.022-0.164-1.521-0.269
			c-0.503-0.114-0.994-0.229-1.484-0.34c-0.488-0.116-0.968-0.23-1.445-0.346c-0.471-0.139-0.936-0.272-1.395-0.407
			c-0.457-0.135-0.912-0.26-1.354-0.398c-0.437-0.156-0.866-0.311-1.292-0.459c-0.421-0.158-0.841-0.291-1.239-0.462
			c-0.401-0.168-0.793-0.334-1.177-0.497c-1.539-0.642-2.886-1.368-4.053-2.044c-0.583-0.343-1.108-0.696-1.6-1.013
			c-0.473-0.347-0.913-0.648-1.293-0.95c-0.763-0.6-1.324-1.112-1.684-1.483C50.973,163.331,50.8,163.116,50.8,163.116z"/>
		<path fill="#BC237F" d="M51.074,178.595c0,0,0.241,0.101,0.697,0.286c0.452,0.187,1.126,0.434,1.98,0.754
			c0.857,0.315,1.903,0.673,3.105,1.075c0.604,0.193,1.242,0.408,1.925,0.605c0.339,0.105,0.687,0.213,1.044,0.322
			c0.356,0.104,0.723,0.21,1.096,0.319c0.744,0.224,1.528,0.428,2.339,0.641c0.808,0.226,1.653,0.426,2.513,0.646
			c0.864,0.217,1.758,0.403,2.665,0.612c0.917,0.192,1.849,0.386,2.796,0.583c0.953,0.167,1.922,0.358,2.906,0.519
			c0.49,0.075,0.986,0.152,1.483,0.229l0.748,0.123l0.188,0.032l0.17,0.022l0.382,0.053c0.508,0.067,1.019,0.135,1.532,0.202
			c0.501,0.053,1.002,0.104,1.505,0.156c1.015,0.085,2.04,0.169,3.065,0.208c2.05,0.109,4.107,0.135,6.13,0.089
			c2.026-0.059,4.021-0.154,5.948-0.333c1.926-0.181,3.786-0.381,5.549-0.635c1.759-0.262,3.421-0.532,4.951-0.817
			c1.527-0.293,2.927-0.577,4.165-0.854c1.235-0.282,2.314-0.537,3.199-0.767c0.884-0.229,1.579-0.408,2.049-0.544
			c0.47-0.135,0.725-0.208,0.725-0.208s-0.233,0.123-0.679,0.329c-0.444,0.205-1.103,0.511-1.954,0.854
			c-0.85,0.347-1.888,0.758-3.101,1.171c-1.21,0.422-2.585,0.87-4.105,1.291c-1.521,0.431-3.18,0.857-4.954,1.221
			c-1.774,0.367-3.659,0.713-5.626,0.957c-1.965,0.247-4.007,0.46-6.088,0.55c-2.083,0.099-4.208,0.082-6.324-0.02
			c-1.064-0.053-2.118-0.154-3.174-0.254c-0.53-0.064-1.062-0.125-1.587-0.186c-0.514-0.075-1.027-0.15-1.534-0.223
			c-1.051-0.153-2.044-0.357-3.052-0.551c-1-0.203-1.977-0.435-2.943-0.646c-0.959-0.241-1.908-0.468-2.821-0.722
			c-0.913-0.271-1.812-0.52-2.672-0.797c-1.731-0.539-3.344-1.105-4.814-1.688c-1.477-0.558-2.801-1.146-3.965-1.679
			c-0.583-0.265-1.123-0.525-1.621-0.773c-0.491-0.255-0.941-0.487-1.35-0.699c-0.813-0.431-1.434-0.798-1.855-1.054
			C51.289,178.745,51.074,178.595,51.074,178.595z"/>
		<path fill="#E0D49F" d="M99.613,118.035c0,0,0.243,0.017,0.654,0.071c0.412,0.055,0.994,0.146,1.685,0.28
			c0.687,0.137,1.481,0.314,2.321,0.527c0.828,0.22,1.713,0.455,2.596,0.688c0.219,0.063,0.432,0.105,0.646,0.162
			c0.219,0.049,0.438,0.095,0.654,0.141c0.221,0.051,0.445,0.102,0.662,0.153c0.226,0.063,0.445,0.123,0.664,0.185
			c0.438,0.12,0.834,0.258,1.22,0.392c0.382,0.135,0.736,0.277,1.067,0.407c0.649,0.274,1.184,0.524,1.556,0.717
			c0.37,0.189,0.573,0.314,0.573,0.314s-0.241-0.005-0.652-0.038c-0.205-0.019-0.459-0.031-0.743-0.068
			c-0.283-0.03-0.604-0.059-0.949-0.107c-0.351-0.041-0.722-0.093-1.117-0.15c-0.39-0.057-0.802-0.118-1.229-0.18
			c-0.207-0.032-0.418-0.064-0.632-0.097c-0.223-0.027-0.448-0.06-0.677-0.089c-0.231-0.038-0.466-0.073-0.704-0.109
			c-0.237-0.05-0.479-0.101-0.711-0.158c-0.467-0.116-0.921-0.247-1.364-0.395c-0.44-0.143-0.866-0.299-1.279-0.457
			c-0.412-0.161-0.803-0.326-1.17-0.49c-0.367-0.166-0.713-0.331-1.028-0.491c-0.628-0.321-1.14-0.619-1.493-0.841
			C99.807,118.18,99.613,118.035,99.613,118.035z"/>
		<path fill="#F3F3D4" d="M107.242,136.68c0,0-2.176,12.106-2.046,19.637c0.131,7.529,0.759,12.91,0.759,12.91
			s-7.991,5.646-14.932,4.571c-6.944-1.077-13.398-5.111-13.398-5.111s6.727-26.895,10.085-34.156
			C91.071,127.267,107.242,136.68,107.242,136.68z"/>
		<path fill="#232323" d="M149.438,79.09c0,0-8.338,29.732-6.726,31.692c1.613,1.964,13.206,6.214,15.735,2.734
			c3.153-4.348,9.277-25.367,9.277-30.359C167.727,80.702,149.688,76.164,149.438,79.09z"/>
		<path fill="#818282" d="M151.191,109.214c-2.037-1.465-3.932,0.634-2.317,2.537C150.487,113.652,154.183,111.369,151.191,109.214z
			"/>
		<path fill="#5669B0" d="M151.851,80.702c-1.845,0.646-6.141,20.215-6.314,23.167c-0.126,2.153,3.62,3.094,5.508,3.632
			c1.888,0.537,6.461,2.421,7.538,0c1.075-2.42,7.396-20.716,5.513-23.136C162.212,81.949,155.013,79.6,151.851,80.702z"/>
		<path fill="#E0D49F" d="M38.889,104.568c0,0,0.04,0.033,0.104,0.094c0.057,0.061,0.165,0.15,0.259,0.266
			c0.101,0.113,0.231,0.254,0.353,0.414c0.12,0.162,0.245,0.346,0.369,0.548c0.241,0.401,0.465,0.872,0.628,1.384
			c0.166,0.513,0.27,1.063,0.31,1.619c0.041,0.555,0.018,1.115-0.073,1.644c-0.09,0.528-0.244,1.029-0.43,1.46
			c-0.093,0.218-0.189,0.415-0.289,0.592c-0.094,0.177-0.204,0.332-0.288,0.462c-0.08,0.126-0.173,0.23-0.224,0.299
			c-0.053,0.069-0.092,0.107-0.092,0.107s-0.04-0.032-0.104-0.093c-0.06-0.061-0.165-0.15-0.264-0.267
			c-0.103-0.113-0.23-0.254-0.354-0.415c-0.119-0.16-0.245-0.344-0.367-0.545c-0.241-0.4-0.468-0.872-0.629-1.385
			c-0.166-0.514-0.269-1.063-0.307-1.618c-0.04-0.556-0.015-1.115,0.079-1.646c0.09-0.53,0.247-1.028,0.428-1.461
			c0.093-0.215,0.19-0.415,0.288-0.591c0.094-0.177,0.204-0.333,0.287-0.46c0.079-0.127,0.172-0.23,0.221-0.299
			C38.852,104.606,38.889,104.568,38.889,104.568z"/>
		<path fill="#E0D49F" d="M46.157,108.711c0,0,0.042,0.023,0.104,0.069c0.059,0.051,0.166,0.117,0.26,0.21
			c0.102,0.092,0.229,0.199,0.348,0.326c0.125,0.127,0.247,0.271,0.368,0.433c0.241,0.317,0.464,0.694,0.623,1.104
			c0.165,0.41,0.267,0.852,0.309,1.299c0.036,0.451,0.014,0.902-0.083,1.334c-0.088,0.431-0.244,0.839-0.428,1.193
			c-0.096,0.176-0.193,0.341-0.293,0.487c-0.095,0.144-0.206,0.275-0.291,0.38c-0.077,0.105-0.171,0.189-0.222,0.249
			c-0.057,0.059-0.091,0.09-0.091,0.09s-0.04-0.028-0.106-0.072c-0.059-0.049-0.163-0.118-0.26-0.208
			c-0.103-0.09-0.23-0.202-0.351-0.328c-0.123-0.125-0.245-0.271-0.367-0.43c-0.242-0.318-0.465-0.695-0.625-1.104
			c-0.164-0.411-0.264-0.854-0.301-1.301c-0.034-0.449-0.012-0.902,0.084-1.336c0.09-0.43,0.246-0.841,0.429-1.192
			c0.095-0.178,0.193-0.34,0.29-0.484c0.097-0.149,0.207-0.277,0.293-0.382c0.076-0.106,0.168-0.191,0.219-0.248
			C46.121,108.742,46.157,108.711,46.157,108.711z"/>
		<path fill="#E0D49F" d="M54.465,111.938c0,0,0.04,0.027,0.102,0.082c0.057,0.055,0.164,0.136,0.257,0.242
			c0.099,0.104,0.227,0.229,0.343,0.377c0.119,0.144,0.239,0.311,0.359,0.491c0.233,0.363,0.449,0.789,0.604,1.253
			c0.156,0.463,0.245,0.958,0.28,1.458c0.026,0.5-0.005,1.005-0.104,1.481c-0.103,0.476-0.265,0.925-0.454,1.313
			c-0.1,0.193-0.2,0.372-0.302,0.53c-0.097,0.16-0.212,0.299-0.3,0.416c-0.079,0.113-0.173,0.207-0.227,0.268
			c-0.055,0.063-0.093,0.094-0.093,0.094s-0.041-0.027-0.104-0.084c-0.058-0.052-0.164-0.133-0.259-0.238
			c-0.099-0.106-0.226-0.231-0.342-0.379c-0.118-0.145-0.24-0.309-0.359-0.491c-0.235-0.362-0.451-0.792-0.605-1.251
			c-0.158-0.463-0.246-0.958-0.275-1.46c-0.025-0.501,0.008-1.004,0.109-1.481c0.1-0.477,0.263-0.926,0.452-1.313
			c0.099-0.194,0.199-0.374,0.299-0.531c0.102-0.16,0.214-0.3,0.3-0.414c0.08-0.116,0.173-0.207,0.228-0.267
			C54.426,111.97,54.465,111.938,54.465,111.938z"/>
		<path fill="#E0D49F" d="M37.742,120.718c0,0,0-0.043-0.002-0.124c0.006-0.071-0.002-0.192,0.015-0.314
			c0.015-0.126,0.027-0.289,0.059-0.447c0.03-0.165,0.072-0.338,0.128-0.514c0.111-0.354,0.275-0.722,0.498-1.053
			c0.223-0.334,0.504-0.628,0.821-0.878c0.321-0.245,0.679-0.443,1.059-0.57c0.376-0.134,0.773-0.197,1.143-0.213
			c0.187-0.006,0.367-0.002,0.531,0.013c0.163,0.008,0.32,0.04,0.45,0.058c0.123,0.018,0.238,0.054,0.31,0.068
			c0.073,0.019,0.114,0.033,0.114,0.033s0.007,0.048,0.002,0.124c-0.002,0.069,0.007,0.193-0.011,0.316
			c-0.012,0.127-0.026,0.289-0.057,0.449c-0.031,0.165-0.072,0.338-0.128,0.513c-0.11,0.354-0.275,0.722-0.498,1.054
			c-0.222,0.335-0.507,0.626-0.824,0.875c-0.323,0.241-0.682,0.439-1.061,0.568c-0.378,0.129-0.775,0.193-1.143,0.209
			c-0.189,0.009-0.365,0.004-0.532-0.008c-0.161-0.011-0.319-0.039-0.445-0.062c-0.125-0.013-0.241-0.052-0.312-0.064
			C37.783,120.729,37.742,120.718,37.742,120.718z"/>
		<path fill="#E0D49F" d="M46.097,125.254c0,0-0.004-0.048-0.004-0.126c0.002-0.071-0.01-0.193,0.007-0.32
			c0.008-0.129,0.017-0.293,0.047-0.458c0.024-0.167,0.061-0.345,0.114-0.529c0.102-0.365,0.258-0.747,0.476-1.1
			c0.217-0.354,0.498-0.674,0.815-0.946c0.32-0.271,0.682-0.497,1.064-0.652c0.382-0.158,0.785-0.253,1.163-0.293
			c0.189-0.019,0.373-0.025,0.543-0.024c0.168,0,0.328,0.02,0.462,0.033c0.125,0.005,0.245,0.035,0.319,0.046
			c0.075,0.013,0.121,0.027,0.121,0.027s0.003,0.045,0.003,0.124c-0.002,0.072,0.011,0.197-0.003,0.321
			c-0.009,0.131-0.018,0.296-0.046,0.461c-0.026,0.166-0.063,0.345-0.114,0.529c-0.101,0.367-0.26,0.749-0.48,1.101
			c-0.214,0.354-0.494,0.672-0.813,0.945c-0.326,0.268-0.686,0.488-1.068,0.646c-0.383,0.157-0.786,0.25-1.164,0.291
			c-0.189,0.02-0.372,0.027-0.541,0.026c-0.169,0-0.33-0.019-0.462-0.033c-0.124-0.004-0.243-0.034-0.317-0.043
			C46.143,125.266,46.097,125.254,46.097,125.254z"/>
		<path fill="#E0D49F" d="M62.599,114.906c0,0,0.045,0.022,0.11,0.063c0.063,0.039,0.172,0.096,0.278,0.175
			c0.105,0.075,0.244,0.166,0.372,0.277c0.132,0.113,0.267,0.239,0.403,0.381c0.266,0.281,0.519,0.621,0.714,0.999
			c0.2,0.378,0.336,0.794,0.414,1.221c0.076,0.425,0.091,0.861,0.035,1.283c-0.055,0.423-0.173,0.83-0.328,1.187
			c-0.081,0.179-0.163,0.345-0.25,0.493c-0.083,0.148-0.183,0.282-0.256,0.394c-0.071,0.106-0.155,0.198-0.201,0.257
			c-0.051,0.06-0.085,0.095-0.085,0.095s-0.043-0.02-0.109-0.058c-0.064-0.041-0.175-0.098-0.278-0.177
			c-0.106-0.076-0.244-0.169-0.375-0.277c-0.133-0.111-0.27-0.242-0.404-0.38c-0.268-0.282-0.521-0.625-0.713-1.002
			c-0.199-0.375-0.333-0.792-0.412-1.219c-0.07-0.427-0.085-0.862-0.028-1.285c0.054-0.423,0.177-0.828,0.329-1.187
			c0.078-0.177,0.16-0.344,0.246-0.494c0.082-0.146,0.182-0.282,0.258-0.393c0.067-0.106,0.153-0.198,0.198-0.257
			C62.567,114.943,62.599,114.906,62.599,114.906z"/>
		<path fill="#E0D49F" d="M71.675,118.343c0,0,0.036,0.03,0.096,0.089c0.05,0.057,0.146,0.142,0.226,0.244
			c0.089,0.104,0.201,0.232,0.299,0.377c0.104,0.144,0.206,0.306,0.305,0.483c0.193,0.355,0.362,0.762,0.466,1.195
			c0.107,0.436,0.144,0.893,0.12,1.35c-0.027,0.455-0.109,0.907-0.265,1.327c-0.15,0.419-0.359,0.808-0.594,1.137
			c-0.117,0.163-0.236,0.314-0.354,0.446c-0.116,0.135-0.242,0.249-0.342,0.345c-0.096,0.092-0.196,0.167-0.255,0.217
			c-0.063,0.049-0.103,0.075-0.103,0.075s-0.039-0.028-0.096-0.087c-0.052-0.058-0.146-0.141-0.228-0.244
			c-0.09-0.103-0.201-0.234-0.302-0.377c-0.104-0.146-0.208-0.309-0.304-0.484c-0.196-0.354-0.364-0.763-0.466-1.196
			c-0.104-0.434-0.141-0.893-0.115-1.347c0.026-0.457,0.115-0.907,0.269-1.328c0.149-0.421,0.36-0.808,0.592-1.137
			c0.118-0.166,0.236-0.316,0.354-0.451c0.118-0.129,0.244-0.241,0.342-0.338c0.091-0.096,0.196-0.168,0.253-0.219
			C71.638,118.369,71.675,118.343,71.675,118.343z"/>
		<path fill="#E0D49F" d="M62.914,132.282c0,0-0.016-0.046-0.031-0.129c-0.006-0.077-0.038-0.205-0.047-0.343
			c-0.011-0.143-0.032-0.317-0.032-0.501c0-0.187,0.008-0.39,0.028-0.602c0.046-0.425,0.144-0.884,0.313-1.329
			c0.164-0.45,0.401-0.882,0.689-1.283c0.285-0.398,0.625-0.759,1.001-1.055c0.371-0.3,0.778-0.535,1.168-0.708
			c0.196-0.084,0.385-0.158,0.564-0.212c0.174-0.058,0.346-0.092,0.486-0.126c0.134-0.035,0.265-0.042,0.344-0.058
			c0.082-0.013,0.129-0.015,0.129-0.015s0.014,0.049,0.03,0.131c0.011,0.077,0.041,0.207,0.049,0.343
			c0.013,0.143,0.033,0.318,0.031,0.502c0.005,0.188-0.004,0.392-0.025,0.603c-0.044,0.424-0.143,0.883-0.31,1.331
			s-0.405,0.88-0.694,1.278c-0.29,0.396-0.628,0.755-1.006,1.054c-0.373,0.297-0.779,0.534-1.167,0.705
			c-0.194,0.086-0.384,0.158-0.562,0.212c-0.175,0.062-0.35,0.096-0.485,0.13c-0.138,0.033-0.265,0.044-0.345,0.058
			C62.962,132.281,62.914,132.282,62.914,132.282z"/>
		<path fill="#E0D49F" d="M54.146,128.854c0,0-0.016-0.046-0.025-0.128c-0.008-0.082-0.034-0.207-0.036-0.345
			c-0.008-0.141-0.022-0.316-0.016-0.499c0.005-0.188,0.021-0.389,0.052-0.598c0.055-0.418,0.17-0.873,0.353-1.313
			c0.18-0.439,0.433-0.86,0.729-1.248c0.304-0.382,0.654-0.729,1.036-1.01c0.382-0.283,0.796-0.502,1.19-0.657
			c0.195-0.077,0.389-0.142,0.565-0.188c0.179-0.05,0.354-0.079,0.491-0.104c0.137-0.031,0.267-0.034,0.345-0.045
			c0.084-0.011,0.131-0.011,0.131-0.011s0.012,0.05,0.024,0.131c0.007,0.078,0.036,0.209,0.039,0.346
			c0.005,0.141,0.02,0.317,0.014,0.502c-0.002,0.185-0.021,0.385-0.046,0.597c-0.058,0.419-0.174,0.874-0.355,1.312
			c-0.181,0.437-0.434,0.86-0.735,1.244c-0.304,0.383-0.652,0.729-1.039,1.008c-0.382,0.28-0.793,0.5-1.188,0.658
			c-0.195,0.077-0.388,0.138-0.568,0.187c-0.174,0.053-0.35,0.08-0.487,0.106c-0.136,0.029-0.265,0.035-0.345,0.047
			C54.195,128.853,54.146,128.854,54.146,128.854z"/>
		<path fill="#E0D49F" d="M79.65,119.648c0,0,0.038,0.029,0.101,0.083c0.057,0.051,0.161,0.127,0.254,0.226
			c0.098,0.101,0.228,0.22,0.338,0.357c0.119,0.139,0.24,0.297,0.355,0.469c0.234,0.344,0.444,0.747,0.594,1.185
			c0.155,0.436,0.243,0.907,0.269,1.383c0.025,0.473-0.011,0.95-0.117,1.401c-0.102,0.45-0.271,0.875-0.464,1.241
			c-0.099,0.182-0.201,0.352-0.306,0.503c-0.1,0.15-0.213,0.28-0.299,0.391c-0.085,0.107-0.177,0.193-0.23,0.252
			c-0.057,0.06-0.094,0.092-0.094,0.092s-0.041-0.029-0.104-0.081c-0.057-0.052-0.162-0.129-0.253-0.228
			c-0.099-0.098-0.229-0.217-0.344-0.356c-0.119-0.137-0.236-0.295-0.356-0.467c-0.229-0.346-0.442-0.749-0.593-1.187
			c-0.151-0.438-0.238-0.907-0.266-1.383c-0.02-0.473,0.02-0.952,0.122-1.401c0.104-0.45,0.272-0.876,0.468-1.242
			c0.095-0.183,0.199-0.35,0.302-0.5c0.099-0.153,0.215-0.285,0.3-0.392c0.08-0.107,0.179-0.196,0.23-0.254
			C79.611,119.683,79.65,119.648,79.65,119.648z"/>
		<path fill="#E0D49F" d="M87.566,120.964c0,0,0.04,0.026,0.105,0.077c0.058,0.055,0.164,0.131,0.26,0.232
			c0.104,0.1,0.234,0.219,0.355,0.361c0.121,0.141,0.249,0.301,0.373,0.479c0.247,0.352,0.475,0.769,0.642,1.221
			c0.173,0.453,0.279,0.942,0.327,1.438c0.041,0.495,0.024,0.997-0.061,1.473c-0.086,0.476-0.235,0.927-0.417,1.315
			c-0.089,0.196-0.186,0.377-0.282,0.536c-0.093,0.161-0.2,0.305-0.284,0.422c-0.078,0.113-0.171,0.21-0.219,0.271
			c-0.056,0.064-0.092,0.098-0.092,0.098s-0.042-0.025-0.106-0.078c-0.059-0.054-0.166-0.129-0.264-0.23
			c-0.104-0.099-0.232-0.223-0.357-0.362c-0.124-0.141-0.248-0.302-0.375-0.477c-0.244-0.353-0.473-0.77-0.639-1.224
			c-0.169-0.453-0.276-0.942-0.321-1.436c-0.04-0.497-0.022-0.998,0.065-1.474c0.085-0.476,0.234-0.926,0.414-1.315
			c0.088-0.195,0.186-0.378,0.281-0.537c0.097-0.161,0.203-0.304,0.285-0.419c0.076-0.115,0.17-0.209,0.218-0.275
			C87.529,120.997,87.566,120.964,87.566,120.964z"/>
		<path fill="#E0D49F" d="M94.173,122.072c0,0,0.053,0.016,0.138,0.052c0.077,0.036,0.213,0.085,0.347,0.161
			c0.14,0.073,0.318,0.163,0.492,0.272c0.181,0.11,0.367,0.245,0.563,0.394c0.386,0.302,0.783,0.675,1.142,1.113
			c0.36,0.435,0.677,0.937,0.939,1.461c0.262,0.524,0.465,1.079,0.596,1.63c0.129,0.55,0.188,1.093,0.193,1.581
			c0,0.249-0.013,0.477-0.032,0.689c-0.017,0.206-0.055,0.398-0.083,0.558c-0.02,0.152-0.067,0.288-0.085,0.374
			c-0.023,0.089-0.041,0.139-0.041,0.139s-0.051-0.016-0.137-0.052c-0.079-0.035-0.213-0.083-0.348-0.16
			c-0.143-0.072-0.319-0.16-0.493-0.272c-0.181-0.111-0.368-0.242-0.563-0.392c-0.387-0.298-0.786-0.677-1.145-1.114
			c-0.359-0.437-0.673-0.937-0.936-1.461c-0.257-0.527-0.461-1.081-0.589-1.632c-0.133-0.552-0.189-1.097-0.193-1.585
			c0-0.244,0.008-0.476,0.029-0.685c0.018-0.211,0.057-0.402,0.083-0.558c0.021-0.153,0.064-0.29,0.081-0.375
			C94.156,122.122,94.173,122.072,94.173,122.072z"/>
		<path fill="#E0D49F" d="M105.222,124.081c0,0,0.037,0.028,0.101,0.076c0.057,0.055,0.159,0.13,0.25,0.224
			c0.096,0.097,0.221,0.215,0.336,0.351c0.112,0.136,0.232,0.287,0.346,0.453c0.227,0.337,0.434,0.731,0.58,1.153
			c0.145,0.425,0.229,0.879,0.247,1.336c0.02,0.461-0.023,0.919-0.137,1.354c-0.109,0.434-0.281,0.843-0.479,1.193
			c-0.103,0.177-0.207,0.34-0.313,0.483c-0.102,0.145-0.22,0.272-0.306,0.376c-0.085,0.104-0.183,0.186-0.233,0.241
			c-0.06,0.056-0.096,0.086-0.096,0.086s-0.04-0.027-0.102-0.079c-0.059-0.053-0.16-0.124-0.252-0.222
			c-0.098-0.096-0.223-0.214-0.338-0.35c-0.115-0.134-0.232-0.288-0.348-0.453c-0.229-0.336-0.433-0.729-0.578-1.15
			c-0.146-0.425-0.225-0.882-0.245-1.34c-0.015-0.458,0.028-0.918,0.142-1.352c0.109-0.435,0.281-0.845,0.479-1.196
			c0.102-0.176,0.208-0.338,0.313-0.481c0.101-0.144,0.218-0.27,0.305-0.374c0.082-0.104,0.181-0.186,0.231-0.242
			C105.184,124.111,105.222,124.081,105.222,124.081z"/>
		<path fill="#E0D49F" d="M113.716,125.578c0,0,0.027,0.031,0.079,0.09c0.043,0.056,0.127,0.144,0.192,0.246
			c0.072,0.104,0.166,0.23,0.243,0.369c0.085,0.138,0.163,0.296,0.238,0.461c0.143,0.332,0.254,0.705,0.298,1.088
			c0.048,0.386,0.024,0.778-0.059,1.16c-0.086,0.378-0.228,0.745-0.435,1.072c-0.203,0.329-0.462,0.62-0.736,0.856
			c-0.137,0.12-0.272,0.229-0.408,0.321c-0.129,0.088-0.269,0.164-0.382,0.227c-0.103,0.063-0.215,0.108-0.279,0.14
			c-0.071,0.031-0.111,0.048-0.111,0.048s-0.028-0.032-0.079-0.09c-0.044-0.056-0.127-0.146-0.194-0.247
			c-0.072-0.104-0.168-0.23-0.249-0.37c-0.082-0.138-0.162-0.293-0.234-0.46c-0.146-0.33-0.257-0.706-0.298-1.089
			c-0.048-0.384-0.024-0.776,0.06-1.158c0.089-0.378,0.232-0.743,0.443-1.071c0.201-0.33,0.461-0.62,0.732-0.859
			c0.138-0.119,0.274-0.226,0.41-0.316c0.129-0.09,0.269-0.167,0.379-0.229c0.104-0.064,0.213-0.109,0.279-0.143
			C113.675,125.596,113.716,125.578,113.716,125.578z"/>
		<path fill="#E0D49F" d="M87.71,141.443c0,0,0.267-0.035,0.72-0.063c0.23-0.021,0.505-0.046,0.814-0.058
			c0.313-0.017,0.664-0.019,1.044-0.031c0.764-0.032,1.649-0.024,2.587,0.007c0.471-0.003,0.957,0.007,1.447,0.026
			c0.492,0.018,0.989,0.05,1.488,0.085c0.99,0.05,1.981,0.098,2.908,0.145c0.934,0.052,1.807,0.101,2.555,0.143
			c0.382,0.029,0.729,0.05,1.039,0.071c0.309,0.027,0.582,0.049,0.807,0.069c0.451,0.037,0.717,0.068,0.717,0.068
			s-0.059,0.033-0.17,0.088c-0.11,0.05-0.273,0.135-0.488,0.216c-0.213,0.083-0.471,0.196-0.772,0.29
			c-0.306,0.093-0.648,0.208-1.025,0.297c-0.381,0.087-0.793,0.194-1.233,0.263c-0.439,0.063-0.902,0.152-1.395,0.186
			c-0.244,0.023-0.495,0.038-0.747,0.057c-0.254,0.019-0.513,0.036-0.76,0.028c-0.249,0.002-0.501,0.009-0.753,0l-0.38-0.005
			l-0.188-0.002l-0.117-0.004l-0.098-0.009c-0.513-0.043-1.023-0.085-1.526-0.144c-0.505-0.054-0.997-0.12-1.473-0.192
			c-0.477-0.081-0.933-0.188-1.36-0.284c-0.433-0.103-0.839-0.207-1.211-0.311c-0.745-0.222-1.354-0.457-1.773-0.631
			c-0.213-0.083-0.373-0.172-0.487-0.221C87.77,141.473,87.71,141.443,87.71,141.443z"/>
		<path fill="#F6C650" d="M35.09,147.207c0,0-0.075-0.094-0.234-0.232c-0.159-0.145-0.41-0.336-0.732-0.569
			c-0.324-0.232-0.727-0.498-1.193-0.786c-0.471-0.278-1.01-0.581-1.606-0.867c-1.199-0.563-2.649-1.088-4.204-1.216
			c-0.776-0.07-1.572-0.032-2.349,0.144c-0.777,0.167-1.534,0.47-2.249,0.878c-0.084,0.045-0.191,0.104-0.254,0.145
			c-0.091,0.059-0.206,0.127-0.277,0.183c-0.146,0.103-0.313,0.221-0.467,0.348c-0.311,0.249-0.591,0.529-0.844,0.827
			c-0.507,0.601-0.896,1.289-1.17,2.016c-0.275,0.725-0.438,1.483-0.528,2.217c-0.081,0.735-0.114,1.45-0.08,2.114
			c0.036,0.661,0.088,1.276,0.179,1.815c0.096,0.537,0.186,1.011,0.298,1.389c0.11,0.378,0.213,0.674,0.317,0.856
			c0.096,0.193,0.208,0.241,0.21,0.233c0.005,0.009-0.133-0.003-0.29-0.171c-0.158-0.159-0.36-0.42-0.565-0.779
			c-0.202-0.359-0.435-0.809-0.634-1.351c-0.201-0.536-0.412-1.158-0.549-1.863c-0.137-0.7-0.253-1.479-0.253-2.317
			c-0.008-0.838,0.085-1.738,0.342-2.648c0.251-0.91,0.689-1.828,1.305-2.644c0.311-0.404,0.669-0.778,1.058-1.119
			c0.194-0.17,0.393-0.327,0.619-0.487c0.114-0.083,0.195-0.134,0.294-0.201c0.13-0.083,0.226-0.133,0.339-0.2
			c0.867-0.521,1.843-0.89,2.834-1.078c0.499-0.094,0.998-0.131,1.49-0.144c0.489,0.01,0.974,0.04,1.439,0.117
			c1.869,0.31,3.415,1.115,4.571,1.957c0.585,0.415,1.081,0.839,1.495,1.246c0.413,0.396,0.744,0.775,0.999,1.098
			c0.258,0.32,0.433,0.597,0.545,0.785C35.061,147.095,35.09,147.207,35.09,147.207z"/>
		<path fill="#F6C650" d="M33.4,148.13c0,0-0.156-0.01-0.45-0.024c-0.29-0.02-0.72-0.021-1.253-0.03
			c-0.538-0.004-1.182,0.001-1.908,0.04c-0.724,0.042-1.53,0.112-2.371,0.263c-0.842,0.145-1.723,0.37-2.549,0.718
			c-0.83,0.346-1.596,0.827-2.211,1.443c-0.305,0.316-0.587,0.652-0.823,1.036c-0.235,0.38-0.441,0.799-0.618,1.242
			c-0.336,0.894-0.555,1.914-0.64,2.987c-0.061,0.532-0.079,1.088-0.085,1.63c0.006,0.487,0.027,0.991,0.109,1.452
			c0.082,0.468,0.198,0.915,0.356,1.338c0.161,0.421,0.366,0.813,0.607,1.191c0.487,0.744,1.138,1.393,1.871,1.93
			c0.73,0.539,1.532,0.971,2.311,1.315c0.779,0.35,1.538,0.611,2.229,0.812c0.689,0.204,1.31,0.345,1.831,0.439
			c0.516,0.089,0.935,0.145,1.213,0.138c0.141-0.003,0.248-0.011,0.318-0.031c0.068-0.02,0.093-0.054,0.093-0.054
			c0.02,0-0.07,0.168-0.355,0.296c-0.277,0.132-0.699,0.296-1.25,0.415c-1.095,0.243-2.72,0.414-4.686,0.105
			c-0.98-0.159-2.051-0.444-3.142-0.958c-1.078-0.514-2.19-1.271-3.104-2.343c-0.92-1.063-1.604-2.433-1.913-3.855
			c-0.16-0.715-0.254-1.426-0.267-2.151c-0.004-0.677,0.004-1.343,0.068-2.024c0.138-1.358,0.428-2.759,1.037-4.079
			c0.587-1.319,1.516-2.542,2.651-3.399c1.128-0.875,2.405-1.374,3.587-1.618c1.187-0.247,2.295-0.258,3.283-0.178
			c0.99,0.088,1.865,0.275,2.62,0.485c0.751,0.211,1.383,0.447,1.895,0.668c0.507,0.218,0.892,0.429,1.152,0.566
			C33.269,148.039,33.4,148.13,33.4,148.13z"/>
		<path fill="#BC237F" d="M39.295,140.685c0,0,0.066-0.013,0.172-0.059c0.11-0.037,0.26-0.121,0.442-0.23
			c0.175-0.116,0.378-0.274,0.586-0.476c0.106-0.104,0.22-0.21,0.318-0.342c0.106-0.121,0.217-0.252,0.319-0.399
			c0.109-0.141,0.213-0.295,0.311-0.463c0.104-0.163,0.205-0.332,0.302-0.518c0.209-0.352,0.375-0.758,0.557-1.168
			c0.084-0.21,0.171-0.421,0.259-0.638c0.076-0.218,0.157-0.443,0.236-0.666c0.086-0.221,0.146-0.456,0.221-0.687
			c0.067-0.227,0.154-0.468,0.21-0.689l0.094-0.358l0.078-0.335c0.048-0.227,0.094-0.459,0.127-0.686
			c0.07-0.459,0.108-0.91,0.114-1.348c0.004-0.437-0.024-0.861-0.081-1.262c-0.063-0.397-0.153-0.771-0.254-1.113
			c-0.212-0.682-0.489-1.23-0.712-1.603c-0.223-0.37-0.387-0.567-0.387-0.567s0.229,0.117,0.566,0.42
			c0.336,0.297,0.784,0.786,1.152,1.487c0.189,0.346,0.357,0.747,0.482,1.186c0.131,0.438,0.223,0.915,0.26,1.414
			c0.038,0.495,0.029,1.013-0.033,1.532c-0.023,0.26-0.073,0.516-0.122,0.775l-0.087,0.395c-0.031,0.127-0.064,0.242-0.1,0.364
			c-0.158,0.506-0.312,0.98-0.501,1.455c-0.099,0.235-0.198,0.466-0.294,0.693c-0.107,0.227-0.224,0.445-0.334,0.662
			c-0.104,0.219-0.241,0.418-0.364,0.619c-0.119,0.201-0.254,0.391-0.387,0.57c-0.066,0.089-0.133,0.178-0.197,0.267
			c-0.065,0.087-0.145,0.165-0.216,0.243c-0.137,0.16-0.277,0.308-0.427,0.441c-0.142,0.137-0.283,0.264-0.431,0.367
			c-0.139,0.114-0.288,0.202-0.424,0.286c-0.271,0.172-0.537,0.271-0.755,0.341C39.556,140.726,39.295,140.685,39.295,140.685z"/>
		<path fill="#BC237F" d="M50.016,143.68c0,0-0.007-0.006-0.013-0.021c-0.003-0.011-0.008-0.02-0.013-0.028l-0.007-0.021
			l-0.003-0.008c-0.019-0.003,0.029-0.016,0.022-0.007l0.002,0.001l0.002,0.003l0.009,0.012c0.031,0.059,0.081,0.145,0.146,0.258
			c0.125,0.224,0.324,0.548,0.586,0.945c0.267,0.396,0.603,0.866,1.011,1.377c0.415,0.509,0.904,1.062,1.471,1.619
			c0.576,0.551,1.229,1.106,1.962,1.625c0.733,0.521,1.545,1.001,2.425,1.405c0.879,0.41,1.825,0.744,2.813,0.992
			c0.986,0.25,2.014,0.406,3.056,0.491l0.389,0.024l0.18,0.013l0.203,0.003l0.821,0.027c0.521-0.003,1.025,0.006,1.548-0.031
			c1.031-0.048,2.039-0.169,2.999-0.365c0.957-0.195,1.862-0.47,2.689-0.813c0.823-0.342,1.58-0.738,2.228-1.186
			c0.646-0.444,1.215-0.907,1.673-1.366c0.453-0.464,0.822-0.9,1.1-1.286c0.562-0.766,0.786-1.279,0.786-1.279
			s-0.019,0.139-0.085,0.392c-0.069,0.249-0.184,0.619-0.385,1.07c-0.206,0.444-0.477,0.985-0.882,1.55
			c-0.399,0.563-0.905,1.178-1.552,1.749c-0.644,0.574-1.403,1.142-2.283,1.611c-0.873,0.478-1.855,0.871-2.896,1.16
			c-1.04,0.294-2.144,0.48-3.267,0.583c-0.554,0.056-1.14,0.066-1.712,0.083l-0.82-0.009l-0.207-0.004l-0.234-0.01l-0.433-0.025
			c-1.148-0.074-2.296-0.269-3.396-0.58c-1.104-0.306-2.151-0.737-3.111-1.257c-0.956-0.523-1.818-1.138-2.563-1.79
			c-0.743-0.656-1.37-1.351-1.888-2.032c-0.523-0.676-0.938-1.341-1.258-1.95c-0.329-0.604-0.561-1.156-0.732-1.613
			c-0.175-0.458-0.276-0.829-0.342-1.082c-0.035-0.127-0.055-0.223-0.068-0.288l-0.002-0.012l-0.001-0.001v-0.001
			c-0.009,0.007,0.038-0.007,0.021-0.007c0,0,0,0.002,0,0.004l0.002,0.018c0.002,0.013,0.002,0.024,0.002,0.034
			C50.01,143.674,50.016,143.68,50.016,143.68z"/>
		<path fill="#E0D49F" d="M72.821,134.979c0,0-0.02-0.039-0.054-0.116c-0.025-0.076-0.084-0.191-0.119-0.318
			c-0.039-0.13-0.094-0.293-0.127-0.46c-0.039-0.171-0.069-0.352-0.089-0.545c-0.038-0.383-0.028-0.795,0.056-1.192
			c0.079-0.395,0.238-0.774,0.452-1.117c0.216-0.342,0.489-0.646,0.813-0.89c0.321-0.245,0.689-0.429,1.052-0.56
			c0.184-0.063,0.363-0.114,0.532-0.151c0.17-0.04,0.337-0.062,0.474-0.079c0.128-0.023,0.259-0.023,0.337-0.029
			c0.083-0.007,0.13-0.005,0.13-0.005s0.025,0.046,0.057,0.121c0.024,0.072,0.082,0.19,0.116,0.317
			c0.044,0.131,0.094,0.294,0.134,0.46c0.036,0.17,0.067,0.355,0.087,0.548c0.037,0.382,0.027,0.795-0.058,1.189
			c-0.08,0.398-0.238,0.772-0.454,1.116c-0.221,0.339-0.496,0.644-0.816,0.888c-0.325,0.244-0.692,0.431-1.054,0.559
			c-0.181,0.065-0.361,0.116-0.532,0.153c-0.164,0.04-0.334,0.06-0.47,0.079c-0.131,0.024-0.26,0.023-0.335,0.029
			C72.867,134.979,72.821,134.979,72.821,134.979z"/>
		<path fill="#E0D49F" d="M81.419,135.964c0,0-0.009-0.048-0.018-0.128c-0.002-0.079-0.019-0.203-0.015-0.338
			c0.002-0.137,0-0.311,0.015-0.488c0.018-0.179,0.048-0.373,0.087-0.573c0.082-0.399,0.221-0.83,0.424-1.235
			c0.203-0.41,0.477-0.795,0.794-1.14c0.316-0.34,0.68-0.641,1.073-0.872c0.385-0.233,0.806-0.406,1.202-0.515
			c0.195-0.056,0.387-0.099,0.565-0.125c0.176-0.031,0.348-0.042,0.484-0.052c0.135-0.015,0.266-0.007,0.341-0.009
			c0.081,0.002,0.131,0.007,0.131,0.007s0.007,0.047,0.015,0.128c0.001,0.076,0.021,0.204,0.016,0.339
			c0,0.139,0.002,0.311-0.015,0.49c-0.016,0.177-0.043,0.371-0.082,0.574c-0.082,0.399-0.224,0.829-0.428,1.236
			c-0.202,0.407-0.477,0.792-0.794,1.134c-0.319,0.339-0.684,0.639-1.077,0.872c-0.391,0.231-0.807,0.401-1.201,0.514
			c-0.199,0.055-0.39,0.097-0.566,0.126c-0.178,0.029-0.35,0.039-0.487,0.052c-0.132,0.017-0.26,0.006-0.338,0.008
			C81.466,135.968,81.419,135.964,81.419,135.964z"/>
		<path fill="#E0D49F" d="M98.812,139.208c0,0-0.023-0.042-0.058-0.117c-0.026-0.076-0.088-0.188-0.129-0.324
			c-0.045-0.132-0.106-0.3-0.147-0.478c-0.047-0.182-0.085-0.379-0.118-0.591c-0.06-0.421-0.07-0.89-0.016-1.365
			c0.054-0.475,0.184-0.952,0.362-1.41c0.187-0.455,0.428-0.885,0.723-1.261c0.291-0.381,0.626-0.707,0.964-0.967
			c0.172-0.129,0.337-0.245,0.496-0.341c0.155-0.099,0.318-0.175,0.445-0.237c0.123-0.066,0.247-0.108,0.321-0.141
			c0.075-0.029,0.122-0.044,0.122-0.044s0.024,0.043,0.059,0.119c0.029,0.075,0.09,0.188,0.131,0.322
			c0.046,0.135,0.107,0.3,0.151,0.481c0.046,0.18,0.086,0.377,0.117,0.588c0.059,0.423,0.072,0.894,0.016,1.367
			c-0.055,0.477-0.183,0.954-0.368,1.406c-0.189,0.455-0.43,0.887-0.727,1.264c-0.289,0.378-0.628,0.704-0.965,0.966
			c-0.168,0.129-0.335,0.244-0.493,0.339c-0.157,0.099-0.316,0.176-0.445,0.239c-0.12,0.066-0.245,0.106-0.313,0.139
			C98.859,139.195,98.812,139.208,98.812,139.208z"/>
		<path fill="#E0D49F" d="M90.614,138.595c0,0-0.016-0.048-0.034-0.129c-0.011-0.079-0.051-0.203-0.063-0.342
			c-0.021-0.142-0.05-0.315-0.06-0.499c-0.009-0.188-0.014-0.39,0-0.603c0.022-0.426,0.099-0.894,0.24-1.351
			c0.144-0.457,0.361-0.905,0.625-1.321c0.27-0.413,0.59-0.794,0.948-1.109c0.357-0.319,0.755-0.578,1.132-0.774
			c0.194-0.097,0.381-0.176,0.555-0.243c0.174-0.066,0.345-0.11,0.48-0.15c0.133-0.043,0.263-0.061,0.34-0.077
			c0.082-0.015,0.132-0.021,0.132-0.021s0.018,0.047,0.036,0.128c0.013,0.077,0.049,0.204,0.065,0.343
			c0.02,0.143,0.047,0.317,0.06,0.501c0.009,0.188,0.011,0.389,0.001,0.602c-0.021,0.431-0.096,0.895-0.245,1.352
			c-0.143,0.455-0.355,0.904-0.626,1.317c-0.271,0.413-0.592,0.793-0.951,1.108c-0.358,0.319-0.755,0.58-1.134,0.773
			c-0.192,0.096-0.377,0.179-0.55,0.242c-0.173,0.068-0.345,0.113-0.479,0.152c-0.133,0.043-0.262,0.061-0.341,0.079
			C90.663,138.589,90.614,138.595,90.614,138.595z"/>
		<path fill="#E0D49F" d="M107.658,139.279c0,0-0.018-0.037-0.046-0.097c-0.022-0.06-0.07-0.154-0.099-0.259
			c-0.079-0.22-0.163-0.522-0.209-0.867c-0.047-0.342-0.052-0.723-0.01-1.113c0.045-0.39,0.143-0.784,0.288-1.161
			c0.146-0.379,0.338-0.737,0.565-1.053c0.233-0.318,0.494-0.596,0.76-0.817c0.264-0.223,0.529-0.391,0.738-0.5
			c0.095-0.057,0.192-0.094,0.252-0.124c0.062-0.024,0.096-0.038,0.096-0.038s0.017,0.031,0.043,0.096
			c0.023,0.059,0.07,0.151,0.104,0.258c0.08,0.222,0.164,0.527,0.209,0.867c0.047,0.344,0.053,0.725,0.01,1.113
			c-0.045,0.391-0.146,0.785-0.291,1.16c-0.148,0.376-0.337,0.738-0.569,1.055c-0.231,0.317-0.494,0.595-0.761,0.816
			c-0.262,0.221-0.528,0.391-0.736,0.499c-0.094,0.06-0.189,0.094-0.249,0.124C107.691,139.264,107.658,139.279,107.658,139.279z"/>
		<path fill="#E0D49F" d="M104.214,147.58c0,0-0.033,0.038-0.091,0.098c-0.061,0.054-0.146,0.154-0.256,0.242
			c-0.107,0.088-0.24,0.212-0.392,0.317c-0.149,0.112-0.323,0.222-0.511,0.329c-0.372,0.21-0.807,0.401-1.274,0.526
			c-0.464,0.131-0.962,0.19-1.459,0.191c-0.496-0.001-0.994-0.061-1.461-0.192c-0.466-0.128-0.903-0.317-1.275-0.532
			c-0.187-0.111-0.355-0.222-0.505-0.333c-0.153-0.109-0.283-0.229-0.394-0.322c-0.107-0.089-0.192-0.187-0.25-0.243
			c-0.06-0.061-0.092-0.099-0.092-0.099s0.032-0.038,0.092-0.097c0.058-0.057,0.145-0.157,0.252-0.244
			c0.108-0.094,0.241-0.213,0.394-0.321c0.15-0.11,0.323-0.221,0.512-0.329c0.371-0.213,0.807-0.401,1.271-0.525
			c0.468-0.129,0.965-0.19,1.463-0.189c0.497,0.003,0.992,0.066,1.461,0.198c0.464,0.128,0.898,0.321,1.273,0.533
			c0.184,0.109,0.355,0.22,0.505,0.332c0.151,0.107,0.284,0.227,0.394,0.319c0.108,0.086,0.193,0.188,0.252,0.241
			C104.181,147.543,104.214,147.58,104.214,147.58z"/>
		<path fill="#E0D49F" d="M102.502,154.061c0,0-0.019,0.048-0.063,0.127c-0.044,0.076-0.101,0.208-0.191,0.336
			c-0.089,0.129-0.188,0.298-0.318,0.463c-0.128,0.169-0.274,0.344-0.439,0.524c-0.34,0.356-0.747,0.72-1.217,1.035
			c-0.467,0.32-0.99,0.589-1.539,0.804c-0.547,0.211-1.118,0.365-1.678,0.442c-0.561,0.081-1.107,0.086-1.595,0.047
			c-0.247-0.02-0.475-0.054-0.681-0.09c-0.205-0.037-0.395-0.093-0.547-0.136c-0.151-0.035-0.283-0.091-0.365-0.118
			c-0.086-0.032-0.138-0.055-0.138-0.055s0.023-0.048,0.066-0.129c0.043-0.075,0.102-0.206,0.19-0.333
			c0.086-0.135,0.187-0.303,0.316-0.468c0.128-0.169,0.275-0.345,0.442-0.525c0.334-0.357,0.745-0.719,1.211-1.038
			c0.47-0.316,0.994-0.585,1.54-0.797c0.553-0.208,1.124-0.362,1.681-0.44c0.562-0.077,1.111-0.085,1.597-0.047
			c0.245,0.023,0.473,0.055,0.68,0.094c0.205,0.035,0.396,0.091,0.549,0.132c0.152,0.034,0.281,0.088,0.364,0.117
			C102.457,154.036,102.502,154.061,102.502,154.061z"/>
		<path fill="#E0D49F" d="M101.511,164.068c0,0-0.033,0.036-0.09,0.094c-0.053,0.05-0.138,0.148-0.243,0.23
			c-0.104,0.087-0.231,0.201-0.377,0.3c-0.143,0.104-0.309,0.206-0.485,0.307c-0.354,0.195-0.763,0.364-1.199,0.469
			c-0.437,0.106-0.896,0.147-1.355,0.128c-0.458-0.024-0.91-0.109-1.333-0.261c-0.424-0.146-0.814-0.357-1.146-0.589
			c-0.163-0.114-0.318-0.235-0.452-0.354c-0.134-0.115-0.249-0.24-0.344-0.342c-0.096-0.091-0.172-0.195-0.221-0.253
			c-0.049-0.063-0.077-0.103-0.077-0.103s0.031-0.036,0.087-0.092c0.057-0.055,0.143-0.151,0.245-0.23
			c0.104-0.092,0.23-0.203,0.377-0.304c0.146-0.104,0.309-0.209,0.486-0.308c0.354-0.195,0.764-0.365,1.2-0.47
			c0.434-0.106,0.896-0.146,1.354-0.122c0.458,0.026,0.91,0.112,1.332,0.264c0.424,0.148,0.817,0.358,1.147,0.589
			c0.168,0.115,0.319,0.235,0.451,0.354c0.136,0.115,0.25,0.239,0.344,0.338c0.098,0.093,0.17,0.197,0.221,0.253
			C101.482,164.03,101.511,164.068,101.511,164.068z"/>
		<path fill="#E0D49F" d="M85.012,157.115c0,0,0.047-0.023,0.125-0.048s0.2-0.071,0.336-0.103c0.135-0.029,0.308-0.077,0.488-0.102
			c0.184-0.031,0.387-0.05,0.599-0.064c0.425-0.018,0.894,0.014,1.36,0.108c0.47,0.099,0.931,0.268,1.37,0.492
			c0.437,0.226,0.847,0.509,1.193,0.833c0.354,0.325,0.646,0.69,0.873,1.051c0.114,0.181,0.214,0.359,0.297,0.523
			c0.081,0.165,0.143,0.334,0.192,0.467c0.058,0.125,0.087,0.255,0.111,0.329c0.023,0.078,0.032,0.128,0.032,0.128
			s-0.046,0.019-0.121,0.047c-0.08,0.021-0.2,0.072-0.335,0.103c-0.138,0.03-0.313,0.078-0.493,0.105
			c-0.183,0.029-0.386,0.05-0.599,0.062c-0.426,0.022-0.893-0.01-1.359-0.107c-0.47-0.1-0.933-0.269-1.372-0.495
			c-0.433-0.228-0.839-0.512-1.188-0.837c-0.351-0.325-0.646-0.691-0.875-1.052c-0.111-0.181-0.212-0.356-0.292-0.524
			c-0.084-0.162-0.146-0.33-0.199-0.463c-0.054-0.124-0.082-0.253-0.11-0.328C85.022,157.16,85.012,157.115,85.012,157.115z"/>
		<path fill="#E0D49F" d="M87.587,147.392c0,0,0.047-0.01,0.128-0.02c0.082-0.009,0.209-0.034,0.349-0.035
			c0.142-0.006,0.317-0.02,0.501-0.013c0.188,0.007,0.389,0.024,0.604,0.054c0.42,0.062,0.877,0.179,1.318,0.365
			c0.443,0.185,0.87,0.44,1.26,0.742c0.386,0.306,0.734,0.659,1.02,1.048c0.283,0.384,0.507,0.8,0.662,1.197
			c0.081,0.199,0.146,0.392,0.195,0.57s0.079,0.354,0.105,0.494c0.031,0.136,0.034,0.266,0.046,0.347
			c0.011,0.082,0.011,0.13,0.011,0.13s-0.049,0.014-0.133,0.023c-0.079,0.009-0.208,0.034-0.348,0.037
			c-0.143,0.006-0.316,0.02-0.501,0.011c-0.189-0.006-0.391-0.022-0.602-0.052c-0.424-0.06-0.88-0.177-1.322-0.366
			c-0.442-0.184-0.867-0.44-1.255-0.744c-0.387-0.306-0.734-0.661-1.016-1.05c-0.285-0.386-0.507-0.802-0.667-1.197
			c-0.077-0.2-0.144-0.392-0.192-0.572c-0.05-0.177-0.078-0.354-0.108-0.492c-0.03-0.135-0.035-0.266-0.047-0.344
			C87.587,147.442,87.587,147.392,87.587,147.392z"/>
		<path fill="#E0D49F" d="M83.732,165.107c0,0,0.047-0.021,0.125-0.052c0.076-0.025,0.195-0.083,0.334-0.118
			c0.137-0.039,0.31-0.094,0.494-0.131c0.186-0.036,0.389-0.068,0.605-0.088c0.435-0.043,0.917-0.037,1.4,0.039
			c0.488,0.071,0.974,0.221,1.438,0.425c0.464,0.202,0.903,0.464,1.282,0.776c0.384,0.307,0.711,0.66,0.971,1.01
			c0.129,0.174,0.243,0.347,0.34,0.511c0.1,0.161,0.172,0.326,0.233,0.457c0.067,0.124,0.106,0.251,0.137,0.326
			c0.032,0.079,0.046,0.127,0.046,0.127s-0.046,0.021-0.127,0.053c-0.077,0.024-0.192,0.082-0.332,0.117
			c-0.138,0.041-0.309,0.098-0.492,0.132c-0.187,0.04-0.392,0.072-0.608,0.094c-0.433,0.042-0.917,0.036-1.4-0.042
			c-0.488-0.073-0.973-0.223-1.438-0.426c-0.461-0.209-0.897-0.474-1.28-0.782c-0.381-0.309-0.709-0.661-0.97-1.01
			c-0.132-0.175-0.246-0.349-0.341-0.51c-0.097-0.161-0.171-0.326-0.234-0.459c-0.067-0.122-0.106-0.249-0.136-0.322
			C83.747,165.156,83.732,165.107,83.732,165.107z"/>
		<path fill="#E0D49F" d="M125.438,106.129c0,0,0.039,0.022,0.103,0.066c0.059,0.047,0.167,0.109,0.266,0.197
			c0.218,0.172,0.494,0.428,0.761,0.745c0.266,0.318,0.522,0.703,0.739,1.128c0.214,0.426,0.378,0.896,0.488,1.374
			c0.108,0.481,0.161,0.975,0.153,1.451c-0.011,0.475-0.074,0.932-0.181,1.337c-0.053,0.199-0.112,0.387-0.173,0.557
			c-0.062,0.167-0.137,0.319-0.195,0.44c-0.052,0.125-0.121,0.226-0.153,0.292c-0.04,0.07-0.068,0.106-0.068,0.106
			s-0.04-0.02-0.103-0.068c-0.061-0.044-0.166-0.107-0.269-0.196c-0.103-0.085-0.237-0.19-0.362-0.315
			c-0.129-0.124-0.263-0.269-0.398-0.428c-0.27-0.317-0.524-0.702-0.739-1.128c-0.213-0.424-0.376-0.894-0.483-1.372
			c-0.107-0.484-0.162-0.979-0.151-1.454c0.01-0.477,0.075-0.934,0.182-1.335c0.1-0.402,0.24-0.752,0.365-1.002
			c0.05-0.12,0.118-0.223,0.154-0.289C125.412,106.168,125.438,106.129,125.438,106.129z"/>
		<path fill="#E0D49F" d="M124.077,113.691c0,0-0.03,0.022-0.09,0.063c-0.059,0.037-0.145,0.104-0.253,0.162
			c-0.219,0.133-0.527,0.296-0.898,0.437c-0.374,0.143-0.808,0.269-1.275,0.354c-0.466,0.083-0.964,0.133-1.461,0.133
			c-0.995,0.01-1.988-0.186-2.734-0.474c-0.374-0.143-0.685-0.302-0.901-0.435c-0.111-0.058-0.194-0.125-0.254-0.162
			c-0.059-0.043-0.089-0.063-0.089-0.063s0.03-0.024,0.089-0.068c0.058-0.038,0.143-0.102,0.254-0.163
			c0.216-0.132,0.525-0.291,0.898-0.435c0.746-0.292,1.741-0.492,2.732-0.487c0.499-0.001,0.996,0.047,1.462,0.131
			c0.467,0.079,0.903,0.205,1.277,0.348c0.37,0.141,0.682,0.301,0.9,0.432c0.108,0.059,0.194,0.125,0.253,0.161
			C124.047,113.667,124.077,113.691,124.077,113.691z"/>
		<path fill="#E0D49F" d="M112.544,116.191c0,0,0.046-0.012,0.12-0.029c0.072-0.006,0.193-0.037,0.319-0.046
			c0.13-0.012,0.291-0.033,0.459-0.033c0.169-0.003,0.353,0.002,0.54,0.021c0.378,0.038,0.782,0.125,1.166,0.282
			c0.385,0.152,0.748,0.373,1.072,0.642c0.324,0.268,0.606,0.585,0.828,0.937c0.22,0.349,0.379,0.729,0.483,1.096
			c0.053,0.183,0.094,0.364,0.12,0.53c0.026,0.165,0.037,0.328,0.048,0.457c0.013,0.127,0.003,0.25,0.008,0.325
			c-0.002,0.078-0.005,0.122-0.005,0.122s-0.046,0.015-0.124,0.028c-0.07,0.013-0.188,0.041-0.317,0.052
			c-0.131,0.01-0.294,0.031-0.459,0.033c-0.171,0.004-0.354-0.005-0.544-0.022c-0.379-0.035-0.782-0.127-1.164-0.283
			c-0.387-0.151-0.747-0.373-1.07-0.644c-0.319-0.271-0.604-0.587-0.821-0.94c-0.221-0.35-0.381-0.731-0.485-1.095
			c-0.054-0.184-0.094-0.362-0.119-0.529c-0.031-0.164-0.039-0.328-0.05-0.459c-0.015-0.125-0.006-0.248-0.01-0.32
			C112.539,116.239,112.544,116.191,112.544,116.191z"/>
		<g>
			<defs>
				<path id="SVGID_17_" d="M38.149,141.305c0,0,4.857-1.322,5.53-7.789c0.668-6.469-6.056-14.268-6.056-14.268
					s-21.247,21.779-18.288,33.213c2.956,11.434,10.488,13.585,16.136,14.391c5.651,0.807,9.498-2.505,9.498-2.505l-5.734-5.526
					l7.401-2.19c0,0-1.881-2.691-4.974-4.976c-3.097-2.283-8.071,0.404-9.282-1.748C31.17,147.757,33.565,145.553,38.149,141.305z"
					/>
			</defs>
			<clipPath id="SVGID_2_">
				<use xlink:href="#SVGID_17_"  overflow="visible"/>
			</clipPath>
			<path clip-path="url(#SVGID_2_)" d="M44.365,171.063c0,0-9.588-1.773-9.05-11.726c0.534-9.957,10.691-18.283,17.007-7.877
				C58.633,161.869,56.335,172.407,44.365,171.063z"/>
		</g>
		<path fill="#BC237F" d="M121.354,124.926c0,0,0.14,0.143,0.354,0.397c0.216,0.255,0.515,0.63,0.851,1.079
			c0.165,0.226,0.338,0.471,0.525,0.731c0.188,0.257,0.37,0.537,0.564,0.818c0.197,0.276,0.387,0.577,0.588,0.861
			c0.1,0.144,0.206,0.281,0.302,0.427l0.148,0.217l0.154,0.181l0.146,0.187l0.076,0.096l0.035,0.048
			c-0.059-0.056-0.014-0.016-0.027-0.027l0.003,0.005l0.007,0.004l0.013,0.013l0.026,0.023c0.139,0.124,0.268,0.252,0.401,0.379
			c0.265,0.249,0.517,0.52,0.761,0.759c0.247,0.226,0.48,0.453,0.701,0.675c0.219,0.225,0.426,0.44,0.616,0.638
			c0.39,0.405,0.7,0.768,0.911,1.028c0.219,0.256,0.334,0.418,0.334,0.418s-0.191-0.054-0.508-0.173
			c-0.314-0.12-0.751-0.312-1.264-0.563c-0.257-0.123-0.529-0.29-0.814-0.458c-0.283-0.176-0.582-0.36-0.886-0.565
			c-0.292-0.207-0.567-0.433-0.851-0.667c-0.143-0.119-0.286-0.232-0.424-0.357l-0.026-0.024l-0.056-0.051l-0.053-0.061
			l-0.101-0.123l-0.209-0.243l-0.198-0.25l-0.162-0.247c-0.104-0.165-0.206-0.334-0.306-0.496c-0.198-0.33-0.354-0.664-0.515-0.988
			c-0.299-0.647-0.532-1.27-0.7-1.817c-0.169-0.547-0.277-1.013-0.339-1.346C121.37,125.12,121.354,124.926,121.354,124.926z"/>
		<path fill="#2F160C" d="M102.672,73.321c0,0,0.147-0.027,0.383-0.093c0.117-0.031,0.257-0.078,0.407-0.134
			c0.153-0.055,0.322-0.114,0.493-0.196c0.175-0.075,0.354-0.164,0.537-0.267c0.184-0.101,0.37-0.216,0.555-0.345
			c0.185-0.125,0.369-0.259,0.551-0.409c0.094-0.071,0.181-0.148,0.272-0.229l0.133-0.117l0.036-0.031l0.018-0.013l0.008-0.008
			l0.003-0.003l0.003-0.001c-0.07,0.065-0.017,0.018-0.034,0.031l0.072-0.074c0.092-0.096,0.204-0.2,0.276-0.284
			c0.054-0.073,0.109-0.139,0.171-0.205c0.051-0.086,0.105-0.171,0.169-0.251c0.041-0.09,0.088-0.176,0.137-0.262
			c0.037-0.093,0.074-0.184,0.107-0.271c0.025-0.094,0.063-0.186,0.082-0.28c0.045-0.19,0.078-0.381,0.09-0.566
			c0.034-0.368,0.019-0.708,0.004-0.953c-0.019-0.245-0.036-0.396-0.036-0.396s0.13,0.076,0.31,0.27
			c0.186,0.188,0.422,0.49,0.596,0.932c0.087,0.217,0.152,0.47,0.186,0.75c0.02,0.141,0.011,0.289,0.012,0.44
			c-0.002,0.151-0.033,0.304-0.054,0.463c-0.038,0.156-0.09,0.313-0.141,0.471c-0.063,0.152-0.136,0.3-0.215,0.45
			c-0.098,0.149-0.202,0.303-0.316,0.445c-0.103,0.122-0.188,0.206-0.283,0.309l-0.073,0.073l-0.041,0.037l-0.007,0.006l-0.01,0.008
			l-0.025,0.018l-0.042,0.039l-0.179,0.144c-0.113,0.103-0.244,0.183-0.373,0.265c-0.126,0.086-0.255,0.163-0.394,0.227
			c-0.133,0.066-0.264,0.135-0.399,0.182c-0.547,0.217-1.098,0.296-1.559,0.277c-0.462-0.019-0.832-0.131-1.072-0.238
			C102.789,73.423,102.672,73.321,102.672,73.321z"/>
		<path fill="#2F160C" d="M102.462,72.009c0,0,0.456,0.338,1.2,0.588c0.184,0.063,0.39,0.114,0.606,0.161
			c0.216,0.046,0.446,0.074,0.686,0.096c0.236,0.021,0.485,0.023,0.737,0.011c0.124-0.001,0.255-0.01,0.379-0.026l0.191-0.018
			l0.048-0.004l0.022-0.004h0.013l0.007-0.004c-0.009,0.004,0.024-0.002-0.021,0.007l0.002-0.001l0.102-0.021
			c0.131-0.025,0.275-0.047,0.398-0.078c0.104-0.038,0.213-0.067,0.319-0.1c0.104-0.051,0.21-0.1,0.317-0.144
			c0.102-0.062,0.199-0.118,0.296-0.177c0.086-0.072,0.173-0.141,0.257-0.21c0.079-0.077,0.164-0.146,0.234-0.229
			c0.138-0.162,0.261-0.326,0.365-0.491c0.203-0.329,0.337-0.64,0.423-0.862c0.082-0.224,0.121-0.358,0.121-0.358
			s0.025,0.136,0.025,0.385c-0.001,0.246-0.03,0.606-0.17,1.021c-0.07,0.208-0.172,0.428-0.308,0.647
			c-0.065,0.109-0.155,0.212-0.236,0.321c-0.086,0.108-0.195,0.2-0.297,0.302c-0.109,0.09-0.231,0.173-0.351,0.265
			c-0.125,0.071-0.259,0.145-0.395,0.212c-0.146,0.056-0.297,0.11-0.448,0.158c-0.143,0.04-0.27,0.057-0.406,0.084l-0.102,0.021
			l-0.038,0.005l-0.014,0.001l-0.026,0.005l-0.055,0.002l-0.213,0.017c-0.146,0.018-0.291,0.017-0.435,0.014
			c-0.143,0.001-0.285-0.007-0.425-0.026c-0.143-0.017-0.278-0.028-0.411-0.062c-0.271-0.045-0.526-0.125-0.758-0.213
			c-0.233-0.089-0.444-0.197-0.629-0.313c-0.186-0.107-0.344-0.232-0.474-0.347c-0.134-0.11-0.236-0.227-0.318-0.317
			C102.521,72.136,102.462,72.009,102.462,72.009z"/>
		<path fill="#2F160C" d="M64.602,70.058c0,0-0.064,0.128-0.223,0.316c-0.086,0.094-0.185,0.208-0.319,0.318
			c-0.133,0.116-0.286,0.238-0.475,0.347c-0.185,0.116-0.396,0.224-0.63,0.312c-0.232,0.091-0.487,0.171-0.756,0.216
			c-0.135,0.03-0.272,0.044-0.411,0.061c-0.143,0.019-0.285,0.026-0.426,0.026c-0.145,0.002-0.289,0.003-0.431-0.013l-0.217-0.018
			l-0.055-0.005l-0.028-0.003H60.62l-0.007-0.002l-0.032-0.003l-0.1-0.021c-0.137-0.028-0.263-0.049-0.406-0.086
			c-0.152-0.048-0.305-0.103-0.45-0.157c-0.135-0.066-0.268-0.138-0.396-0.211c-0.119-0.089-0.236-0.175-0.35-0.266
			c-0.1-0.103-0.21-0.194-0.299-0.3c-0.079-0.11-0.167-0.213-0.23-0.323c-0.141-0.217-0.24-0.438-0.308-0.645
			c-0.143-0.415-0.171-0.776-0.172-1.022c0-0.246,0.025-0.386,0.025-0.386s0.037,0.138,0.121,0.358
			c0.084,0.224,0.217,0.534,0.422,0.864c0.103,0.163,0.228,0.329,0.365,0.49c0.067,0.084,0.154,0.15,0.232,0.229
			c0.084,0.068,0.17,0.138,0.259,0.211c0.097,0.057,0.194,0.116,0.293,0.177c0.11,0.043,0.214,0.091,0.321,0.142
			c0.106,0.033,0.215,0.062,0.32,0.1c0.119,0.032,0.264,0.052,0.395,0.079l0.104,0.021c-0.012-0.002,0.023,0.003-0.022-0.003h0.003
			h0.006l0.014,0.001l0.021,0.002l0.048,0.004l0.19,0.02c0.13,0.016,0.253,0.024,0.379,0.026c0.253,0.013,0.5,0.011,0.738-0.011
			c0.24-0.023,0.47-0.05,0.69-0.095c0.212-0.049,0.416-0.1,0.603-0.162C64.143,70.397,64.602,70.058,64.602,70.058z"/>
		<path fill="#B55952" d="M69.555,53.18c0.451,0.302,0.967,0.525,1.486,0.684c0.522,0.156,1.065,0.239,1.602,0.243
			c1.082,0.017,2.135-0.315,3.046-0.877c0.231-0.142,0.439-0.288,0.67-0.461c0.227-0.167,0.448-0.334,0.659-0.505
			c0.428-0.337,0.844-0.701,1.24-1.073c0.194-0.192,0.389-0.381,0.572-0.579c0.186-0.195,0.368-0.394,0.535-0.602
			c0.171-0.205,0.327-0.42,0.475-0.632c0.068-0.108,0.141-0.216,0.199-0.326c0.06-0.099,0.132-0.235,0.151-0.293l0.942-2.636
			l0.128,2.848c0.009,0.233,0.033,0.499,0.064,0.751c0.034,0.253,0.074,0.506,0.125,0.753c0.095,0.499,0.235,0.981,0.418,1.43
			c0.183,0.445,0.418,0.855,0.706,1.152c0.145,0.147,0.299,0.271,0.466,0.356c0.081,0.043,0.164,0.087,0.251,0.108
			c0.043,0.014,0.085,0.033,0.132,0.038l0.067,0.014l0.031,0.008l0.018,0.003l0.012,0.001l0.003,0.001
			c-0.019-0.002,0.042,0.008-0.043-0.005h0.005l0.201,0.022l0.047,0.004l0.023-0.004l0.045-0.005
			c0.027,0.001,0.065-0.005,0.108-0.013c0.043-0.005,0.085-0.008,0.123-0.021c0.161-0.038,0.322-0.108,0.479-0.218
			c0.315-0.212,0.619-0.54,0.869-0.929c0.257-0.385,0.473-0.826,0.664-1.277c0.093-0.227,0.181-0.459,0.262-0.69
			c0.081-0.229,0.159-0.486,0.212-0.687l0.626-2.32l1.188,2.133c0.122,0.224,0.275,0.484,0.428,0.718
			c0.153,0.242,0.304,0.486,0.465,0.72c0.327,0.465,0.652,0.928,1.015,1.331c0.35,0.405,0.735,0.777,1.117,0.998
			c0.188,0.106,0.369,0.186,0.524,0.212c0.023,0.001-0.014-0.002-0.017,0.003c0.009,0,0.012,0.004,0.022,0.003
			c0.018,0,0.037-0.001,0.063-0.009c0.057-0.015,0.129-0.052,0.209-0.11c0.159-0.114,0.328-0.3,0.492-0.507
			c0.164-0.205,0.318-0.44,0.463-0.682c0.286-0.488,0.551-1.019,0.798-1.557c0.49-1.086,0.926-2.217,1.345-3.359l0.188,0.039
			c-0.04,0.614-0.112,1.222-0.21,1.833c-0.101,0.607-0.215,1.216-0.374,1.817c-0.153,0.604-0.337,1.206-0.587,1.803
			c-0.126,0.299-0.267,0.599-0.438,0.897c-0.172,0.3-0.382,0.593-0.681,0.877c-0.303,0.271-0.71,0.572-1.365,0.576
			c-0.448-0.008-0.854-0.123-1.208-0.287c-0.704-0.325-1.235-0.779-1.722-1.245c-0.472-0.476-0.895-0.98-1.259-1.509
			c-0.183-0.263-0.362-0.529-0.526-0.803c-0.167-0.281-0.318-0.545-0.479-0.857l1.807-0.187c-0.099,0.317-0.196,0.567-0.312,0.842
			c-0.109,0.267-0.229,0.532-0.363,0.791c-0.268,0.52-0.568,1.028-0.95,1.513c-0.376,0.479-0.825,0.949-1.431,1.3
			c-0.303,0.173-0.65,0.305-1.019,0.365c-0.089,0.021-0.183,0.026-0.273,0.034c-0.092,0.006-0.188,0.01-0.295,0.003l-0.158-0.01
			l-0.076-0.005l-0.052-0.008l-0.196-0.035l-0.053-0.008l-0.005-0.003l-0.017-0.003l-0.033-0.01l-0.063-0.02l-0.129-0.033
			c-0.088-0.021-0.169-0.06-0.251-0.093c-0.168-0.061-0.32-0.148-0.472-0.243c-0.299-0.184-0.556-0.423-0.767-0.674
			c-0.428-0.509-0.689-1.072-0.883-1.632c-0.188-0.563-0.311-1.128-0.385-1.69c-0.037-0.283-0.063-0.566-0.081-0.846
			c-0.018-0.284-0.028-0.556-0.022-0.86l1.07,0.211c-0.094,0.199-0.163,0.307-0.254,0.444c-0.084,0.13-0.175,0.252-0.265,0.373
			c-0.185,0.236-0.374,0.466-0.575,0.678c-0.402,0.432-0.828,0.826-1.275,1.188c-0.448,0.362-0.903,0.705-1.382,1.024
			c-0.236,0.165-0.475,0.316-0.714,0.463c-0.231,0.149-0.49,0.307-0.747,0.442c-1.031,0.552-2.216,0.844-3.382,0.753
			c-0.581-0.04-1.147-0.183-1.688-0.382c-0.536-0.208-1.044-0.473-1.499-0.832L69.555,53.18z"/>
	</g>
</g>
</svg>
