<?xml version="1.0" encoding="utf-8"?>
<!-- Generator: Adobe Illustrator 15.1.0, SVG Export Plug-In . SVG Version: 6.00 Build 0)  -->
<!DOCTYPE svg PUBLIC "-//W3C//DTD SVG 1.1//EN" "http://www.w3.org/Graphics/SVG/1.1/DTD/svg11.dtd">
<svg version="1.1" id="Layer_1" xmlns="http://www.w3.org/2000/svg" xmlns:xlink="http://www.w3.org/1999/xlink" x="0px" y="0px"
	 width="1417.32px" height="2200px" viewBox="0 0 1417.32 2200" enable-background="new 0 0 1417.32 2200" xml:space="preserve">
<g>
	<g>
		<defs>
			<rect id="SVGID_1_" width="1417.32" height="976.49"/>
		</defs>
		<clipPath id="SVGID_2_">
			<use xlink:href="#SVGID_1_"  overflow="visible"/>
		</clipPath>
		<rect clip-path="url(#SVGID_2_)" fill="#65C4E5" width="1417.32" height="976.49"/>
	</g>
	<g>
		<g>
			<g>
				<defs>
					<rect id="SVGID_3_" width="1417.32" height="976.49"/>
				</defs>
				<clipPath id="SVGID_4_">
					<use xlink:href="#SVGID_3_"  overflow="visible"/>
				</clipPath>
				<g clip-path="url(#SVGID_4_)">
					<g opacity="0.05">
						<g>
							<defs>
								<rect id="SVGID_5_" x="-103.87" y="-0.5" width="796.81" height="978.906"/>
							</defs>
							<clipPath id="SVGID_6_">
								<use xlink:href="#SVGID_5_"  overflow="visible"/>
							</clipPath>
							<polygon clip-path="url(#SVGID_6_)" points="160.939,978.406 -103.871,986.326 -103.871,-0.5 692.939,-0.5 							"/>
						</g>
					</g>
				</g>
			</g>
			<g>
				<g>
					<g>
						<defs>
							<rect id="SVGID_7_" width="1417.32" height="976.49"/>
						</defs>
						<clipPath id="SVGID_8_">
							<use xlink:href="#SVGID_7_"  overflow="visible"/>
						</clipPath>
						<path clip-path="url(#SVGID_8_)" fill="#334D56" d="M-56.549,444.038V549.28c0,0,1073.953-1.042,1074.977-1.042
							c-23.938-9.569-116.654-16.673-116.654-16.673l-45.051-8.336c0,0-11.527-8.057-16.381-8.057
							c-4.852,0-32.764,16.393-32.764,16.393h-65.523l-45.591,2.419c-2.367,0.124-4.741,0.085-7.102-0.118l-123.41-10.637
							l-73.717-16.671l-135.148-45.851c0,0-20.477-33.344-81.908-25.008c-61.43,8.337-41.081,5.636-106.48-50.016
							c-27.066-23.032-82.533-52.239-82.533-52.239S-11.922,393.245-56.549,444.038"/>
					</g>
					<g>
						<rect y="494.942" fill="#455F6B" width="1417.32" height="1765.058"/>
					</g>
					<g>
						<g>
							<rect x="694.305" y="522.92" fill="#FFFFFF" width="28.711" height="90.08"/>
							<rect x="694.305" y="686.724" fill="#FFFFFF" width="28.711" height="90.08"/>
							<rect x="694.305" y="850.526" fill="#FFFFFF" width="28.711" height="90.08"/>
							<rect x="694.305" y="1014.33" fill="#FFFFFF" width="28.711" height="90.08"/>
							<rect x="694.305" y="1160.526" fill="#FFFFFF" width="28.711" height="90.08"/>
							<rect x="694.305" y="1324.33" fill="#FFFFFF" width="28.711" height="90.08"/>
							<rect x="694.305" y="1490.526" fill="#FFFFFF" width="28.711" height="90.08"/>
							<rect x="694.305" y="1654.33" fill="#FFFFFF" width="28.711" height="90.08"/>
							<rect x="694.305" y="1810.526" fill="#FFFFFF" width="28.711" height="90.08"/>
							<rect x="694.305" y="1974.33" fill="#FFFFFF" width="28.711" height="90.08"/>
							<rect x="694.305" y="2130.526" fill="#FFFFFF" width="28.711" height="90.08"/>
							<rect x="694.305" y="2294.33" fill="#FFFFFF" width="28.711" height="90.08"/>
						</g>
					</g>
				</g>
			</g>
		</g>
	</g>
</g>
</svg>
