<svg xmlns="http://www.w3.org/2000/svg" xmlns:xlink="http://www.w3.org/1999/xlink" width="659.574" height="504.883" viewBox="0 0 659.574 504.883"><path fill="#F9873A" d="M10.3 400.545h635.848v104.338H10.3z"/><path fill="#EA6B15" d="M10.3 401.36h635.85v6.71H10.3z"/><path fill="#F9873A" d="M0 385.393h659.574v15.895H0z"/><path fill="#EA6B15" d="M0 277.624h659.574v107.77H0z"/><defs><path id="a" d="M268.084 364.932H378.91v9.623H268.084z"/></defs><clipPath id="b"><use xlink:href="#a" overflow="visible"/></clipPath><path clip-path="url(#b)" fill="#231F20" d="M378.91 369.745c0 2.657-24.81 4.812-55.413 4.812-30.603 0-55.413-2.153-55.413-4.812s24.81-4.813 55.413-4.813c30.602 0 55.413 2.154 55.413 4.813"/><defs><path id="c" d="M490.718 314.5h60.115v8.616h-60.115z"/></defs><clipPath id="d"><use xlink:href="#c" overflow="visible"/></clipPath><path clip-path="url(#d)" fill="#231F20" d="M550.833 318.806c0 2.38-13.457 4.31-30.06 4.31-16.6 0-30.056-1.93-30.056-4.31s13.457-4.31 30.057-4.31c16.602.003 30.06 1.93 30.06 4.31"/><path fill="#959595" d="M439.255 314.954c0 13.414-12.113 24.29-27.05 24.29H245.327c-14.94 0-27.05-10.876-27.05-24.29V209.677c0-13.417 12.11-24.292 27.05-24.292h166.876c14.938 0 27.05 10.875 27.05 24.292v105.277z"/><defs><path id="e" d="M281.678 279.618h91.042v59.957h-91.042z"/></defs><clipPath id="f"><use xlink:href="#e" overflow="visible"/></clipPath><path clip-path="url(#f)" fill="#6D6C69" d="M302.396 279.618l-20.72 59.957 91.042-.453-21.515-59.504"/><defs><path id="g" d="M272.69 281.006h101.85v90.127H272.69z"/></defs><clipPath id="h"><use xlink:href="#g" overflow="visible"/></clipPath><path clip-path="url(#h)" d="M351.2 365.142v-84.136h-48.804v84.136h-29.708v5.99H374.54v-5.99z"/><path fill="#C8C8C8" d="M351.2 363.752v-84.134h-48.804v84.134h-29.708v5.993H374.54v-5.993z"/><path fill="#FFD9C0" d="M473.982 285.036c0 12.993 7.244 23.526 16.184 23.526.977 0 1.928-.146 2.857-.39v7.31c0 1.886 1.53 3.416 3.418 3.416h48.11c1.885 0 3.416-1.53 3.416-3.416v-59.806c0-1.887-1.53-3.417-3.416-3.417h-48.11c-1.886 0-3.417 1.53-3.417 3.416v6.222c-.93-.24-1.88-.39-2.857-.39-8.938 0-16.184 10.534-16.184 23.528m6.533 0c0-8.79 3.607-15.912 9.652-15.912.988 0 1.945.21 2.857.568v30.688c-.912.36-1.87.568-2.857.568-6.044 0-9.652-7.125-9.652-15.912"/><path fill="#fff" d="M113.63 268.797h76.808v91.787h-76.81z"/><path fill="#808285" d="M126.32 342.467h30.446v3.355H126.32zM126.32 330.163h30.446v3.354H126.32zM126.32 318.972h52.82v3.356h-52.82zM126.32 307.786h52.82v3.354h-52.82zM126.32 296.597h52.82v3.356h-52.82zM179.14 288.765h-52.82l-.56-3.356h52.82z"/><path fill="#D1D3D4" d="M161.575 327.366h17.006v23.188h-17.005zM113.63 360.584h76.808v13.97h-76.81z"/></svg>