<svg xmlns="http://www.w3.org/2000/svg" xmlns:xlink="http://www.w3.org/1999/xlink" width="951.229" height="500.726" viewBox="0 0 951.229 500.726"><path fill="#0A5D87" d="M413.496 314.34c0 27.41-22.223 49.63-49.633 49.63H57.793c-27.412 0-49.632-22.22-49.632-49.63V49.63C8.163 22.222 30.38 0 57.793 0h306.07c27.41 0 49.633 22.22 49.633 49.632V314.34z"/><path fill="#427DB2" d="M402.153 301.312c0-20.45-11.387-32.324-22.275-36.872-2.134-.898-4.262-1.532-6.268-1.867-1.81-.3-3.185-2.604-4.25-6.285-6.152-21.237-1.752-89.612-6.963-101.775-6.12-14.267-10.193-21.403-23.446-26.502-13.14-5.054-123.486-3.087-125.298-3.058-1.812-.03-112.162-1.996-125.303 3.06-13.254 5.098-17.333 12.234-23.45 26.5-5.212 12.164-.81 80.54-6.956 101.776-1.07 3.682-2.446 5.985-4.256 6.285-2.007.335-4.13.97-6.272 1.867-10.882 4.548-22.27 16.42-22.27 36.872v73.895h377.007v-73.895zm-314.56-154.16c0-4.25 3.447-7.7 7.693-7.7h236.73c4.25 0 7.695 3.45 7.695 7.7v95.26c0 4.248-3.445 7.7-7.695 7.7H95.285c-4.245 0-7.693-3.452-7.693-7.7v-95.26zm-29.2 215.306h-.006c-.422.067-.85.13-1.283.166-.463.04-.93.068-1.408.068-9.3 0-16.843-7.537-16.843-16.84 0-.482.024-.955.073-1.425.04-.426.095-.854.164-1.276l.057.058c1.278-8.03 8.158-14.2 16.55-14.2 9.303 0 16.842 7.54 16.842 16.845 0 8.378-6.13 15.314-14.148 16.605m17.62-41.91H76c-.628.102-1.263.193-1.906.245-.69.065-1.382.104-2.09.104-13.804 0-24.997-11.19-24.997-24.995 0-.714.04-1.414.11-2.108.06-.64.14-1.274.24-1.897l.007.007c1.92-11.9 12.2-21 24.64-21 13.81 0 25.002 11.19 25.002 25 0 12.432-9.1 22.728-20.994 24.643m243.91-52.534s-15.63 8.836-29.222 23.783c-13.59 14.95-5.437 70.682-5.437 70.682l-9.852 8.05v1.463h1.017-125.385v-1.565l-.172 1.566-8.834-9.512s8.15-55.732-5.436-70.682c-13.592-14.947-29.224-23.783-29.224-23.783l-1.36-12.914 55.05 23.785-.006.04h105.18l-.002-.04 55.047-23.786-1.362 12.913zm31.38 52.534h-.01c-11.9-1.915-20.997-12.21-20.997-24.645 0-13.81 11.193-25 25.003-25 12.434 0 22.72 9.102 24.637 21l.007-.006c.098.623.183 1.26.242 1.897.07.694.108 1.395.108 2.108 0 13.806-11.193 24.996-24.994 24.996-.71 0-1.4-.04-2.092-.104-.643-.05-1.277-.143-1.905-.245m20.304 42.145c-.475 0-.94-.028-1.405-.068-.435-.044-.86-.1-1.285-.166h-.008c-8.017-1.29-14.148-8.227-14.148-16.605 0-9.304 7.54-16.845 16.844-16.845 8.392 0 15.275 6.17 16.55 14.2l.056-.057c.07.423.122.852.165 1.277.047.47.075.942.075 1.425 0 9.303-7.543 16.84-16.846 16.84"/><path fill="#427DB2" d="M161.06 271.006l-10.02 99.418v1.566h125.387L266.24 271.006H161.06zm16.736 98.027H169.3v-87.158h8.496v87.158zm20.054 0h-8.495v-87.158h8.495v87.158zm20.047 0h-8.495v-87.158h8.495v87.158zm20.05 0h-8.495v-87.158h8.496v87.158zm11.553-87.158h8.498v87.158H249.5v-87.158z"/><g opacity=".5"><defs><path id="a" d="M0 463.805h425.224v36.92H0z"/></defs><clipPath id="b"><use xlink:href="#a" overflow="visible"/></clipPath><path clip-path="url(#b)" fill="#231F20" d="M425.224 482.265c0 10.193-95.19 18.46-212.61 18.46C95.19 500.726 0 492.46 0 482.266c0-10.194 95.19-18.46 212.615-18.46 117.418 0 212.61 8.265 212.61 18.46"/></g><path fill="#231F20" d="M18.206 415.188v54.318c0 8.92 7.233 16.15 16.153 16.15h37.81c8.92 0 16.154-7.23 16.154-16.15v-53.343H22.502c-1.537 0-2.982-.366-4.296-.975"/><path fill="#231F20" d="M338.974 416.163v53.343c0 8.92 7.236 16.15 16.158 16.15h37.81c8.922 0 16.152-7.23 16.152-16.15v-54.318c-1.313.61-2.764.976-4.302.976h-65.818z"/><path fill="#333" d="M281.39 419.515c0 1.905-1.545 3.448-3.444 3.448H149.352c-1.898 0-3.443-1.543-3.443-3.448v-3.352H94.693l17.417 30.156h203.086l17.406-30.157h-51.21v3.352z"/><path fill="#ccc" d="M72.005 270.903c-12.44 0-22.722 9.1-24.642 21L76.01 320.55c11.895-1.917 20.995-12.214 20.995-24.647 0-13.81-11.192-25-25-25"/><path fill="#B3B3B3" d="M47.358 291.896c-.102.623-.182 1.26-.242 1.896-.07.695-.11 1.396-.11 2.11 0 13.804 11.194 24.994 25 24.994.706 0 1.397-.04 2.088-.104.642-.052 1.277-.144 1.905-.245h.01l-28.647-28.645-.005-.006z"/><path fill="#FFDC78" d="M55.695 329.008c-8.39 0-15.27 6.17-16.55 14.2l19.246 19.25c8.02-1.29 14.148-8.227 14.148-16.605 0-9.304-7.538-16.845-16.843-16.845"/><path fill="#E8B30C" d="M39.09 343.15c-.07.423-.124.852-.164 1.277-.05.47-.073.942-.073 1.425 0 9.303 7.542 16.84 16.842 16.84.48 0 .946-.028 1.408-.068.433-.036.862-.1 1.283-.166h.006l-19.245-19.25-.057-.057z"/><path fill="#4E9DD8" d="M161.066 278.885L106.014 255.1l1.36 12.913s15.633 8.836 29.225 23.783c13.587 14.95 5.435 70.682 5.435 70.682l8.834 9.513.17-1.565 10.02-91.498.006-.042z"/><path fill="#ccc" d="M380.29 295.902c0-13.81-11.192-25.002-25-25.002-12.438 0-22.73 9.104-24.648 21l28.642 28.64c11.904-1.91 21.006-12.203 21.006-24.638"/><path fill="#B3B3B3" d="M355.29 320.9c.714 0 1.414-.038 2.11-.11.637-.056 1.272-.14 1.896-.245l-.012-.006-28.642-28.64v.003c-.1.63-.193 1.263-.244 1.91-.066.687-.104 1.38-.104 2.09 0 13.802 11.19 24.997 24.996 24.997"/><path fill="#FFDC78" d="M388.445 345.853c0-9.308-7.542-16.847-16.844-16.847-8.378 0-15.316 6.13-16.604 14.147l19.25 19.245c8.03-1.274 14.2-8.16 14.2-16.545"/><path fill="#E8B30C" d="M374.3 362.454l-.054-.056-19.25-19.245v.007c-.07.426-.122.85-.167 1.283-.04.466-.07.935-.07 1.408 0 9.305 7.54 16.842 16.842 16.842.48 0 .954-.025 1.423-.072.426-.044.856-.095 1.276-.166"/><path fill="#4E9DD8" d="M266.24 278.926l10.187 93.064 1.36-1.463 7.476-8.05s-8.15-55.732 5.437-70.682c13.593-14.947 29.224-23.783 29.224-23.783l1.36-12.914-55.047 23.786.003.042zM404.792 375.206H22.502c-5.648 0-10.236 4.584-10.236 10.233v13.056H415.03V385.44c0-5.65-4.586-10.234-10.238-10.234"/><path fill="#427DB2" d="M12.266 398.496v7.427c0 4.116 2.443 7.636 5.94 9.265 1.314.61 2.76.976 4.297.976h123.405v3.352c0 1.905 1.545 3.448 3.444 3.448h128.593c1.9 0 3.446-1.543 3.446-3.448v-3.352h123.402c1.538 0 2.99-.366 4.302-.976 3.497-1.63 5.936-5.148 5.936-9.265v-7.427H12.266z"/><path fill="#4D4D4D" d="M169.3 281.875h8.496v87.158H169.3zM189.355 281.875h8.495v87.158h-8.495zM209.402 281.875h8.495v87.158h-8.495zM229.453 281.875h8.496v87.158h-8.497zM249.5 281.875h8.498v87.158H249.5z"/><path fill="#B3D2E0" d="M95.285 250.112h236.73c4.25 0 7.695-3.452 7.695-7.7v-95.26c0-4.25-3.446-7.7-7.696-7.7H95.284c-4.245 0-7.693 3.45-7.693 7.7v95.26c0 4.248 3.45 7.7 7.695 7.7m0 0h236.73c4.25 0 7.695-3.452 7.695-7.7v-95.26c0-4.25-3.446-7.7-7.696-7.7H95.284c-4.245 0-7.693 3.45-7.693 7.7v95.26c0 4.248 3.45 7.7 7.695 7.7"/><path fill="#A7CADE" d="M332.015 139.452H172.36l-52.6 110.66h212.255c4.25 0 7.696-3.452 7.696-7.7v-95.26c0-4.25-3.445-7.7-7.695-7.7"/><defs><path id="c" d="M95.285 139.45c-4.246 0-7.694 3.453-7.694 7.702v95.26c0 4.248 3.45 7.7 7.695 7.7h236.73c4.25 0 7.695-3.452 7.695-7.7v-95.26c0-4.25-3.445-7.7-7.695-7.7H95.285z"/></defs><clipPath id="d"><use xlink:href="#c" overflow="visible"/></clipPath><path clip-path="url(#d)" fill="#fff" d="M249.72 225.354c0-3.258-2.602-5.897-5.814-5.897-.088 0-.174.008-.262.012 1.135-.844 1.875-2.2 1.875-3.733 0-2.556-2.046-4.628-4.565-4.628-.1 0-.2.007-.3.015.895-1.293 1.282-2.94.935-4.603-.293-1.402-1.054-2.58-2.082-3.406 2.182-1.68 3.46-4.454 3.13-7.415-.4-3.613-3.077-6.407-6.415-7.082.707-.976 1.128-2.176 1.128-3.48 0-3.258-2.603-5.9-5.815-5.9-1.23 0-2.37.393-3.31 1.055-1.267-2.14-2.608-4.19-4.017-6.15 1.73-1.022 2.896-2.918 2.896-5.096 0-3.258-2.603-5.897-5.815-5.897-1.238 0-2.383.394-3.323 1.062.465-.85.732-1.826.732-2.865 0-3.258-2.605-5.9-5.816-5.9-.987 0-1.915.253-2.73.693 1.085-1.286 1.746-2.952 1.746-4.777 0-4.064-3.25-7.357-7.256-7.357-1.378 0-2.662.396-3.76 1.073-1.19-3.18-4.22-5.44-7.77-5.44-2.616 0-4.95 1.23-6.474 3.144-1.34-2.47-3.93-4.144-6.904-4.144-4.032 0-7.354 3.075-7.818 7.038-1.223-2.314-3.628-3.888-6.395-3.888-4.007 0-7.255 3.294-7.255 7.357 0 1.73.592 3.315 1.575 4.57-3.316 1.596-6.502 3.565-9.534 5.875-.395-2.868-2.816-5.078-5.754-5.078-3.21 0-5.814 2.64-5.814 5.9 0 .65.11 1.275.3 1.86-.87-.375-1.828-.583-2.836-.583-4.006 0-7.254 3.295-7.254 7.358 0 3.596 2.547 6.585 5.91 7.225-1.622 2.418-3.144 4.964-4.554 7.628-.878-.956-2.126-1.557-3.518-1.557-2.657 0-4.81 2.184-4.81 4.88 0 1.2.43 2.3 1.137 3.15-.31-.053-.627-.087-.954-.087-3.21 0-5.815 2.64-5.815 5.897 0 1.133.32 2.188.868 3.087-3.633.76-6.16 4.217-5.733 8.03.277 2.496 1.76 4.557 3.79 5.658-1.427.78-2.398 2.312-2.398 4.075 0 1.535.74 2.892 1.874 3.734-2.434.703-4.216 2.97-4.216 5.666 0 2.574 1.628 4.757 3.894 5.56-2.266.806-3.894 2.99-3.894 5.564 0 2.093 1.078 3.928 2.7 4.974-2.446 1.184-4.14 3.707-4.14 6.638 0 3.92 3.026 7.113 6.836 7.335-.644 1.1-1.02 2.378-1.02 3.75 0 3.668 2.653 6.7 6.118 7.256-1.64 1.04-2.738 2.888-2.738 4.996 0 3.26 2.604 5.9 5.816 5.9.972 0 1.885-.246 2.688-.673 0 .03-.004.06-.004.088 0 2.697 2.154 4.882 4.812 4.882.878 0 1.698-.24 2.406-.66-.793 1.077-1.268 2.403-1.268 3.843 0 3.593 2.92 6.502 6.526 6.502 1.667 0 3.184-.63 4.337-1.654-.413 2.737 1.244 5.38 3.885 6.045 2.263.568 4.554-.488 5.727-2.445-.01.17-.017.34-.017.517 0 4.656 3.723 8.43 8.314 8.43 3.743 0 6.907-2.507 7.948-5.957.448 1.875 1.858 3.43 3.798 3.92 2.4.604 4.827-.62 5.926-2.81.655 2.527 2.918 4.396 5.617 4.396 2.584 0 4.772-1.713 5.528-4.077 1.52 2.826 4.618 4.585 7.967 4.2 4.413-.507 7.585-4.547 7.087-9.023 0-.013-.005-.024-.005-.037.992 1.812 2.894 3.038 5.083 3.038 3.212 0 5.814-2.64 5.814-5.898 0-.187-.01-.373-.028-.554.747.352 1.576.553 2.453.553 3.212 0 5.813-2.638 5.813-5.895 0-1.19-.35-2.297-.947-3.224.08-.066.16-.13.238-.197.83.884 2 1.438 3.3 1.438 2.52 0 4.563-2.07 4.563-4.63 0-1.364-.588-2.59-1.516-3.436l.026-.033c1.258.923 2.804 1.472 4.474 1.472 4.214 0 7.63-3.467 7.63-7.74 0-2.734-1.397-5.136-3.506-6.512.852.376 1.808.54 2.798.427 3.01-.346 5.178-3.104 4.837-6.16-.34-3.056-3.06-5.252-6.072-4.905-.01 0-.017.004-.027.005l.048-.23c2.507-.75 4.2-3.235 3.898-5.96-.197-1.766-1.193-3.242-2.577-4.108l.02-.29c.087.003.176.014.265.014 3.212 0 5.815-2.64 5.815-5.9 0-1.692-.708-3.214-1.833-4.29 2.203-.843 3.774-2.994 3.774-5.52m-41.79-67.438c.135-.07.265-.143.392-.22-.083.105-.163.213-.237.324l-.155-.104m-88.707 63.395l-.016-.01.017-.008v.02M154 291.113c.015.007.032.01.047.016-.015.03-.03.06-.043.09-.002-.036-.002-.07-.005-.106m83.86-29.356c-.108-.052-.218-.1-.33-.146.01-.025.02-.05.027-.075.097.078.2.15.302.22"/><path clip-path="url(#d)" fill="#E2DED6" d="M144.163 195.87c-.503 17.172 15.157 25.267 34.75 25.893 19.59.625 35.695-6.46 36.198-23.635.505-17.173-15.04-36.638-34.634-37.262-19.59-.624-35.81 17.83-36.313 35.003"/><path clip-path="url(#d)" fill="#fff" d="M161.512 153.19c0 4.063-3.247 7.358-7.255 7.358-4.005 0-7.253-3.295-7.253-7.357 0-4.063 3.248-7.357 7.253-7.357 4.008 0 7.255 3.294 7.255 7.358"/><path clip-path="url(#d)" fill="#3A3A3A" d="M169.118 198.34l.295.04c.19.032.473.065.82.125.348.06.768.13 1.25.21.47.086 1.004.184 1.584.288.574.106 1.192.22 1.84.332.644.113 1.32.225 2.008.326.69.102 1.396.193 2.098.254.174.013.352.03.528.045l.522.015.52.022.512-.012h.349c-.032 0 .077-.008-.066.004h.01l.017-.005.148-.014.586-.05.288-.025.234-.037.47-.066c.15-.01.33-.065.497-.097l.508-.09c.337-.08.67-.168 1.003-.24.334-.09.66-.18.98-.27.323-.096.64-.19.948-.284.618-.194 1.21-.387 1.76-.572 1.118-.385 2.054-.707 2.707-.93l.788-.266c.185-.06.284-.094.284-.094s-.218.366-.677.936c-.46.564-1.17 1.33-2.133 2.123-.482.397-1.028.798-1.633 1.19-.3.198-.627.372-.955.564-.33.193-.69.348-1.048.527-.364.165-.747.31-1.133.458-.404.13-.788.267-1.23.37l-.677.148-.342.072-.294.037-.584.07-.148.016-.11.01h-.125l-.336.01-.67.005c-.22-.007-.438-.033-.655-.05-.217-.016-.436-.03-.647-.06-.21-.038-.42-.07-.63-.105-.42-.057-.82-.16-1.216-.263-.4-.09-.78-.214-1.155-.34-.746-.24-1.44-.532-2.083-.834-.644-.3-1.23-.623-1.758-.942-1.058-.638-1.874-1.272-2.422-1.75-.275-.235-.476-.446-.617-.58-.138-.138-.207-.22-.207-.22"/><path clip-path="url(#d)" fill="#3A3A3A" d="M182.387 200.71l-1.756 5.142-1.34-5.27z"/><path clip-path="url(#d)" fill="#212120" d="M174.283 206.515l.162.047c.103.034.26.07.448.133.382.11.916.27 1.54.44.31.082.645.167.994.25.35.08.715.155 1.088.222.374.06.756.112 1.138.145.38.028.775.048 1.136.026.222-.008.45-.01.615-.037.178-.02.36-.026.56-.06.39-.052.78-.113 1.16-.19.192-.032.377-.076.565-.113.184-.036.364-.078.543-.12.356-.076.696-.16 1.013-.236l1.57-.368c.19-.05.352-.076.457-.102.107-.024.165-.035.165-.035s-.034.048-.103.137c-.07.083-.17.216-.313.36-.28.303-.708.707-1.277 1.113-.284.204-.602.412-.955.606-.352.2-.734.387-1.15.545-.205.088-.42.158-.642.226-.11.035-.22.07-.333.102l-.346.08c-.44.113-1.045.176-1.44.19-.52.017-1.008-.02-1.49-.107-.478-.08-.935-.214-1.358-.37-.426-.158-.817-.35-1.174-.546-.177-.107-.346-.21-.507-.312-.155-.112-.306-.213-.45-.32-.28-.218-.522-.43-.728-.63-.206-.198-.37-.39-.505-.547-.264-.316-.384-.525-.384-.525"/><path clip-path="url(#d)" fill="#E2DED6" d="M135.736 178.128c0 3.258-2.604 5.897-5.815 5.897s-5.815-2.64-5.815-5.897 2.605-5.897 5.816-5.897 5.816 2.642 5.816 5.898M230.284 177.11c0 2.558-2.043 4.63-4.562 4.63-2.52 0-4.564-2.072-4.564-4.63 0-2.555 2.043-4.627 4.564-4.627 2.52 0 4.562 2.072 4.562 4.628"/><path clip-path="url(#d)" fill="#CB2A2B" d="M178.427 227.403s-9.198-7.344-11.354-.44c-2.156 6.908.217 9.964 4.02 10.328 3.8.367 7.944-6.63 7.944-6.63l-.61-3.257zM183.835 226.762s9.188-7.356 11.353-.455c2.164 6.905-.204 9.964-4.007 10.334-3.8.372-7.95-6.62-7.95-6.62l.605-3.258zM185.187 229.205c.256 2.19-.876 4.127-3.4 4.432-2.52.303-4.068-1.312-4.324-3.5-.255-2.192.877-4.128 3.4-4.432 2.52-.305 4.07 1.31 4.324 3.5"/><path clip-path="url(#d)" fill="#2F160C" d="M160.956 191.14s.015-.053.052-.15c.04-.094.09-.238.174-.41.162-.346.424-.83.813-1.366.196-.266.427-.543.69-.822.136-.135.276-.274.427-.413.156-.132.316-.266.486-.395.348-.25.733-.488 1.16-.67.43-.18.9-.318 1.39-.36l.37-.024.045-.002.01-.002.038.002h.02l.08.005.156.008c.214.012.4.015.642.055.466.055.89.16 1.295.288.81.263 1.51.668 2.028 1.093.264.213.482.432.66.637.185.197.32.395.426.556.214.323.286.534.286.534s-.17-.138-.478-.34c-.155-.1-.345-.212-.563-.333-.106-.06-.225-.122-.35-.18-.125-.063-.255-.122-.394-.18-.273-.122-.577-.234-.897-.333-.323-.102-.666-.185-1.02-.253-.357-.066-.733-.11-1.088-.136-.17-.026-.397-.013-.6-.023l-.157-.005-.078-.002h-.025.025-.008l-.035.004-.26.023c-.344.02-.69.12-1.03.232-.17.052-.336.14-.504.204-.164.074-.322.17-.484.246-.16.093-.313.184-.464.275-.15.1-.296.197-.44.29-.28.2-.545.396-.788.587-.485.38-.883.727-1.164.97l-.444.392M186.662 188.862s.023-.05.077-.136c.054-.087.13-.22.243-.372.22-.314.56-.742 1.036-1.2.24-.227.515-.458.822-.686.16-.11.32-.22.49-.33.18-.1.358-.203.55-.3.385-.185.806-.35 1.26-.452.454-.1.94-.152 1.43-.106l.365.04.046.008h.012l.036.008.02.005.077.02.153.035c.21.05.392.086.62.17.45.136.852.315 1.227.514.753.402 1.367.927 1.805 1.44.222.254.4.51.54.74.146.23.244.45.322.625.153.358.188.58.188.58s-.143-.168-.412-.42c-.135-.127-.302-.273-.496-.43-.094-.08-.2-.163-.314-.242-.11-.082-.23-.167-.356-.247-.248-.17-.527-.332-.825-.49-.3-.156-.624-.3-.96-.43-.34-.128-.702-.24-1.05-.328-.16-.054-.386-.083-.585-.13l-.152-.033-.078-.016-.02-.005h-.002c.05.01.01 0 .02.004l-.007-.002-.032-.002-.26-.023c-.344-.043-.7-.008-1.055.04-.178.023-.355.08-.533.112-.176.043-.347.11-.52.154l-.503.187c-.166.07-.326.14-.483.208-.31.144-.606.29-.878.435-.545.287-.995.556-1.315.747-.32.195-.505.305-.505.305"/><path clip-path="url(#d)" fill="#ECADB0" d="M160.956 197.012c0 2.54-2.084 4.6-4.655 4.6-2.57 0-4.655-2.06-4.655-4.6 0-2.54 2.084-4.6 4.656-4.6 2.572 0 4.656 2.06 4.656 4.6M208.93 196.166c0 2.54-2.085 4.6-4.658 4.6-2.57 0-4.654-2.06-4.654-4.6 0-2.54 2.084-4.6 4.654-4.6 2.573 0 4.657 2.06 4.657 4.6"/><path clip-path="url(#d)" fill="#1B1C1C" d="M143.468 173.15c1.457-2.04-10.437-7.266-18.86.723-8.42 7.986 4.08 19.95 18.86-.723M215.137 171.89c-1.365-2.106 10.756-6.766 18.804 1.61 8.05 8.375-4.986 19.738-18.803-1.61"/><path clip-path="url(#d)" fill="#93918B" d="M146.15 157.988s4.69 2.272 10.016.468c5.56-1.883 5.862-6.233 5.862-6.233s-3.633-17.963-18.098-22.18c-14.467-4.22-24.68 10.105-24.68 10.105s12.002-4.79 18.956.85c4.985 4.043 7.943 16.99 7.943 16.99M215.473 158.902s-4.67 3.663-9.993 1.86c-5.562-1.883-6.895-7.283-6.895-7.283s4.665-16.914 19.13-21.133c14.468-4.22 23.65 12.902 23.65 12.902s-10.97-7.59-17.925-1.948c-4.985 4.043-7.967 15.6-7.967 15.6"/><path clip-path="url(#d)" fill="#2F160C" d="M162.742 188.807s-.016.062-.075.165c-.03.046-.066.112-.12.17-.056.055-.114.133-.2.185-.08.057-.167.132-.274.172-.106.046-.217.103-.342.122-.12.024-.253.063-.383.054-.137-.002-.25.005-.412-.02-.06-.013-.11-.022-.18-.04-.075-.024-.15-.052-.22-.082-.133-.065-.252-.148-.355-.245-.1-.1-.18-.208-.238-.318-.057-.11-.095-.22-.116-.32-.048-.202-.035-.372-.017-.485.02-.114.05-.174.05-.174s.12.24.325.49c.052.06.113.118.172.174.063.055.133.103.204.147.038.017.076.036.11.057.042.014.08.03.12.05.038.007.074.014.11.028.044.012.11.02.166.032.068.014.195.015.287.03.1.02.196.002.293.01.1.01.187-.01.278-.012.09 0 .173-.022.256-.03.32-.06.562-.16.562-.16M196.197 187.497s.24.103.56.16c.084.01.166.032.258.032.09.002.178.02.277.01.098-.007.193.01.293-.01.095-.016.218-.016.287-.03.054-.01.122-.02.168-.032.035-.013.07-.02.108-.03.04-.018.078-.033.12-.047.035-.02.072-.038.11-.056.07-.044.14-.09.2-.147.063-.055.124-.113.175-.175.205-.248.328-.49.328-.49s.03.062.048.175c.018.114.03.283-.015.484-.022.103-.06.21-.117.322-.058.11-.137.218-.237.316-.104.098-.225.182-.356.246-.072.03-.147.06-.223.083-.066.018-.116.027-.176.04-.163.025-.275.017-.413.02-.128.01-.26-.032-.383-.055-.124-.02-.237-.076-.342-.123-.107-.042-.195-.116-.275-.173-.085-.05-.143-.13-.198-.186-.056-.056-.09-.122-.122-.168-.06-.103-.073-.165-.073-.165"/><path clip-path="url(#d)" fill="#fff" d="M178.744 153.954c-7.583.7-23.595 7.21-29.364 20.85-5.77 13.642-4.58 11.072-4.58 11.072s8.91-1.9 18.55-5.902c9.64-4.005 15.44-10.24 15.44-10.24s2.282 2.877 16.228 9.045c10.818 4.78 18.255 4.687 18.255 4.687s-9.05-31.863-34.53-29.513"/><path clip-path="url(#d)" fill="#231F20" d="M176.067 205.816c-20.06 2.186-34.597 20.282-32.412 40.338 2.185 20.056 20.28 34.596 40.337 32.412 20.056-2.186 34.596-20.28 32.41-40.337-2.183-20.057-20.278-34.6-40.335-32.414m-22.603 39.27c-.067-.623-.106-1.242-.128-1.863 2.124.047 6.002.423 9.94 2.304 7.57 3.62 12.026 11.14 13.25 22.37.03.277.09.54.165.807-11.99-1.516-21.86-11.09-23.226-23.618m26.38-4.6c-1.586.174-2.95.973-3.876 2.12-2.913-2.927-6.054-4.898-8.924-6.206-4.643-2.125-9.136-2.807-12.248-2.99 3.295-9.427 11.768-16.63 22.34-17.78 10.5-1.147 20.263 3.99 25.536 12.38-2.984.727-7.858 2.36-12.516 5.866-2.35 1.774-4.803 4.145-6.916 7.283-1-.547-2.175-.805-3.397-.673m7.826 27.31c.044-.364.048-.738.01-1.116-1.224-11.228 1.51-19.532 8.124-24.696 4.374-3.417 9.183-4.438 10.495-4.66.122.652.225 1.303.298 1.972 1.418 13.012-6.804 24.884-18.93 28.5"/><path clip-path="url(#d)" fill="#1B1C1C" d="M127.222 242.796c-5.32-5.198 2.497-10.144 7.396-14.354 4.9-4.214 12.494-8.47 16.356-2.603 3.584 5.44-3.937 10.735-8.96 12.835-7.477 3.13-11.176 7.655-14.792 4.12"/><path clip-path="url(#d)" fill="#fff" d="M134.953 250.607c-2.994 2.043-6.95 1.462-8.834-1.3-1.886-2.762-.988-6.657 2.007-8.704 2.994-2.042 6.95-1.458 8.836 1.303 1.885 2.763.984 6.658-2.01 8.7M125.816 242.498c-2.986.362-5.703-1.768-6.066-4.755-.363-2.99 1.764-5.707 4.75-6.068 2.99-.365 5.703 1.765 6.066 4.755.362 2.99-1.764 5.705-4.75 6.068"/><path clip-path="url(#d)" fill="#3A3A3A" d="M145.363 230.092l.05-.11c.032-.06.08-.166.142-.266.065-.106.142-.24.237-.364.092-.13.2-.26.32-.392.242-.257.534-.502.862-.69.08-.052.166-.09.253-.13.085-.046.173-.083.26-.113.18-.074.367-.113.553-.16.188-.028.377-.06.57-.06.19-.01.38.003.568.03.375.05.74.16 1.06.307.162.076.313.154.447.237.134.08.257.174.357.244.097.07.18.15.237.194l.083.078.038.19s-.092.027-.254.07c-.16.038-.392.11-.67.17-.562.122-1.31.288-2.056.454l-2.07.367c-.283.053-.523.075-.688.1l-.26.035-.04-.19zM143.455 226.162s.013-.035.033-.105c.024-.064.05-.178.095-.282.045-.107.097-.248.167-.373.07-.132.145-.282.24-.418.184-.275.418-.542.69-.754.137-.108.282-.206.435-.287.152-.082.313-.148.48-.2.164-.055.334-.09.505-.113.174-.02.346-.03.522-.016.345.018.69.1 1 .216.154.057.304.134.435.2.13.06.254.146.353.207.098.056.186.136.242.173l.086.067.06.187c-.002 0-.322.133-.81.313-.246.088-.53.198-.837.3l-.965.322-.973.297c-.31.096-.605.17-.855.242-.503.13-.84.21-.84.21l-.062-.188z"/><path clip-path="url(#d)" fill="#1B1C1C" d="M231.8 233.175c4.313-6.062-3.967-9.195-9.783-12.01-8.15-3.942-13.127-6.168-16.582-.052-4.2 7.435 5.022 9.69 12.348 11.77 7.8 2.214 11.09 4.41 14.018.292"/><path clip-path="url(#d)" fill="#fff" d="M227.453 231.72c2.848-.166 5.292 2.012 5.46 4.862.165 2.85-2.01 5.294-4.86 5.46-2.85.166-5.292-2.01-5.456-4.86-.166-2.85 2.006-5.297 4.856-5.463M236.843 225.41c2.887 2.193 3.588 6.13 1.566 8.793-2.026 2.662-6.004 3.043-8.893.852-2.887-2.193-3.588-6.13-1.562-8.794 2.02-2.662 6-3.04 8.888-.85"/><path clip-path="url(#d)" fill="#3A3A3A" d="M207.183 219.988l.08-.085c.053-.05.13-.136.225-.208.093-.08.21-.182.34-.27.128-.09.272-.182.428-.266.31-.17.666-.31 1.037-.382.093-.024.186-.03.28-.043.096-.015.19-.022.286-.022.19-.01.38.01.57.025.19.036.378.063.56.126.182.05.36.125.53.21.34.166.648.39.906.633.128.12.244.243.346.366.102.118.188.245.258.346.074.092.127.197.164.254l.056.103-.025.194-.262-.017c-.168-.014-.408-.022-.693-.054l-2.09-.227-2.08-.317c-.284-.04-.52-.097-.683-.125-.165-.03-.258-.05-.258-.05l.023-.192zM205.108 223.395s.034-.025.097-.066c.06-.036.155-.104.263-.153.11-.057.244-.13.39-.186.148-.06.307-.114.48-.162.34-.096.714-.15 1.092-.135.095-.003.188.01.282.018.097.01.19.025.28.047.19.03.37.093.55.152.176.076.354.145.515.247.166.09.32.202.468.324.29.238.54.526.735.82.097.147.182.294.253.437.072.137.126.28.173.393.05.108.076.222.1.286l.03.113-.07.183s-.09-.03-.248-.077c-.16-.052-.39-.11-.66-.21-.54-.188-1.26-.438-1.98-.69-.707-.282-1.414-.564-1.945-.78-.268-.1-.48-.208-.634-.273l-.24-.106.068-.182z"/><path fill="#231F20" d="M57.062 184.87c.03-2.17.247-4.31.557-5.554h3.91v-8.152h-5.46c-1.56 0-3.035.645-4.158 1.816-2.52 2.63-3.02 8.058-3.017 12.068-7.298 1.937-12.705 8.535-12.705 16.444v14.78c0 9.428 7.646 17.076 17.075 17.076 9.43 0 17.074-7.648 17.074-17.077v-14.778c0-8.122-5.682-14.888-13.278-16.62M369.46 184.87c-.03-2.17-.248-4.31-.557-5.554h-3.91v-8.152h5.458c1.562 0 3.036.645 4.16 1.816 2.518 2.63 3.018 8.058 3.015 12.068 7.3 1.937 12.706 8.535 12.706 16.444v14.78c0 9.428-7.645 17.076-17.074 17.076-9.43 0-17.074-7.648-17.074-17.077v-14.778c0-8.122 5.682-14.888 13.278-16.62"/><path fill="#0A5D87" d="M939.496 314.34c0 27.41-22.223 49.63-49.634 49.63h-306.07c-27.41 0-49.63-22.22-49.63-49.63V49.63c0-27.41 22.22-49.632 49.63-49.632h306.07c27.41 0 49.634 22.22 49.634 49.632V314.34z"/><path fill="#427DB2" d="M928.153 301.312c0-20.45-11.387-32.324-22.274-36.872-2.136-.898-4.264-1.532-6.27-1.867-1.81-.3-3.185-2.604-4.25-6.285-6.15-21.237-1.75-89.612-6.963-101.775-6.12-14.267-10.193-21.403-23.446-26.502-13.138-5.054-123.485-3.087-125.298-3.058-1.813-.03-112.162-1.996-125.303 3.06-13.254 5.098-17.333 12.234-23.448 26.5-5.213 12.164-.812 80.54-6.958 101.776-1.07 3.682-2.446 5.985-4.256 6.285-2.007.335-4.13.97-6.272 1.867-10.882 4.548-22.27 16.42-22.27 36.872v73.895h377.007v-73.895zm-314.56-154.16c0-4.25 3.446-7.7 7.692-7.7h236.73c4.25 0 7.695 3.45 7.695 7.7v95.26c0 4.248-3.446 7.7-7.696 7.7h-236.73c-4.245 0-7.692-3.452-7.692-7.7v-95.26zm-29.2 215.306h-.006c-.422.067-.85.13-1.283.166-.463.04-.93.068-1.408.068-9.3 0-16.843-7.537-16.843-16.84 0-.482.024-.955.073-1.425.04-.426.095-.854.164-1.276l.057.058c1.277-8.03 8.158-14.2 16.55-14.2 9.304 0 16.843 7.54 16.843 16.845 0 8.378-6.13 15.314-14.148 16.605m17.62-41.91h-.014c-.627.102-1.262.193-1.904.245-.69.065-1.383.104-2.09.104-13.805 0-24.997-11.19-24.997-24.995 0-.714.04-1.414.108-2.108.06-.64.14-1.274.242-1.897l.006.007c1.92-11.9 12.2-21 24.642-21 13.808 0 25 11.19 25 25 0 12.432-9.1 22.728-20.993 24.643m243.912-52.534s-15.63 8.836-29.223 23.783c-13.59 14.95-5.437 70.682-5.437 70.682l-9.852 8.05v1.463h1.017H677.04v-1.565l-.17 1.566-8.835-9.512s8.152-55.732-5.436-70.682c-13.593-14.947-29.226-23.783-29.226-23.783l-1.36-12.914 55.052 23.785-.008.04H792.24l-.003-.04 55.047-23.786-1.36 12.913zm31.377 52.534h-.01c-11.898-1.915-20.995-12.21-20.995-24.645 0-13.81 11.192-25 25.002-25 12.436 0 22.72 9.102 24.638 21l.007-.006c.098.623.184 1.26.242 1.897.07.694.107 1.395.107 2.108 0 13.806-11.19 24.996-24.993 24.996-.71 0-1.4-.04-2.092-.104-.642-.05-1.276-.143-1.904-.245m20.304 42.145c-.475 0-.94-.028-1.404-.068-.435-.044-.86-.1-1.285-.166h-.008c-8.017-1.29-14.147-8.227-14.147-16.605 0-9.304 7.54-16.845 16.845-16.845 8.392 0 15.275 6.17 16.55 14.2l.056-.057c.072.423.123.852.167 1.277.047.47.074.942.074 1.425 0 9.303-7.544 16.84-16.846 16.84"/><path fill="#427DB2" d="M687.06 271.006l-10.02 99.418v1.566H802.43L792.24 271.006H687.06zm16.736 98.027H695.3v-87.158h8.496v87.158zm20.054 0h-8.493v-87.158h8.493v87.158zm20.047 0h-8.495v-87.158h8.495v87.158zm20.05 0h-8.494v-87.158h8.495v87.158zm11.553-87.158h8.498v87.158H775.5v-87.158z"/><g opacity=".5"><defs><path id="e" d="M526 463.805h425.23v36.92H526z"/></defs><clipPath id="f"><use xlink:href="#e" overflow="visible"/></clipPath><path clip-path="url(#f)" fill="#231F20" d="M951.225 482.265c0 10.193-95.19 18.46-212.61 18.46-117.425 0-212.614-8.267-212.614-18.46 0-10.194 95.19-18.46 212.616-18.46 117.417 0 212.61 8.265 212.61 18.46"/></g><path fill="#231F20" d="M544.205 415.188v54.318c0 8.92 7.233 16.15 16.153 16.15h37.813c8.92 0 16.154-7.23 16.154-16.15v-53.343h-65.82c-1.54 0-2.984-.366-4.3-.975"/><path fill="#231F20" d="M864.975 416.163v53.343c0 8.92 7.235 16.15 16.157 16.15h37.81c8.923 0 16.152-7.23 16.152-16.15v-54.318c-1.313.61-2.764.976-4.3.976h-65.82z"/><path fill="#333" d="M807.39 419.515c0 1.905-1.545 3.448-3.444 3.448H675.352c-1.898 0-3.443-1.543-3.443-3.448v-3.352h-51.216l17.417 30.156h203.086l17.406-30.157h-51.21v3.352z"/><path fill="#ccc" d="M598.005 270.903c-12.44 0-22.722 9.1-24.642 21l28.648 28.646c11.895-1.917 20.995-12.214 20.995-24.647 0-13.81-11.192-25-25-25"/><path fill="#B3B3B3" d="M573.357 291.896c-.102.623-.182 1.26-.242 1.896-.068.695-.108 1.396-.108 2.11 0 13.804 11.192 24.994 24.998 24.994.706 0 1.398-.04 2.09-.104.642-.052 1.276-.144 1.903-.245h.014l-28.648-28.645-.007-.006z"/><path fill="#FFDC78" d="M581.695 329.008c-8.39 0-15.27 6.17-16.55 14.2l19.246 19.25c8.02-1.29 14.148-8.227 14.148-16.605 0-9.304-7.538-16.845-16.843-16.845"/><path fill="#E8B30C" d="M565.09 343.15c-.07.423-.123.852-.164 1.277-.05.47-.073.942-.073 1.425 0 9.303 7.542 16.84 16.843 16.84.48 0 .945-.028 1.408-.068.433-.036.86-.1 1.283-.166h.005l-19.245-19.25-.057-.057z"/><path fill="#4E9DD8" d="M687.066 278.885L632.013 255.1l1.36 12.913s15.634 8.836 29.226 23.783c13.587 14.95 5.435 70.682 5.435 70.682l8.834 9.513.17-1.565 10.02-91.498.006-.042z"/><path fill="#ccc" d="M906.29 295.902c0-13.81-11.192-25.002-25-25.002-12.44 0-22.73 9.104-24.648 21l28.642 28.64c11.905-1.91 21.005-12.203 21.005-24.638"/><path fill="#B3B3B3" d="M881.29 320.9c.714 0 1.414-.038 2.108-.11.64-.056 1.273-.14 1.898-.245l-.014-.006-28.642-28.64v.003c-.1.63-.192 1.263-.243 1.91-.066.687-.104 1.38-.104 2.09.002 13.802 11.19 24.997 24.997 24.997"/><path fill="#FFDC78" d="M914.445 345.853c0-9.308-7.54-16.847-16.844-16.847-8.378 0-15.315 6.13-16.604 14.147l19.25 19.245c8.03-1.274 14.2-8.16 14.2-16.545"/><path fill="#E8B30C" d="M900.3 362.454l-.054-.056-19.25-19.245v.007c-.07.426-.123.85-.168 1.283-.04.466-.07.935-.07 1.408 0 9.305 7.54 16.842 16.844 16.842.48 0 .954-.025 1.424-.072.425-.044.855-.095 1.275-.166"/><path fill="#4E9DD8" d="M792.24 278.926l10.188 93.064 1.36-1.463 7.476-8.05s-8.152-55.732 5.438-70.682c13.592-14.947 29.223-23.783 29.223-23.783l1.36-12.914-55.047 23.786.002.042zM930.793 375.206H548.502c-5.65 0-10.237 4.584-10.237 10.233v13.056H941.03V385.44c0-5.65-4.585-10.234-10.237-10.234"/><path fill="#427DB2" d="M538.266 398.496v7.427c0 4.116 2.443 7.636 5.94 9.265 1.313.61 2.76.976 4.297.976h123.405v3.352c0 1.905 1.545 3.448 3.443 3.448h128.595c1.9 0 3.445-1.543 3.445-3.448v-3.352h123.402c1.537 0 2.988-.366 4.3-.976 3.5-1.63 5.938-5.148 5.938-9.265v-7.427H538.266z"/><path fill="#4D4D4D" d="M695.3 281.875h8.496v87.158H695.3zM715.355 281.875h8.493v87.158h-8.493zM735.402 281.875h8.495v87.158h-8.495zM755.453 281.875h8.495v87.158h-8.495zM775.5 281.875h8.498v87.158H775.5z"/><path fill="#B3D2E0" d="M621.285 250.112h236.73c4.25 0 7.696-3.452 7.696-7.7v-95.26c0-4.25-3.446-7.7-7.696-7.7h-236.73c-4.245 0-7.692 3.45-7.692 7.7v95.26c0 4.248 3.447 7.7 7.693 7.7m0 0h236.73c4.25 0 7.696-3.452 7.696-7.7v-95.26c0-4.25-3.446-7.7-7.696-7.7h-236.73c-4.245 0-7.692 3.45-7.692 7.7v95.26c0 4.248 3.447 7.7 7.693 7.7"/><path fill="#A7CADE" d="M858.015 139.452H698.36l-52.602 110.66h212.256c4.25 0 7.696-3.452 7.696-7.7v-95.26c0-4.25-3.445-7.7-7.695-7.7"/><defs><path id="g" d="M621.285 139.45c-4.246 0-7.693 3.453-7.693 7.702v95.26c0 4.248 3.447 7.7 7.693 7.7h236.73c4.248 0 7.695-3.452 7.695-7.7v-95.26c0-4.25-3.447-7.7-7.696-7.7h-236.73z"/></defs><clipPath id="h"><use xlink:href="#g" overflow="visible"/></clipPath><path clip-path="url(#h)" fill="#fff" d="M775.72 225.354c0-3.258-2.602-5.897-5.813-5.897-.09 0-.175.008-.262.012 1.134-.844 1.874-2.2 1.874-3.733 0-2.556-2.045-4.628-4.564-4.628-.1 0-.2.007-.3.015.895-1.293 1.28-2.94.935-4.603-.292-1.402-1.053-2.58-2.08-3.406 2.18-1.68 3.46-4.454 3.13-7.415-.4-3.613-3.078-6.407-6.416-7.082.707-.976 1.128-2.176 1.128-3.48 0-3.258-2.604-5.9-5.815-5.9-1.23 0-2.37.393-3.31 1.055-1.27-2.14-2.608-4.19-4.018-6.15 1.728-1.022 2.895-2.918 2.895-5.096 0-3.258-2.603-5.897-5.814-5.897-1.236 0-2.38.394-3.32 1.062.464-.85.73-1.826.73-2.865 0-3.258-2.603-5.9-5.814-5.9-.987 0-1.915.253-2.73.693 1.085-1.286 1.746-2.952 1.746-4.777 0-4.064-3.25-7.357-7.255-7.357-1.38 0-2.663.396-3.76 1.073-1.19-3.18-4.22-5.44-7.77-5.44-2.616 0-4.95 1.23-6.474 3.144-1.34-2.47-3.93-4.144-6.904-4.144-4.034 0-7.356 3.075-7.82 7.038-1.222-2.314-3.628-3.888-6.395-3.888-4.007 0-7.255 3.294-7.255 7.357 0 1.73.592 3.315 1.576 4.57-3.317 1.596-6.504 3.565-9.535 5.875-.394-2.868-2.813-5.078-5.75-5.078-3.212 0-5.815 2.64-5.815 5.9 0 .65.108 1.275.3 1.86-.87-.375-1.827-.583-2.836-.583-4.008 0-7.255 3.295-7.255 7.358 0 3.596 2.546 6.585 5.91 7.225-1.622 2.418-3.145 4.964-4.554 7.628-.878-.956-2.126-1.557-3.518-1.557-2.657 0-4.81 2.184-4.81 4.88 0 1.2.428 2.3 1.137 3.15-.312-.053-.628-.087-.955-.087-3.212 0-5.815 2.64-5.815 5.897 0 1.133.32 2.188.867 3.087-3.632.76-6.158 4.217-5.732 8.03.277 2.496 1.76 4.557 3.79 5.658-1.427.78-2.397 2.312-2.397 4.075 0 1.535.74 2.892 1.873 3.734-2.43.703-4.213 2.97-4.213 5.666 0 2.574 1.628 4.757 3.894 5.56-2.265.806-3.893 2.99-3.893 5.564 0 2.093 1.077 3.928 2.698 4.974-2.444 1.184-4.14 3.707-4.14 6.638 0 3.92 3.027 7.113 6.837 7.335-.645 1.1-1.02 2.378-1.02 3.75 0 3.668 2.652 6.7 6.117 7.256-1.642 1.04-2.74 2.888-2.74 4.996 0 3.26 2.605 5.9 5.817 5.9.973 0 1.886-.246 2.688-.673 0 .03-.003.06-.003.088 0 2.697 2.153 4.882 4.812 4.882.88 0 1.698-.24 2.406-.66-.793 1.077-1.268 2.403-1.268 3.843 0 3.593 2.92 6.502 6.525 6.502 1.667 0 3.184-.63 4.338-1.654-.414 2.737 1.244 5.38 3.885 6.045 2.262.568 4.554-.488 5.727-2.445-.01.17-.017.34-.017.517 0 4.656 3.724 8.43 8.313 8.43 3.744 0 6.907-2.507 7.948-5.957.45 1.875 1.858 3.43 3.8 3.92 2.4.604 4.825-.62 5.925-2.81.654 2.527 2.918 4.396 5.617 4.396 2.584 0 4.77-1.713 5.527-4.077 1.52 2.826 4.616 4.585 7.966 4.2 4.412-.507 7.586-4.547 7.086-9.023 0-.013-.004-.024-.004-.037.992 1.812 2.895 3.038 5.083 3.038 3.213 0 5.814-2.64 5.814-5.898 0-.187-.01-.373-.027-.554.746.352 1.576.553 2.453.553 3.213 0 5.814-2.638 5.814-5.895 0-1.19-.352-2.297-.947-3.224.078-.066.158-.13.238-.197.83.884 2 1.438 3.3 1.438 2.52 0 4.562-2.07 4.562-4.63 0-1.364-.59-2.59-1.517-3.436l.025-.033c1.258.923 2.804 1.472 4.475 1.472 4.213 0 7.63-3.467 7.63-7.74 0-2.734-1.397-5.136-3.507-6.512.853.376 1.81.54 2.8.427 3.01-.346 5.177-3.104 4.835-6.16-.34-3.056-3.06-5.252-6.07-4.905-.01 0-.017.004-.027.005l.048-.23c2.508-.75 4.2-3.235 3.898-5.96-.197-1.766-1.193-3.242-2.577-4.108l.02-.29c.088.003.177.014.266.014 3.213 0 5.815-2.64 5.815-5.9 0-1.692-.707-3.214-1.832-4.29 2.202-.843 3.773-2.994 3.773-5.52m-41.79-67.438c.135-.07.265-.143.393-.22-.083.105-.164.213-.238.324l-.155-.104m-88.707 63.395l-.016-.01.018-.008c-.002.005-.002.01-.002.02m34.78 69.802c.015.007.03.01.046.016l-.042.09-.006-.106m83.86-29.356c-.108-.052-.22-.1-.33-.146.01-.025.02-.05.026-.075.1.078.202.15.303.22"/><path clip-path="url(#h)" fill="#E2DED6" d="M670.163 195.87c-.503 17.172 15.157 25.267 34.75 25.893 19.59.625 35.695-6.46 36.198-23.635.505-17.173-15.042-36.638-34.634-37.262-19.59-.624-35.81 17.83-36.313 35.003"/><path clip-path="url(#h)" fill="#fff" d="M687.512 153.19c0 4.063-3.247 7.358-7.255 7.358-4.005 0-7.253-3.295-7.253-7.357 0-4.063 3.248-7.357 7.253-7.357 4.008 0 7.255 3.294 7.255 7.358"/><path clip-path="url(#h)" fill="#3A3A3A" d="M695.118 198.34l.296.04c.188.032.473.065.82.125s.767.13 1.25.21c.47.086 1.002.184 1.583.288.573.106 1.192.22 1.84.332.644.113 1.32.225 2.01.326.688.102 1.395.193 2.096.254.175.013.353.03.528.045l.522.015.52.022.512-.012h.349c-.03 0 .077-.008-.066.004h.01l.018-.005.148-.014.585-.05.288-.025.234-.037.47-.066c.15-.01.33-.065.497-.097l.508-.09c.337-.08.67-.168 1.004-.24.332-.09.66-.18.98-.27.32-.096.638-.19.946-.284.617-.194 1.21-.387 1.758-.572 1.12-.385 2.056-.707 2.71-.93l.787-.266c.186-.06.284-.094.284-.094s-.22.366-.677.936c-.46.564-1.17 1.33-2.134 2.123-.48.397-1.028.798-1.632 1.19-.3.198-.628.372-.956.564-.33.193-.69.348-1.048.527-.364.165-.747.31-1.133.458-.403.13-.788.267-1.23.37l-.677.148-.342.072-.295.037-.585.07-.148.016-.11.01h-.124l-.337.01-.67.005c-.22-.007-.438-.033-.654-.05-.218-.016-.437-.03-.647-.06-.21-.038-.42-.07-.63-.105-.42-.057-.82-.16-1.216-.263-.4-.09-.78-.214-1.155-.34-.746-.24-1.44-.532-2.082-.834-.645-.3-1.232-.623-1.76-.942-1.057-.638-1.873-1.272-2.422-1.75-.273-.235-.474-.446-.616-.58-.136-.138-.206-.22-.206-.22"/><path clip-path="url(#h)" fill="#3A3A3A" d="M708.387 200.71l-1.756 5.142-1.34-5.27z"/><path clip-path="url(#h)" fill="#212120" d="M700.283 206.515l.162.047c.103.034.26.07.447.133.382.11.916.27 1.538.44.312.082.647.167.995.25.352.08.715.155 1.088.222.374.06.758.112 1.14.145.38.028.774.048 1.136.026.222-.008.45-.01.614-.037.18-.02.36-.026.562-.06.39-.052.778-.113 1.16-.19.19-.032.376-.076.563-.113.184-.036.362-.078.542-.12.356-.076.696-.16 1.014-.236.65-.152 1.19-.28 1.57-.368.19-.05.352-.076.457-.102.105-.024.164-.035.164-.035s-.034.048-.103.137c-.072.083-.17.216-.313.36-.278.303-.707.707-1.276 1.113-.283.204-.602.412-.954.606-.353.2-.735.387-1.15.545-.206.088-.42.158-.642.226-.11.035-.222.07-.334.102l-.346.08c-.44.113-1.043.176-1.438.19-.52.017-1.008-.02-1.49-.107-.478-.08-.935-.214-1.358-.37-.426-.158-.816-.35-1.174-.546-.177-.107-.346-.21-.506-.312-.156-.112-.31-.213-.45-.32-.28-.218-.523-.43-.73-.63-.206-.198-.37-.39-.505-.547-.265-.316-.384-.525-.384-.525"/><path clip-path="url(#h)" fill="#E2DED6" d="M661.736 178.128c0 3.258-2.604 5.897-5.814 5.897-3.212 0-5.816-2.64-5.816-5.897s2.604-5.897 5.816-5.897c3.21 0 5.814 2.642 5.814 5.898M756.284 177.11c0 2.558-2.044 4.63-4.562 4.63-2.52 0-4.564-2.072-4.564-4.63 0-2.555 2.043-4.627 4.564-4.627 2.518 0 4.562 2.072 4.562 4.628"/><path clip-path="url(#h)" fill="#CB2A2B" d="M704.428 227.403s-9.198-7.344-11.354-.44c-2.156 6.908.216 9.964 4.02 10.328 3.8.367 7.943-6.63 7.943-6.63l-.61-3.257zM709.836 226.762s9.188-7.356 11.353-.455c2.163 6.905-.205 9.964-4.008 10.334-3.803.372-7.95-6.62-7.95-6.62l.604-3.258zM711.188 229.205c.256 2.19-.877 4.127-3.4 4.432-2.52.303-4.068-1.312-4.324-3.5-.255-2.192.877-4.128 3.4-4.432 2.52-.305 4.068 1.31 4.324 3.5"/><path clip-path="url(#h)" fill="#2F160C" d="M686.956 191.14s.015-.053.052-.15c.04-.094.09-.238.174-.41.162-.346.425-.83.813-1.366.196-.266.427-.543.69-.822.136-.135.275-.274.427-.413.155-.132.315-.266.485-.395.35-.25.733-.488 1.162-.67.43-.18.897-.318 1.388-.36l.37-.024.045-.002.01-.002.038.002h.02l.08.005.156.008c.214.012.4.015.642.055.466.055.892.16 1.295.288.812.263 1.51.668 2.028 1.093.264.213.482.432.66.637.185.197.32.395.426.556.214.323.286.534.286.534s-.17-.138-.478-.34c-.155-.1-.346-.212-.563-.333-.106-.06-.226-.122-.352-.18-.124-.063-.254-.122-.393-.18-.273-.122-.577-.234-.896-.333-.323-.102-.667-.185-1.02-.253-.358-.066-.734-.11-1.09-.136-.168-.026-.395-.013-.6-.023l-.156-.005-.078-.002h-.025.025-.01l-.032.004-.26.023c-.345.02-.69.12-1.03.232-.17.052-.336.14-.504.204-.166.074-.324.17-.486.246-.158.093-.313.184-.464.275l-.438.29c-.28.2-.547.396-.79.587-.485.38-.882.727-1.163.97l-.444.392M712.662 188.862s.022-.05.077-.136c.054-.087.13-.22.242-.372.22-.314.563-.742 1.037-1.2.24-.227.515-.458.82-.686.16-.11.32-.22.493-.33.178-.1.356-.203.548-.3.386-.185.807-.35 1.26-.452.455-.1.94-.152 1.43-.106l.367.04.045.008h.013l.036.008.02.005.077.02.152.035c.208.05.392.086.62.17.45.136.852.315 1.227.514.754.402 1.367.927 1.805 1.44.223.254.4.51.54.74.146.23.245.45.322.625.153.358.188.58.188.58s-.144-.168-.412-.42c-.136-.127-.304-.273-.496-.43-.094-.08-.2-.163-.314-.242-.11-.082-.23-.167-.355-.247-.248-.17-.527-.332-.826-.49-.3-.156-.622-.3-.96-.43-.34-.128-.7-.24-1.048-.328-.16-.054-.39-.083-.587-.13l-.15-.033-.078-.016-.02-.005h-.004c.05.01.01 0 .02.004l-.007-.002-.032-.002-.26-.023c-.344-.043-.7-.008-1.056.04-.177.023-.354.08-.53.112-.177.043-.35.11-.522.154l-.503.187c-.166.07-.327.14-.482.208-.31.144-.606.29-.878.435-.545.287-.996.556-1.314.747l-.506.305"/><path clip-path="url(#h)" fill="#ECADB0" d="M686.956 197.012c0 2.54-2.084 4.6-4.655 4.6-2.57 0-4.655-2.06-4.655-4.6 0-2.54 2.084-4.6 4.656-4.6 2.572 0 4.656 2.06 4.656 4.6M734.93 196.166c0 2.54-2.086 4.6-4.658 4.6-2.57 0-4.655-2.06-4.655-4.6 0-2.54 2.084-4.6 4.655-4.6 2.572 0 4.657 2.06 4.657 4.6"/><path clip-path="url(#h)" fill="#1B1C1C" d="M669.47 173.15c1.456-2.04-10.44-7.266-18.86.723-8.422 7.986 4.078 19.95 18.86-.723M741.137 171.89c-1.365-2.106 10.756-6.766 18.804 1.61 8.048 8.375-4.986 19.738-18.803-1.61"/><path clip-path="url(#h)" fill="#93918B" d="M672.15 157.988s4.69 2.272 10.016.468c5.562-1.883 5.862-6.233 5.862-6.233s-3.633-17.963-18.1-22.18c-14.466-4.22-24.68 10.105-24.68 10.105s12.003-4.79 18.957.85c4.986 4.043 7.944 16.99 7.944 16.99M741.473 158.902s-4.67 3.663-9.993 1.86c-5.562-1.883-6.896-7.283-6.896-7.283s4.666-16.914 19.132-21.133c14.467-4.22 23.647 12.902 23.647 12.902s-10.97-7.59-17.924-1.948c-4.985 4.043-7.967 15.6-7.967 15.6"/><path clip-path="url(#h)" fill="#2F160C" d="M688.742 188.807s-.016.062-.075.165c-.03.046-.065.112-.12.17-.057.055-.113.133-.2.185-.078.057-.167.132-.273.172-.106.046-.218.103-.342.122-.122.024-.254.063-.384.054-.138-.002-.25.005-.412-.02-.06-.013-.11-.022-.18-.04-.076-.024-.15-.052-.22-.082-.134-.065-.253-.148-.356-.245-.1-.1-.18-.208-.237-.318s-.095-.22-.116-.32c-.048-.202-.035-.372-.017-.485.02-.114.05-.174.05-.174s.122.24.326.49c.05.06.112.118.172.174.063.055.133.103.203.147.038.017.077.036.11.057.042.014.08.03.12.05.038.007.074.014.108.028.045.012.113.02.168.032.067.014.195.015.287.03.102.02.195.002.293.01.1.01.187-.01.277-.012.092 0 .174-.022.256-.03.32-.06.562-.16.562-.16M722.197 187.497s.24.103.56.16c.083.01.165.032.26.032.09.002.176.02.274.01.1-.007.194.01.295-.01.095-.016.218-.016.286-.03.056-.01.124-.02.17-.032.034-.013.07-.02.107-.03.04-.018.078-.033.12-.047.035-.02.072-.038.11-.056.07-.044.14-.09.2-.147.063-.055.124-.113.175-.175.204-.248.328-.49.328-.49s.027.062.046.175c.02.114.03.283-.014.484-.023.103-.06.21-.117.322-.06.11-.138.218-.238.316-.102.098-.223.182-.354.246-.072.03-.148.06-.224.083-.067.018-.118.027-.178.04-.164.025-.275.017-.413.02-.13.01-.262-.032-.385-.055-.124-.02-.238-.076-.342-.123-.107-.042-.195-.116-.275-.173-.085-.05-.143-.13-.197-.186-.056-.056-.09-.122-.122-.168-.057-.103-.07-.165-.07-.165"/><path clip-path="url(#h)" fill="#fff" d="M704.744 153.954c-7.583.7-23.595 7.21-29.363 20.85-5.77 13.642-4.58 11.072-4.58 11.072s8.91-1.9 18.55-5.902c9.64-4.005 15.44-10.24 15.44-10.24s2.282 2.877 16.23 9.045c10.816 4.78 18.254 4.687 18.254 4.687s-9.05-31.863-34.53-29.513"/><path clip-path="url(#h)" fill="#231F20" d="M702.067 205.816c-20.06 2.186-34.597 20.282-32.41 40.338 2.184 20.056 20.278 34.596 40.335 32.412 20.057-2.186 34.597-20.28 32.41-40.337-2.183-20.057-20.28-34.6-40.335-32.414m-22.602 39.27c-.068-.623-.106-1.242-.128-1.863 2.123.047 6.002.423 9.94 2.304 7.568 3.62 12.025 11.14 13.248 22.37.03.277.09.54.166.807-11.99-1.516-21.86-11.09-23.225-23.618m26.38-4.6c-1.586.174-2.95.973-3.876 2.12-2.915-2.927-6.056-4.898-8.925-6.206-4.644-2.125-9.137-2.807-12.248-2.99 3.295-9.427 11.768-16.63 22.34-17.78 10.5-1.147 20.262 3.99 25.536 12.38-2.983.727-7.858 2.36-12.517 5.866-2.352 1.774-4.803 4.145-6.916 7.283-1-.547-2.176-.805-3.396-.673m7.826 27.31c.045-.364.05-.738.01-1.116-1.224-11.228 1.512-19.532 8.125-24.696 4.374-3.417 9.183-4.438 10.495-4.66.122.652.226 1.303.3 1.972 1.416 13.012-6.806 24.884-18.93 28.5"/><path clip-path="url(#h)" fill="#1B1C1C" d="M653.222 242.796c-5.32-5.198 2.497-10.144 7.396-14.354 4.9-4.214 12.494-8.47 16.357-2.603 3.584 5.44-3.938 10.735-8.96 12.835-7.478 3.13-11.177 7.655-14.793 4.12"/><path clip-path="url(#h)" fill="#fff" d="M660.953 250.607c-2.994 2.043-6.95 1.462-8.834-1.3-1.886-2.762-.988-6.657 2.007-8.704 2.994-2.042 6.95-1.458 8.836 1.303 1.885 2.763.984 6.658-2.01 8.7M651.816 242.498c-2.986.362-5.703-1.768-6.066-4.755-.363-2.99 1.765-5.707 4.752-6.068 2.988-.365 5.7 1.765 6.064 4.755.363 2.99-1.763 5.705-4.75 6.068"/><path clip-path="url(#h)" fill="#3A3A3A" d="M671.363 230.092l.05-.11c.03-.06.08-.166.142-.266.065-.106.143-.24.237-.364.093-.13.2-.26.32-.392.24-.257.534-.502.862-.69.08-.052.166-.09.252-.13.085-.046.173-.083.262-.113.18-.074.365-.113.55-.16.19-.028.378-.06.57-.06.19-.01.382.003.57.03.374.05.74.16 1.06.307.16.076.312.154.447.237.133.08.256.174.355.244.098.07.182.15.237.194.056.05.085.078.085.078l.037.19s-.094.027-.255.07c-.162.038-.393.11-.672.17-.56.122-1.31.288-2.055.454l-2.07.367c-.283.053-.523.075-.688.1l-.26.035-.037-.19zM669.455 226.162s.013-.035.033-.105c.023-.064.05-.178.095-.282.046-.107.097-.248.167-.373.068-.132.145-.282.24-.418.184-.275.418-.542.69-.754.137-.108.28-.206.435-.287.15-.082.313-.148.48-.2.164-.055.334-.09.505-.113.174-.02.347-.03.522-.016.345.018.688.1 1 .216.153.057.304.134.435.2.13.06.254.146.354.207.1.056.187.136.243.173l.086.067.058.187s-.32.133-.81.313c-.245.088-.528.198-.836.3l-.966.322-.974.297c-.31.096-.604.17-.854.242-.504.13-.842.21-.842.21l-.06-.188z"/><path clip-path="url(#h)" fill="#1B1C1C" d="M757.8 233.175c4.313-6.062-3.968-9.195-9.783-12.01-8.15-3.942-13.127-6.168-16.58-.052-4.203 7.435 5.02 9.69 12.347 11.77 7.798 2.214 11.09 4.41 14.017.292"/><path clip-path="url(#h)" fill="#fff" d="M753.453 231.72c2.848-.166 5.293 2.012 5.46 4.862.165 2.85-2.01 5.294-4.86 5.46-2.85.166-5.292-2.01-5.455-4.86-.166-2.85 2.006-5.297 4.855-5.463M762.844 225.41c2.887 2.193 3.588 6.13 1.564 8.793s-6.002 3.043-8.89.852c-2.888-2.193-3.59-6.13-1.564-8.794 2.02-2.662 6.002-3.04 8.89-.85"/><path clip-path="url(#h)" fill="#3A3A3A" d="M733.183 219.988l.08-.085c.053-.05.13-.136.225-.208.094-.08.21-.182.34-.27.128-.09.272-.182.43-.266.31-.17.665-.31 1.036-.382.092-.024.186-.03.28-.043.096-.015.19-.022.286-.022.19-.01.38.01.57.025.19.036.38.063.56.126.183.05.36.125.53.21.34.166.648.39.906.633.127.12.244.243.346.366.103.118.188.245.258.346.074.092.127.197.164.254l.057.103-.024.194-.262-.017c-.168-.014-.408-.022-.693-.054l-2.09-.227-2.08-.317c-.283-.04-.518-.097-.682-.125-.165-.03-.26-.05-.26-.05l.025-.192zM731.108 223.395s.034-.025.097-.066c.06-.036.156-.104.264-.153.108-.057.242-.13.39-.186.146-.06.306-.114.478-.162.34-.096.716-.15 1.094-.135.095-.003.188.01.28.018.098.01.19.025.283.047.188.03.368.093.55.152.175.076.353.145.514.247.165.09.32.202.467.324.29.238.54.526.734.82.1.147.185.294.255.437.072.137.125.28.173.393.05.108.076.222.1.286l.03.113-.068.183s-.09-.03-.25-.077c-.16-.052-.39-.11-.66-.21-.54-.188-1.26-.438-1.98-.69-.706-.282-1.414-.564-1.945-.78-.268-.1-.48-.208-.634-.273l-.24-.106.068-.182z"/><g fill="#231F20"><path d="M583.062 184.87c.03-2.17.247-4.31.557-5.554h3.91v-8.152h-5.46c-1.56 0-3.034.645-4.157 1.816-2.52 2.63-3.02 8.058-3.016 12.068-7.3 1.937-12.706 8.535-12.706 16.444v14.78c0 9.428 7.647 17.076 17.076 17.076 9.43 0 17.074-7.648 17.074-17.077v-14.778c0-8.122-5.682-14.888-13.278-16.62M895.46 184.87c-.03-2.17-.247-4.31-.557-5.554h-3.91v-8.152h5.458c1.562 0 3.036.645 4.16 1.816 2.518 2.63 3.02 8.058 3.015 12.068 7.3 1.937 12.705 8.535 12.705 16.444v14.78c0 9.428-7.646 17.076-17.074 17.076-9.43 0-17.074-7.648-17.074-17.077v-14.778c0-8.122 5.68-14.888 13.278-16.62"/></g></svg>