<?xml version="1.0" encoding="utf-8"?>
<!-- Generator: Adobe Illustrator 16.0.0, SVG Export Plug-In . SVG Version: 6.00 Build 0)  -->
<!DOCTYPE svg PUBLIC "-//W3C//DTD SVG 1.1//EN" "http://www.w3.org/Graphics/SVG/1.1/DTD/svg11.dtd">
<svg version="1.1" xmlns="http://www.w3.org/2000/svg" xmlns:xlink="http://www.w3.org/1999/xlink" x="0px" y="0px"
	 width="182.225px" height="212.064px" viewBox="0 0 182.225 212.064" enable-background="new 0 0 182.225 212.064"
	 xml:space="preserve">
<g id="Layer_2">
</g>
<g id="Layer_1">
	<ellipse opacity="0.4" fill="#232323" cx="93.259" cy="205.82" rx="28.933" ry="5.857"/>
	<g>
		<path fill="#EDBD1F" d="M69.112,86.922c-16.532,2.396-21.583,13.303-22.107,34.926c-0.629,26.09,2.801,54.254,29.85,49.19
			c32.52-6.089,26.112-43.829,19.962-67.742C93.063,88.714,83.161,84.887,69.112,86.922z"/>
		<path fill="#642C10" d="M143.322,169.996c-14.515-9.218-26.467-1.729-26.467-1.729l1.018,2.911c0,0,2.961-0.69,6.366-0.036
			c1.952,0.752,5.135,2.675,5.626,7.296c0.714,6.737-0.42,16.673-0.42,16.673s3.981-11.49,3.272-17.357
			c0.31,0.682,0.586,1.422,0.811,2.242c3.244,11.729-3.313,26.458-3.313,26.458l25.372-3.446
			C155.587,203.008,157.838,179.21,143.322,169.996z"/>
		<path fill="#642C10" d="M64.075,30.46c0.001,0-10.777,8.702-13.976,28.022c-3.195,19.322,2.606,31.517,2.606,31.517
			s0.711-6.285,1.659-10.202c0.945-3.915,0.945-3.915,0.945-3.915s0.797,11.888,5.804,18.487
			c5.009,6.599,33.159,24.224,33.159,24.224s23.404-13.282,33.123-28.594c6.166-9.714,5.646-18.149,5.646-18.149
			s1.918,3.631,2.299,7.438c0.473,4.744,0.59,7.909,0.59,7.909s5.832-15.381-1.272-34.815c-7.768-21.243-20.094-33.63-41.448-33.63
			C73.196,18.75,64.075,30.46,64.075,30.46z"/>
		<path fill="#BD4D33" d="M128.852,66.871c3.574,21.979-15.829,36.583-35.356,36.583c-19.526,0-38.654-14.559-35.354-36.583
			c3.422-22.837,15.563-42.272,35.089-42.272C112.755,24.599,125.136,44.033,128.852,66.871z"/>
		<path fill="#BD4D33" d="M67.91,93.592c0,0-10.999,55.627-5.772,66.587c4.746,9.95,9.286,15.446,33.465,15.446
			c20.095,0,28.569-4.704,30.876-14.985c2.187-9.76-7.169-66.828-7.169-66.828L67.91,93.592z"/>
		<path fill="#415F83" d="M126.673,158.146c-20.496-0.361-44.733,0.352-65.229-0.009c-0.716,13.347,7.181,38.104,17.587,46.573
			c8.224,6.693-0.179-16.032,8.224-20.115c2.889-1.404,13.136-1.858,15.798,1.918c3.371,4.782-1.973,25.112,6.75,18.147
			C111.591,203.234,128.852,179.283,126.673,158.146z"/>
		<path fill="#2F160C" d="M82.497,41.718c-4.239-1.078-8.583-0.681-8.081,2.271c0.502,2.953,3.721,3.39,6.948,2.87
			c3.229-0.522,5.732-1.055,5.193-2.801C86.018,42.312,82.497,41.718,82.497,41.718z"/>
		<path fill="#2D2D2D" d="M77.053,102.924c0,0,7.61,6.124,17.871,6.16c10.265,0.033,17.382-6.16,17.382-6.16l5.041,57.04
			c0,0-8.134,5.735-23.223,6.105c-12.438,0.305-25.546-8.031-25.546-8.031L77.053,102.924z"/>
		<g>
			<path fill="#FFFFFF" d="M97.24,133.612c0,2.733-1.415,6.282-3.163,6.282s-3.165-3.549-3.165-6.282
				c0-2.73,1.417-3.609,3.165-3.609S97.24,130.882,97.24,133.612z"/>
			<path fill="#FFFFFF" d="M95.733,127.832c0,0.799-0.748,1.447-1.67,1.447c-0.921,0-1.669-0.648-1.669-1.447
				c0-0.803,0.748-1.449,1.669-1.449C94.985,126.383,95.733,127.029,95.733,127.832z"/>
			<path fill="#FFFFFF" d="M90.448,131.951c-0.19-0.102-0.356-0.221-0.521-0.342c-0.162-0.122-0.319-0.253-0.468-0.388
				c-0.297-0.271-0.565-0.56-0.815-0.865l0.616,0.034c-0.305,0.313-0.629,0.607-0.983,0.87c-0.174,0.134-0.356,0.26-0.551,0.377
				c-0.198,0.112-0.388,0.228-0.614,0.313c0.088-0.224,0.203-0.418,0.315-0.615c0.115-0.192,0.243-0.375,0.375-0.55
				c0.265-0.354,0.559-0.677,0.872-0.983l0.334-0.328l0.283,0.364c0.24,0.31,0.465,0.639,0.664,0.987
				c0.1,0.173,0.192,0.352,0.277,0.539C90.314,131.554,90.393,131.741,90.448,131.951z"/>
			<path fill="#FFFFFF" d="M90.009,134.755c-0.217-0.01-0.417-0.047-0.619-0.084c-0.198-0.041-0.396-0.092-0.588-0.149
				c-0.382-0.118-0.75-0.265-1.106-0.433l0.571-0.233c-0.141,0.413-0.306,0.817-0.515,1.207c-0.103,0.197-0.213,0.389-0.337,0.576
				c-0.129,0.187-0.255,0.375-0.42,0.546c-0.02-0.237,0.002-0.464,0.019-0.688c0.023-0.223,0.059-0.444,0.104-0.659
				c0.088-0.432,0.215-0.852,0.367-1.262l0.162-0.44l0.409,0.209c0.355,0.177,0.697,0.377,1.024,0.607
				c0.164,0.113,0.326,0.235,0.481,0.367C89.717,134.453,89.869,134.59,90.009,134.755z"/>
			<path fill="#FFFFFF" d="M90.518,137.297c-0.188,0.105-0.378,0.184-0.568,0.259c-0.19,0.072-0.385,0.133-0.577,0.187
				c-0.387,0.106-0.778,0.179-1.169,0.229l0.356-0.505c0.104,0.425,0.181,0.856,0.213,1.297c0.02,0.219,0.027,0.442,0.023,0.667
				c-0.01,0.225-0.016,0.451-0.063,0.686c-0.143-0.191-0.245-0.391-0.352-0.591c-0.101-0.203-0.187-0.407-0.265-0.615
				c-0.155-0.411-0.272-0.831-0.364-1.261l-0.097-0.458l0.455-0.046c0.396-0.038,0.792-0.051,1.19-0.034
				c0.2,0.011,0.4,0.027,0.602,0.058C90.109,137.197,90.312,137.23,90.518,137.297z"/>
			<path fill="#FFFFFF" d="M97.723,132.073c0.055-0.208,0.137-0.398,0.217-0.585c0.084-0.188,0.178-0.367,0.277-0.541
				c0.199-0.348,0.422-0.676,0.664-0.987l0.282-0.363l0.335,0.329c0.314,0.305,0.605,0.627,0.871,0.982
				c0.133,0.175,0.26,0.357,0.376,0.553c0.113,0.193,0.229,0.389,0.314,0.612c-0.223-0.086-0.419-0.201-0.615-0.314
				c-0.19-0.118-0.375-0.241-0.552-0.375c-0.354-0.266-0.675-0.558-0.98-0.872l0.616-0.034c-0.249,0.306-0.522,0.597-0.815,0.867
				c-0.152,0.135-0.304,0.265-0.467,0.386C98.081,131.852,97.914,131.973,97.723,132.073z"/>
			<path fill="#FFFFFF" d="M98.161,134.876c0.142-0.164,0.294-0.3,0.45-0.435c0.155-0.133,0.314-0.254,0.479-0.37
				c0.328-0.229,0.671-0.429,1.024-0.607l0.411-0.206l0.162,0.441c0.152,0.408,0.278,0.827,0.364,1.261
				c0.047,0.216,0.082,0.436,0.105,0.659c0.017,0.227,0.037,0.448,0.019,0.688c-0.163-0.172-0.293-0.359-0.42-0.546
				c-0.124-0.188-0.236-0.381-0.336-0.575c-0.206-0.391-0.374-0.796-0.513-1.208l0.57,0.234c-0.357,0.167-0.726,0.313-1.11,0.432
				c-0.192,0.056-0.386,0.108-0.586,0.148C98.578,134.83,98.379,134.867,98.161,134.876z"/>
			<path fill="#FFFFFF" d="M97.655,137.417c0.205-0.063,0.408-0.098,0.609-0.128c0.205-0.03,0.405-0.045,0.605-0.057
				c0.398-0.017,0.797-0.003,1.19,0.035l0.457,0.045l-0.098,0.459c-0.092,0.428-0.206,0.849-0.365,1.262
				c-0.078,0.207-0.164,0.409-0.265,0.612c-0.105,0.198-0.209,0.399-0.353,0.592c-0.046-0.235-0.052-0.459-0.062-0.685
				c-0.006-0.226,0.003-0.449,0.022-0.668c0.033-0.44,0.109-0.87,0.211-1.297l0.359,0.505c-0.394-0.051-0.785-0.124-1.172-0.229
				c-0.191-0.053-0.384-0.114-0.575-0.187C98.033,137.603,97.841,137.526,97.655,137.417z"/>
			<path fill="#FFFFFF" d="M93.137,126.05c0,0-0.038-0.062-0.103-0.141c-0.027-0.04-0.074-0.085-0.117-0.138
				c-0.049-0.053-0.089-0.111-0.15-0.168c-0.059-0.06-0.115-0.122-0.169-0.189c-0.063-0.064-0.136-0.132-0.198-0.201
				c-0.066-0.071-0.124-0.148-0.201-0.219c-0.073-0.068-0.141-0.146-0.211-0.224c-0.061-0.081-0.138-0.155-0.209-0.229
				c-0.073-0.072-0.141-0.153-0.204-0.23c-0.064-0.076-0.116-0.162-0.182-0.231c-0.062-0.072-0.117-0.145-0.17-0.21
				c-0.101-0.142-0.18-0.27-0.23-0.367c-0.056-0.094-0.08-0.16-0.08-0.16s0.067,0.005,0.172,0.023
				c0.107,0.018,0.258,0.057,0.43,0.115c0.084,0.03,0.176,0.066,0.272,0.105c0.095,0.04,0.182,0.107,0.276,0.167
				c0.093,0.063,0.188,0.135,0.279,0.208c0.095,0.07,0.184,0.152,0.263,0.248c0.076,0.094,0.155,0.188,0.227,0.285
				c0.077,0.092,0.129,0.203,0.184,0.309c0.049,0.106,0.096,0.209,0.13,0.309c0.03,0.108,0.049,0.209,0.066,0.303
				c0.02,0.091,0.01,0.187,0.01,0.264c0,0.076-0.01,0.146-0.024,0.205C93.175,125.996,93.137,126.05,93.137,126.05z"/>
			<path fill="#FFFFFF" d="M94.898,125.81c0,0-0.035-0.056-0.061-0.169c-0.012-0.057-0.024-0.127-0.023-0.203
				c-0.001-0.075-0.008-0.174,0.013-0.265c0.015-0.089,0.036-0.194,0.063-0.3c0.034-0.105,0.083-0.202,0.132-0.311
				c0.053-0.106,0.107-0.218,0.184-0.311c0.068-0.096,0.148-0.189,0.228-0.283c0.077-0.096,0.164-0.178,0.262-0.249
				c0.092-0.075,0.186-0.141,0.277-0.206c0.094-0.061,0.183-0.127,0.279-0.166c0.094-0.041,0.185-0.078,0.271-0.107
				c0.172-0.061,0.321-0.096,0.431-0.115c0.105-0.02,0.171-0.021,0.171-0.021s-0.027,0.064-0.08,0.16
				c-0.05,0.096-0.129,0.224-0.231,0.362c-0.051,0.069-0.106,0.143-0.171,0.213c-0.065,0.067-0.114,0.157-0.178,0.231
				c-0.066,0.079-0.133,0.157-0.205,0.232c-0.073,0.074-0.148,0.145-0.211,0.229c-0.067,0.078-0.137,0.152-0.211,0.225
				c-0.076,0.068-0.135,0.145-0.198,0.215c-0.066,0.072-0.138,0.137-0.198,0.202c-0.056,0.068-0.114,0.132-0.171,0.19
				c-0.062,0.059-0.104,0.116-0.149,0.168c-0.043,0.053-0.09,0.098-0.118,0.138C94.937,125.748,94.898,125.81,94.898,125.81z"/>
		</g>
		<path fill="#CC5552" d="M94.14,117.326c-8.146,0-14.777,6.629-14.777,14.777s6.631,14.775,14.777,14.775
			c8.147,0,14.776-6.627,14.776-14.775S102.287,117.326,94.14,117.326z M94.126,120.898c3.312,0,4.996,0.408,7.052,2.698
			l-16.771,14.921c-1.268-1.817-1.495-4.022-1.495-6.401C82.911,125.932,87.941,120.898,94.126,120.898z M94.126,143.334
			c-2.714,0-4.95-0.453-6.891-2.067l16.939-14.128c0.748,1.502,1.171,3.189,1.171,4.977
			C105.346,138.302,100.313,143.334,94.126,143.334z"/>
		<path fill="#F16822" d="M81.92,101.655l-5.204,67.925c0,0-17.148-7.022-18.574-12.218c-1.426-5.197,9.559-63.366,9.559-63.366
			L81.92,101.655z"/>
		<path fill="#F16822" d="M105.396,100.223l5.201,67.927c0,0,17.146-7.023,18.575-12.22c1.425-5.196-9.559-63.366-9.559-63.366
			L105.396,100.223z"/>
		<path fill="#F16822" d="M119.004,92.605c0,0,10.578,6.107,17.354,10.511c6.782,4.408,9.834,6.946,9.834,6.946
			s-5.084,6.723-7.459,9.548c-2.375,2.83-8.474,7.983-8.474,7.983s-11.42-14.448-13.846-21.156
			C113.987,99.729,119.004,92.605,119.004,92.605z"/>
		<g>
			<defs>
				<path id="SVGID_15_" d="M128.852,67.548c0,22.271-15.829,36.581-35.356,36.581c-19.526,0-35.354-14.31-35.354-36.581
					c0-22.269,15.827-44.842,35.354-44.842C113.022,22.706,128.852,45.279,128.852,67.548z"/>
			</defs>
			<clipPath id="SVGID_2_">
				<use xlink:href="#SVGID_15_"  overflow="visible"/>
			</clipPath>
			<path clip-path="url(#SVGID_2_)" fill="#E3735D" d="M119.426,90.667c0,12.726-11.485,17.433-25.652,17.433
				s-25.652-4.707-25.652-17.433c0-12.729,11.485-23.341,25.652-23.341S119.426,77.938,119.426,90.667z"/>
		</g>
		<path fill="#2F160C" d="M84.854,57.612c0,4.49-4.166,4.49-4.166,0C80.688,53.125,84.854,53.125,84.854,57.612z"/>
		<path fill="#4F1E0B" d="M79.332,89.223c0,0,0.409,0.252,1.142,0.659c0.73,0.41,1.785,0.968,3.071,1.571
			c0.649,0.295,1.35,0.599,2.102,0.898c0.756,0.289,1.561,0.566,2.397,0.818c0.838,0.248,1.716,0.447,2.61,0.604
			c0.895,0.155,1.814,0.222,2.721,0.226c0.488,0,0.939-0.009,1.405-0.033c0.463-0.019,0.925-0.059,1.382-0.105
			c0.916-0.084,1.808-0.215,2.666-0.395c0.854-0.182,1.676-0.384,2.434-0.64c0.76-0.255,1.468-0.529,2.102-0.834
			c0.629-0.304,1.195-0.611,1.672-0.932c0.475-0.318,0.875-0.622,1.183-0.898c0.309-0.273,0.536-0.512,0.687-0.678
			c0.149-0.171,0.226-0.262,0.226-0.262s-0.056,0.106-0.164,0.306c-0.118,0.192-0.287,0.483-0.56,0.813
			c-0.526,0.668-1.421,1.54-2.679,2.314c-0.625,0.39-1.334,0.775-2.115,1.097c-0.78,0.325-1.62,0.635-2.516,0.858
			c-0.894,0.23-1.829,0.423-2.787,0.544c-0.482,0.055-0.969,0.105-1.455,0.133c-0.485,0.035-0.994,0.049-1.464,0.055
			c-1.011,0.018-2.004-0.099-2.966-0.274c-0.961-0.171-1.884-0.444-2.753-0.748c-0.871-0.3-1.689-0.655-2.438-1.03
			c-0.755-0.365-1.445-0.753-2.064-1.139c-0.622-0.378-1.175-0.755-1.65-1.104c-0.477-0.343-0.878-0.667-1.204-0.938
			C79.666,89.571,79.332,89.223,79.332,89.223z"/>
		<path fill="#642C10" d="M89.379,77.01c0,0,0.029,0.005,0.087,0.011c0.056,0.011,0.151,0.015,0.241,0.038
			c0.094,0.024,0.213,0.045,0.323,0.085c0.115,0.037,0.247,0.078,0.368,0.134c0.248,0.109,0.492,0.266,0.704,0.452
			c0.216,0.187,0.389,0.416,0.522,0.667c0.129,0.252,0.215,0.526,0.246,0.81c0.033,0.282,0.018,0.569-0.038,0.835
			c-0.024,0.134-0.065,0.265-0.104,0.38c-0.03,0.113-0.079,0.225-0.118,0.313c-0.033,0.086-0.084,0.167-0.107,0.219
			c-0.026,0.05-0.04,0.079-0.04,0.079s-0.034-0.006-0.093-0.012c-0.051-0.01-0.148-0.015-0.238-0.037
			c-0.093-0.021-0.213-0.045-0.324-0.083c-0.117-0.038-0.248-0.08-0.371-0.134c-0.248-0.111-0.491-0.265-0.704-0.454
			c-0.212-0.188-0.387-0.417-0.517-0.668c-0.129-0.25-0.214-0.526-0.247-0.808c-0.028-0.284-0.013-0.569,0.038-0.837
			c0.026-0.131,0.069-0.263,0.104-0.379c0.031-0.114,0.082-0.224,0.119-0.313c0.031-0.087,0.082-0.168,0.105-0.218
			C89.365,77.037,89.379,77.01,89.379,77.01z"/>
		<path fill="#642C10" d="M97.873,76.985c0,0,0.015,0.03,0.041,0.08c0.023,0.05,0.076,0.131,0.107,0.219
			c0.036,0.087,0.088,0.197,0.117,0.311c0.037,0.116,0.079,0.249,0.104,0.379c0.054,0.268,0.068,0.554,0.038,0.836
			c-0.031,0.284-0.117,0.56-0.246,0.811c-0.13,0.25-0.305,0.48-0.516,0.669c-0.214,0.188-0.457,0.341-0.706,0.451
			c-0.122,0.056-0.253,0.1-0.369,0.136c-0.108,0.038-0.231,0.061-0.326,0.083c-0.088,0.023-0.184,0.029-0.238,0.036
			c-0.059,0.007-0.089,0.013-0.089,0.013s-0.014-0.029-0.042-0.08c-0.023-0.048-0.076-0.132-0.107-0.217
			c-0.038-0.089-0.089-0.2-0.119-0.313c-0.038-0.117-0.078-0.248-0.104-0.38c-0.055-0.268-0.069-0.554-0.038-0.836
			c0.031-0.283,0.117-0.557,0.247-0.808c0.133-0.252,0.307-0.481,0.52-0.668c0.217-0.188,0.457-0.342,0.706-0.451
			c0.122-0.057,0.253-0.099,0.371-0.137c0.107-0.037,0.229-0.062,0.322-0.083c0.087-0.024,0.184-0.029,0.239-0.037
			C97.843,76.991,97.873,76.985,97.873,76.985z"/>
		<path fill="#BD4D33" d="M48.969,127.941l9.146,8.133c0,0-2.965,3.883-6.061,6.547c-2.277,1.959-7.89,5.094-7.89,5.094
			l-7.343-12.644L48.969,127.941z"/>
		<path fill="#2D2D2D" d="M46.629,107.625c0,0-15.399,6.56-17.973,11.019c-2.575,4.459,8.266,21.808,8.266,21.808l15.152-10.883
			l-3.698-5.76l5.61-4.275L46.629,107.625z"/>
		<path fill="#642C10" d="M88.936,18.198c0,0-0.07-0.021-0.191-0.088c-0.117-0.071-0.305-0.174-0.496-0.351
			c-0.204-0.171-0.416-0.414-0.633-0.721c-0.104-0.155-0.199-0.332-0.301-0.522c-0.084-0.191-0.183-0.4-0.25-0.625
			c-0.141-0.449-0.244-0.961-0.256-1.501c-0.007-0.136-0.009-0.273-0.008-0.411c0.009-0.139,0.021-0.277,0.033-0.418
			c0.013-0.14,0.024-0.284,0.043-0.428c0.028-0.138,0.059-0.277,0.088-0.42c0.03-0.14,0.064-0.283,0.097-0.427
			c0.046-0.137,0.089-0.275,0.136-0.415c0.098-0.276,0.191-0.563,0.323-0.821l0.193-0.396l0.1-0.2l0.025-0.05l0.005-0.012
			l0.067-0.106l0.013-0.021l0.056-0.08c0.137-0.219,0.285-0.434,0.43-0.648c0.224-0.269,0.479-0.55,0.731-0.805
			c0.127-0.142,0.258-0.221,0.39-0.328l0.395-0.298c0.262-0.193,0.563-0.329,0.841-0.479c0.282-0.146,0.584-0.23,0.872-0.331
			c0.583-0.174,1.154-0.245,1.685-0.26c0.529-0.005,1.019,0.05,1.453,0.142c0.438,0.097,0.818,0.22,1.148,0.362
			c0.327,0.138,0.598,0.282,0.813,0.422c0.217,0.129,0.373,0.264,0.479,0.346c0.107,0.086,0.159,0.141,0.159,0.141
			s-0.292,0.066-0.757,0.183c-0.463,0.117-1.1,0.28-1.786,0.509c-0.345,0.114-0.693,0.252-1.043,0.405
			c-0.348,0.153-0.685,0.336-1.003,0.533c-0.149,0.114-0.319,0.192-0.46,0.315l-0.215,0.174c-0.074,0.057-0.151,0.104-0.213,0.176
			c-0.123,0.132-0.282,0.255-0.388,0.377c-0.095,0.125-0.2,0.223-0.315,0.345c-0.15,0.212-0.3,0.424-0.456,0.631l-0.055,0.079
			l-0.016,0.019l-0.003,0.005c-0.056,0.087,0.072-0.116,0.06-0.092l-0.006,0.01l-0.021,0.035l-0.087,0.14
			c-0.057,0.093-0.112,0.188-0.175,0.28c-0.126,0.182-0.221,0.367-0.325,0.548c-0.056,0.09-0.109,0.182-0.162,0.272
			c-0.048,0.09-0.092,0.181-0.137,0.269c-0.047,0.091-0.097,0.178-0.144,0.265c-0.037,0.09-0.077,0.179-0.119,0.265
			c-0.043,0.088-0.083,0.173-0.123,0.262c-0.029,0.086-0.061,0.172-0.096,0.258s-0.076,0.172-0.102,0.256
			c-0.025,0.085-0.052,0.17-0.08,0.254c-0.069,0.167-0.09,0.331-0.138,0.496c-0.08,0.326-0.125,0.642-0.153,0.937
			c-0.018,0.29-0.024,0.563-0.011,0.792C88.869,17.907,88.936,18.198,88.936,18.198z"/>
		<path fill="#BD4D33" d="M134.29,133.951l-10.783,5.788c0,0,2.338,4.843,4.729,8.153c1.763,2.434,6.14,6.403,6.14,6.403
			l10.076-10.596L134.29,133.951z"/>
		<path fill="#2D2D2D" d="M141.28,114.727c0,0,13.456,9.957,14.926,14.889c1.471,4.936-13.1,19.296-13.1,19.296l-12.214-14.099
			l4.934-4.748l-4.467-5.455L141.28,114.727z"/>
		<path fill="#F16822" d="M67.99,93.882c0,0-11.535,4.013-19.021,7.067c-7.486,3.056-10.959,4.978-10.959,4.978
			s3.733,7.556,5.532,10.777c1.801,3.224,6.826,9.428,6.826,9.428s13.928-12.042,17.568-18.177
			C71.579,101.819,67.99,93.882,67.99,93.882z"/>
		<path fill="#F16822" d="M38.01,105.927l8.646-7.332l9.435,24.398l-5.723,3.139C50.368,126.133,38.445,118.093,38.01,105.927z"/>
		<path fill="#F16822" d="M147.812,111.494l-7.12-8.82l-13.844,22.193l5.031,4.156C131.879,129.023,145.1,123.364,147.812,111.494z"
			/>
		<path fill="#AE4825" d="M80.213,106.196c0,0-2.08,1.4-3.173,2.51c-1.918,1.944-2.42,2.42-2.42,2.42s-2.435-4.102-3.464-6.246
			c-1.032-2.145-3.499-6.663-3.499-6.663s2.106,5.203,3.237,8.141c1.125,2.941,3.469,7.143,3.469,7.143s2.15-2.812,3.372-4.292
			C78.54,108.238,80.213,106.196,80.213,106.196z"/>
		<path fill="#AE4825" d="M107.777,105.822c0,0,2.082,1.402,3.175,2.508c1.918,1.946,2.419,2.424,2.419,2.424
			s2.435-4.102,3.467-6.247c1.029-2.145,3.497-6.665,3.497-6.665s-2.108,5.202-3.234,8.144c-1.128,2.939-3.474,7.14-3.474,7.14
			s-2.149-2.813-3.369-4.29C109.454,107.865,107.777,105.822,107.777,105.822z"/>
		<path fill="#642C10" d="M130.906,60.811c0.148-0.069-0.022-0.007,0.044-0.042l-0.009-0.025l-0.021-0.046l-0.036-0.097
			l-0.076-0.191l-0.15-0.382l-0.309-0.764l-0.637-1.515c-0.432-1.006-0.876-2.008-1.336-3.004c-0.925-1.987-1.906-3.951-2.953-5.881
			c-1.043-1.933-2.172-3.825-3.387-5.667c-0.612-0.918-1.239-1.829-1.911-2.715c-0.672-0.896-1.387-1.749-2.09-2.572
			c-1.409-1.667-2.826-3.353-4.376-4.95c-1.543-1.598-3.218-3.108-5.09-4.382c-0.462-0.33-0.951-0.619-1.43-0.921
			c-0.496-0.277-0.983-0.569-1.498-0.813c-1.015-0.52-2.076-0.948-3.156-1.306l-0.814-0.258l-0.826-0.218
			c-0.549-0.158-1.112-0.24-1.671-0.36c-1.123-0.173-2.254-0.316-3.385-0.349c-2.264-0.098-4.519,0.069-6.73,0.419
			c-1.106,0.178-2.201,0.388-3.302,0.654c-0.271,0.064-0.551,0.123-0.819,0.192l-0.787,0.22l-0.79,0.218
			c-0.298,0.081-0.547,0.168-0.82,0.25c-2.149,0.685-4.232,1.586-6.188,2.706c-1.962,1.11-3.8,2.429-5.487,3.912
			c-3.381,2.961-6.156,6.535-8.391,10.375c-1.116,1.923-2.102,3.919-2.951,5.968c-0.428,1.026-0.82,2.064-1.178,3.115
			c-0.356,1.058-0.682,2.101-0.952,3.223l1.521,0.465c0.267-0.681,0.607-1.401,0.952-2.089c0.352-0.693,0.722-1.376,1.117-2.048
			c0.395-0.671,0.805-1.334,1.234-1.984c0.435-0.645,0.876-1.29,1.345-1.91c0.467-0.626,0.95-1.238,1.451-1.834
			c0.502-0.594,1.016-1.181,1.556-1.745c0.534-0.569,1.088-1.115,1.654-1.651c0.281-0.266,0.576-0.522,0.863-0.786l0.888-0.757
			l0.914-0.728c0.311-0.232,0.62-0.472,0.937-0.697c0.315-0.219,0.623-0.444,0.951-0.662c0.33-0.213,0.673-0.446,0.99-0.641
			c0.672-0.406,1.34-0.825,2.021-1.223c0.684-0.384,1.354-0.798,2.055-1.155l1.037-0.551l1.054-0.516
			c0.349-0.179,0.709-0.323,1.063-0.485c0.355-0.164,0.717-0.301,1.075-0.443c0.72-0.284,1.454-0.516,2.187-0.687
			c0.365-0.082,0.73-0.145,1.083-0.17l0.261-0.012l0.247,0.011c0.05,0.002,0.094,0.01,0.139,0.018
			c0.159,0.775,0.353,1.51,0.574,2.25c0.259,0.85,0.548,1.687,0.867,2.512c0.634,1.651,1.384,3.256,2.219,4.811
			c0.835,1.555,1.77,3.056,2.778,4.502c0.51,0.716,1.031,1.431,1.581,2.119c0.271,0.346,0.547,0.69,0.831,1.025
			c0.28,0.341,0.57,0.675,0.865,1.005c0.288,0.337,0.585,0.654,0.881,0.973c0.29,0.322,0.618,0.646,0.925,0.957
			c0.636,0.617,1.302,1.207,1.988,1.762c1.381,1.106,2.852,2.092,4.378,2.968c1.523,0.883,3.107,1.657,4.723,2.344
			c0.809,0.344,1.627,0.666,2.454,0.965c0.831,0.294,1.656,0.57,2.516,0.805l0.857,0.235l-0.557-0.691l-4.412-5.497
			c0.294,0.21,0.588,0.42,0.89,0.618c0.424,0.272,0.855,0.531,1.294,0.776l0.666,0.356l0.68,0.328
			c0.458,0.206,0.921,0.405,1.396,0.576c0.231,0.094,0.476,0.172,0.716,0.246c0.241,0.078,0.481,0.157,0.724,0.214
			c0.48,0.129,0.976,0.244,1.457,0.355l1.459,0.339c0.487,0.11,0.976,0.216,1.47,0.304c0.495,0.092,0.994,0.152,1.493,0.206
			c0.999,0.094,1.997,0.135,2.995,0.17c1.902,0.062,3.805,0.099,5.706,0.145c-0.018,0.012-0.046,0.028,0.032,0
			c0.01,0,0.021,0,0.03,0.001l0.25-0.106l0.219-0.084L130.906,60.811z"/>
		<path fill="#BD4D33" d="M66.979,25.347c8.184-3.758,5.104-9.587,1.599-12.173c-3.502-2.585-11.528-6.428-12.487-3.716
			C55.133,12.171,56.003,30.388,66.979,25.347z"/>
		<path fill="#BD4D33" d="M123.438,29.087c-7.991-4.147-4.634-9.821-1.009-12.233c3.624-2.415,11.826-5.867,12.651-3.113
			C135.908,16.496,134.161,34.654,123.438,29.087z"/>
		<path fill="#4D4C4C" d="M44.489,123.408c0,0-0.045,0.011-0.127,0.023c-0.081,0.013-0.201,0.041-0.346,0.052
			c-0.296,0.034-0.709,0.058-1.188,0.044c-0.479-0.016-1.025-0.076-1.594-0.188c-0.281-0.059-0.572-0.119-0.86-0.204
			c-0.293-0.076-0.581-0.175-0.872-0.272c-0.283-0.107-0.57-0.213-0.845-0.336c-0.275-0.119-0.544-0.251-0.798-0.388
			c-0.511-0.271-0.973-0.567-1.354-0.854c-0.384-0.292-0.689-0.57-0.896-0.782c-0.107-0.1-0.184-0.198-0.239-0.257
			c-0.051-0.064-0.08-0.099-0.08-0.099l0.046-0.128c0,0,0.145,0.048,0.398,0.129c0.252,0.083,0.619,0.197,1.051,0.346
			c0.863,0.298,2.019,0.694,3.171,1.09c1.146,0.418,2.292,0.836,3.152,1.149c0.43,0.155,0.784,0.3,1.032,0.393
			c0.249,0.096,0.393,0.151,0.393,0.151L44.489,123.408z"/>
		<path fill="#4D4C4C" d="M147.175,129.203c0,0-0.034,0.035-0.098,0.095c-0.066,0.056-0.157,0.153-0.281,0.243
			c-0.121,0.096-0.271,0.217-0.44,0.33c-0.174,0.117-0.369,0.238-0.583,0.357c-0.43,0.238-0.938,0.465-1.494,0.643
			c-0.135,0.051-0.277,0.085-0.422,0.125c-0.143,0.044-0.287,0.079-0.434,0.106c-0.295,0.072-0.597,0.115-0.896,0.163
			c-0.306,0.032-0.606,0.066-0.909,0.074c-0.301,0.016-0.6,0.011-0.89-0.008c-0.581-0.027-1.131-0.115-1.607-0.234
			c-0.238-0.059-0.458-0.125-0.656-0.192c-0.194-0.065-0.369-0.144-0.511-0.204c-0.142-0.056-0.258-0.125-0.334-0.162
			c-0.079-0.04-0.12-0.066-0.12-0.066l-0.021-0.167c0,0,0.15-0.024,0.414-0.071c0.264-0.039,0.639-0.11,1.092-0.174
			c0.905-0.129,2.112-0.303,3.319-0.475c1.211-0.145,2.424-0.29,3.332-0.4c0.454-0.055,0.836-0.083,1.103-0.111
			c0.264-0.025,0.415-0.041,0.415-0.041L147.175,129.203z"/>
		<circle fill="#642D13" cx="121.023" cy="68.618" r="1.139"/>
		<circle fill="#642D13" cx="113.434" cy="67.655" r="0.963"/>
		<circle fill="#642D13" cx="117.347" cy="72.508" r="0.963"/>
		<circle fill="#642D13" cx="67.944" cy="66.307" r="0.964"/>
		<circle fill="#642D13" cx="75.183" cy="65.343" r="0.963"/>
		<circle fill="#642D13" cx="72.286" cy="69.651" r="1.161"/>
		<path fill="#2D2D2D" d="M66.979,93.559c-2.933,0.513-9.32,1.918-11.788,3.864c-2.473,1.943-4.737,27.155-0.336,42.472
			c4.4,15.323,3.313,10.915,3.313,10.915l1.545-10.358c0,0,3.777-17.432,5.075-24.707C66.302,107.246,68.553,93.282,66.979,93.559z"
			/>
	</g>
</g>
</svg>
