<?xml version="1.0" encoding="utf-8"?>
<!-- Generator: Adobe Illustrator 16.0.0, SVG Export Plug-In . SVG Version: 6.00 Build 0)  -->
<!DOCTYPE svg PUBLIC "-//W3C//DTD SVG 1.1//EN" "http://www.w3.org/Graphics/SVG/1.1/DTD/svg11.dtd">
<svg version="1.1" xmlns="http://www.w3.org/2000/svg" xmlns:xlink="http://www.w3.org/1999/xlink" x="0px" y="0px"
	 width="182.225px" height="212.06px" viewBox="0 0 182.225 212.06" enable-background="new 0 0 182.225 212.06"
	 xml:space="preserve">
<g id="Layer_2">
</g>
<g id="Layer_1">
	<ellipse opacity="0.4" fill="#232323" cx="91.913" cy="206.202" rx="28.933" ry="5.857"/>
	<g>
		<path fill="#6D391F" d="M48.541,58.34c0,0-6.15,2.357-7.016-4.938c-0.861-7.295,1.044-11.58,4.124-13.225
			c3.079-1.645,15.544-0.854,15.55,5.163C61.209,51.357,51.658,57.837,48.541,58.34z"/>
		<path fill="#6D391F" d="M130.434,55.2c-5.619-4.836-6.254-6.636-3.145-10.43c2.349-2.868,8.935-5.521,15.61,0.256
			c4.63,4.006-0.189,15.761-2.288,15.712C137.613,60.67,134.34,58.56,130.434,55.2z"/>
		<path fill="#F7961D" d="M145.527,114.779c23.842-34.363-21.944-70.214-50.288-71.315c-37.234-1.446-69.751,40.132-50.536,71.173
			c3.557,5.749,2.375,4.337,4.323,10.642l0,0l13.748,41.023l61.82,5.722l17.526-43.537
			C143.371,124.384,140.645,121.82,145.527,114.779z"/>
		<g>
			<defs>
				<path id="SVGID_1_" d="M145.527,114.779c23.842-34.363-21.944-70.214-50.288-71.315c-37.234-1.446-69.751,40.132-50.536,71.173
					c3.557,5.749,2.375,4.337,4.323,10.642l0,0l13.748,41.023l61.82,5.722l17.526-43.537
					C143.371,124.384,140.645,121.82,145.527,114.779z"/>
			</defs>
			<clipPath id="SVGID_2_">
				<use xlink:href="#SVGID_1_"  overflow="visible"/>
			</clipPath>
			<path clip-path="url(#SVGID_2_)" fill="#FFF9F4" d="M63.445,68.505c-28.378,46.809,32.6,64.033,59.779,44.289
				C161.199,85.207,92.338,20.855,63.445,68.505C57.576,78.189,68.484,60.196,63.445,68.505z"/>
			<g clip-path="url(#SVGID_2_)">
				<defs>
					<path id="SVGID_3_" d="M63.445,68.505c-0.735,1.213-1.41,2.407-2.027,3.581c-23.215,44.096,35.332,59.94,61.807,40.708
						C161.199,85.207,92.338,20.855,63.445,68.505C57.576,78.189,68.484,60.196,63.445,68.505z"/>
				</defs>
				<clipPath id="SVGID_4_">
					<use xlink:href="#SVGID_3_"  overflow="visible"/>
				</clipPath>
				<path clip-path="url(#SVGID_4_)" fill="#F26E21" d="M31.171,79.005c0,2.34-1.632,4.238-3.644,4.238H15.788
					c-2.013,0-3.643-1.897-3.643-4.238V66.994c0-2.34,1.63-4.238,3.643-4.238h11.739c2.012,0,3.644,1.898,3.644,4.238V79.005z"/>
			</g>
			<path clip-path="url(#SVGID_2_)" fill="#2F160C" d="M73.112,78.636c-3.83-2.345-8.212-3.274-8.615-0.226s2.62,4.456,5.945,4.924
				c3.326,0.468,5.948,0.704,5.948-1.172C76.391,80.287,73.112,78.636,73.112,78.636z"/>
			<path clip-path="url(#SVGID_2_)" fill="#2F160C" d="M72.572,87.817c0,4.609-4.279,4.609-4.279,0
				C68.293,83.206,72.572,83.206,72.572,87.817z"/>
			<path clip-path="url(#SVGID_2_)" fill="#2F160C" d="M84.1,95.078c6.317,8.974,15.684,8.866,22.602,1.21
				C100.53,106.255,89.439,107.098,84.1,95.078z"/>
			<path clip-path="url(#SVGID_2_)" fill="#F7961F" d="M64.549,66.465c0-0.532,4.709-8.125,10.175-3.533
				c5.467,4.592,3.644,28.434,20.804,30.731c17.16,2.295,12.921-29.534,20.348-30.555c5.143-0.707,12.452,10.067,12.452,10.067
				l-13.97-33.912l-36.751,0.707L64.549,66.465z"/>
			<path clip-path="url(#SVGID_2_)" fill="#F7961F" d="M77.469,46.574c0,0,4.102,24.264,5.707,31.729
				c1.603,7.467,1.781,7.259,3.207,7.881c1.427,0.622,4.255,1.245,9.439,1.245c5.183,0,7.678-0.415,9.817-0.623
				c2.141-0.208,7.845-39.195,7.31-40.232C112.415,45.538,86.027,37.45,77.469,46.574z"/>
			<path clip-path="url(#SVGID_2_)" fill="#2F160C" d="M116.081,80.234c3.724-2.103,7.901-2.756,8.132,0.313
				c0.231,3.067-2.687,4.283-5.844,4.543c-3.159,0.261-5.641,0.332-5.549-1.541C112.913,81.677,116.081,80.234,116.081,80.234z"/>
			<path clip-path="url(#SVGID_2_)" fill="#2F160C" d="M121.006,89.491c0,4.61-4.279,4.61-4.279,0
				C116.727,84.881,121.006,84.881,121.006,89.491z"/>
			<g clip-path="url(#SVGID_2_)">
				<defs>
					<path id="SVGID_5_" d="M64.73,66.641c0-0.529,4.707-8.124,10.175-3.532C80.372,67.7,78.55,91.544,95.709,93.84
						c17.158,2.296,12.92-29.534,20.348-30.556c5.142-0.705,12.451,10.067,12.451,10.067l-13.97-33.911l-36.747,0.707L64.73,66.641z
						"/>
				</defs>
				<clipPath id="SVGID_6_">
					<use xlink:href="#SVGID_5_"  overflow="visible"/>
				</clipPath>
				<path clip-path="url(#SVGID_6_)" fill="#6D391F" d="M81.435,81.958c0,0,6.946,3.178,14.596,3.356
					c7.574,0.177,14.561-4.063,14.561-4.063s-2.344,14.141-14.865,12.895C87.706,93.348,84.018,87.966,81.435,81.958z"/>
			</g>
			<path clip-path="url(#SVGID_2_)" fill="#6D391F" d="M108.996,50.509c-4.51-2.518-9.676-3.515-10.15-0.242
				c-0.473,3.273,3.088,4.783,7.007,5.286c3.918,0.503,7.006,0.755,7.006-1.258C112.858,52.281,108.996,50.509,108.996,50.509z"/>
			<path clip-path="url(#SVGID_2_)" fill="#6D391F" d="M106.646,61.619c-4.511-2.518-6.943-2.808-7.418,0.466
				c-0.475,3.271,0.354,4.075,4.272,4.578c3.919,0.503,7.007,0.755,7.007-1.258C110.507,63.392,106.646,61.619,106.646,61.619z"/>
			<path clip-path="url(#SVGID_2_)" fill="#6D391F" d="M103.719,74.214c-3.188-1.849-4.906-2.063-5.243,0.342
				c-0.336,2.407,0.248,2.998,3.022,3.369c2.769,0.37,4.948,0.555,4.948-0.925C106.446,75.518,103.719,74.214,103.719,74.214z"/>
			<path clip-path="url(#SVGID_2_)" fill="#6D391F" d="M83.857,49.536c4.667-2.101,9.881-2.627,10.137,0.677
				c0.256,3.306-3.398,4.489-7.338,4.637c-3.94,0.148-7.035,0.12-6.9-1.888C79.891,50.955,83.857,49.536,83.857,49.536z"/>
			<path clip-path="url(#SVGID_2_)" fill="#6D391F" d="M86.416,61.209c4.667-2.103,7.11-2.172,7.364,1.135
				c0.255,3.304-0.626,4.031-4.564,4.179c-3.941,0.148-7.035,0.12-6.899-1.888C82.449,62.627,86.416,61.209,86.416,61.209z"/>
			<path clip-path="url(#SVGID_2_)" fill="#6D391F" d="M88.371,73.861c3.189-1.851,4.909-2.064,5.246,0.342
				c0.334,2.406-0.252,2.997-3.022,3.367c-2.771,0.371-4.953,0.557-4.953-0.925S88.371,73.861,88.371,73.861z"/>
			<path clip-path="url(#SVGID_2_)" fill="#6D391F" d="M39.109,80.467c7.247-0.081,14.547,2.297,13.443,6.929
				c-1.104,4.63-6.573,4.069-11.979,1.933c-5.404-2.137-9.588-4.011-8.524-6.652C33.112,80.036,39.109,80.467,39.109,80.467z"/>
			<path clip-path="url(#SVGID_2_)" fill="#6D391F" d="M39.177,102.593c7.075-2.302,14.759-2.212,14.729,2.66
				c-0.031,4.873-5.512,6-11.288,5.568c-5.774-0.435-10.294-0.984-9.853-3.896C33.206,104.013,39.177,102.593,39.177,102.593z"/>
			<path clip-path="url(#SVGID_2_)" fill="#6D391F" d="M46.411,60.842c6.437,2.364,12.309,6.928,10.179,10.657
				c-2.128,3.729-6.83,1.393-11.084-2.317c-4.255-3.71-7.493-6.775-5.896-8.756C41.208,58.443,46.411,60.842,46.411,60.842z"/>
			<path clip-path="url(#SVGID_2_)" fill="#6D391F" d="M150.901,84.702c-6.454-0.874-13.416,0.62-13.303,5.211
				c0.117,4.589,5.103,4.648,10.328,3.182c5.227-1.469,9.31-2.817,8.859-5.482C156.333,84.946,150.901,84.702,150.901,84.702z"/>
			<path clip-path="url(#SVGID_2_)" fill="#6D391F" d="M148.756,102.284c-6.459-2.254-13.546-1.891-13.642,3.392
				c-0.096,5.284,4.927,6.317,10.263,5.65c5.335-0.671,9.513-1.423,9.179-4.565C154.224,103.616,148.756,102.284,148.756,102.284z"
				/>
			<path clip-path="url(#SVGID_2_)" fill="#6D391F" d="M145.531,66.765c-6.523,1.763-12.29,5.851-9.783,9.915
				c2.507,4.066,7.229,2.149,11.374-1.226c4.145-3.378,7.282-6.198,5.465-8.406C150.769,64.838,145.531,66.765,145.531,66.765z"/>
			<path clip-path="url(#SVGID_2_)" d="M85.947,98.147l0.077-0.072l3.155-2.991l0.451-0.427l0.135,0.585l1.332,5.849l0.092,0.395
				l-0.332-0.212l-4.491-2.86L85.947,98.147z M86.801,98.655l4.224,2.337l-0.242,0.182l-1.691-5.756l0.583,0.157L86.801,98.655z"/>
			<path clip-path="url(#SVGID_2_)" d="M104.965,98.51l-0.13,0.092l-3.734,2.639l-0.499,0.354l-0.039-0.589l-0.336-5.464
				l-0.021-0.333l0.268,0.185l4.07,2.825L104.965,98.51z M104.105,97.952L100.3,95.66l0.245-0.15l0.686,5.434l-0.535-0.237
				L104.105,97.952z"/>
			<circle clip-path="url(#SVGID_2_)" fill="#6D391F" cx="74.266" cy="94.49" r="0.914"/>
			<circle clip-path="url(#SVGID_2_)" fill="#6D391F" cx="65.176" cy="95.648" r="0.913"/>
			<circle clip-path="url(#SVGID_2_)" fill="#6D391F" cx="71" cy="98.682" r="0.914"/>
			<circle clip-path="url(#SVGID_2_)" fill="#6D391F" cx="126.251" cy="96.665" r="0.913"/>
			<circle clip-path="url(#SVGID_2_)" fill="#6D391F" cx="117.36" cy="96.665" r="0.913"/>
			<circle clip-path="url(#SVGID_2_)" fill="#6D391F" cx="122.75" cy="101.167" r="0.914"/>
		</g>
		<path fill="#F7961D" d="M44.703,114.637c0,0-11.629,8.875-14.601,18.156c-2.752,8.598,0.112,18.79,3.685,24.175
			c3.208,4.838,6.578,5.889,9.391,5.668c5.147-0.402,8.677-6.911,3.805-13.271c-3.312-4.32-6.583-5.89-4.399-10.299
			c2.017-4.068,8.676-3.903,8.676-3.903L44.703,114.637"/>
		<path fill="#2372AB" d="M44.703,114.637c0,0-6.756,4.313-8.896,6.112c-2.139,1.797-3.924,5.116-3.924,5.116l11.531,14.93
			c0,0,7.438-4.381,7.818-4.382C51.617,136.408,44.703,114.637,44.703,114.637"/>
		<path fill="#2372AB" d="M31.171,126.277l3.925-9.676l9.964,19.632c0,0,2.159,2.622,2.159,3.246c0,0.625-4.517,2.143-4.517,2.143
			s-5.468-3.577-7.606-6.911C32.955,131.378,31.171,126.277,31.171,126.277z"/>
		<path fill="#F7961D" d="M134.104,134.798c0,0,13.326,4.636,21.344,1.308c7.43-3.083,12.292-12.195,13.535-18.842
			c1.117-5.969-0.361-9.647-2.314-12.006c-3.579-4.325-10.135-3.274-11.182,5.156c-0.711,5.729,0.363,9.654-3.943,10.546
			c-3.978,0.824-8.154-5.213-8.154-5.213L134.104,134.798"/>
		<path fill="#2372AB" d="M138.286,136.545c0,0,7.572,1.689,10.203,1.892c2.635,0.202,5.827-1.032,5.827-1.032l-0.695-20.053
			c0,0-8.13-2.142-8.427-2.423C144.898,114.648,138.286,136.545,138.286,136.545"/>
		<path fill="#2372AB" d="M155.092,137.615l-8.326,4.546l3.087-22.514c0,0-0.224-3.622,0.117-4.104c0.342-0.479,4.655,1.7,4.655,1.7
			s2.251,6.811,2.069,10.967C156.516,132.364,155.092,137.615,155.092,137.615z"/>
		<g>
			<defs>
				<path id="SVGID_7_" d="M44.703,114.637c0,0-11.629,8.875-14.601,18.156c-2.752,8.598,0.112,18.79,3.685,24.175
					c3.208,4.838,6.578,5.889,9.391,5.668c5.147-0.402,8.677-6.911,3.805-13.271c-3.312-4.32-6.583-5.89-4.399-10.299
					c2.017-4.068,8.676-3.903,8.676-3.903L44.703,114.637"/>
			</defs>
			<clipPath id="SVGID_8_">
				<use xlink:href="#SVGID_7_"  overflow="visible"/>
			</clipPath>
		</g>
		<path fill="#6D391F" d="M40.424,155.217c0,0,0.059,0.032,0.15,0.091c0.087,0.058,0.233,0.145,0.379,0.257
			c0.154,0.113,0.323,0.25,0.497,0.41c0.177,0.16,0.353,0.341,0.528,0.541c0.172,0.201,0.338,0.421,0.489,0.653
			c0.148,0.235,0.287,0.484,0.401,0.745c0.239,0.519,0.377,1.083,0.435,1.655c0.045,0.574,0.017,1.153-0.126,1.708
			c-0.132,0.555-0.352,1.079-0.616,1.538c-0.264,0.459-0.573,0.848-0.827,1.125c-0.12,0.137-0.248,0.249-0.323,0.323
			c-0.079,0.074-0.129,0.116-0.129,0.116l-0.287,0.027c0,0-0.023-0.142-0.063-0.39c-0.034-0.251-0.101-0.605-0.151-1.034
			c-0.054-0.427-0.128-0.926-0.181-1.463c-0.058-0.538-0.117-1.109-0.18-1.68c-0.046-0.574-0.094-1.146-0.137-1.684
			c-0.046-0.538-0.064-1.041-0.094-1.47c-0.026-0.433-0.028-0.792-0.04-1.043c-0.009-0.253-0.013-0.397-0.013-0.397L40.424,155.217z
			"/>
		<path fill="#6D391F" d="M44.911,153.823c0,0,0.065,0.005,0.172,0.024c0.102,0.021,0.269,0.045,0.443,0.092
			c0.182,0.044,0.385,0.107,0.605,0.185c0.22,0.079,0.448,0.176,0.681,0.291c0.229,0.118,0.462,0.252,0.686,0.407
			c0.221,0.158,0.438,0.329,0.635,0.521c0.407,0.377,0.733,0.835,0.988,1.331c0.245,0.498,0.424,1.032,0.485,1.583
			c0.077,0.547,0.057,1.103-0.028,1.613c-0.084,0.512-0.231,0.976-0.371,1.319c-0.063,0.169-0.143,0.318-0.183,0.412
			c-0.046,0.097-0.081,0.152-0.081,0.152l-0.259,0.131c0,0-0.07-0.12-0.193-0.33c-0.121-0.211-0.309-0.506-0.507-0.872
			c-0.201-0.366-0.444-0.789-0.686-1.25c-0.242-0.463-0.5-0.954-0.757-1.449c-0.247-0.497-0.494-0.998-0.724-1.463
			c-0.234-0.469-0.43-0.914-0.606-1.291c-0.179-0.378-0.307-0.702-0.405-0.925c-0.097-0.224-0.153-0.351-0.153-0.351L44.911,153.823
			z"/>
		<path fill="#6D391F" d="M163.01,111.954c0,0-0.024-0.061-0.061-0.164c-0.031-0.101-0.09-0.258-0.133-0.439
			c-0.051-0.182-0.094-0.395-0.132-0.63c-0.038-0.233-0.063-0.488-0.073-0.753c-0.007-0.264,0-0.538,0.027-0.816
			c0.032-0.275,0.076-0.557,0.152-0.83c0.137-0.555,0.384-1.082,0.699-1.563c0.322-0.477,0.708-0.911,1.166-1.254
			c0.447-0.35,0.946-0.622,1.443-0.814c0.491-0.191,0.976-0.303,1.347-0.359c0.183-0.032,0.352-0.038,0.454-0.051
			c0.108-0.01,0.174-0.009,0.174-0.009l0.243,0.159c0,0-0.072,0.126-0.198,0.343c-0.127,0.218-0.301,0.534-0.526,0.902
			c-0.228,0.368-0.482,0.802-0.775,1.254c-0.29,0.454-0.602,0.938-0.911,1.422c-0.323,0.477-0.646,0.953-0.946,1.4
			c-0.302,0.448-0.602,0.853-0.849,1.207c-0.247,0.352-0.474,0.636-0.619,0.839c-0.152,0.2-0.24,0.316-0.24,0.316L163.01,111.954z"
			/>
		<path fill="#6D391F" d="M159.081,110.214c0,0-0.047-0.047-0.115-0.131c-0.062-0.083-0.172-0.207-0.277-0.357
			c-0.107-0.151-0.222-0.332-0.339-0.534c-0.116-0.203-0.228-0.425-0.328-0.664c-0.099-0.239-0.187-0.493-0.256-0.755
			c-0.066-0.263-0.12-0.535-0.146-0.809c-0.063-0.551-0.015-1.112,0.116-1.652c0.136-0.54,0.348-1.06,0.659-1.522
			c0.298-0.464,0.672-0.873,1.069-1.207c0.395-0.333,0.809-0.591,1.138-0.762c0.159-0.085,0.314-0.148,0.407-0.191
			c0.1-0.043,0.16-0.065,0.16-0.065l0.282,0.068c0,0-0.025,0.137-0.067,0.378c-0.045,0.239-0.096,0.584-0.18,0.993
			c-0.087,0.409-0.176,0.889-0.293,1.396c-0.116,0.509-0.24,1.05-0.364,1.591c-0.137,0.541-0.274,1.078-0.401,1.585
			c-0.127,0.505-0.27,0.972-0.378,1.374c-0.111,0.403-0.224,0.733-0.294,0.968c-0.07,0.232-0.112,0.364-0.112,0.364L159.081,110.214
			z"/>
		<path fill="#2372AB" d="M95.239,126.001c-20.516,0-38.784-4.445-50.536-11.364c0,9.913,2.516,40.103,21.65,63.237l0,0H97.35
			h26.169c17.073-23.134,22.009-49.588,22.009-63.095C133.766,121.616,115.612,126.001,95.239,126.001z"/>
		<g>
			<path fill="#F7961D" d="M103.083,179.442c-9.067,13.451,44.521,32.782,51.521,5.635c0.991-3.839-1.207-11.224-5.72-9.58
				c-4.511,1.647-7.725,11.469-11.71,14.912C126.873,199.304,110.071,190.225,103.083,179.442z"/>
			<g>
				<defs>
					<path id="SVGID_9_" d="M103.083,179.442c-9.067,13.451,44.521,32.782,51.521,5.635c0.991-3.839-1.207-11.224-5.72-9.58
						c-4.511,1.647-7.725,11.469-11.71,14.912C126.873,199.304,110.071,190.225,103.083,179.442z"/>
				</defs>
				<clipPath id="SVGID_10_">
					<use xlink:href="#SVGID_9_"  overflow="visible"/>
				</clipPath>
				<path clip-path="url(#SVGID_10_)" fill="#6D391F" d="M148.722,174.706c-4.128,0.713-7.968,4.453-7.744,6.373
					c0.221,1.92,1.309,5.078,6.858,6.659c4.014,1.142,11.845-0.944,9.321-5.655C154.633,177.373,154.063,173.781,148.722,174.706z"
					/>
				<path clip-path="url(#SVGID_10_)" fill="#6D391F" d="M138.183,185c0,0-2.006,3.12,0.733,7.25c2.734,4.131,5.48,7.076,5.48,7.076
					l-7.78,1.537c0,0-1.506,1.393-3.28-4.056c-1.774-5.447-0.556-9.523-0.556-9.523L138.183,185z"/>
				<path clip-path="url(#SVGID_10_)" fill="#6D391F" d="M125.676,189.32c0,0-1.854,3.576,0.686,6.784
					c2.539,3.207,2.705,4.845,2.705,4.845l-6.878-2.142c0,0-3.057-0.293-2.199-4.442c0.856-4.148,2.337-5.651,2.337-5.651
					L125.676,189.32z"/>
			</g>
		</g>
		<path fill="#005B93" d="M106.711,127.349c0,0,2.538,3.342,3.654,5.703c1.961,4.146,3.208,6.014,3.208,6.014
			s6.954-4.666,10.52-7.258c3.567-2.592,11.233-8.296,11.233-8.296s-7.399,6.22-11.768,9.955
			c-4.368,3.731-11.232,8.605-11.232,8.605s-2.229-7.153-3.12-9.021C108.314,131.185,106.711,127.349,106.711,127.349z"/>
		<path fill="#005B93" d="M85.064,127.208c0,0-2.386,4.292-3.417,6.706c-1.81,4.24-2.305,5.303-2.305,5.303
			s-7.83-4.286-11.487-6.701c-3.658-2.415-12.069-8.021-12.069-8.021s8.164,6.138,12.664,9.653
			c4.499,3.515,12.247,8.013,12.247,8.013s1.498-5.683,2.449-8.735C83.771,131.419,85.064,127.208,85.064,127.208z"/>
		<path fill="#005B93" d="M126.768,146.22h-16.491c0,0,5.704,1.555,7.845,1.245C120.26,147.153,126.768,146.22,126.768,146.22z"/>
		<polygon fill="#1B1C1C" points="118.923,152.856 117.317,152.856 116.963,144.768 119.28,144.768 		"/>
		<path fill="#F7961D" d="M95.418,146.715c0,0-2.674,5.33-2.674,7.819c-0.001,4.509,2.108,10.181,2.108,10.181
			s2.489-6.19,2.497-9.127C97.368,149.226,95.418,146.715,95.418,146.715z"/>
		<polygon fill="#1B1C1C" points="70.74,178.5 71.044,172.024 73.171,172.024 73.777,178.5 		"/>
		<polygon fill="#1B1C1C" points="113.159,179.089 113.159,172.85 115.181,172.85 116.091,178.934 		"/>
		<path fill="#1B1C1C" d="M124.467,176.567c-20.014-0.372-40.025-0.744-60.037-1.117c2.387,10.593,3.483,22.937,14.217,29.611
			c15.938,9.914,0.539-11.861,8.74-16.085c2.82-1.453,12.6-1.957,15.198,1.953c3.292,4.947-7.486,18.899,2.563,16.05
			C115.456,204.056,122.008,186.485,124.467,176.567z"/>
		<path fill="#F7961D" d="M86.267,125.557c0,0,0.695,4.887,3.037,9.301c2.939,5.544,6.097,8.126,6.097,8.126
			s3.889-2.189,7.672-9.432c2.125-4.069,2.087-8.038,2.087-8.038L86.267,125.557z"/>
		<path fill="#6D391F" d="M95.176,138.752c0,0-0.13-0.136-0.331-0.389c-0.204-0.255-0.474-0.636-0.729-1.155
			c-0.125-0.26-0.243-0.558-0.315-0.908c-0.072-0.348-0.081-0.766,0.076-1.197c0.155-0.43,0.511-0.806,0.898-1.03
			c0.387-0.229,0.801-0.358,1.197-0.437c0.44-0.079,0.95-0.124,1.482,0.089c0.265,0.1,0.514,0.275,0.711,0.489
			s0.324,0.464,0.412,0.707c0.157,0.492,0.133,0.956,0.032,1.351c-0.1,0.398-0.275,0.746-0.508,1.031
			c-0.225,0.285-0.53,0.518-0.874,0.607c-0.085,0.024-0.167,0.039-0.254,0.04c-0.081,0.008-0.16,0-0.235-0.015
			c-0.076-0.009-0.142-0.035-0.202-0.061c-0.059-0.026-0.115-0.052-0.156-0.088c-0.047-0.031-0.086-0.06-0.121-0.093
			c-0.029-0.033-0.059-0.065-0.085-0.095c-0.051-0.057-0.085-0.111-0.105-0.157c-0.048-0.088-0.067-0.137-0.067-0.137l0.112-0.116
			c0,0,0.046,0.011,0.133,0.031c0.04,0.012,0.091,0.023,0.146,0.025c0.026,0.003,0.056,0.005,0.087,0.007
			c0.028-0.002,0.056-0.007,0.086-0.01c0.12-0.023,0.207-0.086,0.262-0.183c0.06-0.096,0.121-0.234,0.166-0.419
			c0.044-0.181,0.074-0.397,0.074-0.614c-0.004-0.217-0.037-0.43-0.082-0.588c-0.052-0.16-0.079-0.252-0.19-0.359
			c-0.028-0.029-0.07-0.046-0.109-0.075c-0.049-0.014-0.09-0.042-0.15-0.053c-0.057-0.01-0.121-0.034-0.176-0.032l-0.086-0.011
			l-0.045-0.004l-0.069,0.004c-0.32,0.011-0.621,0.065-0.869,0.164c-0.243,0.104-0.431,0.232-0.555,0.424
			c-0.123,0.194-0.178,0.453-0.182,0.724c-0.003,0.27,0.04,0.542,0.1,0.792c0.121,0.504,0.307,0.914,0.433,1.201
			c0.128,0.287,0.217,0.443,0.217,0.443L95.176,138.752z"/>
		<path fill="#6D391F" d="M93.169,131.427c0,0-0.102,0.119-0.306,0.308c-0.102,0.094-0.229,0.205-0.388,0.321
			c-0.159,0.115-0.346,0.242-0.578,0.353c-0.229,0.108-0.508,0.206-0.857,0.212c-0.174-0.003-0.366-0.033-0.551-0.117
			c-0.182-0.084-0.357-0.208-0.486-0.357c-0.274-0.299-0.421-0.647-0.521-0.983c-0.044-0.168-0.087-0.34-0.116-0.508l-0.021-0.126
			l-0.016-0.137c-0.01-0.082-0.021-0.143-0.026-0.238l-0.016-0.292l0.009-0.29c0.014-0.196,0.044-0.401,0.106-0.617
			c0.076-0.215,0.167-0.442,0.349-0.643c0.168-0.203,0.4-0.377,0.655-0.469c0.517-0.192,1.014-0.1,1.371,0.077
			c0.368,0.172,0.639,0.436,0.821,0.726c0.186,0.288,0.267,0.621,0.244,0.906c-0.019,0.286-0.128,0.51-0.246,0.644
			c-0.05,0.076-0.114,0.125-0.165,0.166c-0.049,0.042-0.096,0.071-0.138,0.091c-0.076,0.038-0.119,0.058-0.119,0.058l-0.122-0.105
			c0,0,0.004-0.04,0.012-0.116c0.009-0.075,0.011-0.18-0.008-0.292c-0.018-0.111-0.067-0.218-0.143-0.302
			c-0.078-0.083-0.173-0.15-0.294-0.206c-0.119-0.053-0.257-0.101-0.386-0.106c-0.13-0.01-0.221,0.022-0.247,0.031
			c-0.022,0.002-0.084-0.01-0.192,0.118c-0.103,0.12-0.183,0.376-0.207,0.59c-0.011,0.057-0.008,0.148-0.015,0.221L90.57,130.4
			l-0.002,0.029v0.014v0.007c0,0.006-0.004-0.039-0.004-0.019v0.004l0.003,0.1c-0.005,0.138,0.005,0.264,0.016,0.394
			c0.028,0.249,0.075,0.478,0.163,0.63c0.082,0.16,0.191,0.249,0.367,0.303c0.177,0.046,0.395,0.038,0.596-0.005
			c0.411-0.081,0.756-0.244,0.992-0.357c0.237-0.117,0.366-0.197,0.366-0.197L93.169,131.427z"/>
		<path fill="#6D391F" d="M100.084,132.905c0,0-0.105-0.032-0.279-0.106c-0.088-0.037-0.191-0.087-0.31-0.155
			c-0.117-0.068-0.25-0.148-0.383-0.264c-0.066-0.057-0.14-0.117-0.203-0.195c-0.071-0.071-0.134-0.157-0.194-0.259
			c-0.07-0.089-0.105-0.217-0.154-0.339c-0.023-0.129-0.062-0.278-0.045-0.422c0.009-0.072,0.017-0.146,0.026-0.223
			c0.015-0.074,0.042-0.138,0.065-0.208c0.044-0.148,0.119-0.262,0.197-0.376c0.074-0.127,0.161-0.216,0.248-0.312l0.136-0.145
			l0.005-0.005l0.024-0.018l0.001-0.001l0.008-0.007l0.013-0.014l0.027-0.026l0.06-0.051c0.23-0.178,0.49-0.373,0.919-0.432
			c0.206-0.03,0.458,0,0.671,0.095c0.223,0.09,0.389,0.239,0.515,0.388c0.239,0.309,0.313,0.619,0.32,0.893
			c0.013,0.273-0.038,0.525-0.136,0.748c-0.097,0.222-0.244,0.427-0.441,0.563c-0.197,0.14-0.434,0.177-0.586,0.139
			c-0.076-0.014-0.138-0.042-0.18-0.073c-0.047-0.027-0.082-0.054-0.103-0.083c-0.047-0.051-0.067-0.078-0.067-0.078l0.051-0.153
			c0,0,0.031-0.014,0.076-0.043c0.046-0.026,0.108-0.074,0.129-0.138c0.024-0.066-0.002-0.125-0.037-0.179
			c-0.038-0.054-0.07-0.117-0.108-0.197c-0.043-0.077-0.087-0.166-0.136-0.239c-0.049-0.073-0.103-0.122-0.1-0.121
			c-0.008,0.004,0.14,0.042,0.163-0.016c0.02-0.052-0.104-0.058-0.215-0.017l-0.069,0.036l-0.035,0.017l-0.018,0.009l-0.009,0.004
			l-0.001,0.002c-0.021,0.014,0.025-0.02,0.019-0.015l-0.002,0.001l-0.095,0.059c-0.065,0.039-0.139,0.078-0.178,0.12
			c-0.052,0.041-0.104,0.082-0.131,0.12c-0.016,0.019-0.044,0.038-0.056,0.06c-0.011,0.021-0.022,0.04-0.036,0.06
			c-0.031,0.042-0.028,0.089-0.048,0.143c0.007,0.054-0.013,0.11,0.008,0.175c0.01,0.062,0.024,0.128,0.054,0.19
			c0.02,0.065,0.057,0.125,0.087,0.186c0.132,0.242,0.3,0.434,0.417,0.564c0.119,0.132,0.194,0.2,0.194,0.2L100.084,132.905z"/>
	</g>
</g>
</svg>
