<?xml version="1.0" encoding="utf-8"?>
<!-- Generator: Adobe Illustrator 15.1.0, SVG Export Plug-In . SVG Version: 6.00 Build 0)  -->
<!DOCTYPE svg PUBLIC "-//W3C//DTD SVG 1.1//EN" "http://www.w3.org/Graphics/SVG/1.1/DTD/svg11.dtd">
<svg version="1.1" id="Layer_1" xmlns="http://www.w3.org/2000/svg" xmlns:xlink="http://www.w3.org/1999/xlink" x="0px" y="0px"
	 width="182.225px" height="212.061px" viewBox="0 0 182.225 212.061" enable-background="new 0 0 182.225 212.061"
	 xml:space="preserve">
<g id="Layer_2">
</g>
<g id="Layer_1_1_">
	<ellipse opacity="0.4" fill="#232323" enable-background="new    " cx="86.773" cy="206.202" rx="28.933" ry="5.857"/>
	<g>
		<path fill="#1B1C1C" d="M130.324,166.217c0,0,10.774,16.938,16.078,21.302c4.467,3.675,7.695,3.734,7.695,3.734
			s-6.101,3.679-13.913-0.961c-7.813-4.643-12.604-11.674-12.604-11.674L130.324,166.217z"/>
		<path fill="#FFFFFF" d="M159.586,129.573c0-3.096-2.511-5.606-5.607-5.606c-0.089,0-0.176,0.01-0.265,0.014
			c1.098-0.799,1.819-2.083,1.819-3.544c0-2.432-1.973-4.398-4.402-4.398c-0.104,0-0.197,0.023-0.298,0.03
			c0.868-1.229,1.247-2.8,0.91-4.389c-0.282-1.336-1.02-2.457-2.015-3.24c2.106-1.6,3.347-4.226,3.027-7.041
			c-0.388-3.435-2.968-6.087-6.188-6.729c0.683-0.928,1.09-2.068,1.09-3.308c0-3.096-2.512-5.605-5.61-5.605
			c-0.67,0-1.311,0.124-1.906,0.339c0.438-0.683,0.699-1.489,0.699-2.36c0-2.342-1.835-4.236-4.146-4.371
			c0.675-0.925,1.076-2.062,1.076-3.293c0-3.095-2.51-5.604-5.606-5.604c-1.193,0-2.298,0.375-3.207,1.011
			c0.449-0.808,0.708-1.734,0.708-2.724c0-3.096-2.51-5.602-5.607-5.602c-0.952,0-1.848,0.239-2.634,0.657
			c1.048-1.223,1.684-2.807,1.684-4.541c0-3.859-3.134-6.99-6.998-6.99c-1.332,0-2.57,0.378-3.631,1.023
			c-1.147-3.02-4.063-5.17-7.488-5.17c-2.523,0-4.772,1.167-6.242,2.989c-1.292-2.349-3.79-3.942-6.661-3.942
			c-3.892,0-7.092,2.926-7.537,6.693c-1.178-2.201-3.499-3.699-6.171-3.699c-3.238,0-5.956,2.201-6.755,5.186
			c-1.154-0.841-2.572-1.342-4.11-1.342c-3.863,0-6.996,3.128-6.996,6.99c0,0.664,0.1,1.304,0.271,1.912
			c-0.785-0.417-1.681-0.655-2.631-0.655c-3.101,0-5.609,2.508-5.609,5.605c0,0.619,0.104,1.212,0.29,1.77
			c-0.841-0.357-1.765-0.556-2.735-0.556c-3.863,0-6.996,3.129-6.996,6.991c0,1.09,0.258,2.117,0.702,3.037
			c-2.989,0.123-5.377,2.576-5.377,5.593c0,1.613,0.688,3.063,1.777,4.084c-2.174,0.385-3.829,2.272-3.829,4.557
			c0,1.149,0.434,2.187,1.126,2.996c-0.309-0.053-0.624-0.086-0.947-0.086c-3.098,0-5.606,2.509-5.606,5.605
			c0,1.076,0.309,2.077,0.835,2.93c-3.504,0.725-5.941,4.007-5.528,7.628c0.269,2.382,1.706,4.347,3.676,5.391
			c-1.384,0.74-2.335,2.182-2.335,3.858c0,1.461,0.723,2.747,1.819,3.546c-2.353,0.667-4.076,2.822-4.076,5.387
			c0,2.443,1.569,4.519,3.756,5.284c-2.187,0.766-3.756,2.839-3.756,5.284c0,1.99,1.04,3.732,2.603,4.728
			c-2.357,1.125-3.99,3.521-3.99,6.306c0,3.723,2.917,6.759,6.593,6.97c-0.621,1.044-0.983,2.26-0.983,3.563
			c0,3.489,2.559,6.371,5.9,6.896c-1.584,0.99-2.641,2.744-2.641,4.748c0,3.097,2.512,5.604,5.609,5.604
			c0.938,0,1.819-0.233,2.597-0.64c-0.002,0.029-0.01,0.057-0.01,0.085c0,2.562,2.076,4.638,4.643,4.638
			c0.858,0,1.654-0.25,2.346-0.657c-0.78,1.029-1.248,2.3-1.248,3.681c0,3.413,2.818,6.179,6.294,6.179
			c1.621,0,3.095-0.607,4.211-1.597c-0.411,2.609,1.165,5.132,3.721,5.767c2.201,0.547,4.412-0.492,5.535-2.385
			c-0.013,0.185-0.027,0.367-0.027,0.554c0,4.423,3.59,8.011,8.019,8.011c3.625,0,6.687-2.408,7.677-5.708
			c0.421,1.8,1.767,3.304,3.651,3.772c2.318,0.573,4.656-0.599,5.712-2.683c0.629,2.409,2.813,4.189,5.421,4.189
			c2.494,0,4.605-1.628,5.335-3.877c1.464,2.685,4.45,4.358,7.682,3.994c4.256-0.481,7.313-4.32,6.835-8.574
			c-0.001-0.013-0.005-0.022-0.007-0.034c0.958,1.72,2.794,2.886,4.904,2.886c3.097,0,5.607-2.511,5.607-5.604
			c0-0.179-0.012-0.354-0.026-0.528c0.719,0.335,1.52,0.528,2.364,0.528c3.098,0,5.607-2.509,5.607-5.604
			c0-1.134-0.339-2.187-0.918-3.067c0.077-0.064,0.159-0.123,0.236-0.188c0.802,0.841,1.926,1.371,3.18,1.371
			c2.433,0,4.401-1.969,4.401-4.398c0-1.302-0.577-2.46-1.479-3.265c0.013-0.015,0.023-0.03,0.035-0.045
			c1.214,0.883,2.704,1.409,4.32,1.409c4.063,0,7.36-3.293,7.36-7.355c0-2.646-1.406-4.961-3.509-6.256
			c0.854,0.398,1.817,0.589,2.823,0.477c2.906-0.329,4.994-2.95,4.665-5.854c-0.327-2.902-2.95-4.989-5.854-4.66
			c-0.017,0.002-0.029,0.008-0.045,0.01c0.016-0.074,0.029-0.15,0.045-0.227c2.427-0.708,4.072-3.065,3.778-5.661
			c-0.189-1.677-1.157-3.063-2.49-3.887c0.007-0.096,0.01-0.196,0.017-0.292c0.089,0.004,0.177,0.014,0.267,0.014
			c3.098,0,5.607-2.508,5.607-5.604c0-1.61-0.683-3.058-1.771-4.078C158.07,134.018,159.586,131.975,159.586,129.573z
			 M56.567,73.404c-0.025-0.064-0.057-0.126-0.085-0.189c0.069,0.021,0.143,0.036,0.212,0.056
			C56.651,73.313,56.61,73.36,56.567,73.404z M40.685,98.069c-0.042-0.045-0.082-0.093-0.125-0.137
			c0.06,0.006,0.116,0.014,0.176,0.018C40.719,97.99,40.701,98.029,40.685,98.069z M33.728,125.734
			c-0.008-0.004-0.015-0.009-0.021-0.014c0.009-0.005,0.017-0.009,0.023-0.013C33.729,125.717,33.729,125.726,33.728,125.734z
			 M33.132,136.003c-0.106-0.045-0.218-0.081-0.327-0.12c0.111-0.039,0.224-0.075,0.332-0.121
			C33.135,135.842,33.133,135.922,33.132,136.003z M63.707,67.098c-0.013-0.085-0.023-0.172-0.039-0.256
			c0.065,0.045,0.138,0.083,0.206,0.125C63.817,67.01,63.763,67.055,63.707,67.098z M119.265,65.502
			c0.134-0.067,0.265-0.14,0.394-0.216c-0.083,0.105-0.165,0.21-0.24,0.321C119.366,65.572,119.316,65.537,119.265,65.502z
			 M67.242,192.045c0.025,0.008,0.054,0.017,0.079,0.024c-0.023,0.049-0.048,0.098-0.07,0.146
			C67.249,192.159,67.246,192.102,67.242,192.045z M148.326,164.257c-0.168-0.083-0.339-0.164-0.514-0.234
			c0.011-0.026,0.02-0.054,0.028-0.08C147.993,164.062,148.163,164.154,148.326,164.257z"/>
		<path fill="#E2DED6" d="M57.777,101.557c-0.483,16.318,14.618,24.011,33.516,24.603c18.896,0.594,34.429-6.137,34.913-22.455
			c0.485-16.32-14.506-34.813-33.402-35.408C73.906,67.704,58.263,85.238,57.777,101.557z"/>
		<path fill="#3A3A3A" d="M81.844,103.902c0,0,0.1,0.016,0.286,0.042c0.185,0.031,0.455,0.063,0.794,0.117
			c0.332,0.057,0.739,0.124,1.201,0.203c0.455,0.082,0.971,0.172,1.531,0.271c0.554,0.104,1.147,0.209,1.771,0.313
			c0.621,0.11,1.273,0.215,1.938,0.313c0.666,0.095,1.347,0.181,2.023,0.237c0.168,0.015,0.339,0.03,0.509,0.043l0.502,0.018
			l0.504,0.02l0.489-0.014h0.246h0.063h0.03c-0.028,0.002,0.075-0.006-0.063,0.007l0.009-0.002l0.019-0.002l0.142-0.012l0.566-0.051
			l0.277-0.022l0.227-0.035l0.452-0.062c0.145-0.014,0.32-0.063,0.48-0.093c0.163-0.03,0.325-0.059,0.487-0.088
			c0.325-0.076,0.646-0.158,0.969-0.227c0.321-0.086,0.637-0.174,0.945-0.256c0.312-0.092,0.616-0.182,0.912-0.271
			c0.599-0.185,1.169-0.365,1.696-0.544c1.081-0.366,1.982-0.67,2.613-0.886c0.326-0.107,0.584-0.194,0.761-0.25
			c0.178-0.059,0.271-0.088,0.271-0.088s-0.209,0.347-0.651,0.889c-0.445,0.539-1.128,1.265-2.057,2.018
			c-0.468,0.375-0.992,0.758-1.576,1.129c-0.289,0.189-0.605,0.354-0.923,0.538c-0.318,0.18-0.666,0.328-1.008,0.498
			c-0.354,0.157-0.724,0.294-1.096,0.435c-0.391,0.125-0.76,0.255-1.186,0.353c-0.218,0.045-0.436,0.093-0.653,0.141l-0.33,0.066
			l-0.284,0.037l-0.563,0.064l-0.144,0.017l-0.106,0.008h-0.038L93.8,108.78l-0.323,0.007l-0.648,0.004
			c-0.211-0.005-0.419-0.03-0.63-0.044c-0.207-0.017-0.42-0.031-0.624-0.06c-0.203-0.035-0.406-0.067-0.606-0.101
			c-0.405-0.054-0.794-0.152-1.173-0.25c-0.387-0.086-0.752-0.202-1.113-0.321c-0.719-0.232-1.39-0.508-2.01-0.793
			c-0.617-0.288-1.188-0.593-1.695-0.896c-1.021-0.607-1.807-1.209-2.334-1.665c-0.268-0.222-0.461-0.422-0.599-0.55
			C81.911,103.981,81.844,103.902,81.844,103.902z"/>
		<polygon fill="#3A3A3A" points="94.643,106.157 92.95,111.042 91.657,106.034 		"/>
		<path fill="#212120" d="M86.827,111.672c0,0,0.054,0.017,0.155,0.045c0.101,0.032,0.253,0.067,0.433,0.129
			c0.368,0.103,0.884,0.254,1.483,0.415c0.302,0.08,0.623,0.16,0.96,0.237c0.338,0.077,0.688,0.15,1.052,0.211
			c0.359,0.059,0.728,0.109,1.096,0.14c0.366,0.026,0.746,0.047,1.097,0.024c0.214-0.008,0.438-0.012,0.594-0.036
			c0.172-0.02,0.349-0.024,0.541-0.058c0.377-0.048,0.753-0.109,1.117-0.18c0.186-0.031,0.364-0.071,0.543-0.108
			c0.182-0.033,0.354-0.075,0.526-0.113c0.345-0.071,0.672-0.15,0.979-0.225c0.625-0.146,1.146-0.265,1.515-0.352
			c0.185-0.048,0.339-0.072,0.439-0.099c0.103-0.021,0.158-0.032,0.158-0.032s-0.032,0.048-0.098,0.13
			c-0.07,0.079-0.166,0.205-0.305,0.344c-0.271,0.289-0.683,0.671-1.229,1.059c-0.274,0.191-0.582,0.391-0.921,0.574
			c-0.341,0.186-0.71,0.366-1.11,0.517c-0.196,0.085-0.407,0.15-0.62,0.214c-0.106,0.033-0.214,0.066-0.319,0.1l-0.336,0.075
			c-0.425,0.103-1.006,0.165-1.387,0.179c-0.501,0.016-0.974-0.019-1.438-0.101c-0.462-0.076-0.901-0.204-1.313-0.354
			c-0.407-0.149-0.784-0.331-1.131-0.52c-0.169-0.1-0.334-0.194-0.488-0.294c-0.15-0.106-0.299-0.203-0.436-0.306
			c-0.27-0.206-0.503-0.406-0.703-0.598c-0.198-0.188-0.355-0.37-0.486-0.519C86.942,111.872,86.827,111.672,86.827,111.672z"/>
		<path fill="#1B1C1C" d="M121.087,181.6c-21.273-0.397-42.548-0.794-63.821-1.19c2.535,11.262,7.046,19.774,15.115,24.644
			c14.39,8.686,0.571-12.609,9.289-17.101c2.999-1.545,13.396-2.08,16.16,2.075c3.498,5.26-7.961,20.092,2.724,17.063
			C111.511,203.984,118.476,192.144,121.087,181.6z"/>
		<path fill="#CB2A2B" d="M106.99,130.479c-1.932-6.065-9.652-0.544-10.803,0.318c-0.715-0.679-1.729-1.045-3.016-0.893
			c-1.202,0.143-2.075,0.667-2.623,1.41c-1.5-1.102-8.813-6.092-10.676-0.214c-2.079,6.562,0.209,9.468,3.876,9.814
			c2.626,0.247,5.41-3.081,6.785-4.997c0.69,1.072,1.892,1.717,3.53,1.523c1.271-0.15,2.167-0.731,2.707-1.542
			c1.479,1.934,3.981,4.624,6.354,4.396C106.794,139.946,109.077,137.038,106.99,130.479z"/>
		<path fill="#2F160C" d="M73.974,97.065c0,0,0.014-0.052,0.049-0.145c0.038-0.088,0.087-0.226,0.17-0.388
			c0.155-0.33,0.408-0.79,0.782-1.299c0.189-0.253,0.413-0.517,0.666-0.781c0.131-0.131,0.269-0.262,0.412-0.393
			c0.15-0.125,0.305-0.251,0.47-0.375c0.335-0.238,0.707-0.463,1.12-0.637c0.413-0.172,0.865-0.303,1.34-0.343l0.354-0.022
			l0.045-0.002l0.01-0.001h0.036l0.021,0.002l0.074,0.004l0.15,0.007c0.207,0.013,0.389,0.015,0.62,0.054
			c0.448,0.052,0.859,0.15,1.25,0.272c0.781,0.249,1.454,0.635,1.954,1.041c0.254,0.197,0.464,0.406,0.638,0.602
			c0.177,0.188,0.307,0.376,0.409,0.528c0.207,0.309,0.277,0.508,0.277,0.508s-0.167-0.13-0.464-0.321
			c-0.147-0.096-0.332-0.203-0.541-0.316c-0.104-0.061-0.218-0.119-0.341-0.171c-0.119-0.063-0.244-0.119-0.38-0.174
			c-0.263-0.115-0.556-0.22-0.865-0.316c-0.309-0.095-0.64-0.174-0.981-0.238c-0.346-0.063-0.706-0.105-1.048-0.132
			c-0.162-0.022-0.386-0.009-0.579-0.022l-0.151-0.002l-0.075-0.002h-0.02h-0.004c0.052,0.001,0.011,0,0.021,0l-0.009,0.002
			l-0.031,0.001l-0.249,0.022c-0.333,0.02-0.668,0.112-0.996,0.22c-0.164,0.05-0.32,0.133-0.484,0.193
			c-0.159,0.071-0.311,0.16-0.47,0.232c-0.149,0.091-0.302,0.175-0.447,0.263c-0.145,0.092-0.283,0.186-0.421,0.274
			c-0.272,0.188-0.527,0.374-0.763,0.558c-0.469,0.36-0.854,0.688-1.122,0.922C74.129,96.93,73.974,97.065,73.974,97.065z"/>
		<path fill="#2F160C" d="M98.767,94.901c0,0,0.023-0.047,0.074-0.133c0.054-0.08,0.126-0.208,0.235-0.354
			c0.211-0.296,0.541-0.704,1-1.139c0.231-0.216,0.495-0.437,0.793-0.652c0.15-0.103,0.311-0.208,0.475-0.312
			c0.17-0.098,0.344-0.195,0.528-0.287c0.373-0.176,0.776-0.332,1.217-0.429c0.437-0.096,0.905-0.146,1.377-0.102l0.354,0.041
			l0.043,0.003l0.012,0.002l0.038,0.008l0.017,0.003l0.073,0.018l0.146,0.034c0.201,0.049,0.378,0.083,0.602,0.161
			c0.433,0.13,0.817,0.301,1.181,0.489c0.727,0.382,1.317,0.881,1.742,1.369c0.214,0.241,0.387,0.482,0.521,0.705
			c0.141,0.217,0.235,0.423,0.312,0.592c0.146,0.339,0.182,0.549,0.182,0.549s-0.141-0.157-0.397-0.397
			c-0.13-0.121-0.29-0.259-0.479-0.409c-0.092-0.076-0.192-0.153-0.304-0.229c-0.106-0.077-0.222-0.159-0.343-0.236
			c-0.24-0.16-0.51-0.315-0.797-0.463c-0.287-0.148-0.6-0.284-0.926-0.41c-0.33-0.123-0.676-0.229-1.01-0.311
			c-0.155-0.054-0.375-0.079-0.563-0.125l-0.149-0.031l-0.074-0.017l-0.019-0.003h-0.005c0.05,0.01,0.012,0.001,0.021,0.003h-0.008
			l-0.031-0.003l-0.249-0.021c-0.332-0.041-0.677-0.008-1.019,0.042c-0.172,0.019-0.341,0.073-0.516,0.104
			c-0.168,0.041-0.333,0.104-0.501,0.146c-0.165,0.06-0.326,0.12-0.483,0.177c-0.159,0.068-0.315,0.133-0.466,0.198
			c-0.302,0.139-0.585,0.275-0.849,0.414c-0.523,0.273-0.961,0.529-1.268,0.71C98.944,94.795,98.767,94.901,98.767,94.901z"/>
		<path fill="#ECADB0" d="M73.974,102.644c0,2.412-2.009,4.368-4.49,4.368c-2.479,0-4.489-1.956-4.489-4.368
			c0-2.416,2.011-4.372,4.489-4.372C71.965,98.272,73.974,100.228,73.974,102.644z"/>
		<ellipse fill="#ECADB0" cx="115.753" cy="101.84" rx="4.489" ry="4.368"/>
		<path fill="#1B1C1C" d="M124.192,135.416c6.297-0.664,3.635-7.711,2.153-13.007c-2.071-7.422-3.455-11.853-9.305-10.613
			c-7.111,1.505-3.355,8.661-0.56,14.509C119.463,132.528,119.913,135.866,124.192,135.416z"/>
		<path fill="#FFFFFF" d="M131.986,134.263c-0.228-3.078-2.71-5.404-5.549-5.197c-1.701,0.126-3.139,1.137-3.973,2.585
			c-1.722-1.536-4.354-1.5-6.014,0.147c-1.726,1.711-1.739,4.495-0.03,6.221c1.712,1.725,4.496,1.735,6.223,0.024
			c0.032-0.031,0.056-0.07,0.086-0.104c1.026,1.489,2.702,2.406,4.527,2.271C130.096,140.003,132.214,137.34,131.986,134.263z"/>
		<path fill="#1B1C1C" d="M63.688,135.875c-6.332,0.044-4.568-7.627-4.13-13.107c0.44-5.483,2.482-12.607,8.333-11.373
			c5.428,1.144,4.05,8.85,2.271,13.126C67.515,130.892,67.989,135.847,63.688,135.875z"/>
		<path fill="#FFFFFF" d="M69.041,129.503c-2.266-0.439-4.494,0.806-5.569,2.906c-0.255-0.91-0.778-1.754-1.576-2.387
			c-2.012-1.59-4.928-1.252-6.518,0.756c-1.59,2.01-1.247,4.927,0.764,6.518c2.009,1.589,4.926,1.249,6.516-0.758
			c0.096-0.121,0.16-0.254,0.242-0.38c0.368,2.146,1.903,3.906,4.021,4.317c2.795,0.541,5.534-1.479,6.122-4.51
			C73.627,132.938,71.838,130.042,69.041,129.503z"/>
		<path fill="#1B1C1C" d="M57.105,79.97c1.408-1.94-10.063-6.903-18.188,0.686C30.795,88.244,42.852,99.613,57.105,79.97z"/>
		<path fill="#1B1C1C" d="M126.23,78.772c-1.313-2,10.374-6.431,18.137,1.531C152.128,88.259,139.558,99.058,126.23,78.772z"/>
		<path fill="#93918B" d="M59.692,65.564c0,0,4.525,2.157,9.662,0.444c5.363-1.79,5.653-5.923,5.653-5.923
			s-3.502-17.067-17.455-21.077C43.599,35,33.748,48.612,33.748,48.612s11.572-4.552,18.284,0.808
			C56.842,53.262,59.692,65.564,59.692,65.564z"/>
		<path fill="#93918B" d="M126.556,66.433c0,0-4.503,3.479-9.64,1.766c-5.364-1.788-6.648-6.918-6.648-6.918
			s4.497-16.071,18.451-20.082c13.951-4.009,22.806,12.261,22.806,12.261s-10.579-7.209-17.286-1.85
			C129.43,55.451,126.556,66.433,126.556,66.433z"/>
		<path fill="#3A3A3A" d="M67.044,117.325c0,0-0.011-0.032-0.034-0.094c-0.018-0.057-0.055-0.15-0.073-0.249
			c-0.023-0.103-0.059-0.228-0.077-0.361c-0.02-0.133-0.031-0.278-0.038-0.43c-0.011-0.3,0.021-0.623,0.105-0.934
			c0.018-0.082,0.047-0.152,0.074-0.23c0.023-0.078,0.057-0.152,0.093-0.227c0.063-0.149,0.153-0.285,0.235-0.425
			c0.099-0.13,0.193-0.262,0.308-0.377c0.11-0.12,0.234-0.228,0.363-0.323c0.255-0.196,0.545-0.346,0.826-0.449
			c0.141-0.053,0.278-0.094,0.41-0.124c0.13-0.034,0.259-0.051,0.361-0.066c0.099-0.019,0.2-0.019,0.259-0.027
			c0.063-0.002,0.1-0.002,0.1-0.002l0.138,0.093c0,0-0.043,0.07-0.114,0.192c-0.072,0.122-0.171,0.302-0.306,0.508
			c-0.263,0.409-0.615,0.957-0.968,1.502c-0.376,0.533-0.75,1.065-1.032,1.463c-0.139,0.199-0.271,0.357-0.356,0.473
			c-0.086,0.112-0.136,0.176-0.136,0.176L67.044,117.325z"/>
		<path fill="#3A3A3A" d="M63.539,116.093c0,0-0.018-0.028-0.045-0.084c-0.023-0.051-0.078-0.137-0.111-0.227
			c-0.037-0.092-0.091-0.208-0.121-0.326c-0.04-0.121-0.082-0.257-0.107-0.396c-0.054-0.278-0.07-0.577-0.033-0.87
			c0.018-0.149,0.048-0.292,0.09-0.436c0.043-0.142,0.103-0.276,0.17-0.407c0.069-0.13,0.148-0.255,0.239-0.371
			c0.094-0.116,0.192-0.225,0.305-0.321c0.221-0.197,0.478-0.355,0.737-0.47c0.125-0.058,0.262-0.102,0.383-0.139
			c0.114-0.043,0.239-0.064,0.337-0.087c0.093-0.022,0.193-0.029,0.25-0.038c0.06-0.008,0.09-0.013,0.09-0.013l0.15,0.077
			c0,0-0.117,0.272-0.303,0.674c-0.096,0.2-0.202,0.437-0.326,0.682c-0.125,0.247-0.26,0.512-0.392,0.773
			c-0.14,0.26-0.28,0.518-0.412,0.762c-0.13,0.244-0.264,0.465-0.371,0.659c-0.225,0.382-0.385,0.632-0.385,0.631L63.539,116.093z"
			/>
		<path fill="#3A3A3A" d="M118.896,112.278c0,0,0.033,0,0.1,0.004c0.058,0.005,0.157,0.006,0.259,0.025
			c0.102,0.015,0.232,0.031,0.362,0.063c0.131,0.032,0.27,0.074,0.413,0.125c0.281,0.104,0.568,0.253,0.826,0.449
			c0.066,0.045,0.124,0.102,0.186,0.154c0.062,0.052,0.12,0.108,0.175,0.17c0.115,0.113,0.209,0.249,0.305,0.378
			c0.085,0.142,0.172,0.277,0.234,0.429c0.071,0.146,0.125,0.301,0.165,0.457c0.086,0.312,0.117,0.632,0.106,0.932
			c-0.005,0.153-0.019,0.296-0.039,0.431c-0.017,0.13-0.051,0.256-0.073,0.359c-0.02,0.101-0.057,0.192-0.071,0.248
			c-0.024,0.062-0.034,0.094-0.034,0.094l-0.138,0.094c0,0-0.052-0.064-0.138-0.177c-0.085-0.114-0.218-0.272-0.354-0.474
			c-0.282-0.398-0.659-0.931-1.033-1.463c-0.353-0.547-0.705-1.094-0.971-1.505c-0.133-0.203-0.229-0.384-0.302-0.505
			c-0.073-0.125-0.115-0.194-0.115-0.194L118.896,112.278z"/>
		<path fill="#3A3A3A" d="M115.401,112.871c0,0,0.035,0.007,0.1,0.025c0.055,0.02,0.15,0.042,0.243,0.083
			c0.098,0.039,0.223,0.084,0.34,0.146c0.12,0.059,0.245,0.129,0.373,0.212c0.253,0.164,0.496,0.375,0.701,0.621
			c0.059,0.06,0.101,0.125,0.146,0.193c0.052,0.063,0.094,0.132,0.133,0.203c0.086,0.137,0.146,0.288,0.212,0.438
			c0.051,0.153,0.104,0.308,0.132,0.466c0.032,0.159,0.051,0.32,0.056,0.481c0.011,0.32-0.03,0.641-0.108,0.932
			c-0.04,0.144-0.085,0.28-0.135,0.406c-0.047,0.124-0.109,0.24-0.155,0.334c-0.041,0.091-0.099,0.172-0.126,0.224
			c-0.036,0.056-0.056,0.083-0.056,0.083l-0.155,0.061c0,0-0.032-0.075-0.092-0.205c-0.057-0.129-0.148-0.312-0.238-0.537
			c-0.185-0.451-0.428-1.05-0.672-1.651c-0.221-0.61-0.437-1.222-0.603-1.681c-0.082-0.229-0.136-0.426-0.18-0.56
			c-0.043-0.137-0.067-0.214-0.067-0.214L115.401,112.871z"/>
		<path fill="#2F160C" d="M75.695,94.845c0,0-0.013,0.061-0.07,0.158c-0.029,0.044-0.063,0.107-0.118,0.162
			c-0.052,0.051-0.107,0.127-0.19,0.175c-0.077,0.056-0.163,0.125-0.265,0.165c-0.101,0.043-0.211,0.099-0.329,0.115
			c-0.118,0.022-0.244,0.06-0.372,0.052c-0.132-0.002-0.238,0.004-0.396-0.021c-0.06-0.011-0.106-0.019-0.172-0.037
			c-0.071-0.023-0.146-0.051-0.216-0.078c-0.128-0.061-0.242-0.141-0.341-0.231c-0.097-0.096-0.173-0.197-0.229-0.302
			c-0.057-0.103-0.089-0.208-0.111-0.304c-0.046-0.192-0.034-0.352-0.015-0.461c0.019-0.108,0.046-0.166,0.046-0.166
			s0.118,0.228,0.313,0.464c0.05,0.06,0.109,0.115,0.168,0.168c0.062,0.051,0.128,0.096,0.193,0.138
			c0.039,0.018,0.075,0.035,0.108,0.057c0.039,0.012,0.076,0.024,0.114,0.042c0.038,0.01,0.071,0.017,0.104,0.031
			c0.044,0.011,0.108,0.021,0.162,0.027c0.065,0.015,0.188,0.016,0.276,0.029c0.097,0.02,0.188,0.004,0.281,0.011
			c0.096,0.009,0.181-0.007,0.269-0.012c0.089,0,0.168-0.021,0.245-0.03C75.463,94.944,75.695,94.845,75.695,94.845z"/>
		<path fill="#2F160C" d="M107.961,93.602c0,0,0.233,0.096,0.543,0.151c0.08,0.009,0.158,0.031,0.248,0.031
			c0.087,0.003,0.173,0.021,0.267,0.011c0.094-0.007,0.187,0.01,0.284-0.011c0.089-0.014,0.211-0.015,0.275-0.028
			c0.054-0.01,0.118-0.017,0.163-0.028c0.032-0.016,0.066-0.022,0.103-0.03c0.038-0.016,0.076-0.032,0.116-0.043
			c0.033-0.02,0.07-0.038,0.106-0.054c0.067-0.043,0.136-0.088,0.193-0.14c0.061-0.055,0.118-0.108,0.167-0.167
			c0.197-0.233,0.316-0.465,0.316-0.465s0.026,0.058,0.047,0.167c0.016,0.107,0.028,0.271-0.019,0.46
			c-0.019,0.098-0.055,0.2-0.11,0.307c-0.058,0.104-0.134,0.205-0.23,0.301c-0.098,0.09-0.212,0.172-0.34,0.23
			c-0.07,0.028-0.141,0.058-0.214,0.079c-0.067,0.018-0.115,0.025-0.172,0.037c-0.158,0.023-0.268,0.019-0.398,0.021
			c-0.125,0.008-0.251-0.03-0.37-0.053c-0.12-0.017-0.229-0.072-0.33-0.115c-0.104-0.039-0.188-0.109-0.268-0.163
			c-0.078-0.05-0.134-0.126-0.189-0.178c-0.053-0.055-0.088-0.117-0.116-0.16C107.978,93.662,107.961,93.602,107.961,93.602z"/>
		<path fill="#FFFFFF" d="M91.13,61.731c-7.314,0.664-22.757,6.851-28.321,19.811c-5.565,12.962-4.419,10.521-4.419,10.521
			s8.596-1.805,17.893-5.608c9.299-3.805,14.894-9.728,14.894-9.728s2.201,2.731,15.653,8.591
			c10.431,4.543,17.604,4.457,17.604,4.457S115.704,59.499,91.13,61.731z"/>
		<path fill="#FFFFFF" d="M125.39,179.98c0-4.854-9.132-8.789-20.398-8.789c-4.784,0-9.174,0.714-12.652,1.901
			c-0.789-2.139-2.842-3.667-5.257-3.667c-1.612,0-3.062,0.684-4.084,1.771c-1.27-2.338-3.746-3.926-6.597-3.926
			c-4.144,0-7.5,3.354-7.5,7.493c0,0.317,0.026,0.629,0.064,0.937c-1.435-1.121-3.236-1.794-5.198-1.794
			c-4.675,0-8.462,3.781-8.462,8.449c0,4.671,3.787,8.452,8.462,8.452c2.178,0,4.156-0.829,5.655-2.182
			c0.89,1.92,2.83,3.255,5.087,3.255c0.668,0,1.306-0.123,1.9-0.337c0.905,2.158,2.827,3.652,5.061,3.652
			c2.733,0,5.007-2.231,5.513-5.187c1.327,1.301,3.144,2.104,5.148,2.104c0.368,0,0.728-0.036,1.081-0.088
			c0.573,1.762,2.211,3.045,4.166,3.045c2.232,0,4.058-1.669,4.342-3.824c1.366,1.106,3.105,1.771,5.002,1.771
			c1.723,0,3.313-0.554,4.614-1.483c0.416,2.685,2.73,4.742,5.534,4.742c3.098,0,5.607-2.509,5.607-5.604
			c0-1.978-1.026-3.712-2.576-4.709C123.297,184.395,125.39,182.296,125.39,179.98z"/>
	</g>
</g>
</svg>
