<svg xmlns="http://www.w3.org/2000/svg" width="485.576" height="509.733" viewBox="-18.229 1.379 485.576 509.733" enable-background="new -18.229 1.379 485.576 509.733"><path fill="#1B1C1C" d="M336.342 386.777s32.457 51.02 48.432 64.16c13.453 11.07 23.18 11.248 23.18 11.248s-18.37 11.084-41.908-2.894c-23.535-13.98-37.966-35.163-37.966-35.163l8.262-37.35z"/><path fill="#fff" d="M401.954 299.526c0 133.512-80.24 175.77-179.22 175.77s-179.22-42.258-179.22-175.77c0-133.516 80.24-241.75 179.22-241.75 98.98-.002 179.22 108.234 179.22 241.75"/><path fill="#E2DED6" d="M117.818 192.008c-1.46 49.153 44.033 72.323 100.953 74.11 56.915 1.785 103.702-18.486 105.167-67.64 1.46-49.154-43.702-104.866-100.62-106.653-56.915-1.785-104.035 51.03-105.5 100.183"/><path fill="#fff" d="M168.217 69.86c0 11.63-9.435 21.057-21.075 21.057-11.638 0-21.075-9.426-21.075-21.056s9.437-21.057 21.075-21.057c11.64 0 21.075 9.428 21.075 21.058M200.94 58.288c0 11.63-9.434 21.057-21.073 21.057-11.64 0-21.074-9.428-21.074-21.057s9.434-21.056 21.074-21.056c11.64 0 21.074 9.427 21.074 21.056M244.044 51.078c0 12.626-10.246 22.862-22.883 22.862-12.634 0-22.878-10.236-22.878-22.862 0-12.626 10.244-22.862 22.88-22.862s22.882 10.235 22.882 22.862M284.177 55.212c0 13.327-10.814 24.133-24.15 24.133-13.337 0-24.15-10.806-24.15-24.133 0-13.328 10.813-24.132 24.15-24.132 13.336 0 24.15 10.804 24.15 24.132M314.602 64.628c0 11.63-9.438 21.058-21.073 21.058-11.645 0-21.077-9.427-21.077-21.058 0-11.63 9.433-21.057 21.076-21.057 11.635.002 21.072 9.427 21.072 21.058M135.854 90.528c0 9.322-7.56 16.878-16.893 16.878-9.33 0-16.894-7.557-16.894-16.878 0-9.325 7.563-16.88 16.895-16.88 9.333 0 16.894 7.555 16.894 16.88M334.36 93.204c0 9.324-7.563 16.88-16.894 16.88s-16.896-7.556-16.896-16.88c0-9.324 7.565-16.88 16.896-16.88s16.893 7.555 16.893 16.88"/><path fill="#3A3A3A" d="M190.315 199.08s.298.042.86.118c.55.092 1.373.187 2.384.357 1.004.17 2.225.374 3.625.608 1.372.243 2.917.52 4.605.818 1.668.306 3.46.63 5.338.948 1.875.33 3.84.647 5.84.938 2.003.286 4.055.55 6.092.717l1.535.13 1.517.052 1.514.06 1.478-.037.74-.003h.278l-.19.015.027-.002.053-.003.426-.042 1.702-.147.84-.072.678-.105 1.364-.186c.434-.035.965-.19 1.442-.278.497-.087.99-.177 1.478-.263.98-.23 1.946-.478 2.916-.683l2.848-.77c.938-.28 1.86-.55 2.752-.815 1.796-.556 3.513-1.106 5.108-1.642 3.257-1.103 5.97-2.02 7.87-2.665.984-.324 1.758-.58 2.286-.756.538-.173.827-.268.827-.268s-.63 1.047-1.967 2.677c-1.34 1.622-3.398 3.81-6.198 6.08-1.4 1.13-2.984 2.282-4.743 3.4-.872.572-1.826 1.063-2.78 1.623-.96.54-2.004.986-3.037 1.498-1.065.47-2.17.89-3.3 1.313-1.17.37-2.286.766-3.566 1.06-.656.14-1.312.28-1.97.423l-.994.202-.857.108-1.7.2-.424.045-.324.028-.12.003-.246.006-.974.023-1.946.012c-.64-.018-1.27-.09-1.902-.134-.628-.05-1.265-.095-1.88-.183-.61-.1-1.222-.197-1.825-.297-1.227-.165-2.39-.46-3.54-.75-1.16-.26-2.263-.612-3.348-.97-2.166-.697-4.188-1.527-6.055-2.39-1.868-.868-3.575-1.786-5.11-2.7-3.07-1.83-5.442-3.645-7.03-5.01-.804-.673-1.39-1.274-1.798-1.66-.407-.396-.605-.628-.605-.628"/><path fill="#3A3A3A" d="M228.866 205.862l-5.103 14.717-3.89-15.082z"/><path fill="#212120" d="M205.324 222.476l.47.138c.298.097.758.203 1.298.38 1.11.318 2.66.77 4.47 1.256.908.24 1.88.48 2.896.72 1.016.23 2.075.442 3.16.633 1.086.173 2.194.323 3.304.416 1.104.077 2.248.137 3.307.073.64-.02 1.31-.03 1.784-.104.518-.062 1.05-.078 1.63-.178 1.13-.146 2.267-.324 3.367-.542.558-.09 1.1-.217 1.637-.325.54-.1 1.065-.225 1.583-.34 1.036-.222 2.023-.457 2.943-.678 1.888-.437 3.46-.802 4.563-1.056.557-.142 1.02-.22 1.325-.294l.482-.1s-.1.143-.3.394c-.207.237-.497.62-.914 1.035-.813.866-2.05 2.017-3.704 3.185-.823.583-1.75 1.177-2.773 1.733-1.022.56-2.136 1.102-3.344 1.556-.592.254-1.222.452-1.862.645-.322.098-.646.195-.97.295l-1.007.225c-1.278.317-3.03.502-4.18.543-1.506.045-2.93-.057-4.328-.305-1.393-.232-2.715-.617-3.948-1.063-1.235-.45-2.37-.998-3.41-1.563-.51-.3-1.005-.592-1.47-.887-.455-.32-.896-.613-1.31-.918-.81-.62-1.52-1.228-2.118-1.8-.598-.57-1.076-1.117-1.465-1.565-.772-.908-1.116-1.51-1.116-1.51"/><path fill="#E2DED6" d="M93.335 141.236c0 9.323-7.563 16.88-16.894 16.88-9.33 0-16.895-7.557-16.895-16.88 0-9.325 7.564-16.882 16.896-16.882s16.895 7.557 16.895 16.882"/><path fill="#fff" d="M115.774 115.244c0 11.63-9.435 21.055-21.072 21.055-11.642 0-21.076-9.426-21.076-21.056s9.434-21.056 21.076-21.056c11.637 0 21.072 9.425 21.072 21.056M58.084 344.557c0 11.626-9.435 21.054-21.073 21.054-11.64 0-21.074-9.427-21.074-21.053 0-11.633 9.435-21.06 21.075-21.06 11.64 0 21.074 9.427 21.074 21.06M74.98 376.277c0 11.63-9.438 21.058-21.078 21.058-11.64 0-21.073-9.428-21.073-21.058 0-11.63 9.433-21.057 21.072-21.057 11.64 0 21.077 9.426 21.077 21.057M53.902 311.323c0 9.324-7.56 16.882-16.892 16.882-9.33 0-16.894-7.558-16.894-16.882 0-9.322 7.563-16.882 16.894-16.882 9.33 0 16.892 7.56 16.892 16.883M53.902 279.485c0 9.322-7.56 16.88-16.892 16.88-9.33 0-16.894-7.558-16.894-16.88 0-9.324 7.563-16.88 16.894-16.88 9.33 0 16.892 7.556 16.892 16.88M64.752 219.98c1.31 11.554-7.007 21.985-18.572 23.293-11.565 1.31-22-6.997-23.308-18.553-1.31-11.556 7.004-21.984 18.572-23.294 11.562-1.31 21.998 6.998 23.308 18.554M358.776 115.244c0 9.323-7.562 16.88-16.894 16.88-9.33 0-16.893-7.557-16.893-16.88 0-9.326 7.562-16.88 16.892-16.88 9.332 0 16.894 7.554 16.894 16.88M81.323 167.263c0 7.714-6.257 13.967-13.977 13.967-7.722 0-13.98-6.253-13.98-13.967 0-7.712 6.26-13.966 13.98-13.966 7.72 0 13.977 6.254 13.977 13.966M76.438 411.354c0 9.324-7.563 16.88-16.893 16.88-9.332 0-16.895-7.556-16.895-16.88s7.563-16.88 16.895-16.88c9.33 0 16.893 7.556 16.893 16.88M95.302 426.568c0 7.714-6.258 13.965-13.98 13.965-7.72 0-13.976-6.25-13.976-13.965 0-7.716 6.255-13.97 13.977-13.97 7.72 0 13.98 6.254 13.98 13.97M122.546 449.643c0 10.28-8.488 18.607-18.958 18.607-10.47 0-18.958-8.327-18.958-18.607s8.487-18.61 18.958-18.61c10.47 0 18.958 8.33 18.958 18.61M70.797 192.91c0 9.324-7.563 16.88-16.895 16.88-9.328 0-16.893-7.556-16.893-16.88s7.563-16.878 16.892-16.878c9.333 0 16.895 7.554 16.895 16.878M53.43 252.583c0 7.315-5.936 13.246-13.257 13.246-7.32 0-13.256-5.932-13.256-13.247 0-7.316 5.936-13.246 13.256-13.246 7.322 0 13.257 5.93 13.257 13.246M408.605 333.898c.99 8.743-5.305 16.64-14.058 17.63-8.753.99-16.652-5.295-17.64-14.04-.99-8.747 5.3-16.64 14.057-17.63 8.75-.992 16.65 5.294 17.64 14.04M418.845 304.47c0 9.325-7.563 16.883-16.892 16.883-9.33 0-16.895-7.558-16.895-16.883 0-9.32 7.564-16.88 16.895-16.88 9.33 0 16.892 7.56 16.892 16.88M424.483 276.395c0 9.327-7.562 16.884-16.892 16.884-9.33 0-16.895-7.558-16.895-16.885 0-9.32 7.564-16.88 16.896-16.88 9.33 0 16.893 7.56 16.893 16.88M327.315 464.373c0 9.323-7.562 16.883-16.89 16.883-9.334 0-16.897-7.56-16.897-16.883 0-9.324 7.563-16.88 16.896-16.88 9.33 0 16.89 7.555 16.89 16.88M351.253 447.493c0 9.32-7.564 16.878-16.895 16.878-9.33 0-16.895-7.556-16.895-16.877 0-9.326 7.565-16.88 16.895-16.88 9.33 0 16.895 7.554 16.895 16.88M403.912 191.53c1.45 12.806-7.768 24.37-20.59 25.82-12.82 1.452-24.39-7.756-25.84-20.566-1.45-12.812 7.768-24.374 20.59-25.824 12.82-1.453 24.39 7.757 25.84 20.57M388.547 161.295c0 9.325-7.563 16.88-16.893 16.88s-16.893-7.555-16.893-16.88c0-9.323 7.564-16.882 16.894-16.882s16.893 7.56 16.893 16.882M400.86 222.498c1.93 9.122-3.9 18.08-13.03 20.01-9.132 1.935-18.093-3.89-20.022-13.015-1.93-9.123 3.902-18.08 13.033-20.014 9.13-1.932 18.09 3.895 20.02 13.018M412.273 248.873c0 7.317-5.937 13.246-13.258 13.246-7.318 0-13.255-5.93-13.255-13.247 0-7.316 5.937-13.244 13.255-13.244 7.32-.002 13.258 5.927 13.258 13.243"/><path fill="#E2DED6" d="M368.014 138.323c0 7.315-5.935 13.245-13.252 13.245-7.326 0-13.26-5.93-13.26-13.245 0-7.318 5.934-13.245 13.26-13.245 7.318 0 13.252 5.927 13.252 13.245"/><path fill="#fff" d="M402.868 400.683c0 12.238-9.925 22.155-22.167 22.155-12.245 0-22.17-9.917-22.17-22.155 0-12.233 9.925-22.148 22.17-22.148 12.243 0 22.168 9.915 22.168 22.148M372.033 428.568c0 7.314-5.937 13.245-13.257 13.245-7.32 0-13.257-5.93-13.257-13.245 0-7.318 5.935-13.245 13.256-13.245 7.32 0 13.257 5.927 13.257 13.245"/><path fill="#1B1C1C" d="M308.522 433.106l-192.247-3.58c7.638 33.922 21.227 59.562 45.53 74.23 43.344 26.16 1.718-37.984 27.98-51.51 9.037-4.656 40.35-6.268 48.68 6.255 10.53 15.84-23.98 60.522 8.196 51.397 33.012-9.358 53.993-45.03 61.862-76.79"/><path fill="#fff" d="M210.226 429.527c0 9.324-7.563 16.882-16.893 16.882-9.332 0-16.894-7.56-16.894-16.883 0-9.322 7.56-16.88 16.893-16.88 9.33 0 16.893 7.558 16.893 16.88M414.865 365.644c.988 8.746-5.304 16.64-14.055 17.63-8.754.99-16.65-5.298-17.643-14.04-.987-8.747 5.302-16.64 14.056-17.63 8.75-.992 16.652 5.293 17.642 14.04M161.332 435.39c0 14.06-11.406 25.457-25.477 25.457s-25.48-11.398-25.48-25.458c0-14.066 11.41-25.457 25.48-25.457s25.477 11.39 25.477 25.456M185.112 447.2c0 9.32-7.562 16.88-16.893 16.88-9.333 0-16.897-7.56-16.897-16.88 0-9.326 7.564-16.883 16.896-16.883 9.33 0 16.892 7.557 16.892 16.882M206.117 454.706c0 10.695-7.58 19.363-16.926 19.363-9.347 0-16.924-8.67-16.924-19.364 0-10.696 7.577-19.36 16.925-19.36s16.927 8.663 16.927 19.36M196.504 412.52c0 12.464-10.112 22.574-22.588 22.574-12.48 0-22.593-10.11-22.593-22.574 0-12.47 10.113-22.573 22.593-22.573 12.476 0 22.588 10.103 22.588 22.573M243.468 442.63c0 12.232-9.924 22.152-22.17 22.152-12.242 0-22.17-9.92-22.17-22.152 0-12.237 9.928-22.15 22.17-22.15 12.246 0 22.17 9.913 22.17 22.15M250.36 460.445c0 7.315-5.936 13.246-13.257 13.246s-13.255-5.93-13.255-13.245c0-7.317 5.934-13.246 13.255-13.246s13.258 5.927 13.258 13.245M289.208 443.563c0 13.223-10.727 23.944-23.957 23.944-13.238 0-23.965-10.722-23.965-23.944 0-13.225 10.727-23.94 23.966-23.94 13.232 0 23.958 10.715 23.958 23.94M321.477 428.237c0 14.618-27.505 26.47-61.443 26.47-33.946 0-61.456-11.852-61.456-26.47 0-14.623 27.51-26.474 61.456-26.474 33.938 0 61.443 11.85 61.443 26.474M222.976 413.32c0 9.326-7.563 16.88-16.892 16.88-9.332 0-16.896-7.554-16.896-16.88 0-9.323 7.563-16.877 16.896-16.877 9.33 0 16.892 7.554 16.892 16.878M312.71 460.445c0 9.323-7.56 16.88-16.89 16.88-9.334 0-16.897-7.557-16.897-16.88s7.563-16.882 16.896-16.882c9.33 0 16.89 7.56 16.89 16.882"/><path fill="#CB2A2B" d="M217.362 282.266s-26.723-21.026-32.985-1.26c-6.26 19.764.628 28.515 11.677 29.56 11.047 1.046 23.077-18.98 23.077-18.98l-1.768-9.32zM233.075 280.428s26.695-21.056 32.98-1.3c6.288 19.76-.592 28.517-11.638 29.576-11.047 1.06-23.103-18.953-23.103-18.953l1.76-9.322zM237 287.424c.742 6.268-2.546 11.81-9.874 12.68-7.326.87-11.822-3.752-12.565-10.02-.74-6.27 2.548-11.813 9.874-12.684 7.325-.868 11.822 3.753 12.566 10.024"/><path fill="#2F160C" d="M166.604 178.475s.045-.15.15-.427c.115-.27.26-.684.508-1.173.47-.993 1.23-2.375 2.36-3.91.57-.763 1.24-1.554 2.004-2.355.396-.39.807-.784 1.243-1.18.45-.377.916-.76 1.414-1.13 1.008-.718 2.127-1.395 3.372-1.917 1.247-.52 2.61-.914 4.035-1.032l1.07-.068.133-.007.033-.002.11.002.056.002.227.01.454.023c.622.037 1.166.043 1.865.157 1.352.158 2.588.457 3.763.824 2.355.75 4.377 1.914 5.89 3.135.763.603 1.398 1.228 1.916 1.816.534.57.926 1.132 1.237 1.592.617.928.83 1.53.83 1.53s-.497-.393-1.392-.965c-.448-.29-1-.612-1.633-.96-.314-.175-.654-.35-1.022-.514-.36-.18-.74-.353-1.145-.518-.792-.35-1.673-.667-2.605-.954-.933-.288-1.928-.524-2.96-.72-1.037-.188-2.125-.317-3.16-.39-.487-.07-1.153-.034-1.743-.066l-.455-.013-.228-.006-.056-.002h-.016c.155.002.038 0 .068.002l-.022.003-.095.008-.75.067c-1.004.06-2.01.34-3 .66-.497.152-.973.404-1.462.584-.48.21-.936.484-1.41.703-.46.266-.907.528-1.348.785l-1.272.83c-.816.57-1.588 1.13-2.292 1.68-1.413 1.087-2.566 2.078-3.385 2.778l-1.29 1.122M241.286 171.957s.07-.14.225-.393c.16-.247.375-.63.707-1.065.637-.895 1.63-2.122 3.013-3.433.696-.65 1.495-1.312 2.39-1.963.455-.316.933-.63 1.43-.942.512-.29 1.04-.587 1.59-.862 1.122-.53 2.343-1 3.662-1.294 1.32-.29 2.728-.438 4.15-.304l1.064.12.134.017.032.003.107.022.058.014.22.048.443.102c.608.145 1.143.25 1.81.486 1.304.393 2.47.904 3.56 1.475 2.187 1.154 3.972 2.656 5.245 4.122.646.73 1.16 1.457 1.565 2.127.426.652.712 1.277.937 1.783.444 1.022.548 1.653.548 1.653s-.418-.478-1.198-1.198c-.39-.363-.878-.78-1.44-1.233-.275-.23-.584-.46-.915-.688-.32-.238-.665-.477-1.034-.71-.723-.483-1.53-.95-2.396-1.397-.868-.45-1.804-.857-2.788-1.234-.988-.367-2.034-.687-3.04-.94-.466-.155-1.13-.235-1.704-.372l-.446-.093-.222-.046-.056-.01-.015-.005.065.013h-.022l-.094-.008-.752-.066c-1-.123-2.037-.022-3.07.12-.518.06-1.027.224-1.54.316-.513.124-1.01.31-1.514.442-.497.183-.988.36-1.466.535-.477.2-.942.4-1.397.593-.905.417-1.765.833-2.555 1.247-1.58.822-2.89 1.594-3.818 2.138l-1.47.877"/><path fill="#ECADB0" d="M166.604 195.28c0 7.27-6.055 13.162-13.525 13.162s-13.526-5.894-13.526-13.16c0-7.27 6.055-13.164 13.525-13.164s13.524 5.893 13.524 13.163M305.974 192.86c0 7.27-6.054 13.163-13.524 13.163s-13.525-5.895-13.525-13.163c0-7.27 6.055-13.162 13.525-13.162s13.524 5.892 13.524 13.162"/><path fill="#1B1C1C" d="M115.797 126.985c4.236-5.84-30.318-20.793-54.786 2.07-24.466 22.86 11.85 57.103 54.787-2.07M324.01 123.38c-3.964-6.032 31.247-19.366 54.63 4.606 23.38 23.97-14.486 56.492-54.63-4.607"/><path fill="#93918B" d="M123.588 83.593s13.63 6.5 29.1 1.34c16.16-5.39 17.03-17.843 17.03-17.843s-10.55-51.408-52.58-63.484-71.7 28.925-71.7 28.925 34.867-13.713 55.074 2.433c14.484 11.57 23.076 48.63 23.076 48.63M324.99 86.208s-13.566 10.482-29.033 5.324c-16.16-5.39-20.034-20.844-20.034-20.844s13.553-48.408 55.58-60.483 68.704 36.926 68.704 36.926-31.867-21.714-52.074-5.568c-14.485 11.57-23.143 44.646-23.143 44.646"/><path fill="#1B1C1C" d="M392.834 281.954c-5.126-18.374 18.568-19.298 34.853-22.35 16.285-3.05 38.603-2.733 39.632 15.25.953 16.68-22.535 18.756-36.37 16.96-20.612-2.67-34.636 2.62-38.116-9.86"/><path fill="#fff" d="M399.95 309.215c-9.272.687-17.3-5.687-17.93-14.238-.635-8.55 6.364-16.04 15.638-16.725 9.268-.687 17.298 5.688 17.93 14.24.63 8.55-6.373 16.036-15.64 16.723M390.098 279.48c-7.095-3.033-10.38-11.247-7.348-18.345 3.04-7.1 11.247-10.392 18.342-7.357 7.092 3.034 10.378 11.246 7.34 18.344-3.036 7.097-11.243 10.393-18.334 7.358"/><path fill="#3A3A3A" d="M449.408 277.073l.244-.176c.153-.093.393-.27.667-.407.276-.15.618-.35.987-.505.37-.165.78-.318 1.215-.454.867-.266 1.828-.43 2.797-.426.247-.013.486.015.728.03.246.012.49.04.73.092.486.066.953.217 1.424.353.456.18.916.35 1.342.598.435.222.843.494 1.225.795.77.592 1.433 1.308 1.955 2.047.264.37.492.74.688 1.1.196.348.345.713.477.997.132.274.212.565.277.73.06.184.09.285.09.285l-.162.47s-.236-.06-.65-.174c-.413-.123-1.014-.26-1.712-.486l-5.142-1.63-5.065-1.847c-.694-.246-1.252-.506-1.653-.66l-.623-.26.158-.472zM450.223 265.91s.072-.068.208-.192c.132-.112.34-.338.572-.504.238-.183.533-.428.852-.612.32-.21.686-.44 1.067-.622.765-.38 1.625-.665 2.506-.788.44-.064.887-.094 1.33-.08.444.018.887.078 1.32.17.433.1.857.235 1.268.407.408.177.803.384 1.176.633.746.48 1.405 1.103 1.94 1.765.273.322.506.685.71 1.01.215.296.38.643.52.91.145.247.237.536.31.692.07.167.105.258.105.258l-.105.488c-.002 0-.886-.12-2.2-.34-.655-.122-1.424-.244-2.24-.414-.815-.168-1.684-.348-2.556-.526l-2.54-.592c-.814-.188-1.562-.4-2.207-.564-1.287-.35-2.14-.613-2.14-.613l.106-.488z"/><path fill="#1B1C1C" d="M55.208 291.583c7.932-17.344-14.427-21.24-30.43-25.522-22.42-5.994-36.03-9.198-41.78 7.87-6.99 20.746 17.32 21.977 36.772 23.68 20.704 1.812 30.05 5.76 35.438-6.027"/><path fill="#fff" d="M43.558 290.016c7.093-1.792 14.296 2.513 16.088 9.608 1.794 7.1-2.504 14.308-9.6 16.1-7.094 1.79-14.292-2.515-16.085-9.612-1.79-7.097 2.502-14.305 9.598-16.096M64.158 269.6c8.33 4.13 11.992 13.707 8.18 21.385-3.807 7.684-13.645 10.562-21.976 6.432-8.324-4.13-11.99-13.706-8.175-21.39 3.807-7.68 13.646-10.553 21.97-6.426"/><path fill="#3A3A3A" d="M-12.912 269.862l.16-.257c.106-.14.26-.397.462-.628.2-.243.443-.558.724-.84.282-.296.602-.59.953-.883.704-.573 1.53-1.09 2.43-1.453.222-.104.454-.168.688-.244.23-.083.467-.15.705-.19.477-.127.964-.163 1.454-.215.49-.005.98-.02 1.466.047.486.04.968.142 1.437.274.936.255 1.82.668 2.585 1.153.383.243.736.5 1.05.757.315.248.593.528.82.745.227.203.41.44.53.57l.192.23.03.498-.67.08c-.427.047-1.034.147-1.768.2l-5.376.437-5.39.206c-.732.035-1.35.008-1.778.015h-.675l-.03-.498zM-16.725 279.826s.074-.07.213-.21c.136-.115.343-.33.59-.51.25-.192.554-.44.894-.657.34-.223.717-.44 1.124-.642.812-.402 1.73-.716 2.687-.868.24-.052.48-.063.722-.085.244-.028.487-.038.73-.026.49-.014.973.06 1.457.12.477.105.956.2 1.414.375.462.15.908.356 1.332.59.85.46 1.616 1.063 2.25 1.71.314.325.598.652.846.974.25.31.455.648.626.91.175.25.297.52.39.672.086.177.133.27.133.27l-.085.493-.67-.07c-.423-.055-1.036-.095-1.76-.208-1.45-.216-3.38-.502-5.316-.788l-5.275-1.018c-.72-.13-1.313-.298-1.73-.387-.417-.1-.655-.154-.655-.154l.083-.494z"/><path fill="#2F160C" d="M171.793 171.796s-.042.18-.216.474c-.09.13-.192.32-.353.484-.162.158-.332.384-.574.534-.236.162-.49.376-.802.493-.303.13-.635.295-.993.352-.356.065-.737.18-1.113.154-.402-.007-.726.014-1.2-.058-.174-.037-.32-.06-.516-.114-.222-.067-.44-.15-.648-.236-.383-.184-.732-.423-1.028-.7-.29-.284-.52-.593-.692-.908-.167-.315-.273-.63-.336-.918-.138-.576-.102-1.06-.047-1.385.057-.327.14-.5.14-.5s.356.69.947 1.4c.15.176.326.343.504.5.18.16.384.294.586.42.112.053.218.107.323.166.12.038.235.082.348.132.108.026.213.046.314.09.13.033.326.058.487.09.198.037.562.038.833.082.294.06.57.01.853.034.285.027.542-.024.806-.035.267 0 .504-.063.744-.09.93-.164 1.633-.46 1.633-.46M268.984 168.047s.702.293 1.632.458c.242.027.478.088.744.09.265.01.522.062.808.035.283-.022.557.026.85-.033.274-.044.638-.044.835-.082.162-.033.354-.056.488-.092.1-.04.206-.063.314-.087.112-.05.226-.095.346-.133.104-.06.212-.113.325-.165.2-.125.403-.26.586-.42.18-.158.355-.325.503-.502.594-.71.95-1.4.95-1.4s.082.174.138.5c.056.325.092.81-.043 1.388-.063.29-.17.6-.34.917-.17.314-.4.624-.69.908-.296.277-.645.516-1.028.7-.21.083-.43.168-.648.236-.197.05-.343.075-.516.113-.475.07-.8.05-1.2.058-.376.024-.76-.088-1.112-.154-.36-.053-.69-.22-.994-.35-.313-.117-.566-.33-.8-.493-.244-.148-.415-.374-.576-.533-.16-.162-.26-.354-.354-.483-.174-.294-.216-.473-.216-.473"/><path fill="#fff" d="M218.282 72.045c-22.033 2-68.547 20.638-85.31 59.68-16.765 39.04-13.308 31.685-13.308 31.685s25.89-5.437 53.894-16.896c28.004-11.46 44.858-29.3 44.858-29.3s6.633 8.233 47.15 25.88c31.423 13.687 53.027 13.422 53.027 13.422s-26.29-91.193-100.31-84.47"/></svg>