<?xml version="1.0" encoding="utf-8"?>
<!-- Generator: Adobe Illustrator 15.1.0, SVG Export Plug-In . SVG Version: 6.00 Build 0)  -->
<!DOCTYPE svg PUBLIC "-//W3C//DTD SVG 1.1//EN" "http://www.w3.org/Graphics/SVG/1.1/DTD/svg11.dtd">
<svg version="1.1" id="Layer_1" xmlns="http://www.w3.org/2000/svg" xmlns:xlink="http://www.w3.org/1999/xlink" x="0px" y="0px"
	 width="118.139px" height="118.139px" viewBox="0 0 118.139 118.139" enable-background="new 0 0 118.139 118.139"
	 xml:space="preserve">
<path fill="#3E3E3E" d="M118.139,59.069C118.139,26.446,91.693,0,59.07,0S0,26.446,0,59.069s26.446,59.069,59.069,59.069
	S118.139,91.691,118.139,59.069"/>
<path fill="#E9E9E9" d="M106.873,59.069c0-26.4-21.402-47.803-47.804-47.803c-26.4,0-47.803,21.402-47.803,47.803
	c0,26.399,21.402,47.803,47.803,47.803C85.471,106.872,106.873,85.469,106.873,59.069"/>
<path fill="#D9D9D8" d="M92.779,25.252c-18.667-18.668-48.934-18.667-67.603,0C6.508,43.921,6.508,74.189,25.177,92.856
	L92.779,25.252z"/>
<path fill="#3E3E3E" d="M63.069,59.069c0-2.209-1.79-4-3.999-4s-3.999,1.791-3.999,4c0,2.208,1.79,4,3.999,4
	S63.069,61.277,63.069,59.069"/>
</svg>
