<?xml version="1.0" encoding="utf-8"?>
<!-- Generator: Adobe Illustrator 15.1.0, SVG Export Plug-In . SVG Version: 6.00 Build 0)  -->
<!DOCTYPE svg PUBLIC "-//W3C//DTD SVG 1.1//EN" "http://www.w3.org/Graphics/SVG/1.1/DTD/svg11.dtd">
<svg version="1.1" id="Layer_1" xmlns="http://www.w3.org/2000/svg" xmlns:xlink="http://www.w3.org/1999/xlink" x="0px" y="0px"
	 width="207.676px" height="263.859px" viewBox="0 0 207.676 263.859" enable-background="new 0 0 207.676 263.859"
	 xml:space="preserve">
<g>
	<g>
		<path fill="#1B1C1C" d="M155.813,227.395l8.539,2.711c3.918-2.023,3.918-2.023,5.767-2.197c9.629-0.902,25.631,20.93,26.163,3.935
			c0.544-17.432-13.51-33.085-27.688-41.783C163.536,205.02,160.872,212.433,155.813,227.395"/>
		<path fill="#FFFFFF" d="M157.693,198.207c0,5.99,4.854,10.846,10.845,10.846s10.847-4.856,10.847-10.846
			c0-5.99-4.855-10.847-10.847-10.847S157.693,192.216,157.693,198.207"/>
		<path fill="#FFFFFF" d="M151.602,213.549c0,4.163,3.375,7.539,7.539,7.539s7.539-3.376,7.539-7.539
			c0-4.164-3.375-7.539-7.539-7.539S151.602,209.385,151.602,213.549"/>
		<path fill="#FFFFFF" d="M154.828,226.399c0,4.644,3.765,8.408,8.406,8.408c4.645,0,8.408-3.765,8.408-8.408
			c0-4.643-3.765-8.406-8.408-8.406C158.593,217.993,154.828,221.756,154.828,226.399"/>
	</g>
</g>
</svg>
