<?xml version="1.0" encoding="utf-8"?>
<!-- Generator: Adobe Illustrator 15.1.0, SVG Export Plug-In . SVG Version: 6.00 Build 0)  -->
<!DOCTYPE svg PUBLIC "-//W3C//DTD SVG 1.1//EN" "http://www.w3.org/Graphics/SVG/1.1/DTD/svg11.dtd">
<svg version="1.1" id="Layer_1" xmlns="http://www.w3.org/2000/svg" xmlns:xlink="http://www.w3.org/1999/xlink" x="0px" y="0px"
	 width="207.676px" height="263.86px" viewBox="0 0 207.676 263.86" enable-background="new 0 0 207.676 263.86"
	 xml:space="preserve">
<g>
	<g>
		<path fill="#1B1C1C" d="M56.927,223.696c-5.541-15.846-4.103-11.175-9.644-27.021c-14.817,9.634-24.637,20.64-27.335,34.815
			c-4.81,25.282,19.634-8.123,29.497,4.237c0,0,1.487-1.961,3.724-5.29L56.927,223.696z"/>
		<path fill="#FFFFFF" d="M59.076,203.616c0,5.99-4.856,10.845-10.845,10.845c-5.99,0-10.846-4.855-10.846-10.845
			c0-5.991,4.856-10.846,10.846-10.846C54.22,192.77,59.076,197.625,59.076,203.616"/>
		<path fill="#FFFFFF" d="M63.522,218.623c0,4.163-3.375,7.539-7.54,7.539c-4.163,0-7.538-3.376-7.538-7.539
			c0-4.164,3.375-7.539,7.538-7.539C60.147,211.084,63.522,214.459,63.522,218.623"/>
		<path fill="#FFFFFF" d="M60.295,231.474c0,4.643-3.764,8.408-8.407,8.408c-4.644,0-8.408-3.765-8.408-8.408
			s3.764-8.407,8.408-8.407C56.531,223.067,60.295,226.831,60.295,231.474"/>
	</g>
</g>
</svg>
