<?xml version="1.0" encoding="utf-8"?>
<!-- Generator: Adobe Illustrator 16.0.0, SVG Export Plug-In . SVG Version: 6.00 Build 0)  -->
<!DOCTYPE svg PUBLIC "-//W3C//DTD SVG 1.1//EN" "http://www.w3.org/Graphics/SVG/1.1/DTD/svg11.dtd">
<svg version="1.1" xmlns="http://www.w3.org/2000/svg" xmlns:xlink="http://www.w3.org/1999/xlink" x="0px" y="0px"
	 width="182.225px" height="212.064px" viewBox="0 0 182.225 212.064" enable-background="new 0 0 182.225 212.064"
	 xml:space="preserve">
<g id="Layer_2">
</g>
<g id="Layer_1">
	<ellipse opacity="0.4" fill="#232323" cx="76.933" cy="205.921" rx="28.933" ry="5.856"/>
	<g>
		<path fill="#E6F5FC" d="M126.153,139.163c0.798,37.729-18.662,46.453-43.949,46.988c-25.287,0.534-45.001-8.563-45.799-46.29
			c-0.799-37.729,18.521-73.468,43.806-74.006C105.499,65.322,125.354,101.437,126.153,139.163z"/>
		<path fill="#F7961D" d="M64.902,105.758c0,0,4.852,2.421,8.373,3.563c4.116,1.341,7.456,1.878,7.456,1.878
			s6.394-0.812,9.378-1.993c2.98-1.185,5.115-1.899,5.115-1.899L64.902,105.758z"/>
		<path fill="#8DBBC8" d="M82.52,128.873c0,1.046-0.851,1.896-1.898,1.896s-1.898-0.85-1.898-1.896c0-1.051,0.851-1.899,1.898-1.899
			S82.52,127.822,82.52,128.873z"/>
		<path fill="#8DBBC8" d="M76.667,125.665c0,0-2,3.077-2.837,5.194c-1.471,3.715-1.867,4.646-1.867,4.646s-5.627-4.129-8.241-6.426
			c-2.613-2.296-8.521-6.964-8.521-6.964s5.814,5.792,9.014,9.104c3.2,3.314,8.763,7.627,8.763,7.627s1.282-5.018,2.08-7.706
			C75.582,129.375,76.667,125.665,76.667,125.665z"/>
		<path fill="#8DBBC8" d="M84.528,125.909c0,0,2.059,3.037,2.934,5.14c1.541,3.687,2.292,4.654,2.292,4.654s5.213-4.283,7.782-6.63
			s8.385-7.129,8.385-7.129s-5.702,5.908-8.838,9.278c-3.135,3.373-8.609,7.795-8.609,7.795s-1.38-4.993-2.232-7.663
			C85.684,129.595,84.528,125.909,84.528,125.909z"/>
		<path fill="#9B6F3C" d="M112.994,173.772c-0.088,1.036-1.797,7.667,3.745,12.143c6.195,4.999,12.985-0.231,12.985-0.231
			s-9.17,11.602-19.328,5.469c-6.207-3.747-10.095-15.29-10.095-15.29L112.994,173.772z"/>
		<circle fill="#8DBBC8" cx="80.397" cy="141.367" r="1.897"/>
		<g>
			<path fill="#C54327" d="M76.709,133.86c-0.243-2.447-8.658-4.657-13.555-4.657c-4.897,0-13.807,0.739-13.62,4.657
				c0.048,0.97,0.128,2.387,0.228,4.046c-0.871-0.896-2.083-1.796-3.354-1.682c-2.457,0.226-4.663,2.906-4.567,10.943
				c0.103,8.038,2.456,10.047,4.628,10.047c1.445,0,3.333-1.085,4.442-1.811c0.058,0.853,0.091,1.35,0.091,1.35
				c0,0.692-0.763,5.828,11.236,5.828c11.878,0,11.289-4.834,11.289-4.834S76.953,136.31,76.709,133.86z M45.515,146.714
				c1.04-6.937,3.091-5.823,4.562-3.835c0.18,2.804,0.375,5.732,0.538,8.172C48.349,152.284,44.501,153.491,45.515,146.714z"/>
			<path fill="#47240D" d="M52.539,134.172c-1.053,1.725,4.688,2.381,9.822,2.306c5.138-0.075,11.612-0.744,11.166-2.306
				C73.078,132.609,55.663,129.037,52.539,134.172z"/>
		</g>
		<path fill="#8DBBC8" d="M82.204,154.43c0,1.047-0.851,1.896-1.897,1.896c-1.049,0-1.897-0.85-1.897-1.896
			c0-1.051,0.849-1.9,1.897-1.9C81.354,152.529,82.204,153.379,82.204,154.43z"/>
		<path d="M38.385,159.676c0,0,21.215,8.821,43.668,8.821c22.451,0,42.158-8.129,42.158-8.129s-2.794,15.225-11.58,27.945
			c-4.952,7.169-16.963,21.646-21.559,17.976c-4.594-3.668-0.188-8.437-2.921-14.309c-2.732-5.871-17.156-6.237-20.194-0.366
			c-3.088,5.971,4.556,14.576-4.451,15.043c-7.066,0.366-18.729-19.29-21.251-27.152C38.908,169.062,38.165,164.098,38.385,159.676z
			"/>
		<path fill="#9B6F3C" d="M50.731,109.063c0,0-34.232,14.214-33.395,25.179c0.837,10.965,9.923,15.271,17.82,17.297
			c7.899,2.024,12.936-4.92,10.188-9.855c-2.361-4.252-8.615-7.733-12.272-9.555c-1.659-0.827,4.479-5.506,6.916-6.617
			C42.429,124.399,50.731,109.063,50.731,109.063z"/>
		<path fill="#E6F5FC" d="M51.508,103.905c0,0-34.502,18.02-34.949,30.075c-0.448,12.057,7.99,17.639,10.246,20.205
			c2.259,2.569,4.067,2.872,4.067,2.872l11.673-20.676c0,0-6.896-3.741-5.556-5.08c1.339-1.342,5.694-4.02,5.694-4.02
			L51.508,103.905z"/>
		<path fill="#8DBBC8" d="M23.655,130.506c0,0,0.046-0.034,0.138-0.089c0.092-0.048,0.225-0.141,0.406-0.218
			c0.178-0.084,0.394-0.199,0.654-0.29c0.256-0.098,0.546-0.212,0.872-0.303c0.326-0.094,0.682-0.193,1.063-0.264
			c0.381-0.078,0.782-0.158,1.204-0.195c0.419-0.047,0.854-0.104,1.299-0.103c0.221-0.005,0.446-0.017,0.668-0.014l0.339-0.003
			l0.084-0.001l0.117,0.011l0.164,0.01c0.438,0.04,0.875,0.072,1.306,0.128c0.455,0.086,0.898,0.185,1.325,0.285
			c0.415,0.118,0.803,0.266,1.17,0.395c0.365,0.145,0.695,0.316,1.003,0.462c0.304,0.155,0.567,0.334,0.8,0.478
			c0.234,0.148,0.421,0.307,0.58,0.423c0.31,0.252,0.461,0.424,0.461,0.424s-0.215-0.062-0.594-0.167
			c-0.187-0.048-0.412-0.105-0.673-0.173c-0.256-0.059-0.546-0.123-0.864-0.195c-0.32-0.057-0.658-0.14-1.017-0.202
			c-0.361-0.059-0.739-0.118-1.13-0.184c-0.386-0.038-0.778-0.084-1.178-0.144c-0.428-0.021-0.869-0.054-1.306-0.085l-0.163-0.016
			l-0.04-0.004h-0.021h-0.005c0.064,0.001,0.015,0,0.03,0h-0.012h-0.081l-0.319-0.006c-0.212-0.001-0.424-0.012-0.633-0.019
			c-0.424-0.024-0.836-0.011-1.236-0.022c-0.404-0.012-0.792-0.005-1.162-0.003c-0.371-0.008-0.722,0.003-1.044,0.011
			c-0.655,0.004-1.204,0.03-1.589,0.04C23.877,130.494,23.655,130.506,23.655,130.506z"/>
		<g>
			<path fill="#301D13" d="M117.362,65.194c2.075-5.172,46.446,8.746,26.434,29.249C125.417,113.277,111.156,80.665,117.362,65.194z
				"/>
			<path fill="#301D13" d="M49.539,63.797c-1.981-5.384-48.039,7.601-28.07,29.291C39.809,113.01,55.459,79.896,49.539,63.797z"/>
			<path fill="#9B6F3C" d="M54.466,57.547c8.761-4.937,53.409-4.21,60.979,4.017c12.724,13.832,21.467,40.534,8.118,50.397
				c-18.494,13.673-55.137,13.901-76.184,2.875c-18.699-9.798-14.516-26.357-12.297-31.398C38.53,75.6,48.016,61.18,54.466,57.547z"
				/>
			<g>
				<defs>
					<path id="SVGID_13_" d="M54.473,57.547c8.763-4.937,53.411-4.21,60.98,4.017c12.723,13.832,21.465,40.534,8.12,50.397
						c-18.498,13.673-55.14,13.901-76.185,2.875c-18.702-9.798-14.516-26.357-12.301-31.398C38.538,75.6,48.023,61.18,54.473,57.547
						z"/>
				</defs>
				<clipPath id="SVGID_2_">
					<use xlink:href="#SVGID_13_"  overflow="visible"/>
				</clipPath>
				<path clip-path="url(#SVGID_2_)" fill="#FBE9D4" d="M98.101,65.768c6.322-1.03,18.285,2.637,22.508,14.251
					c2.831,7.779,2.235,18.394-7.668,22.105c-5.403,2.027-17.566,1.402-22.165-10.073C86.174,80.58,91.868,66.782,98.101,65.768z"/>
			</g>
			<path fill="#2F160C" d="M87.487,88.168c0,2.498-3.074,5.527-6.866,5.527c-3.791,0-6.868-3.029-6.868-5.527
				s3.077-3.517,6.868-3.517C84.413,84.651,87.487,85.67,87.487,88.168z"/>
			<path fill="#2F160C" d="M58.107,63.039c-4.667,0.267-8.97,2.077-7.505,4.923c1.464,2.849,4.886,2.257,8.013,0.685
				c3.124-1.573,5.503-2.929,4.392-4.535C61.893,62.509,58.107,63.039,58.107,63.039z"/>
			<path fill="#2F160C" d="M101.601,89.102c0,4.804-4.46,4.804-4.46,0C97.141,84.301,101.601,84.301,101.601,89.102z"/>
			<path fill="#2F160C" d="M104.949,64.14c4.436,0.386,8.411,2.28,6.805,5.054c-1.607,2.772-4.83,2.098-7.698,0.467
				c-2.867-1.636-5.042-3.032-3.862-4.592C101.375,63.514,104.949,64.14,104.949,64.14z"/>
			<path fill="#2F160C" d="M65.516,87.809c0,4.799-4.457,4.799-4.457,0C61.059,83.005,65.516,83.005,65.516,87.809z"/>
			<path fill="#4F1E0B" d="M73.426,97.533c0.375,0.117,0.744,0.23,1.106,0.33c0.181,0.052,0.367,0.091,0.543,0.139
				c0.184,0.037,0.36,0.08,0.54,0.107c0.358,0.069,0.713,0.103,1.06,0.115c0.173,0.003,0.347,0.006,0.513-0.015
				c0.172-0.005,0.336-0.035,0.504-0.052c0.085-0.008,0.162-0.035,0.246-0.049c0.076-0.018,0.18-0.027,0.237-0.05
				c0.184-0.062,0.38-0.111,0.524-0.179c0.162-0.053,0.322-0.145,0.482-0.23c0.152-0.101,0.308-0.198,0.44-0.326
				c0.14-0.123,0.262-0.262,0.371-0.411s0.201-0.313,0.28-0.479c0.086-0.165,0.143-0.343,0.194-0.519
				c0.05-0.175,0.079-0.37,0.089-0.53l0.101-1.611l0.392,1.632c0.04,0.17,0.109,0.368,0.186,0.541
				c0.082,0.177,0.175,0.35,0.282,0.503c0.106,0.161,0.22,0.31,0.341,0.448c0.063,0.067,0.121,0.14,0.188,0.203
				c0.07,0.061,0.137,0.124,0.201,0.188c0.148,0.109,0.285,0.228,0.451,0.31c0.15,0.101,0.321,0.17,0.487,0.247
				c0.168,0.073,0.351,0.121,0.528,0.184l0.273,0.064l0.137,0.037l0.032,0.009l0.019,0.005h0.002
				c0.007,0.003-0.054-0.01-0.029-0.005l0.009,0.002l0.009,0.002l0.078,0.011l0.311,0.052l0.157,0.029l0.13,0.01
				c0.174,0.02,0.353,0.038,0.54,0.032c0.19,0.014,0.374-0.012,0.563-0.026c0.185-0.033,0.377-0.045,0.558-0.103
				c0.185-0.041,0.367-0.108,0.552-0.169c0.18-0.073,0.36-0.153,0.536-0.244c0.354-0.188,0.697-0.42,1.018-0.696l0.09,0.061
				c-0.085,0.206-0.195,0.399-0.325,0.582c-0.129,0.18-0.276,0.353-0.438,0.512c-0.083,0.076-0.164,0.158-0.252,0.231l-0.274,0.206
				c-0.192,0.128-0.392,0.251-0.605,0.344c-0.104,0.053-0.214,0.1-0.322,0.137c-0.111,0.039-0.222,0.082-0.336,0.109
				c-0.228,0.051-0.459,0.111-0.694,0.131c-0.233,0.036-0.478,0.032-0.727,0.026l-0.185-0.007l-0.157-0.02l-0.313-0.043
				c-0.271-0.044-0.466-0.112-0.7-0.172c-0.222-0.085-0.442-0.171-0.655-0.28c-0.208-0.115-0.419-0.228-0.608-0.379
				c-0.199-0.135-0.369-0.307-0.542-0.473c-0.165-0.176-0.313-0.364-0.442-0.566c-0.125-0.2-0.233-0.413-0.315-0.635
				c-0.084-0.219-0.141-0.445-0.185-0.671c-0.039-0.232-0.064-0.448-0.064-0.699l0.492,0.021c-0.053,0.221-0.133,0.4-0.208,0.589
				c-0.079,0.188-0.169,0.369-0.264,0.546c-0.093,0.178-0.197,0.347-0.312,0.513c-0.053,0.085-0.11,0.169-0.171,0.249
				c-0.058,0.081-0.116,0.166-0.186,0.242c-0.121,0.161-0.262,0.311-0.402,0.463c-0.153,0.139-0.292,0.292-0.476,0.418
				c-0.182,0.144-0.344,0.243-0.508,0.341c-0.213,0.111-0.402,0.193-0.615,0.262c-0.21,0.051-0.428,0.106-0.645,0.112
				c-0.216,0.025-0.432,0.007-0.643-0.003c-0.213-0.021-0.424-0.052-0.626-0.101c-0.202-0.045-0.402-0.101-0.594-0.173
				c-0.196-0.062-0.379-0.156-0.566-0.24c-0.183-0.085-0.359-0.187-0.53-0.294c-0.171-0.103-0.332-0.227-0.493-0.345
				c-0.157-0.127-0.307-0.258-0.443-0.407L73.426,97.533z"/>
		</g>
		<path fill="#8DBBC8" d="M43.082,137.322c0,0-2.338,2.694-4.783,7.029c-2.451,4.336-8.094,13.51-8.094,13.51l-11.399-10.768
			c0,0,1.833-7.7,11.053-12.262c7.131-3.53,9.225-2.492,9.225-2.492L43.082,137.322z"/>
		<path fill="#8DBBC8" d="M99.867,139.468c0,0,0.06-0.031,0.173-0.089c0.115-0.053,0.278-0.14,0.491-0.229
			c0.426-0.19,1.037-0.438,1.779-0.687c0.741-0.248,1.609-0.501,2.549-0.723c0.469-0.114,0.957-0.219,1.453-0.313
			c0.494-0.099,1.002-0.18,1.507-0.263c0.513-0.071,1.019-0.147,1.52-0.199c0.505-0.059,1.001-0.099,1.484-0.129
			c0.962-0.069,1.869-0.085,2.649-0.065c0.78,0.019,1.437,0.075,1.9,0.132c0.231,0.022,0.414,0.059,0.54,0.074
			c0.125,0.022,0.191,0.033,0.191,0.033s-0.062,0.033-0.173,0.092c-0.115,0.05-0.281,0.139-0.493,0.229
			c-0.425,0.192-1.039,0.438-1.777,0.688c-0.741,0.248-1.61,0.5-2.552,0.724c-0.469,0.109-0.955,0.219-1.453,0.309
			c-0.495,0.103-1.002,0.179-1.509,0.264c-0.509,0.07-1.015,0.143-1.519,0.195c-0.504,0.057-1.001,0.101-1.481,0.131
			c-0.962,0.063-1.87,0.083-2.651,0.062c-0.779-0.018-1.438-0.071-1.9-0.127c-0.228-0.021-0.414-0.059-0.539-0.073
			C99.932,139.48,99.867,139.468,99.867,139.468z"/>
		<path fill="#BEBEBE" d="M71.627,170.478v7.807c0,0,6.476,0.506,8.419,0.506c1.947,0,7.276-0.506,7.276-0.506v-7.486
			c0,0-6.198,0.244-7.846,0.244C75.358,171.042,71.627,170.478,71.627,170.478z"/>
		<circle fill="#2F160C" cx="57.676" cy="97.124" r="0.878"/>
		<circle fill="#2F160C" cx="60.79" cy="97.124" r="0.879"/>
		<circle fill="#2F160C" cx="102.477" cy="98.003" r="0.876"/>
		<circle fill="#2F160C" cx="105.591" cy="98.003" r="0.878"/>
		<path fill="#9B6F3C" d="M78.319,56.052c0,0,12.396-14.293,17.199-8.01c4.803,6.286-12.704,8.067-12.704,8.067
			s13.641,5.471,9.289,10.786c-4.35,5.319-10.53-6.524-10.53-6.524"/>
		<path fill="#4F1E0B" d="M91.514,65.67c0,0-0.029,0.049-0.09,0.143c-0.059,0.09-0.141,0.229-0.26,0.394
			c-0.069,0.078-0.146,0.164-0.231,0.258c-0.081,0.102-0.183,0.196-0.304,0.284c-0.227,0.191-0.52,0.38-0.884,0.502
			c-0.091,0.028-0.185,0.061-0.281,0.091c-0.097,0.029-0.199,0.033-0.301,0.05c-0.211,0.045-0.424,0.027-0.646,0.018
			c-0.223-0.012-0.444-0.059-0.669-0.106c-0.217-0.064-0.448-0.127-0.656-0.23c-0.438-0.176-0.837-0.433-1.234-0.704
			c-0.379-0.283-0.748-0.59-1.088-0.925c-0.344-0.331-0.658-0.684-0.952-1.04c-0.299-0.354-0.566-0.719-0.819-1.077
			c-0.492-0.724-0.904-1.423-1.216-2.045c-0.318-0.617-0.542-1.155-0.687-1.533c-0.146-0.379-0.211-0.604-0.211-0.604
			s0.145,0.181,0.395,0.497c0.25,0.314,0.602,0.766,1.027,1.303c0.215,0.266,0.442,0.555,0.684,0.858
			c0.249,0.298,0.508,0.614,0.775,0.937c0.274,0.322,0.557,0.65,0.85,0.977c0.295,0.318,0.594,0.648,0.912,0.948
			c0.312,0.312,0.643,0.594,0.968,0.863c0.337,0.251,0.667,0.502,1.011,0.678c0.344,0.191,0.686,0.328,1.02,0.405
			c0.171,0.029,0.336,0.064,0.496,0.058c0.078,0.002,0.16,0.018,0.24,0.009c0.075-0.01,0.154-0.018,0.23-0.029
			c0.299-0.043,0.579-0.133,0.814-0.248c0.062-0.026,0.118-0.053,0.178-0.08c0.049-0.034,0.1-0.063,0.148-0.093
			c0.102-0.063,0.192-0.116,0.276-0.168C91.326,65.811,91.514,65.67,91.514,65.67z"/>
		<path fill="#4F1E0B" d="M92.584,64.044c-0.075-0.271-0.15-0.542-0.263-0.797c-0.045-0.134-0.108-0.257-0.173-0.381
			c-0.062-0.125-0.123-0.248-0.201-0.366c-0.138-0.239-0.309-0.457-0.475-0.679c-0.18-0.213-0.358-0.422-0.559-0.614
			c-0.194-0.195-0.401-0.381-0.616-0.555c-0.214-0.177-0.44-0.339-0.667-0.497c-0.46-0.306-0.937-0.594-1.425-0.854
			c-0.983-0.515-2.02-0.938-3.08-1.282c-1.05-0.357-2.134-0.656-3.222-0.866l-0.521-0.102l0.486-0.201
			c0.261-0.108,0.521-0.208,0.781-0.303c0.264-0.096,0.522-0.195,0.79-0.277l0.799-0.246c0.264-0.088,0.53-0.165,0.804-0.227
			l0.813-0.191c0.273-0.064,0.545-0.118,0.818-0.161c0.548-0.096,1.094-0.193,1.64-0.28c-0.536,0.141-1.074,0.269-1.615,0.401
			c-0.27,0.061-0.538,0.13-0.803,0.214l-0.795,0.222c-0.268,0.068-0.53,0.157-0.787,0.254l-0.781,0.275
			c-0.263,0.09-0.514,0.205-0.773,0.302c-0.256,0.098-0.513,0.201-0.765,0.309l-0.036-0.303c1.119,0.202,2.208,0.488,3.285,0.839
			c1.066,0.36,2.116,0.806,3.113,1.343c0.247,0.14,0.495,0.275,0.732,0.43c0.244,0.146,0.474,0.316,0.703,0.48
			c0.226,0.172,0.449,0.349,0.663,0.537c0.213,0.186,0.419,0.383,0.611,0.593c0.195,0.205,0.374,0.43,0.547,0.655
			c0.158,0.236,0.314,0.473,0.44,0.728c0.073,0.121,0.127,0.253,0.18,0.384c0.058,0.13,0.113,0.26,0.152,0.397
			C92.484,63.489,92.53,63.768,92.584,64.044z"/>
		
			<rect x="155.982" y="172.019" transform="matrix(0.2303 0.9731 -0.9731 0.2303 308.1393 -4.1728)" fill="#301D13" width="1.45" height="41.371"/>
		<path fill="#301D13" d="M134.683,206.524l-6.224-39.573l42.75-10.045l9.061,40.574L134.683,206.524z M132.153,169.437
			l5.225,33.225l38.979-7.73l-7.615-34.095L132.153,169.437z"/>
		<path fill="#C54327" d="M139.293,193.128c0,0,0.041,0.017,0.11,0.049c0.062,0.034,0.173,0.078,0.274,0.145
			c0.107,0.066,0.247,0.145,0.378,0.243c0.131,0.094,0.271,0.205,0.411,0.331c0.271,0.25,0.542,0.557,0.755,0.903
			c0.218,0.346,0.382,0.734,0.492,1.135c0.103,0.402,0.15,0.82,0.131,1.229c-0.019,0.406-0.101,0.805-0.218,1.157
			c-0.061,0.178-0.126,0.342-0.195,0.492c-0.069,0.149-0.153,0.283-0.216,0.393c-0.057,0.11-0.131,0.205-0.168,0.264
			c-0.045,0.063-0.073,0.098-0.073,0.098s-0.041-0.016-0.109-0.048c-0.063-0.036-0.173-0.081-0.278-0.148
			c-0.107-0.063-0.246-0.142-0.377-0.239c-0.136-0.094-0.272-0.205-0.414-0.333c-0.274-0.25-0.542-0.555-0.756-0.901
			c-0.218-0.348-0.379-0.735-0.485-1.139c-0.101-0.402-0.148-0.821-0.128-1.229c0.019-0.406,0.102-0.805,0.218-1.158
			c0.062-0.176,0.127-0.34,0.195-0.49c0.068-0.147,0.151-0.284,0.21-0.395c0.06-0.109,0.135-0.201,0.173-0.263
			C139.264,193.163,139.293,193.128,139.293,193.128z"/>
		<path fill="#C54327" d="M143.955,192.022c0,0,0.043,0.017,0.11,0.048c0.063,0.036,0.172,0.08,0.275,0.146
			c0.107,0.066,0.247,0.145,0.378,0.243c0.134,0.094,0.272,0.205,0.411,0.332c0.274,0.25,0.54,0.558,0.759,0.904
			c0.216,0.343,0.38,0.731,0.485,1.134c0.107,0.403,0.155,0.82,0.136,1.227c-0.018,0.407-0.102,0.807-0.219,1.16
			c-0.061,0.177-0.13,0.342-0.199,0.492c-0.065,0.147-0.148,0.283-0.211,0.396c-0.058,0.106-0.131,0.199-0.17,0.261
			c-0.043,0.061-0.071,0.096-0.071,0.096s-0.043-0.017-0.11-0.047c-0.063-0.035-0.172-0.079-0.277-0.147
			c-0.11-0.064-0.25-0.142-0.38-0.24c-0.133-0.095-0.274-0.207-0.411-0.331c-0.277-0.252-0.542-0.556-0.757-0.904
			c-0.216-0.346-0.38-0.734-0.484-1.134c-0.103-0.406-0.15-0.822-0.129-1.231c0.02-0.408,0.101-0.805,0.218-1.158
			c0.059-0.177,0.126-0.343,0.195-0.492c0.067-0.147,0.148-0.282,0.212-0.394c0.057-0.11,0.133-0.201,0.168-0.264
			C143.929,192.058,143.955,192.022,143.955,192.022z"/>
		<path fill="#C54327" d="M149.613,190.514c0,0,0.04,0.019,0.104,0.058c0.059,0.038,0.164,0.093,0.262,0.168
			c0.104,0.075,0.232,0.166,0.355,0.274c0.124,0.104,0.253,0.229,0.381,0.364c0.252,0.274,0.491,0.602,0.675,0.966
			c0.189,0.364,0.319,0.765,0.393,1.174c0.067,0.41,0.082,0.829,0.024,1.234c-0.051,0.403-0.17,0.794-0.318,1.134
			c-0.074,0.173-0.155,0.331-0.236,0.475c-0.082,0.141-0.175,0.271-0.247,0.376c-0.066,0.104-0.148,0.19-0.191,0.246
			c-0.05,0.057-0.08,0.09-0.08,0.09s-0.039-0.02-0.105-0.059c-0.06-0.039-0.166-0.093-0.262-0.168
			c-0.104-0.074-0.234-0.163-0.358-0.273c-0.125-0.108-0.255-0.229-0.382-0.364c-0.253-0.276-0.492-0.604-0.676-0.969
			c-0.188-0.362-0.314-0.762-0.385-1.171c-0.067-0.411-0.078-0.83-0.024-1.238c0.054-0.405,0.171-0.794,0.318-1.134
			c0.074-0.173,0.154-0.329,0.238-0.474c0.081-0.143,0.173-0.269,0.244-0.374c0.066-0.104,0.146-0.189,0.191-0.247
			C149.581,190.544,149.613,190.514,149.613,190.514z"/>
		
			<rect x="153.873" y="161.23" transform="matrix(0.1959 0.9806 -0.9806 0.1959 302.7122 -5.3171)" fill="#301D13" width="1.451" height="41.373"/>
		<path fill="#C54327" d="M170.967,186.507c0,0,0.041,0.02,0.106,0.058c0.059,0.042,0.164,0.096,0.261,0.17
			c0.102,0.075,0.232,0.165,0.355,0.271c0.125,0.108,0.255,0.233,0.38,0.369c0.253,0.271,0.491,0.602,0.679,0.965
			c0.186,0.362,0.315,0.762,0.389,1.172c0.069,0.411,0.079,0.831,0.026,1.235c-0.053,0.405-0.171,0.793-0.317,1.137
			c-0.076,0.171-0.157,0.33-0.238,0.472c-0.082,0.142-0.176,0.271-0.248,0.373c-0.066,0.105-0.149,0.191-0.191,0.247
			c-0.048,0.06-0.078,0.091-0.078,0.091s-0.041-0.02-0.108-0.056c-0.057-0.042-0.165-0.095-0.261-0.172
			c-0.104-0.075-0.234-0.164-0.358-0.272c-0.125-0.105-0.253-0.229-0.382-0.366c-0.253-0.272-0.492-0.601-0.677-0.964
			c-0.187-0.363-0.313-0.764-0.385-1.176c-0.065-0.409-0.08-0.831-0.022-1.233c0.053-0.404,0.17-0.795,0.317-1.138
			c0.076-0.169,0.155-0.328,0.239-0.471c0.078-0.144,0.173-0.271,0.242-0.375c0.067-0.105,0.149-0.189,0.191-0.247
			C170.936,186.54,170.967,186.507,170.967,186.507z"/>
		<path fill="#C54327" d="M137.149,182.642c0,0,0.043,0.017,0.109,0.049c0.062,0.033,0.17,0.079,0.272,0.146
			c0.11,0.066,0.25,0.146,0.38,0.241c0.134,0.097,0.272,0.209,0.411,0.331c0.275,0.251,0.543,0.559,0.758,0.905
			c0.218,0.347,0.382,0.734,0.487,1.136c0.104,0.402,0.155,0.819,0.136,1.228s-0.102,0.804-0.219,1.156
			c-0.062,0.179-0.13,0.345-0.199,0.493c-0.068,0.15-0.148,0.284-0.213,0.395c-0.057,0.109-0.133,0.203-0.169,0.263
			c-0.045,0.063-0.07,0.098-0.07,0.098s-0.044-0.018-0.113-0.05c-0.061-0.033-0.171-0.078-0.274-0.146
			c-0.11-0.066-0.249-0.144-0.38-0.239c-0.136-0.097-0.271-0.209-0.412-0.332c-0.275-0.253-0.543-0.559-0.757-0.904
			c-0.218-0.347-0.38-0.736-0.485-1.139c-0.103-0.402-0.149-0.817-0.128-1.227c0.018-0.408,0.099-0.806,0.217-1.161
			c0.062-0.175,0.127-0.342,0.198-0.49c0.066-0.147,0.149-0.284,0.211-0.394c0.056-0.108,0.129-0.202,0.169-0.262
			C137.122,182.678,137.149,182.642,137.149,182.642z"/>
		<path fill="#C54327" d="M141.813,181.539c0,0,0.042,0.015,0.107,0.047c0.063,0.033,0.174,0.081,0.279,0.146
			c0.108,0.064,0.246,0.143,0.375,0.241c0.135,0.095,0.274,0.208,0.412,0.332c0.276,0.25,0.541,0.558,0.756,0.905
			c0.219,0.347,0.383,0.731,0.491,1.133c0.103,0.404,0.15,0.819,0.133,1.229c-0.018,0.407-0.103,0.804-0.22,1.16
			c-0.059,0.176-0.127,0.34-0.196,0.49c-0.07,0.146-0.149,0.283-0.214,0.393c-0.057,0.109-0.13,0.205-0.17,0.264
			c-0.042,0.063-0.073,0.097-0.073,0.097s-0.041-0.017-0.108-0.048c-0.063-0.035-0.173-0.08-0.274-0.147
			c-0.111-0.065-0.247-0.144-0.382-0.239c-0.133-0.098-0.272-0.209-0.411-0.333c-0.274-0.252-0.543-0.556-0.758-0.902
			c-0.215-0.349-0.378-0.735-0.482-1.137c-0.104-0.405-0.151-0.822-0.132-1.231c0.02-0.406,0.104-0.803,0.219-1.157
			c0.062-0.177,0.128-0.342,0.198-0.493c0.067-0.146,0.148-0.283,0.212-0.392c0.056-0.11,0.13-0.203,0.169-0.264
			C141.786,181.572,141.813,181.539,141.813,181.539z"/>
		
			<rect x="150.973" y="151.119" transform="matrix(0.1681 0.9858 -0.9858 0.1681 295.5585 -6.6162)" fill="#301D13" width="1.452" height="41.372"/>
		<path fill="#C54327" d="M147.47,180.028c0,0,0.039,0.018,0.104,0.057c0.06,0.038,0.165,0.095,0.262,0.169
			c0.103,0.076,0.233,0.164,0.355,0.272c0.128,0.108,0.254,0.229,0.382,0.366c0.25,0.272,0.492,0.602,0.676,0.967
			c0.186,0.363,0.316,0.766,0.391,1.171c0.068,0.411,0.078,0.832,0.023,1.237c-0.051,0.404-0.166,0.793-0.315,1.135
			c-0.076,0.173-0.156,0.328-0.239,0.473c-0.08,0.142-0.175,0.271-0.248,0.376c-0.066,0.104-0.147,0.189-0.191,0.246
			c-0.047,0.057-0.079,0.089-0.079,0.089s-0.041-0.019-0.104-0.058c-0.059-0.039-0.164-0.094-0.264-0.169
			c-0.104-0.074-0.234-0.164-0.357-0.271c-0.125-0.107-0.254-0.23-0.38-0.367c-0.255-0.274-0.494-0.602-0.675-0.967
			c-0.188-0.363-0.316-0.763-0.388-1.173c-0.067-0.41-0.078-0.829-0.021-1.236c0.055-0.403,0.17-0.793,0.317-1.134
			c0.072-0.172,0.154-0.331,0.236-0.473c0.079-0.143,0.173-0.271,0.244-0.377c0.067-0.102,0.149-0.189,0.19-0.245
			C147.438,180.059,147.47,180.028,147.47,180.028z"/>
		<path fill="#C54327" d="M152.937,179.05c0,0,0.041,0.013,0.112,0.041c0.063,0.034,0.177,0.07,0.281,0.134
			c0.112,0.059,0.256,0.129,0.388,0.219c0.142,0.088,0.286,0.192,0.431,0.311c0.288,0.234,0.572,0.526,0.803,0.86
			c0.238,0.337,0.422,0.715,0.551,1.106c0.126,0.398,0.197,0.813,0.197,1.222c0.006,0.407-0.056,0.81-0.152,1.168
			c-0.053,0.179-0.108,0.35-0.172,0.5c-0.06,0.153-0.135,0.294-0.191,0.408c-0.051,0.11-0.122,0.207-0.156,0.271
			c-0.04,0.063-0.066,0.099-0.066,0.099s-0.042-0.013-0.111-0.042c-0.065-0.03-0.177-0.07-0.285-0.131
			c-0.113-0.061-0.255-0.131-0.391-0.22c-0.14-0.088-0.283-0.192-0.43-0.31c-0.289-0.234-0.57-0.527-0.805-0.861
			c-0.236-0.334-0.417-0.713-0.545-1.11c-0.122-0.396-0.195-0.811-0.195-1.22c-0.003-0.408,0.06-0.809,0.157-1.17
			c0.051-0.177,0.104-0.346,0.168-0.501c0.062-0.149,0.136-0.291,0.19-0.403c0.051-0.111,0.12-0.209,0.154-0.271
			C152.909,179.086,152.937,179.05,152.937,179.05z"/>
		<path fill="#C54327" d="M135.581,171.673c0,0,0.041,0.019,0.108,0.055c0.061,0.035,0.168,0.083,0.271,0.152
			c0.105,0.07,0.241,0.152,0.367,0.257c0.133,0.098,0.267,0.215,0.403,0.343c0.264,0.261,0.521,0.577,0.725,0.93
			c0.209,0.354,0.355,0.746,0.451,1.151c0.09,0.405,0.125,0.823,0.09,1.232c-0.028,0.404-0.13,0.802-0.256,1.15
			c-0.066,0.173-0.138,0.337-0.214,0.484c-0.073,0.145-0.159,0.278-0.227,0.387c-0.061,0.107-0.14,0.198-0.178,0.256
			c-0.047,0.062-0.074,0.094-0.074,0.094s-0.043-0.016-0.109-0.052c-0.062-0.034-0.17-0.083-0.271-0.154
			c-0.107-0.069-0.243-0.152-0.371-0.252c-0.132-0.102-0.267-0.219-0.401-0.349c-0.265-0.258-0.522-0.572-0.725-0.927
			c-0.206-0.354-0.354-0.747-0.446-1.151c-0.091-0.407-0.125-0.826-0.088-1.233c0.03-0.407,0.128-0.802,0.257-1.149
			c0.064-0.176,0.137-0.338,0.214-0.486c0.07-0.146,0.157-0.277,0.225-0.388c0.06-0.104,0.137-0.196,0.176-0.256
			C135.552,171.707,135.581,171.673,135.581,171.673z"/>
		<path fill="#C54327" d="M140.643,170.726c0,0,0.04,0.019,0.106,0.054c0.063,0.036,0.171,0.084,0.272,0.155
			c0.105,0.068,0.243,0.153,0.367,0.254c0.131,0.1,0.264,0.215,0.401,0.345c0.266,0.26,0.521,0.574,0.726,0.929
			c0.207,0.353,0.356,0.745,0.452,1.149c0.091,0.407,0.125,0.825,0.091,1.233c-0.031,0.406-0.13,0.801-0.258,1.15
			c-0.065,0.175-0.139,0.338-0.215,0.486c-0.07,0.145-0.158,0.278-0.225,0.386c-0.061,0.107-0.139,0.197-0.178,0.257
			c-0.045,0.062-0.077,0.093-0.077,0.093s-0.042-0.017-0.105-0.052c-0.064-0.035-0.175-0.083-0.272-0.154
			c-0.107-0.069-0.242-0.15-0.37-0.253c-0.133-0.1-0.265-0.217-0.401-0.346c-0.27-0.261-0.523-0.576-0.727-0.928
			c-0.205-0.354-0.354-0.748-0.447-1.151c-0.088-0.409-0.12-0.826-0.086-1.233c0.031-0.408,0.126-0.802,0.256-1.151
			c0.064-0.175,0.136-0.336,0.212-0.483c0.073-0.146,0.158-0.28,0.226-0.388c0.06-0.108,0.138-0.197,0.179-0.257
			C140.612,170.76,140.643,170.726,140.643,170.726z"/>
		<path fill="#C54327" d="M146.346,169.405c0,0,0.039,0.022,0.102,0.063c0.061,0.04,0.16,0.098,0.258,0.178
			c0.096,0.078,0.228,0.174,0.344,0.284c0.121,0.11,0.246,0.239,0.368,0.379c0.246,0.281,0.473,0.619,0.644,0.987
			c0.177,0.371,0.293,0.772,0.35,1.185c0.058,0.414,0.058,0.835-0.012,1.237c-0.067,0.403-0.197,0.788-0.355,1.125
			c-0.082,0.166-0.168,0.322-0.255,0.463c-0.087,0.14-0.184,0.265-0.26,0.365c-0.069,0.102-0.153,0.187-0.2,0.241
			c-0.049,0.056-0.082,0.088-0.082,0.088s-0.039-0.021-0.102-0.062c-0.06-0.041-0.166-0.099-0.26-0.179
			c-0.1-0.078-0.228-0.171-0.347-0.283c-0.122-0.111-0.245-0.237-0.369-0.379c-0.241-0.283-0.473-0.617-0.643-0.987
			c-0.176-0.369-0.292-0.774-0.347-1.187c-0.053-0.412-0.051-0.833,0.02-1.234c0.066-0.403,0.197-0.789,0.354-1.127
			c0.08-0.169,0.166-0.321,0.252-0.462c0.086-0.14,0.184-0.265,0.259-0.367c0.069-0.102,0.154-0.185,0.198-0.241
			C146.313,169.438,146.346,169.405,146.346,169.405z"/>
		<path fill="#C54327" d="M152.131,168.134c0,0,0.038,0.024,0.1,0.066c0.054,0.047,0.153,0.109,0.244,0.195
			c0.094,0.082,0.217,0.184,0.329,0.304c0.115,0.117,0.231,0.252,0.346,0.4c0.226,0.294,0.433,0.646,0.585,1.023
			c0.152,0.379,0.242,0.79,0.278,1.204c0.031,0.414,0.004,0.834-0.087,1.232c-0.091,0.4-0.244,0.773-0.425,1.101
			c-0.087,0.162-0.183,0.313-0.28,0.449c-0.092,0.134-0.196,0.253-0.278,0.351c-0.077,0.098-0.165,0.176-0.216,0.229
			c-0.053,0.054-0.084,0.081-0.084,0.081s-0.042-0.022-0.101-0.067c-0.057-0.045-0.158-0.107-0.248-0.193
			c-0.095-0.085-0.216-0.185-0.331-0.303c-0.113-0.12-0.23-0.252-0.345-0.402c-0.229-0.294-0.435-0.643-0.585-1.024
			c-0.151-0.378-0.24-0.786-0.273-1.204c-0.029-0.413,0-0.834,0.089-1.231c0.092-0.397,0.246-0.772,0.424-1.101
			c0.09-0.163,0.185-0.315,0.279-0.446c0.092-0.136,0.199-0.255,0.28-0.353c0.074-0.096,0.165-0.176,0.212-0.229
			C152.096,168.163,152.131,168.134,152.131,168.134z"/>
		<path fill="#9B6F3C" d="M135.235,142.196l14.68,2.249c0,0,6.727,10.997,0.881,20.297
			C144.948,174.041,127.463,163.256,135.235,142.196z"/>
		<path fill="#E6F5FC" d="M117.368,122.116c0,0,12.612,21.149,14.399,27.063c1.34,4.43,2.272,11.974,2.272,11.974l20.271-7.666
			c0,0-3.887-15.761-17.902-29.579c-7.738-7.627-14.134-11.038-14.134-11.038L117.368,122.116z"/>
		<path fill="#8DBBC8" d="M127.555,149.489l6.848,12.392c0,0,4.776-1.807,10.078-3.813c5.3-2.004,10.192-3.856,10.192-3.856
			l-2.449-11.646C152.224,142.565,133.074,145.894,127.555,149.489z"/>
	</g>
</g>
</svg>
