<?xml version="1.0" encoding="utf-8"?>
<!-- Generator: Adobe Illustrator 16.0.0, SVG Export Plug-In . SVG Version: 6.00 Build 0)  -->
<!DOCTYPE svg PUBLIC "-//W3C//DTD SVG 1.1//EN" "http://www.w3.org/Graphics/SVG/1.1/DTD/svg11.dtd">
<svg version="1.1" id="Layer_1" xmlns="http://www.w3.org/2000/svg" xmlns:xlink="http://www.w3.org/1999/xlink" x="0px" y="0px"
	 width="1417.32px" height="884.41px" viewBox="0 0 1417.32 884.41" enable-background="new 0 0 1417.32 884.41"
	 xml:space="preserve">
<g>
	<g>
		<g>
			<g>
				<defs>
					<rect id="SVGID_1_" x="0" width="1417.32" height="884.41"/>
				</defs>
				<clipPath id="SVGID_2_">
					<use xlink:href="#SVGID_1_"  overflow="visible"/>
				</clipPath>
				<rect x="0" clip-path="url(#SVGID_2_)" fill="#91E5F2" width="1417.32" height="884.41"/>
			</g>
		</g>
	</g>
	<g>
		<g>
			<g>
				<defs>
					<rect id="SVGID_3_" x="0" width="1417.32" height="884.41"/>
				</defs>
				<clipPath id="SVGID_4_">
					<use xlink:href="#SVGID_3_"  overflow="visible"/>
				</clipPath>
				<g clip-path="url(#SVGID_4_)">
					<g>
						<g>
							<g>
								<defs>
									<rect id="SVGID_5_" x="0" width="1417.32" height="884.41"/>
								</defs>
								<clipPath id="SVGID_6_">
									<use xlink:href="#SVGID_5_"  overflow="visible"/>
								</clipPath>
								<g clip-path="url(#SVGID_6_)">
									<g>
										<g>
											<g opacity="0.05">
												<g>
													<defs>
														<rect id="SVGID_7_" x="-103.87" y="-0.5" width="796.812" height="886.826"/>
													</defs>
													<clipPath id="SVGID_8_">
														<use xlink:href="#SVGID_7_"  overflow="visible"/>
													</clipPath>
													<polygon clip-path="url(#SVGID_8_)" points="160.939,886.326 -103.871,886.326 -103.871,-0.5 692.939,-0.5 
																											"/>
												</g>
											</g>
										</g>
									</g>
								</g>
							</g>
						</g>
					</g>
				</g>
			</g>
			<g>
				<g>
					<g>
						<rect x="58.381" y="197.511" fill="#66D2DD" width="591.762" height="116.846"/>
						<rect x="58.381" y="198.422" fill="#52C1CC" width="591.762" height="7.516"/>
						<rect x="48.795" y="180.542" fill="#66D2DD" width="613.843" height="17.8"/>
						<rect x="49.156" y="59.854" fill="#52C1CC" width="613.841" height="120.688"/>
					</g>
					<g>
						<polygon fill="#D1D3D4" points="383.398,82.565 367.927,137.156 412.265,137.156 						"/>
						<polygon fill="#F1F2F2" points="592.23,144.888 393.374,144.888 384.244,82.565 583.099,82.565 						"/>
						<g enable-background="new    ">
							<path fill="#414042" d="M425.609,102.76c1.863,0,3.355,0.28,4.478,0.841c1.122,0.561,1.981,1.303,2.578,2.226
								c0.597,0.922,0.991,1.972,1.181,3.147s0.285,2.37,0.285,3.582c0,1.32-0.167,2.568-0.502,3.744
								c-0.335,1.177-0.851,2.203-1.547,3.08c-0.696,0.878-1.587,1.574-2.673,2.09s-2.379,0.773-3.88,0.773
								c-1.194,0-2.148-0.086-2.863-0.258c-0.715-0.172-1.266-0.43-1.655-0.773s-0.647-0.778-0.773-1.303s-0.19-1.14-0.19-1.846
								v-10.202c0-0.778,0.068-1.483,0.204-2.117c0.136-0.633,0.402-1.171,0.801-1.614c0.397-0.443,0.963-0.782,1.696-1.018
								C423.479,102.877,424.432,102.76,425.609,102.76z M425.717,119.529c1.122,0,2.049-0.203,2.782-0.61
								c0.732-0.407,1.316-0.945,1.75-1.615c0.434-0.669,0.737-1.429,0.909-2.279c0.172-0.85,0.258-1.718,0.258-2.604
								c0-0.814-0.063-1.633-0.19-2.456c-0.127-0.823-0.389-1.569-0.787-2.238s-0.968-1.212-1.709-1.629
								c-0.742-0.416-1.728-0.624-2.958-0.624c-1.122,0-1.9,0.163-2.334,0.488c-0.434,0.326-0.651,0.824-0.651,1.493v10.393
								c0,0.562,0.204,0.981,0.611,1.262C423.804,119.39,424.577,119.529,425.717,119.529z"/>
							<path fill="#414042" d="M437.006,117.819c-0.037-0.578-0.073-1.365-0.108-2.36c-0.037-0.995-0.055-2.017-0.055-3.066
								c0-0.597,0.004-1.217,0.014-1.858c0.009-0.643,0.022-1.298,0.041-1.968c0.036-1.339,0.122-2.388,0.258-3.147
								c0.135-0.76,0.407-1.33,0.814-1.71c0.407-0.38,0.981-0.614,1.723-0.705c0.741-0.091,1.727-0.136,2.958-0.136
								c0.018,0,0.212,0,0.583,0c0.371,0,0.818,0.005,1.343,0.014c0.524,0.009,1.072,0.022,1.642,0.04
								c0.57,0.019,1.045,0.037,1.425,0.055c0.397,0.036,0.719,0.086,0.963,0.149s0.429,0.145,0.556,0.244
								c0.126,0.1,0.208,0.217,0.244,0.353c0.036,0.136,0.054,0.285,0.054,0.448c0,0.416-0.118,0.719-0.353,0.908
								c-0.235,0.19-0.715,0.313-1.438,0.367c-0.362,0.036-0.891,0.059-1.587,0.067c-0.696,0.01-1.407,0.014-2.13,0.014
								c-0.724,0-1.375,0.005-1.954,0.014s-0.94,0.014-1.085,0.014c-0.471,0.018-0.801,0.122-0.991,0.312
								c-0.19,0.19-0.285,0.638-0.285,1.344c0,0.162,0.013,0.556,0.041,1.18c0.027,0.625,0.041,1.497,0.041,2.619h2.252
								c0.958,0,1.741,0.014,2.347,0.041c0.606,0.026,1.076,0.086,1.411,0.176c0.334,0.091,0.565,0.235,0.692,0.435
								c0.126,0.199,0.19,0.461,0.19,0.787c0,0.162-0.014,0.312-0.041,0.447c-0.027,0.136-0.104,0.254-0.231,0.353
								c-0.126,0.1-0.308,0.182-0.542,0.244c-0.235,0.063-0.57,0.113-1.004,0.149c-0.525,0.037-1.018,0.06-1.479,0.068
								s-0.918,0.014-1.371,0.014h-2.279c0,0.271,0,0.597,0,0.977s0,0.769,0,1.167c0,0.397,0.004,0.787,0.014,1.167
								c0.009,0.38,0.022,0.688,0.041,0.922c0.018,0.29,0.059,0.534,0.122,0.733s0.181,0.361,0.353,0.488
								c0.171,0.127,0.425,0.217,0.76,0.271c0.334,0.054,0.782,0.081,1.343,0.081h5.834c0.633,0,1.031,0.118,1.194,0.353
								c0.163,0.235,0.245,0.552,0.245,0.95c0,0.325-0.073,0.574-0.217,0.746c-0.145,0.172-0.493,0.299-1.045,0.38
								s-1.375,0.131-2.469,0.149c-1.095,0.018-2.601,0.027-4.518,0.027c-0.814,0-1.483-0.073-2.008-0.218
								c-0.525-0.145-0.95-0.389-1.275-0.732s-0.566-0.791-0.719-1.343C437.164,119.29,437.06,118.616,437.006,117.819z"/>
							<path fill="#414042" d="M459.419,120.859c-0.235,0.434-0.448,0.75-0.638,0.949s-0.43,0.299-0.719,0.299
								s-0.542-0.1-0.76-0.299c-0.217-0.199-0.452-0.506-0.706-0.923c-0.325-0.542-0.692-1.293-1.099-2.252
								c-0.407-0.959-0.819-2.003-1.235-3.134c-0.417-1.131-0.823-2.303-1.221-3.515s-0.755-2.352-1.072-3.419
								c-0.317-1.067-0.57-2.003-0.76-2.809c-0.19-0.805-0.285-1.379-0.285-1.723c0-0.362,0.072-0.634,0.217-0.814
								c0.145-0.181,0.425-0.271,0.841-0.271c0.235,0,0.438,0.059,0.61,0.177c0.172,0.117,0.394,0.447,0.665,0.99
								c0.217,0.416,0.452,0.959,0.706,1.628c0.253,0.67,0.52,1.411,0.8,2.226c0.28,0.813,0.565,1.669,0.855,2.564
								c0.289,0.896,0.579,1.786,0.868,2.673c0.289,0.886,0.561,1.736,0.814,2.551c0.253,0.813,0.489,1.546,0.706,2.197
								c0.217-0.669,0.461-1.415,0.733-2.238s0.551-1.673,0.841-2.551c0.289-0.877,0.579-1.764,0.868-2.659
								c0.289-0.896,0.579-1.741,0.868-2.537c0.289-0.796,0.561-1.528,0.814-2.198c0.253-0.669,0.479-1.221,0.678-1.655
								c0.253-0.524,0.475-0.851,0.665-0.977c0.19-0.127,0.384-0.19,0.583-0.19c0.416,0,0.701,0.104,0.855,0.313
								c0.153,0.208,0.23,0.511,0.23,0.909c0,0.361-0.054,0.796-0.163,1.302c-0.109,0.507-0.294,1.181-0.556,2.021
								c-0.263,0.842-0.611,1.887-1.045,3.135s-0.968,2.777-1.601,4.586c-0.163,0.488-0.349,0.995-0.556,1.52
								c-0.208,0.524-0.417,1.036-0.624,1.533c-0.208,0.498-0.412,0.973-0.611,1.425C459.79,120.145,459.6,120.533,459.419,120.859z
								"/>
							<path fill="#414042" d="M467.478,117.819c-0.037-0.578-0.073-1.365-0.108-2.36c-0.037-0.995-0.055-2.017-0.055-3.066
								c0-0.597,0.004-1.217,0.014-1.858c0.009-0.643,0.022-1.298,0.041-1.968c0.036-1.339,0.122-2.388,0.258-3.147
								c0.135-0.76,0.407-1.33,0.814-1.71c0.407-0.38,0.981-0.614,1.723-0.705c0.741-0.091,1.727-0.136,2.958-0.136
								c0.018,0,0.212,0,0.583,0c0.371,0,0.818,0.005,1.343,0.014c0.524,0.009,1.072,0.022,1.642,0.04
								c0.57,0.019,1.045,0.037,1.425,0.055c0.397,0.036,0.719,0.086,0.963,0.149s0.429,0.145,0.556,0.244
								c0.126,0.1,0.208,0.217,0.244,0.353c0.036,0.136,0.054,0.285,0.054,0.448c0,0.416-0.118,0.719-0.353,0.908
								c-0.235,0.19-0.715,0.313-1.438,0.367c-0.362,0.036-0.891,0.059-1.587,0.067c-0.696,0.01-1.407,0.014-2.13,0.014
								c-0.724,0-1.375,0.005-1.954,0.014s-0.94,0.014-1.085,0.014c-0.471,0.018-0.801,0.122-0.991,0.312
								c-0.19,0.19-0.285,0.638-0.285,1.344c0,0.162,0.013,0.556,0.041,1.18c0.027,0.625,0.041,1.497,0.041,2.619h2.252
								c0.958,0,1.741,0.014,2.347,0.041c0.606,0.026,1.076,0.086,1.411,0.176c0.334,0.091,0.565,0.235,0.692,0.435
								c0.126,0.199,0.19,0.461,0.19,0.787c0,0.162-0.014,0.312-0.041,0.447c-0.027,0.136-0.104,0.254-0.231,0.353
								c-0.126,0.1-0.308,0.182-0.542,0.244c-0.235,0.063-0.57,0.113-1.004,0.149c-0.525,0.037-1.018,0.06-1.479,0.068
								s-0.918,0.014-1.371,0.014h-2.279c0,0.271,0,0.597,0,0.977s0,0.769,0,1.167c0,0.397,0.004,0.787,0.014,1.167
								c0.009,0.38,0.022,0.688,0.041,0.922c0.018,0.29,0.059,0.534,0.122,0.733s0.181,0.361,0.353,0.488
								c0.171,0.127,0.425,0.217,0.76,0.271c0.334,0.054,0.782,0.081,1.343,0.081h5.834c0.633,0,1.031,0.118,1.194,0.353
								c0.163,0.235,0.245,0.552,0.245,0.95c0,0.325-0.073,0.574-0.217,0.746c-0.145,0.172-0.493,0.299-1.045,0.38
								s-1.375,0.131-2.469,0.149c-1.095,0.018-2.601,0.027-4.518,0.027c-0.814,0-1.483-0.073-2.008-0.218
								c-0.525-0.145-0.95-0.389-1.275-0.732s-0.566-0.791-0.719-1.343C467.636,119.29,467.532,118.616,467.478,117.819z"/>
							<path fill="#414042" d="M485.198,114.373c0,0.58,0,1.091,0,1.533c0,0.444-0.005,0.864-0.014,1.262
								c-0.009,0.398-0.023,0.797-0.041,1.194c-0.019,0.398-0.037,0.842-0.054,1.33c1.248-0.145,2.225-0.263,2.931-0.354
								c0.705-0.09,1.262-0.162,1.668-0.217c0.407-0.054,0.724-0.09,0.95-0.108c0.226-0.018,0.493-0.027,0.801-0.027
								c0.796,0,1.194,0.39,1.194,1.167c0,0.308-0.159,0.57-0.475,0.787c-0.317,0.217-0.715,0.402-1.194,0.557
								c-0.479,0.153-1.013,0.28-1.601,0.38c-0.588,0.099-1.158,0.171-1.709,0.217c-0.552,0.045-1.049,0.076-1.492,0.095
								c-0.444,0.018-0.756,0.027-0.937,0.027c-0.651,0-1.158-0.041-1.52-0.122c-0.362-0.082-0.633-0.326-0.814-0.732
								c-0.181-0.407-0.294-1.027-0.339-1.859c-0.045-0.832-0.068-2.008-0.068-3.527c0-1.466,0-2.768,0-3.907
								c0-1.141,0.009-2.162,0.027-3.066c0.018-0.904,0.031-1.71,0.041-2.415c0.009-0.706,0.032-1.348,0.068-1.927
								c0.036-0.742,0.163-1.226,0.38-1.452c0.217-0.226,0.489-0.339,0.814-0.339c0.18,0,0.339,0.014,0.475,0.04
								c0.136,0.027,0.258,0.104,0.366,0.231c0.109,0.126,0.194,0.308,0.258,0.542c0.063,0.235,0.104,0.57,0.122,1.004
								c0.072,1.593,0.118,3.166,0.136,4.722C485.189,110.964,485.198,112.619,485.198,114.373z"/>
							<path fill="#414042" d="M500.719,122.216c-1.085,0-2.103-0.217-3.053-0.651s-1.777-1.063-2.483-1.886
								s-1.262-1.832-1.669-3.025c-0.407-1.194-0.61-2.551-0.61-4.07c0-1.43,0.176-2.741,0.529-3.936
								c0.353-1.193,0.877-2.225,1.574-3.093c0.696-0.869,1.56-1.542,2.591-2.021s2.225-0.72,3.582-0.72
								c1.103,0,2.153,0.199,3.148,0.598c0.995,0.397,1.868,0.995,2.618,1.79c0.75,0.797,1.343,1.791,1.778,2.985
								c0.434,1.194,0.651,2.587,0.651,4.179c0,1.321-0.176,2.578-0.529,3.772c-0.353,1.193-0.887,2.238-1.601,3.134
								c-0.715,0.896-1.615,1.61-2.7,2.144S502.185,122.216,500.719,122.216z M500.774,119.665c0.995,0,1.863-0.204,2.605-0.61
								c0.742-0.407,1.357-0.945,1.846-1.615c0.488-0.669,0.85-1.442,1.085-2.319c0.235-0.878,0.353-1.777,0.353-2.7
								c0-1.122-0.149-2.121-0.448-2.999c-0.298-0.877-0.701-1.614-1.208-2.211c-0.507-0.598-1.095-1.054-1.764-1.371
								c-0.669-0.315-1.384-0.475-2.144-0.475c-0.905,0-1.696,0.19-2.374,0.57c-0.679,0.38-1.249,0.896-1.71,1.547
								c-0.461,0.65-0.81,1.415-1.044,2.293c-0.235,0.877-0.353,1.813-0.353,2.809c0,1.067,0.136,2.039,0.407,2.917
								c0.271,0.877,0.638,1.623,1.099,2.238c0.461,0.615,1.008,1.09,1.642,1.425C499.399,119.498,500.068,119.665,500.774,119.665z
								"/>
							<path fill="#414042" d="M514.803,120.234c0,0.435-0.041,0.77-0.122,1.005c-0.082,0.235-0.181,0.416-0.299,0.542
								c-0.118,0.127-0.253,0.204-0.407,0.23c-0.154,0.027-0.303,0.041-0.448,0.041c-0.488,0-0.81-0.108-0.963-0.325
								c-0.154-0.218-0.258-0.706-0.312-1.466c-0.037-0.397-0.063-0.977-0.082-1.736s-0.032-1.664-0.041-2.714
								c-0.009-1.049-0.019-2.207-0.027-3.474c-0.009-1.266-0.014-2.604-0.014-4.016c0-0.669,0.082-1.348,0.245-2.035
								c0.163-0.688,0.475-1.312,0.936-1.872s1.103-1.014,1.927-1.357c0.823-0.343,1.895-0.516,3.215-0.516
								c0.923,0,1.8,0.1,2.632,0.299c0.832,0.199,1.564,0.543,2.198,1.031s1.14,1.14,1.52,1.954c0.38,0.813,0.57,1.827,0.57,3.039
								c0,1.267-0.208,2.315-0.625,3.147s-1.004,1.492-1.764,1.98c-0.76,0.489-1.665,0.833-2.713,1.031
								c-1.05,0.199-2.198,0.299-3.446,0.299c-0.308,0-0.615,0-0.923,0s-0.651-0.018-1.031-0.055L514.803,120.234z M522.618,108.811
								c0-1.212-0.339-2.125-1.018-2.74s-1.805-0.923-3.378-0.923c-0.597,0-1.108,0.05-1.533,0.149
								c-0.425,0.1-0.773,0.271-1.044,0.516c-0.271,0.244-0.475,0.574-0.611,0.99s-0.204,0.94-0.204,1.574c0,0.615,0,1.315,0,2.103
								s0.009,1.524,0.027,2.212c0.416,0.018,0.882,0.026,1.397,0.026s1,0,1.452,0c0.543,0,1.108-0.035,1.696-0.108
								c0.587-0.072,1.117-0.239,1.587-0.502c0.47-0.262,0.859-0.651,1.167-1.167S522.618,109.716,522.618,108.811z"/>
							<path fill="#414042" d="M527.665,117.819c-0.037-0.578-0.073-1.365-0.108-2.36c-0.037-0.995-0.055-2.017-0.055-3.066
								c0-0.597,0.004-1.217,0.014-1.858c0.009-0.643,0.022-1.298,0.041-1.968c0.036-1.339,0.122-2.388,0.258-3.147
								c0.135-0.76,0.407-1.33,0.814-1.71c0.407-0.38,0.981-0.614,1.723-0.705c0.741-0.091,1.727-0.136,2.958-0.136
								c0.018,0,0.212,0,0.583,0c0.371,0,0.818,0.005,1.343,0.014c0.524,0.009,1.072,0.022,1.642,0.04
								c0.57,0.019,1.045,0.037,1.425,0.055c0.397,0.036,0.719,0.086,0.963,0.149s0.429,0.145,0.556,0.244
								c0.126,0.1,0.208,0.217,0.244,0.353c0.036,0.136,0.054,0.285,0.054,0.448c0,0.416-0.118,0.719-0.353,0.908
								c-0.235,0.19-0.715,0.313-1.438,0.367c-0.362,0.036-0.891,0.059-1.587,0.067c-0.696,0.01-1.407,0.014-2.13,0.014
								c-0.724,0-1.375,0.005-1.954,0.014s-0.94,0.014-1.085,0.014c-0.471,0.018-0.801,0.122-0.991,0.312
								c-0.19,0.19-0.285,0.638-0.285,1.344c0,0.162,0.013,0.556,0.041,1.18c0.027,0.625,0.041,1.497,0.041,2.619h2.252
								c0.958,0,1.741,0.014,2.347,0.041c0.606,0.026,1.076,0.086,1.411,0.176c0.334,0.091,0.565,0.235,0.692,0.435
								c0.126,0.199,0.19,0.461,0.19,0.787c0,0.162-0.014,0.312-0.041,0.447c-0.027,0.136-0.104,0.254-0.231,0.353
								c-0.126,0.1-0.308,0.182-0.542,0.244c-0.235,0.063-0.57,0.113-1.004,0.149c-0.525,0.037-1.018,0.06-1.479,0.068
								s-0.918,0.014-1.371,0.014h-2.279c0,0.271,0,0.597,0,0.977s0,0.769,0,1.167c0,0.397,0.004,0.787,0.014,1.167
								c0.009,0.38,0.022,0.688,0.041,0.922c0.018,0.29,0.059,0.534,0.122,0.733s0.181,0.361,0.353,0.488
								c0.171,0.127,0.425,0.217,0.76,0.271c0.334,0.054,0.782,0.081,1.343,0.081h5.834c0.633,0,1.031,0.118,1.194,0.353
								c0.163,0.235,0.245,0.552,0.245,0.95c0,0.325-0.073,0.574-0.217,0.746c-0.145,0.172-0.493,0.299-1.045,0.38
								s-1.375,0.131-2.469,0.149c-1.095,0.018-2.601,0.027-4.518,0.027c-0.814,0-1.483-0.073-2.008-0.218
								c-0.525-0.145-0.95-0.389-1.275-0.732s-0.566-0.791-0.719-1.343C527.823,119.29,527.719,118.616,527.665,117.819z"/>
							<path fill="#414042" d="M548.939,115.269c-0.253,0.019-0.511,0.032-0.773,0.041c-0.262,0.01-0.529,0.014-0.8,0.014
								c-0.308,0-0.615,0-0.923,0s-0.651-0.018-1.031-0.055v5.509c0,0.579-0.14,0.937-0.42,1.072
								c-0.281,0.136-0.629,0.203-1.045,0.203c-0.217,0-0.389-0.014-0.515-0.041c-0.127-0.026-0.231-0.081-0.313-0.162
								c-0.081-0.082-0.145-0.204-0.19-0.366c-0.045-0.163-0.077-0.39-0.095-0.679c-0.037-0.325-0.063-0.801-0.082-1.425
								s-0.032-1.434-0.041-2.429c-0.009-0.994-0.019-2.202-0.027-3.622c-0.009-1.42-0.014-3.089-0.014-5.007
								c0-0.741,0.09-1.461,0.271-2.157c0.181-0.696,0.506-1.312,0.977-1.846c0.47-0.533,1.108-0.963,1.913-1.289
								c0.805-0.325,1.832-0.488,3.08-0.488c0.886,0,1.75,0.1,2.592,0.299s1.587,0.543,2.239,1.031
								c0.651,0.488,1.176,1.148,1.574,1.98c0.397,0.833,0.597,1.873,0.597,3.121c0,1.664-0.358,2.953-1.072,3.866
								c-0.715,0.914-1.696,1.561-2.944,1.94l3.636,4.993c0.326,0.435,0.489,0.878,0.489,1.33c0,0.361-0.122,0.646-0.366,0.854
								c-0.245,0.208-0.547,0.312-0.909,0.312c-0.398,0-0.742-0.112-1.031-0.339c-0.29-0.226-0.561-0.52-0.814-0.882
								L548.939,115.269z M553.199,108.946c0-1.248-0.375-2.175-1.126-2.781c-0.751-0.606-1.94-0.909-3.568-0.909
								c-0.597,0-1.095,0.05-1.493,0.149s-0.715,0.285-0.95,0.556c-0.235,0.271-0.403,0.647-0.502,1.127
								c-0.1,0.479-0.149,1.09-0.149,1.831c0,0.525,0,1.14,0,1.846c0,0.705,0.009,1.348,0.027,1.927
								c0.416,0.018,0.882,0.026,1.397,0.026s1,0,1.452,0c0.506,0,1.045-0.031,1.615-0.095s1.099-0.226,1.587-0.488
								c0.488-0.262,0.896-0.642,1.221-1.14C553.037,110.498,553.199,109.814,553.199,108.946z"/>
						</g>
					</g>
					<path opacity="0.5" fill="#231F20" enable-background="new    " d="M207.73,141.593c-0.053,9.546-15.157,17.205-33.739,17.11
						c-18.582-0.106-33.604-7.923-33.554-17.473c0.051-9.546,15.157-17.21,33.738-17.11
						C192.758,124.222,207.778,132.042,207.73,141.593z"/>
					<g>
						
							<ellipse transform="matrix(-0.027 0.9996 -0.9996 -0.027 314.0579 -32.3492)" fill="#BF3420" cx="172.773" cy="136.672" rx="17.675" ry="32.336"/>
						<g>
							
								<ellipse transform="matrix(-0.027 0.9996 -0.9996 -0.027 251.9377 -99.7168)" fill="#DBD0B2" cx="174.498" cy="72.753" rx="13.939" ry="25.499"/>
							
								<ellipse transform="matrix(-0.027 0.9996 -0.9996 -0.027 311.1499 -35.5074)" fill="#DBD0B2" cx="172.855" cy="133.673" rx="15.938" ry="29.158"/>
							<polygon fill="#DBD0B2" points="149,72.066 143.358,132.875 202.336,134.467 199.981,73.442 							"/>
						</g>
						
							<ellipse transform="matrix(-0.027 0.9996 -0.9996 -0.027 248.7078 -103.2195)" fill="#BF3420" cx="174.59" cy="69.433" rx="11.62" ry="21.26"/>
						<path opacity="0.1" fill="#231F20" enable-background="new    " d="M143.784,128.28L149,72.066
							c0.115-4.239,3.686-7.941,9.217-10.349c3.968-2.541,9.979-4.078,16.678-3.897l-2.605,96.52
							c-17.852-0.482-32.114-8.783-31.849-18.542C140.513,133.075,141.711,130.528,143.784,128.28z"/>
					</g>
					<path fill="none" stroke="#0F4955" stroke-width="3" stroke-linecap="round" stroke-miterlimit="10" d="M174.58,69.437
						c-13.243-23.013,59.896-39.542,71.417-14.895c7.521,16.094-4.178,31.474-8.461,46.688c-3.656,12.986-6.93,26.123-8.927,39.477
						c-2.983,19.943-8.768,64.346,22.809,64.37c23.811,0.018,26.905-27.534,0.735-24.908c-14.552,1.461-29.822,10.614-34.773,24.95
						c-11.77,34.082,55.392,42.934,74.509,50.037c21.901,8.138,21.802,13.444,22.27,36.029"/>
				</g>
				<g>
					<g>
						<rect x="767.201" y="197.511" fill="#66D2DD" width="591.763" height="116.846"/>
						<rect x="767.201" y="198.422" fill="#52C1CC" width="591.763" height="7.516"/>
						<rect x="757.615" y="180.542" fill="#66D2DD" width="613.843" height="17.8"/>
						<rect x="757.976" y="59.854" fill="#52C1CC" width="613.842" height="120.688"/>
					</g>
					<g>
						<polygon fill="#D1D3D4" points="858.619,74.911 843.146,129.502 887.486,129.502 						"/>
						<polygon fill="#F1F2F2" points="1047.281,137.233 867.318,137.233 859.054,74.911 1039.017,74.911 						"/>
						<g enable-background="new    ">
							<path fill="#414042" d="M923.747,112.906c-0.181-0.435-0.376-0.937-0.583-1.506c-0.209-0.57-0.43-1.171-0.665-1.805
								c-0.543,0.019-1.112,0.031-1.71,0.041c-0.597,0.009-1.203,0.013-1.818,0.013c-0.777,0-1.482,0-2.116,0
								s-1.212-0.009-1.737-0.026c-0.217,0.633-0.425,1.23-0.623,1.791c-0.199,0.561-0.39,1.058-0.57,1.492
								c-0.361,0.923-0.887,1.384-1.574,1.384c-0.253,0-0.492-0.081-0.719-0.244s-0.34-0.397-0.34-0.706
								c0-0.307,0.055-0.709,0.164-1.207c0.107-0.497,0.248-1.031,0.42-1.601c0.172-0.57,0.357-1.158,0.557-1.765
								c0.199-0.605,0.389-1.171,0.57-1.695c0.18-0.579,0.438-1.316,0.772-2.212s0.692-1.832,1.072-2.809s0.76-1.94,1.14-2.89
								c0.38-0.95,0.723-1.777,1.031-2.483c0.072-0.181,0.162-0.384,0.271-0.61c0.108-0.226,0.239-0.438,0.393-0.638
								c0.154-0.199,0.326-0.37,0.516-0.516c0.19-0.145,0.402-0.217,0.639-0.217c0.234,0,0.451,0.077,0.65,0.23
								c0.199,0.154,0.375,0.339,0.529,0.557c0.154,0.217,0.289,0.443,0.407,0.678c0.118,0.235,0.212,0.443,0.285,0.624
								c0.289,0.725,0.619,1.557,0.99,2.497c0.37,0.94,0.741,1.891,1.112,2.849c0.371,0.96,0.719,1.873,1.045,2.741
								s0.588,1.601,0.787,2.198c0.162,0.524,0.348,1.085,0.557,1.682c0.207,0.598,0.402,1.186,0.583,1.765s0.33,1.117,0.448,1.614
								c0.117,0.498,0.176,0.9,0.176,1.207c0,0.309-0.113,0.543-0.34,0.706c-0.226,0.163-0.465,0.244-0.719,0.244
								c-0.325,0-0.623-0.112-0.895-0.339S923.945,113.377,923.747,112.906z M918.943,106.937c0.436,0,0.869,0.005,1.303,0.014
								c0.435,0.009,0.869,0.022,1.303,0.04c-0.217-0.633-0.434-1.266-0.65-1.899c-0.218-0.633-0.422-1.238-0.611-1.818
								c-0.189-0.578-0.361-1.116-0.516-1.614c-0.154-0.497-0.285-0.936-0.393-1.315c-0.073-0.235-0.154-0.426-0.245-0.57
								s-0.208-0.217-0.353-0.217s-0.263,0.077-0.354,0.23c-0.09,0.153-0.172,0.349-0.244,0.583
								c-0.217,0.742-0.52,1.706-0.908,2.891c-0.39,1.185-0.801,2.429-1.234,3.73c0.488-0.018,0.977-0.031,1.465-0.04
								S918.472,106.937,918.943,106.937z"/>
							<path fill="#414042" d="M933.868,95.105c1.863,0,3.355,0.28,4.478,0.841c1.121,0.561,1.98,1.303,2.578,2.226
								c0.597,0.922,0.99,1.972,1.18,3.147c0.19,1.176,0.285,2.37,0.285,3.582c0,1.32-0.168,2.568-0.502,3.744
								c-0.335,1.177-0.851,2.203-1.547,3.08c-0.696,0.878-1.588,1.574-2.673,2.09s-2.379,0.773-3.88,0.773
								c-1.194,0-2.148-0.086-2.863-0.258s-1.266-0.43-1.655-0.773s-0.647-0.778-0.773-1.303s-0.19-1.14-0.19-1.846v-10.202
								c0-0.778,0.068-1.483,0.204-2.117c0.136-0.633,0.402-1.171,0.801-1.614c0.397-0.443,0.964-0.782,1.696-1.018
								S932.691,95.105,933.868,95.105z M933.976,111.875c1.121,0,2.049-0.203,2.781-0.61s1.316-0.945,1.75-1.615
								c0.435-0.669,0.737-1.429,0.91-2.279c0.172-0.85,0.258-1.718,0.258-2.604c0-0.814-0.064-1.633-0.19-2.456
								c-0.127-0.823-0.39-1.569-0.787-2.238s-0.968-1.212-1.71-1.629c-0.742-0.416-1.727-0.624-2.957-0.624
								c-1.122,0-1.9,0.163-2.334,0.488c-0.434,0.326-0.651,0.824-0.651,1.493v10.393c0,0.562,0.204,0.981,0.61,1.262
								C932.063,111.735,932.837,111.875,933.976,111.875z"/>
							<path fill="#414042" d="M951.832,109.677c-0.832-1.827-1.569-3.596-2.211-5.305c-0.643-1.71-1.19-3.233-1.643-4.572
								c-0.416,2.243-0.764,4.504-1.045,6.784c-0.28,2.279-0.637,4.459-1.071,6.539c-0.108,0.471-0.308,0.783-0.597,0.937
								c-0.29,0.153-0.534,0.23-0.732,0.23c-0.326,0-0.584-0.1-0.773-0.299c-0.19-0.198-0.285-0.451-0.285-0.76
								c0-0.416,0.049-1.054,0.148-1.913c0.1-0.858,0.227-1.831,0.381-2.917c0.153-1.085,0.33-2.225,0.529-3.419
								c0.198-1.194,0.402-2.347,0.609-3.46c0.209-1.112,0.408-2.12,0.598-3.025c0.189-0.904,0.357-1.601,0.502-2.09
								c0.234-0.831,0.715-1.248,1.438-1.248c0.436,0,0.806,0.213,1.113,0.638c0.308,0.426,0.638,1.077,0.99,1.954
								c0.354,0.878,0.777,1.985,1.275,3.324s1.145,2.913,1.94,4.722c0.777-1.809,1.406-3.379,1.886-4.708
								c0.479-1.33,0.887-2.434,1.221-3.311c0.335-0.878,0.656-1.529,0.964-1.954s0.688-0.638,1.14-0.638
								c0.416,0,0.732,0.104,0.949,0.313c0.218,0.208,0.381,0.52,0.489,0.936c0.126,0.507,0.28,1.208,0.461,2.104
								s0.376,1.891,0.583,2.984c0.209,1.095,0.412,2.239,0.611,3.433c0.199,1.194,0.38,2.334,0.543,3.419
								c0.162,1.086,0.293,2.067,0.393,2.944c0.1,0.878,0.149,1.552,0.149,2.021c0,0.29-0.1,0.521-0.298,0.692
								c-0.199,0.172-0.453,0.258-0.76,0.258c-0.199,0-0.443-0.077-0.732-0.23c-0.29-0.153-0.489-0.466-0.598-0.937
								c-0.217-1.031-0.412-2.099-0.584-3.202c-0.172-1.103-0.334-2.22-0.488-3.351c-0.153-1.131-0.303-2.262-0.447-3.393
								c-0.145-1.13-0.299-2.256-0.461-3.378c-0.236,0.724-0.508,1.52-0.814,2.388c-0.309,0.868-0.633,1.741-0.977,2.618
								c-0.344,0.878-0.697,1.742-1.059,2.592c-0.362,0.851-0.715,1.619-1.059,2.307c-0.127,0.235-0.294,0.412-0.502,0.529
								c-0.208,0.118-0.42,0.176-0.638,0.176c-0.235,0-0.457-0.058-0.665-0.176C952.098,110.116,951.941,109.931,951.832,109.677z"
								/>
							<path fill="#414042" d="M964.966,112.607c-0.036-0.651-0.06-1.329-0.067-2.035c-0.01-0.705-0.023-1.465-0.041-2.279
								c-0.019-0.814-0.027-1.696-0.027-2.646c0-0.95,0-2.013,0-3.188c0-1.284,0.009-2.384,0.027-3.297
								c0.018-0.913,0.072-1.66,0.162-2.239c0.091-0.578,0.231-1.004,0.422-1.275c0.189-0.271,0.447-0.406,0.772-0.406
								c0.163,0,0.316,0.018,0.462,0.054c0.145,0.036,0.271,0.113,0.379,0.23c0.109,0.118,0.204,0.29,0.285,0.516
								c0.082,0.227,0.131,0.521,0.149,0.882c0.036,0.651,0.063,1.23,0.081,1.737c0.019,0.507,0.037,1.009,0.055,1.506
								c0.018,0.498,0.027,1.014,0.027,1.547s0,1.135,0,1.805c0,0.813,0,1.592,0,2.333c0,0.742-0.01,1.475-0.027,2.198
								s-0.036,1.456-0.055,2.198c-0.018,0.742-0.045,1.52-0.081,2.333c-0.019,0.435-0.063,0.77-0.136,1.005
								s-0.162,0.416-0.271,0.542c-0.107,0.127-0.234,0.204-0.379,0.23c-0.146,0.027-0.309,0.041-0.489,0.041
								c-0.325,0-0.606-0.112-0.841-0.339C965.137,113.833,965.002,113.35,964.966,112.607z"/>
							<path fill="#414042" d="M981.926,113.015c-0.58-0.796-1.127-1.588-1.643-2.374c-0.516-0.787-1.067-1.651-1.655-2.592
								s-1.257-1.985-2.008-3.134c-0.751-1.149-1.651-2.492-2.7-4.03c0,1.357,0,2.574,0,3.65s-0.01,2.075-0.027,2.998
								s-0.036,1.791-0.054,2.605c-0.019,0.813-0.046,1.628-0.081,2.441c-0.019,0.435-0.06,0.77-0.123,1.005
								c-0.063,0.235-0.148,0.416-0.258,0.542c-0.107,0.127-0.23,0.204-0.365,0.23c-0.137,0.027-0.295,0.041-0.476,0.041
								c-0.325,0-0.597-0.112-0.813-0.339c-0.218-0.227-0.344-0.71-0.381-1.452c-0.09-1.989-0.141-3.984-0.148-5.983
								c-0.01-1.998-0.014-4.065-0.014-6.2c0-1.212,0.014-2.162,0.041-2.85c0.026-0.688,0.09-1.203,0.189-1.547
								c0.1-0.343,0.234-0.561,0.406-0.651c0.172-0.09,0.402-0.135,0.693-0.135c0.289,0,0.668,0.222,1.139,0.664
								c0.471,0.443,0.986,1.027,1.547,1.751s1.162,1.556,1.805,2.496s1.279,1.909,1.913,2.903c0.633,0.995,1.243,1.981,1.831,2.958
								s1.127,1.863,1.615,2.659c-0.018-0.85-0.027-1.786-0.027-2.809c0-1.021,0-2.157,0-3.405c0-1.429,0.01-2.609,0.027-3.541
								s0.068-1.669,0.149-2.212s0.212-0.923,0.394-1.14c0.18-0.217,0.434-0.325,0.76-0.325c0.307,0,0.578,0.1,0.814,0.298
								c0.234,0.199,0.37,0.661,0.406,1.384c0.036,0.651,0.063,1.23,0.082,1.737c0.018,0.507,0.035,1.009,0.054,1.506
								c0.019,0.498,0.027,1.014,0.027,1.547s0,1.135,0,1.805c0,0.813,0,1.592,0,2.333c0,0.742-0.009,1.475-0.027,2.198
								s-0.036,1.456-0.054,2.198c-0.019,0.742-0.046,1.52-0.082,2.333c-0.018,0.435-0.059,0.77-0.122,1.005
								s-0.149,0.416-0.258,0.542c-0.108,0.127-0.23,0.204-0.366,0.23c-0.136,0.027-0.295,0.041-0.475,0.041
								c-0.309,0-0.57-0.091-0.787-0.271S982.342,113.575,981.926,113.015z"/>
						</g>
					</g>
					
						<ellipse transform="matrix(0.1656 -0.9862 0.9862 0.1656 897.3075 1315.7368)" opacity="0.5" fill="#231F20" enable-background="new    " cx="1226.195" cy="127.6" rx="14.298" ry="34.336"/>
					<g>
						
							<ellipse transform="matrix(0.3171 -0.9484 0.9484 0.3171 723.6837 1248.5969)" fill="#622879" cx="1228.86" cy="121.777" rx="17.678" ry="32.337"/>
						<g>
							
								<ellipse transform="matrix(0.3171 -0.9484 0.9484 0.3171 795.0516 1226.4128)" fill="#DBD0B2" cx="1249.139" cy="61.127" rx="13.938" ry="25.501"/>
							
								<ellipse transform="matrix(0.3171 -0.9484 0.9484 0.3171 727.0624 1247.5605)" fill="#DBD0B2" cx="1229.816" cy="118.921" rx="15.939" ry="29.159"/>
							<polygon fill="#DBD0B2" points="1273.31,69.221 1257.777,128.283 1201.824,109.573 1224.941,53.048 							"/>
						</g>
						
							<ellipse transform="matrix(0.3171 -0.9484 0.9484 0.3171 798.7471 1225.2667)" fill="#622879" cx="1250.185" cy="57.992" rx="11.621" ry="21.26"/>
						<path opacity="0.1" fill="#231F20" enable-background="new    " d="M1258.953,123.82l14.357-54.599
							c1.344-4.022-0.742-8.723-5.115-12.881c-2.854-3.746-7.977-7.25-14.332-9.374l-30.619,91.571
							c16.938,5.662,33.181,2.749,36.275-6.511C1260.384,129.445,1260.13,126.642,1258.953,123.82z"/>
					</g>
					<path fill="none" stroke="#0F4955" stroke-width="3" stroke-linecap="round" stroke-miterlimit="10" d="M1250.177,58.803
						c9.559-24.078,31.326-25.2,44.778-3.129c27.615,45.301-9.696,67.973-35.616,99.457c-8.81,10.699-17.494,22.286-25.541,33.599
						c-5.252,7.382-18.324,17.856-17.424,27.963c1.85,20.772,54.256,4.965,27.836-18.043c-10.31-8.978-28.097-15.672-41.222-9.098
						c-13.428,6.725-14.416,24.902-16.321,38.021c-4.681,32.181-12.615,53.327-43.052,66.77"/>
				</g>
				<g>
					<g>
						<rect x="-207.706" y="427.214" fill="#66D2DD" width="612.827" height="116.846"/>
						<rect x="-207.706" y="428.125" fill="#52C1CC" width="612.827" height="7.515"/>
						<rect x="-217.633" y="410.245" fill="#66D2DD" width="635.694" height="17.8"/>
						<rect x="-217.259" y="289.557" fill="#52C1CC" width="635.694" height="120.688"/>
					</g>
					<g>
						<polygon fill="#D1D3D4" points="157.908,319.885 142.436,374.476 186.775,374.476 						"/>
						<polygon fill="#F1F2F2" points="376.871,382.207 167.989,382.207 158.399,319.885 367.281,319.885 						"/>
						<g enable-background="new    ">
							<path fill="#414042" d="M192.742,340.106c0.506,0,1.09,0.041,1.75,0.122c0.66,0.082,1.28,0.227,1.859,0.435
								c0.579,0.208,1.067,0.479,1.465,0.814c0.397,0.335,0.597,0.746,0.597,1.234c0,0.289-0.081,0.534-0.244,0.732
								c-0.163,0.199-0.425,0.299-0.787,0.299c-0.271,0-0.547-0.055-0.828-0.163c-0.281-0.108-0.597-0.221-0.95-0.339
								c-0.353-0.117-0.76-0.23-1.221-0.34c-0.461-0.108-1-0.162-1.615-0.162c-1.194,0-2.076,0.213-2.646,0.638
								s-0.855,1.009-0.855,1.75c0,0.507,0.126,0.932,0.38,1.275c0.253,0.344,0.592,0.638,1.018,0.882
								c0.425,0.244,0.904,0.448,1.438,0.61c0.534,0.163,1.081,0.317,1.642,0.462c0.633,0.162,1.262,0.361,1.886,0.597
								s1.181,0.543,1.669,0.923s0.882,0.859,1.18,1.438c0.299,0.579,0.448,1.313,0.448,2.198c0,0.923-0.172,1.75-0.516,2.483
								c-0.344,0.732-0.814,1.356-1.411,1.872c-0.597,0.516-1.312,0.914-2.144,1.194s-1.736,0.42-2.713,0.42
								c-0.543,0-1.176-0.05-1.899-0.149c-0.724-0.099-1.411-0.271-2.063-0.515c-0.651-0.245-1.203-0.57-1.655-0.978
								s-0.678-0.909-0.678-1.506c0-0.361,0.095-0.651,0.285-0.868s0.475-0.326,0.855-0.326c0.307,0,0.561,0.06,0.76,0.177
								c0.199,0.118,0.371,0.249,0.516,0.394c0.542,0.471,1.157,0.787,1.845,0.949c0.687,0.163,1.393,0.245,2.117,0.245
								c0.416,0,0.854-0.032,1.316-0.096c0.461-0.063,0.882-0.194,1.262-0.394c0.38-0.198,0.696-0.483,0.95-0.854
								c0.253-0.37,0.38-0.872,0.38-1.506c0-0.579-0.113-1.054-0.339-1.425c-0.227-0.37-0.529-0.683-0.909-0.937
								c-0.38-0.253-0.828-0.461-1.343-0.624c-0.516-0.162-1.072-0.325-1.669-0.488c-0.669-0.181-1.33-0.38-1.981-0.597
								s-1.23-0.511-1.737-0.882s-0.918-0.842-1.234-1.411c-0.317-0.57-0.475-1.298-0.475-2.185c0-0.886,0.163-1.664,0.489-2.334
								c0.326-0.669,0.769-1.229,1.33-1.682c0.561-0.452,1.225-0.796,1.994-1.031S191.856,340.106,192.742,340.106z"/>
							<path fill="#414042" d="M209.186,359.536c-1.085,0-2.103-0.217-3.053-0.651s-1.777-1.063-2.483-1.886
								s-1.262-1.832-1.669-3.025c-0.407-1.194-0.61-2.551-0.61-4.07c0-1.43,0.176-2.741,0.529-3.936
								c0.353-1.193,0.877-2.225,1.574-3.093c0.696-0.869,1.56-1.542,2.591-2.021s2.225-0.72,3.582-0.72
								c1.103,0,2.153,0.199,3.148,0.598c0.995,0.397,1.868,0.995,2.618,1.79c0.75,0.797,1.343,1.791,1.778,2.985
								c0.434,1.194,0.651,2.587,0.651,4.179c0,1.321-0.176,2.578-0.529,3.772c-0.353,1.193-0.887,2.238-1.601,3.134
								c-0.715,0.896-1.615,1.61-2.7,2.144S210.651,359.536,209.186,359.536z M209.24,356.985c0.995,0,1.863-0.204,2.605-0.61
								c0.742-0.407,1.357-0.945,1.846-1.615c0.488-0.669,0.85-1.442,1.085-2.319c0.235-0.878,0.353-1.777,0.353-2.7
								c0-1.122-0.149-2.121-0.448-2.999c-0.298-0.877-0.701-1.614-1.208-2.211c-0.507-0.598-1.095-1.054-1.764-1.371
								c-0.669-0.315-1.384-0.475-2.144-0.475c-0.905,0-1.696,0.19-2.374,0.57c-0.679,0.38-1.249,0.896-1.71,1.547
								c-0.461,0.65-0.81,1.415-1.044,2.293c-0.235,0.877-0.353,1.813-0.353,2.809c0,1.067,0.136,2.039,0.407,2.917
								c0.271,0.877,0.638,1.623,1.099,2.238c0.461,0.615,1.008,1.09,1.642,1.425C207.865,356.818,208.534,356.985,209.24,356.985z"
								/>
							<path fill="#414042" d="M228.452,340.053c0.597,0,1.198,0.05,1.805,0.149c0.606,0.1,1.153,0.253,1.642,0.461
								c0.489,0.208,0.891,0.461,1.208,0.76s0.475,0.647,0.475,1.045c0,0.416-0.108,0.732-0.326,0.949
								c-0.217,0.218-0.488,0.326-0.814,0.326c-0.308,0-0.579-0.05-0.814-0.149c-0.235-0.1-0.502-0.212-0.801-0.339
								s-0.656-0.24-1.072-0.34c-0.417-0.099-0.968-0.148-1.655-0.148s-1.343,0.176-1.967,0.528
								c-0.624,0.354-1.167,0.842-1.628,1.466c-0.461,0.624-0.828,1.361-1.099,2.212c-0.271,0.85-0.407,1.772-0.407,2.768
								c0,1.23,0.158,2.288,0.475,3.175c0.316,0.887,0.728,1.614,1.234,2.185c0.506,0.569,1.081,0.995,1.723,1.275
								s1.289,0.42,1.94,0.42c0.777,0,1.429-0.081,1.954-0.244c0.524-0.162,0.972-0.343,1.343-0.542
								c0.371-0.199,0.692-0.38,0.963-0.543s0.533-0.244,0.787-0.244c0.308,0,0.552,0.086,0.733,0.258
								c0.181,0.172,0.271,0.475,0.271,0.909c0,0.361-0.141,0.728-0.421,1.099c-0.281,0.371-0.688,0.705-1.221,1.004
								s-1.171,0.543-1.913,0.732c-0.742,0.19-1.574,0.285-2.497,0.285c-1.014,0-2.022-0.199-3.026-0.597s-1.899-0.99-2.687-1.777
								c-0.787-0.787-1.424-1.773-1.913-2.958c-0.488-1.185-0.732-2.564-0.732-4.139c0-1.573,0.221-2.976,0.665-4.206
								c0.443-1.229,1.049-2.274,1.818-3.134c0.769-0.859,1.664-1.515,2.687-1.967C226.204,340.279,227.294,340.053,228.452,340.053
								z"/>
							<path fill="#414042" d="M237.217,357.582c-0.037-0.651-0.059-1.329-0.068-2.035c-0.009-0.705-0.023-1.465-0.041-2.279
								c-0.019-0.814-0.027-1.696-0.027-2.646c0-0.95,0-2.013,0-3.188c0-1.284,0.009-2.384,0.027-3.297
								c0.018-0.913,0.072-1.66,0.163-2.239c0.09-0.578,0.231-1.004,0.421-1.275s0.448-0.406,0.773-0.406
								c0.163,0,0.316,0.018,0.461,0.054c0.145,0.036,0.271,0.113,0.38,0.23c0.109,0.118,0.204,0.29,0.285,0.516
								c0.081,0.227,0.131,0.521,0.149,0.882c0.036,0.651,0.063,1.23,0.082,1.737s0.036,1.009,0.054,1.506
								c0.018,0.498,0.027,1.014,0.027,1.547s0,1.135,0,1.805c0,0.813,0,1.592,0,2.333c0,0.742-0.009,1.475-0.027,2.198
								s-0.036,1.456-0.054,2.198s-0.045,1.52-0.082,2.333c-0.018,0.435-0.063,0.77-0.135,1.005
								c-0.073,0.235-0.163,0.416-0.271,0.542c-0.108,0.127-0.235,0.204-0.38,0.23c-0.145,0.027-0.308,0.041-0.489,0.041
								c-0.325,0-0.606-0.112-0.841-0.339C237.389,358.808,237.253,358.324,237.217,357.582z"/>
							<path fill="#414042" d="M254.801,357.881c-0.181-0.435-0.375-0.937-0.583-1.506c-0.208-0.57-0.43-1.171-0.665-1.805
								c-0.543,0.019-1.113,0.031-1.71,0.041c-0.597,0.009-1.203,0.013-1.818,0.013c-0.778,0-1.483,0-2.117,0
								s-1.212-0.009-1.737-0.026c-0.217,0.633-0.425,1.23-0.624,1.791c-0.199,0.561-0.389,1.058-0.57,1.492
								c-0.362,0.923-0.887,1.384-1.574,1.384c-0.253,0-0.493-0.081-0.719-0.244c-0.227-0.163-0.339-0.397-0.339-0.706
								c0-0.307,0.055-0.709,0.163-1.207c0.108-0.497,0.249-1.031,0.42-1.601c0.172-0.57,0.357-1.158,0.557-1.765
								c0.199-0.605,0.389-1.171,0.57-1.695c0.181-0.579,0.438-1.316,0.773-2.212c0.335-0.896,0.692-1.832,1.072-2.809
								s0.76-1.94,1.14-2.89c0.38-0.95,0.723-1.777,1.031-2.483c0.072-0.181,0.163-0.384,0.271-0.61
								c0.109-0.226,0.24-0.438,0.394-0.638c0.153-0.199,0.326-0.37,0.516-0.516c0.19-0.145,0.402-0.217,0.638-0.217
								c0.235,0,0.452,0.077,0.651,0.23c0.199,0.154,0.375,0.339,0.529,0.557c0.154,0.217,0.29,0.443,0.407,0.678
								c0.118,0.235,0.212,0.443,0.285,0.624c0.289,0.725,0.619,1.557,0.99,2.497c0.371,0.94,0.742,1.891,1.113,2.849
								c0.371,0.96,0.719,1.873,1.044,2.741s0.588,1.601,0.787,2.198c0.163,0.524,0.348,1.085,0.556,1.682
								c0.208,0.598,0.402,1.186,0.583,1.765c0.181,0.579,0.33,1.117,0.448,1.614c0.117,0.498,0.176,0.9,0.176,1.207
								c0,0.309-0.113,0.543-0.339,0.706s-0.466,0.244-0.719,0.244c-0.326,0-0.624-0.112-0.896-0.339
								S254.999,358.352,254.801,357.881z M249.997,351.911c0.435,0,0.869,0.005,1.303,0.014s0.868,0.022,1.302,0.04
								c-0.217-0.633-0.434-1.266-0.651-1.899c-0.217-0.633-0.421-1.238-0.611-1.818c-0.19-0.578-0.362-1.116-0.516-1.614
								c-0.154-0.497-0.285-0.936-0.393-1.315c-0.073-0.235-0.154-0.426-0.245-0.57s-0.208-0.217-0.353-0.217
								c-0.145,0-0.263,0.077-0.353,0.23s-0.172,0.349-0.244,0.583c-0.217,0.742-0.52,1.706-0.909,2.891
								c-0.39,1.185-0.801,2.429-1.235,3.73c0.488-0.018,0.977-0.031,1.465-0.04S249.527,351.911,249.997,351.911z"/>
							<path fill="#414042" d="M262.073,351.693c0,0.58,0,1.091,0,1.533c0,0.444-0.005,0.864-0.014,1.262
								c-0.009,0.398-0.023,0.797-0.041,1.194c-0.019,0.398-0.037,0.842-0.054,1.33c1.248-0.145,2.225-0.263,2.931-0.354
								c0.705-0.09,1.262-0.162,1.668-0.217c0.407-0.054,0.724-0.09,0.95-0.108c0.226-0.018,0.493-0.027,0.801-0.027
								c0.796,0,1.194,0.39,1.194,1.167c0,0.308-0.159,0.57-0.475,0.787c-0.317,0.217-0.715,0.402-1.194,0.557
								c-0.479,0.153-1.013,0.28-1.601,0.38c-0.588,0.099-1.158,0.171-1.709,0.217c-0.552,0.045-1.049,0.076-1.492,0.095
								c-0.444,0.018-0.756,0.027-0.937,0.027c-0.651,0-1.158-0.041-1.52-0.122c-0.362-0.082-0.633-0.326-0.814-0.732
								c-0.181-0.407-0.294-1.027-0.339-1.859c-0.045-0.832-0.068-2.008-0.068-3.527c0-1.466,0-2.768,0-3.907
								c0-1.141,0.009-2.162,0.027-3.066c0.018-0.904,0.031-1.71,0.041-2.415c0.009-0.706,0.032-1.348,0.068-1.927
								c0.036-0.742,0.163-1.226,0.38-1.452c0.217-0.226,0.489-0.339,0.814-0.339c0.18,0,0.339,0.014,0.475,0.04
								c0.136,0.027,0.258,0.104,0.366,0.231c0.109,0.126,0.194,0.308,0.258,0.542c0.063,0.235,0.104,0.57,0.122,1.004
								c0.072,1.593,0.118,3.166,0.136,4.722C262.064,348.284,262.073,349.939,262.073,351.693z"/>
							<path fill="#414042" d="M284.622,354.651c-0.832-1.827-1.569-3.596-2.211-5.305c-0.643-1.71-1.19-3.233-1.642-4.572
								c-0.417,2.243-0.765,4.504-1.045,6.784c-0.281,2.279-0.638,4.459-1.072,6.539c-0.108,0.471-0.308,0.783-0.597,0.937
								s-0.534,0.23-0.732,0.23c-0.326,0-0.583-0.1-0.773-0.299c-0.19-0.198-0.285-0.451-0.285-0.76c0-0.416,0.05-1.054,0.149-1.913
								c0.099-0.858,0.226-1.831,0.38-2.917c0.154-1.085,0.33-2.225,0.529-3.419c0.199-1.194,0.402-2.347,0.61-3.46
								c0.208-1.112,0.407-2.12,0.597-3.025c0.19-0.904,0.357-1.601,0.502-2.09c0.235-0.831,0.714-1.248,1.438-1.248
								c0.435,0,0.805,0.213,1.113,0.638c0.308,0.426,0.638,1.077,0.99,1.954c0.353,0.878,0.778,1.985,1.275,3.324
								s1.144,2.913,1.94,4.722c0.777-1.809,1.406-3.379,1.886-4.708c0.479-1.33,0.886-2.434,1.221-3.311
								c0.334-0.878,0.656-1.529,0.963-1.954s0.688-0.638,1.14-0.638c0.416,0,0.733,0.104,0.95,0.313
								c0.217,0.208,0.38,0.52,0.489,0.936c0.126,0.507,0.28,1.208,0.461,2.104s0.375,1.891,0.583,2.984
								c0.208,1.095,0.411,2.239,0.611,3.433c0.199,1.194,0.38,2.334,0.542,3.419c0.163,1.086,0.294,2.067,0.394,2.944
								c0.099,0.878,0.149,1.552,0.149,2.021c0,0.29-0.1,0.521-0.298,0.692c-0.199,0.172-0.452,0.258-0.76,0.258
								c-0.199,0-0.443-0.077-0.732-0.23c-0.29-0.153-0.489-0.466-0.597-0.937c-0.217-1.031-0.412-2.099-0.583-3.202
								c-0.172-1.103-0.335-2.22-0.488-3.351c-0.154-1.131-0.303-2.262-0.448-3.393c-0.145-1.13-0.298-2.256-0.461-3.378
								c-0.235,0.724-0.507,1.52-0.814,2.388c-0.308,0.868-0.633,1.741-0.977,2.618c-0.344,0.878-0.696,1.742-1.058,2.592
								c-0.362,0.851-0.715,1.619-1.059,2.307c-0.126,0.235-0.294,0.412-0.502,0.529c-0.208,0.118-0.42,0.176-0.638,0.176
								c-0.235,0-0.457-0.058-0.665-0.176C284.889,355.091,284.731,354.905,284.622,354.651z"/>
							<path fill="#414042" d="M297.512,355.14c-0.037-0.578-0.073-1.365-0.108-2.36c-0.037-0.995-0.055-2.017-0.055-3.066
								c0-0.597,0.004-1.217,0.014-1.858c0.009-0.643,0.022-1.298,0.041-1.968c0.036-1.339,0.122-2.388,0.258-3.147
								c0.135-0.76,0.407-1.33,0.814-1.71c0.407-0.38,0.981-0.614,1.723-0.705c0.741-0.091,1.727-0.136,2.958-0.136
								c0.018,0,0.212,0,0.583,0c0.371,0,0.818,0.005,1.343,0.014c0.524,0.009,1.072,0.022,1.642,0.04
								c0.57,0.019,1.045,0.037,1.425,0.055c0.397,0.036,0.719,0.086,0.963,0.149s0.429,0.145,0.556,0.244
								c0.126,0.1,0.208,0.217,0.244,0.353c0.036,0.136,0.054,0.285,0.054,0.448c0,0.416-0.118,0.719-0.353,0.908
								c-0.235,0.19-0.715,0.313-1.438,0.367c-0.362,0.036-0.891,0.059-1.587,0.067c-0.696,0.01-1.407,0.014-2.13,0.014
								c-0.724,0-1.375,0.005-1.954,0.014s-0.94,0.014-1.085,0.014c-0.471,0.018-0.801,0.122-0.991,0.312
								c-0.19,0.19-0.285,0.638-0.285,1.344c0,0.162,0.013,0.556,0.041,1.18c0.027,0.625,0.041,1.497,0.041,2.619h2.252
								c0.958,0,1.741,0.014,2.347,0.041c0.606,0.026,1.076,0.086,1.411,0.176c0.334,0.091,0.565,0.235,0.692,0.435
								c0.126,0.199,0.19,0.461,0.19,0.787c0,0.162-0.014,0.312-0.041,0.447c-0.027,0.136-0.104,0.254-0.231,0.353
								c-0.126,0.1-0.308,0.182-0.542,0.244c-0.235,0.063-0.57,0.113-1.004,0.149c-0.525,0.037-1.018,0.06-1.479,0.068
								s-0.918,0.014-1.371,0.014h-2.279c0,0.271,0,0.597,0,0.977s0,0.769,0,1.167c0,0.397,0.004,0.787,0.014,1.167
								c0.009,0.38,0.022,0.688,0.041,0.922c0.018,0.29,0.059,0.534,0.122,0.733s0.181,0.361,0.353,0.488
								c0.171,0.127,0.425,0.217,0.76,0.271c0.334,0.054,0.782,0.081,1.343,0.081h5.834c0.633,0,1.031,0.118,1.194,0.353
								c0.163,0.235,0.245,0.552,0.245,0.95c0,0.325-0.073,0.574-0.217,0.746c-0.145,0.172-0.493,0.299-1.045,0.38
								s-1.375,0.131-2.469,0.149c-1.095,0.018-2.601,0.027-4.518,0.027c-0.814,0-1.483-0.073-2.008-0.218
								c-0.525-0.145-0.95-0.389-1.275-0.732s-0.566-0.791-0.719-1.343C297.67,356.61,297.566,355.937,297.512,355.14z"/>
							<path fill="#414042" d="M318.08,340.08c1.863,0,3.355,0.28,4.478,0.841c1.122,0.561,1.981,1.303,2.578,2.226
								c0.597,0.922,0.991,1.972,1.181,3.147s0.285,2.37,0.285,3.582c0,1.32-0.167,2.568-0.502,3.744
								c-0.335,1.177-0.851,2.203-1.547,3.08c-0.696,0.878-1.587,1.574-2.673,2.09s-2.379,0.773-3.88,0.773
								c-1.194,0-2.148-0.086-2.863-0.258c-0.715-0.172-1.266-0.43-1.655-0.773s-0.647-0.778-0.773-1.303s-0.19-1.14-0.19-1.846
								v-10.202c0-0.778,0.068-1.483,0.204-2.117c0.136-0.633,0.402-1.171,0.801-1.614c0.397-0.443,0.963-0.782,1.696-1.018
								C315.95,340.197,316.904,340.08,318.08,340.08z M318.189,356.85c1.122,0,2.049-0.203,2.782-0.61
								c0.732-0.407,1.316-0.945,1.75-1.615c0.434-0.669,0.737-1.429,0.909-2.279c0.172-0.85,0.258-1.718,0.258-2.604
								c0-0.814-0.063-1.633-0.19-2.456c-0.127-0.823-0.389-1.569-0.787-2.238s-0.968-1.212-1.709-1.629
								c-0.742-0.416-1.728-0.624-2.958-0.624c-1.122,0-1.9,0.163-2.334,0.488c-0.434,0.326-0.651,0.824-0.651,1.493v10.393
								c0,0.562,0.204,0.981,0.611,1.262C316.276,356.71,317.049,356.85,318.189,356.85z"/>
							<path fill="#414042" d="M329.721,357.582c-0.037-0.651-0.059-1.329-0.068-2.035c-0.009-0.705-0.023-1.465-0.041-2.279
								c-0.019-0.814-0.027-1.696-0.027-2.646c0-0.95,0-2.013,0-3.188c0-1.284,0.009-2.384,0.027-3.297
								c0.018-0.913,0.072-1.66,0.163-2.239c0.09-0.578,0.231-1.004,0.421-1.275s0.448-0.406,0.773-0.406
								c0.163,0,0.316,0.018,0.461,0.054c0.145,0.036,0.271,0.113,0.38,0.23c0.109,0.118,0.204,0.29,0.285,0.516
								c0.081,0.227,0.131,0.521,0.149,0.882c0.036,0.651,0.063,1.23,0.082,1.737s0.036,1.009,0.054,1.506
								c0.018,0.498,0.027,1.014,0.027,1.547s0,1.135,0,1.805c0,0.813,0,1.592,0,2.333c0,0.742-0.009,1.475-0.027,2.198
								s-0.036,1.456-0.054,2.198s-0.045,1.52-0.082,2.333c-0.018,0.435-0.063,0.77-0.135,1.005
								c-0.073,0.235-0.163,0.416-0.271,0.542c-0.108,0.127-0.235,0.204-0.38,0.23c-0.145,0.027-0.308,0.041-0.489,0.041
								c-0.325,0-0.606-0.112-0.841-0.339C329.893,358.808,329.758,358.324,329.721,357.582z"/>
							<path fill="#414042" d="M347.305,357.881c-0.181-0.435-0.375-0.937-0.583-1.506c-0.208-0.57-0.43-1.171-0.665-1.805
								c-0.543,0.019-1.113,0.031-1.71,0.041c-0.597,0.009-1.203,0.013-1.818,0.013c-0.778,0-1.483,0-2.117,0
								s-1.212-0.009-1.737-0.026c-0.217,0.633-0.425,1.23-0.624,1.791c-0.199,0.561-0.389,1.058-0.57,1.492
								c-0.362,0.923-0.887,1.384-1.574,1.384c-0.253,0-0.493-0.081-0.719-0.244c-0.227-0.163-0.339-0.397-0.339-0.706
								c0-0.307,0.055-0.709,0.163-1.207c0.108-0.497,0.249-1.031,0.42-1.601c0.172-0.57,0.357-1.158,0.557-1.765
								c0.199-0.605,0.389-1.171,0.57-1.695c0.181-0.579,0.438-1.316,0.773-2.212c0.335-0.896,0.692-1.832,1.072-2.809
								s0.76-1.94,1.14-2.89c0.38-0.95,0.723-1.777,1.031-2.483c0.072-0.181,0.163-0.384,0.271-0.61
								c0.109-0.226,0.24-0.438,0.394-0.638c0.153-0.199,0.326-0.37,0.516-0.516c0.19-0.145,0.402-0.217,0.638-0.217
								c0.235,0,0.452,0.077,0.651,0.23c0.199,0.154,0.375,0.339,0.529,0.557c0.154,0.217,0.29,0.443,0.407,0.678
								c0.118,0.235,0.212,0.443,0.285,0.624c0.289,0.725,0.619,1.557,0.99,2.497c0.371,0.94,0.742,1.891,1.113,2.849
								c0.371,0.96,0.719,1.873,1.044,2.741s0.588,1.601,0.787,2.198c0.163,0.524,0.348,1.085,0.556,1.682
								c0.208,0.598,0.402,1.186,0.583,1.765c0.181,0.579,0.33,1.117,0.448,1.614c0.117,0.498,0.176,0.9,0.176,1.207
								c0,0.309-0.113,0.543-0.339,0.706s-0.466,0.244-0.719,0.244c-0.326,0-0.624-0.112-0.896-0.339
								S347.504,358.352,347.305,357.881z M342.502,351.911c0.435,0,0.869,0.005,1.303,0.014s0.868,0.022,1.302,0.04
								c-0.217-0.633-0.434-1.266-0.651-1.899c-0.217-0.633-0.421-1.238-0.611-1.818c-0.19-0.578-0.362-1.116-0.516-1.614
								c-0.154-0.497-0.285-0.936-0.393-1.315c-0.073-0.235-0.154-0.426-0.245-0.57s-0.208-0.217-0.353-0.217
								c-0.145,0-0.263,0.077-0.353,0.23s-0.172,0.349-0.244,0.583c-0.217,0.742-0.52,1.706-0.909,2.891
								c-0.39,1.185-0.801,2.429-1.235,3.73c0.488-0.018,0.977-0.031,1.465-0.04S342.031,351.911,342.502,351.911z"/>
						</g>
					</g>
					<path opacity="0.5" fill="#231F20" enable-background="new    " d="M55.761,374.066c0.014,2.211-17.413,4.133-38.93,4.293
						c-21.515,0.159-38.97-1.504-38.986-3.715c-0.018-2.211,17.411-4.134,38.928-4.293
						C38.288,370.192,55.741,371.855,55.761,374.066z"/>
					<g>
						
							<ellipse transform="matrix(-0.9995 -0.032 0.032 -0.9995 -4.1406 689.7325)" fill="#F38E81" cx="3.447" cy="344.899" rx="17.676" ry="32.337"/>
						<g>
							
								<ellipse transform="matrix(-0.9995 -0.032 0.032 -0.9995 123.5672 695.8647)" fill="#E4318A" cx="67.352" cy="346.944" rx="13.939" ry="25.5"/>
							
								<ellipse transform="matrix(-0.9995 -0.032 0.032 -0.9995 1.847 690.0281)" fill="#E4318A" cx="6.445" cy="344.999" rx="15.939" ry="29.159"/>
							<polygon fill="#E4318A" points="68.165,321.463 7.385,315.516 5.496,374.485 66.532,372.437 							"/>
						</g>
						
							<ellipse transform="matrix(-0.9995 -0.032 0.032 -0.9995 130.1989 696.201)" fill="#F38E81" cx="70.67" cy="347.059" rx="11.621" ry="21.26"/>
						<path opacity="0.1" fill="#231F20" enable-background="new    " d="M11.978,315.965l56.188,5.498
							c4.237,0.137,7.921,3.725,10.302,9.27c2.521,3.979,4.026,10.001,3.813,16.696l-96.505-3.09
							c0.572-17.85,8.945-32.07,18.703-31.756C7.199,312.67,9.74,313.881,11.978,315.965z"/>
					</g>
					<path fill="none" stroke="#0F4955" stroke-width="3" stroke-linecap="round" stroke-miterlimit="10" d="M70.665,345
						c28.535,7.736,42.293,27.416,29.906,54.934c-10.374,23.042-32.138,40.115-43.193,62.978
						c-12.724,26.313,8.376,40.656,34.052,39.065c4.349-0.27,16.969-2.243,19.362-5.928c6.006-9.248-11.938-7.496-15.926-6.213
						c-7.78,2.506-15.432,8.82-17.743,16.84c-10.49,36.428,49.578,77.938,68.927,101.478"/>
				</g>
				<g>
					<g>
						<rect x="990.812" y="428.841" fill="#66D2DD" width="612.826" height="116.846"/>
						<rect x="990.812" y="429.752" fill="#52C1CC" width="612.826" height="7.515"/>
						<rect x="980.885" y="411.872" fill="#66D2DD" width="635.692" height="17.8"/>
						<rect x="981.26" y="291.184" fill="#52C1CC" width="635.692" height="120.688"/>
					</g>
					<g>
						<polygon fill="#D1D3D4" points="1076.255,303.441 1060.781,358.032 1105.121,358.032 						"/>
						<polygon fill="#F1F2F2" points="1264.917,365.763 1084.953,365.763 1076.689,303.441 1256.652,303.441 						"/>
						<g enable-background="new    ">
							<path fill="#414042" d="M1118.696,323.608c0.597,0,1.198,0.05,1.805,0.149s1.153,0.253,1.642,0.461s0.891,0.461,1.207,0.76
								s0.476,0.647,0.476,1.045c0,0.416-0.108,0.732-0.325,0.949c-0.218,0.218-0.488,0.326-0.814,0.326
								c-0.309,0-0.579-0.05-0.814-0.149c-0.234-0.1-0.502-0.212-0.801-0.339c-0.298-0.127-0.655-0.24-1.071-0.34
								c-0.417-0.099-0.968-0.148-1.655-0.148s-1.344,0.176-1.967,0.528c-0.625,0.354-1.168,0.842-1.629,1.466
								s-0.828,1.361-1.099,2.212c-0.271,0.85-0.407,1.772-0.407,2.768c0,1.23,0.158,2.288,0.475,3.175s0.729,1.614,1.234,2.185
								c0.507,0.569,1.082,0.995,1.724,1.275s1.289,0.42,1.94,0.42c0.777,0,1.429-0.081,1.953-0.244
								c0.525-0.162,0.973-0.343,1.344-0.542s0.691-0.38,0.963-0.543s0.533-0.244,0.787-0.244c0.308,0,0.552,0.086,0.732,0.258
								c0.182,0.172,0.271,0.475,0.271,0.909c0,0.361-0.141,0.728-0.42,1.099c-0.281,0.371-0.688,0.705-1.222,1.004
								s-1.171,0.543-1.913,0.732c-0.742,0.19-1.574,0.285-2.496,0.285c-1.014,0-2.021-0.199-3.025-0.597s-1.9-0.99-2.688-1.777
								c-0.786-0.787-1.424-1.773-1.912-2.958s-0.732-2.564-0.732-4.139c0-1.573,0.221-2.976,0.664-4.206
								c0.443-1.229,1.049-2.274,1.818-3.134c0.769-0.859,1.664-1.515,2.687-1.967
								C1116.448,323.835,1117.539,323.608,1118.696,323.608z"/>
							<path fill="#414042" d="M1133.322,336.145c-0.253,0.019-0.511,0.032-0.773,0.041c-0.262,0.01-0.529,0.014-0.8,0.014
								c-0.308,0-0.615,0-0.923,0s-0.651-0.018-1.031-0.055v5.509c0,0.579-0.141,0.937-0.42,1.072
								c-0.281,0.136-0.629,0.203-1.045,0.203c-0.217,0-0.39-0.014-0.516-0.041c-0.127-0.026-0.23-0.081-0.313-0.162
								c-0.081-0.082-0.145-0.204-0.189-0.366c-0.046-0.163-0.078-0.39-0.096-0.679c-0.036-0.325-0.063-0.801-0.081-1.425
								s-0.032-1.434-0.04-2.429c-0.01-0.994-0.02-2.202-0.027-3.622c-0.01-1.42-0.014-3.089-0.014-5.007
								c0-0.741,0.09-1.461,0.271-2.157c0.18-0.696,0.506-1.312,0.977-1.846c0.471-0.533,1.107-0.963,1.913-1.289
								c0.805-0.325,1.831-0.488,3.079-0.488c0.887,0,1.751,0.1,2.592,0.299c0.842,0.199,1.588,0.543,2.239,1.031
								s1.176,1.148,1.573,1.98c0.398,0.833,0.598,1.873,0.598,3.121c0,1.664-0.357,2.953-1.072,3.866
								c-0.715,0.914-1.695,1.561-2.943,1.94l3.635,4.993c0.326,0.435,0.489,0.878,0.489,1.33c0,0.361-0.122,0.646-0.366,0.854
								s-0.547,0.312-0.909,0.312c-0.398,0-0.742-0.112-1.031-0.339c-0.29-0.226-0.562-0.52-0.813-0.882L1133.322,336.145z
								 M1137.583,329.822c0-1.248-0.376-2.175-1.126-2.781c-0.751-0.606-1.94-0.909-3.568-0.909c-0.598,0-1.095,0.05-1.492,0.149
								c-0.398,0.1-0.715,0.285-0.95,0.556c-0.235,0.271-0.403,0.647-0.502,1.127c-0.1,0.479-0.149,1.09-0.149,1.831
								c0,0.525,0,1.14,0,1.846c0,0.705,0.01,1.348,0.027,1.927c0.416,0.018,0.882,0.026,1.397,0.026s0.999,0,1.452,0
								c0.506,0,1.045-0.031,1.614-0.095s1.099-0.226,1.587-0.488c0.488-0.262,0.896-0.642,1.222-1.14
								C1137.42,331.374,1137.583,330.69,1137.583,329.822z"/>
							<path fill="#414042" d="M1142.875,338.695c-0.037-0.578-0.073-1.365-0.109-2.36s-0.055-2.017-0.055-3.066
								c0-0.597,0.005-1.217,0.014-1.858c0.01-0.643,0.023-1.298,0.041-1.968c0.036-1.339,0.123-2.388,0.258-3.147
								c0.136-0.76,0.407-1.33,0.814-1.71c0.406-0.38,0.98-0.614,1.723-0.705s1.728-0.136,2.958-0.136c0.019,0,0.212,0,0.583,0
								s0.818,0.005,1.344,0.014c0.524,0.009,1.072,0.022,1.642,0.04c0.569,0.019,1.045,0.037,1.425,0.055
								c0.397,0.036,0.719,0.086,0.963,0.149s0.43,0.145,0.557,0.244s0.207,0.217,0.244,0.353c0.036,0.136,0.055,0.285,0.055,0.448
								c0,0.416-0.118,0.719-0.354,0.908c-0.234,0.19-0.715,0.313-1.438,0.367c-0.362,0.036-0.892,0.059-1.588,0.067
								c-0.696,0.01-1.406,0.014-2.13,0.014s-1.375,0.005-1.954,0.014s-0.94,0.014-1.085,0.014
								c-0.471,0.018-0.801,0.122-0.991,0.312c-0.189,0.19-0.284,0.638-0.284,1.344c0,0.162,0.013,0.556,0.04,1.18
								c0.027,0.625,0.041,1.497,0.041,2.619h2.252c0.959,0,1.741,0.014,2.348,0.041c0.605,0.026,1.076,0.086,1.411,0.176
								c0.335,0.091,0.565,0.235,0.692,0.435c0.126,0.199,0.189,0.461,0.189,0.787c0,0.162-0.014,0.312-0.041,0.447
								s-0.104,0.254-0.23,0.353c-0.127,0.1-0.308,0.182-0.543,0.244c-0.234,0.063-0.569,0.113-1.004,0.149
								c-0.524,0.037-1.018,0.06-1.479,0.068s-0.918,0.014-1.371,0.014h-2.279c0,0.271,0,0.597,0,0.977s0,0.769,0,1.167
								c0,0.397,0.005,0.787,0.014,1.167c0.01,0.38,0.023,0.688,0.041,0.922c0.018,0.29,0.059,0.534,0.122,0.733
								s0.181,0.361,0.353,0.488s0.426,0.217,0.76,0.271c0.335,0.054,0.783,0.081,1.344,0.081H1154c0.633,0,1.031,0.118,1.193,0.353
								c0.164,0.235,0.245,0.552,0.245,0.95c0,0.325-0.073,0.574-0.218,0.746s-0.492,0.299-1.045,0.38
								c-0.551,0.081-1.375,0.131-2.469,0.149c-1.095,0.018-2.601,0.027-4.518,0.027c-0.814,0-1.484-0.073-2.008-0.218
								c-0.525-0.145-0.95-0.389-1.275-0.732c-0.326-0.344-0.566-0.791-0.72-1.343S1142.928,339.492,1142.875,338.695z"/>
							<path fill="#414042" d="M1169.25,341.437c-0.182-0.435-0.375-0.937-0.584-1.506c-0.207-0.57-0.43-1.171-0.664-1.805
								c-0.543,0.019-1.113,0.031-1.71,0.041c-0.597,0.009-1.203,0.013-1.817,0.013c-0.779,0-1.484,0-2.117,0
								s-1.212-0.009-1.736-0.026c-0.217,0.633-0.426,1.23-0.625,1.791s-0.389,1.058-0.569,1.492
								c-0.362,0.923-0.887,1.384-1.573,1.384c-0.254,0-0.494-0.081-0.72-0.244c-0.227-0.163-0.339-0.397-0.339-0.706
								c0-0.307,0.055-0.709,0.162-1.207c0.109-0.497,0.249-1.031,0.421-1.601c0.172-0.57,0.356-1.158,0.557-1.765
								c0.198-0.605,0.389-1.171,0.569-1.695c0.182-0.579,0.439-1.316,0.773-2.212c0.335-0.896,0.692-1.832,1.072-2.809
								s0.76-1.94,1.14-2.89c0.38-0.95,0.724-1.777,1.031-2.483c0.071-0.181,0.163-0.384,0.271-0.61
								c0.109-0.226,0.24-0.438,0.395-0.638c0.152-0.199,0.325-0.37,0.516-0.516c0.189-0.145,0.402-0.217,0.637-0.217
								c0.235,0,0.453,0.077,0.652,0.23c0.198,0.154,0.375,0.339,0.528,0.557c0.153,0.217,0.29,0.443,0.407,0.678
								c0.117,0.235,0.213,0.443,0.285,0.624c0.289,0.725,0.619,1.557,0.99,2.497s0.742,1.891,1.113,2.849
								c0.37,0.96,0.719,1.873,1.044,2.741s0.588,1.601,0.787,2.198c0.163,0.524,0.349,1.085,0.556,1.682
								c0.209,0.598,0.402,1.186,0.584,1.765c0.181,0.579,0.33,1.117,0.447,1.614c0.117,0.498,0.177,0.9,0.177,1.207
								c0,0.309-0.113,0.543-0.339,0.706c-0.227,0.163-0.467,0.244-0.719,0.244c-0.326,0-0.625-0.112-0.896-0.339
								S1169.449,341.907,1169.25,341.437z M1164.447,335.467c0.434,0,0.868,0.005,1.303,0.014c0.434,0.009,0.867,0.022,1.302,0.04
								c-0.217-0.633-0.435-1.266-0.651-1.899c-0.217-0.633-0.42-1.238-0.61-1.818c-0.19-0.578-0.362-1.116-0.516-1.614
								c-0.153-0.497-0.284-0.936-0.394-1.315c-0.072-0.235-0.154-0.426-0.244-0.57s-0.208-0.217-0.353-0.217
								c-0.146,0-0.263,0.077-0.353,0.23c-0.091,0.153-0.172,0.349-0.244,0.583c-0.217,0.742-0.521,1.706-0.909,2.891
								c-0.39,1.185-0.801,2.429-1.235,3.73c0.488-0.018,0.978-0.031,1.466-0.04S1163.976,335.467,1164.447,335.467z"/>
							<path fill="#414042" d="M1182.465,326.322c-0.506,0.036-1.045,0.063-1.614,0.081c-0.569,0.019-1.198,0.036-1.886,0.054
								c0.018,0.489,0.035,0.946,0.055,1.371c0.018,0.425,0.035,0.854,0.054,1.289c0.018,0.434,0.031,0.886,0.04,1.356
								c0.01,0.471,0.014,0.995,0.014,1.574c0,0.813,0,1.597,0,2.347c0,0.751-0.009,1.502-0.026,2.252
								c-0.019,0.751-0.036,1.507-0.055,2.267s-0.046,1.547-0.081,2.36c-0.019,0.435-0.059,0.77-0.122,1.004
								c-0.063,0.235-0.149,0.417-0.258,0.543s-0.235,0.203-0.38,0.23s-0.309,0.041-0.488,0.041c-0.326,0-0.602-0.113-0.828-0.339
								c-0.227-0.227-0.357-0.71-0.394-1.452c-0.036-0.651-0.059-1.339-0.067-2.063c-0.01-0.724-0.023-1.501-0.041-2.334
								c-0.018-0.831-0.027-1.731-0.027-2.699s0-2.04,0-3.216c0-0.995,0.004-1.863,0.014-2.605c0.01-0.741,0.031-1.384,0.068-1.927
								h-1.113c-0.76,0-1.406-0.009-1.939-0.026c-0.534-0.019-0.973-0.068-1.316-0.149c-0.344-0.082-0.593-0.213-0.746-0.394
								c-0.154-0.181-0.23-0.435-0.23-0.76c0-0.163,0.018-0.313,0.054-0.448s0.118-0.262,0.245-0.38
								c0.125-0.117,0.303-0.212,0.528-0.284s0.521-0.127,0.882-0.163c0.344-0.018,0.651-0.036,0.923-0.055
								c0.271-0.018,0.542-0.036,0.813-0.054s0.553-0.027,0.842-0.027s0.624,0,1.004,0c1.067,0,2.076,0.01,3.025,0.027
								c0.95,0.018,1.959,0.054,3.025,0.108c0.435,0.036,0.77,0.086,1.004,0.149c0.235,0.063,0.416,0.149,0.543,0.258
								s0.204,0.235,0.23,0.38c0.027,0.145,0.041,0.308,0.041,0.488c0,0.325-0.113,0.597-0.339,0.814
								C1183.69,326.159,1183.207,326.286,1182.465,326.322z"/>
							<path fill="#414042" d="M1187.105,341.138c-0.037-0.651-0.06-1.329-0.068-2.035c-0.01-0.705-0.023-1.465-0.041-2.279
								s-0.027-1.696-0.027-2.646c0-0.95,0-2.013,0-3.188c0-1.284,0.01-2.384,0.027-3.297s0.072-1.66,0.163-2.239
								c0.091-0.578,0.231-1.004,0.421-1.275s0.447-0.406,0.773-0.406c0.162,0,0.316,0.018,0.461,0.054s0.271,0.113,0.38,0.23
								c0.108,0.118,0.204,0.29,0.285,0.516c0.081,0.227,0.131,0.521,0.149,0.882c0.035,0.651,0.063,1.23,0.081,1.737
								s0.036,1.009,0.054,1.506c0.019,0.498,0.027,1.014,0.027,1.547s0,1.135,0,1.805c0,0.813,0,1.592,0,2.333
								c0,0.742-0.009,1.475-0.027,2.198c-0.018,0.724-0.035,1.456-0.054,2.198s-0.046,1.52-0.081,2.333
								c-0.019,0.435-0.064,0.77-0.136,1.005c-0.073,0.235-0.163,0.416-0.271,0.542c-0.108,0.127-0.235,0.204-0.38,0.23
								c-0.145,0.027-0.309,0.041-0.488,0.041c-0.326,0-0.606-0.112-0.842-0.339C1187.277,342.363,1187.14,341.88,1187.105,341.138z
								"/>
							<path fill="#414042" d="M1200.726,341.735c-0.235,0.434-0.447,0.75-0.638,0.949s-0.43,0.299-0.72,0.299
								c-0.289,0-0.542-0.1-0.76-0.299c-0.217-0.199-0.451-0.506-0.705-0.923c-0.325-0.542-0.691-1.293-1.099-2.252
								s-0.819-2.003-1.235-3.134s-0.822-2.303-1.221-3.515s-0.756-2.352-1.072-3.419s-0.569-2.003-0.76-2.809
								c-0.189-0.805-0.285-1.379-0.285-1.723c0-0.362,0.072-0.634,0.218-0.814c0.145-0.181,0.425-0.271,0.841-0.271
								c0.235,0,0.439,0.059,0.611,0.177c0.172,0.117,0.393,0.447,0.664,0.99c0.217,0.416,0.452,0.959,0.706,1.628
								c0.253,0.67,0.52,1.411,0.8,2.226c0.281,0.813,0.566,1.669,0.855,2.564s0.578,1.786,0.868,2.673
								c0.289,0.886,0.561,1.736,0.813,2.551c0.254,0.813,0.489,1.546,0.706,2.197c0.218-0.669,0.462-1.415,0.733-2.238
								s0.551-1.673,0.841-2.551c0.289-0.877,0.579-1.764,0.868-2.659s0.578-1.741,0.868-2.537c0.289-0.796,0.561-1.528,0.814-2.198
								c0.253-0.669,0.479-1.221,0.679-1.655c0.252-0.524,0.475-0.851,0.664-0.977c0.189-0.127,0.385-0.19,0.584-0.19
								c0.416,0,0.701,0.104,0.854,0.313s0.23,0.511,0.23,0.909c0,0.361-0.054,0.796-0.163,1.302
								c-0.108,0.507-0.294,1.181-0.556,2.021c-0.263,0.842-0.61,1.887-1.045,3.135s-0.968,2.777-1.601,4.586
								c-0.163,0.488-0.35,0.995-0.557,1.52c-0.209,0.524-0.416,1.036-0.624,1.533c-0.208,0.498-0.412,0.973-0.61,1.425
								C1201.097,341.021,1200.907,341.409,1200.726,341.735z"/>
							<path fill="#414042" d="M1208.786,338.695c-0.036-0.578-0.073-1.365-0.108-2.36c-0.037-0.995-0.055-2.017-0.055-3.066
								c0-0.597,0.004-1.217,0.014-1.858c0.009-0.643,0.022-1.298,0.041-1.968c0.035-1.339,0.122-2.388,0.258-3.147
								c0.135-0.76,0.406-1.33,0.814-1.71c0.406-0.38,0.98-0.614,1.723-0.705c0.741-0.091,1.727-0.136,2.957-0.136
								c0.019,0,0.213,0,0.584,0s0.818,0.005,1.344,0.014c0.523,0.009,1.071,0.022,1.641,0.04c0.57,0.019,1.045,0.037,1.426,0.055
								c0.396,0.036,0.719,0.086,0.963,0.149s0.43,0.145,0.557,0.244c0.126,0.1,0.207,0.217,0.244,0.353
								c0.035,0.136,0.054,0.285,0.054,0.448c0,0.416-0.118,0.719-0.353,0.908c-0.235,0.19-0.715,0.313-1.438,0.367
								c-0.362,0.036-0.892,0.059-1.587,0.067c-0.697,0.01-1.407,0.014-2.131,0.014c-0.723,0-1.375,0.005-1.953,0.014
								c-0.58,0.009-0.941,0.014-1.086,0.014c-0.471,0.018-0.801,0.122-0.99,0.312c-0.189,0.19-0.285,0.638-0.285,1.344
								c0,0.162,0.014,0.556,0.041,1.18c0.027,0.625,0.041,1.497,0.041,2.619h2.252c0.959,0,1.74,0.014,2.348,0.041
								c0.605,0.026,1.076,0.086,1.41,0.176c0.335,0.091,0.565,0.235,0.692,0.435c0.126,0.199,0.19,0.461,0.19,0.787
								c0,0.162-0.014,0.312-0.041,0.447s-0.104,0.254-0.23,0.353c-0.127,0.1-0.309,0.182-0.543,0.244
								c-0.235,0.063-0.57,0.113-1.004,0.149c-0.525,0.037-1.018,0.06-1.479,0.068c-0.462,0.009-0.919,0.014-1.371,0.014h-2.279
								c0,0.271,0,0.597,0,0.977s0,0.769,0,1.167c0,0.397,0.004,0.787,0.014,1.167c0.009,0.38,0.022,0.688,0.041,0.922
								c0.018,0.29,0.059,0.534,0.121,0.733c0.064,0.199,0.182,0.361,0.354,0.488s0.425,0.217,0.76,0.271
								c0.334,0.054,0.782,0.081,1.344,0.081h5.834c0.633,0,1.031,0.118,1.193,0.353c0.163,0.235,0.244,0.552,0.244,0.95
								c0,0.325-0.072,0.574-0.217,0.746s-0.493,0.299-1.045,0.38s-1.375,0.131-2.469,0.149c-1.096,0.018-2.602,0.027-4.519,0.027
								c-0.813,0-1.483-0.073-2.008-0.218s-0.95-0.389-1.275-0.732s-0.565-0.791-0.72-1.343
								C1208.944,340.166,1208.84,339.492,1208.786,338.695z"/>
						</g>
					</g>
					
						<ellipse transform="matrix(-0.4423 -0.8969 0.8969 -0.4423 1628.0803 1732.5471)" opacity="0.5" fill="#231F20" enable-background="new    " cx="1352.738" cy="360.057" rx="11.091" ry="44.884"/>
					<g>
						
							<ellipse transform="matrix(-0.8477 0.5304 -0.5304 -0.8477 2702.5732 -129.0502)" fill="#BF3420" cx="1369.81" cy="323.389" rx="17.675" ry="32.335"/>
						<g>
							
								<ellipse transform="matrix(-0.8478 0.5304 -0.5304 -0.8478 2620.4185 -37.8222)" fill="#A4B815" cx="1315.637" cy="357.168" rx="13.938" ry="25.502"/>
							
								<ellipse transform="matrix(-0.8478 0.5304 -0.5304 -0.8478 2698.7183 -124.9663)" fill="#A4B815" cx="1367.295" cy="324.845" rx="15.939" ry="29.16"/>
							<polygon fill="#A4B815" points="1302.101,335.617 1351.642,299.906 1382.935,349.923 1329.152,378.853 							"/>
						</g>
						
							<ellipse transform="matrix(-0.8478 0.5304 -0.5304 -0.8478 2616.0938 -33.0569)" fill="#BF3420" cx="1312.791" cy="358.939" rx="11.621" ry="21.26"/>
						<path opacity="0.1" fill="#231F20" enable-background="new    " d="M1347.898,302.604l-45.797,33.013
							c-3.594,2.25-4.974,7.204-4.242,13.193c-0.176,4.708,1.549,10.668,5.104,16.349l81.854-51.211
							c-9.471-15.14-23.859-23.218-32.137-18.039C1350.371,297.352,1348.785,299.677,1347.898,302.604z"/>
					</g>
					<path fill="none" stroke="#0F4955" stroke-width="3" stroke-linecap="round" stroke-miterlimit="10" d="M1304.687,357.235
						c-11.496,6.431-31.793,17.583-34.26,31.677c-3.142,17.946,17.119,29.735,17.573,46.867
						c0.558,21.051-41.161,40.563-27.521,61.19c13.502,20.42,31.42-15.326-8.535-1.213c-16.735,5.92-0.453,35.312,3.191,45.125
						c9.713,26.166,0.44,39.762,2.782,66.271"/>
				</g>
				<path fill="none" stroke="#0F4955" stroke-width="3" stroke-linecap="round" stroke-miterlimit="10" d="M405.121,512.34
					c0,0,103.64,51.747,7.145,151.445"/>
				<path fill="none" stroke="#0F4955" stroke-width="3" stroke-linecap="round" stroke-miterlimit="10" d="M990.812,521.021
					c-23.051,21.678-73.008,7.469-75.721,54.795c-2.006,34.959,46.756,10.154,14.767-2.482c-14.329-5.66-39.92,4.938-46.828,18.479
					c-11.555,22.646,9.563,35.612,27.615,46.843"/>
				<path fill="none" stroke="#0F4955" stroke-width="3" stroke-linecap="round" stroke-miterlimit="10" d="M1273.955,769.416
					c-0.375,3.197,120.013,30.193,152.746-44.637c18.422-42.111-9.004,24.141,74.996,10.645"/>
				<path fill="none" stroke="#0F4955" stroke-width="3" stroke-linecap="round" stroke-miterlimit="10" d="M150.11,737.328
					c-20.018,2.822-45.431,7.935-61.648,20.787c-21.052,16.684,2.774,64.118,18.218,33.792
					C124.764,756.39,81.223,695.482,42.011,714c-35.179,16.612-52.707,63.123-78.817,89.992
					c-27.542,28.345-63.383,49.192-100.422,62.602"/>
			</g>
		</g>
	</g>
</g>
</svg>
