<?xml version="1.0" encoding="utf-8"?>
<!-- Generator: Adobe Illustrator 16.0.0, SVG Export Plug-In . SVG Version: 6.00 Build 0)  -->
<!DOCTYPE svg PUBLIC "-//W3C//DTD SVG 1.1//EN" "http://www.w3.org/Graphics/SVG/1.1/DTD/svg11.dtd">
<svg version="1.1" id="Layer_1" xmlns="http://www.w3.org/2000/svg" xmlns:xlink="http://www.w3.org/1999/xlink" x="0px" y="0px"
	 width="1417.32px" height="884.41px" viewBox="0 0 1417.32 884.41" enable-background="new 0 0 1417.32 884.41"
	 xml:space="preserve">
<rect x="0" fill="#FF9648" width="1417.32" height="884.41"/>
<polygon opacity="0.05" points="234.385,885.531 0.161,885.531 0.161,0.405 704.939,0.405 "/>
<rect x="118.892" y="92.433" fill="#EA6B15" width="212.926" height="249.526"/>
<rect x="143.648" y="118.993" fill="#F9873A" width="164.134" height="195.644"/>
<rect x="937.57" y="312.506" fill="#EA6B15" width="360.012" height="41.066"/>
<rect x="1200.527" y="84.2" fill="#EA6B15" width="68.164" height="219.705"/>
<rect x="1210.703" y="101.081" fill="#F9873A" width="46.574" height="10.098"/>
<rect x="1210.703" y="129.693" fill="#F9873A" width="46.574" height="10.098"/>
<rect x="1210.703" y="276.965" fill="#F9873A" width="46.574" height="10.099"/>
<rect x="1213.016" y="216.972" fill="#E6E7E8" width="43.186" height="43.185"/>
<text transform="matrix(1 0 0 1 1227.4119 248.7988)" fill="#414042" font-family="'Sniglet-Regular'" font-size="27">4</text>
<rect x="1119.908" y="84.2" fill="#EA6B15" width="68.164" height="219.705"/>
<rect x="1130.084" y="101.081" fill="#F9873A" width="46.574" height="10.098"/>
<rect x="1130.084" y="129.693" fill="#F9873A" width="46.574" height="10.098"/>
<rect x="1130.084" y="276.965" fill="#F9873A" width="46.574" height="10.099"/>
<rect x="1132.397" y="216.972" fill="#E6E7E8" width="43.186" height="43.185"/>
<text transform="matrix(1 0 0 1 1147.7927 248.7988)" fill="#414042" font-family="'Sniglet-Regular'" font-size="27">3</text>
<rect x="1040.527" y="84.2" fill="#EA6B15" width="68.164" height="219.705"/>
<rect x="1050.703" y="101.081" fill="#F9873A" width="46.574" height="10.098"/>
<rect x="1050.703" y="129.693" fill="#F9873A" width="46.574" height="10.098"/>
<rect x="1050.703" y="276.965" fill="#F9873A" width="46.574" height="10.099"/>
<rect x="1053.016" y="216.972" fill="#E6E7E8" width="43.186" height="43.185"/>
<text transform="matrix(1 0 0 1 1068.4119 248.7988)" fill="#414042" font-family="'Sniglet-Regular'" font-size="27">2</text>
<rect x="960.527" y="84.2" fill="#EA6B15" width="68.164" height="219.705"/>
<rect x="970.703" y="101.081" fill="#F9873A" width="46.574" height="10.098"/>
<rect x="970.703" y="129.693" fill="#F9873A" width="46.574" height="10.098"/>
<rect x="970.703" y="276.965" fill="#F9873A" width="46.574" height="10.099"/>
<rect x="973.016" y="216.972" fill="#E6E7E8" width="43.186" height="43.185"/>
<text transform="matrix(1 0 0 1 989.4119 248.7988)" fill="#414042" font-family="'Sniglet-Regular'" font-size="27">1</text>
</svg>
