<?xml version="1.0" encoding="utf-8"?>
<!-- Generator: Adobe Illustrator 16.0.0, SVG Export Plug-In . SVG Version: 6.00 Build 0)  -->
<!DOCTYPE svg PUBLIC "-//W3C//DTD SVG 1.1//EN" "http://www.w3.org/Graphics/SVG/1.1/DTD/svg11.dtd">
<svg version="1.1" id="Layer_1" xmlns="http://www.w3.org/2000/svg" xmlns:xlink="http://www.w3.org/1999/xlink" x="0px" y="0px"
	 width="1417.32px" height="2200px" viewBox="0 0 1417.32 2200" enable-background="new 0 0 1417.32 2200" xml:space="preserve">
<g>
	<g>
		<defs>
			<rect id="SVGID_1_" x="-0.001" width="1417.322" height="887.244"/>
		</defs>
		<clipPath id="SVGID_2_">
			<use xlink:href="#SVGID_1_"  overflow="visible"/>
		</clipPath>
		<g clip-path="url(#SVGID_2_)">
			<rect x="-19.002" y="-14.56" fill-rule="evenodd" clip-rule="evenodd" fill="#BACCE3" width="1493.552" height="935.566"/>
			
				<rect x="-19.002" y="-14.56" opacity="0.2" fill-rule="evenodd" clip-rule="evenodd" fill="#BACCE3" width="1493.552" height="935.566"/>
			<rect x="-23" y="500.709" fill-rule="evenodd" clip-rule="evenodd" fill="#7087A9" width="1482" height="420.297"/>
			<rect x="1054.275" y="-14.56" fill-rule="evenodd" clip-rule="evenodd" fill="#7087A9" width="19.494" height="643.569"/>
			<rect x="374.275" y="-14.56" fill-rule="evenodd" clip-rule="evenodd" fill="#7087A9" width="19.494" height="643.569"/>
			<polygon opacity="0.3" fill-rule="evenodd" clip-rule="evenodd" fill="#FFFFFF" points="1054.275,456.709 393.769,256.709 
				393.769,3.709 1054.275,203.709 			"/>
			<polygon opacity="0.3" fill-rule="evenodd" clip-rule="evenodd" fill="#FFFFFF" points="1734.275,456.709 1073.769,256.709 
				1073.769,3.709 1734.275,203.709 			"/>
			<polygon opacity="0.3" fill-rule="evenodd" clip-rule="evenodd" fill="#FFFFFF" points="374.275,456.709 -286.231,256.709 
				-286.231,3.709 374.275,203.709 			"/>
		</g>
		<polygon opacity="0.05" clip-path="url(#SVGID_2_)" points="160.939,887.035 -103.87,887.035 -103.87,0.209 692.939,0.209 		"/>
	</g>
	<ellipse opacity="0.3" cx="274.894" cy="773.099" rx="86.475" ry="6.869"/>
	<path fill="#424048" d="M377.121,340.624c-0.115,0.483-0.238,1.081-0.361,1.564l-5.428,30.474l5.418-30.474
		c0.122-0.483,0.233-1.025,0.348-1.512c7.759-32.22,2.732-70.755-25.423-96.098c-28.58-25.721-76.106-22.177-76.106-22.177
		s-48.218-3.569-76.799,22.151c-28.155,25.339-33.702,63.85-25.944,96.072c0.116,0.483,0.142,1.081,0.264,1.564l5.33,30.474
		l-5.417-30.474c-0.123-0.483-0.232-1.025-0.35-1.512c-5.681,1.483-9.953,7.78-9.953,15.367c0,8.679,5.599,15.705,12.504,15.705
		c0.422,0,1.266-0.037,1.677-0.09c8.156,48.82,29.28,76.478,75.28,83.396v10.814c0,0.07-0.57,0.354-0.527,0.423l-10.236,6.209
		h-0.004l-16.346,1.984c-4.019,0.534-9.947,2.59-20.903,30.973c-7.858,20.361-12.147,32.809-12.862,48.885
		c-0.713,16.077-1.072,55.21-1.072,55.21s1.035,0.09,2.602,0.215c1.965,0.151,4.783,0.32,7.548,0.33
		c-2.767-0.01-5.583-0.191-7.55-0.342c-0.031,0.216-0.063,0.437-0.099,0.618c-4.288,3.217-6.189,13.839,4.287,14.644
		c9.287,0.717,13.216-9.643,6.073-14.286c0,0,0.001-0.252,0.003-0.688c1.643-0.07,3.151-0.228,4.282-0.521
		c0.033-0.057,0-0.937,0-0.937l1.431-52.513l10.358-36.797l-0.714,116.105c0,0,5.873,0.097,13.854,0.22l4.645,118.056
		c0,0,1.896,0.25,4.798,0.485c-2.683,3.652-5.545,8.248-5.271,10.976c0.401,4.009,2.421,9.936,14.119,9.936
		c11.699,0,13.717-5.927,14.12-9.936c0.278-2.758-2.656-7.436-5.367-11.106c2.211-0.282,4.333-0.693,6.207-1.302l-0.394-116.627
		c4.754,0.064,8.513,0.836,10.155,0.836l0,0c-1.643,0-0.063,1.581-0.214,1.581c0.09,0,0.169,0,0.26,0
		c1.461,0,3.153-1.206,5.425-1.233l-0.718,116.028c1.873,0.606,3.936,0.729,6.146,1.006c-2.711,3.675-5.677,8.207-5.397,10.968
		c0.404,4.006,2.406,9.856,14.105,9.856c11.698,0,13.71-5.961,14.111-9.97c0.274-2.726-2.592-7.339-5.274-10.994
		c2.904-0.232,4.798-0.495,4.798-0.495l4.643-118.055c7.94-0.127,13.851-0.231,13.851-0.231l-0.712-116.104l10.359,36.797
		l1.43,52.513c0,0-0.033,0.88,0,0.937c1.134,0.294,2.638,0.451,4.28,0.521c0.004,0.436,0.007,0.688,0.007,0.688
		c-7.146,4.644-3.217,15.001,6.071,14.287c10.479-0.806,8.575-11.433,4.287-14.644c-0.036-0.184-0.066-0.407-0.1-0.621
		c1.567-0.124,2.601-0.231,2.601-0.231s-0.357-39.16-1.069-55.238c-0.714-16.074-5.006-28.577-12.863-48.94
		c-10.954-28.382-16.879-30.548-20.897-31.081l-16.41-2.212l-7.248-6.087c0.02-0.034,0.393-0.063,0.393-0.096v-10.259
		c0-0.006-0.225-0.01-0.168-0.019c49.075-5.898,68.409-33.73,76.665-83.937c0.406,0.052,0.645,0.077,1.062,0.077
		c6.905,0,12.418-7.036,12.418-15.719C387.137,348.43,382.802,342.105,377.121,340.624z M273.336,481.382
		c-0.006-0.002-0.018-0.002-0.025-0.002"/>
	<g>
		<path fill="#FFFFFF" d="M217.226,315.313c1.089,0,2.187,0.091,3.293,0.272c1.105,0.182,2.104,0.462,2.995,0.842
			c0.891,0.38,1.625,0.841,2.203,1.386c0.577,0.544,0.866,1.18,0.866,1.906c0,0.759-0.198,1.336-0.594,1.733
			c-0.396,0.396-0.892,0.594-1.485,0.594c-0.562,0-1.057-0.09-1.485-0.272c-0.43-0.181-0.916-0.388-1.461-0.619
			c-0.544-0.23-1.196-0.437-1.955-0.619c-0.76-0.181-1.767-0.272-3.021-0.272c-1.255,0-2.451,0.322-3.59,0.965
			s-2.129,1.535-2.971,2.674c-0.841,1.139-1.51,2.484-2.005,4.035c-0.495,1.552-0.742,3.235-0.742,5.05
			c0,2.245,0.288,4.176,0.866,5.793c0.577,1.618,1.328,2.946,2.253,3.985c0.923,1.04,1.972,1.816,3.144,2.327
			c1.171,0.512,2.352,0.768,3.54,0.768c1.419,0,2.607-0.148,3.564-0.446c0.957-0.297,1.774-0.626,2.451-0.99
			c0.676-0.363,1.263-0.693,1.758-0.99c0.495-0.297,0.973-0.445,1.436-0.445c0.561,0,1.007,0.157,1.337,0.47
			c0.329,0.314,0.495,0.866,0.495,1.659c0,0.661-0.256,1.329-0.768,2.005c-0.512,0.677-1.255,1.288-2.228,1.832
			c-0.975,0.545-2.138,0.99-3.491,1.337s-2.871,0.52-4.555,0.52c-1.849,0-3.688-0.364-5.521-1.089s-3.466-1.807-4.901-3.243
			c-1.436-1.436-2.6-3.234-3.49-5.396c-0.892-2.162-1.337-4.679-1.337-7.55s0.403-5.429,1.213-7.674
			c0.809-2.244,1.914-4.15,3.317-5.719c1.402-1.567,3.036-2.764,4.901-3.589C213.125,315.727,215.114,315.313,217.226,315.313z"/>
		<path fill="#FFFFFF" d="M237.427,336.554c0,1.057,0,1.989,0,2.797c0,0.809-0.009,1.577-0.024,2.302
			c-0.018,0.727-0.042,1.453-0.074,2.178c-0.033,0.727-0.066,1.535-0.1,2.426c2.277-0.264,4.061-0.478,5.348-0.644
			c1.287-0.165,2.302-0.297,3.045-0.396c0.742-0.099,1.319-0.165,1.732-0.198c0.412-0.033,0.899-0.049,1.461-0.049
			c1.452,0,2.179,0.71,2.179,2.129c0,0.562-0.29,1.04-0.867,1.436s-1.304,0.735-2.178,1.015c-0.875,0.281-1.85,0.512-2.922,0.693
			c-1.072,0.181-2.112,0.313-3.119,0.396c-1.007,0.082-1.914,0.14-2.723,0.173c-0.81,0.032-1.379,0.049-1.708,0.049
			c-1.188,0-2.113-0.074-2.772-0.223c-0.661-0.149-1.156-0.594-1.485-1.337c-0.331-0.743-0.537-1.873-0.619-3.392
			c-0.083-1.518-0.124-3.664-0.124-6.437c0-2.673,0-5.05,0-7.129s0.017-3.944,0.05-5.595c0.032-1.65,0.058-3.119,0.074-4.406
			c0.017-1.288,0.058-2.458,0.124-3.516c0.065-1.353,0.297-2.235,0.692-2.648c0.396-0.413,0.892-0.619,1.485-0.619
			c0.33,0,0.619,0.025,0.867,0.074c0.247,0.05,0.47,0.19,0.668,0.421c0.198,0.231,0.354,0.562,0.471,0.99
			c0.115,0.429,0.189,1.04,0.223,1.832c0.132,2.905,0.214,5.776,0.247,8.615C237.41,330.333,237.427,333.353,237.427,336.554z"/>
		<path fill="#FFFFFF" d="M255.696,347.297c-0.066-1.188-0.107-2.426-0.124-3.713c-0.017-1.287-0.042-2.673-0.074-4.159
			c-0.033-1.485-0.05-3.094-0.05-4.827s0-3.672,0-5.818c0-2.343,0.017-4.348,0.05-6.015c0.032-1.667,0.132-3.028,0.297-4.085
			c0.165-1.056,0.421-1.832,0.768-2.327s0.816-0.743,1.411-0.743c0.297,0,0.577,0.033,0.842,0.099
			c0.264,0.067,0.495,0.207,0.693,0.421c0.197,0.215,0.371,0.528,0.52,0.941c0.148,0.413,0.239,0.949,0.272,1.609
			c0.065,1.188,0.115,2.245,0.148,3.169c0.032,0.924,0.065,1.84,0.099,2.748c0.032,0.908,0.05,1.849,0.05,2.822
			c0,0.974,0,2.072,0,3.292c0,1.485,0,2.905,0,4.258c0,1.354-0.018,2.691-0.05,4.01c-0.033,1.321-0.066,2.658-0.099,4.011
			c-0.033,1.354-0.083,2.772-0.148,4.258c-0.033,0.792-0.116,1.403-0.248,1.832c-0.132,0.429-0.297,0.759-0.495,0.99
			s-0.429,0.371-0.693,0.42c-0.265,0.05-0.562,0.075-0.891,0.075c-0.595,0-1.106-0.206-1.535-0.619
			C256.01,349.534,255.761,348.651,255.696,347.297z"/>
		<path fill="#FFFFFF" d="M267.33,342.841c-0.066-1.056-0.132-2.492-0.197-4.307c-0.067-1.815-0.1-3.68-0.1-5.595
			c0-1.089,0.008-2.22,0.025-3.392c0.016-1.171,0.041-2.368,0.074-3.589c0.065-2.442,0.223-4.357,0.47-5.743
			c0.248-1.387,0.743-2.426,1.485-3.119c0.743-0.693,1.79-1.122,3.145-1.288c1.353-0.165,3.151-0.248,5.396-0.248
			c0.032,0,0.388,0,1.064,0c0.676,0,1.493,0.009,2.45,0.025c0.957,0.017,1.956,0.042,2.996,0.074
			c1.039,0.033,1.906,0.066,2.599,0.099c0.726,0.066,1.313,0.157,1.758,0.272c0.446,0.116,0.784,0.265,1.016,0.446
			c0.23,0.182,0.379,0.396,0.445,0.644c0.065,0.248,0.099,0.52,0.099,0.817c0,0.76-0.215,1.312-0.644,1.659
			c-0.43,0.347-1.304,0.569-2.624,0.668c-0.66,0.066-1.626,0.107-2.896,0.124c-1.271,0.017-2.566,0.025-3.887,0.025
			s-2.509,0.009-3.564,0.025c-1.057,0.017-1.717,0.025-1.98,0.025c-0.858,0.033-1.461,0.223-1.807,0.569
			c-0.347,0.346-0.521,1.164-0.521,2.451c0,0.297,0.025,1.015,0.074,2.154c0.05,1.139,0.074,2.731,0.074,4.778h4.109
			c1.749,0,3.177,0.024,4.283,0.074c1.105,0.049,1.963,0.157,2.574,0.322c0.61,0.166,1.031,0.429,1.263,0.792
			c0.23,0.364,0.347,0.842,0.347,1.436c0,0.297-0.025,0.569-0.074,0.817c-0.05,0.248-0.19,0.462-0.421,0.644
			c-0.231,0.182-0.562,0.33-0.99,0.446c-0.43,0.116-1.04,0.207-1.832,0.272c-0.958,0.066-1.856,0.107-2.698,0.124
			c-0.842,0.017-1.676,0.024-2.5,0.024h-4.159c0,0.495,0,1.089,0,1.783c0,0.693,0,1.403,0,2.129c0,0.727,0.008,1.436,0.024,2.129
			s0.041,1.255,0.074,1.683c0.033,0.529,0.107,0.974,0.223,1.337c0.115,0.364,0.33,0.661,0.645,0.891
			c0.313,0.231,0.774,0.396,1.386,0.495c0.61,0.099,1.428,0.149,2.451,0.149h10.645c1.155,0,1.882,0.215,2.179,0.644
			c0.297,0.429,0.445,1.007,0.445,1.733c0,0.594-0.132,1.048-0.396,1.361c-0.264,0.314-0.899,0.545-1.905,0.693
			c-1.008,0.148-2.509,0.239-4.506,0.272c-1.997,0.033-4.745,0.05-8.243,0.05c-1.485,0-2.707-0.132-3.664-0.396
			c-0.958-0.264-1.733-0.709-2.327-1.337c-0.594-0.626-1.032-1.444-1.313-2.451S267.429,344.294,267.33,342.841z"/>
		<path fill="#FFFFFF" d="M314.316,348.04c-1.058-1.452-2.056-2.896-2.996-4.332s-1.947-3.012-3.02-4.729
			c-1.073-1.716-2.295-3.622-3.664-5.718c-1.37-2.096-3.013-4.546-4.927-7.353c0,2.476,0,4.696,0,6.659
			c0,1.964-0.017,3.788-0.049,5.471c-0.033,1.683-0.067,3.268-0.1,4.753c-0.033,1.485-0.083,2.971-0.148,4.456
			c-0.033,0.792-0.107,1.403-0.223,1.832c-0.116,0.429-0.272,0.759-0.471,0.99c-0.197,0.231-0.421,0.371-0.668,0.42
			c-0.248,0.05-0.537,0.075-0.866,0.075c-0.595,0-1.09-0.206-1.485-0.619c-0.396-0.412-0.628-1.295-0.693-2.649
			c-0.166-3.63-0.256-7.27-0.272-10.917c-0.017-3.647-0.024-7.418-0.024-11.313c0-2.211,0.024-3.944,0.074-5.199
			c0.049-1.254,0.164-2.195,0.347-2.822c0.181-0.626,0.428-1.022,0.742-1.188c0.313-0.165,0.734-0.248,1.263-0.248
			c0.527,0,1.221,0.404,2.079,1.213c0.858,0.809,1.799,1.874,2.822,3.193c1.022,1.32,2.12,2.839,3.293,4.555
			c1.171,1.716,2.334,3.482,3.49,5.297c1.155,1.816,2.269,3.614,3.342,5.397c1.072,1.782,2.055,3.4,2.946,4.852
			c-0.033-1.551-0.05-3.259-0.05-5.125c0-1.864,0-3.936,0-6.214c0-2.607,0.017-4.761,0.05-6.461c0.032-1.7,0.123-3.045,0.272-4.035
			c0.148-0.99,0.387-1.683,0.718-2.08c0.329-0.396,0.792-0.594,1.386-0.594c0.562,0,1.057,0.182,1.485,0.544
			c0.429,0.364,0.677,1.205,0.743,2.525c0.065,1.188,0.115,2.245,0.148,3.169c0.032,0.924,0.065,1.84,0.099,2.748
			c0.032,0.908,0.05,1.849,0.05,2.822c0,0.974,0,2.072,0,3.292c0,1.485,0,2.905,0,4.258c0,1.354-0.018,2.691-0.05,4.01
			c-0.033,1.321-0.066,2.658-0.099,4.011c-0.033,1.354-0.083,2.772-0.148,4.258c-0.033,0.792-0.107,1.403-0.223,1.832
			c-0.116,0.429-0.272,0.759-0.471,0.99s-0.421,0.371-0.669,0.42c-0.247,0.05-0.536,0.075-0.866,0.075
			c-0.562,0-1.039-0.166-1.436-0.495S315.075,349.063,314.316,348.04z"/>
		<path fill="#FFFFFF" d="M345.211,320.265c-0.925,0.066-1.906,0.116-2.946,0.148c-1.04,0.033-2.187,0.066-3.441,0.099
			c0.033,0.891,0.066,1.725,0.1,2.5c0.032,0.776,0.065,1.56,0.099,2.352s0.058,1.618,0.074,2.476
			c0.017,0.859,0.025,1.815,0.025,2.872c0,1.485,0,2.914,0,4.283c0,1.37-0.018,2.74-0.05,4.109c-0.033,1.37-0.066,2.748-0.099,4.134
			c-0.034,1.386-0.083,2.822-0.149,4.307c-0.033,0.792-0.107,1.403-0.223,1.832c-0.116,0.429-0.272,0.76-0.47,0.99
			c-0.198,0.23-0.43,0.371-0.693,0.421c-0.265,0.049-0.562,0.074-0.892,0.074c-0.594,0-1.098-0.207-1.51-0.619
			c-0.413-0.413-0.652-1.295-0.718-2.649c-0.066-1.188-0.107-2.442-0.124-3.763c-0.017-1.319-0.042-2.739-0.074-4.258
			c-0.033-1.518-0.05-3.16-0.05-4.926c0-1.765,0-3.721,0-5.867c0-1.814,0.008-3.399,0.025-4.753
			c0.016-1.353,0.057-2.525,0.123-3.515h-2.029c-1.387,0-2.567-0.016-3.54-0.049c-0.975-0.033-1.774-0.124-2.401-0.272
			c-0.628-0.148-1.082-0.388-1.361-0.718c-0.281-0.33-0.421-0.792-0.421-1.387c0-0.297,0.032-0.569,0.099-0.817
			c0.065-0.248,0.215-0.478,0.445-0.693c0.23-0.214,0.553-0.388,0.966-0.52c0.412-0.131,0.948-0.23,1.609-0.297
			c0.626-0.033,1.188-0.066,1.684-0.099c0.495-0.033,0.99-0.066,1.484-0.099c0.495-0.032,1.007-0.049,1.535-0.049
			c0.527,0,1.139,0,1.832,0c1.947,0,3.788,0.017,5.521,0.049c1.732,0.033,3.572,0.099,5.521,0.198
			c0.792,0.066,1.402,0.157,1.832,0.272c0.429,0.116,0.759,0.272,0.99,0.471c0.23,0.198,0.371,0.429,0.421,0.693
			c0.049,0.265,0.074,0.562,0.074,0.891c0,0.594-0.207,1.089-0.619,1.485C347.446,319.968,346.563,320.199,345.211,320.265z"/>
	</g>
</g>
</svg>
