<?xml version="1.0" encoding="utf-8"?>
<!-- Generator: Adobe Illustrator 16.0.0, SVG Export Plug-In . SVG Version: 6.00 Build 0)  -->
<!DOCTYPE svg PUBLIC "-//W3C//DTD SVG 1.1//EN" "http://www.w3.org/Graphics/SVG/1.1/DTD/svg11.dtd">
<svg version="1.1" id="Layer_1" xmlns="http://www.w3.org/2000/svg" xmlns:xlink="http://www.w3.org/1999/xlink" x="0px" y="0px"
	 width="412.391px" height="611.192px" viewBox="0 0 412.391 611.192" enable-background="new 0 0 412.391 611.192"
	 xml:space="preserve">
<g>
	<polygon fill="#C2E4D5" points="139.623,204.115 120.191,388.631 280.621,388.631 256.107,206.122 	"/>
	<path fill="#B55D28" d="M190.746,417.316c0,0-15.73,148.975,0,173.959c15.731,24.982,99.922,19.342,139.723,19.432
		c52.332,0.115,47.125-39.789,41.012-51.82c-9.752-19.191-41.012-37.936-47.488-3.699c-4.143,21.896,10.668,29.947,1.85,33.313
		c-17.313,6.602-82.752-0.18-100.293-9.254c-25.822-13.359-21.67-61.998-16.207-99.936c5.461-37.936,7.879-61.994,7.879-61.994
		H190.746z"/>
	<path fill="#F8AD85" d="M336.318,124.701c5.58-23.52,46.717-80.488,55.049-22.016C397.307,144.374,350.447,170.064,336.318,124.701
		z"/>
	<path fill="#1A6735" d="M280.621,384.006c0,0,5.344-1.502,49.848,8.326c43.057,9.508,80.963,22.99,81.889,55.377
		c0.924,32.385-17.07,41.641-60.273,58.055c-30.139,11.449-84.766,8.98-86.115,0c-2.209-14.691,24.369-25.387,49.488-37.238
		c20.861-9.84,24.797-11.83,28.984-17.1c5.35-6.729-17.801-12.861-48.334-14.713c-30.537-1.852-74.021-3.4-161.632-5.73
		c-56.169-1.494-71.602-2.574-71.189,7.451c0.248,5.99,11.581,6.305,47.882,12.193c64.85,10.52,70.108,8.408,68.473,19.434
		c-1.802,12.15-38.173,19.604-79.73,21.322c-52.221,2.16-96.236-5.377-99.78-50.936c-4.744-60.998,120.06-56.441,120.06-56.441"/>
	<polygon fill="#1A6735" points="127.647,375.658 119.267,390.02 281.545,389.898 270.537,367.041 	"/>
	<polygon fill="#C2E4D5" points="138.666,390.122 140.72,349.427 178.214,334.37 193.938,387.387 	"/>
	<path fill="#B55D28" d="M330.469,142.498c-0.145,71.07-62.234,66.621-133.012,66.621c-70.779,0-123.455-10.074-128.155-57.367
		C62.128,79.577,126.677,37.012,197.457,37.012C268.234,37.012,330.586,85.128,330.469,142.498z"/>
	<path fill="#F8AD85" d="M145.406,63.846C97.18,82.353,83.41,111.037,97.894,134.17c12.088,19.303,68.793-0.925,64.921,5.996
		c-21.079,37.685,7.573,54.696,39.96,54.696c34.236,0,57.371-10.725,42.807-43.303c-3.834-8.577-14.014-16.847,12.713-8.136
		c48.885,15.934,76.799-44.415,12.953-71.25C243.643,60.571,191.02,46.342,145.406,63.846z"/>
	<path fill="#2E1810" d="M138.915,118.029c0,13.265-12.313,13.265-12.313,0C126.603,104.764,138.915,104.764,138.915,118.029z"/>
	<path fill="#2E1810" d="M278.283,122.848c0,13.265-12.314,13.265-12.314,0C265.969,109.583,278.283,109.583,278.283,122.848z"/>
	<path fill="#B55D28" d="M162.167,40.318c0,0,45.522-3.306,60.965-21.812C229.156,11.285,231.461,0,231.461,0
		s18.238,11.613,24.057,28.685c6.549,19.214-21.283,20.356-21.283,20.356L162.167,40.318z"/>
	<path fill="#4E200F" d="M183.853,133.245c0,0,0.478,0.833,1.354,2.127c0.438,0.646,0.957,1.414,1.592,2.23
		c0.304,0.415,0.646,0.834,1.011,1.262c0.343,0.439,0.743,0.861,1.152,1.292c0.801,0.868,1.724,1.698,2.707,2.452
		c0.473,0.401,1.033,0.692,1.537,1.053c0.532,0.325,1.11,0.575,1.647,0.885c0.582,0.241,1.185,0.44,1.756,0.699
		c0.622,0.166,1.261,0.298,1.872,0.505c0.651,0.127,1.338,0.162,1.992,0.311c0.667,0.117,1.401,0.071,2.097,0.129l0.526,0.046
		l0.133,0.013l0.033,0.003l0.016,0.001c0.072-0.001-0.568,0.021-0.287,0.011l0.082-0.004l0.326-0.016l1.305-0.063
		c0.435-0.022,0.869-0.044,1.301-0.046l0.826-0.146c0.271-0.042,0.545-0.078,0.822-0.105c0.281-0.026,0.57-0.151,0.857-0.214
		c0.295-0.073,0.586-0.146,0.875-0.217c0.264-0.11,0.523-0.218,0.783-0.326c0.256-0.115,0.554-0.182,0.789-0.325
		c0.226-0.153,0.463-0.293,0.714-0.424c0.537-0.221,0.884-0.66,1.368-0.969c0.457-0.341,0.795-0.8,1.232-1.179
		c0.35-0.453,0.727-0.886,1.057-1.349c1.311-1.866,2.203-3.849,2.793-5.279c0.598-1.44,0.895-2.356,0.895-2.356
		s0.123,0.206,0.301,0.615c0.164,0.408,0.436,1.019,0.646,1.825c0.225,0.807,0.43,1.809,0.525,2.998
		c0.1,1.188,0.059,2.558-0.191,4.086c-0.129,0.761-0.387,1.542-0.615,2.375c-0.346,0.792-0.674,1.65-1.166,2.468
		c-0.529,0.793-1.035,1.675-1.777,2.392c-0.352,0.38-0.723,0.756-1.107,1.124c-0.385,0.364-0.836,0.641-1.27,0.966
		c-0.441,0.305-0.885,0.645-1.355,0.915c-0.486,0.226-0.975,0.454-1.467,0.683c-0.506,0.214-0.985,0.473-1.531,0.642
		c-0.561,0.141-1.125,0.282-1.691,0.424c-0.562,0.13-1.164,0.27-1.705,0.372c-0.43,0.054-0.865,0.087-1.297,0.121l-1.303,0.104
		l-0.326,0.026l-0.081,0.006l-0.329,0.011l-0.024-0.001l-0.05-0.002l-0.193-0.008l-0.779-0.036
		c-1.041-0.099-2.068-0.106-3.111-0.305c-1.044-0.213-2.073-0.461-3.084-0.757c-1.003-0.382-1.99-0.776-2.926-1.236
		c-0.907-0.549-1.817-1.057-2.624-1.675c-0.766-0.678-1.573-1.271-2.206-2.004c-0.312-0.367-0.621-0.729-0.924-1.087
		c-0.306-0.353-0.595-0.708-0.818-1.102c-1-1.498-1.714-3.004-2.179-4.426c-0.478-1.418-0.734-2.743-0.855-3.914
		c-0.131-1.169-0.125-2.188-0.068-3.02c0.042-0.83,0.182-1.481,0.255-1.916C183.776,133.469,183.853,133.245,183.853,133.245z"/>
	<circle fill="#61BE98" cx="199.018" cy="278.055" r="5.09"/>
	<circle fill="#61BE98" cx="198.686" cy="315.48" r="5.089"/>
	<g>
		<polygon fill="#E42327" points="144.893,440.459 194.234,502.986 207.988,492.871 160.984,427.477 		"/>
		<polygon fill="#F8AD85" points="194.234,502.986 218.082,518.654 207.988,492.871 		"/>
		<polygon fill="#010101" points="211.519,514.346 214.639,509.867 218.082,518.654 		"/>
	</g>
	<circle fill="#2E1810" cx="196.298" cy="121.462" r="2.776"/>
	<circle fill="#2E1810" cx="206.144" cy="121.462" r="2.776"/>
	<path fill="#61BE98" d="M225.389,235.939c-9.254,6.674-13.262,9.758-13.262,9.758s-3.385-4.654-6.479-12.645
		c-0.949-2.453-2.078-4.77-3.207-6.842l0,0l-5.737-14.259l-6.841,17.296l0.076-0.088c-0.281,0.6-0.552,1.215-0.801,1.859
		c-3.093,7.994-5.552,13.572-5.552,13.572s-1.233-2.16-10.487-8.834c-9.253-6.676-27.759-23.806-27.759-23.806
		c9.702,13.114,40.405,40.659,40.405,40.659s0.447-0.156,6.168-16.885c1.947-5.691,4.221-11.275,5.66-14.684l0.073,0.076
		c0.784,2.979,2.127,7.785,4.3,14.789c5.244,16.883,6.17,16.883,6.17,16.883s28.955-24.336,43.18-32.332
		C251.297,220.459,234.643,229.262,225.389,235.939z"/>
	<path fill="#C2E4D5" d="M124.334,374.732c0,0,10.535,8.346,22.321,15.441c11.785,7.092,38.414,18.813,38.414,18.813
		s6.066-13.744,10.076-22.91c4.009-9.166,5.781-12.754,5.781-12.754s0.326,0.924,4.676,12.742
		c4.348,11.82,9.285,23.232,9.285,23.232s30.227-16.041,39.787-23.133c9.563-7.096,21.805-17.908,21.805-17.908l-9.775-16.947
		L124.334,374.732z"/>
	<path fill="#2E1810" d="M131.665,64.121c-11.072,3.181-20.427,9.862-15.359,15.908c5.067,6.045,12.967,2.764,19.62-2.714
		c6.65-5.479,11.635-10.028,8.087-13.279C140.464,60.787,131.665,64.121,131.665,64.121z"/>
	<path fill="#2E1810" d="M270.502,66.205c11.072,3.18,20.426,9.862,15.359,15.908s-12.967,2.764-19.619-2.713
		c-6.652-5.479-11.635-10.028-8.088-13.279C261.701,62.87,270.502,66.205,270.502,66.205z"/>
	<path fill="#F8AD85" d="M63.287,124.701c-5.579-23.52-46.717-80.488-55.049-22.016C2.299,144.374,49.158,170.064,63.287,124.701z"
		/>
	<path fill="#61BE98" d="M223.377,282.393c0,0,0.092,1.033,0.295,2.814c0.209,1.783,0.518,4.322,1.045,7.309
		c0.559,2.967,1.285,6.445,2.711,9.764c0.711,1.641,1.658,3.223,2.842,4.402c0.596,0.588,1.268,1.031,1.979,1.357
		c0.738,0.256,1.492,0.482,2.324,0.432c0.402,0.041,0.832-0.047,1.252-0.082l0.156-0.016l0.041-0.004h0.02
		c-0.025,0.004,0.09-0.018-0.055,0.014l0.094-0.023l0.373-0.082l0.748-0.166c0.441-0.129,0.805-0.248,1.219-0.391
		c0.402-0.191,0.834-0.32,1.215-0.549c1.563-0.832,3.01-1.895,4.162-3.229c2.346-2.645,3.85-5.824,4.898-8.621
		c1.031-2.816,1.658-5.289,2.049-7.033c0.393-1.746,0.553-2.77,0.553-2.77s0.131,1.027,0.125,2.846
		c-0.01,1.813-0.145,4.428-0.832,7.516c-0.338,1.543-0.809,3.211-1.533,4.91c-0.713,1.699-1.637,3.465-2.938,5.096
		c-1.283,1.631-2.939,3.162-4.939,4.225c-0.484,0.293-1.021,0.482-1.535,0.727c-0.535,0.207-1.143,0.406-1.678,0.566l-0.746,0.182
		l-0.371,0.09l-0.094,0.023l-0.129,0.023l-0.057,0.008l-0.225,0.029c-0.596,0.068-1.178,0.188-1.805,0.146
		c-1.227,0.033-2.488-0.305-3.646-0.771c-1.141-0.535-2.154-1.268-2.979-2.117c-1.66-1.699-2.572-3.727-3.295-5.625
		c-0.715-1.92-1.1-3.822-1.381-5.613c-0.291-1.791-0.414-3.49-0.477-5.053c-0.135-3.127,0.053-5.715,0.227-7.514
		C223.182,283.41,223.377,282.393,223.377,282.393z"/>
</g>
</svg>
