<?xml version="1.0" encoding="utf-8"?>
<!-- Generator: Adobe Illustrator 16.0.0, SVG Export Plug-In . SVG Version: 6.00 Build 0)  -->
<!DOCTYPE svg PUBLIC "-//W3C//DTD SVG 1.1//EN" "http://www.w3.org/Graphics/SVG/1.1/DTD/svg11.dtd">
<svg version="1.1" xmlns="http://www.w3.org/2000/svg" xmlns:xlink="http://www.w3.org/1999/xlink" x="0px" y="0px"
	 width="182.225px" height="212.064px" viewBox="0 0 182.225 212.064" enable-background="new 0 0 182.225 212.064"
	 xml:space="preserve">
<g id="Layer_2">
</g>
<g id="Layer_1">
	<ellipse opacity="0.4" fill="#232323" cx="121.799" cy="206.208" rx="28.932" ry="5.856"/>
	<g>
		<polygon fill="#C1E3D4" points="77.551,68.534 71.027,130.487 124.891,130.487 116.66,69.208 		"/>
		<path fill="#B45C27" d="M94.717,140.117c0,0-5.283,50.021,0,58.409c5.281,8.389,33.549,6.493,46.91,6.523
			c17.571,0.04,15.824-13.358,13.771-17.396c-3.274-6.445-13.771-12.738-15.944-1.242c-1.391,7.349,3.581,10.055,0.62,11.183
			c-5.813,2.217-27.783-0.06-33.674-3.107c-8.669-4.484-7.276-20.814-5.44-33.552c1.833-12.738,2.644-20.817,2.644-20.817H94.717z"
			/>
		<path fill="#C1E3D4" d="M77.173,73.633c0,0-1.968,21.932-18.121,22.771c-16.157,0.841-25.167-6.926-25.786-17.799
			c-0.624-10.876,0-1.63,0-1.63H20.526c0,0-3.903,36.439,38.212,33.007c30.514-2.485,28.309-36.659,28.309-36.659L77.173,73.633z"/>
		<path fill="#F8AC85" d="M143.594,41.871c1.873-7.898,15.686-27.024,18.482-7.393C164.069,48.476,148.336,57.104,143.594,41.871z"
			/>
		<path fill="#186634" d="M124.891,128.935c0,0,1.794-0.504,16.736,2.797c14.458,3.19,27.186,7.719,27.496,18.593
			c0.31,10.872-5.732,13.98-20.236,19.491c-10.12,3.845-28.462,3.015-28.914,0c-0.742-4.935,8.182-8.524,16.615-12.504
			c7.006-3.303,8.327-3.971,9.733-5.741c1.794-2.259-5.978-4.316-16.231-4.94c-10.251-0.62-24.852-1.14-54.269-1.925
			c-18.858-0.5-24.04-0.863-23.901,2.503c0.084,2.011,3.891,2.117,16.078,4.092c21.773,3.536,23.539,2.826,22.988,6.527
			c-0.604,4.079-12.815,6.584-26.768,7.16c-17.536,0.726-32.314-1.806-33.502-17.104c-1.594-20.479,40.311-18.949,40.311-18.949"/>
		<path fill="#C1E3D4" d="M116.799,69.771c0,0,7.745,23.093,24.828,22.812c18.953-0.311,20.817-20.034,20.817-20.034l11.185,3.729
			c0,0-6.836,30.431-30.447,29.513c-23.611-0.911-26.383-10.251-26.383-10.251V69.771z"/>
		<polygon fill="#186634" points="73.53,126.132 70.716,130.953 125.203,130.912 121.507,123.237 		"/>
		<path fill="#F8AC85" d="M34.269,76.452c0,0,0.17,1.531,7.504,0.081c4.706-0.934,4.336-6.882,3.649-8.64
			c-0.687-1.761-3.262-3.443-4.525-1.909c-1.266,1.536,1.839,5.836-1.643,6.563c-3.798,0.797-5.184-0.368-6.217-6.501
			c-1.033-6.132,1.513-12.063,4.504-9.197c2.99,2.863,0.361,8.495,4.682,7.906c4.321-0.592,1.011-13.351-3.459-13.463
			c-4.467-0.111-10.072-0.84-10.818,7.568c-0.748,8.411,2.307,18.435,2.307,18.435L34.269,76.452z"/>
		<path fill="#F8AC85" d="M20.526,76.975c0,0-0.632-10.014,2.112-15.564c2.342-4.734,9.941,0,9.941,0l0.686,15.564H20.526z"/>
		<path fill="#1B1C1C" d="M165.908,34.409c5.43,3.036,6.021,9.014,4.172,13.316c-1.848,4.304-11.142,21.53-11.142,21.53
			s-6.316,11.418-13.245,9.11c-6.684-2.227-6.273-8.546-2.542-13.229c3.732-4.681,7.536,0.618,7.536,0.618s2.657-2.789,7.019-11.028
			c4.36-8.237,4.36-8.237,4.36-8.237s-6.689,1.041-5.475-4.874C157.551,36.955,157.772,29.86,165.908,34.409z"/>
		<polygon fill="#C1E3D4" points="19.895,76.581 33.575,76.581 39.258,88.9 21.746,95.07 		"/>
		<path fill="#F8AC85" d="M163.35,69.876c0,0-6.787-13.377-1.527-16.127c5.939-3.106,9.941,1.404,11.186,11.109
			c1.242,9.706,0.496,5.375,0.496,5.375L163.35,69.876z"/>
		<polygon fill="#C1E3D4" points="159.822,69.771 175.493,70.233 175.493,86.683 156.541,82.021 		"/>
		<path fill="#B45C27" d="M141.627,47.846c-0.047,23.862-20.893,22.367-44.658,22.367c-23.765,0-41.451-3.382-43.029-19.259
			C51.531,26.72,73.204,12.43,96.969,12.43C120.734,12.43,141.667,28.585,141.627,47.846z"/>
		<path fill="#F8AC85" d="M79.493,21.438c-16.192,6.213-20.815,15.845-15.954,23.612c4.059,6.48,23.1-0.31,21.798,2.013
			C78.26,59.715,87.88,65.429,98.756,65.429c11.493,0,19.261-3.603,14.373-14.54c-1.29-2.881-4.707-5.657,4.266-2.731
			c16.414,5.35,25.787-14.913,4.351-23.923C112.477,20.339,94.809,15.56,79.493,21.438z"/>
		<path fill="#2F160C" d="M77.313,39.631c0,4.453-4.133,4.453-4.133,0S77.313,35.178,77.313,39.631z"/>
		<path fill="#2F160C" d="M124.106,41.248c0,4.455-4.134,4.455-4.134,0C119.973,36.795,124.106,36.795,124.106,41.248z"/>
		<path fill="#B45C27" d="M85.12,13.538c0,0,15.284-1.108,20.47-7.323C107.613,3.791,108.386,0,108.386,0s6.124,3.9,8.077,9.632
			c2.2,6.452-7.146,6.835-7.146,6.835L85.12,13.538z"/>
		<path fill="#4F1E0B" d="M92.401,44.741c0,0,0.161,0.277,0.454,0.712c0.146,0.218,0.322,0.475,0.535,0.749
			c0.102,0.141,0.217,0.279,0.339,0.423c0.116,0.148,0.251,0.291,0.388,0.435c0.269,0.292,0.578,0.569,0.908,0.823
			c0.157,0.135,0.347,0.234,0.516,0.354c0.18,0.11,0.373,0.192,0.553,0.296c0.197,0.082,0.398,0.146,0.591,0.235
			c0.209,0.056,0.423,0.1,0.628,0.17c0.22,0.042,0.449,0.054,0.668,0.104c0.227,0.038,0.473,0.022,0.705,0.042l0.178,0.018
			l0.045,0.004l0.01,0.001h0.006c0.023,0-0.191,0.005-0.098,0.003l0.029-0.001l0.109-0.004l0.439-0.024
			c0.145-0.007,0.291-0.014,0.436-0.016l0.275-0.049c0.092-0.013,0.184-0.025,0.277-0.035c0.094-0.007,0.191-0.05,0.287-0.07
			c0.101-0.025,0.198-0.049,0.295-0.074c0.088-0.036,0.176-0.072,0.264-0.109c0.086-0.038,0.184-0.061,0.264-0.109
			c0.075-0.051,0.156-0.098,0.238-0.141c0.182-0.075,0.299-0.224,0.461-0.325c0.153-0.114,0.268-0.27,0.412-0.396
			c0.118-0.152,0.245-0.299,0.356-0.454c0.439-0.627,0.739-1.293,0.938-1.772c0.2-0.481,0.3-0.789,0.3-0.789
			s0.041,0.068,0.103,0.204c0.054,0.137,0.146,0.342,0.216,0.613c0.074,0.271,0.145,0.608,0.176,1.005
			c0.035,0.399,0.021,0.862-0.063,1.374c-0.045,0.254-0.13,0.518-0.207,0.797c-0.117,0.268-0.227,0.554-0.393,0.829
			c-0.178,0.268-0.346,0.562-0.596,0.803c-0.118,0.128-0.243,0.253-0.373,0.378c-0.128,0.123-0.281,0.213-0.425,0.324
			c-0.148,0.103-0.298,0.217-0.454,0.307c-0.165,0.075-0.33,0.152-0.494,0.229c-0.17,0.072-0.331,0.16-0.514,0.217
			c-0.188,0.047-0.378,0.096-0.568,0.144c-0.189,0.042-0.391,0.088-0.572,0.124c-0.145,0.02-0.291,0.028-0.436,0.041l-0.438,0.035
			l-0.109,0.007l-0.027,0.002l-0.109,0.006h-0.01l-0.016-0.002l-0.066-0.004l-0.262-0.011c-0.349-0.033-0.694-0.035-1.043-0.102
			c-0.352-0.074-0.697-0.156-1.036-0.254c-0.337-0.131-0.669-0.263-0.981-0.416c-0.307-0.184-0.611-0.357-0.881-0.563
			c-0.258-0.228-0.527-0.427-0.741-0.674c-0.104-0.123-0.209-0.244-0.311-0.363c-0.103-0.12-0.2-0.239-0.275-0.372
			c-0.337-0.502-0.575-1.008-0.73-1.486c-0.163-0.476-0.247-0.921-0.288-1.315c-0.045-0.391-0.043-0.733-0.023-1.013
			c0.014-0.279,0.061-0.496,0.085-0.644C92.375,44.815,92.401,44.741,92.401,44.741z"/>
		<circle fill="#61BE97" cx="97.494" cy="93.361" r="1.709"/>
		<circle fill="#61BE97" cx="97.382" cy="105.927" r="1.708"/>
		<g>
			<polygon fill="#E61E25" points="79.32,147.89 95.887,168.882 100.505,165.487 84.723,143.529 			"/>
			<polygon fill="#F8AC85" points="95.887,168.882 103.894,174.142 100.505,165.487 			"/>
			<polygon points="101.691,172.696 102.738,171.194 103.894,174.142 			"/>
		</g>
		<circle fill="#2F160C" cx="96.58" cy="40.783" r="0.932"/>
		<circle fill="#2F160C" cx="99.885" cy="40.783" r="0.932"/>
		<path fill="#61BE97" d="M106.347,79.222c-3.105,2.239-4.452,3.273-4.452,3.273s-1.139-1.561-2.176-4.245
			c-0.316-0.823-0.695-1.6-1.074-2.296l0,0l-1.93-4.789l-2.295,5.81l0.025-0.032c-0.096,0.203-0.185,0.408-0.269,0.626
			c-1.04,2.685-1.865,4.559-1.865,4.559s-0.413-0.727-3.521-2.969c-3.105-2.239-9.32-7.993-9.32-7.993
			c3.258,4.405,13.566,13.65,13.566,13.65s0.148-0.05,2.071-5.667c0.653-1.911,1.417-3.786,1.9-4.931l0.025,0.025
			c0.263,1,0.713,2.613,1.442,4.967c1.762,5.67,2.072,5.67,2.072,5.67s9.721-8.172,14.497-10.856
			C115.046,74.023,109.453,76.977,106.347,79.222z"/>
		<path fill="#C1E3D4" d="M72.418,125.821c0,0,3.537,2.803,7.494,5.184c3.956,2.383,12.896,6.317,12.896,6.317
			s2.037-4.614,3.383-7.692c1.348-3.079,1.943-4.282,1.943-4.282s0.107,0.311,1.568,4.28c1.46,3.966,3.117,7.797,3.117,7.797
			s10.15-5.384,13.359-7.766c3.212-2.383,7.322-6.016,7.322-6.016l-3.284-5.688L72.418,125.821z"/>
		<path fill="#2F160C" d="M74.88,21.531c-3.718,1.067-6.859,3.313-5.157,5.34c1.701,2.029,4.354,0.93,6.586-0.91
			c2.234-1.841,3.908-3.367,2.715-4.459C77.832,20.412,74.88,21.531,74.88,21.531z"/>
		<path fill="#2F160C" d="M121.494,22.231c3.717,1.067,6.857,3.31,5.156,5.342c-1.701,2.027-4.353,0.927-6.586-0.912
			c-2.234-1.841-3.908-3.368-2.717-4.46C118.539,21.11,121.494,22.231,121.494,22.231z"/>
		<path fill="#F8AC85" d="M51.92,41.871c-1.873-7.898-15.686-27.024-18.482-7.393C31.443,48.476,47.177,57.104,51.92,41.871z"/>
		<path fill="#F8AC85" d="M21.063,70.286c0,0-2.229-6.713-7.038-12.787c-4.813-6.072-8.028-6.093-6.51-9.14
			c1.521-3.046,5.102-0.504,8.404,3.671c3.301,4.175,8.113,10.145,8.113,10.145L21.063,70.286z"/>
		<path fill="#F8AC85" d="M28.358,60.904c0,0-3.44-7.823-4.847-12.438c-1.459-4.779-5.388-12.93-8.227-11.605
			c-1.919,0.896-2.189,3.442-1.113,5.356c1.074,1.912,3.227,5.787,4.51,9.014c0.794,2.001,5.503,12.261,5.503,12.261L28.358,60.904z
			"/>
		<path fill="#61BE97" d="M105.672,94.817c0,0,0.028,0.347,0.099,0.945c0.069,0.598,0.174,1.449,0.352,2.451
			c0.187,0.998,0.431,2.169,0.909,3.279c0.24,0.551,0.557,1.083,0.955,1.48c0.199,0.197,0.424,0.345,0.664,0.456
			c0.246,0.084,0.5,0.161,0.779,0.143c0.137,0.014,0.281-0.016,0.422-0.026l0.053-0.007l0.013-0.001h0.007
			c-0.01,0.001,0.029-0.005-0.02,0.005l0.031-0.008l0.126-0.027l0.253-0.055c0.146-0.045,0.269-0.084,0.408-0.132
			c0.135-0.065,0.279-0.106,0.408-0.185c0.524-0.278,1.008-0.636,1.396-1.084c0.788-0.888,1.293-1.955,1.645-2.893
			c0.348-0.947,0.557-1.778,0.688-2.363c0.132-0.587,0.186-0.93,0.186-0.93s0.044,0.344,0.042,0.954
			c-0.003,0.61-0.049,1.486-0.279,2.524c-0.114,0.516-0.271,1.078-0.516,1.647c-0.239,0.571-0.549,1.165-0.986,1.711
			c-0.43,0.55-0.986,1.063-1.657,1.42c-0.163,0.098-0.343,0.162-0.516,0.243c-0.179,0.071-0.383,0.137-0.563,0.189l-0.25,0.063
			l-0.123,0.03l-0.033,0.008l-0.045,0.009l-0.02,0.002l-0.073,0.012c-0.2,0.02-0.395,0.06-0.605,0.049
			c-0.413,0.009-0.837-0.106-1.226-0.262c-0.381-0.18-0.724-0.425-1-0.707c-0.558-0.572-0.863-1.255-1.105-1.891
			c-0.242-0.646-0.369-1.285-0.465-1.886c-0.098-0.601-0.139-1.173-0.159-1.697c-0.046-1.05,0.019-1.918,0.077-2.522
			C105.605,95.159,105.672,94.817,105.672,94.817z"/>
	</g>
</g>
</svg>
