<?xml version="1.0" encoding="utf-8"?>
<!-- Generator: Adobe Illustrator 16.0.0, SVG Export Plug-In . SVG Version: 6.00 Build 0)  -->
<!DOCTYPE svg PUBLIC "-//W3C//DTD SVG 1.1//EN" "http://www.w3.org/Graphics/SVG/1.1/DTD/svg11.dtd">
<svg version="1.1" id="Layer_1" xmlns="http://www.w3.org/2000/svg" xmlns:xlink="http://www.w3.org/1999/xlink" x="0px" y="0px"
	 width="224.428px" height="557.736px" viewBox="0 0 224.428 557.736" enable-background="new 0 0 224.428 557.736"
	 xml:space="preserve">
<ellipse opacity="0.3" cx="112.195" cy="550.867" rx="86.475" ry="6.869"/>
<path fill="#434149" d="M214.422,118.392c-0.115,0.483-0.238,1.081-0.361,1.564l-5.428,30.474l5.418-30.474
	c0.121-0.483,0.232-1.025,0.348-1.512c7.758-32.22,2.732-70.755-25.424-96.098C160.395-3.375,112.87,0.168,112.87,0.168
	S64.651-3.401,36.07,22.32C7.916,47.659,2.369,86.169,10.126,118.392c0.117,0.483,0.142,1.081,0.264,1.564l5.33,30.474
	l-5.417-30.474c-0.123-0.483-0.232-1.025-0.35-1.512C4.273,119.927,0,126.224,0,133.811c0,8.679,5.599,15.705,12.504,15.705
	c0.422,0,1.186-0.037,1.597-0.09c8.156,48.82,29.2,76.478,75.2,83.396v10.814c0,0.07-0.49-0.042-0.447,0.027l-10.157,5.814h-0.004
	l-16.346,2.379c-4.019,0.534-9.947,2.789-20.903,31.171c-7.858,20.361-12.147,32.908-12.863,48.984
	c-0.713,16.077-1.072,55.259-1.072,55.259s1.036,0.116,2.602,0.241c1.964,0.151,4.783,0.332,7.547,0.342
	c-2.767-0.01-5.583-0.186-7.55-0.337c-0.031,0.216-0.063,0.44-0.099,0.622c-4.288,3.217-6.189,13.84,4.287,14.645
	c9.287,0.717,13.216-9.641,6.074-14.284c0,0,0.001-0.252,0.003-0.688c1.642-0.07,3.151-0.228,4.282-0.521
	c0.033-0.057,0-0.937,0-0.937l1.431-52.513l10.358-36.797L55.732,413.15c0,0,5.873,0.097,13.853,0.22l4.645,118.056
	c0,0,1.896,0.25,4.798,0.485c-2.683,3.652-5.545,8.248-5.271,10.976c0.401,4.009,2.421,9.936,14.119,9.936
	c11.7,0,13.717-5.927,14.12-9.936c0.278-2.758-2.656-7.436-5.367-11.106c2.211-0.282,4.333-0.693,6.207-1.302l-0.394-116.627
	c4.754,0.064,8.513,0.44,10.156,0.44l0,0c-1.643,0-0.064,1.186-0.214,1.186c0.09,0,0.169,0,0.259,0c1.461,0,3.154-0.811,5.426-0.838
	l-0.719,116.226c1.873,0.606,3.936,0.828,6.146,1.105c-2.711,3.675-5.676,8.255-5.396,11.017c0.404,4.006,2.406,9.882,14.105,9.882
	c11.697,0,13.709-5.949,14.111-9.958c0.274-2.726-2.592-7.334-5.275-10.988c2.904-0.232,4.799-0.491,4.799-0.491l4.643-118.054
	c7.939-0.127,13.851-0.229,13.851-0.229l-0.712-116.104l10.359,36.797l1.43,52.513c0,0-0.033,0.88,0,0.937
	c1.134,0.294,2.638,0.451,4.279,0.521c0.004,0.436,0.008,0.688,0.008,0.688c-7.146,4.644-3.217,15.001,6.07,14.287
	c10.479-0.806,8.576-11.433,4.288-14.644c-0.036-0.184-0.066-0.407-0.101-0.621c1.568-0.124,2.602-0.231,2.602-0.231
	s-0.357-39.16-1.07-55.238c-0.713-16.074-5.005-28.577-12.862-48.94c-10.954-28.382-16.88-30.548-20.897-31.081l-16.41-2.212
	l-7.328-6.087c0.02-0.034,0.313-0.063,0.313-0.096v-10.259c0-0.006-0.145-0.01-0.088-0.019c49.075-5.898,68.449-33.73,76.705-83.937
	c0.406,0.052,0.664,0.077,1.081,0.077c6.905,0,12.429-7.036,12.429-15.719C224.428,126.198,220.104,119.874,214.422,118.392z
	 M110.637,259.15c-0.006-0.002-0.018-0.002-0.026-0.002"/>
<g>
	<path fill="#FFFFFF" d="M54.528,93.082c1.089,0,2.186,0.091,3.292,0.272c1.105,0.182,2.104,0.462,2.995,0.842
		c0.891,0.38,1.625,0.841,2.203,1.386c0.577,0.544,0.867,1.18,0.867,1.906c0,0.759-0.198,1.336-0.594,1.733
		c-0.396,0.396-0.891,0.594-1.485,0.594c-0.562,0-1.057-0.09-1.485-0.272c-0.429-0.181-0.916-0.388-1.46-0.619
		c-0.544-0.23-1.197-0.437-1.956-0.619c-0.76-0.181-1.766-0.272-3.02-0.272c-1.255,0-2.451,0.322-3.59,0.965
		s-2.129,1.535-2.971,2.674c-0.841,1.139-1.51,2.484-2.005,4.035c-0.495,1.552-0.743,3.235-0.743,5.05
		c0,2.245,0.289,4.176,0.866,5.793c0.577,1.618,1.328,2.946,2.253,3.985c0.923,1.04,1.972,1.816,3.144,2.327
		c1.171,0.512,2.352,0.768,3.54,0.768c1.418,0,2.607-0.148,3.564-0.446c0.957-0.297,1.774-0.626,2.451-0.99
		c0.676-0.363,1.263-0.693,1.758-0.99c0.495-0.297,0.973-0.445,1.436-0.445c0.561,0,1.006,0.157,1.336,0.47
		c0.33,0.314,0.495,0.866,0.495,1.659c0,0.661-0.256,1.329-0.767,2.005c-0.512,0.677-1.255,1.288-2.228,1.832
		c-0.974,0.545-2.138,0.99-3.491,1.337c-1.354,0.347-2.872,0.52-4.555,0.52c-1.849,0-3.689-0.364-5.521-1.089
		c-1.832-0.726-3.466-1.807-4.902-3.243c-1.436-1.436-2.599-3.234-3.49-5.396c-0.891-2.162-1.337-4.679-1.337-7.55
		s0.404-5.429,1.213-7.674c0.809-2.244,1.914-4.15,3.317-5.719c1.402-1.567,3.036-2.764,4.901-3.589
		C50.426,93.495,52.415,93.082,54.528,93.082z"/>
	<path fill="#FFFFFF" d="M74.728,114.322c0,1.057,0,1.989,0,2.797c0,0.809-0.009,1.577-0.025,2.302
		c-0.017,0.727-0.042,1.453-0.074,2.178c-0.033,0.727-0.066,1.535-0.099,2.426c2.277-0.264,4.06-0.478,5.347-0.644
		c1.287-0.165,2.302-0.297,3.045-0.396c0.743-0.099,1.32-0.165,1.733-0.198c0.412-0.033,0.899-0.049,1.46-0.049
		c1.452,0,2.179,0.71,2.179,2.129c0,0.562-0.29,1.04-0.867,1.436c-0.578,0.396-1.304,0.735-2.178,1.015
		c-0.875,0.281-1.849,0.512-2.921,0.693c-1.073,0.181-2.113,0.313-3.119,0.396c-1.007,0.082-1.915,0.14-2.723,0.173
		c-0.809,0.032-1.378,0.049-1.708,0.049c-1.188,0-2.113-0.074-2.772-0.223c-0.661-0.149-1.156-0.594-1.485-1.337
		c-0.331-0.743-0.537-1.873-0.619-3.392c-0.083-1.518-0.124-3.664-0.124-6.437c0-2.673,0-5.05,0-7.129s0.016-3.944,0.049-5.595
		c0.033-1.65,0.058-3.119,0.074-4.406c0.017-1.288,0.058-2.458,0.124-3.516c0.066-1.353,0.297-2.235,0.693-2.648
		c0.396-0.413,0.892-0.619,1.485-0.619c0.33,0,0.619,0.025,0.867,0.074c0.248,0.05,0.47,0.19,0.668,0.421
		c0.198,0.231,0.354,0.562,0.47,0.99c0.115,0.429,0.189,1.04,0.223,1.832c0.132,2.905,0.214,5.776,0.248,8.615
		C74.711,108.101,74.728,111.121,74.728,114.322z"/>
	<path fill="#FFFFFF" d="M92.997,125.065c-0.066-1.188-0.107-2.426-0.124-3.713c-0.017-1.287-0.042-2.673-0.074-4.159
		c-0.033-1.485-0.049-3.094-0.049-4.827s0-3.672,0-5.818c0-2.343,0.016-4.348,0.049-6.015c0.033-1.667,0.132-3.028,0.297-4.085
		c0.165-1.056,0.421-1.832,0.767-2.327c0.347-0.495,0.817-0.743,1.411-0.743c0.297,0,0.577,0.033,0.842,0.099
		c0.264,0.067,0.495,0.207,0.693,0.421c0.198,0.215,0.371,0.528,0.52,0.941c0.148,0.413,0.239,0.949,0.272,1.609
		c0.066,1.188,0.115,2.245,0.148,3.169c0.033,0.924,0.066,1.84,0.099,2.748c0.032,0.908,0.049,1.849,0.049,2.822
		c0,0.974,0,2.072,0,3.292c0,1.485,0,2.905,0,4.258c0,1.354-0.017,2.691-0.049,4.01c-0.033,1.321-0.066,2.658-0.099,4.011
		c-0.033,1.354-0.083,2.772-0.148,4.258c-0.033,0.792-0.116,1.403-0.248,1.832c-0.132,0.429-0.297,0.759-0.495,0.99
		c-0.198,0.231-0.429,0.371-0.693,0.42c-0.265,0.05-0.562,0.075-0.891,0.075c-0.594,0-1.106-0.206-1.535-0.619
		C93.311,127.302,93.063,126.419,92.997,125.065z"/>
	<path fill="#FFFFFF" d="M104.631,120.609c-0.066-1.056-0.132-2.492-0.198-4.307c-0.067-1.815-0.099-3.68-0.099-5.595
		c0-1.089,0.008-2.22,0.025-3.392c0.016-1.171,0.041-2.368,0.074-3.589c0.065-2.442,0.223-4.357,0.47-5.743
		c0.248-1.387,0.743-2.426,1.485-3.119c0.743-0.693,1.79-1.122,3.144-1.288c1.353-0.165,3.151-0.248,5.397-0.248
		c0.032,0,0.387,0,1.064,0c0.676,0,1.492,0.009,2.45,0.025c0.957,0.017,1.956,0.042,2.995,0.074c1.04,0.033,1.906,0.066,2.6,0.099
		c0.726,0.066,1.313,0.157,1.758,0.272c0.445,0.116,0.783,0.265,1.016,0.446c0.23,0.182,0.379,0.396,0.445,0.644
		c0.065,0.248,0.099,0.52,0.099,0.817c0,0.76-0.215,1.312-0.644,1.659c-0.43,0.347-1.305,0.569-2.624,0.668
		c-0.661,0.066-1.626,0.107-2.896,0.124c-1.271,0.017-2.567,0.025-3.887,0.025c-1.32,0-2.509,0.009-3.564,0.025
		c-1.058,0.017-1.717,0.025-1.98,0.025c-0.859,0.033-1.461,0.223-1.807,0.569c-0.347,0.346-0.52,1.164-0.52,2.451
		c0,0.297,0.025,1.015,0.074,2.154s0.074,2.731,0.074,4.778h4.109c1.749,0,3.176,0.024,4.283,0.074
		c1.105,0.049,1.963,0.157,2.574,0.322c0.61,0.166,1.031,0.429,1.262,0.792c0.231,0.364,0.348,0.842,0.348,1.436
		c0,0.297-0.025,0.569-0.074,0.817c-0.05,0.248-0.191,0.462-0.422,0.644c-0.23,0.182-0.561,0.33-0.99,0.446
		c-0.429,0.116-1.039,0.207-1.831,0.272c-0.958,0.066-1.856,0.107-2.698,0.124c-0.842,0.017-1.676,0.024-2.5,0.024h-4.16
		c0,0.495,0,1.089,0,1.783c0,0.693,0,1.403,0,2.129c0,0.727,0.008,1.436,0.025,2.129c0.016,0.693,0.041,1.255,0.074,1.683
		c0.033,0.529,0.107,0.974,0.223,1.337c0.115,0.364,0.33,0.661,0.644,0.891c0.313,0.231,0.775,0.396,1.386,0.495
		c0.61,0.099,1.427,0.149,2.45,0.149h10.645c1.156,0,1.883,0.215,2.18,0.644c0.297,0.429,0.445,1.007,0.445,1.733
		c0,0.594-0.133,1.048-0.396,1.361c-0.264,0.314-0.899,0.545-1.906,0.693s-2.508,0.239-4.506,0.272
		c-1.996,0.033-4.744,0.05-8.242,0.05c-1.486,0-2.708-0.132-3.665-0.396c-0.958-0.264-1.733-0.709-2.327-1.337
		c-0.594-0.626-1.032-1.444-1.312-2.451C104.92,123.292,104.73,122.063,104.631,120.609z"/>
	<path fill="#FFFFFF" d="M151.618,125.808c-1.058-1.452-2.056-2.896-2.996-4.332c-0.941-1.436-1.947-3.012-3.02-4.729
		c-1.074-1.716-2.295-3.622-3.664-5.718c-1.371-2.096-3.013-4.546-4.927-7.353c0,2.476,0,4.696,0,6.659
		c0,1.964-0.017,3.788-0.05,5.471c-0.033,1.683-0.066,3.268-0.099,4.753c-0.033,1.485-0.083,2.971-0.148,4.456
		c-0.033,0.792-0.108,1.403-0.224,1.832c-0.115,0.429-0.271,0.759-0.47,0.99s-0.421,0.371-0.669,0.42
		c-0.247,0.05-0.536,0.075-0.865,0.075c-0.595,0-1.09-0.206-1.486-0.619c-0.396-0.412-0.627-1.295-0.693-2.649
		c-0.165-3.63-0.256-7.27-0.271-10.917c-0.018-3.647-0.025-7.418-0.025-11.313c0-2.211,0.025-3.944,0.074-5.199
		c0.05-1.254,0.165-2.195,0.348-2.822c0.181-0.626,0.428-1.022,0.742-1.188c0.313-0.165,0.734-0.248,1.262-0.248
		c0.528,0,1.221,0.404,2.08,1.213c0.857,0.809,1.799,1.874,2.822,3.193c1.022,1.32,2.12,2.839,3.293,4.555
		c1.17,1.716,2.334,3.482,3.49,5.297c1.154,1.816,2.269,3.614,3.342,5.397c1.072,1.782,2.055,3.4,2.945,4.852
		c-0.033-1.551-0.049-3.259-0.049-5.125c0-1.864,0-3.936,0-6.214c0-2.607,0.016-4.761,0.049-6.461
		c0.033-1.7,0.124-3.045,0.273-4.035c0.148-0.99,0.387-1.683,0.717-2.08c0.33-0.396,0.793-0.594,1.387-0.594
		c0.561,0,1.057,0.182,1.485,0.544c0.429,0.364,0.677,1.205,0.743,2.525c0.065,1.188,0.115,2.245,0.148,3.169
		c0.032,0.924,0.065,1.84,0.099,2.748c0.032,0.908,0.05,1.849,0.05,2.822c0,0.974,0,2.072,0,3.292c0,1.485,0,2.905,0,4.258
		c0,1.354-0.018,2.691-0.05,4.01c-0.033,1.321-0.066,2.658-0.099,4.011c-0.033,1.354-0.083,2.772-0.148,4.258
		c-0.033,0.792-0.107,1.403-0.223,1.832c-0.117,0.429-0.273,0.759-0.471,0.99c-0.198,0.231-0.422,0.371-0.669,0.42
		c-0.247,0.05-0.536,0.075-0.866,0.075c-0.562,0-1.039-0.166-1.436-0.495S152.375,126.832,151.618,125.808z"/>
	<path fill="#FFFFFF" d="M182.512,98.033c-0.926,0.066-1.906,0.116-2.946,0.148c-1.04,0.033-2.187,0.066-3.441,0.099
		c0.032,0.891,0.065,1.725,0.099,2.5c0.033,0.776,0.066,1.56,0.1,2.352s0.057,1.618,0.074,2.476
		c0.016,0.859,0.025,1.815,0.025,2.872c0,1.485,0,2.914,0,4.283c0,1.37-0.018,2.74-0.051,4.109c-0.033,1.37-0.066,2.748-0.098,4.134
		c-0.034,1.386-0.084,2.822-0.149,4.307c-0.033,0.792-0.107,1.403-0.223,1.832c-0.116,0.429-0.272,0.76-0.47,0.99
		c-0.199,0.23-0.43,0.371-0.693,0.421c-0.266,0.049-0.563,0.074-0.892,0.074c-0.595,0-1.098-0.207-1.511-0.619
		c-0.412-0.413-0.651-1.295-0.717-2.649c-0.066-1.188-0.107-2.442-0.124-3.763c-0.017-1.319-0.042-2.739-0.074-4.258
		c-0.034-1.518-0.05-3.16-0.05-4.926c0-1.765,0-3.721,0-5.867c0-1.814,0.008-3.399,0.025-4.753c0.016-1.353,0.057-2.525,0.123-3.515
		h-2.029c-1.387,0-2.567-0.016-3.541-0.049c-0.974-0.033-1.773-0.124-2.4-0.272c-0.628-0.148-1.082-0.388-1.361-0.718
		c-0.281-0.33-0.422-0.792-0.422-1.387c0-0.297,0.033-0.569,0.1-0.817c0.065-0.248,0.215-0.478,0.445-0.693
		c0.23-0.214,0.553-0.388,0.966-0.52c0.412-0.131,0.948-0.23,1.608-0.297c0.627-0.033,1.189-0.066,1.684-0.099
		c0.496-0.033,0.99-0.066,1.485-0.099c0.495-0.032,1.007-0.049,1.535-0.049c0.527,0,1.139,0,1.832,0
		c1.946,0,3.788,0.017,5.521,0.049c1.732,0.033,3.572,0.099,5.52,0.198c0.793,0.066,1.403,0.157,1.832,0.272
		c0.43,0.116,0.76,0.272,0.99,0.471c0.23,0.198,0.372,0.429,0.422,0.693c0.049,0.265,0.074,0.562,0.074,0.891
		c0,0.594-0.207,1.089-0.619,1.485C184.747,97.736,183.865,97.967,182.512,98.033z"/>
</g>
</svg>
