<svg xmlns="http://www.w3.org/2000/svg" width="310.99" height="232.354" viewBox="0 0 310.99 232.354"><path fill="#fff" d="M167.964 27.823c0-11.454 9.563-20.74 21.36-20.74H282.2c11.796 0 21.36 9.286 21.36 20.74M186.252 14.17c0-7.825 6.536-14.17 14.596-14.17h63.458c8.058 0 14.594 6.345 14.594 14.17"/><path fill="#fff" d="M282.927 190.045h-91.942L165.907 37.25h139.708z"/><path fill="#EAC591" d="M167.35 73.77c.13.833 135.978 0 135.978 0l-10.704 87.12H180.75l-13.4-87.12z"/><path fill="#325529" d="M273.14 117.842c0 20.027-16.234 36.264-36.262 36.264-20.027 0-36.262-16.236-36.262-36.264 0-20.028 16.235-36.263 36.262-36.263 20.028 0 36.263 16.233 36.263 36.262"/><path fill="#fff" d="M221.557 114.322c-.222 7.48 6.7 11.005 15.363 11.277 8.66.27 15.78-2.814 16.004-10.295.222-7.48-6.65-15.957-15.312-16.23-8.66-.27-15.832 7.768-16.055 15.247"/><path fill="#325529" d="M242.848 114.833c-.08.025-.2.065-.348.115-.29.1-.702.237-1.198.405-.243.082-.504.166-.778.248-.135.043-.275.085-.418.127l-.433.117c-.15.032-.295.07-.444.104l-.225.04c-.073.015-.154.037-.22.042l-.208.03-.103.016-.128.01-.26.022-.05.007h-.152l-.225.006-.23-.01-.232-.008c-.08-.007-.156-.01-.234-.018-.31-.026-.62-.066-.927-.108-.304-.047-.603-.092-.89-.144l-.81-.145c-.258-.048-.493-.088-.7-.126-.215-.034-.4-.064-.553-.09-.154-.026-.28-.04-.363-.056-.084-.01-.132-.018-.132-.018s.032.034.094.095.15.152.273.255c.242.208.602.483 1.07.764.234.135.493.275.777.407.285.132.592.26.922.365.165.057.333.107.51.146.175.046.352.092.538.117l.277.044c.093.014.19.02.286.026l.074.007.27 1.044.358-1.034.03-.002H238.127l.048-.003.065-.008.258-.03.13-.018.15-.03.3-.064c.195-.044.366-.104.543-.16.174-.066.342-.13.503-.2.16-.078.317-.147.464-.23.144-.084.288-.16.42-.246.27-.17.51-.346.724-.52.428-.345.74-.677.944-.923.203-.25.3-.408.3-.408l-.126.04m-4.833 1.282h-.002l-.002.002.005-.002M234.874 118.96s.025.006.07.02c.046.014.116.03.2.058.167.047.404.117.68.192.138.036.285.072.44.106.154.037.316.07.48.097.167.028.335.052.504.064.167.013.34.02.502.01.098-.003.2-.003.272-.016.08-.006.16-.01.25-.026.17-.02.344-.047.51-.082.085-.013.167-.03.25-.05.082-.014.16-.032.24-.05.16-.033.308-.07.448-.103.287-.07.527-.124.694-.162.085-.023.156-.032.203-.046l.072-.014-.046.06c-.032.037-.076.093-.14.157-.123.13-.312.307-.563.485-.125.088-.265.177-.42.26-.157.087-.326.173-.51.24-.09.04-.186.068-.283.097l-.148.044-.154.036c-.195.05-.46.076-.636.084-.23.007-.445-.01-.66-.046-.21-.035-.413-.095-.6-.162-.187-.07-.36-.152-.517-.237-.078-.048-.154-.092-.225-.138-.07-.047-.137-.09-.2-.14-.123-.093-.23-.187-.322-.27-.09-.088-.164-.172-.223-.24-.117-.137-.17-.228-.17-.228M228.98 112.263s.008-.025.024-.065c.018-.042.04-.104.077-.177.073-.15.19-.362.36-.596.087-.115.19-.237.306-.358.06-.06.122-.12.19-.18.067-.058.14-.114.212-.173.154-.11.326-.21.514-.292.19-.077.4-.138.615-.155l.162-.01.02-.003H231.49l.035.003.07.004c.094.005.177.007.283.022.206.024.394.07.573.124.36.115.667.295.896.48.117.093.214.187.292.274.08.088.142.174.19.243.092.14.126.233.126.233s-.076-.06-.212-.147c-.07-.045-.153-.094-.25-.146-.048-.03-.098-.055-.155-.08-.055-.027-.112-.053-.173-.078-.122-.054-.256-.103-.397-.145-.142-.043-.294-.08-.45-.11-.16-.027-.325-.048-.48-.06-.076-.012-.177-.005-.267-.01l-.07-.002-.035-.002H231.456c.023.002.004 0 .01 0l-.003.002h-.016l-.114.01c-.153.01-.305.053-.456.102-.076.023-.148.063-.223.09-.073.032-.142.072-.215.105-.07.042-.138.082-.205.12l-.193.128c-.125.086-.242.172-.35.254-.214.166-.39.317-.515.424l-.196.173M240.346 111.73s.01-.02.034-.057c.026-.04.058-.097.108-.163.097-.137.248-.32.46-.52.105-.102.227-.202.363-.3.07-.05.142-.098.218-.145l.242-.13c.17-.08.356-.153.556-.2.202-.04.417-.064.632-.045l.163.02h.022l.004.003.017.004h.01l.032.012.067.01c.092.024.175.04.275.075.198.06.376.138.543.225.33.176.604.403.797.626.1.113.176.224.24.325.063.1.107.194.14.272.068.157.084.254.084.254s-.063-.075-.18-.185c-.06-.054-.135-.118-.22-.186-.042-.036-.088-.07-.14-.105-.048-.036-.1-.072-.156-.107-.11-.074-.234-.146-.364-.213-.133-.067-.276-.132-.426-.187-.15-.057-.31-.105-.463-.145-.07-.023-.17-.035-.258-.058l-.067-.014-.035-.007-.008-.003h-.002l.01.002h-.003l-.014-.003-.115-.01c-.152-.018-.31-.003-.467.02-.078.01-.156.035-.235.05-.077.018-.152.045-.23.064-.074.028-.15.054-.222.08-.073.034-.144.064-.213.094-.138.06-.268.127-.387.19-.243.122-.442.24-.583.323-.14.086-.224.134-.224.134M229.772 111.246s-.008.027-.034.07c-.014.022-.03.05-.054.076-.024.023-.05.057-.087.08-.036.025-.075.057-.12.075-.048.02-.098.047-.154.053-.054.01-.11.03-.17.023-.06-.002-.11.002-.18-.007l-.08-.02c-.034-.01-.066-.022-.1-.035-.056-.026-.11-.063-.154-.105-.046-.042-.08-.09-.107-.14-.026-.048-.04-.094-.05-.138-.023-.09-.017-.16-.01-.212.01-.05.022-.074.022-.074s.054.106.145.212c.024.028.05.054.077.077.027.022.058.045.09.062l.048.024.053.02c.016.006.032.01.05.015.018.01.047.01.072.016.03.006.085.006.127.013.044.007.086 0 .13.003.043.004.082-.004.122-.004.04 0 .076-.012.112-.016.143-.024.25-.068.25-.068M244.56 110.675s.108.044.25.07c.036.005.072.012.112.012.042.004.08.012.125.008.042-.004.084.004.13-.006.04-.008.095-.008.126-.014.024-.005.054-.007.074-.015l.048-.012c.016-.007.035-.015.052-.02.017-.01.033-.017.05-.026.03-.018.06-.04.09-.06.027-.03.053-.054.075-.08.09-.108.144-.212.144-.212s.013.025.022.074c.01.05.014.124-.007.212-.01.044-.025.093-.05.14-.027.05-.062.096-.105.138-.047.044-.098.08-.158.106-.03.015-.065.027-.098.037-.03.008-.053.012-.08.018-.07.01-.12.01-.18.01-.06.003-.118-.016-.17-.027-.055-.005-.106-.03-.152-.05-.048-.02-.087-.052-.12-.077-.04-.02-.065-.054-.09-.08-.025-.023-.04-.054-.054-.072-.025-.046-.033-.073-.033-.073M236.828 97.242c-3.352.303-10.43 3.14-12.98 9.08-2.553 5.942-2.026 4.822-2.026 4.822s3.94-.825 8.2-2.57c4.262-1.743 6.827-4.46 6.827-4.46s1.008 1.255 7.174 3.94c4.783 2.083 8.07 2.042 8.07 2.042s-4-13.877-15.266-12.854"/><path fill="#fff" d="M218.857 108.63c.562-.776-4.027-2.76-7.277.276-3.25 3.034 1.574 7.582 7.277-.275M256.41 108.42c-.526-.8 4.15-2.573 7.256.612 3.104 3.182-1.924 7.502-7.256-.613M222.38 104.59s1.99.95 4.252.198c2.36-.788 2.488-2.606 2.488-2.606s-1.542-7.512-7.682-9.274c-6.14-1.766-10.474 4.226-10.474 4.226s5.093-2.004 8.044.354c2.118 1.69 3.372 7.103 3.372 7.103M251.103 104.268s-1.982 1.532-4.242.78c-2.36-.79-2.925-3.047-2.925-3.047s1.98-7.07 8.12-8.836c6.138-1.763 10.036 5.395 10.036 5.395s-4.655-3.172-7.607-.815c-2.116 1.692-3.38 6.523-3.38 6.523M245.427 132.56c-1.086-3.41-5.42-.325-6.09.175-.403-.382-.977-.584-1.703-.498-.68.08-1.17.376-1.48.794-.85-.623-4.97-3.433-6.02-.118-1.173 3.702.116 5.338 2.185 5.536 1.475.14 3.042-1.73 3.82-2.81.39.602 1.074.96 1.997.85.716-.086 1.225-.41 1.53-.867.834 1.093 2.247 2.607 3.58 2.48 2.068-.202 3.357-1.842 2.18-5.54"/><path fill="#fff" d="M236.935 89.245l1.988 4.03 4.446.645-3.218 3.135.76 4.427-3.977-2.09-3.976 2.09.758-4.427-3.217-3.135 4.447-.646zM223.402 123.007s-.09.015-.257.05c-.168.032-.41.097-.712.18-.3.087-.66.215-1.04.392-.38.176-.788.413-1.132.74-.345.324-.61.737-.726 1.223l-.02.093-.01.044-.004.025-.002.013c.012-.055.003-.013.005-.02v.006l-.01.06-.002.028.002.01c.003.015 0 .02.004.054.002.108.018.247.04.392.044.295.106.626.156.977.103.7.163 1.504-.03 2.342-.092.415-.253.83-.475 1.216-.114.188-.24.37-.38.54l-.105.128-.012.016-.043.045-.025.025-.047.047-.047.05-.088.074c-.058.048-.123.104-.178.14-.213.154-.44.26-.66.347-.22.078-.436.14-.643.18-.415.087-.8.11-1.168.134-.726.05-1.392.055-1.92.19-.534.135-.87.372-1.106.782-.14.255-.247.494-.344.746-.1.25-.177.5-.237.744-.124.49-.18.96-.197 1.384-.018.424 0 .8.034 1.11.037.31.075.557.112.725.036.165.06.255.06.255s-.057-.073-.147-.222c-.088-.15-.22-.37-.34-.675-.125-.302-.262-.68-.35-1.14-.093-.458-.145-.99-.112-1.575.018-.292.055-.597.12-.91.066-.31.164-.643.28-.953.14-.362.378-.73.702-1.02.322-.3.716-.497 1.098-.63.386-.142.77-.207 1.142-.262s.733-.086 1.077-.12c.343-.037.676-.075.967-.14.148-.028.28-.07.4-.112.116-.05.218-.104.3-.16.02-.012.023-.018.038-.026l.02-.008.047-.05.047-.047.024-.023.007-.006c-.013.014.035-.038-.026.026l.01-.01.07-.082c.092-.107.17-.223.246-.34.143-.24.26-.494.334-.772.158-.552.166-1.176.135-1.822-.018-.322-.048-.653-.057-1.013-.004-.18-.006-.365.016-.577.004-.045.016-.116.028-.183l.008-.05.008-.028.016-.06.01-.043.007-.016.012-.03.023-.068.05-.132c.272-.704.783-1.245 1.302-1.573.52-.332 1.043-.498 1.5-.594.456-.098.858-.115 1.183-.12.327-.008.58.022.752.04.172.017.262.037.262.037M227.057 125.864s-.09.025-.26.085-.414.154-.717.284c-.3.132-.654.313-1.028.55-.37.237-.764.542-1.078.93-.317.39-.54.862-.593 1.388l-.006.1-.005.05v.026l-.003.01c.006-.052.002-.008.002-.02v.102l.004.01c.004.015.005.024.01.06.018.114.054.257.097.406.09.3.202.638.303.993.205.71.38 1.532.303 2.423-.038.442-.145.895-.318 1.32-.09.21-.193.418-.314.61l-.09.147-.01.02-.038.05-.02.03-.044.056-.042.058-.08.09c-.05.056-.11.123-.16.17-.196.183-.414.325-.63.444-.213.11-.428.206-.635.275-.417.15-.812.23-1.19.31-.745.154-1.438.26-1.973.48-.54.218-.867.526-1.05.995-.108.288-.185.55-.25.83-.066.276-.106.55-.133.813-.058.528-.045 1.027 0 1.47.046.442.123.833.204 1.15.086.314.162.566.227.732.063.168.102.256.102.256s-.07-.068-.184-.208c-.11-.145-.276-.356-.445-.655-.17-.298-.365-.674-.52-1.136-.16-.46-.288-1.005-.333-1.616-.024-.305-.027-.626-.004-.96.026-.33.08-.688.155-1.026.094-.393.288-.803.58-1.15.288-.348.665-.607 1.04-.8.378-.198.767-.322 1.143-.432.377-.11.748-.193 1.1-.28.354-.085.695-.175.99-.282.15-.053.284-.117.406-.18.114-.068.214-.14.296-.213.02-.016.023-.024.037-.034l.02-.014.042-.06.044-.053.02-.03.006-.01c-.01.016.03-.04-.02.03l.006-.01.062-.096c.082-.13.148-.263.21-.396.116-.273.202-.557.238-.86.085-.603 0-1.257-.127-1.927-.065-.333-.146-.673-.207-1.04-.03-.186-.058-.377-.067-.596-.002-.048 0-.123 0-.192l.003-.05.005-.034.007-.062.006-.044.005-.016.007-.037.015-.076.03-.143c.182-.764.63-1.395 1.115-1.81.488-.42 1.005-.668 1.464-.834.46-.168.872-.248 1.21-.302.334-.057.604-.065.784-.074.18-.004.277.004.277.004M251.815 123.007s.09-.02.262-.04c.172-.017.427-.047.753-.04.325.006.727.023 1.184.12.457.096.98.262 1.5.594.517.33 1.028.87 1.302 1.574l.05.132.022.067.013.03.006.017.01.044.018.06.008.026.01.05c.01.067.022.14.025.184.02.212.02.398.016.577-.01.36-.04.69-.056 1.014-.03.646-.024 1.27.134 1.822.074.277.192.53.334.77.075.12.156.234.248.342l.07.082.008.01c-.06-.064-.013-.013-.025-.026l.007.006.023.023.05.048.048.05.018.008c.014.01.016.015.038.027.082.055.183.11.3.16.12.04.252.083.398.11.292.065.625.104.967.14.345.035.708.066 1.078.12s.757.12 1.143.262c.383.134.775.332 1.098.63.324.29.564.658.703 1.02.115.312.212.646.28.955.063.313.102.617.12.91.033.585-.02 1.116-.112 1.574-.088.46-.224.838-.348 1.14-.122.305-.253.525-.34.675-.09.15-.15.223-.15.223s.025-.09.062-.256c.036-.168.074-.415.11-.725.035-.31.053-.687.037-1.11-.017-.423-.073-.893-.197-1.384-.06-.244-.136-.494-.237-.744-.097-.252-.204-.49-.344-.747-.235-.41-.573-.647-1.106-.78-.53-.138-1.195-.143-1.92-.192-.366-.023-.752-.047-1.168-.135-.207-.04-.423-.1-.642-.18-.22-.087-.447-.19-.66-.345-.055-.036-.12-.093-.177-.14l-.09-.075-.047-.05-.048-.047-.024-.024-.04-.046-.015-.015-.105-.13c-.14-.17-.265-.352-.38-.54-.22-.384-.382-.8-.475-1.215-.192-.838-.133-1.643-.03-2.342.05-.35.112-.682.157-.977.022-.145.038-.283.04-.392l.004-.054.002-.01-.004-.03-.008-.058v-.007l.005.02v-.012l-.007-.025-.01-.044-.02-.093c-.115-.484-.38-.897-.726-1.222-.345-.327-.75-.564-1.132-.74-.382-.178-.74-.306-1.04-.392-.302-.084-.544-.148-.712-.18-.168-.035-.258-.05-.258-.05M248.16 125.864s.097-.008.278-.004c.18.01.45.018.786.074.336.054.75.134 1.208.302.46.166.976.414 1.464.834.487.414.934 1.046 1.115 1.81l.03.144.017.075.007.036.004.016.004.044.01.062.003.033.002.052c.002.07.003.145 0 .192-.01.22-.036.41-.067.597-.06.367-.142.707-.206 1.04-.128.67-.212 1.324-.128 1.93.036.302.123.585.24.858.06.134.127.267.21.396l.06.095.007.01c-.05-.07-.01-.015-.02-.03l.004.01.023.03.042.053.044.06.02.013c.014.01.017.02.036.035.082.074.183.146.298.213.122.063.255.128.404.18.297.108.637.198.99.284.354.086.724.17 1.1.28.377.108.766.232 1.144.432.376.19.753.45 1.04.798.292.348.487.758.58 1.15.075.338.13.697.154 1.026.024.334.02.655-.002.96-.047.61-.175 1.155-.333 1.615-.157.46-.35.837-.522 1.135-.17.3-.334.51-.446.655-.115.14-.183.208-.183.208s.038-.088.1-.256c.065-.166.142-.418.226-.733.083-.317.158-.708.204-1.15.047-.442.06-.94.002-1.47-.027-.262-.07-.535-.134-.812-.065-.28-.142-.542-.248-.83-.185-.47-.51-.777-1.052-.995-.535-.22-1.227-.326-1.973-.48-.377-.08-.773-.158-1.19-.31-.207-.07-.42-.164-.637-.275-.213-.12-.43-.262-.628-.445-.05-.046-.11-.113-.16-.17l-.08-.09-.042-.057-.043-.057-.02-.03-.038-.05-.01-.02-.09-.146c-.122-.193-.225-.4-.315-.61-.174-.427-.28-.88-.318-1.32-.078-.892.097-1.713.304-2.425.1-.356.212-.694.3-.994.044-.15.08-.292.097-.407l.01-.06.005-.01v-.102c.002.012 0-.032.003.02v-.01l-.002-.025-.004-.05-.006-.1c-.055-.526-.276-1-.593-1.388-.315-.39-.707-.693-1.078-.93-.374-.238-.73-.42-1.03-.55-.302-.13-.546-.227-.715-.286s-.262-.086-.262-.086M255.162 119.74s.082-.028.242-.07c.16-.038.394-.1.702-.137.306-.034.687-.07 1.13-.038.444.03.956.12 1.49.37.533.24 1.085.69 1.435 1.324l.064.117.032.06.015.03.01.017.014.038.022.05.013.03.013.046c.02.06.04.13.048.17.05.2.07.376.09.547.036.338.048.652.074.96.05.608.135 1.187.35 1.682.102.248.242.466.404.67.084.103.17.2.27.286l.074.068.01.01c-.07-.055-.016-.013-.03-.025l.008.005.025.02.05.04.052.037.018.006c.01.006.013.01.032.02.08.04.18.075.292.104.116.027.242.05.383.06.277.022.593.02.92.012.326-.01.672-.026 1.028-.02.356.006.73.024 1.114.108.378.08.777.22 1.122.463.343.24.616.56.792.89.146.276.28.583.38.865.097.29.17.574.22.846.103.55.116 1.058.084 1.5-.03.443-.115.815-.198 1.114-.08.304-.178.528-.243.678-.068.15-.113.227-.113.227s.01-.09.023-.25c.013-.162.015-.4.01-.694-.01-.296-.042-.652-.112-1.048-.07-.393-.183-.825-.362-1.268-.088-.223-.19-.446-.316-.668-.124-.225-.253-.43-.417-.653-.268-.352-.603-.522-1.114-.577-.508-.063-1.13.013-1.82.058-.35.025-.715.05-1.12.018-.2-.013-.414-.042-.632-.087-.222-.056-.45-.127-.673-.248-.057-.027-.127-.072-.19-.11l-.09-.063-.053-.04-.05-.04-.025-.02-.048-.04-.015-.012-.116-.106c-.155-.145-.297-.303-.428-.467-.26-.336-.462-.714-.6-1.096-.287-.772-.33-1.54-.316-2.21.005-.337.023-.656.03-.938.002-.137 0-.27-.01-.37 0-.03-.002-.035 0-.046v-.01l-.007-.025-.014-.054-.003-.01c.004.012-.01-.026.008.024l-.003-.013-.006-.02-.014-.043-.028-.082c-.165-.437-.457-.79-.818-1.055-.36-.265-.767-.44-1.146-.563-.38-.12-.73-.2-1.023-.25-.292-.04-.527-.07-.688-.08l-.25-.023M220.006 119.74s-.086.01-.25.022c-.16.01-.396.04-.69.082-.29.048-.643.13-1.022.25-.378.12-.787.297-1.146.562-.36.265-.654.618-.818 1.055l-.03.083-.012.042-.007.02-.003.014c.02-.052.004-.014.008-.024l-.002.01-.014.054-.008.025.002.01c0 .01 0 .016-.003.047-.01.1-.01.232-.01.37.01.28.028.6.033.936.01.67-.03 1.44-.314 2.21-.142.382-.345.76-.603 1.096-.133.164-.275.322-.428.467l-.117.107-.014.013-.048.038-.026.02-.05.04-.05.04-.095.062c-.06.04-.13.084-.187.11-.223.122-.452.193-.673.25-.218.045-.432.074-.632.087-.404.03-.77.008-1.12-.017-.688-.045-1.313-.12-1.818-.058-.512.055-.845.226-1.115.576-.165.223-.294.43-.417.653-.125.223-.227.446-.315.67-.18.44-.293.874-.363 1.267-.07.396-.103.752-.112 1.048-.006.295-.002.532.01.695.012.16.022.248.022.248s-.045-.075-.113-.227c-.065-.148-.163-.373-.243-.677-.083-.3-.167-.67-.197-1.114-.034-.443-.02-.95.082-1.5.05-.27.122-.557.22-.846.1-.282.234-.59.38-.866.176-.33.45-.648.792-.888.345-.242.743-.383 1.122-.463.384-.084.757-.103 1.113-.108.356-.008.7.01 1.03.018.325.01.642.01.918-.013.142-.01.268-.03.384-.06.11-.028.21-.064.29-.104.02-.01.02-.012.034-.018l.016-.006.052-.036.05-.04.027-.02.005-.006c-.014.013.04-.03-.03.025l.01-.01.075-.068c.1-.087.186-.184.27-.286.16-.204.303-.422.403-.67.216-.495.3-1.073.35-1.683.027-.307.038-.62.076-.96.018-.17.04-.346.087-.545.01-.042.03-.11.048-.17l.016-.047.01-.028.024-.05.016-.04.008-.016.015-.03.03-.06.064-.118c.35-.634.902-1.083 1.433-1.324.536-.25 1.05-.34 1.492-.37.443-.033.824.004 1.13.038.308.037.544.1.703.137.16.042.24.07.24.07"/><path fill="#F3F3F3" d="M0 25.57h150.457v12.622H0z"/><path fill="#fff" d="M7.43 27.823c0-11.454 9.564-20.74 21.362-20.74h92.874c11.797 0 21.36 9.286 21.36 20.74M25.72 14.17C25.72 6.344 32.255 0 40.316 0h63.457c8.06 0 14.595 6.345 14.595 14.17"/><path fill="#fff" d="M122.394 190.045H30.452L5.374 37.25h139.708z"/><path fill="#EAC591" d="M6.816 73.77c.132.833 135.98 0 135.98 0l-10.705 87.12H20.22L6.816 73.77z"/><path fill="#325529" d="M112.608 117.842c0 20.027-16.235 36.264-36.263 36.264-20.027 0-36.262-16.236-36.262-36.264 0-20.028 16.235-36.263 36.262-36.263 20.03 0 36.263 16.233 36.263 36.262"/><path fill="#fff" d="M61.024 114.322c-.222 7.48 6.7 11.005 15.363 11.277 8.66.27 15.78-2.814 16.004-10.295.223-7.48-6.65-15.957-15.31-16.23-8.662-.27-15.832 7.768-16.056 15.247"/><path fill="#325529" d="M82.315 114.833c-.08.025-.198.065-.348.115-.29.1-.702.237-1.198.405-.243.082-.504.166-.778.248-.135.043-.276.085-.418.127l-.434.117c-.148.032-.294.07-.443.104l-.225.04c-.073.015-.154.037-.22.042l-.208.03-.103.016-.127.01-.26.022-.05.007h-.152l-.224.006-.23-.01-.23-.008c-.08-.007-.157-.01-.234-.018-.31-.026-.622-.066-.928-.108-.304-.047-.603-.092-.89-.144l-.81-.145c-.258-.048-.493-.088-.7-.126-.214-.034-.4-.064-.553-.09-.153-.026-.28-.04-.362-.056-.085-.01-.132-.018-.132-.018s.03.034.093.095.15.152.273.255c.24.208.6.483 1.07.764.233.135.493.275.777.407.284.132.592.26.92.365.166.057.334.107.51.146.176.046.353.092.54.117l.277.044c.093.014.19.02.286.026l.074.007.27 1.044.36-1.034.03-.002H77.593l.048-.003.066-.008.26-.03.13-.018.15-.03.3-.064c.195-.044.365-.104.543-.16.17-.066.34-.13.5-.2.16-.078.318-.147.464-.23.144-.084.29-.16.422-.246.268-.17.51-.346.723-.52.425-.345.738-.677.94-.923.205-.25.3-.408.3-.408l-.125.04m-4.833 1.282l-.004.002.004-.002M74.34 118.96s.026.006.07.02c.047.014.117.03.2.058.168.047.405.117.68.192.14.036.286.072.44.106.155.037.317.07.482.097.166.028.334.052.502.064s.342.02.503.01c.098-.003.2-.003.272-.016.078-.006.16-.01.248-.026.17-.02.345-.047.51-.082.086-.013.168-.03.25-.05.083-.014.162-.032.24-.05.16-.033.31-.07.45-.103.286-.07.525-.124.693-.162.086-.023.157-.032.203-.046l.073-.014-.045.06c-.03.037-.075.093-.138.157-.124.13-.313.307-.564.485-.126.088-.266.177-.42.26-.158.087-.328.173-.51.24-.092.04-.187.068-.285.097l-.147.044-.153.036c-.195.05-.46.076-.636.084-.23.007-.446-.01-.66-.046-.21-.035-.413-.095-.6-.162-.187-.07-.36-.152-.518-.237-.078-.048-.154-.092-.225-.138-.07-.047-.137-.09-.2-.14-.123-.093-.232-.187-.322-.27-.09-.088-.164-.172-.223-.24-.117-.137-.17-.228-.17-.228M68.448 112.263l.023-.065c.02-.042.04-.104.078-.177.072-.15.19-.362.36-.596.086-.115.188-.237.306-.358.06-.06.12-.12.19-.18.067-.058.138-.114.212-.173.154-.11.325-.21.514-.292.19-.077.398-.138.614-.155l.163-.01.02-.003H70.958l.034.003.07.004c.094.005.177.007.283.022.207.024.394.07.573.124.36.115.666.295.896.48.116.093.213.187.292.274.08.088.14.174.19.243.092.14.125.233.125.233s-.075-.06-.21-.147c-.07-.045-.153-.094-.25-.146-.048-.03-.1-.055-.156-.08-.054-.027-.11-.053-.173-.078-.12-.054-.254-.103-.396-.145-.14-.043-.293-.08-.45-.11-.16-.027-.324-.048-.48-.06-.076-.012-.177-.005-.267-.01l-.07-.002-.034-.002h-.01c.023.002.005 0 .01 0l-.003.002h-.015l-.115.012c-.152.01-.304.052-.456.1-.076.024-.147.064-.223.09-.07.033-.14.073-.213.106l-.204.12-.194.128c-.126.086-.243.172-.35.254-.215.166-.39.317-.515.424-.125.11-.197.17-.197.17M79.813 111.73s.01-.02.034-.057c.026-.04.058-.097.108-.163.097-.137.248-.32.46-.52.105-.102.226-.202.363-.3.07-.05.14-.098.217-.145l.242-.13c.17-.08.356-.153.556-.2.202-.04.417-.064.632-.045l.162.02h.022l.003.003.017.004h.01l.03.012.07.01c.09.024.174.04.274.075.198.06.375.138.543.225.33.176.604.403.797.626.1.113.176.224.24.325.063.1.107.194.14.272.068.157.084.254.084.254s-.064-.075-.182-.185c-.06-.054-.134-.118-.22-.186-.04-.036-.087-.07-.138-.105-.05-.036-.1-.072-.157-.107-.11-.074-.233-.146-.363-.213-.133-.067-.277-.132-.426-.187-.15-.057-.31-.105-.462-.145-.07-.023-.17-.035-.26-.058l-.066-.014-.035-.007-.008-.003h-.003l.01.002h-.003l-.014-.003-.115-.01c-.152-.018-.31-.003-.467.02-.08.01-.157.035-.236.05-.077.018-.152.045-.23.064-.074.028-.15.054-.222.08-.073.034-.144.064-.213.094-.138.06-.268.127-.387.19-.243.122-.442.24-.583.323l-.224.134M69.24 111.246s-.008.027-.034.07c-.014.022-.03.05-.054.076-.024.023-.05.057-.087.08-.036.025-.075.057-.122.075-.046.02-.097.047-.152.053-.053.01-.11.03-.168.023-.06-.002-.11.002-.182-.007-.027-.008-.048-.012-.08-.02-.033-.01-.065-.022-.098-.035-.058-.026-.11-.063-.156-.105-.044-.042-.08-.09-.105-.14-.025-.048-.04-.094-.05-.138-.022-.09-.016-.16-.008-.212.01-.05.02-.074.02-.074s.055.106.146.212c.024.028.05.054.076.077.028.022.06.045.09.062l.05.024c.02.007.036.015.052.02.016.006.032.01.05.015.018.01.047.01.072.016.03.006.085.006.127.013.044.007.086 0 .13.003.042.004.082-.004.122-.004.042 0 .077-.012.113-.016.142-.024.25-.068.25-.068M84.028 110.675s.107.044.25.07c.035.005.07.012.11.012.043.004.082.012.126.008.042-.004.084.004.13-.006.04-.008.095-.008.126-.014.024-.005.054-.007.074-.015l.048-.012c.016-.007.035-.015.052-.02.017-.01.033-.017.05-.026.03-.018.06-.04.09-.06.027-.03.053-.054.075-.08.09-.108.143-.212.143-.212s.013.025.022.074c.01.05.014.124-.007.212-.01.044-.026.093-.052.14-.026.05-.06.096-.105.138-.045.044-.096.08-.156.106-.03.015-.065.027-.098.037-.03.008-.052.012-.078.018-.07.01-.122.01-.183.01-.057.003-.116-.016-.17-.027-.053-.005-.104-.03-.15-.05-.048-.02-.087-.052-.12-.077-.04-.02-.065-.054-.09-.08-.025-.023-.04-.054-.054-.072-.024-.046-.032-.073-.032-.073M76.295 97.242c-3.352.303-10.43 3.14-12.98 9.08-2.553 5.942-2.026 4.822-2.026 4.822s3.938-.825 8.2-2.57c4.26-1.743 6.826-4.46 6.826-4.46s1.01 1.255 7.175 3.94c4.784 2.083 8.072 2.042 8.072 2.042s-4-13.877-15.267-12.854"/><path fill="#fff" d="M58.324 108.63c.562-.776-4.027-2.76-7.277.276-3.25 3.034 1.574 7.582 7.277-.275M95.877 108.42c-.526-.8 4.15-2.573 7.256.612 3.104 3.182-1.924 7.502-7.256-.613M61.847 104.59s1.99.95 4.252.198c2.36-.788 2.487-2.606 2.487-2.606s-1.542-7.512-7.682-9.274c-6.14-1.766-10.475 4.226-10.475 4.226s5.094-2.004 8.045.354c2.118 1.69 3.372 7.103 3.372 7.103M90.57 104.268s-1.983 1.532-4.242.78c-2.36-.79-2.926-3.047-2.926-3.047s1.98-7.07 8.12-8.836c6.138-1.763 10.036 5.395 10.036 5.395s-4.656-3.172-7.608-.815c-2.116 1.692-3.38 6.523-3.38 6.523M84.895 132.56c-1.086-3.41-5.42-.325-6.09.175-.403-.382-.977-.584-1.703-.498-.68.08-1.17.376-1.48.794-.85-.623-4.97-3.433-6.022-.118-1.172 3.702.118 5.338 2.187 5.536 1.475.14 3.043-1.73 3.82-2.81.392.602 1.075.96 1.998.85.716-.086 1.225-.41 1.53-.867.834 1.093 2.246 2.607 3.58 2.48 2.068-.202 3.356-1.842 2.18-5.54"/><path fill="#fff" d="M76.402 89.245l1.988 4.03 4.446.645-3.217 3.135.76 4.427-3.978-2.09-3.976 2.09.76-4.427-3.218-3.135 4.446-.646zM62.87 123.007s-.09.015-.258.05c-.168.032-.41.097-.712.18-.3.087-.66.215-1.04.392-.38.176-.788.413-1.132.74-.346.324-.612.737-.727 1.223l-.018.093-.01.044-.005.025-.002.013.004-.02-.002.006-.008.06-.002.028v.01c.004.015.002.02.005.054.002.108.018.247.04.392.044.295.106.626.156.977.102.7.162 1.504-.03 2.342-.093.415-.254.83-.476 1.216-.114.188-.24.37-.38.54l-.105.128-.013.016-.043.045-.025.025-.05.047-.045.05-.088.074c-.058.048-.123.104-.178.14-.214.154-.442.26-.66.347-.22.078-.437.14-.644.18-.415.087-.8.11-1.168.134-.725.05-1.39.055-1.92.19-.533.135-.87.372-1.105.782-.14.255-.247.494-.344.746-.102.25-.178.5-.238.744-.124.49-.18.96-.197 1.384-.018.424 0 .8.034 1.11.036.31.074.557.11.725.037.165.062.255.062.255s-.058-.073-.148-.222c-.088-.15-.22-.37-.34-.675-.125-.302-.262-.68-.35-1.14-.094-.458-.145-.99-.112-1.575.018-.292.055-.597.12-.91.066-.31.164-.643.28-.953.14-.362.378-.73.702-1.02.322-.3.716-.497 1.098-.63.386-.142.77-.207 1.142-.262s.733-.086 1.077-.12c.344-.037.677-.075.968-.14.147-.028.278-.07.4-.112.115-.05.217-.104.3-.16.02-.012.022-.018.036-.026l.02-.008.048-.05.047-.047.023-.023.007-.006c-.013.014.035-.038-.026.026l.01-.01.07-.082c.092-.107.17-.223.246-.34.143-.24.26-.494.334-.772.158-.552.166-1.176.134-1.822-.017-.322-.047-.653-.056-1.013-.004-.18-.006-.365.016-.577.003-.045.015-.116.027-.183l.008-.05.008-.028.017-.06.01-.043.007-.016.012-.03.024-.068.05-.132c.272-.704.783-1.245 1.302-1.573.52-.332 1.043-.498 1.5-.594.456-.098.858-.115 1.183-.12.327-.008.58.022.752.04.172.017.262.037.262.037M66.524 125.864s-.09.025-.26.085c-.17.06-.414.154-.717.284-.3.132-.654.313-1.028.55-.372.237-.765.542-1.08.93-.316.39-.538.862-.592 1.388l-.007.1-.004.05v.026l-.002.01c.005-.052.002-.008.002-.02v.102l.005.01c.005.015.006.024.012.06.017.114.053.257.096.406.09.3.2.638.302.993.205.71.38 1.532.303 2.423-.038.442-.145.895-.318 1.32-.09.21-.193.418-.314.61l-.088.147-.013.02-.037.05-.02.03-.044.056-.043.058-.08.09c-.05.056-.11.123-.16.17-.197.183-.414.325-.63.444-.213.11-.428.206-.635.275-.417.15-.812.23-1.19.31-.745.154-1.438.26-1.973.48-.542.218-.868.526-1.05.995-.11.288-.186.55-.25.83-.067.276-.107.55-.134.813-.057.528-.044 1.027.002 1.47.045.442.122.833.203 1.15.087.314.163.566.228.732.062.168.1.256.1.256s-.068-.068-.183-.208c-.11-.145-.276-.356-.445-.655-.17-.298-.365-.674-.52-1.136-.16-.46-.288-1.005-.333-1.616-.024-.305-.027-.626-.004-.96.025-.33.08-.688.155-1.026.093-.393.287-.803.578-1.15.29-.348.666-.607 1.042-.8.377-.198.766-.322 1.142-.432.377-.11.748-.193 1.1-.28.354-.085.695-.175.99-.282.15-.053.284-.117.406-.18.115-.068.215-.14.297-.213.02-.016.023-.024.037-.034l.018-.014.044-.06.044-.053.02-.03.007-.01c-.01.016.03-.04-.02.03l.006-.01.06-.096c.082-.13.15-.263.21-.396.117-.273.203-.557.24-.86.084-.603 0-1.257-.128-1.927-.065-.333-.146-.673-.207-1.04-.03-.186-.06-.377-.067-.596-.003-.048-.002-.123 0-.192l.002-.05.005-.034.007-.062.006-.044.004-.016.007-.037.014-.076.03-.143c.182-.764.628-1.395 1.115-1.81.487-.42 1.004-.668 1.463-.834.46-.168.872-.248 1.21-.302.334-.057.604-.065.784-.074.182-.004.277.004.277.004M91.283 123.007s.09-.02.262-.04c.172-.017.427-.047.753-.04.325.006.727.023 1.184.12.457.096.978.262 1.5.594.517.33 1.027.87 1.302 1.574l.05.132.022.067.013.03.004.017.01.044.018.06.008.026.01.05.025.184c.02.212.02.398.016.577-.008.36-.04.69-.055 1.014-.03.646-.024 1.27.134 1.822.072.277.19.53.332.77.075.12.155.234.248.342l.07.082.008.01c-.06-.064-.013-.013-.025-.026l.007.006.023.023.05.048.048.05.02.008c.012.01.014.015.035.027.083.055.184.11.3.16.12.04.252.083.4.11.29.065.624.104.966.14.346.035.71.066 1.08.12s.755.12 1.14.262c.384.134.776.332 1.1.63.322.29.56.658.7 1.02.116.312.213.646.28.955.064.313.103.617.12.91.034.585-.018 1.116-.11 1.574-.09.46-.226.838-.35 1.14-.122.305-.253.525-.34.675-.09.15-.15.223-.15.223s.025-.09.062-.256c.036-.168.074-.415.11-.725.035-.31.053-.687.036-1.11-.017-.423-.073-.893-.197-1.384-.06-.244-.136-.494-.236-.744-.097-.252-.204-.49-.344-.747-.235-.41-.573-.647-1.106-.78-.53-.138-1.195-.143-1.92-.192-.367-.023-.752-.047-1.17-.135-.205-.04-.42-.1-.64-.18-.22-.087-.447-.19-.66-.345-.055-.036-.12-.093-.178-.14l-.088-.075-.047-.05-.047-.047-.024-.024-.043-.046-.014-.015-.105-.13c-.14-.17-.265-.352-.38-.54-.22-.384-.383-.8-.475-1.215-.193-.838-.133-1.643-.03-2.342.05-.35.112-.682.157-.977.022-.145.038-.283.04-.392l.004-.054.002-.01-.004-.03-.008-.058v-.007l.005.02-.004-.012-.005-.025-.008-.044-.02-.093c-.116-.484-.38-.897-.727-1.222-.345-.327-.75-.564-1.132-.74-.382-.178-.74-.306-1.04-.392-.302-.084-.544-.148-.712-.18-.167-.035-.257-.05-.257-.05M87.627 125.864s.097-.008.278-.004c.18.01.45.018.785.074.337.054.75.134 1.21.302.458.166.974.414 1.463.834.487.414.934 1.046 1.115 1.81l.03.144.016.075.007.036.004.016.005.044.008.062.004.033.002.052c.002.07.003.145 0 .192-.01.22-.036.41-.067.597-.06.367-.142.707-.206 1.04-.127.67-.21 1.324-.127 1.93.036.302.123.585.24.858.06.134.127.267.21.396l.06.095.007.01c-.05-.07-.01-.015-.02-.03l.004.01.023.03.042.053.043.06.02.013c.014.01.016.02.036.035.08.074.182.146.297.213.122.063.255.128.404.18.297.108.638.198.99.284s.725.17 1.102.28c.376.108.765.232 1.143.432.376.19.752.45 1.04.798.292.348.486.758.58 1.15.074.338.13.697.154 1.026.023.334.02.655-.004.96-.046.61-.174 1.155-.332 1.615-.157.46-.35.837-.522 1.135-.17.3-.334.51-.446.655-.114.14-.182.208-.182.208s.038-.088.1-.256c.064-.166.142-.418.226-.733.082-.317.158-.708.204-1.15.047-.442.06-.94.002-1.47-.026-.262-.068-.535-.133-.812-.065-.28-.142-.542-.25-.83-.183-.47-.51-.777-1.05-.995-.535-.22-1.227-.326-1.973-.48-.377-.08-.773-.158-1.19-.31-.207-.07-.42-.164-.637-.275-.214-.12-.43-.262-.628-.445-.05-.046-.11-.113-.16-.17l-.08-.09-.042-.057-.043-.057-.02-.03-.038-.05-.01-.02-.09-.146c-.122-.193-.225-.4-.315-.61-.174-.427-.28-.88-.318-1.32-.08-.892.096-1.713.302-2.425.1-.356.213-.694.3-.994.045-.15.08-.292.098-.407l.01-.06.005-.01v-.102c.002.012 0-.032.003.02v-.01l-.003-.025-.004-.05-.005-.1c-.055-.526-.276-1-.593-1.388-.315-.39-.707-.693-1.078-.93-.374-.238-.73-.42-1.03-.55-.302-.13-.546-.227-.715-.286-.17-.06-.263-.086-.263-.086M94.63 119.74s.08-.028.24-.07c.16-.038.395-.1.703-.137.306-.034.687-.07 1.13-.038.444.03.956.12 1.49.37.533.24 1.085.69 1.435 1.324l.063.117.033.06.015.03.008.017.015.038.023.05.012.03.015.046c.02.06.04.13.048.17.048.2.07.376.088.547.037.338.05.652.075.96.052.608.136 1.187.352 1.682.1.248.24.466.403.67.084.103.17.2.27.286l.074.068.01.01c-.07-.055-.017-.013-.03-.025l.007.005.025.02.05.04.052.037.018.006c.01.006.013.01.032.02.08.04.18.075.292.104.117.027.242.05.383.06.276.022.593.02.92.012.326-.01.672-.026 1.028-.02.355.006.73.024 1.112.108.38.08.778.22 1.123.463.342.24.616.56.792.89.146.276.28.583.38.865.097.29.17.574.22.846.103.55.116 1.058.084 1.5-.032.443-.116.815-.2 1.114-.08.304-.177.528-.242.678-.07.15-.114.227-.114.227s.01-.09.022-.25c.013-.162.016-.4.01-.694-.008-.296-.04-.652-.11-1.048-.072-.393-.184-.825-.363-1.268-.088-.223-.19-.446-.316-.668-.124-.225-.253-.43-.417-.653-.27-.352-.603-.522-1.115-.577-.506-.063-1.13.013-1.82.058-.348.025-.713.05-1.118.018-.2-.013-.414-.042-.632-.087-.222-.056-.45-.127-.673-.248-.057-.027-.127-.072-.19-.11l-.09-.063-.053-.04-.05-.04-.027-.02-.048-.04-.013-.012-.116-.106c-.154-.145-.296-.303-.427-.467-.26-.336-.463-.714-.603-1.096-.285-.772-.327-1.54-.314-2.21.005-.337.023-.656.03-.938.002-.137 0-.27-.01-.37 0-.03-.002-.035 0-.046v-.01l-.007-.025-.013-.054-.003-.01c.003.012-.01-.026.008.024l-.005-.013-.005-.02-.015-.043-.03-.082c-.163-.437-.455-.79-.816-1.055-.36-.265-.767-.44-1.146-.563-.378-.12-.73-.2-1.022-.25-.293-.04-.53-.07-.69-.08l-.25-.023M59.473 119.74s-.087.01-.25.022c-.16.01-.396.04-.69.082-.29.048-.643.13-1.022.25-.377.12-.786.297-1.145.562-.36.265-.654.618-.818 1.055l-.03.083-.012.042-.007.02-.004.014c.02-.052.004-.014.007-.024v.01l-.014.054-.007.025v.01l-.002.047c-.01.1-.012.232-.01.37.01.28.026.6.032.936.01.67-.03 1.44-.314 2.21-.14.382-.344.76-.602 1.096-.133.164-.275.322-.428.467l-.116.107-.014.013-.047.038-.028.02-.05.04-.05.04-.094.062c-.06.04-.13.084-.188.11-.223.122-.452.193-.673.25-.218.045-.432.074-.632.087-.404.03-.77.008-1.12-.017-.688-.045-1.313-.12-1.818-.058-.512.055-.845.226-1.116.576-.163.223-.292.43-.415.653-.125.223-.227.446-.315.67-.18.44-.293.874-.363 1.267-.07.396-.103.752-.112 1.048-.006.295-.002.532.01.695.012.16.022.248.022.248s-.045-.075-.113-.227c-.066-.148-.163-.373-.243-.677-.082-.3-.166-.67-.196-1.114-.034-.443-.02-.95.08-1.5.052-.27.125-.557.224-.846.1-.282.233-.59.377-.866.178-.33.452-.648.794-.888.344-.242.742-.383 1.12-.463.385-.084.757-.103 1.113-.108.357-.008.702.01 1.03.018.326.01.643.01.92-.013.14-.01.267-.03.383-.06.112-.028.21-.064.292-.104l.033-.018.017-.006.052-.036.05-.04.026-.02.006-.006c-.014.013.04-.03-.03.025l.01-.01.075-.068c.1-.087.186-.184.27-.286.16-.204.303-.422.403-.67.216-.495.3-1.073.35-1.683.026-.307.038-.62.076-.96.02-.17.04-.346.088-.545.01-.042.03-.11.048-.17l.016-.047.01-.028.023-.05.017-.04.007-.016.016-.03.03-.06.064-.118c.35-.634.9-1.083 1.433-1.324.536-.25 1.05-.34 1.492-.37.442-.033.822.004 1.13.038.307.037.543.1.702.137.16.042.24.07.24.07"/><path fill="#EAC591" d="M295.29 232.354H8.303l-5-56H300.29z"/><path fill="#F3F3F3" d="M160.533 25.57H310.99v12.622H160.533z"/></svg>