<svg xmlns="http://www.w3.org/2000/svg" width="207.676" height="263.859" viewBox="0 0 207.676 263.859"><path fill="#1B1C1C" d="M103.228 212.79s2.102 30.667 6.043 40.416c3.32 8.21 7.62 10.65 7.62 10.65s-10.896.49-18.01-11.47c-7.116-11.96-8.415-24.924-8.415-24.924l12.763-14.67z"/><path fill="#fff" d="M207.676 139.798c0-4.74-3.846-8.58-8.588-8.58-.13 0-.257.012-.386.018 1.674-1.225 2.767-3.197 2.767-5.43 0-3.72-3.02-6.73-6.74-6.73-.147 0-.294.01-.438.02 1.316-1.88 1.89-4.273 1.377-6.696-.433-2.04-1.558-3.756-3.075-4.952 3.223-2.448 5.112-6.48 4.627-10.79-.598-5.26-4.547-9.323-9.48-10.305 1.044-1.42 1.667-3.166 1.667-5.063 0-4.74-3.847-8.58-8.59-8.58-1.816 0-3.5.567-4.89 1.532-1.87-3.112-3.85-6.1-5.933-8.948 2.556-1.487 4.276-4.245 4.276-7.413 0-4.74-3.844-8.58-8.586-8.58-1.826 0-3.518.573-4.908 1.545.687-1.236 1.08-2.654 1.08-4.167 0-4.74-3.843-8.582-8.585-8.582-1.46 0-2.828.366-4.03 1.005 1.6-1.87 2.573-4.293 2.573-6.948 0-5.912-4.797-10.704-10.71-10.704-2.038 0-3.935.578-5.554 1.563-1.76-4.623-6.232-7.91-11.477-7.91-3.865 0-7.31 1.785-9.56 4.572-1.98-3.593-5.805-6.028-10.2-6.028-5.954 0-10.858 4.474-11.544 10.238-1.805-3.366-5.356-5.656-9.446-5.656-5.916 0-10.71 4.792-10.71 10.704 0 2.515.873 4.823 2.325 6.65-4.898 2.318-9.604 5.185-14.08 8.547-.58-4.174-4.157-7.39-8.494-7.39-4.744 0-8.588 3.84-8.588 8.58 0 .948.16 1.858.444 2.71-1.286-.546-2.702-.85-4.19-.85-5.916 0-10.71 4.792-10.71 10.704 0 5.235 3.76 9.583 8.728 10.513-2.398 3.517-4.643 7.22-6.727 11.1-1.297-1.394-3.14-2.27-5.194-2.27-3.924 0-7.106 3.18-7.106 7.1 0 1.748.635 3.346 1.682 4.582-.46-.075-.927-.125-1.408-.125-4.743 0-8.59 3.84-8.59 8.58 0 1.65.475 3.184 1.282 4.49-5.365 1.11-9.095 6.137-8.468 11.68.412 3.635 2.6 6.632 5.6 8.235-2.108 1.138-3.543 3.365-3.543 5.93 0 2.232 1.092 4.205 2.767 5.43-3.592 1.026-6.225 4.325-6.225 8.244 0 3.744 2.405 6.92 5.752 8.09-3.347 1.173-5.752 4.35-5.752 8.094 0 3.044 1.594 5.713 3.987 7.236C2.5 166.51 0 170.18 0 174.444c0 5.702 4.468 10.35 10.094 10.673-.95 1.598-1.506 3.46-1.506 5.453 0 5.34 3.917 9.754 9.035 10.56-2.425 1.516-4.043 4.2-4.043 7.27 0 4.74 3.845 8.58 8.59 8.58 1.432 0 2.78-.353 3.97-.975 0 .042-.007.085-.007.128 0 3.923 3.18 7.1 7.106 7.1 1.296 0 2.507-.352 3.554-.96-1.174 1.57-1.875 3.497-1.875 5.59 0 5.227 4.313 9.46 9.637 9.46 2.462 0 4.7-.913 6.404-2.404-.608 3.978 1.84 7.82 5.74 8.79 3.34.828 6.723-.708 8.457-3.557-.015.248-.025.498-.025.75 0 6.776 5.496 12.27 12.277 12.27 5.525 0 10.198-3.652 11.737-8.67.662 2.728 2.742 4.99 5.607 5.703 3.544.88 7.13-.903 8.75-4.088.97 3.678 4.31 6.396 8.298 6.396 3.813 0 7.044-2.49 8.163-5.93 2.244 4.11 6.82 6.67 11.764 6.11 6.517-.738 11.202-6.614 10.464-13.127l-.006-.054c1.465 2.635 4.274 4.42 7.508 4.42 4.742 0 8.586-3.843 8.586-8.582 0-.27-.016-.542-.04-.81 1.102.515 2.325.81 3.622.81 4.742 0 8.587-3.84 8.587-8.58 0-1.73-.518-3.342-1.4-4.69.116-.096.234-.19.354-.286 1.227 1.284 2.953 2.09 4.873 2.09 3.72 0 6.738-3.014 6.738-6.733 0-1.987-.867-3.77-2.238-5 .014-.017.024-.033.037-.05 1.856 1.344 4.14 2.14 6.605 2.14 6.222 0 11.27-5.043 11.27-11.262 0-3.975-2.065-7.47-5.18-9.47 1.26.545 2.67.785 4.132.62 4.448-.505 7.646-4.518 7.146-8.962-.503-4.446-4.52-7.643-8.968-7.138-.014 0-.025.006-.04.007.022-.113.048-.222.07-.334 3.702-1.092 6.203-4.707 5.753-8.672-.29-2.57-1.76-4.717-3.802-5.978.012-.14.022-.28.03-.42.13.006.26.02.394.02 4.742 0 8.588-3.84 8.588-8.58 0-2.464-1.047-4.68-2.71-6.243 3.252-1.223 5.574-4.35 5.574-8.03M145.96 41.686c.196-.1.39-.208.577-.32-.12.154-.24.31-.354.472-.074-.052-.148-.1-.223-.152m-131.003 92.23c-.008-.005-.015-.012-.023-.015.01-.005.018-.01.026-.012 0 .01-.002.018-.003.026m51.36 101.557c.025.01.048.017.07.023-.02.044-.04.087-.062.13l-.007-.152m123.845-42.708c-.16-.074-.325-.146-.49-.213.015-.038.03-.074.042-.11.144.114.297.22.448.322"/><path fill="#E2DED6" d="M51.79 96.9c-.743 24.987 22.383 36.765 51.314 37.674 28.932.908 52.716-9.397 53.46-34.383.742-24.985-22.215-53.305-51.147-54.214-28.93-.908-52.884 25.94-53.627 50.925"/><path fill="#fff" d="M77.41 34.81c0 5.912-4.797 10.704-10.713 10.704-5.917 0-10.713-4.792-10.713-10.703 0-5.91 4.796-10.704 10.713-10.704 5.916 0 10.712 4.793 10.712 10.705"/><path fill="#3A3A3A" d="M88.642 100.496l.437.06c.278.047.697.095 1.21.182l1.845.31 2.342.415c.848.157 1.76.32 2.713.48.953.17 1.952.33 2.97.478 1.018.147 2.06.282 3.095.367.26.02.52.043.78.065l.772.025.77.03.754-.018.376-.003H106.848l-.1.008h.017l.025-.004.217-.02.866-.074.427-.037.346-.055.693-.095c.22-.018.488-.096.733-.14l.75-.135c.498-.116.988-.242 1.48-.347l1.448-.393c.48-.14.943-.28 1.398-.415.914-.28 1.785-.56 2.597-.833l4-1.354 1.164-.385c.27-.09.418-.136.418-.136s-.32.53-1 1.36c-.682.824-1.727 1.936-3.148 3.09-.714.575-1.52 1.16-2.412 1.73-.443.29-.93.54-1.412.823-.488.276-1.02.503-1.545.764-.54.236-1.103.45-1.677.666-.595.188-1.162.39-1.813.536l-1.002.217-.506.103-.435.055-.862.1-.218.025-.164.013-.063.002-.123.003-.494.013-.99.005c-.326-.008-.645-.045-.966-.065-.32-.027-.644-.05-.958-.094-.31-.053-.62-.102-.93-.152-.62-.084-1.212-.233-1.797-.382-.59-.134-1.15-.31-1.702-.493-1.1-.354-2.127-.775-3.076-1.215-.95-.44-1.816-.907-2.597-1.372-1.562-.93-2.77-1.853-3.575-2.546-.407-.343-.705-.648-.913-.845-.21-.2-.308-.32-.308-.32"/><path fill="#3A3A3A" d="M108.236 103.944l-2.59 7.48-1.98-7.666z"/><path fill="#212120" d="M96.27 112.39s.084.023.24.07c.15.048.385.102.66.192.563.16 1.353.392 2.27.64.463.12.957.244 1.473.365.517.115 1.055.225 1.607.32.552.088 1.115.165 1.68.212.56.038 1.143.068 1.678.037.328-.01.668-.016.908-.054.265-.03.534-.04.83-.09.573-.074 1.15-.164 1.71-.275.283-.045.558-.108.833-.165.273-.05.54-.114.804-.174.525-.112 1.027-.23 1.495-.344.96-.224 1.76-.41 2.32-.538.28-.072.518-.11.672-.15.16-.03.245-.05.245-.05s-.05.073-.15.2c-.105.122-.256.314-.466.527-.414.44-1.043 1.024-1.883 1.617-.42.297-.89.6-1.41.882-.522.284-1.085.56-1.7.79-.3.13-.62.23-.946.328l-.49.15-.513.115c-.65.16-1.54.254-2.125.274-.767.025-1.488-.026-2.2-.153-.708-.117-1.38-.313-2.008-.54-.628-.23-1.204-.508-1.73-.794-.26-.153-.512-.3-.75-.452-.23-.16-.455-.31-.664-.465-.412-.315-.772-.624-1.078-.915-.304-.29-.547-.568-.744-.795-.392-.46-.567-.766-.567-.766"/><path fill="#E2DED6" d="M39.344 71.092c0 4.74-3.845 8.58-8.587 8.58-4.743 0-8.59-3.84-8.59-8.58s3.847-8.58 8.59-8.58c4.742 0 8.587 3.84 8.587 8.58M178.973 69.612c0 3.72-3.02 6.733-6.738 6.733-3.724 0-6.74-3.015-6.74-6.733 0-3.72 3.018-6.732 6.74-6.732 3.72 0 6.738 3.012 6.738 6.732"/><path fill="#fff" d="M98.763 217.638c0 4.74-3.844 8.58-8.587 8.58-4.744 0-8.588-3.84-8.588-8.58s3.844-8.58 8.588-8.58c4.743 0 8.587 3.84 8.587 8.58"/><path fill="#CB2A2B" d="M102.39 142.78s-13.582-10.687-16.767-.64c-3.184 10.046.32 14.494 5.937 15.026 5.613.53 11.73-9.65 11.73-9.65l-.9-4.735zM110.376 141.847s13.57-10.703 16.77-.66c3.192 10.043-.305 14.495-5.92 15.034-5.614.54-11.74-9.633-11.74-9.633l.89-4.74zM112.373 145.403c.378 3.188-1.294 6.006-5.02 6.447-3.725.44-6.006-1.908-6.387-5.093-.377-3.19 1.295-6.006 5.02-6.448 3.723-.444 6.01 1.906 6.387 5.093"/><path fill="#2F160C" d="M76.588 90.022s.023-.077.077-.217c.058-.137.13-.348.257-.595.24-.506.626-1.21 1.2-1.99.29-.386.63-.79 1.02-1.196.2-.197.41-.397.63-.6.23-.192.467-.386.72-.574.513-.365 1.08-.71 1.714-.975.634-.264 1.327-.464 2.05-.524l.544-.034.067-.004h.104l.115.006.23.014c.315.017.593.02.948.08.688.08 1.316.23 1.912.418 1.2.38 2.227.972 2.996 1.592.39.307.71.625.974.924.272.29.472.575.63.81.313.472.422.777.422.777s-.253-.2-.708-.492c-.228-.145-.508-.31-.83-.485-.16-.09-.332-.18-.52-.264-.182-.09-.375-.178-.58-.26-.404-.178-.852-.34-1.325-.485-.474-.147-.98-.268-1.505-.368-.528-.096-1.08-.16-1.606-.198-.247-.036-.586-.018-.886-.034l-.23-.006-.116-.003H84.854h.035-.014l-.048.005-.383.035c-.51.028-1.02.172-1.524.336-.25.076-.493.205-.742.297-.245.107-.477.246-.717.357-.232.136-.46.27-.685.398-.22.145-.436.285-.646.422-.417.29-.81.575-1.166.854-.718.554-1.305 1.058-1.72 1.414-.418.36-.656.568-.656.568M114.552 86.71s.035-.073.113-.2c.08-.127.19-.32.358-.543.324-.455.828-1.077 1.53-1.744.355-.33.76-.667 1.216-.998.23-.16.474-.32.727-.478.26-.15.526-.3.81-.44.57-.268 1.19-.508 1.86-.656.67-.146 1.388-.222 2.11-.153l.54.06.067.01h.018l.055.014.027.007.113.024.225.055c.31.072.58.127.92.246.662.2 1.255.46 1.81.75 1.112.587 2.02 1.35 2.666 2.096.33.37.59.74.798 1.08.215.333.36.65.477.908.226.52.277.84.277.84s-.213-.242-.61-.61c-.197-.183-.444-.394-.73-.624-.14-.117-.296-.236-.466-.35-.163-.122-.338-.244-.525-.362-.368-.246-.777-.484-1.218-.71-.44-.23-.92-.436-1.42-.628-.5-.187-1.033-.348-1.544-.478-.237-.08-.575-.12-.866-.188l-.227-.048-.113-.023-.027-.007h-.008c.076.015.02.003.033.006h-.013l-.048-.004-.382-.034c-.51-.06-1.037-.01-1.562.062-.262.03-.52.115-.784.16-.26.064-.514.158-.77.226-.25.093-.5.184-.743.272l-.714.302c-.458.21-.896.423-1.297.633-.807.417-1.47.81-1.942 1.086-.478.28-.746.443-.746.443"/><path fill="#ECADB0" d="M76.588 98.564c0 3.695-3.078 6.69-6.875 6.69s-6.875-2.995-6.875-6.69c0-3.694 3.078-6.69 6.875-6.69s6.875 2.996 6.875 6.69M147.434 97.335c0 3.693-3.078 6.69-6.875 6.69s-6.874-2.997-6.874-6.69c0-3.696 3.076-6.69 6.873-6.69s6.874 2.994 6.874 6.69"/><path fill="#1B1C1C" d="M50.762 63.85c2.154-2.97-15.41-10.57-27.85 1.05-12.436 11.62 6.025 29.027 27.85-1.05M156.604 62.015c-2.016-3.064 15.883-9.843 27.77 2.343 11.882 12.184-7.366 28.716-27.77-2.343"/><path fill="#93918B" d="M54.723 41.79s6.93 3.305 14.792.682c8.214-2.74 8.658-9.07 8.658-9.07S72.81 7.27 51.445 1.133C30.08-5.01 14.997 15.834 14.997 15.834s17.724-6.97 27.995 1.235c7.362 5.883 11.73 24.72 11.73 24.72M157.1 43.12s-6.896 5.33-14.76 2.707c-8.213-2.74-10.18-10.596-10.18-10.596s6.888-24.605 28.252-30.745c21.363-6.138 34.92 18.77 34.92 18.77s-16.197-11.037-26.47-2.83C161.5 26.308 157.1 43.12 157.1 43.12"/><path fill="#2F160C" d="M79.227 86.626s-.02.09-.11.24c-.046.067-.097.165-.18.246s-.168.195-.29.27c-.12.084-.25.193-.408.252-.156.066-.324.15-.507.178-.18.033-.374.09-.566.08-.203-.005-.368.004-.61-.03-.088-.02-.162-.03-.262-.058-.112-.035-.222-.078-.33-.12-.194-.094-.37-.216-.522-.356-.147-.145-.265-.302-.35-.46-.086-.16-.14-.32-.172-.47-.07-.292-.05-.54-.023-.703.03-.166.07-.255.07-.255s.18.353.483.712c.075.09.166.176.256.257.092.08.194.147.298.212.056.026.11.054.164.083.06.02.12.042.176.067.055.014.11.023.16.045.067.02.166.03.247.046.102.02.288.02.425.043.15.03.29.006.433.017.145.013.276-.012.41-.02.136 0 .256-.03.38-.045.472-.083.83-.232.83-.232M128.63 84.72s.356.15.832.234c.12.014.24.045.378.045.133.005.266.032.41.017.145-.01.282.015.434-.016.137-.022.32-.022.422-.04.082-.02.182-.03.248-.048.053-.02.104-.03.16-.045.057-.025.114-.048.176-.067.054-.03.106-.058.164-.084.104-.064.207-.132.3-.212.088-.08.18-.166.255-.256.3-.36.48-.712.48-.712s.042.09.07.255c.028.166.046.412-.022.705-.03.146-.086.306-.172.466s-.203.318-.352.463c-.15.14-.328.262-.523.355-.103.044-.216.087-.327.12-.1.027-.172.04-.263.06-.24.035-.407.024-.61.027-.19.014-.385-.045-.564-.078-.184-.027-.35-.11-.506-.18-.156-.058-.287-.167-.406-.25-.123-.074-.21-.19-.293-.27-.08-.082-.132-.18-.18-.245-.09-.15-.11-.24-.11-.24"/><path fill="#fff" d="M102.857 35.92c-11.2 1.018-34.844 10.492-43.365 30.337s-6.764 16.105-6.764 16.105 13.16-2.764 27.394-8.588c14.236-5.824 22.803-14.893 22.803-14.893s3.37 4.184 23.968 13.155c15.974 6.957 26.957 6.822 26.957 6.822s-13.366-46.354-50.993-42.936"/><path fill="#1B1C1C" d="M59.653 144.737c4.04-8.813 13.542-1.395 20.862 2.767 7.322 4.162 15.88 11.61 10.38 18.927-5.104 6.79-14.905-.115-19.686-5.353-7.124-7.803-14.304-10.353-11.557-16.34"/><path fill="#fff" d="M53.465 157.654c-3.823-2.774-4.847-7.886-2.285-11.41 2.56-3.527 7.735-4.136 11.56-1.36 3.822 2.777 4.846 7.887 2.285 11.414-2.562 3.525-7.737 4.132-11.56 1.356M59.402 142.88c-1.757-3.507-.338-7.774 3.17-9.532 3.508-1.76 7.776-.343 9.534 3.163 1.756 3.508.337 7.773-3.173 9.532-3.508 1.758-7.774.342-9.53-3.163"/><path fill="#3A3A3A" d="M83.212 161.413l.153.013c.09.014.24.023.392.06.157.032.355.068.55.13.197.057.406.133.62.222.424.18.852.434 1.227.753.1.077.184.166.272.253.092.084.176.176.252.273.168.186.3.396.438.604.118.22.24.438.324.672.096.23.165.47.215.712.104.48.127.978.088 1.437-.02.23-.053.45-.094.65-.04.202-.1.394-.146.546-.037.15-.102.288-.13.374l-.06.14-.22.132-.193-.283c-.12-.183-.307-.435-.504-.75l-1.46-2.322c-.495-.864-.99-1.73-1.36-2.38-.19-.32-.32-.606-.425-.798l-.157-.305.22-.132zM87.193 157.347s.05 0 .144-.006c.088 0 .24-.018.387-.007.154.008.35.01.53.042.196.025.413.053.62.108.42.104.85.275 1.23.518.192.12.376.255.543.406.166.152.318.32.457.5.137.18.256.372.36.572.1.204.185.412.247.633.132.433.185.89.177 1.323-.002.214-.03.432-.057.623-.016.187-.064.375-.098.523-.025.144-.084.287-.107.37-.03.088-.043.136-.043.136l-.203.155s-.305-.337-.743-.853c-.215-.263-.473-.562-.734-.895l-.818-1.044c-.27-.362-.54-.725-.79-1.065-.257-.337-.477-.667-.675-.942-.384-.557-.63-.938-.627-.938l.2-.155z"/><path fill="#1B1C1C" d="M153.768 145.982c-3.125-9.176-12.746-2.81-20.152 1.197-10.377 5.613-16.522 9.182-12.688 17.494 4.664 10.105 14.072 2.072 21.854-4.09 8.28-6.56 13.11-8.367 10.986-14.602"/><path fill="#fff" d="M148.916 149.47c1.995-3.138 6.16-4.062 9.3-2.067 3.14 1.996 4.068 6.158 2.074 9.3-1.995 3.138-6.157 4.062-9.3 2.064-3.136-1.996-4.07-6.157-2.074-9.296M149.398 134.735c4.52-1.382 9.215.875 10.488 5.043 1.274 4.168-1.354 8.666-5.873 10.05-4.518 1.382-9.215-.876-10.488-5.044-1.274-4.168 1.356-8.665 5.873-10.05"/><path fill="#3A3A3A" d="M121.068 161.968l-.03-.15c-.01-.09-.042-.238-.047-.394-.012-.16-.03-.36-.026-.565.002-.207.017-.428.045-.656.06-.46.184-.94.39-1.387.044-.117.106-.22.167-.33.057-.112.12-.218.192-.318.133-.21.3-.397.463-.587.18-.173.354-.35.56-.494.192-.156.405-.288.624-.402.436-.232.906-.39 1.36-.477.225-.042.443-.072.65-.085.2-.02.403-.013.562-.012.153-.006.305.02.395.023.1.012.15.02.15.02l.187.174-.22.264c-.142.167-.33.416-.584.69l-1.832 2.04-1.92 1.956c-.26.27-.495.475-.65.63l-.252.232-.186-.174zM123.09 166.756s0-.053.003-.152c.013-.09.013-.242.04-.394.026-.16.053-.357.104-.555.047-.202.11-.412.19-.63.16-.433.39-.87.69-1.26.068-.102.154-.19.236-.283.08-.097.166-.184.26-.264.177-.175.38-.317.58-.463.214-.13.424-.262.652-.356.227-.106.46-.186.698-.25.476-.125.968-.17 1.43-.15.228.008.448.03.65.062.202.03.396.08.55.118.152.03.293.088.38.112l.142.054.143.212s-.102.074-.27.206c-.18.128-.417.328-.725.538-.61.428-1.425.996-2.24 1.566l-2.304 1.467c-.314.203-.59.347-.774.46l-.297.172-.14-.21z"/></svg>