<svg xmlns="http://www.w3.org/2000/svg" width="659.574" height="504.883" viewBox="0 0 659.574 504.883"><path fill="#1B1C1C" d="M423.892 301.774s25.414 39.948 37.924 50.24c10.53 8.666 18.148 8.806 18.148 8.806s-14.385 8.68-32.813-2.27c-18.43-10.944-29.73-27.53-29.73-27.53l6.472-29.246z"/><path fill="#fff" d="M475.265 233.453c0 104.543-62.828 137.633-140.33 137.633-77.504 0-140.33-33.09-140.33-137.633 0-104.545 62.826-189.296 140.33-189.296 77.502 0 140.33 84.75 140.33 189.296"/><path fill="#E2DED6" d="M252.784 149.265c-1.146 38.488 34.48 56.632 79.045 58.03 44.563 1.4 81.202-14.476 82.347-52.963 1.146-38.488-34.22-82.11-78.785-83.512-44.566-1.398-81.462 39.957-82.608 78.445"/><path fill="#fff" d="M292.247 53.622c0 9.106-7.387 16.488-16.5 16.488-9.114 0-16.504-7.382-16.504-16.488 0-9.105 7.39-16.488 16.503-16.488 9.114 0 16.5 7.382 16.5 16.488M317.87 44.56c0 9.106-7.387 16.487-16.5 16.487-9.114 0-16.502-7.38-16.502-16.487s7.388-16.487 16.5-16.487c9.115 0 16.503 7.38 16.503 16.487M351.62 38.915c0 9.887-8.02 17.9-17.915 17.9s-17.916-8.014-17.916-17.9 8.02-17.9 17.915-17.9c9.894 0 17.916 8.013 17.916 17.9M383.046 42.153c0 10.436-8.467 18.895-18.91 18.895s-18.91-8.46-18.91-18.895c0-10.438 8.467-18.896 18.91-18.896 10.444 0 18.91 8.458 18.91 18.896M406.867 49.525c0 9.106-7.39 16.487-16.5 16.487-9.113 0-16.502-7.38-16.502-16.487s7.39-16.487 16.502-16.487c9.11 0 16.5 7.38 16.5 16.487M266.906 69.804c0 7.3-5.92 13.218-13.228 13.218-7.305 0-13.227-5.918-13.227-13.218s5.923-13.218 13.228-13.218c7.308 0 13.228 5.917 13.228 13.218M422.34 71.9c0 7.3-5.923 13.218-13.23 13.218-7.305 0-13.23-5.918-13.23-13.22 0-7.3 5.925-13.216 13.23-13.216 7.307 0 13.23 5.916 13.23 13.217"/><path fill="#3A3A3A" d="M309.55 154.803l.674.092c.43.072 1.074.146 1.868.28l2.838.476c1.075.19 2.285.406 3.606.642 1.306.24 2.712.49 4.18.742 1.47.258 3.006.506 4.573.733 1.568.224 3.174.43 4.77.562.398.032.8.067 1.2.102l1.187.04 1.186.046 1.16-.028.578-.003H337.59c-.068.005.178-.013-.148.014h.02l.042-.006.334-.03 1.334-.116.656-.058.533-.08 1.063-.147c.344-.027.758-.15 1.133-.217l1.156-.208c.766-.18 1.523-.374 2.283-.534l2.23-.604c.734-.218 1.453-.43 2.154-.64 1.405-.433 2.75-.864 3.997-1.283 2.55-.863 4.676-1.582 6.162-2.087l1.79-.592.646-.21s-.492.82-1.54 2.096c-1.05 1.27-2.66 2.983-4.85 4.76-1.1.887-2.34 1.787-3.716 2.663-.684.447-1.43.833-2.176 1.27-.754.424-1.57.773-2.38 1.175-.833.367-1.7.695-2.583 1.026-.915.29-1.79.6-2.792.83-.514.108-1.027.22-1.543.33l-.78.16-.67.085-1.33.155-.33.036-.255.02-.096.003-.19.006-.76.016-1.528.01c-.502-.014-.992-.07-1.488-.104-.492-.04-.988-.075-1.473-.143l-1.43-.233c-.958-.13-1.87-.36-2.77-.588-.91-.205-1.772-.48-2.622-.76-1.697-.545-3.277-1.195-4.74-1.872-1.462-.68-2.8-1.396-4.002-2.114-2.402-1.432-4.26-2.853-5.505-3.923-.627-.525-1.085-.997-1.406-1.298-.314-.31-.47-.492-.47-.492"/><path fill="#3A3A3A" d="M339.736 160.114l-3.994 11.524-3.05-11.81z"/><path fill="#212120" d="M321.302 173.123l.367.106c.234.076.592.16 1.018.3.87.247 2.082.603 3.5.982.712.187 1.47.377 2.265.563.796.18 1.628.347 2.475.495.852.136 1.72.253 2.588.326.863.06 1.762.106 2.588.058.504-.017 1.025-.024 1.398-.083.406-.046.822-.06 1.277-.136.884-.115 1.77-.254 2.636-.424.434-.07.86-.17 1.28-.256.423-.078.835-.175 1.237-.268.813-.173 1.588-.355 2.307-.528 1.48-.344 2.71-.63 3.572-.828.436-.112.8-.172 1.037-.23l.376-.078s-.076.112-.232.308c-.164.188-.39.485-.715.81-.64.68-1.608 1.58-2.903 2.495-.645.457-1.37.92-2.172 1.357-.8.438-1.674.86-2.62 1.218-.464.2-.956.354-1.458.505-.25.078-.504.153-.76.23l-.787.177c-1.002.25-2.373.394-3.273.426-1.18.037-2.293-.044-3.39-.24-1.087-.18-2.124-.48-3.09-.83-.965-.353-1.856-.782-2.668-1.225-.402-.235-.788-.463-1.153-.695-.355-.248-.703-.48-1.023-.72-.637-.484-1.192-.96-1.66-1.407-.47-.446-.843-.874-1.147-1.226-.604-.71-.875-1.18-.875-1.18"/><path fill="#E2DED6" d="M233.613 109.51c0 7.3-5.923 13.217-13.23 13.217-7.305 0-13.228-5.918-13.228-13.218 0-7.302 5.923-13.22 13.23-13.22 7.305 0 13.228 5.918 13.228 13.22"/><path fill="#fff" d="M251.184 89.16c0 9.104-7.388 16.485-16.5 16.485-9.115 0-16.503-7.38-16.503-16.486 0-9.108 7.39-16.49 16.503-16.49 9.112 0 16.5 7.38 16.5 16.49M206.01 268.713c0 9.104-7.387 16.484-16.5 16.484s-16.502-7.38-16.502-16.484c0-9.107 7.39-16.488 16.503-16.488s16.5 7.38 16.5 16.488M219.24 293.55c0 9.106-7.39 16.49-16.503 16.49-9.114 0-16.5-7.384-16.5-16.49s7.386-16.486 16.5-16.486c9.113 0 16.502 7.382 16.502 16.487M202.737 242.69c0 7.303-5.922 13.22-13.227 13.22-7.306 0-13.23-5.917-13.23-13.22 0-7.3 5.924-13.217 13.23-13.217 7.305 0 13.227 5.918 13.227 13.217M202.737 217.76c0 7.302-5.922 13.22-13.227 13.22-7.306 0-13.23-5.918-13.23-13.22 0-7.3 5.924-13.216 13.23-13.216 7.305 0 13.227 5.917 13.227 13.217M211.232 171.168c1.024 9.047-5.487 17.213-14.543 18.238-9.056 1.025-17.228-5.48-18.252-14.526s5.486-17.214 14.542-18.24c9.056-1.025 17.228 5.48 18.252 14.528M441.458 89.157c0 7.3-5.922 13.22-13.23 13.22-7.304 0-13.226-5.92-13.226-13.22 0-7.3 5.922-13.217 13.227-13.217 7.307 0 13.228 5.916 13.228 13.217M224.208 129.89c0 6.04-4.9 10.937-10.945 10.937-6.046 0-10.947-4.896-10.947-10.938 0-6.04 4.9-10.938 10.947-10.938 6.046 0 10.945 4.897 10.945 10.937M220.383 321.018c0 7.3-5.92 13.217-13.228 13.217-7.305 0-13.228-5.918-13.228-13.217 0-7.303 5.923-13.22 13.228-13.22 7.307 0 13.228 5.917 13.228 13.22M235.153 332.93c0 6.04-4.9 10.936-10.945 10.936-6.046 0-10.946-4.896-10.946-10.937s4.9-10.938 10.946-10.938c6.045.003 10.945 4.896 10.945 10.937M256.486 351c0 8.048-6.646 14.57-14.844 14.57-8.2 0-14.845-6.522-14.845-14.57s6.646-14.573 14.845-14.573c8.198-.003 14.844 6.523 14.844 14.572M274.822 366.46c-1.618 6.522-8.098 10.524-14.475 8.942-6.377-1.582-10.236-8.15-8.618-14.67 1.618-6.522 8.1-10.523 14.475-8.94 6.378 1.582 10.234 8.15 8.617 14.67M215.966 149.973c0 7.3-5.922 13.216-13.228 13.216s-13.227-5.918-13.227-13.217c0-7.303 5.922-13.22 13.228-13.22s13.228 5.917 13.228 13.22M202.366 196.696c0 5.73-4.646 10.372-10.38 10.372-5.732 0-10.38-4.644-10.38-10.372s4.648-10.37 10.38-10.37c5.734 0 10.38 4.64 10.38 10.37M480.474 260.37c.775 6.848-4.152 13.027-11.006 13.805-6.854.775-13.04-4.147-13.813-10.996-.775-6.85 4.15-13.03 11.006-13.805 6.853-.777 13.04 4.145 13.814 10.995M392.044 369.026c1.133 10.03-6.084 19.083-16.123 20.22-10.038 1.138-19.097-6.073-20.233-16.103-1.133-10.03 6.082-19.084 16.123-20.22 10.04-1.137 19.098 6.074 20.234 16.103M488.494 237.326c0 7.3-5.92 13.22-13.23 13.22-7.304 0-13.226-5.92-13.226-13.22 0-7.3 5.922-13.218 13.227-13.218 7.31 0 13.23 5.917 13.23 13.218M492.908 215.344c0 7.3-5.922 13.217-13.227 13.217-7.306 0-13.23-5.916-13.23-13.216 0-7.3 5.925-13.22 13.23-13.22 7.306 0 13.228 5.92 13.228 13.22M358.453 375.75c0 7.3-5.92 13.218-13.227 13.218s-13.23-5.918-13.23-13.22c0-7.298 5.923-13.216 13.23-13.216s13.227 5.918 13.227 13.217M333.443 376.47c-1.617 6.522-8.1 10.524-14.476 8.944-6.376-1.584-10.235-8.152-8.617-14.672 1.617-6.52 8.1-10.522 14.477-8.94 6.376 1.58 10.233 8.15 8.616 14.67M311.157 371.084c0 10.435-8.465 18.896-18.91 18.896-10.444 0-18.91-8.462-18.91-18.896 0-10.438 8.466-18.896 18.91-18.896 10.445 0 18.91 8.46 18.91 18.896M416.824 362.532c0 7.3-5.922 13.22-13.227 13.22-7.307 0-13.23-5.92-13.23-13.22 0-7.302 5.924-13.218 13.23-13.218 7.305 0 13.227 5.916 13.227 13.218M435.568 349.314c0 7.3-5.924 13.218-13.23 13.218s-13.228-5.92-13.228-13.218c0-7.304 5.922-13.22 13.23-13.22 7.304 0 13.228 5.916 13.228 13.22M476.8 148.89c1.135 10.03-6.082 19.083-16.123 20.22-10.037 1.134-19.096-6.075-20.23-16.105-1.137-10.032 6.082-19.085 16.12-20.222 10.04-1.136 19.1 6.076 20.233 16.107M464.77 125.217c0 7.3-5.923 13.218-13.228 13.218s-13.227-5.917-13.227-13.218c0-7.3 5.922-13.22 13.227-13.22 7.305.002 13.227 5.92 13.227 13.22M474.412 173.14c1.512 7.142-3.057 14.157-10.203 15.67-7.15 1.512-14.17-3.05-15.68-10.192-1.513-7.144 3.058-14.157 10.206-15.672 7.146-1.512 14.164 3.05 15.676 10.194M483.347 193.792c0 5.73-4.646 10.373-10.38 10.373-5.733 0-10.38-4.645-10.38-10.373s4.646-10.37 10.38-10.37c5.734-.002 10.38 4.64 10.38 10.37"/><path fill="#E2DED6" d="M448.693 107.23c0 5.728-4.648 10.37-10.38 10.37-5.733 0-10.382-4.643-10.382-10.37s4.65-10.372 10.384-10.372c5.73 0 10.38 4.642 10.38 10.37"/><path fill="#fff" d="M475.984 312.665c0 9.58-7.773 17.346-17.36 17.346s-17.36-7.765-17.36-17.345c0-9.582 7.773-17.346 17.36-17.346 9.586 0 17.36 7.763 17.36 17.345M451.84 334.495c0 5.73-4.65 10.373-10.382 10.373-5.734 0-10.38-4.645-10.38-10.373s4.645-10.37 10.38-10.37c5.733 0 10.38 4.64 10.38 10.37"/><path fill="#1B1C1C" d="M402.11 338.05c-50.18-.937-100.356-1.87-150.534-2.802 5.98 26.56 16.62 46.635 35.65 58.12 33.94 20.483 1.346-29.743 21.91-40.335 7.076-3.644 31.592-4.904 38.116 4.898 8.248 12.405-18.778 47.392 6.418 40.245 25.85-7.326 42.277-35.257 48.44-60.126"/><path fill="#fff" d="M325.14 335.25c0 7.298-5.92 13.216-13.226 13.216-7.307 0-13.23-5.918-13.23-13.217 0-7.304 5.923-13.218 13.23-13.218 7.306 0 13.227 5.914 13.227 13.217M485.375 285.224c.777 6.85-4.15 13.03-11.006 13.806-6.853.775-13.038-4.146-13.812-10.994-.775-6.85 4.15-13.03 11.004-13.806s13.04 4.145 13.813 10.994M286.855 339.836c0 11.01-8.93 19.935-19.948 19.935-11.02 0-19.95-8.923-19.95-19.934 0-11.012 8.93-19.934 19.95-19.934 11.018.002 19.948 8.923 19.948 19.934M305.477 349.084c0 7.3-5.922 13.217-13.23 13.217-7.304 0-13.227-5.917-13.227-13.216 0-7.303 5.923-13.217 13.228-13.217 7.307 0 13.23 5.915 13.23 13.217M321.922 354.96c0 8.378-5.932 15.163-13.25 15.163-7.32 0-13.255-6.785-13.255-15.162 0-8.372 5.934-15.16 13.254-15.16 7.32 0 13.252 6.788 13.252 15.16M314.396 321.93c0 9.762-7.92 17.675-17.688 17.675-9.772 0-17.69-7.913-17.69-17.674 0-9.762 7.918-17.676 17.69-17.676 9.77 0 17.688 7.914 17.688 17.677M351.17 345.506c0 9.58-7.77 17.346-17.356 17.346-9.59 0-17.363-7.766-17.363-17.346 0-9.582 7.774-17.344 17.364-17.344 9.586 0 17.355 7.762 17.355 17.344M356.566 359.456c0 5.73-4.646 10.373-10.38 10.373-5.733 0-10.38-4.645-10.38-10.374 0-5.73 4.646-10.37 10.38-10.37 5.733-.002 10.38 4.64 10.38 10.37M386.986 346.24c0 10.353-8.4 18.747-18.762 18.747-10.363 0-18.764-8.395-18.764-18.748 0-10.356 8.4-18.75 18.764-18.75 10.36 0 18.762 8.393 18.762 18.75M412.25 334.235c0 11.45-21.536 20.73-48.11 20.73-26.58 0-48.12-9.278-48.12-20.73 0-11.447 21.54-20.727 48.12-20.727 26.574 0 48.11 9.28 48.11 20.727M335.125 322.558c0 7.3-5.92 13.22-13.226 13.22-7.31 0-13.23-5.92-13.23-13.22 0-7.302 5.922-13.218 13.23-13.218 7.303 0 13.225 5.916 13.225 13.218M405.388 359.458c0 7.3-5.92 13.217-13.227 13.217s-13.228-5.918-13.228-13.217c0-7.303 5.922-13.22 13.23-13.22s13.226 5.917 13.226 13.22"/><path fill="#CB2A2B" d="M330.728 219.937s-20.924-16.46-25.826-.985c-4.903 15.477.49 22.33 9.142 23.146 8.65.82 18.07-14.86 18.07-14.86l-1.386-7.3zM343.03 218.5s20.905-16.486 25.827-1.018c4.924 15.47-.465 22.328-9.113 23.16-8.65.827-18.09-14.842-18.09-14.842l1.377-7.3zM346.105 223.978c.582 4.908-1.994 9.25-7.73 9.93-5.738.68-9.256-2.938-9.84-7.846-.58-4.91 1.995-9.252 7.73-9.932 5.736-.68 9.258 2.937 9.84 7.848"/><path fill="#2F160C" d="M290.983 138.668s.036-.118.118-.334c.09-.212.204-.536.4-.918.368-.778.963-1.86 1.848-3.06.446-.6.97-1.22 1.568-1.847.31-.307.632-.613.972-.924.354-.296.72-.596 1.108-.886.79-.563 1.666-1.093 2.642-1.502.977-.404 2.043-.714 3.158-.808l.836-.054.106-.006H303.85l.043.002.18.01.354.017c.487.026.913.032 1.46.123 1.06.123 2.028.355 2.948.645 1.844.587 3.43 1.497 4.612 2.452.597.473 1.094.964 1.5 1.424.42.443.724.885.97 1.245.483.728.65 1.197.65 1.197s-.39-.31-1.09-.758c-.35-.226-.784-.48-1.28-.75-.245-.14-.514-.276-.803-.404-.278-.14-.576-.276-.893-.405-.622-.272-1.31-.52-2.04-.746-.73-.227-1.51-.41-2.318-.565-.813-.147-1.666-.248-2.474-.306-.382-.056-.903-.025-1.365-.052l-.355-.01-.178-.006H303.712h.054l-.02.003-.073.006-.588.053c-.786.044-1.572.265-2.348.517-.39.12-.763.315-1.146.457-.375.165-.73.38-1.103.55l-1.055.615-.997.65c-.64.445-1.243.885-1.794 1.312-1.105.853-2.008 1.63-2.65 2.177-.638.56-1.007.878-1.007.878M349.46 133.565s.055-.11.178-.308c.123-.193.29-.492.55-.834.503-.7 1.278-1.66 2.362-2.687.545-.51 1.17-1.027 1.87-1.54.358-.245.73-.49 1.118-.735.402-.228.814-.46 1.246-.675.88-.414 1.834-.783 2.867-1.013 1.032-.226 2.138-.342 3.253-.237l.832.095.104.012.026.004.084.017.043.01.174.04.348.08c.475.113.893.194 1.414.38 1.02.308 1.933.708 2.788 1.154 1.71.902 3.11 2.078 4.107 3.228.504.57.906 1.14 1.225 1.665.334.51.56 1 .734 1.396.348.8.428 1.295.428 1.295s-.328-.372-.938-.937c-.307-.284-.688-.61-1.127-.965-.22-.18-.457-.36-.72-.54-.25-.187-.52-.373-.808-.556-.565-.378-1.198-.744-1.878-1.095-.678-.352-1.414-.67-2.182-.966-.773-.286-1.596-.535-2.38-.734-.366-.123-.888-.185-1.337-.29l-.348-.075-.176-.035-.044-.01-.012-.002c.117.024.03.008.053.012h-.02l-.07-.007-.592-.053c-.78-.095-1.594-.016-2.402.096-.404.048-.805.177-1.21.248-.397.097-.788.244-1.183.347-.39.143-.773.28-1.146.42-.373.158-.74.312-1.096.464-.71.325-1.38.65-1.996.976-1.242.643-2.268 1.247-2.994 1.672l-1.148.687"/><path fill="#ECADB0" d="M290.983 151.828c0 5.69-4.74 10.307-10.59 10.307s-10.59-4.615-10.59-10.307 4.74-10.306 10.59-10.306 10.59 4.613 10.59 10.306M400.113 149.933c0 5.69-4.74 10.306-10.59 10.306s-10.592-4.616-10.592-10.307c0-5.692 4.743-10.307 10.593-10.307s10.59 4.615 10.59 10.307"/><path fill="#1B1C1C" d="M251.2 98.352c3.317-4.574-23.738-16.282-42.898 1.62-19.158 17.9 9.28 44.712 42.898-1.62M414.238 95.528c-3.105-4.723 24.467-15.163 42.773 3.607 18.31 18.77-11.34 44.234-42.772-3.607"/><path fill="#93918B" d="M257.3 64.374s10.676 5.09 22.788 1.05c12.65-4.22 13.335-13.97 13.335-13.97s-8.262-40.255-41.17-49.71C219.342-7.713 196.11 24.39 196.11 24.39s27.3-10.735 43.123 1.905c11.34 9.06 18.068 38.08 18.068 38.08M415.003 66.422s-10.623 8.208-22.736 4.168c-12.65-4.22-15.684-16.32-15.684-16.32s10.61-37.906 43.52-47.362c32.91-9.455 53.795 28.915 53.795 28.915s-24.953-17.002-40.775-4.36c-11.34 9.06-18.12 34.96-18.12 34.96"/><path fill="#1B1C1C" d="M268.963 238.104c12.09-8.767 19.224 8.377 25.897 19.5 6.673 11.125 12.52 27.594-.4 33.246-11.985 5.245-19.907-11.434-22.357-22.08-3.655-15.857-11.357-24.713-3.14-30.666"/><path fill="#fff" d="M250.885 250.75c-3.03-6.618-.535-14.248 5.568-17.04 6.106-2.795 13.51.307 16.54 6.925 3.027 6.617.533 14.25-5.57 17.044-6.106 2.79-13.51-.312-16.538-6.93M270.03 235.42c.296-6.034 5.43-10.684 11.467-10.39 6.04.298 10.692 5.428 10.397 11.462-.296 6.03-5.427 10.682-11.468 10.385-6.038-.295-10.69-5.422-10.395-11.458"/><path fill="#3A3A3A" d="M287.952 278.307s.068.044.196.133c.108.085.306.213.48.376.186.163.426.36.64.59.224.228.447.485.665.77.433.562.814 1.224 1.075 1.937.078.178.123.358.175.543.06.184.104.37.132.56.084.376.1.76.13 1.142-.01.385-.01.77-.074 1.148-.045.38-.134.754-.25 1.115-.225.728-.568 1.41-.97 1.995-.2.293-.41.563-.62.8-.2.243-.43.452-.602.624-.165.17-.357.31-.458.4l-.187.146-.392.01-.046-.525c-.023-.335-.086-.813-.11-1.388l-.203-4.22-.022-4.222c-.008-.576.028-1.057.035-1.393l.017-.53.392-.01zM296.37 275.866s.07.034.197.1c.118.066.338.154.526.28.2.128.46.276.682.462.24.178.51.383.748.612.485.46.93 1.01 1.26 1.623.167.308.31.626.42.957.108.33.186.67.235 1.017.047.342.06.69.048 1.04-.02.35-.063.695-.146 1.036-.15.68-.427 1.332-.765 1.904-.164.288-.368.557-.55.796-.16.237-.37.454-.526.63-.145.174-.33.32-.426.416-.105.097-.16.145-.16.145l-.388.056s-.153-.682-.35-1.706c-.09-.515-.21-1.11-.307-1.757l-.31-2.02-.257-2.027c-.084-.647-.13-1.254-.188-1.772-.093-1.042-.133-1.74-.133-1.737l.388-.054z"/><path fill="#1B1C1C" d="M400.716 246.074c-11.002-10.097-19.307 5.617-26.36 16.5-9.884 15.252-15.554 24.613-4.23 33.02 13.765 10.22 20.552-7.59 26.52-21.668 6.35-14.984 11.55-20.992 4.07-27.852"/><path fill="#fff" d="M396.734 254.374c.38-5.715 5.324-10.042 11.045-9.663 5.718.38 10.048 5.323 9.67 11.04-.38 5.716-5.325 10.038-11.046 9.66-5.72-.38-10.05-5.322-9.67-11.036M386.503 234.097c5.09-5.207 13.107-5.62 17.906-.928 4.8 4.69 4.57 12.713-.52 17.92-5.087 5.204-13.105 5.62-17.905.926-4.8-4.69-4.566-12.716.518-17.92"/><path fill="#3A3A3A" d="M368.082 291.565l-.148-.182c-.082-.11-.236-.288-.36-.495-.132-.208-.306-.464-.45-.743-.15-.28-.295-.59-.426-.923-.258-.66-.44-1.4-.496-2.16-.025-.19-.018-.38-.018-.57-.004-.192.002-.383.03-.573.02-.386.112-.757.192-1.134.115-.367.22-.736.387-1.082.148-.35.338-.687.55-1.004.417-.634.94-1.193 1.483-1.646.277-.227.553-.426.818-.602.26-.174.54-.312.754-.43.205-.12.426-.197.55-.26l.22-.084.377.097-.098.52c-.07.33-.143.808-.28 1.366-.267 1.12-.62 2.615-.974 4.11l-1.146 4.063c-.152.557-.322 1.008-.42 1.33l-.164.502-.38-.1zM374.585 296.81s-.04-.07-.107-.208c-.053-.128-.164-.334-.236-.563-.082-.233-.195-.522-.273-.825-.085-.307-.153-.64-.206-.992-.104-.7-.115-1.463.002-2.213.02-.19.068-.37.11-.557.038-.188.09-.373.157-.55.107-.366.28-.71.44-1.057.194-.33.384-.663.622-.964.227-.307.486-.59.762-.85.55-.52 1.184-.945 1.814-1.26.32-.16.634-.29.933-.396.295-.11.594-.182.83-.248.23-.07.46-.096.596-.125l.23-.035.347.184-.215.48c-.143.302-.32.748-.578 1.262l-1.87 3.768-2.032 3.686c-.273.507-.54.904-.707 1.195l-.273.45-.347-.182z"/><path fill="#2F160C" d="M295.047 133.44s-.033.14-.167.37c-.073.102-.15.252-.277.38-.127.123-.26.3-.45.416-.186.127-.384.295-.627.387-.24.102-.498.23-.78.274-.278.05-.576.14-.87.12-.314-.005-.57.01-.94-.045-.137-.03-.25-.048-.405-.09-.17-.052-.34-.118-.505-.185-.3-.144-.575-.33-.805-.548-.227-.224-.41-.466-.54-.712-.133-.247-.216-.492-.266-.718-.108-.452-.08-.832-.035-1.086.044-.255.106-.392.106-.392s.28.54.744 1.097c.117.137.255.268.393.393.142.125.3.23.46.328.087.042.172.084.253.13.094.03.184.065.272.105.085.02.167.035.247.067.102.027.255.047.38.07.155.03.44.03.652.065.23.047.446.01.667.026.223.02.425-.02.632-.027.21 0 .394-.05.583-.07.728-.127 1.277-.357 1.277-.357M371.148 130.503s.55.23 1.28.358c.187.022.372.07.58.072.208.007.41.048.632.027.223-.02.438.02.668-.026.213-.034.498-.036.652-.065.125-.025.28-.045.38-.072.08-.032.163-.05.247-.068.088-.04.178-.074.27-.104.083-.046.17-.088.255-.13.16-.098.316-.202.46-.327.138-.126.276-.257.394-.396.463-.555.744-1.096.744-1.096s.063.137.107.393c.043.255.072.634-.035 1.086-.05.226-.133.472-.266.72-.133.244-.314.486-.54.71-.233.216-.505.403-.806.547-.164.066-.334.133-.508.186-.154.04-.268.06-.404.09-.37.054-.625.038-.938.044-.297.02-.594-.07-.873-.12-.28-.044-.54-.174-.78-.275-.24-.093-.44-.26-.624-.388-.19-.116-.324-.293-.45-.418-.128-.126-.206-.275-.276-.378-.136-.233-.17-.373-.17-.373"/><path fill="#fff" d="M331.45 55.333c-17.254 1.566-53.676 16.16-66.802 46.73-13.126 30.57-10.42 24.81-10.42 24.81s20.272-4.257 42.2-13.23c21.928-8.974 35.126-22.94 35.126-22.94s5.19 6.443 36.918 20.263c24.605 10.717 41.523 10.51 41.523 10.51s-20.587-71.41-78.546-66.143"/></svg>