<?xml version="1.0" encoding="utf-8"?>
<!-- Generator: Adobe Illustrator 16.0.0, SVG Export Plug-In . SVG Version: 6.00 Build 0)  -->
<!DOCTYPE svg PUBLIC "-//W3C//DTD SVG 1.1//EN" "http://www.w3.org/Graphics/SVG/1.1/DTD/svg11.dtd">
<svg version="1.1" id="Layer_1" xmlns="http://www.w3.org/2000/svg" xmlns:xlink="http://www.w3.org/1999/xlink" x="0px" y="0px"
	 width="384.164px" height="585.352px" viewBox="0 0 384.164 585.352" enable-background="new 0 0 384.164 585.352"
	 xml:space="preserve">
<ellipse opacity="0.3" cx="189.179" cy="578.482" rx="86.475" ry="6.869"/>
<polygon fill="#C2E4D5" points="131.902,204.115 112.471,388.631 271.43,388.631 248.386,206.122 "/>
<path fill="#F8AD85" d="M328.598,124.701c5.58-23.52,46.717-80.488,55.048-22.016C389.586,144.374,342.726,170.064,328.598,124.701z
	"/>
<polygon fill="#1A6735" points="119.713,374.768 111.545,389.02 268.691,388.723 258.963,366.217 "/>
<path fill="#B55D28" d="M322.749,142.498c-0.146,71.07-62.234,66.621-133.013,66.621c-70.779,0-123.454-10.074-128.155-57.367
	C54.407,79.577,118.957,37.012,189.736,37.012C260.514,37.012,322.865,85.128,322.749,142.498z"/>
<path fill="#F8AD85" d="M137.685,63.846c-48.226,18.506-61.996,47.191-47.512,70.324c12.088,19.303,68.794-0.925,64.921,5.996
	c-21.078,37.685,7.573,54.696,39.96,54.696c34.236,0,57.371-10.725,42.807-43.303c-3.833-8.577-14.013-16.847,12.713-8.136
	c48.886,15.934,76.8-44.415,12.954-71.25C235.922,60.571,183.299,46.342,137.685,63.846z"/>
<path fill="#2E1810" d="M141.535,118.029c0,35.548-32.996,35.548-32.996,0C108.539,82.481,141.535,82.481,141.535,118.029z"/>
<path fill="#2E1810" d="M276.573,118.029c0,35.548-32.996,35.548-32.996,0C243.577,82.481,276.573,82.481,276.573,118.029z"/>
<path fill="#B55D28" d="M154.447,40.318c0,0,45.522-3.306,60.965-21.812C221.436,11.285,223.74,0,223.74,0
	s18.238,11.613,24.058,28.685c6.549,19.214-21.283,20.356-21.283,20.356L154.447,40.318z"/>
<path fill="#4E200F" d="M176.132,133.245c0,0,0.478,0.833,1.354,2.127c0.438,0.646,0.957,1.414,1.592,2.23
	c0.304,0.415,0.646,0.834,1.012,1.262c0.343,0.439,0.742,0.861,1.151,1.292c0.802,0.868,1.724,1.698,2.706,2.452
	c0.473,0.401,1.033,0.692,1.537,1.053c0.532,0.325,1.111,0.575,1.647,0.885c0.582,0.241,1.185,0.44,1.757,0.699
	c0.621,0.166,1.261,0.298,1.871,0.505c0.651,0.127,1.338,0.162,1.991,0.311c0.667,0.117,1.401,0.071,2.097,0.129l0.527,0.046
	l0.133,0.013l0.033,0.003l0.016,0.001c0.071-0.001-0.568,0.021-0.287,0.011l0.081-0.004l0.327-0.016l1.305-0.063
	c0.434-0.022,0.868-0.044,1.301-0.046l0.826-0.146c0.271-0.042,0.544-0.078,0.821-0.105c0.282-0.026,0.571-0.151,0.857-0.214
	c0.296-0.073,0.587-0.146,0.876-0.217c0.264-0.11,0.523-0.218,0.783-0.326c0.256-0.115,0.553-0.182,0.788-0.325
	c0.226-0.153,0.464-0.293,0.714-0.424c0.537-0.221,0.885-0.66,1.368-0.969c0.457-0.341,0.795-0.8,1.233-1.179
	c0.35-0.453,0.726-0.886,1.057-1.349c1.311-1.866,2.202-3.849,2.793-5.279c0.598-1.44,0.894-2.356,0.894-2.356
	s0.123,0.206,0.302,0.615c0.164,0.408,0.435,1.019,0.646,1.825c0.226,0.807,0.43,1.809,0.525,2.998
	c0.101,1.188,0.059,2.558-0.19,4.086c-0.13,0.761-0.387,1.542-0.615,2.375c-0.347,0.792-0.674,1.65-1.166,2.468
	c-0.529,0.793-1.035,1.675-1.778,2.392c-0.352,0.38-0.722,0.756-1.106,1.124c-0.385,0.364-0.837,0.641-1.27,0.966
	c-0.441,0.305-0.885,0.645-1.356,0.915c-0.486,0.226-0.974,0.454-1.467,0.683c-0.506,0.214-0.985,0.473-1.531,0.642
	c-0.56,0.141-1.124,0.282-1.69,0.424c-0.563,0.13-1.164,0.27-1.706,0.372c-0.43,0.054-0.864,0.087-1.296,0.121l-1.303,0.104
	l-0.327,0.026l-0.081,0.006l-0.328,0.011l-0.025-0.001l-0.049-0.002l-0.193-0.008l-0.779-0.036
	c-1.041-0.099-2.068-0.106-3.111-0.305c-1.045-0.213-2.073-0.461-3.084-0.757c-1.003-0.382-1.99-0.776-2.926-1.236
	c-0.907-0.549-1.817-1.057-2.625-1.675c-0.766-0.678-1.572-1.271-2.205-2.004c-0.313-0.367-0.621-0.729-0.924-1.087
	c-0.307-0.353-0.596-0.708-0.818-1.102c-1.001-1.498-1.715-3.004-2.18-4.426c-0.479-1.418-0.734-2.743-0.855-3.914
	c-0.131-1.169-0.125-2.188-0.068-3.02c0.041-0.83,0.182-1.481,0.256-1.916C176.055,133.469,176.132,133.245,176.132,133.245z"/>
<circle fill="#61BE98" cx="191.297" cy="278.055" r="5.09"/>
<circle fill="#61BE98" cx="190.965" cy="315.48" r="5.089"/>
<circle fill="#2E1810" cx="188.577" cy="121.462" r="2.775"/>
<circle fill="#2E1810" cx="198.423" cy="121.462" r="2.776"/>
<path fill="#61BE98" d="M217.668,235.939c-9.254,6.674-13.262,9.758-13.262,9.758s-3.385-4.654-6.479-12.645
	c-0.949-2.453-2.077-4.77-3.206-6.842l0,0l-5.737-14.259l-6.841,17.296l0.076-0.088c-0.281,0.6-0.553,1.215-0.802,1.859
	c-3.093,7.994-5.552,13.572-5.552,13.572s-1.233-2.16-10.486-8.834c-9.254-6.676-27.76-23.806-27.76-23.806
	c9.703,13.114,40.406,40.659,40.406,40.659s0.446-0.156,6.168-16.885c1.946-5.691,4.221-11.275,5.66-14.684l0.072,0.076
	c0.783,2.979,2.127,7.785,4.301,14.789c5.243,16.883,6.17,16.883,6.17,16.883s28.954-24.336,43.18-32.332
	C243.577,220.459,226.921,229.262,217.668,235.939z"/>
<path fill="#2E1810" d="M123.944,64.121c-11.072,3.181-20.427,9.862-15.359,15.908c5.067,6.045,12.967,2.764,19.62-2.714
	c6.65-5.479,11.636-10.028,8.087-13.279C132.744,60.787,123.944,64.121,123.944,64.121z"/>
<path fill="#2E1810" d="M262.782,66.205c11.071,3.18,20.426,9.862,15.359,15.908c-5.067,6.045-12.968,2.764-19.62-2.713
	c-6.651-5.479-11.635-10.028-8.087-13.279C253.981,62.87,262.782,66.205,262.782,66.205z"/>
<path fill="#F8AD85" d="M55.566,124.701c-5.579-23.52-46.717-80.488-55.049-22.016C-5.421,144.374,41.438,170.064,55.566,124.701z"
	/>
<path fill="#61BE98" d="M215.656,282.393c0,0,0.092,1.033,0.295,2.814c0.209,1.783,0.518,4.322,1.046,7.309
	c0.558,2.967,1.285,6.445,2.711,9.764c0.71,1.641,1.657,3.223,2.842,4.402c0.596,0.588,1.267,1.031,1.979,1.357
	c0.737,0.256,1.491,0.482,2.324,0.432c0.401,0.041,0.831-0.047,1.252-0.082l0.156-0.016l0.041-0.004h0.02
	c-0.026,0.004,0.09-0.018-0.056,0.014l0.094-0.023l0.374-0.082l0.748-0.166c0.44-0.129,0.804-0.248,1.218-0.391
	c0.403-0.191,0.835-0.32,1.216-0.549c1.563-0.832,3.009-1.895,4.162-3.229c2.346-2.645,3.849-5.824,4.898-8.621
	c1.03-2.816,1.657-5.289,2.049-7.033c0.392-1.746,0.553-2.77,0.553-2.77s0.13,1.027,0.125,2.846
	c-0.011,1.813-0.146,4.428-0.832,7.516c-0.339,1.543-0.809,3.211-1.534,4.91c-0.712,1.699-1.637,3.465-2.938,5.096
	c-1.282,1.631-2.939,3.162-4.938,4.225c-0.484,0.293-1.021,0.482-1.536,0.727c-0.535,0.207-1.142,0.406-1.677,0.566l-0.746,0.182
	l-0.371,0.09l-0.094,0.023l-0.13,0.023l-0.057,0.008l-0.224,0.029c-0.596,0.068-1.178,0.188-1.805,0.146
	c-1.227,0.033-2.489-0.305-3.647-0.771c-1.14-0.535-2.153-1.268-2.978-2.117c-1.661-1.699-2.572-3.727-3.295-5.625
	c-0.715-1.92-1.1-3.822-1.382-5.613c-0.291-1.791-0.414-3.49-0.477-5.053c-0.135-3.127,0.054-5.715,0.228-7.514
	C215.46,283.41,215.656,282.393,215.656,282.393z"/>
<path fill="#C2E4D5" d="M116.614,374.732c0,0,10.535,8.346,22.32,15.441c11.785,7.092,38.414,18.813,38.414,18.813
	s6.066-13.744,10.076-22.91c4.009-9.166,5.781-12.754,5.781-12.754s0.325,0.924,4.675,12.742c4.349,11.82,9.285,23.232,9.285,23.232
	s30.228-16.041,39.787-23.133c9.563-7.096,21.805-17.908,21.805-17.908l-9.774-16.947L116.614,374.732z"/>
<path fill="#1A6735" d="M268.691,388.723l-79.053-1.389v0.313l-78.093,1.372c0,0-24.536,193.707,18.51,192.178
	c10.146-0.36,25.841-112.288,30.234-119.871c6.173-10.654,54.218-9.686,59.657-0.297c4.394,7.583,20.089,119.511,30.234,119.871
	C293.227,582.43,268.691,388.723,268.691,388.723z"/>
<circle fill="#FFFFFF" cx="131.482" cy="108.643" r="6.446"/>
<circle fill="#FFFFFF" cx="257.959" cy="108.643" r="6.446"/>
</svg>
