<?xml version="1.0" encoding="utf-8"?>
<!-- Generator: Adobe Illustrator 16.0.0, SVG Export Plug-In . SVG Version: 6.00 Build 0)  -->
<!DOCTYPE svg PUBLIC "-//W3C//DTD SVG 1.1//EN" "http://www.w3.org/Graphics/SVG/1.1/DTD/svg11.dtd">
<svg version="1.1" id="Layer_1" xmlns="http://www.w3.org/2000/svg" xmlns:xlink="http://www.w3.org/1999/xlink" x="0px" y="0px"
	 width="446.514px" height="438.584px" viewBox="0 0 446.514 438.584" enable-background="new 0 0 446.514 438.584"
	 xml:space="preserve">
<g>
	
		<ellipse transform="matrix(0.1479 -0.989 0.989 0.1479 74.9851 151.2159)" fill="#BE3727" cx="125.248" cy="32.092" rx="32.337" ry="17.675"/>
	<g>
		
			<ellipse transform="matrix(0.148 -0.989 0.989 0.148 119.4918 221.794)" fill="#FCEE23" cx="188.472" cy="41.546" rx="25.501" ry="13.938"/>
		
			<ellipse transform="matrix(0.1479 -0.989 0.989 0.1479 77.0764 154.528)" fill="#FCEE23" cx="128.217" cy="32.533" rx="29.159" ry="15.939"/>
		<polygon fill="#FCEE23" points="184.705,66.768 123.846,61.707 132.575,3.356 192.251,16.328 		"/>
	</g>
	
		<ellipse transform="matrix(0.148 -0.989 0.989 0.148 121.8015 225.4635)" fill="#BE3727" cx="191.759" cy="42.039" rx="21.259" ry="11.621"/>
	<path opacity="0.1" fill="#231F20" enable-background="new    " d="M128.444,62.089l56.262,4.679
		c4.194,0.626,8.463-2.242,11.8-7.27c3.194-3.463,5.758-9.114,6.748-15.741l-95.489-14.285
		c-2.645,17.661,3.041,33.153,12.695,34.597C123.152,64.473,125.869,63.738,128.444,62.089z"/>
</g>
<path fill="none" stroke="#114A55" stroke-width="3" stroke-linecap="round" stroke-miterlimit="10" d="M194.838,43.123
	c50.22-9.922,94.521,23.096,116.143,70.453c10.15,22.23,18.619,43.856,23.725,68.541c3.349,16.202-1.21,46.319-20.816,50.319
	c-28.581,5.828-22.875-34.063-11.097-46.329c15.789-16.44,43.601-24.171,65.614-24.659c31.313-0.694,57.006,16.803,71.356,44.292
	c30.899,59.191-80.229,191.345-185.229,231.345"/>
<path fill="#C2E4D5" d="M0,117.425c0,0,23.066,38.774,73.953,37.94c56.441-0.926,61.994-59.67,61.994-59.67L169.26,106.8
	c0,0-20.358,90.632-90.684,87.904C8.255,191.98,0,164.17,0,164.17V117.425z"/>
<path fill="#F8AD85" d="M138.65,87.736c0,0-20.218-39.839-4.552-48.034c17.688-9.253,29.608,4.178,33.312,33.087
	c3.699,28.908,1.479,16.009,1.479,16.009L138.65,87.736z"/>
<polygon fill="#C2E4D5" points="128.134,87.425 174.811,88.798 174.811,137.786 118.368,123.905 "/>
</svg>
