<?xml version="1.0" encoding="utf-8"?>
<!-- Generator: Adobe Illustrator 16.0.0, SVG Export Plug-In . SVG Version: 6.00 Build 0)  -->
<!DOCTYPE svg PUBLIC "-//W3C//DTD SVG 1.1//EN" "http://www.w3.org/Graphics/SVG/1.1/DTD/svg11.dtd">
<svg version="1.1" id="Layer_1" xmlns="http://www.w3.org/2000/svg" xmlns:xlink="http://www.w3.org/1999/xlink" x="0px" y="0px"
	 width="239.25px" height="217.153px" viewBox="0.001 11.989 239.25 217.153" enable-background="new 0.001 11.989 239.25 217.153"
	 xml:space="preserve">
<path fill="#C1E3D4" d="M209.675,119.095c0,0-4.848,65.399-52.918,68.647c-48.074,3.248-75.262-19.467-77.615-51.818
	c-2.354-32.353-0.076-4.854-0.076-4.854l-37.932,0.588c0,0-9.945,108.697,115.322,96.535c90.75-8.81,83.795-77.479,83.795-77.479
	L209.675,119.095z"/>
<path fill="#F8AC85" d="M82.031,129.469c0,0,0.582,4.556,22.352-0.104c13.975-2.992,12.6-20.688,10.473-25.899
	c-2.127-5.211-9.873-10.1-13.568-5.469c-3.697,4.631,5.748,17.287-4.586,19.621c-11.271,2.549-15.453-0.861-18.814-19.074
	c-3.361-18.215,3.951-35.994,12.986-27.602c9.041,8.392,1.475,25.28,14.314,23.328c12.84-1.955,2.387-39.802-10.926-39.931
	C80.953,54.211,64.227,52.3,62.391,77.38c-1.834,25.08,7.727,54.784,7.727,54.784L82.031,129.469z"/>
<path fill="#F8AC85" d="M41.134,131.656c0,0-2.346-29.786,5.57-46.438c6.758-14.213,29.607-0.459,29.607-0.459l2.754,46.311
	L41.134,131.656z"/>
<path fill="#F8AC85" d="M42.429,111.716c0,0-6.951-19.884-21.557-37.75C6.267,56.104-3.313,56.193,1.07,47.048
	c4.383-9.144,15.168-1.734,25.195,10.543c10.023,12.279,24.627,29.83,24.627,29.83L42.429,111.716z"/>
<path fill="#F8AC85" d="M63.718,83.447c0,0-10.609-23.142-15.012-36.818c-4.56-14.168-16.638-38.26-25.031-34.181
	c-5.67,2.756-6.357,10.354-3.072,16c3.289,5.644,9.879,17.084,13.848,26.637C36.91,61,51.408,91.34,51.408,91.34L63.718,83.447z"/>
</svg>
