<?xml version="1.0" encoding="utf-8"?>
<!-- Generator: Adobe Illustrator 16.0.0, SVG Export Plug-In . SVG Version: 6.00 Build 0)  -->
<!DOCTYPE svg PUBLIC "-//W3C//DTD SVG 1.1//EN" "http://www.w3.org/Graphics/SVG/1.1/DTD/svg11.dtd">
<svg version="1.1" id="Layer_1" xmlns="http://www.w3.org/2000/svg" xmlns:xlink="http://www.w3.org/1999/xlink" x="0px" y="0px"
	 width="133.986px" height="138.461px" viewBox="0 0 133.986 138.461" enable-background="new 0 0 133.986 138.461"
	 xml:space="preserve">
<g>
	<path fill="#FFFFFF" d="M132.912,68.9c0,0,9.983-47.273-30.927-63.177C61.076-10.182-3.787,6.358,0.173,64.229
		c3.96,57.869,86.413,75.021,93.375,74.205c0,0-10.178-10.568-13.121-19.633C80.427,118.801,130.243,114.374,132.912,68.9z"/>
</g>
<path fill="#DA1F3F" d="M97.52,46.699c0.208-5.151-1.78-10.182-6.323-13.165c-2.631-1.728-7.023-3.547-10.223-3.547
	c-5.795,0-10.9,2.949-13.9,7.427c-3-4.478-8.105-7.427-13.901-7.427c-9.235,0-16.721,7.486-16.721,16.721
	c0,1.895,0.32,3.713,0.9,5.412c0.146,10.396,29.569,37.133,33.815,34.588c5.004-2.998,23.66-27.368,25.832-36.325
	C97.294,49.165,97.47,47.929,97.52,46.699z"/>
</svg>
