<?xml version="1.0" encoding="utf-8"?>
<!-- Generator: Adobe Illustrator 16.0.0, SVG Export Plug-In . SVG Version: 6.00 Build 0)  -->
<!DOCTYPE svg PUBLIC "-//W3C//DTD SVG 1.1//EN" "http://www.w3.org/Graphics/SVG/1.1/DTD/svg11.dtd">
<svg version="1.1" xmlns="http://www.w3.org/2000/svg" xmlns:xlink="http://www.w3.org/1999/xlink" x="0px" y="0px"
	 width="182.225px" height="212.06px" viewBox="0 0 182.225 212.06" enable-background="new 0 0 182.225 212.06"
	 xml:space="preserve">
<g id="Layer_2">
</g>
<g id="Layer_1">
	<ellipse opacity="0.4" fill="#232323" cx="88.749" cy="206.11" rx="28.933" ry="5.857"/>
	<g>
		<path fill="#232323" d="M132.21,164.329c-25.644-0.359-55.966,0.353-81.61-0.005c3.058,10.224,8.987,31.633,22.004,40.093
			c10.29,6.687-0.22-9.583,10.29-13.661c3.615-1.402,15.585-0.842,18.918,2.932c4.217,4.776-3.741,17.639,7.173,10.681
			C111.221,202.942,129.555,185.035,132.21,164.329z"/>
		<path fill="#622879" d="M29.013,120.603c-2.661-19.819,9.479-34.766,22.887-43.733c11.008-7.361,25.123-10.857,40.404-10.281
			c33.903,1.275,67.214,23.128,59.481,58.635c-7.876,36.159-31.9,57.361-63.915,58.499C67.54,184.446,33.902,157.014,29.013,120.603
			z"/>
		<path fill="#622879" d="M63.243,72.961c0,0-25.046,2.281-44.604,19.215c-16.203,14.03-17.676,27.208-17.676,27.208l25.631,10.133
			c0,0,2.407-12.729,14.376-29.606c9.677-13.644,18.584-18.36,18.584-18.36L63.243,72.961z"/>
		<path fill="#622879" d="M121.406,73.563c0,0,24.966,3.137,43.988,20.731c15.763,14.58,16.83,27.801,16.83,27.801l-25.931,9.25
			c0,0-2.014-12.806-13.459-30.085c-9.25-13.967-18.007-18.985-18.007-18.985L121.406,73.563z"/>
		<path fill="#9B6F3C" d="M178.155,116.824l-22.345,7.01c0,0,2.633,2.602,3.518,12.246c1.618,17.664-7.675,16.017-3.209,20.413
			C160.585,160.892,185.079,150.917,178.155,116.824z"/>
		<path fill="#401D5A" d="M182.225,122.095l-1.771-19.056l-27.31,21.951l3.15,6.355c0,0,7.651,0.466,14.513-2.217
			C177.669,126.444,182.225,122.095,182.225,122.095z"/>
		<path fill="#401D5A" d="M58.04,88.671c0,0-3.194,9.985-4.753,25.454c-0.937,9.289-0.904,22.194-0.904,22.194
			s10.815-12.292,11.703-10.439c0.89,1.854,8.682,19.075,8.682,19.075l-9.619-16.672l-12.426,14.112
			C50.722,142.394,47.221,118.285,58.04,88.671z"/>
		<path fill="#401D5A" d="M125.011,90.18c0,0,2.904,10.083,4.016,25.594c0.669,9.315,0.261,22.214,0.261,22.214
			s-10.454-12.635-11.396-10.813c-0.941,1.825-9.229,18.788-9.229,18.788l10.098-16.356l12.012,14.506
			C130.771,144.113,134.969,120.126,125.011,90.18z"/>
		<path fill="#401D5A" d="M60.082,104.756h63.59c0,0-28.473,52.475-31.994,52.475C87.135,157.23,64.481,117.953,60.082,104.756z"/>
		<path fill="#9B6F3C" d="M3.034,118.367l22.79,5.175c0,0-2.434,2.809-2.611,12.495c-0.326,17.742,8.821,15.344,4.69,20.093
			C23.771,160.877-1.381,152.92,3.034,118.367z"/>
		<path fill="#DBD0B2" d="M99.438,53.326c-24.445-0.572-77.059-1.13-79.115-7.7c-2.056-6.57,9.652-32.914,9.652-32.914
			s1.651-4.838,4.554-1.365c2.902,3.473,4.004,23.598,11.28,24.787c7.456,1.22,91.634,6.333,99.087,0.919
			c0,0,6.924-17.465,8.459-22.403c0.76-2.439,11.08,16.01,10.685,29.002C163.682,55.446,143.055,54.345,99.438,53.326z"/>
		<path fill="#9B6F3C" d="M73.821,135.528c6.971,7.892,27.101,10.329,35.753,1.06c9.918-10.631,22.467-44.174,15.324-68.474
			c-4.072-13.854-53.078-14.67-61.954-7.026c-8.347,7.188-5.886,25.338-3.689,38.989C61.569,114.448,68.292,129.267,73.821,135.528z
			"/>
		<path fill="#2F160C" d="M72.487,69.299c-4.304-0.747-8.601-0.014-7.872,2.887c0.728,2.9,3.967,3.087,7.143,2.319
			c3.175-0.768,5.629-1.495,4.957-3.19C76.043,69.616,72.487,69.299,72.487,69.299z"/>
		<path fill="#401D5A" d="M0,122.283l2.356-18.985l26.62,22.872l-3.345,6.246c0,0-7.66,0.207-14.436-2.713
			C4.42,126.786,0,122.283,0,122.283z"/>
		<path fill="#2F160C" d="M115.111,89.701c0,4.484-4.164,4.484-4.164,0C110.947,85.214,115.111,85.214,115.111,89.701z"/>
		<path fill="#2F160C" d="M113.125,70.609c4.137-0.431,8.117,0.604,7.135,3.432c-0.984,2.826-4.059,2.78-6.977,1.788
			c-2.919-0.991-5.159-1.891-4.354-3.526C109.738,70.667,113.125,70.609,113.125,70.609z"/>
		<path fill="#2F160C" d="M74.675,88.345c0,4.486-4.164,4.486-4.164,0C70.512,83.862,74.675,83.862,74.675,88.345z"/>
		<path fill="#664019" d="M100.197,113.214c0,0,0.02,0.042,0.048,0.114c0.024,0.069,0.075,0.181,0.104,0.304
			c0.035,0.125,0.087,0.282,0.117,0.447c0.035,0.167,0.061,0.348,0.078,0.54c0.03,0.38,0.018,0.799-0.063,1.208
			c-0.08,0.413-0.229,0.817-0.431,1.192c-0.206,0.375-0.463,0.721-0.766,1.01c-0.302,0.291-0.645,0.528-0.982,0.708
			c-0.17,0.089-0.338,0.166-0.496,0.228c-0.156,0.063-0.313,0.105-0.439,0.143c-0.121,0.04-0.244,0.058-0.314,0.075
			c-0.077,0.015-0.121,0.022-0.121,0.022s-0.022-0.042-0.049-0.114c-0.024-0.071-0.077-0.182-0.106-0.305
			c-0.037-0.128-0.087-0.284-0.118-0.449c-0.035-0.166-0.062-0.347-0.079-0.539c-0.032-0.382-0.017-0.798,0.063-1.21
			c0.08-0.411,0.232-0.814,0.436-1.189c0.206-0.374,0.465-0.718,0.768-1.007c0.302-0.292,0.646-0.529,0.983-0.709
			c0.169-0.089,0.337-0.165,0.495-0.227c0.155-0.063,0.314-0.105,0.437-0.143c0.122-0.042,0.243-0.059,0.315-0.076
			C100.149,113.22,100.197,113.214,100.197,113.214z"/>
		<path fill="#664019" d="M82.582,112.67c0,0,0.046,0.009,0.123,0.031c0.072,0.024,0.195,0.049,0.317,0.101
			c0.126,0.049,0.286,0.105,0.443,0.18c0.16,0.076,0.33,0.167,0.5,0.273c0.34,0.213,0.687,0.485,0.99,0.812
			c0.307,0.325,0.566,0.706,0.772,1.113c0.205,0.41,0.354,0.844,0.431,1.284c0.081,0.438,0.092,0.88,0.056,1.28
			c-0.018,0.202-0.048,0.391-0.083,0.565c-0.033,0.172-0.084,0.334-0.122,0.463c-0.034,0.129-0.086,0.243-0.11,0.314
			c-0.03,0.073-0.051,0.118-0.051,0.118s-0.047-0.009-0.125-0.031c-0.071-0.023-0.195-0.049-0.317-0.1
			c-0.127-0.048-0.287-0.104-0.443-0.18c-0.163-0.075-0.332-0.166-0.502-0.271c-0.343-0.213-0.69-0.486-0.991-0.814
			c-0.307-0.326-0.565-0.707-0.77-1.114c-0.202-0.41-0.351-0.846-0.427-1.286c-0.079-0.439-0.091-0.88-0.055-1.281
			c0.02-0.2,0.047-0.389,0.082-0.563c0.033-0.172,0.084-0.334,0.121-0.464c0.033-0.127,0.084-0.241,0.11-0.313
			C82.562,112.711,82.582,112.67,82.582,112.67z"/>
		<path fill="#664019" d="M77.266,109.912c0,0,0.02-0.024,0.057-0.072c0.042-0.044,0.09-0.122,0.176-0.2
			c0.085-0.083,0.188-0.188,0.312-0.308c0.062-0.059,0.13-0.128,0.206-0.193c0.073-0.063,0.153-0.127,0.235-0.195
			c0.334-0.271,0.757-0.601,1.262-0.901c0.251-0.162,0.525-0.311,0.816-0.483c0.291-0.171,0.603-0.296,0.929-0.456
			c0.327-0.152,0.672-0.293,1.033-0.449c0.36-0.159,0.736-0.251,1.125-0.388c0.777-0.229,1.612-0.499,2.475-0.632
			c0.431-0.088,0.874-0.148,1.321-0.215c0.448-0.066,0.906-0.15,1.36-0.159c0.913-0.068,1.842-0.073,2.773-0.088l0.348,0.005
			l0.087,0.002h0.043l0.153,0.008l0.165,0.015l0.661,0.053c0.438,0.03,0.874,0.099,1.309,0.146c0.436,0.048,0.854,0.106,1.292,0.188
			c0.47,0.103,0.932,0.204,1.381,0.328c0.449,0.122,0.891,0.227,1.314,0.363c0.106,0.033,0.212,0.065,0.317,0.098
			c0.101,0.039,0.202,0.078,0.303,0.119c0.2,0.076,0.397,0.156,0.591,0.241c0.772,0.335,1.486,0.638,2.121,1.051
			c0.316,0.202,0.618,0.381,0.895,0.573c0.138,0.091,0.271,0.188,0.4,0.295c0.127,0.102,0.25,0.201,0.365,0.304
			c0.232,0.202,0.448,0.382,0.636,0.564c0.188,0.193,0.354,0.379,0.496,0.549c0.294,0.32,0.479,0.645,0.606,0.841
			c0.127,0.2,0.176,0.339,0.178,0.333l-0.225,0.254c0,0-0.021-0.016-0.061-0.044c-0.039-0.03-0.098-0.074-0.188-0.126
			c-0.17-0.105-0.414-0.271-0.762-0.431c-0.171-0.085-0.357-0.183-0.564-0.279c-0.215-0.084-0.447-0.174-0.694-0.27
			c-0.487-0.215-1.069-0.368-1.694-0.565c-0.618-0.219-1.323-0.338-2.057-0.501c-0.186-0.041-0.371-0.08-0.56-0.121
			c-0.095-0.021-0.19-0.042-0.284-0.062l-0.293-0.04c-0.391-0.051-0.79-0.103-1.196-0.156c-0.405-0.055-0.819-0.109-1.236-0.165
			c-0.425-0.032-0.857-0.048-1.291-0.074c-0.436-0.024-0.873-0.048-1.313-0.072l-0.661-0.035l-0.165-0.009
			c-0.029-0.003-0.104,0-0.152,0l-0.332,0.002c-0.878-0.005-1.759-0.012-2.625-0.018c-0.867,0.002-1.715,0.076-2.541,0.108
			c-0.825,0.021-1.613,0.142-2.365,0.215c-0.754,0.064-1.455,0.194-2.104,0.305c-0.652,0.099-1.24,0.231-1.764,0.344
			c-0.527,0.1-0.97,0.238-1.341,0.336c-0.375,0.094-0.646,0.207-0.841,0.265c-0.194,0.066-0.297,0.112-0.297,0.112L77.266,109.912z"
			/>
		<path fill="#9B6F3C" d="M34.818,68.361c0,0,0.012-0.042,0.031-0.125c0.021-0.081,0.048-0.211,0.092-0.359
			c0.044-0.155,0.095-0.342,0.165-0.546c0.064-0.214,0.146-0.446,0.241-0.696c0.375-1.017,0.976-2.324,1.812-3.637
			c0.84-1.311,1.919-2.619,3.197-3.752c1.273-1.142,2.753-2.097,4.334-2.825c1.584-0.727,3.276-1.216,4.971-1.432
			c1.692-0.224,3.388-0.181,4.928,0.05c0.768,0.109,1.504,0.28,2.166,0.453c0.666,0.183,1.262,0.377,1.771,0.574
			c0.253,0.096,0.481,0.185,0.685,0.277c0.201,0.083,0.378,0.167,0.522,0.236c0.14,0.064,0.258,0.13,0.333,0.169
			c0.076,0.04,0.115,0.061,0.115,0.061s-0.011,0.042-0.029,0.126c-0.022,0.082-0.048,0.212-0.093,0.36
			c-0.042,0.155-0.095,0.343-0.163,0.55c-0.065,0.213-0.146,0.444-0.24,0.698c-0.186,0.513-0.431,1.091-0.73,1.713
			c-0.304,0.613-0.657,1.281-1.077,1.932c-0.838,1.313-1.917,2.621-3.197,3.751c-1.276,1.14-2.756,2.093-4.342,2.81
			c-1.588,0.717-3.279,1.205-4.977,1.418c-1.695,0.221-3.39,0.179-4.929-0.051c-1.54-0.229-2.92-0.633-3.932-1.018
			c-0.253-0.093-0.48-0.184-0.685-0.275c-0.2-0.083-0.375-0.165-0.52-0.235c-0.141-0.063-0.257-0.127-0.332-0.166
			C34.858,68.381,34.818,68.361,34.818,68.361z"/>
		<path fill="#9B6F3C" d="M125.391,60.484c0,0,0.038-0.021,0.113-0.061c0.076-0.037,0.191-0.102,0.333-0.167
			c0.144-0.069,0.319-0.153,0.52-0.234c0.204-0.089,0.433-0.181,0.684-0.274c1.013-0.385,2.394-0.789,3.934-1.018
			c1.539-0.229,3.235-0.272,4.928-0.051c1.698,0.213,3.389,0.701,4.977,1.418c1.588,0.717,3.068,1.671,4.343,2.809
			c1.281,1.13,2.359,2.437,3.195,3.751c0.421,0.651,0.775,1.318,1.08,1.932c0.3,0.621,0.545,1.199,0.729,1.713
			c0.095,0.251,0.175,0.484,0.241,0.698c0.068,0.206,0.121,0.395,0.163,0.548c0.044,0.147,0.07,0.278,0.091,0.361
			c0.02,0.083,0.029,0.128,0.029,0.128s-0.038,0.019-0.114,0.06c-0.075,0.038-0.192,0.102-0.332,0.167
			c-0.145,0.069-0.321,0.153-0.521,0.237c-0.205,0.091-0.433,0.181-0.688,0.276c-0.507,0.197-1.104,0.391-1.771,0.573
			c-0.662,0.173-1.398,0.344-2.165,0.456c-1.542,0.228-3.236,0.273-4.929,0.048c-1.696-0.216-3.387-0.706-4.968-1.434
			c-1.585-0.727-3.063-1.683-4.337-2.824c-1.278-1.134-2.357-2.441-3.196-3.753c-0.837-1.313-1.438-2.619-1.813-3.634
			c-0.096-0.253-0.177-0.484-0.24-0.698c-0.07-0.205-0.123-0.392-0.165-0.545c-0.046-0.149-0.071-0.279-0.093-0.361
			C125.399,60.526,125.391,60.484,125.391,60.484z"/>
		<path fill="#401D5A" d="M19.211,102.798c0,0,0.21,0.219,0.551,0.623c0.341,0.401,0.812,0.985,1.347,1.702
			c0.534,0.717,1.13,1.569,1.736,2.501c0.303,0.464,0.61,0.949,0.914,1.448c0.306,0.496,0.604,1.008,0.901,1.519
			c0.292,0.517,0.584,1.03,0.859,1.545c0.278,0.511,0.541,1.021,0.791,1.519c0.5,0.992,0.935,1.938,1.286,2.76
			c0.348,0.825,0.615,1.524,0.788,2.022c0.177,0.496,0.261,0.788,0.261,0.788s-0.213-0.218-0.552-0.621
			c-0.342-0.4-0.812-0.985-1.347-1.7c-0.535-0.718-1.131-1.569-1.738-2.503c-0.302-0.464-0.611-0.948-0.914-1.448
			c-0.305-0.496-0.602-1.008-0.901-1.52c-0.29-0.516-0.583-1.03-0.857-1.545c-0.278-0.512-0.542-1.022-0.789-1.52
			c-0.5-0.993-0.934-1.938-1.286-2.76c-0.348-0.824-0.616-1.524-0.791-2.02C19.295,103.092,19.211,102.798,19.211,102.798z"/>
		<path fill="#401D5A" d="M158.705,100.149c0,0-0.022,0.304-0.094,0.825c-0.071,0.524-0.191,1.262-0.365,2.14
			c-0.176,0.877-0.41,1.891-0.697,2.964c-0.142,0.537-0.297,1.089-0.465,1.648c-0.164,0.559-0.345,1.123-0.525,1.688
			c-0.188,0.562-0.374,1.123-0.572,1.67c-0.194,0.55-0.399,1.085-0.602,1.604c-0.404,1.036-0.815,1.991-1.191,2.803
			c-0.381,0.809-0.722,1.475-0.975,1.938c-0.252,0.462-0.413,0.721-0.413,0.721s0.021-0.304,0.094-0.826
			c0.067-0.521,0.189-1.261,0.36-2.138c0.177-0.877,0.411-1.891,0.698-2.965c0.144-0.537,0.297-1.09,0.466-1.648
			c0.165-0.56,0.347-1.123,0.526-1.687c0.188-0.562,0.375-1.123,0.574-1.671c0.196-0.548,0.398-1.087,0.603-1.604
			c0.403-1.035,0.813-1.99,1.192-2.802c0.379-0.809,0.72-1.476,0.972-1.939C158.543,100.407,158.705,100.149,158.705,100.149z"/>
		<path fill="#401D5A" d="M29.727,116.723c0,0-0.103-0.198-0.236-0.54c-0.131-0.344-0.29-0.832-0.42-1.412
			c-0.132-0.582-0.237-1.256-0.289-1.977c-0.029-0.359-0.042-0.73-0.044-1.104c-0.001-0.377,0.01-0.757,0.035-1.137
			c0.024-0.382,0.061-0.761,0.111-1.133c0.05-0.373,0.112-0.738,0.188-1.092c0.144-0.707,0.335-1.362,0.541-1.921
			c0.206-0.559,0.428-1.022,0.602-1.345c0.178-0.322,0.307-0.504,0.307-0.504s0.102,0.198,0.236,0.541
			c0.133,0.341,0.292,0.83,0.423,1.411c0.131,0.583,0.235,1.256,0.288,1.976c0.025,0.36,0.042,0.731,0.044,1.107
			c0.001,0.375-0.013,0.757-0.037,1.136c-0.025,0.381-0.063,0.76-0.113,1.132c-0.053,0.373-0.114,0.738-0.188,1.091
			c-0.146,0.707-0.338,1.363-0.544,1.923c-0.203,0.558-0.423,1.021-0.599,1.344C29.853,116.54,29.727,116.723,29.727,116.723z"/>
		<path fill="#401D5A" d="M151.823,115.233c0,0-0.124-0.182-0.304-0.505c-0.175-0.322-0.395-0.785-0.599-1.344
			c-0.206-0.559-0.397-1.216-0.542-1.922c-0.075-0.353-0.137-0.719-0.189-1.091c-0.049-0.374-0.088-0.752-0.111-1.132
			c-0.027-0.38-0.037-0.76-0.037-1.137c0-0.377,0.017-0.749,0.043-1.108c0.053-0.718,0.156-1.393,0.289-1.975
			c0.131-0.58,0.289-1.069,0.423-1.411c0.134-0.343,0.237-0.541,0.237-0.541s0.126,0.182,0.305,0.506
			c0.176,0.322,0.396,0.785,0.601,1.344c0.209,0.559,0.398,1.215,0.543,1.92c0.073,0.354,0.139,0.72,0.188,1.094
			c0.049,0.371,0.085,0.75,0.112,1.131c0.021,0.38,0.033,0.761,0.032,1.136c-0.002,0.376-0.017,0.748-0.045,1.108
			c-0.052,0.719-0.157,1.394-0.288,1.975c-0.131,0.582-0.287,1.07-0.421,1.412C151.928,115.037,151.823,115.233,151.823,115.233z"/>
		<path fill="#401D5A" d="M72.917,173.633c0,0-0.045,0.016-0.128,0.045c-0.083,0.029-0.21,0.058-0.38,0.085
			c-0.166,0.017-0.371,0.045-0.604,0.039c-0.231-0.004-0.499-0.01-0.786-0.052c-0.286-0.04-0.593-0.102-0.912-0.194
			c-0.32-0.089-0.651-0.208-0.986-0.355c-0.167-0.074-0.331-0.163-0.501-0.248c-0.166-0.088-0.326-0.195-0.491-0.294
			c-0.324-0.215-0.639-0.457-0.93-0.725c-0.146-0.134-0.282-0.282-0.42-0.421c-0.136-0.146-0.253-0.306-0.377-0.458l-0.101-0.128
			l-0.075-0.111l-0.147-0.221c-0.097-0.146-0.191-0.292-0.282-0.439c-0.179-0.306-0.343-0.619-0.486-0.913
			c-0.132-0.297-0.254-0.576-0.346-0.846c-0.091-0.269-0.172-0.515-0.222-0.744c-0.057-0.223-0.099-0.42-0.121-0.585
			c-0.053-0.33-0.051-0.525-0.051-0.525s0.119,0.147,0.328,0.406c0.098,0.126,0.219,0.28,0.359,0.458
			c0.136,0.176,0.297,0.37,0.458,0.586c0.162,0.214,0.351,0.439,0.528,0.686c0.192,0.236,0.382,0.481,0.58,0.746
			c0.108,0.132,0.218,0.267,0.324,0.407l0.163,0.21l0.082,0.107c0.005,0.003,0.046,0.055,0.068,0.081
			c0.205,0.251,0.429,0.495,0.663,0.731l0.365,0.34c0.129,0.107,0.256,0.214,0.384,0.318c0.261,0.203,0.527,0.396,0.795,0.57
			c0.536,0.35,1.074,0.636,1.554,0.857c0.241,0.109,0.464,0.21,0.669,0.284c0.204,0.074,0.384,0.144,0.536,0.187
			c0.146,0.037,0.272,0.08,0.36,0.091C72.869,173.624,72.917,173.633,72.917,173.633z"/>
		<path fill="#401D5A" d="M110.502,174.075c0,0,0.029-0.024,0.086-0.064c0.057-0.036,0.133-0.107,0.228-0.182
			c0.094-0.077,0.205-0.178,0.331-0.292c0.129-0.106,0.264-0.245,0.412-0.386c0.294-0.286,0.623-0.624,0.95-0.993
			c0.163-0.183,0.322-0.38,0.479-0.579c0.154-0.202,0.306-0.404,0.443-0.616c0.139-0.208,0.262-0.423,0.377-0.636
			c0.051-0.105,0.102-0.207,0.15-0.309c0.057-0.124,0.111-0.246,0.165-0.364c0.109-0.227,0.215-0.447,0.315-0.657
			c0.107-0.197,0.193-0.402,0.294-0.583c0.185-0.368,0.356-0.681,0.479-0.907c0.129-0.229,0.201-0.358,0.201-0.358
			s0.019,0.035,0.039,0.104c0.022,0.069,0.054,0.171,0.078,0.301c0.033,0.131,0.045,0.288,0.065,0.472
			c0.02,0.184,0.017,0.387,0.011,0.612c-0.019,0.221-0.032,0.46-0.084,0.715c-0.051,0.254-0.109,0.533-0.189,0.775
			c-0.041,0.125-0.084,0.25-0.127,0.38c-0.068,0.166-0.129,0.286-0.194,0.433c-0.14,0.277-0.308,0.542-0.489,0.79
			c-0.188,0.248-0.387,0.481-0.602,0.69c-0.211,0.211-0.436,0.398-0.66,0.567c-0.449,0.338-0.909,0.587-1.32,0.758
			c-0.206,0.084-0.4,0.149-0.573,0.199c-0.173,0.055-0.331,0.078-0.458,0.104c-0.131,0.019-0.232,0.027-0.301,0.027
			C110.54,174.075,110.502,174.075,110.502,174.075z"/>
		<path fill="#401D5A" d="M113.458,173.36c0,0,0.042-0.008,0.121-0.02c0.081-0.008,0.194-0.041,0.331-0.065
			c0.139-0.034,0.305-0.074,0.496-0.119c0.188-0.054,0.397-0.115,0.627-0.18c0.453-0.137,0.968-0.312,1.489-0.53
			c0.522-0.217,1.052-0.479,1.527-0.795c0.12-0.079,0.229-0.167,0.347-0.247c0.061-0.057,0.258-0.207,0.319-0.284
			c0.169-0.155,0.37-0.381,0.54-0.593c0.35-0.433,0.652-0.891,0.91-1.292c0.526-0.834,0.875-1.391,0.875-1.391
			s0.019,0.172,0.008,0.468c-0.01,0.297-0.052,0.722-0.164,1.22c-0.06,0.25-0.138,0.517-0.239,0.797
			c-0.106,0.276-0.229,0.568-0.396,0.857c-0.081,0.146-0.166,0.294-0.273,0.436c-0.092,0.143-0.215,0.295-0.35,0.442
			c-0.148,0.165-0.209,0.216-0.383,0.38c-0.146,0.109-0.289,0.228-0.44,0.329c-0.306,0.197-0.62,0.377-0.946,0.506
			c-0.161,0.07-0.322,0.133-0.488,0.182c-0.162,0.055-0.322,0.099-0.482,0.134c-0.32,0.078-0.632,0.121-0.928,0.149
			c-0.297,0.024-0.579,0.025-0.836,0.015c-0.259-0.014-0.494-0.048-0.7-0.082c-0.206-0.035-0.386-0.086-0.526-0.131
			c-0.148-0.048-0.26-0.094-0.33-0.129C113.496,173.38,113.458,173.36,113.458,173.36z"/>
		<path fill="#232323" d="M51.011,163.828c0,0,8.208,11.249,40.733,11.375c32.523,0.125,40.6-10.367,40.6-10.367
			s-12.687,20.673-42.443,20.192C60.144,184.545,51.011,163.828,51.011,163.828z"/>
		<g>
			<path fill="none" d="M136.158,146.871"/>
		</g>
		<path fill="#9A8C6B" d="M68.743,53.917c0,0-0.088-0.003-0.258-0.038c-0.166-0.038-0.418-0.093-0.714-0.226
			c-0.153-0.062-0.316-0.14-0.486-0.24c-0.178-0.093-0.352-0.215-0.539-0.352c-0.376-0.269-0.757-0.631-1.129-1.072
			c-0.196-0.214-0.344-0.469-0.529-0.724c-0.181-0.255-0.306-0.544-0.471-0.833c-0.282-0.59-0.534-1.238-0.702-1.925
			c-0.109-0.341-0.162-0.693-0.219-1.049c-0.029-0.178-0.06-0.358-0.088-0.538c-0.033-0.182-0.03-0.362-0.045-0.543
			c-0.02-0.362-0.059-0.73-0.057-1.097c0.012-0.366,0.023-0.731,0.035-1.097l0.015-0.274l0.008-0.137l0.021-0.18l0.065-0.511
			c0.022-0.17,0.042-0.339,0.07-0.507c0.027-0.17,0.047-0.331,0.096-0.527c0.082-0.375,0.172-0.744,0.27-1.104
			c0.106-0.357,0.241-0.695,0.37-1.028c0.061-0.167,0.13-0.331,0.216-0.491c0.081-0.161,0.164-0.318,0.248-0.472
			c0.152-0.309,0.366-0.598,0.565-0.871c0.398-0.548,0.885-1,1.371-1.351c0.245-0.17,0.507-0.304,0.741-0.43
			c0.259-0.094,0.487-0.204,0.723-0.258c0.236-0.051,0.444-0.11,0.65-0.118c0.1-0.008,0.195-0.015,0.288-0.021
			c0.092-0.003,0.18,0.002,0.262,0.006c0.329,0.006,0.58,0.074,0.744,0.113c0.166,0.048,0.247,0.087,0.247,0.087
			s-0.088,0.021-0.246,0.07c-0.156,0.048-0.38,0.133-0.642,0.264c-0.064,0.032-0.132,0.067-0.203,0.103
			c-0.066,0.042-0.137,0.084-0.21,0.131c-0.146,0.082-0.289,0.201-0.44,0.313c-0.149,0.114-0.288,0.264-0.439,0.398
			c-0.13,0.167-0.282,0.313-0.409,0.497c-0.256,0.366-0.5,0.772-0.69,1.25c-0.09,0.243-0.211,0.465-0.272,0.74
			c-0.065,0.271-0.185,0.511-0.227,0.805c-0.051,0.285-0.135,0.568-0.183,0.855c-0.035,0.29-0.078,0.58-0.13,0.869
			c-0.03,0.134-0.039,0.312-0.053,0.481c-0.012,0.17-0.03,0.34-0.049,0.51l-0.053,0.512l-0.008,0.065l-0.003,0.031l-0.002,0.016
			v0.007c0.002-0.021-0.006,0.06,0.005-0.044l-0.005,0.121l-0.007,0.241c-0.019,0.322-0.037,0.641-0.056,0.962
			c-0.002,0.319-0.003,0.633-0.004,0.946c-0.012,0.316,0.009,0.621,0.022,0.923c0.014,0.304,0.023,0.606,0.063,0.893
			c0.051,0.587,0.145,1.14,0.255,1.664c0.118,0.52,0.259,1.007,0.43,1.446c0.17,0.438,0.355,0.837,0.556,1.175
			c0.097,0.174,0.195,0.332,0.296,0.473c0.096,0.15,0.194,0.275,0.286,0.391C68.458,53.687,68.743,53.917,68.743,53.917z"/>
		<path fill="#9A8C6B" d="M82.582,36.1c0,0-0.053,0.065-0.153,0.185c-0.101,0.118-0.232,0.305-0.4,0.528
			c-0.079,0.113-0.17,0.239-0.265,0.378c-0.088,0.14-0.187,0.288-0.289,0.448c-0.092,0.168-0.203,0.331-0.302,0.514
			c-0.092,0.189-0.208,0.371-0.3,0.574c-0.194,0.403-0.383,0.839-0.542,1.305c-0.161,0.466-0.295,0.961-0.397,1.476
			c-0.022,0.13-0.041,0.26-0.066,0.391c-0.03,0.128-0.052,0.26-0.059,0.396c-0.013,0.134-0.024,0.27-0.037,0.405
			c-0.014,0.134-0.039,0.267-0.034,0.407c-0.007,0.275-0.015,0.552-0.02,0.832c0.014,0.282,0.028,0.565,0.041,0.846l0.004,0.106
			c-0.004-0.018,0.002,0.049-0.005-0.039v0.009l0.001,0.013l0.004,0.03l0.005,0.06l0.024,0.239l0.048,0.475
			c0.03,0.335,0.074,0.584,0.113,0.862c0.032,0.269,0.081,0.548,0.135,0.827c0.048,0.28,0.103,0.555,0.169,0.82
			c0.058,0.271,0.121,0.536,0.194,0.79c0.067,0.257,0.136,0.511,0.218,0.751c0.073,0.246,0.148,0.483,0.236,0.71
			c0.077,0.231,0.16,0.452,0.249,0.661c0.079,0.216,0.167,0.415,0.254,0.605c0.081,0.198,0.169,0.376,0.252,0.548
			c0.162,0.346,0.322,0.64,0.459,0.888c0.271,0.494,0.464,0.775,0.464,0.775s-0.084-0.023-0.23-0.083
			c-0.143-0.063-0.363-0.155-0.62-0.308c-0.256-0.149-0.563-0.349-0.885-0.613c-0.167-0.126-0.333-0.276-0.502-0.438
			c-0.176-0.159-0.343-0.34-0.517-0.534c-0.346-0.383-0.689-0.833-1.003-1.34c-0.17-0.248-0.306-0.521-0.454-0.799
			c-0.157-0.274-0.273-0.573-0.4-0.872c-0.061-0.152-0.133-0.301-0.185-0.458c-0.051-0.157-0.101-0.315-0.151-0.475
			s-0.102-0.32-0.154-0.482c-0.04-0.17-0.076-0.342-0.116-0.515c-0.072-0.341-0.166-0.711-0.192-1.011l-0.061-0.475l-0.031-0.237
			l-0.018-0.165l-0.007-0.134c-0.007-0.357-0.015-0.713-0.023-1.068c0.011-0.356,0.063-0.713,0.094-1.064
			c0.099-0.703,0.267-1.387,0.511-2.021c0.237-0.634,0.548-1.212,0.888-1.726c0.164-0.259,0.361-0.486,0.537-0.711
			c0.18-0.219,0.381-0.413,0.565-0.602c0.189-0.182,0.384-0.342,0.565-0.494c0.191-0.143,0.373-0.274,0.548-0.391
			c0.179-0.11,0.348-0.21,0.505-0.297c0.162-0.082,0.311-0.155,0.446-0.216c0.273-0.12,0.499-0.187,0.652-0.233
			C82.498,36.114,82.582,36.1,82.582,36.1z"/>
		<path fill="#9A8C6B" d="M95.199,37.354c0,0,0.03,0.067,0.076,0.191c0.041,0.125,0.117,0.308,0.185,0.539
			c0.145,0.465,0.316,1.124,0.458,1.913c0.143,0.788,0.252,1.703,0.306,2.681c0.026,0.49,0.038,0.993,0.038,1.504
			c-0.003,0.511-0.02,1.03-0.051,1.549c-0.031,0.517-0.077,1.034-0.137,1.541c-0.061,0.508-0.137,1.006-0.221,1.489
			c-0.171,0.962-0.393,1.859-0.632,2.623c-0.236,0.766-0.487,1.398-0.69,1.842c-0.098,0.22-0.193,0.393-0.25,0.511
			c-0.061,0.118-0.1,0.181-0.1,0.181s-0.03-0.067-0.075-0.193c-0.042-0.124-0.116-0.306-0.187-0.539
			c-0.146-0.462-0.319-1.123-0.46-1.911c-0.144-0.788-0.255-1.705-0.306-2.682c-0.024-0.488-0.04-0.992-0.037-1.503
			c0.004-0.512,0.021-1.031,0.053-1.548c0.033-0.518,0.08-1.034,0.14-1.542c0.062-0.506,0.134-1.006,0.224-1.488
			c0.171-0.963,0.392-1.859,0.631-2.623c0.234-0.765,0.486-1.398,0.688-1.842c0.096-0.221,0.193-0.394,0.248-0.512
			C95.162,37.416,95.199,37.354,95.199,37.354z"/>
		<path fill="#9A8C6B" d="M106.201,53.917c0,0,0.037-0.069,0.104-0.194c0.07-0.125,0.161-0.314,0.277-0.543
			c0.228-0.464,0.531-1.117,0.821-1.892c0.29-0.774,0.563-1.669,0.739-2.621c0.085-0.478,0.156-0.967,0.191-1.466
			c0.008-0.125,0.031-0.249,0.029-0.375c-0.001-0.125,0.001-0.252,0.006-0.379l0.015-0.38c-0.003-0.126-0.015-0.254-0.021-0.382
			l-0.01-0.382l-0.004-0.096V45.16l-0.001-0.025v-0.006c-0.003-0.038,0.007,0.048,0.005,0.036V45.15l-0.024-0.214
			c-0.034-0.283-0.046-0.583-0.075-0.852c-0.036-0.246-0.065-0.49-0.088-0.736c-0.035-0.249-0.086-0.499-0.114-0.746
			c-0.09-0.488-0.183-0.961-0.294-1.407c-0.111-0.447-0.234-0.865-0.361-1.255c-0.133-0.386-0.266-0.744-0.4-1.058
			c-0.135-0.313-0.266-0.59-0.385-0.817c-0.232-0.454-0.41-0.712-0.41-0.712s0.078,0.015,0.215,0.065
			c0.135,0.053,0.344,0.126,0.58,0.264c0.244,0.13,0.521,0.315,0.825,0.556c0.155,0.119,0.298,0.262,0.462,0.408
			c0.153,0.151,0.305,0.322,0.468,0.499c0.149,0.185,0.306,0.379,0.458,0.588c0.141,0.213,0.292,0.437,0.43,0.671
			c0.132,0.24,0.269,0.488,0.391,0.747c0.117,0.26,0.232,0.532,0.338,0.81c0.099,0.28,0.191,0.567,0.277,0.863
			c0.08,0.305,0.152,0.617,0.219,0.934c0.053,0.297,0.098,0.569,0.133,0.86l0.029,0.215l0.006,0.07l0.004,0.031l0.002,0.061
			l0.008,0.121l0.025,0.487c0.003,0.163,0.012,0.325,0.01,0.487l-0.029,0.488c-0.015,0.325-0.05,0.646-0.113,0.961
			c-0.059,0.317-0.106,0.632-0.207,0.931c-0.094,0.3-0.162,0.604-0.291,0.881c-0.219,0.567-0.49,1.087-0.781,1.552
			c-0.297,0.465-0.616,0.872-0.935,1.221c-0.322,0.348-0.642,0.638-0.938,0.875c-0.299,0.234-0.575,0.417-0.811,0.553
			C106.502,53.824,106.201,53.917,106.201,53.917z"/>
		<path fill="#9A8C6B" d="M118.005,55.251c0,0,0.181-0.282,0.464-0.764c0.287-0.479,0.68-1.155,1.082-1.959
			c0.093-0.207,0.203-0.409,0.299-0.627c0.094-0.217,0.189-0.438,0.29-0.669c0.079-0.236,0.175-0.466,0.262-0.705
			c0.065-0.247,0.149-0.487,0.228-0.733c0.049-0.253,0.11-0.503,0.174-0.755c0.032-0.256,0.064-0.513,0.111-0.768
			c0.019-0.257,0.016-0.518,0.042-0.775c0-0.257-0.028-0.517-0.035-0.775c-0.009-0.257-0.077-0.514-0.106-0.771l-0.027-0.191
			l-0.004-0.024c0.007,0.024-0.018-0.064,0.015,0.055l-0.003-0.008l-0.004-0.013l-0.014-0.058l-0.027-0.112l-0.111-0.451
			c-0.078-0.299-0.146-0.597-0.211-0.894c-0.032-0.148-0.066-0.295-0.097-0.44c-0.038-0.13-0.076-0.258-0.116-0.384
			c-0.072-0.256-0.151-0.504-0.213-0.758c-0.032-0.125-0.063-0.251-0.095-0.374c-0.034-0.124-0.087-0.241-0.124-0.362
			c-0.08-0.244-0.157-0.479-0.234-0.708c-0.037-0.115-0.07-0.232-0.109-0.342c-0.042-0.107-0.088-0.21-0.127-0.316
			c-0.165-0.417-0.302-0.821-0.467-1.152c-0.073-0.171-0.148-0.331-0.211-0.486c-0.073-0.147-0.141-0.282-0.204-0.402
			c-0.12-0.252-0.228-0.442-0.304-0.577c-0.076-0.132-0.122-0.203-0.122-0.203s0.021,0.007,0.058,0.02
			c0.039,0.014,0.098,0.031,0.166,0.066c0.136,0.068,0.359,0.156,0.599,0.319c0.125,0.076,0.26,0.166,0.41,0.266
			c0.138,0.106,0.282,0.231,0.44,0.359c0.33,0.256,0.633,0.592,0.973,0.968c0.359,0.367,0.637,0.826,0.971,1.302
			c0.082,0.12,0.166,0.239,0.24,0.37c0.07,0.134,0.141,0.269,0.213,0.405c0.146,0.273,0.279,0.561,0.424,0.852
			c0.068,0.146,0.146,0.295,0.209,0.441c0.051,0.141,0.102,0.282,0.153,0.424c0.105,0.285,0.204,0.574,0.3,0.868l0.146,0.441
			l0.039,0.109l0.018,0.056l0.003,0.014l0.021,0.074l0.005,0.035l0.053,0.269c0.058,0.359,0.152,0.714,0.174,1.082
			c0.01,0.368,0.031,0.735,0.02,1.1c-0.032,0.364-0.079,0.726-0.131,1.079c-0.079,0.348-0.168,0.69-0.265,1.025
			c-0.12,0.322-0.243,0.641-0.374,0.946c-0.154,0.293-0.301,0.582-0.46,0.854c-0.173,0.263-0.341,0.517-0.513,0.757
			c-0.185,0.232-0.365,0.452-0.548,0.659c-0.187,0.201-0.375,0.388-0.554,0.563c-0.371,0.341-0.729,0.632-1.063,0.861
			c-0.334,0.231-0.635,0.414-0.893,0.546c-0.252,0.14-0.47,0.224-0.61,0.286C118.085,55.228,118.005,55.251,118.005,55.251z"/>
		<ellipse fill="#401D5A" cx="91.869" cy="166.319" rx="2.115" ry="2.098"/>
		<path fill="#4F1E0B" d="M86.837,127.139c0,0,0.193,0.031,0.495,0.089c0.146,0.031,0.321,0.069,0.523,0.11
			c0.188,0.046,0.399,0.097,0.631,0.15c0.222,0.056,0.453,0.114,0.69,0.17c0.233,0.059,0.471,0.115,0.705,0.163
			c0.231,0.045,0.458,0.09,0.671,0.116c0.105,0.017,0.208,0.026,0.309,0.034l0.145,0.011l0.07,0l0.033,0.004l0.02,0h0.004
			c-0.104,0.003-0.025,0-0.049,0.001h0.004l0.016-0.001l0.23-0.005h0.117c0.041,0,0.051-0.003,0.078-0.003
			c0.092-0.005,0.182,0.001,0.305-0.013c0.229-0.005,0.457-0.04,0.688-0.063c0.229-0.036,0.461-0.066,0.685-0.114
			c0.228-0.043,0.446-0.099,0.656-0.15c0.211-0.055,0.411-0.112,0.593-0.168c0.181-0.057,0.345-0.109,0.485-0.159
			c0.133-0.053,0.258-0.088,0.329-0.123c0.083-0.031,0.126-0.05,0.126-0.05s0.016,0.19-0.053,0.511
			c-0.07,0.316-0.234,0.758-0.56,1.209c-0.163,0.223-0.358,0.458-0.601,0.668c-0.238,0.219-0.521,0.415-0.834,0.594
			c-0.316,0.165-0.663,0.317-1.035,0.409c-0.176,0.055-0.393,0.088-0.607,0.117c-0.051,0.009-0.116,0.017-0.152,0.019l-0.117,0.011
			l-0.231,0.013l-0.085,0.003h-0.039l-0.083-0.003l-0.161-0.005c-0.105-0.012-0.213-0.02-0.316-0.037
			c-0.207-0.031-0.409-0.075-0.598-0.134c-0.381-0.116-0.721-0.278-1.021-0.463c-0.301-0.187-0.56-0.394-0.787-0.605
			c-0.222-0.218-0.409-0.437-0.565-0.652c-0.155-0.219-0.28-0.43-0.377-0.625c-0.096-0.196-0.168-0.376-0.217-0.528
			C86.857,127.336,86.837,127.139,86.837,127.139z"/>
	</g>
</g>
</svg>
