<?xml version="1.0" encoding="utf-8"?>
<!-- Generator: Adobe Illustrator 16.0.0, SVG Export Plug-In . SVG Version: 6.00 Build 0)  -->
<!DOCTYPE svg PUBLIC "-//W3C//DTD SVG 1.1//EN" "http://www.w3.org/Graphics/SVG/1.1/DTD/svg11.dtd">
<svg version="1.1" id="Layer_1" xmlns="http://www.w3.org/2000/svg" xmlns:xlink="http://www.w3.org/1999/xlink" x="0px" y="0px"
	 width="289.72px" height="554.49px" viewBox="0 0 289.72 554.49" enable-background="new 0 0 289.72 554.49" xml:space="preserve">
<ellipse opacity="0.3" cx="112.238" cy="547.621" rx="86.475" ry="6.869"/>
<g>
	<path fill="#434149" d="M287.029,251.371c0,6.259-7.78,13.646-14.039,13.646c-6.26,0-11.334-5.074-11.334-11.333
		c0-6.26,8.279-13.63,14.539-13.63S287.029,245.111,287.029,251.371z"/>
	<path fill="#434149" d="M166.131,283.887v-26.044c-3.637-4.791-6.285-5.531-8.404-5.813l-16.41-2.212l-6.964-6.087
		c0.019-0.033,0.676-0.063,0.676-0.096v-10.259c0-0.007-0.508-0.011-0.451-0.018c49.075-5.899,68.266-33.731,76.522-83.937
		c0.406,0.052,0.574,0.077,0.992,0.077c6.905,0,12.383-7.036,12.383-15.72c0-7.582-4.371-13.906-10.053-15.388
		c-0.115,0.483-0.238,1.081-0.361,1.563l-5.428,30.474l5.418-30.474c0.122-0.483,0.233-1.025,0.35-1.511
		c7.757-32.221,2.73-70.756-25.426-96.098C160.396-3.375,112.869,0.168,112.869,0.168S64.651-3.401,36.07,22.32
		C7.916,47.659,2.369,86.169,10.126,118.392c0.117,0.483,0.142,1.081,0.264,1.563l5.331,30.474l-5.417-30.474
		c-0.123-0.483-0.232-1.025-0.35-1.511C4.273,119.927,0,126.224,0,133.811c0,8.679,5.599,15.705,12.504,15.705
		c0.421,0,1.05-0.037,1.46-0.089c8.156,48.82,29.064,76.477,75.064,83.395v10.815c0,0.07-0.354-0.503-0.311-0.435l-10.021,5.353
		h-0.004l-16.346,2.841c-4.019,0.534-9.947,3.019-20.903,31.402c-7.858,20.362-12.147,33.022-12.863,49.099
		c-0.713,16.076-1.072,55.316-1.072,55.316s1.036,0.146,2.602,0.27c1.965,0.152,4.783,0.348,7.547,0.356
		c-2.766-0.009-5.582-0.176-7.549-0.327c-0.031,0.215-0.063,0.442-0.098,0.623c-4.288,3.218-6.19,13.845,4.287,14.648
		c9.287,0.716,13.215-9.641,6.073-14.283c0,0,0.001-0.251,0.003-0.688c1.642-0.07,3.151-0.228,4.282-0.521
		c0.033-0.057,0-0.936,0-0.936l1.431-52.514l10.358-36.797L55.732,413.15c0,0,5.873,0.097,13.854,0.22l4.644,118.056
		c0,0,1.896,0.25,4.798,0.485c-2.683,3.653-5.545,8.248-5.271,10.977c0.402,4.008,2.42,9.935,14.119,9.935
		c11.7,0,13.717-5.927,14.12-9.935c0.279-2.759-2.656-7.437-5.368-11.106c2.212-0.283,4.333-0.693,6.208-1.303l-0.394-116.626
		c4.754,0.064,8.513,0.478,10.156,0.478c-1.643,0-0.063,1.225-0.214,1.225c0.09,0,0.169,0,0.259,0c1.461,0,3.153-0.85,5.426-0.875
		l-0.719,116.206c1.874,0.606,3.936,0.815,6.147,1.094c-2.711,3.675-5.676,8.252-5.397,11.013c0.404,4.005,2.406,9.879,14.105,9.879
		c11.698,0,13.71-5.95,14.112-9.959c0.274-2.727-2.592-7.334-5.275-10.988c2.904-0.232,4.798-0.491,4.798-0.491l4.642-118.054
		c7.94-0.127,13.852-0.229,13.852-0.229L166.131,283.887z"/>
	<polyline fill="#434149" points="166.131,257.843 223.58,294.375 257.695,251.371 277.695,269.22 226.711,319.467 166.131,283.887 
			"/>
	<path fill="#434149" d="M263.992,251.371c0,0-0.039-29.148,1.37-29.149c4.931-0.003,6.405,4.354,7,11.333s1.979,10,1.979,10
		L263.992,251.371z"/>
	<path fill="#434149" d="M277.62,234.888c0,0-10.962,10.619-8.456,11.628c2.507,1.01,10.109,0,10.109,0
		S290.984,235.535,277.62,234.888z"/>
	<path fill="#434149" d="M283.754,240.517c0,0-15.702,5.606-13.29,7.561c2.413,1.954,11.126,4.049,11.126,4.049
		S298.242,246.478,283.754,240.517z"/>
	<path fill="#434149" d="M286.925,247.844c0,0-13.618,3.134-12.507,5.177c1.111,2.044,6.855,4.973,6.855,4.973
		S295.611,254.937,286.925,247.844z"/>
</g>
<g>
	<path fill="#FFFFFF" d="M54.537,89.835c1.089,0,2.186,0.091,3.292,0.272c1.105,0.182,2.104,0.462,2.995,0.842
		c0.891,0.38,1.625,0.841,2.203,1.386c0.577,0.544,0.867,1.18,0.867,1.906c0,0.759-0.198,1.336-0.594,1.733
		c-0.396,0.396-0.891,0.594-1.485,0.594c-0.562,0-1.057-0.09-1.485-0.272c-0.429-0.181-0.916-0.388-1.46-0.619
		c-0.544-0.23-1.197-0.437-1.956-0.619c-0.76-0.181-1.766-0.272-3.02-0.272c-1.255,0-2.451,0.322-3.59,0.965
		s-2.129,1.535-2.971,2.674c-0.841,1.139-1.51,2.484-2.005,4.035c-0.495,1.552-0.743,3.235-0.743,5.05
		c0,2.245,0.289,4.176,0.866,5.793c0.577,1.618,1.328,2.946,2.253,3.985c0.923,1.04,1.972,1.816,3.144,2.327
		c1.171,0.512,2.352,0.768,3.54,0.768c1.418,0,2.607-0.148,3.564-0.446c0.957-0.297,1.774-0.626,2.451-0.99
		c0.676-0.363,1.263-0.693,1.758-0.99c0.495-0.297,0.973-0.445,1.436-0.445c0.561,0,1.006,0.157,1.336,0.47
		c0.33,0.314,0.495,0.866,0.495,1.659c0,0.661-0.256,1.329-0.767,2.005c-0.512,0.677-1.255,1.288-2.228,1.832
		c-0.974,0.545-2.138,0.99-3.491,1.337c-1.354,0.347-2.872,0.52-4.555,0.52c-1.849,0-3.689-0.364-5.521-1.089
		c-1.832-0.726-3.466-1.807-4.902-3.243c-1.436-1.436-2.599-3.234-3.49-5.396c-0.891-2.162-1.337-4.679-1.337-7.55
		s0.404-5.429,1.213-7.674c0.809-2.244,1.914-4.15,3.317-5.719c1.402-1.567,3.036-2.764,4.901-3.589
		C50.435,90.248,52.424,89.835,54.537,89.835z"/>
	<path fill="#FFFFFF" d="M74.737,111.075c0,1.057,0,1.989,0,2.797c0,0.809-0.009,1.577-0.025,2.302
		c-0.017,0.727-0.042,1.453-0.074,2.178c-0.033,0.727-0.066,1.535-0.099,2.426c2.277-0.264,4.06-0.478,5.347-0.644
		c1.287-0.165,2.302-0.297,3.045-0.396c0.743-0.099,1.32-0.165,1.733-0.198c0.412-0.033,0.899-0.049,1.46-0.049
		c1.452,0,2.179,0.71,2.179,2.129c0,0.562-0.29,1.04-0.867,1.436c-0.578,0.396-1.304,0.735-2.178,1.015
		c-0.875,0.281-1.849,0.512-2.921,0.693c-1.073,0.181-2.113,0.313-3.119,0.396c-1.007,0.082-1.915,0.14-2.723,0.173
		c-0.809,0.032-1.378,0.049-1.708,0.049c-1.188,0-2.113-0.074-2.772-0.223c-0.661-0.149-1.156-0.594-1.485-1.337
		c-0.331-0.743-0.537-1.873-0.619-3.392c-0.083-1.518-0.124-3.664-0.124-6.437c0-2.673,0-5.05,0-7.129s0.016-3.944,0.049-5.595
		c0.033-1.65,0.058-3.119,0.074-4.406c0.017-1.288,0.058-2.458,0.124-3.516c0.066-1.353,0.297-2.235,0.693-2.648
		c0.396-0.413,0.892-0.619,1.485-0.619c0.33,0,0.619,0.025,0.867,0.074c0.248,0.05,0.47,0.19,0.668,0.421
		c0.198,0.231,0.354,0.562,0.47,0.99c0.115,0.429,0.189,1.04,0.223,1.832c0.132,2.905,0.214,5.776,0.248,8.615
		C74.72,104.854,74.737,107.874,74.737,111.075z"/>
	<path fill="#FFFFFF" d="M93.006,121.819c-0.066-1.188-0.107-2.426-0.124-3.713c-0.017-1.287-0.042-2.673-0.074-4.159
		c-0.033-1.485-0.049-3.094-0.049-4.827s0-3.672,0-5.818c0-2.343,0.016-4.348,0.049-6.015c0.033-1.667,0.132-3.028,0.297-4.085
		c0.165-1.056,0.421-1.832,0.767-2.327c0.347-0.495,0.817-0.743,1.411-0.743c0.297,0,0.577,0.033,0.842,0.099
		c0.264,0.067,0.495,0.207,0.693,0.421c0.198,0.215,0.371,0.528,0.52,0.941c0.148,0.413,0.239,0.949,0.272,1.609
		c0.066,1.188,0.115,2.245,0.148,3.169c0.033,0.924,0.066,1.84,0.099,2.748c0.032,0.908,0.049,1.849,0.049,2.822
		c0,0.974,0,2.072,0,3.292c0,1.485,0,2.905,0,4.258c0,1.354-0.017,2.691-0.049,4.01c-0.033,1.321-0.066,2.658-0.099,4.011
		c-0.033,1.354-0.083,2.772-0.148,4.258c-0.033,0.792-0.116,1.403-0.248,1.832c-0.132,0.429-0.297,0.759-0.495,0.99
		c-0.198,0.231-0.429,0.371-0.693,0.42c-0.265,0.05-0.562,0.075-0.891,0.075c-0.594,0-1.106-0.206-1.535-0.619
		C93.319,124.056,93.072,123.173,93.006,121.819z"/>
	<path fill="#FFFFFF" d="M104.64,117.363c-0.066-1.056-0.132-2.492-0.198-4.307c-0.067-1.815-0.099-3.68-0.099-5.595
		c0-1.089,0.008-2.22,0.025-3.392c0.016-1.171,0.041-2.368,0.074-3.589c0.065-2.442,0.223-4.357,0.47-5.743
		c0.248-1.387,0.743-2.426,1.485-3.119c0.743-0.693,1.79-1.122,3.144-1.288c1.353-0.165,3.151-0.248,5.396-0.248
		c0.033,0,0.388,0,1.064,0c0.676,0,1.493,0.009,2.451,0.025c0.957,0.017,1.956,0.042,2.996,0.074
		c1.04,0.033,1.906,0.066,2.599,0.099c0.726,0.066,1.312,0.157,1.758,0.272c0.446,0.116,0.784,0.265,1.015,0.446
		c0.23,0.182,0.379,0.396,0.445,0.644c0.066,0.248,0.099,0.52,0.099,0.817c0,0.76-0.215,1.312-0.644,1.659
		c-0.43,0.347-1.304,0.569-2.624,0.668c-0.661,0.066-1.626,0.107-2.896,0.124c-1.271,0.017-2.567,0.025-3.887,0.025
		c-1.32,0-2.509,0.009-3.564,0.025c-1.057,0.017-1.717,0.025-1.98,0.025c-0.859,0.033-1.461,0.223-1.807,0.569
		c-0.347,0.346-0.52,1.164-0.52,2.451c0,0.297,0.025,1.015,0.074,2.154s0.074,2.731,0.074,4.778h4.109
		c1.749,0,3.176,0.024,4.283,0.074c1.105,0.049,1.963,0.157,2.575,0.322c0.61,0.166,1.031,0.429,1.262,0.792
		c0.231,0.364,0.347,0.842,0.347,1.436c0,0.297-0.025,0.569-0.074,0.817s-0.19,0.462-0.421,0.644
		c-0.231,0.182-0.562,0.33-0.99,0.446c-0.429,0.116-1.04,0.207-1.832,0.272c-0.958,0.066-1.857,0.107-2.699,0.124
		c-0.841,0.017-1.675,0.024-2.5,0.024h-4.159c0,0.495,0,1.089,0,1.783c0,0.693,0,1.403,0,2.129c0,0.727,0.008,1.436,0.025,2.129
		c0.016,0.693,0.041,1.255,0.074,1.683c0.033,0.529,0.107,0.974,0.223,1.337c0.115,0.364,0.33,0.661,0.644,0.891
		c0.313,0.231,0.775,0.396,1.386,0.495c0.61,0.099,1.427,0.149,2.451,0.149h10.645c1.155,0,1.882,0.215,2.179,0.644
		c0.297,0.429,0.446,1.007,0.446,1.733c0,0.594-0.132,1.048-0.396,1.361c-0.264,0.314-0.899,0.545-1.906,0.693
		c-1.007,0.148-2.509,0.239-4.506,0.272c-1.997,0.033-4.745,0.05-8.243,0.05c-1.485,0-2.707-0.132-3.664-0.396
		c-0.958-0.264-1.733-0.709-2.327-1.337c-0.594-0.626-1.032-1.444-1.312-2.451C104.929,120.045,104.739,118.816,104.64,117.363z"/>
	<path fill="#FFFFFF" d="M151.626,122.562c-1.058-1.452-2.055-2.896-2.996-4.332c-0.941-1.436-1.948-3.012-3.02-4.729
		c-1.073-1.716-2.295-3.622-3.664-5.718c-1.37-2.096-3.012-4.546-4.926-7.353c0,2.476,0,4.696,0,6.659
		c0,1.964-0.017,3.788-0.049,5.471c-0.033,1.683-0.067,3.268-0.099,4.753c-0.033,1.485-0.083,2.971-0.148,4.456
		c-0.033,0.792-0.108,1.403-0.223,1.832c-0.116,0.429-0.272,0.759-0.47,0.99c-0.198,0.231-0.421,0.371-0.668,0.42
		c-0.248,0.05-0.537,0.075-0.866,0.075c-0.594,0-1.089-0.206-1.485-0.619c-0.396-0.412-0.627-1.295-0.693-2.649
		c-0.166-3.63-0.256-7.27-0.272-10.917c-0.017-3.647-0.025-7.418-0.025-11.313c0-2.211,0.025-3.944,0.074-5.199
		c0.049-1.254,0.165-2.195,0.347-2.822c0.181-0.626,0.428-1.022,0.743-1.188c0.313-0.165,0.734-0.248,1.262-0.248
		c0.528,0,1.221,0.404,2.08,1.213c0.858,0.809,1.799,1.874,2.822,3.193c1.022,1.32,2.12,2.839,3.292,4.555
		c1.171,1.716,2.334,3.482,3.49,5.297c1.155,1.816,2.269,3.614,3.342,5.397c1.073,1.782,2.055,3.4,2.946,4.852
		c-0.033-1.551-0.05-3.259-0.05-5.125c0-1.864,0-3.936,0-6.214c0-2.607,0.017-4.761,0.05-6.461c0.032-1.7,0.123-3.045,0.272-4.035
		c0.148-0.99,0.388-1.683,0.718-2.08c0.33-0.396,0.792-0.594,1.387-0.594c0.561,0,1.056,0.182,1.484,0.544
		c0.43,0.364,0.677,1.205,0.743,2.525c0.065,1.188,0.115,2.245,0.148,3.169c0.032,0.924,0.065,1.84,0.099,2.748
		c0.033,0.908,0.05,1.849,0.05,2.822c0,0.974,0,2.072,0,3.292c0,1.485,0,2.905,0,4.258c0,1.354-0.017,2.691-0.05,4.01
		c-0.033,1.321-0.066,2.658-0.099,4.011c-0.033,1.354-0.083,2.772-0.148,4.258c-0.033,0.792-0.107,1.403-0.223,1.832
		c-0.116,0.429-0.272,0.759-0.471,0.99s-0.421,0.371-0.669,0.42c-0.247,0.05-0.536,0.075-0.865,0.075
		c-0.563,0-1.04-0.166-1.437-0.495C152.963,124.262,152.385,123.585,151.626,122.562z"/>
	<path fill="#FFFFFF" d="M182.521,94.786c-0.925,0.066-1.906,0.116-2.946,0.148c-1.039,0.033-2.187,0.066-3.441,0.099
		c0.033,0.891,0.066,1.725,0.1,2.5c0.033,0.776,0.066,1.56,0.1,2.352c0.032,0.792,0.057,1.618,0.074,2.476
		c0.016,0.859,0.024,1.815,0.024,2.872c0,1.485,0,2.914,0,4.283c0,1.37-0.017,2.74-0.05,4.109c-0.033,1.37-0.066,2.748-0.099,4.134
		c-0.034,1.386-0.083,2.822-0.149,4.307c-0.033,0.792-0.107,1.403-0.223,1.832c-0.115,0.429-0.271,0.76-0.47,0.99
		s-0.43,0.371-0.693,0.421c-0.265,0.049-0.562,0.074-0.892,0.074c-0.594,0-1.098-0.207-1.51-0.619
		c-0.413-0.413-0.652-1.295-0.718-2.649c-0.066-1.188-0.107-2.442-0.124-3.763c-0.017-1.319-0.041-2.739-0.074-4.258
		c-0.033-1.518-0.049-3.16-0.049-4.926c0-1.765,0-3.721,0-5.867c0-1.814,0.008-3.399,0.024-4.753
		c0.017-1.353,0.058-2.525,0.124-3.515h-2.03c-1.386,0-2.567-0.016-3.54-0.049c-0.975-0.033-1.774-0.124-2.401-0.272
		c-0.628-0.148-1.081-0.388-1.361-0.718c-0.28-0.33-0.421-0.792-0.421-1.387c0-0.297,0.032-0.569,0.1-0.817
		c0.064-0.248,0.214-0.478,0.445-0.693c0.23-0.214,0.553-0.388,0.965-0.52c0.412-0.131,0.949-0.23,1.609-0.297
		c0.627-0.033,1.188-0.066,1.684-0.099c0.495-0.033,0.99-0.066,1.484-0.099c0.496-0.032,1.008-0.049,1.535-0.049s1.139,0,1.832,0
		c1.947,0,3.788,0.017,5.521,0.049c1.733,0.033,3.573,0.099,5.521,0.198c0.793,0.066,1.402,0.157,1.832,0.272
		c0.429,0.116,0.759,0.272,0.99,0.471c0.23,0.198,0.371,0.429,0.421,0.693c0.05,0.265,0.074,0.562,0.074,0.891
		c0,0.594-0.206,1.089-0.618,1.485C184.756,94.489,183.873,94.72,182.521,94.786z"/>
</g>
</svg>
