<?xml version="1.0" encoding="utf-8"?>
<!-- Generator: Adobe Illustrator 15.1.0, SVG Export Plug-In . SVG Version: 6.00 Build 0)  -->
<!DOCTYPE svg PUBLIC "-//W3C//DTD SVG 1.1//EN" "http://www.w3.org/Graphics/SVG/1.1/DTD/svg11.dtd">
<svg version="1.1" id="Layer_1" xmlns="http://www.w3.org/2000/svg" xmlns:xlink="http://www.w3.org/1999/xlink" x="0px" y="0px"
	 width="118.139px" height="118.138px" viewBox="0 0 118.139 118.138" enable-background="new 0 0 118.139 118.138"
	 xml:space="preserve">
<path display="none" fill="#3E3E3E" d="M118.139,59.069C118.139,26.446,91.693,0,59.07,0C26.447,0,0,26.446,0,59.069
	c0,32.623,26.447,59.069,59.07,59.069C91.693,118.138,118.139,91.691,118.139,59.069"/>
<path display="none" fill="#E9E9E9" d="M106.873,59.069c0-26.4-21.402-47.803-47.803-47.803S11.267,32.669,11.267,59.069
	s21.402,47.803,47.803,47.803S106.873,85.469,106.873,59.069"/>
<path display="none" fill="#D9D9D8" d="M92.779,25.252c-18.667-18.668-48.934-18.667-67.603,0
	C6.508,43.921,6.508,74.189,25.177,92.856L92.779,25.252z"/>
<path display="none" fill="#3E3E3E" d="M63.069,59.069c0-2.209-1.79-4-3.999-4s-3.999,1.791-3.999,4c0,2.208,1.79,4,3.999,4
	S63.069,61.277,63.069,59.069"/>
<path fill="#3E3E3E" d="M60.78,57.358c0,0.945-0.766,1.71-1.71,1.71c-0.945,0-1.711-0.765-1.711-1.71V25.95
	c0-0.944,0.766-1.71,1.711-1.71c0.944,0,1.71,0.766,1.71,1.71V57.358z"/>
<path display="none" fill="#3E3E3E" d="M61.553,59.938c-0.843,0.426-1.872,0.088-2.299-0.755c-0.427-0.843-0.089-1.871,0.753-2.298
	l25.128-12.712c0.842-0.426,1.871-0.089,2.298,0.754c0.426,0.844,0.089,1.872-0.754,2.299L61.553,59.938z"/>
</svg>
