<?xml version="1.0" encoding="utf-8"?>
<!-- Generator: Adobe Illustrator 16.0.0, SVG Export Plug-In . SVG Version: 6.00 Build 0)  -->
<!DOCTYPE svg PUBLIC "-//W3C//DTD SVG 1.1//EN" "http://www.w3.org/Graphics/SVG/1.1/DTD/svg11.dtd">
<svg version="1.1" id="Layer_1" xmlns="http://www.w3.org/2000/svg" xmlns:xlink="http://www.w3.org/1999/xlink" x="0px" y="0px"
	 width="1177.308px" height="340.861px" viewBox="0 -0.001 1177.308 340.861" enable-background="new 0 -0.001 1177.308 340.861"
	 xml:space="preserve">
<path fill="#B55D28" d="M571.747,114.956c0,0-15.729,148.975,0,173.958c15.731,24.982,99.924,19.342,139.725,19.433
	c52.332,0.114,47.124-39.789,41.012-51.82c-9.752-19.19-41.012-37.936-47.489-3.698c-4.142,21.896,10.669,29.946,1.851,33.313
	c-17.313,6.602-82.752-0.18-100.293-9.254c-25.821-13.359-21.669-61.998-16.206-99.936c5.461-37.936,7.879-61.994,7.879-61.994
	L571.747,114.956L571.747,114.956z"/>
<path fill="#1A6735" d="M661.622,81.645c0,0,5.345-1.502,49.85,8.326c43.056,9.508,80.963,22.99,81.888,55.377
	c0.924,32.385-17.068,41.641-60.272,58.055c-30.139,11.449-84.766,8.98-86.114,0c-2.21-14.691,24.368-25.387,49.488-37.238
	c20.86-9.84,24.796-11.83,28.983-17.1c5.349-6.729-17.801-12.861-48.335-14.713c-30.536-1.852-74.021-3.4-161.631-5.73
	c-56.169-1.494-71.602-2.574-71.189,7.451c0.248,5.99,11.581,6.305,47.883,12.193c64.85,10.52,70.107,8.408,68.473,19.434
	c-1.802,12.15-38.173,19.604-79.73,21.322c-52.221,2.16-96.235-5.377-99.779-50.936c-4.744-60.998,120.06-56.441,120.06-56.441"/>
<polygon fill="#1A6735" points="508.649,73.297 500.269,87.659 662.547,87.538 651.538,64.68 "/>
<g>
	<polygon fill="#E42327" points="525.896,138.098 575.236,200.625 588.99,190.51 541.986,125.116 	"/>
	<polygon fill="#F8AD85" points="575.236,200.625 599.084,216.293 588.99,190.51 	"/>
	<polygon fill="#010101" points="592.521,211.985 595.642,207.506 599.084,216.293 	"/>
</g>
<path fill="#C2E4D5" d="M505.337,72.372c0,0,10.534,8.346,22.32,15.441c11.785,7.092,38.414,18.813,38.414,18.813
	s6.066-13.744,10.076-22.91c4.009-9.166,5.781-12.754,5.781-12.754s0.325,0.924,4.675,12.742c4.349,11.82,9.285,23.232,9.285,23.232
	s30.228-16.041,39.787-23.133c9.563-7.096,21.805-17.908,21.805-17.908l-9.774-16.947L505.337,72.372z"/>
<rect x="18.375" y="264.731" fill="#6ECBD8" width="1134.291" height="76.129"/>
<rect x="18.375" y="266.182" fill="#53C1CC" width="1134.291" height="11.973"/>
<rect x="0" y="237.7" fill="#6ECBD8" width="1176.616" height="28.354"/>
<rect x="0.691" y="45.45" fill="#53C1CC" width="1176.617" height="192.25"/>
<ellipse opacity="0.5" fill="#231F20" enable-background="new    " cx="952.223" cy="164.246" rx="36" ry="16.37"/>
<ellipse transform="matrix(-0.4423 -0.8969 0.8969 -0.4423 1033.5342 889.8246)" opacity="0.5" fill="#231F20" enable-background="new    " cx="793.427" cy="123.572" rx="11.091" ry="44.883"/>
<ellipse transform="matrix(-0.2801 -0.96 0.96 -0.2801 223.4329 408.4019)" opacity="0.5" fill="#231F20" enable-background="new    " cx="264.85" cy="120.423" rx="8.008" ry="32.876"/>
<path opacity="0.5" fill="#231F20" enable-background="new    " d="M562.03,145.254c-0.143,2.206-17.662,2.89-39.135,1.527
	c-21.472-1.364-38.766-4.258-38.626-6.465c0.14-2.206,17.661-2.891,39.134-1.527C544.875,140.154,562.166,143.047,562.03,145.254z"
	/>
<g>
	<ellipse fill="#BE3727" cx="953.049" cy="160.58" rx="32.337" ry="17.677"/>
	<g>
		<ellipse fill="#A4B93A" cx="953.048" cy="96.641" rx="25.5" ry="13.938"/>
		<ellipse fill="#A4B93A" cx="953.048" cy="157.58" rx="29.158" ry="15.939"/>
		<polygon fill="#A4B93A" points="978.548,96.641 982.548,157.58 923.548,157.58 927.548,96.641 		"/>
	</g>
	<ellipse fill="#BE3727" cx="953.048" cy="93.323" rx="21.26" ry="11.621"/>
	<path opacity="0.1" fill="#231F20" enable-background="new    " d="M982.244,152.975l-3.696-56.334
		c0-4.241-3.47-8.037-8.936-10.594c-3.896-2.647-9.865-4.346-16.564-4.346v96.555c17.857,0,32.338-7.914,32.338-17.677
		C985.386,157.857,984.257,155.279,982.244,152.975z"/>
</g>
<g>
	
		<ellipse transform="matrix(-0.8478 0.5304 -0.5304 -0.8478 1544.5521 -270.1885)" fill="#632A7A" cx="811.052" cy="86.574" rx="17.677" ry="32.338"/>
	<g>
		
			<ellipse transform="matrix(-0.8478 0.5304 -0.5304 -0.8478 1462.3802 -178.7723)" fill="#DCD1B3" cx="756.847" cy="120.49" rx="13.939" ry="25.501"/>
		
			<ellipse transform="matrix(-0.8478 0.5304 -0.5304 -0.8478 1540.6897 -265.901)" fill="#DCD1B3" cx="808.507" cy="88.167" rx="15.94" ry="29.161"/>
		<polygon fill="#DCD1B3" points="743.331,98.905 792.871,63.194 824.164,113.211 770.382,142.141 		"/>
	</g>
	
		<ellipse transform="matrix(-0.8478 0.5304 -0.5304 -0.8478 1458.099 -174.033)" fill="#632A7A" cx="754.027" cy="122.253" rx="11.621" ry="21.26"/>
	<path opacity="0.1" fill="#231F20" enable-background="new    " d="M789.129,65.892l-45.797,33.013
		c-3.596,2.25-4.975,7.204-4.242,13.193c-0.178,4.708,1.549,10.668,5.103,16.349l81.854-51.211
		c-9.473-15.14-23.86-23.218-32.138-18.039C791.602,60.64,790.015,62.965,789.129,65.892z"/>
</g>
<g>
	
		<ellipse transform="matrix(0.5346 0.8451 -0.8451 0.5346 214.2326 -169.447)" fill="#BE3727" cx="260.964" cy="109.786" rx="17.678" ry="32.335"/>
	<g>
		
			<ellipse transform="matrix(0.5346 0.8451 -0.8451 0.5346 152.6497 -165.7046)" fill="#DCD1B3" cx="226.779" cy="55.748" rx="13.939" ry="25.5"/>
		
			<ellipse transform="matrix(0.5346 0.8451 -0.8451 0.5346 211.3424 -169.2729)" fill="#DCD1B3" cx="259.36" cy="107.248" rx="15.94" ry="29.158"/>
		<polygon fill="#DCD1B3" points="205.231,69.39 234.43,123.027 284.291,91.485 248.331,42.124 		"/>
	</g>
	
		<ellipse transform="matrix(0.5346 0.8451 -0.8451 0.5346 149.4638 -165.5139)" fill="#BE3727" cx="225.005" cy="52.944" rx="11.621" ry="21.26"/>
	<path opacity="0.1" fill="#231F20" enable-background="new    " d="M232.225,118.974L205.231,69.39
		c-2.268-3.583-1.365-8.646,1.888-13.729c1.878-4.321,6.014-8.946,11.676-12.529l51.621,81.599
		c-15.093,9.547-31.561,10.601-36.779,2.349C232.18,124.778,231.756,121.997,232.225,118.974z"/>
</g>
<g>
	
		<ellipse transform="matrix(0.9975 0.0703 -0.0703 0.9975 9.7105 -38.8194)" fill="#F48F82" cx="556.393" cy="118.555" rx="17.678" ry="32.335"/>
	<g>
		
			<ellipse transform="matrix(0.9975 0.0703 -0.0703 0.9975 9.2378 -34.3501)" fill="#E3348B" cx="492.594" cy="114.057" rx="13.939" ry="25.501"/>
		
			<ellipse transform="matrix(0.9975 0.0703 -0.0703 0.9975 9.6888 -38.6115)" fill="#E3348B" cx="553.386" cy="118.34" rx="15.94" ry="29.157"/>
		<polygon fill="#E3348B" points="490.823,139.514 551.328,147.786 555.476,88.932 494.406,88.639 		"/>
	</g>
	
		<ellipse transform="matrix(0.9975 0.0703 -0.0703 0.9975 9.214 -34.1201)" fill="#F48F82" cx="489.291" cy="113.826" rx="11.622" ry="21.259"/>
	<path opacity="0.1" fill="#231F20" enable-background="new    " d="M546.758,147.161l-55.937-7.646
		c-4.229-0.298-7.772-4.025-9.939-9.657c-2.367-4.074-3.643-10.146-3.172-16.83l96.317,6.785
		c-1.255,17.814-10.167,31.702-19.907,31.015C551.406,150.636,548.914,149.329,546.758,147.161z"/>
</g>
<path fill="none" stroke="#114A55" stroke-width="3" stroke-linecap="round" stroke-miterlimit="10" d="M952.871,95.711
	c-0.1-4.542-3.032-8.412-1.728-13.035c1.142-4.042,4.592-7.243,7.963-9.519c5.067-3.422,11.251-3.149,16.726-5.521
	c5.745-2.489,11.329-6.502,12.036-13.222c0.926-8.791-7.867-11.823-13.734-5.914c-6.479,6.524-4.62,15.919,0.841,22.288
	c8.702,10.15,23.404,17.762,36.821,12.602c9.59-3.689,12.599-19.636,17.172-27.695c4.064-7.165,8.259-14.675,13.909-20.736
	c9.814-10.53,25.437-10.211,37.298-3.31c5.369,3.124,7.722,9.008,11.556,13.6"/>
<path fill="none" stroke="#114A55" stroke-width="3" stroke-linecap="round" stroke-miterlimit="10" d="M727,46.246
	c-0.888-22.191-21.952-15.349-28.726-0.37c-8.803,19.469,11.229,35.357,8.855,53.551c-2.246,17.229-22.771,18.515-36.077,14.064
	c-11.194-3.744-20.604-24.643-2.584-24.805c16.567-0.134,14.3,28.815,20.307,38.309c13.746,21.725,41.863-3.322,60.605-1.794"/>
<path fill="none" stroke="#114A55" stroke-width="3" stroke-linecap="round" stroke-miterlimit="10" d="M447.632,47.534
	c9.457-5.168,41.527-15.088,46.853-0.586c7.858,21.404-35.813,38.927-39.556,56.128c-3.126,14.364,21.17,13.927,30.071,14.231"/>
<path fill="none" stroke="#114A55" stroke-width="3" stroke-linecap="round" stroke-miterlimit="10" d="M225.006,55.756
	c-2.445-12.315-10.285-27.093-24.415-27.605c-13.906-0.505-28.431,17.704-41.676,6.069c-7.261-6.379-8.632-24.216-0.116-30.396
	c9.714-7.048,20.431,3.216,19.47,13.601c-1.575,17.022-32.031,6.108-43.798,13.809c-4.13,2.703-12.945,14.908-12.945,14.908"/>
</svg>
