<?xml version="1.0" encoding="utf-8"?>
<!-- Generator: Adobe Illustrator 16.0.0, SVG Export Plug-In . SVG Version: 6.00 Build 0)  -->
<!DOCTYPE svg PUBLIC "-//W3C//DTD SVG 1.1//EN" "http://www.w3.org/Graphics/SVG/1.1/DTD/svg11.dtd">
<svg version="1.1" id="Layer_1" xmlns="http://www.w3.org/2000/svg" xmlns:xlink="http://www.w3.org/1999/xlink" x="0px" y="0px"
	 width="1179.104px" height="571.16px" viewBox="0 0 1179.104 571.16" enable-background="new 0 0 1179.104 571.16"
	 xml:space="preserve">
<g>
	<rect x="18.413" y="384.637" fill="#F6873B" width="1136.69" height="186.523"/>
	<rect x="18.413" y="386.094" fill="#E86C24" width="1136.69" height="11.993"/>
	<rect y="357.548" fill="#F6873B" width="1179.104" height="28.414"/>
	<rect y="164.892" fill="#E86C24" width="1179.104" height="192.656"/>
</g>
<ellipse opacity="0.5" fill="#231F20" cx="578.308" cy="329.574" rx="99.06" ry="8.602"/>
<ellipse opacity="0.5" fill="#231F20" cx="930.978" cy="238.514" rx="53.733" ry="7.703"/>
<g>
	<path fill="#959595" d="M785.245,231.625c0,23.98-21.652,43.424-48.358,43.424H438.568c-26.706,0-48.359-19.443-48.359-43.424
		v-188.2C390.208,19.44,411.862,0,438.568,0h298.319c26.706,0,48.358,19.44,48.358,43.425V231.625z"/>
	<polyline opacity="0.2" fill="#6E6D6A" points="540.588,168.453 503.547,275.64 666.301,274.83 627.833,168.453 	"/>
	<g>
		<g opacity="0.15">
			<polygon fill="#010101" points="627.833,320.252 627.833,169.842 540.588,169.842 540.588,320.252 487.479,320.252 
				487.479,330.963 669.559,330.963 669.559,320.252 			"/>
		</g>
		<g>
			<polygon fill="#C8C8C8" points="627.833,318.862 627.833,168.453 540.588,168.453 540.588,318.862 487.479,318.862 
				487.479,329.574 669.559,329.574 669.559,318.862 			"/>
		</g>
	</g>
</g>
<path fill="#FDD8C0" d="M847.327,178.143c0,23.227,12.951,42.056,28.932,42.056c1.746,0,3.447-0.26,5.107-0.693v13.064
	c0,3.371,2.736,6.106,6.107,6.106h86.006c3.369,0,6.107-2.735,6.107-6.106V125.658c0-3.372-2.738-6.106-6.107-6.106h-86.006
	c-3.371,0-6.107,2.734-6.107,6.106v11.12c-1.66-0.432-3.361-0.694-5.107-0.694C860.278,136.084,847.327,154.912,847.327,178.143z
	 M859.005,178.143c0-15.715,6.449-28.445,17.254-28.445c1.768,0,3.476,0.377,5.107,1.016v54.858
	c-1.632,0.643-3.34,1.019-5.107,1.019C865.454,206.59,859.005,193.853,859.005,178.143z"/>
<g>
	<rect x="203.132" y="149.113" fill="#FFFFFF" width="137.309" height="164.086"/>
	<rect x="225.817" y="280.811" fill="#818285" width="54.428" height="6"/>
	<rect x="225.817" y="258.811" fill="#818285" width="54.428" height="6"/>
	<rect x="225.817" y="238.811" fill="#818285" width="94.428" height="6"/>
	<rect x="225.817" y="218.811" fill="#818285" width="94.428" height="6"/>
	<rect x="225.817" y="198.811" fill="#818285" width="94.428" height="6"/>
	<polygon fill="#818285" points="320.245,184.811 225.817,184.811 224.817,178.811 319.245,178.811 	"/>
	<rect x="288.845" y="253.811" fill="#D2D3D4" width="30.4" height="41.455"/>
	<rect x="203.132" y="313.199" fill="#D2D3D4" width="137.309" height="24.977"/>
</g>
<g>
	<rect x="34.306" y="113.234" fill="#FFFFFF" width="137.309" height="164.086"/>
	<rect x="56.992" y="244.932" fill="#818285" width="54.428" height="6"/>
	<rect x="56.992" y="222.932" fill="#818285" width="54.428" height="6"/>
	<rect x="56.992" y="202.932" fill="#818285" width="94.428" height="6"/>
	<rect x="56.992" y="182.932" fill="#818285" width="94.428" height="6"/>
	<rect x="56.992" y="162.932" fill="#818285" width="94.428" height="6"/>
	<polygon fill="#818285" points="151.419,148.932 56.992,148.932 55.992,142.932 150.419,142.932 	"/>
	<rect x="120.02" y="217.932" fill="#D2D3D4" width="30.4" height="41.455"/>
	<rect x="34.306" y="277.32" fill="#D2D3D4" width="137.309" height="60.855"/>
</g>
</svg>
