<?xml version="1.0" encoding="utf-8"?>
<!-- Generator: Adobe Illustrator 16.0.0, SVG Export Plug-In . SVG Version: 6.00 Build 0)  -->
<!DOCTYPE svg PUBLIC "-//W3C//DTD SVG 1.1//EN" "http://www.w3.org/Graphics/SVG/1.1/DTD/svg11.dtd">
<svg version="1.1" id="Layer_1" xmlns="http://www.w3.org/2000/svg" xmlns:xlink="http://www.w3.org/1999/xlink" x="0px" y="0px"
	 width="92.291px" height="153.784px" viewBox="0 0 92.291 153.784" enable-background="new 0 0 92.291 153.784"
	 xml:space="preserve">
<path fill="#F8AD85" d="M19.482,41.849c0,0,10.895-27.823,25.287-39.348c12.283-9.835,26.836,12.513,26.836,12.513l-17.74,42.868
	L19.482,41.849z"/>
<polygon fill="#C2E4D5" points="18.269,39.994 55.198,57.214 55.037,97.618 0,92.232 "/>
<path fill="#C2E4D5" d="M91.585,63.732c-1.858,18.362-8.457,55.489-28.073,55.489c-16.303,0-19.364-9.656-17.599-22.767
	c0,0-36.098-3.331-36.188-3.343c-2.607-0.328-3.273,18.531-3.458,20.214c-0.924,8.395-0.287,17.241,4.721,24.33
	c14.553,20.601,44.715,19.842,63.87,6.857c2.68-1.816,17.463-11.3,17.434-14.092C92.291,130.419,91.585,63.732,91.585,63.732z"/>
</svg>
