<?xml version="1.0" encoding="utf-8"?>
<!-- Generator: Adobe Illustrator 16.0.0, SVG Export Plug-In . SVG Version: 6.00 Build 0)  -->
<!DOCTYPE svg PUBLIC "-//W3C//DTD SVG 1.1//EN" "http://www.w3.org/Graphics/SVG/1.1/DTD/svg11.dtd">
<svg version="1.1" id="Layer_1" xmlns="http://www.w3.org/2000/svg" xmlns:xlink="http://www.w3.org/1999/xlink" x="0px" y="0px"
	 width="96.161px" height="143.236px" viewBox="0 0 96.161 143.236" enable-background="new 0 0 96.161 143.236"
	 xml:space="preserve">
<path fill="#F8AD85" d="M44.119,50.58c0,0-33.46-29.603-21.908-42.988C35.252-7.521,51.28,0.582,65.36,26.1
	c14.078,25.518,7.265,14.341,7.265,14.341L44.119,50.58z"/>
<polygon fill="#C2E4D5" points="34.227,54.162 78.134,38.261 96.161,83.81 38.571,91.674 "/>
<path fill="#C2E4D5" d="M0.706,53.184c1.858,18.362,8.457,55.489,28.073,55.489c16.303,0,19.364-9.656,17.599-22.767
	c0,0,36.098-3.331,36.188-3.343c2.607-0.328,3.273,18.531,3.458,20.214c0.924,8.395,0.287,17.241-4.721,24.33
	c-14.553,20.601-44.715,19.842-63.87,6.857c-2.68-1.816-17.463-11.3-17.434-14.092C0,119.871,0.706,53.184,0.706,53.184z"/>
</svg>
