<?xml version="1.0" encoding="utf-8"?>
<!-- Generator: Adobe Illustrator 16.0.0, SVG Export Plug-In . SVG Version: 6.00 Build 0)  -->
<!DOCTYPE svg PUBLIC "-//W3C//DTD SVG 1.1//EN" "http://www.w3.org/Graphics/SVG/1.1/DTD/svg11.dtd">
<svg version="1.1" id="Layer_1" xmlns="http://www.w3.org/2000/svg" xmlns:xlink="http://www.w3.org/1999/xlink" x="0px" y="0px"
	 width="608.548px" height="467.55px" viewBox="-142.08 -0.001 608.548 467.55"
	 enable-background="new -142.08 -0.001 608.548 467.55" xml:space="preserve">
<g>
	
		<ellipse transform="matrix(0.989 -0.1479 0.1479 0.989 -1.2165 47.8159)" fill="#EE9623" cx="320.946" cy="32.089" rx="17.674" ry="32.337"/>
	<g>
		
			<ellipse transform="matrix(0.989 -0.148 0.148 0.989 -3.3113 38.6019)" fill="#508E42" cx="257.733" cy="41.552" rx="13.939" ry="25.501"/>
		
			<ellipse transform="matrix(0.989 -0.148 0.148 0.989 -1.3134 47.4208)" fill="#508E42" cx="318.006" cy="32.536" rx="15.939" ry="29.159"/>
		<polygon fill="#508E42" points="261.5,66.768 322.359,61.707 313.629,3.356 253.953,16.328 		"/>
	</g>
	
		<ellipse transform="matrix(0.989 -0.148 0.148 0.989 -3.42 38.1177)" fill="#EE9623" cx="254.454" cy="42.042" rx="11.621" ry="21.26"/>
	<path opacity="0.1" fill="#231F20" enable-background="new    " d="M317.76,62.089l-56.261,4.679
		c-4.194,0.626-8.463-2.242-11.801-7.27c-3.193-3.463-5.756-9.114-6.748-15.741l95.49-14.285
		c2.646,17.661-3.041,33.152-12.695,34.597C323.052,64.473,320.336,63.738,317.76,62.089z"/>
</g>
<path fill="none" stroke="#114A55" stroke-width="3" stroke-linecap="round" stroke-miterlimit="10" d="M251.419,43.221
	c-26.749,10.844-46.125,7.603-69.395-6.921C127.975,2.571,20.904,14.653,2.774,73.868c-8.256,26.963,31.511,15.809,18.716-7.906
	c-8.305-15.386-37.615-17.445-54.21-11.118c-40.336,15.383-26.327,58.193-18.144,85.711c14.453,48.583,25.151,64.571-16.613,100.658
	c-30.518,26.375-129.456,130.836-29.456,224.836"/>
<path fill="#C2E4D5" d="M436.956,97.1c0,0-5.857,65.319-53.976,67.821s-74.949-20.631-76.801-53.017c-1.853-32.386,0-4.854,0-4.854
	h-37.938c0,0-11.629,108.53,113.813,98.311c90.876-7.401,84.31-109.186,84.31-109.186L436.956,97.1z"/>
<path fill="#F8AD85" d="M268.242,107.049c0,0-1.884-29.821,6.29-46.349c6.977-14.104,29.609,0,29.609,0l2.038,46.349H268.242z"/>
<polygon fill="#C2E4D5" points="266.358,105.881 307.105,105.881 324.034,142.569 271.876,160.946 "/>
</svg>
