<?xml version="1.0" encoding="utf-8"?>
<!-- Generator: Adobe Illustrator 16.0.0, SVG Export Plug-In . SVG Version: 6.00 Build 0)  -->
<!DOCTYPE svg PUBLIC "-//W3C//DTD SVG 1.1//EN" "http://www.w3.org/Graphics/SVG/1.1/DTD/svg11.dtd">
<svg version="1.1" id="Layer_1" xmlns="http://www.w3.org/2000/svg" xmlns:xlink="http://www.w3.org/1999/xlink" x="0px" y="0px"
	 width="235.962px" height="168.571px" viewBox="6.424 1.411 235.962 168.571" enable-background="new 6.424 1.411 235.962 168.571"
	 xml:space="preserve">
<path fill="#C2E4D5" d="M39.636,66.485c0,0,31.904,44.694,57.101,61.191c51.555,22.993,81.393-27.915,81.393-27.915l25.509,24.138
	c0,0-46.613,63.56-119.319,41.391c-48.292-16.103-77.895-41.284-77.895-41.284L39.636,66.485z"/>
<path fill="#1B1C1C" d="M234.17,10.039c12.715,13.476,9.054,30.983-0.047,41.559c-9.094,10.576-50.895,51.213-50.895,51.213
	s-28.146,26.8-45.771,14.046c-17-12.294-10.187-29.886,4.598-39.851c14.787-9.967,20.861,8.493,20.861,8.493
	s10.04-5.555,29.791-25.066c19.75-19.514,19.75-19.514,19.75-19.514s-19.939-3.011-11.195-18.735
	C208.15,9.796,215.116-10.154,234.17,10.039z"/>
<path fill="#F8AD85" d="M183.939,93.687c0,0-1.507-44.651,16.156-45.463c19.939-0.922,25.078,16.29,16.227,44.056
	c-8.85,27.768-5.421,15.137-5.421,15.137L183.939,93.687z"/>
<polygon fill="#C2E4D5" points="174.54,88.967 216.271,109.917 195.585,154.326 150.284,117.911 "/>
</svg>
