<?xml version="1.0" encoding="utf-8"?>
<!-- Generator: Adobe Illustrator 16.0.0, SVG Export Plug-In . SVG Version: 6.00 Build 0)  -->
<!DOCTYPE svg PUBLIC "-//W3C//DTD SVG 1.1//EN" "http://www.w3.org/Graphics/SVG/1.1/DTD/svg11.dtd">
<svg version="1.1" id="Layer_1" xmlns="http://www.w3.org/2000/svg" xmlns:xlink="http://www.w3.org/1999/xlink" x="0px" y="0px"
	 width="214.703px" height="221.875px" viewBox="0 0 214.703 221.875" enable-background="new 0 0 214.703 221.875"
	 xml:space="preserve">
<g>
	<path fill="#FFFFFF" d="M1.721,110.407c0,0-15.996-75.751,49.558-101.236c65.555-25.486,169.495,1.018,163.147,93.75
		C208.08,195.653,75.956,223.137,64.8,221.83c0,0,16.308-16.936,21.026-31.459C85.826,190.371,5.997,183.277,1.721,110.407z"/>
</g>
<g>
	<rect x="38.434" y="67.515" fill="#86A15C" width="106.899" height="56.887"/>
	<g>
		<rect x="58.684" y="58.885" fill="#86A15C" width="97.007" height="47.339"/>
		<path fill="#4E6136" d="M155.691,58.885v47.339H58.684V58.885H155.691 M160.404,54.173h-4.713H58.684h-4.711v4.712v47.339v4.713
			h4.711h97.007h4.713v-4.713V58.885V54.173L160.404,54.173z"/>
	</g>
	<circle fill="#4E6136" cx="106.963" cy="82.669" r="14.678"/>
	<g>
		<path fill="#86A15C" d="M108.343,80.843c1.936,0.031,2.902,1.062,2.902,3.09v3.043c0,2.06-0.967,3.09-2.902,3.09h-0.959v2.037
			h-0.867v-2.037h-0.936c-1.936,0-2.903-1.03-2.903-3.09v-1.568h2.762v1.966c0,0.125,0.043,0.234,0.128,0.328
			c0.086,0.093,0.192,0.14,0.317,0.14h0.631v-4.378h-0.936c-1.936,0-2.903-1.03-2.903-3.09v-2.833c0-2.06,0.967-3.09,2.903-3.09
			h0.936v-1.218h0.867v1.218h0.796c1.935,0,2.903,1.03,2.903,3.09v1.124h-2.764v-1.498c0-0.125-0.043-0.234-0.129-0.328
			s-0.189-0.14-0.315-0.14h-0.491v4.144H108.343z M105.91,80.843h0.607v-4.144h-0.607c-0.126,0-0.231,0.046-0.316,0.14
			c-0.088,0.094-0.129,0.203-0.129,0.328v3.207c0,0.125,0.041,0.234,0.129,0.328C105.678,80.796,105.784,80.843,105.91,80.843z
			 M108.484,87.375v-3.441c0-0.125-0.043-0.234-0.128-0.328c-0.086-0.094-0.192-0.141-0.317-0.141h-0.654v4.378h0.654
			c0.125,0,0.231-0.047,0.317-0.14C108.441,87.609,108.484,87.5,108.484,87.375z"/>
	</g>
</g>
<circle fill="#FFFFFF" stroke="#E7E7E7" stroke-width="5" stroke-miterlimit="10" cx="145.333" cy="123.403" r="33.931"/>
<path fill="#8CC63F" d="M158.923,108.743l-20.867,19.9l-6.137-6.436c-1.998-2.096-5.318-2.176-7.414-0.176
	c-2.098,1.998-2.176,5.318-0.176,7.416l9.952,10.438c2,2.096,5.319,2.174,7.417,0.176c0.43-0.412,0.771-0.881,1.031-1.381
	l23.432-22.346c2.096-2,2.176-5.318,0.176-7.416C164.339,106.823,161.019,106.745,158.923,108.743z"/>
</svg>
