<?xml version="1.0" encoding="utf-8"?>
<!-- Generator: Adobe Illustrator 16.0.0, SVG Export Plug-In . SVG Version: 6.00 Build 0)  -->
<!DOCTYPE svg PUBLIC "-//W3C//DTD SVG 1.1//EN" "http://www.w3.org/Graphics/SVG/1.1/DTD/svg11.dtd">
<svg version="1.1" id="Layer_1" xmlns="http://www.w3.org/2000/svg" xmlns:xlink="http://www.w3.org/1999/xlink" x="0px" y="0px"
	 width="181.132px" height="187.181px" viewBox="0 0 181.132 187.181" enable-background="new 0 0 181.132 187.181"
	 xml:space="preserve">
<g>
	<path fill="#FFFFFF" d="M179.681,93.144c0,0,13.494-63.907-41.81-85.408C82.567-13.765-5.12,8.595,0.234,86.828
		c5.354,78.232,116.819,101.419,126.23,100.316c0,0-13.758-14.287-17.738-26.541C108.726,160.603,176.073,154.619,179.681,93.144z"
		/>
</g>
<g>
	
		<rect x="39.111" y="51.561" transform="matrix(0.9975 -0.0709 0.0709 0.9975 -5.5882 6.6298)" fill="#C5E9FB" width="102.911" height="60.894"/>
	<path fill="#A0DDF9" d="M37.081,55.287c0,0,45.032,38.304,53.486,38.239c9.638-0.073,49.167-45.538,49.167-45.538L37.081,55.287z"
		/>
	<polyline fill="none" stroke="#A0DDF9" stroke-width="2" stroke-linecap="round" stroke-miterlimit="10" points="144.052,108.728 
		90.566,78.009 41.4,116.027 	"/>
</g>
</svg>
