<?xml version="1.0" encoding="utf-8"?>
<!-- Generator: Adobe Illustrator 16.0.0, SVG Export Plug-In . SVG Version: 6.00 Build 0)  -->
<!DOCTYPE svg PUBLIC "-//W3C//DTD SVG 1.1//EN" "http://www.w3.org/Graphics/SVG/1.1/DTD/svg11.dtd">
<svg version="1.1" xmlns="http://www.w3.org/2000/svg" xmlns:xlink="http://www.w3.org/1999/xlink" x="0px" y="0px"
	 width="182.225px" height="212.06px" viewBox="0 0 182.225 212.06" enable-background="new 0 0 182.225 212.06"
	 xml:space="preserve">
<g id="Layer_2">
</g>
<g id="Layer_1">
	<ellipse opacity="0.4" fill="#232323" cx="93.139" cy="206.157" rx="28.933" ry="5.857"/>
	<g>
		<path fill="#FFFFFF" d="M120.346,170.103c-20.136-0.009-36.595-0.094-56.73-0.105c2.647,11.991,4.041,25.994,14.992,33.362
			c16.258,10.936,0.263-13.494,8.413-18.465c2.804-1.708,12.626-2.483,15.333,1.908c3.422,5.556-7.091,21.635,2.949,18.189
			C115.6,201.459,118.105,181.427,120.346,170.103z"/>
		<path fill="#FFFFFF" d="M118.813,93.966c5.108-5.921,9.944-12.661,11.234-14.311c6.857-8.789,20.863-27.331,9.623-34.525
			c-13.593-8.699-25.664,14.678-29.742,25.553c-1.696,4.525-3.485,10.696-4.626,16.479c-4.045-1.251-8.35-1.958-12.819-1.958
			c-4.563,0-8.952,0.739-13.069,2.04c-1.127-6.042-3.019-12.635-4.806-17.401c-4.079-10.875-19.03-34.253-32.62-25.554
			c-11.243,7.194,5.644,25.735,12.502,34.524c1.341,1.717,6.518,8.939,11.847,15.019c-9.872,7.123-16.222,17.571-16.222,27.107
			c0,16.49,18.969,23.981,42.368,23.981c23.397,0,42.367-7.492,42.367-23.981C134.851,111.464,128.58,101.086,118.813,93.966z"/>
		<g>
			<circle fill="#FFFFFF" cx="74.259" cy="117.128" r="10.365"/>
			<path fill="#2F160C" d="M74.261,129.055c-6.576,0-11.928-5.35-11.928-11.927c0-6.577,5.352-11.927,11.928-11.927
				c6.575,0,11.925,5.35,11.925,11.927C86.186,123.705,80.836,129.055,74.261,129.055z M74.261,108.325
				c-4.855,0-8.805,3.948-8.805,8.803c0,4.855,3.949,8.804,8.805,8.804c4.854,0,8.802-3.949,8.802-8.804
				C83.063,112.273,79.115,108.325,74.261,108.325z"/>
		</g>
		<g>
			<circle fill="#FFFFFF" cx="112.145" cy="117.068" r="10.365"/>
			<path fill="#2F160C" d="M112.145,128.995c-6.577,0-11.926-5.351-11.926-11.927s5.349-11.927,11.926-11.927
				s11.928,5.351,11.928,11.927S118.722,128.995,112.145,128.995z M112.145,108.265c-4.854,0-8.804,3.948-8.804,8.803
				c0,4.854,3.95,8.803,8.804,8.803s8.804-3.949,8.804-8.803C120.948,112.213,116.998,108.265,112.145,108.265z"/>
		</g>
		<path fill="#2F160C" d="M110.993,117.165c0,4.127-3.831,4.127-3.831,0C107.162,113.038,110.993,113.038,110.993,117.165z"/>
		<path fill="#2F160C" d="M75.511,117.068c0,4.128,3.832,4.128,3.832,0C79.343,112.941,75.511,112.941,75.511,117.068z"/>
		<path fill="#F4A3C1" d="M51.227,127.433l-2.172,57.349c0,0,24.128,11.603,43.234,10.36c19.101-1.242,42.191-9.447,42.191-9.447
			l-0.575-58.2c0,0-6.305,15.34-40.179,15.34C59.852,142.834,51.227,127.433,51.227,127.433z"/>
		<path fill="#4F1E0B" d="M88.456,125.287c0,0,0.136,0.218,0.375,0.554c0.121,0.168,0.264,0.365,0.437,0.575
			c0.17,0.21,0.365,0.435,0.587,0.649c0.218,0.215,0.46,0.426,0.723,0.602c0.262,0.18,0.543,0.333,0.84,0.447
			c0.294,0.121,0.61,0.204,0.949,0.26c0.169,0.022,0.34,0.053,0.52,0.062c0.089,0.009,0.181,0.012,0.274,0.011l0.137,0.006
			l0.035,0.003c-0.011,0,0.03,0-0.021,0h0.004h0.01h0.022h0.085c0.108-0.003,0.25,0,0.327-0.007l0.271-0.011
			c0.192-0.01,0.379-0.026,0.56-0.051c0.361-0.041,0.699-0.118,1.011-0.215c0.312-0.098,0.587-0.235,0.845-0.393
			c0.251-0.165,0.479-0.359,0.673-0.574c0.392-0.433,0.651-0.931,0.806-1.301c0.076-0.186,0.14-0.342,0.17-0.45
			c0.038-0.109,0.057-0.167,0.057-0.167s0.032,0.052,0.081,0.159c0.046,0.108,0.118,0.269,0.175,0.486
			c0.107,0.427,0.19,1.096-0.043,1.904c-0.117,0.399-0.315,0.829-0.623,1.228c-0.302,0.398-0.706,0.767-1.171,1.047
			c-0.464,0.286-0.981,0.488-1.506,0.625c-0.265,0.064-0.53,0.112-0.795,0.15c-0.134,0.02-0.277,0.029-0.417,0.04
			c-0.152,0.012-0.241,0.012-0.363,0.016c-0.553,0.017-1.109-0.037-1.658-0.178c-0.55-0.141-1.076-0.38-1.529-0.687
			c-0.228-0.154-0.435-0.327-0.624-0.507c-0.188-0.183-0.346-0.378-0.495-0.571c-0.285-0.393-0.479-0.798-0.613-1.174
			c-0.13-0.382-0.199-0.735-0.232-1.048c-0.029-0.314-0.027-0.584-0.01-0.806C88.367,125.527,88.456,125.287,88.456,125.287z"/>
		<ellipse fill="#E968A6" cx="93.347" cy="121.608" rx="2.835" ry="2.078"/>
		<path fill="#2F160C" d="M65.528,118.077c0,0-0.02,0.04-0.054,0.104c-0.039,0.059-0.088,0.165-0.159,0.264
			c-0.071,0.103-0.155,0.236-0.261,0.363c-0.101,0.128-0.22,0.261-0.354,0.393c-0.267,0.263-0.588,0.519-0.95,0.725
			c-0.359,0.209-0.763,0.364-1.178,0.465c-0.413,0.1-0.841,0.145-1.259,0.125c-0.415-0.019-0.818-0.1-1.175-0.213
			c-0.179-0.06-0.345-0.123-0.494-0.192c-0.151-0.066-0.285-0.146-0.396-0.207c-0.112-0.055-0.204-0.127-0.264-0.163
			c-0.061-0.042-0.095-0.07-0.095-0.07s0.017-0.04,0.053-0.105c0.037-0.06,0.087-0.166,0.16-0.266
			c0.07-0.104,0.156-0.237,0.259-0.363c0.102-0.128,0.221-0.261,0.355-0.396c0.264-0.264,0.585-0.519,0.948-0.724
			c0.361-0.208,0.763-0.361,1.179-0.462c0.415-0.097,0.844-0.141,1.26-0.119c0.416,0.019,0.819,0.1,1.174,0.214
			c0.181,0.057,0.347,0.122,0.496,0.189c0.15,0.064,0.284,0.145,0.396,0.206c0.109,0.054,0.2,0.125,0.262,0.162
			C65.494,118.049,65.528,118.077,65.528,118.077z"/>
		<path fill="#2F160C" d="M66.502,111.951c0,0-0.039,0.022-0.105,0.052c-0.066,0.027-0.168,0.082-0.284,0.117
			c-0.12,0.041-0.269,0.097-0.424,0.136c-0.162,0.042-0.336,0.08-0.522,0.106c-0.369,0.052-0.781,0.065-1.194,0.015
			c-0.413-0.048-0.829-0.163-1.225-0.328c-0.391-0.167-0.761-0.386-1.084-0.652c-0.324-0.262-0.598-0.567-0.815-0.871
			c-0.109-0.153-0.205-0.303-0.285-0.449c-0.08-0.141-0.141-0.285-0.193-0.402c-0.057-0.11-0.087-0.223-0.113-0.288
			c-0.023-0.069-0.036-0.113-0.036-0.113s0.039-0.021,0.106-0.052c0.064-0.026,0.17-0.081,0.286-0.118
			c0.119-0.042,0.267-0.098,0.423-0.139c0.161-0.042,0.337-0.078,0.521-0.106c0.371-0.053,0.782-0.065,1.196-0.015
			c0.414,0.049,0.827,0.164,1.221,0.331c0.392,0.171,0.763,0.39,1.082,0.655c0.323,0.262,0.6,0.568,0.817,0.873
			c0.108,0.152,0.205,0.303,0.285,0.447c0.081,0.14,0.144,0.286,0.196,0.399c0.054,0.11,0.086,0.223,0.112,0.287
			C66.491,111.909,66.502,111.951,66.502,111.951z"/>
		<path fill="#2F160C" d="M121.569,118.746c0,0,0.035-0.028,0.097-0.069c0.059-0.036,0.153-0.107,0.262-0.164
			c0.11-0.061,0.246-0.14,0.394-0.204c0.151-0.068,0.317-0.132,0.497-0.19c0.355-0.115,0.76-0.196,1.174-0.213
			c0.417-0.022,0.847,0.022,1.262,0.12c0.416,0.1,0.816,0.254,1.178,0.463c0.362,0.204,0.687,0.459,0.95,0.723
			c0.132,0.133,0.25,0.268,0.354,0.395c0.104,0.126,0.19,0.259,0.261,0.364c0.072,0.099,0.123,0.205,0.157,0.265
			c0.036,0.065,0.055,0.104,0.055,0.104s-0.035,0.03-0.095,0.07c-0.063,0.038-0.155,0.108-0.262,0.165
			c-0.112,0.061-0.247,0.14-0.397,0.206c-0.151,0.068-0.315,0.134-0.495,0.19c-0.356,0.117-0.76,0.198-1.177,0.215
			c-0.414,0.02-0.844-0.026-1.259-0.125c-0.412-0.103-0.815-0.257-1.178-0.466c-0.361-0.205-0.684-0.461-0.949-0.726
			c-0.131-0.132-0.251-0.265-0.355-0.394c-0.101-0.124-0.188-0.257-0.26-0.361c-0.068-0.099-0.12-0.204-0.156-0.265
			C121.587,118.786,121.569,118.746,121.569,118.746z"/>
		<path fill="#2F160C" d="M120.596,112.622c0,0,0.012-0.044,0.036-0.113c0.025-0.064,0.058-0.177,0.115-0.286
			c0.052-0.115,0.112-0.26,0.193-0.401c0.079-0.145,0.175-0.294,0.284-0.448c0.219-0.303,0.494-0.609,0.816-0.873
			c0.323-0.265,0.694-0.484,1.085-0.655c0.393-0.166,0.807-0.281,1.221-0.331c0.412-0.05,0.824-0.037,1.195,0.017
			c0.187,0.027,0.359,0.063,0.52,0.105c0.16,0.039,0.305,0.096,0.425,0.138c0.117,0.036,0.22,0.092,0.285,0.117
			c0.066,0.032,0.104,0.053,0.104,0.053s-0.009,0.042-0.034,0.113c-0.025,0.065-0.059,0.178-0.112,0.288
			c-0.052,0.114-0.113,0.259-0.195,0.402c-0.079,0.144-0.177,0.294-0.284,0.448c-0.217,0.304-0.492,0.609-0.816,0.872
			c-0.322,0.264-0.691,0.483-1.086,0.651c-0.394,0.164-0.807,0.28-1.222,0.328c-0.413,0.05-0.824,0.037-1.194-0.016
			c-0.187-0.029-0.362-0.063-0.52-0.106c-0.157-0.038-0.306-0.095-0.424-0.135c-0.116-0.037-0.22-0.092-0.287-0.118
			C120.634,112.643,120.596,112.622,120.596,112.622z"/>
		<path fill="#EF5788" d="M96.454,170.951c-13.587-1.107-18.362,4.283-20.657,10.486c-2.295,6.201-5.115,16.392,11.339,18.673
			c16.455,2.279,25.43-4.201,25.516-9.195C112.791,182.722,110.718,172.115,96.454,170.951z"/>
		<path fill="#A91E4D" d="M84.384,176.683c0,0-0.104-0.137-0.279-0.398c-0.175-0.262-0.422-0.652-0.71-1.166
			c-0.289-0.513-0.617-1.154-0.925-1.928c-0.309-0.773-0.617-1.68-0.786-2.737c-0.161-1.055-0.202-2.287,0.189-3.589
			c0.188-0.646,0.506-1.292,0.929-1.887c0.428-0.592,0.962-1.118,1.553-1.563c1.189-0.886,2.571-1.455,3.958-1.796
			c1.391-0.352,2.806-0.53,4.202-0.614l0.261-0.018l0.273-0.013l0.492-0.022c0.35-0.01,0.729-0.02,1.079-0.023
			c0.708-0.016,1.427,0.007,2.154,0.057c1.447,0.105,2.964,0.385,4.397,1.115c0.711,0.365,1.4,0.848,1.99,1.447
			c0.599,0.59,1.081,1.305,1.414,2.045c0.345,0.739,0.518,1.501,0.6,2.209c0.064,0.712,0.043,1.375-0.053,1.979
			c-0.184,1.208-0.581,2.183-0.992,2.983c-0.411,0.799-0.862,1.422-1.258,1.906c-0.398,0.484-0.747,0.831-0.996,1.055
			c-0.248,0.224-0.399,0.335-0.399,0.335l-0.397-0.245c0,0,0.021-0.17,0.066-0.486c0.042-0.316,0.11-0.773,0.171-1.34
			c0.065-0.567,0.127-1.244,0.152-1.984c0.026-0.738-0.004-1.543-0.135-2.308c-0.136-0.765-0.407-1.448-0.792-1.954
			c-0.396-0.502-0.898-0.906-1.651-1.331c-0.748-0.411-1.712-0.831-2.815-1.127c-0.548-0.153-1.125-0.282-1.718-0.375
			c-0.304-0.053-0.582-0.078-0.886-0.116l-0.49-0.042l-0.219-0.019l-0.229-0.013c-1.229-0.073-2.445-0.061-3.59,0.086
			c-1.143,0.152-2.217,0.412-3.086,0.886c-0.434,0.233-0.821,0.513-1.144,0.842c-0.313,0.329-0.588,0.696-0.785,1.107
			c-0.412,0.819-0.562,1.774-0.566,2.674c-0.008,0.905,0.106,1.764,0.264,2.52c0.159,0.757,0.351,1.412,0.523,1.949
			c0.178,0.537,0.342,0.95,0.454,1.232c0.114,0.283,0.183,0.424,0.183,0.424L84.384,176.683z"/>
		<path fill="#FFFFFF" d="M76.54,146.119c-5,2.345-0.583,9.533,1.928,14.98c2.512,5.445,7.441,10.691,11.558,7.219
			c3.822-3.222-0.728-6.207-3.904-13.022C82.948,148.48,79.94,144.523,76.54,146.119z"/>
		<path fill="#FFFFFF" d="M110.943,146.119c5.002,2.345,0.584,9.533-1.927,14.98c-2.511,5.445-7.44,10.691-11.558,7.219
			c-3.823-3.222,0.729-6.207,3.902-13.022C104.535,148.48,107.545,144.523,110.943,146.119z"/>
		<path fill="#2F160C" d="M85.36,116.311l-1.881-2.494c0.189-0.142,4.707-3.504,9.893-3.427c5.185,0.083,9.225,3.325,9.394,3.463
			l-1.973,2.421c-0.03-0.024-3.394-2.697-7.472-2.762C89.209,113.449,85.398,116.282,85.36,116.311z"/>
		<path fill="#EF5788" d="M116.251,94.906c0,0-3.675-12.5-9.466-6.317C100.998,94.772,112.218,100.523,116.251,94.906z"/>
		<path fill="#EF5788" d="M114.698,95.179c0,0,9.067-9.358,11.316-1.191C128.264,102.154,115.656,102.028,114.698,95.179z"/>
		<polygon fill="#FFFFFF" points="90.697,180.163 96.731,180.163 96.731,184.476 100.577,184.476 100.377,189.695 96.731,189.467 
			96.731,193.098 90.697,193.098 90.697,189.467 86.772,189.467 86.741,184.248 90.771,184.164 		"/>
	</g>
</g>
</svg>
