<?xml version="1.0" encoding="utf-8"?>
<!-- Generator: Adobe Illustrator 16.0.0, SVG Export Plug-In . SVG Version: 6.00 Build 0)  -->
<!DOCTYPE svg PUBLIC "-//W3C//DTD SVG 1.1//EN" "http://www.w3.org/Graphics/SVG/1.1/DTD/svg11.dtd">
<svg version="1.1" xmlns="http://www.w3.org/2000/svg" xmlns:xlink="http://www.w3.org/1999/xlink" x="0px" y="0px"
	 width="182.225px" height="212.064px" viewBox="0 0 182.225 212.064" enable-background="new 0 0 182.225 212.064"
	 xml:space="preserve">
<g id="Layer_2">
</g>
<g id="Layer_1">
	<ellipse opacity="0.4" fill="#232323" cx="83.563" cy="205.921" rx="28.933" ry="5.856"/>
	<g>
		<path fill="#FFC10D" d="M144.395,128.688c0,44.428-26.701,58.491-59.637,58.491c-32.937,0-59.638-14.063-59.638-58.491
			c0-44.429,26.701-80.443,59.638-80.443C117.693,48.244,144.395,84.259,144.395,128.688z"/>
		<path fill="#EEF7FC" d="M124.405,94.683c0,21.376-17.751,30.823-39.647,30.823s-39.648-9.447-39.648-30.823
			c0-21.38,17.752-38.711,39.648-38.711S124.405,73.303,124.405,94.683z"/>
		<path fill="#2F160C" d="M67.79,67.256c-3.987-1.759-8.287-2.003-8.216,1.13c0.072,3.134,2.825,4.405,6.056,4.353
			c3.229-0.053,6.079-0.556,5.798-2.445C71.147,68.402,67.79,67.256,67.79,67.256z"/>
		<path fill="#2F160C" d="M105.838,68.572c4.24-1.01,8.514-0.473,7.877,2.597c-0.641,3.071-3.84,3.438-7.006,2.805
			c-3.166-0.636-5.615-1.266-4.999-3.072C102.328,69.094,105.838,68.572,105.838,68.572z"/>
		<path fill="#F16A22" d="M80.426,93.165c0.063,4.15,4.262,10.704,7.538,10.377c3.275-0.328,7.203-6.975,7.209-10.377
			C95.191,81.915,80.253,81.531,80.426,93.165z"/>
		<path fill="#CB2A2B" d="M81.037,44.015C69.353,40.102,60.868,32.782,60.441,26.5C60.016,20.218,64.6,6.744,75.959,12.656
			c11.162,5.81,2.637,12.101,1.703,16.059c-0.934,3.959,1.875,5.75,4.122,3.297c2.246-2.451,0.493-12.08,7.14-9.244
			c6.648,2.835-0.252,8.119-1.87,11.285c-1.245,2.436,2.138,1.591,3.537-1.288c2.423-4.98,11.657,2.081,6.075,7.095
			C88.814,46.909,85.809,45.615,81.037,44.015z"/>
		<path fill="#232323" d="M135.694,164.567c-32.044-0.364-69.937,0.355-101.979-0.009c3.818,10.348,11.228,32.01,27.494,40.569
			c12.857,6.767-0.274-9.696,12.857-13.822c4.519-1.419,18.208-0.851,22.374,2.968c5.267,4.831-8.751,17.104,6.494,12.728
			C115.561,203.379,132.924,179.996,135.694,164.567z"/>
		<path fill="#FFC10D" d="M28.336,102.867c0,0-10.469,18.135-12.316,31.344c-1.235,8.829-4.868,21.015,28.896,24.056
			c12.718,1.146,11.344,1.226,11.344,1.226l5.948-22.447c0,0-17.098,0.036-23.108-2.11c-6.996-2.501-8.517-2.847-6.702-13.257
			s-1.705-15.559-1.705-15.559L28.336,102.867z"/>
		<polygon fill="#AB792B" points="79.764,125.563 76.895,160.514 91.373,160.514 89.344,125.506 		"/>
		<path fill="#FFC10D" d="M83.809,125.543c0.041,0.318,0.094,0.632,0.129,0.946c0.037,0.313,0.077,0.629,0.105,0.943l0.093,0.944
			l0.077,0.944l-0.49-0.49c0.473-0.044,0.946-0.067,1.418-0.097c0.473-0.027,0.947-0.061,1.418-0.074l0.637-0.02l0.023,0.681
			c0.026,0.771,0.072,1.546,0.078,2.318c0.01,0.772,0.037,1.546,0.033,2.319l-0.004,0.766l-0.768,0.005
			c-0.293,0.001-0.585-0.005-0.879-0.01c-0.293-0.005-0.586-0.021-0.881-0.031c-0.292-0.015-0.585-0.019-0.877-0.039l-0.883-0.059
			l0.621-0.502l-0.733,2.472l-0.354,1.24l-0.323,1.244l-0.278-0.344c0.765,0.024,1.529,0.033,2.293,0.021
			c0.383-0.008,0.767-0.005,1.147-0.022l1.146-0.039l0.242-0.011l0.076,0.26c0.244,0.836,0.501,1.671,0.764,2.502
			c0.261,0.833,0.529,1.664,0.779,2.498l0.232,0.77l-0.873,0.045c-0.484,0.024-0.969,0.058-1.453,0.071l-1.45,0.051l-2.904,0.081
			l0.863-0.862c0.017,0.819,0.042,1.637,0.052,2.457c0.009,0.817,0.008,1.638,0,2.458l-0.758-0.9
			c0.626,0.116,1.252,0.239,1.877,0.366c0.626,0.122,1.25,0.261,1.873,0.395l0.692,0.147l-0.024,0.646
			c-0.026,0.737-0.057,1.475-0.101,2.213c-0.038,0.737-0.081,1.475-0.137,2.212l-0.034,0.449l-0.357,0.093
			c-0.688,0.175-1.38,0.336-2.07,0.497l0.279-0.386c-0.092,0.984-0.185,1.967-0.318,2.951h-0.172
			c-0.135-0.984-0.227-1.967-0.318-2.951l-0.025-0.255l0.307-0.128c0.652-0.274,1.307-0.553,1.965-0.813l-0.394,0.542
			c-0.056-0.737-0.099-1.475-0.136-2.212c-0.044-0.738-0.076-1.476-0.103-2.213l0.669,0.795c-0.631-0.085-1.265-0.164-1.895-0.26
			c-0.631-0.091-1.263-0.188-1.891-0.291l-0.747-0.121l-0.01-0.777c-0.01-0.82-0.011-1.641,0-2.458
			c0.007-0.82,0.033-1.638,0.05-2.457l0.018-0.886l0.845,0.023l2.904,0.081l1.45,0.051c0.484,0.014,0.969,0.048,1.453,0.069
			l-0.641,0.815c-0.155-0.859-0.293-1.721-0.439-2.581c-0.145-0.861-0.295-1.72-0.457-2.576l0.316,0.25l-1.146-0.042
			c-0.381-0.016-0.765-0.013-1.147-0.019c-0.764-0.016-1.528-0.006-2.293,0.019l-0.335,0.01l0.059-0.354l0.21-1.27l0.181-1.273
			l0.336-2.556l0.063-0.466l0.555-0.035l0.883-0.059c0.292-0.021,0.585-0.025,0.877-0.041c0.295-0.009,0.588-0.026,0.881-0.03
			c0.294-0.005,0.586-0.012,0.879-0.011l-0.771,0.772c-0.004-0.773,0.024-1.547,0.034-2.319c0.006-0.772,0.051-1.547,0.078-2.318
			l0.658,0.655c-0.471-0.011-0.945-0.045-1.418-0.073c-0.472-0.028-0.945-0.053-1.418-0.096l-0.525-0.044l0.035-0.442l0.076-0.944
			l0.093-0.944c0.03-0.314,0.069-0.631,0.107-0.943c0.033-0.314,0.085-0.628,0.128-0.946H83.809z"/>
		<path fill="#AB792B" d="M29.114,139.079c0,0-0.09-0.235-0.125-0.668c-0.018-0.215-0.02-0.48,0.011-0.78
			c0.012-0.149,0.033-0.309,0.066-0.472c0.025-0.171,0.065-0.344,0.117-0.52c0.045-0.181,0.104-0.366,0.177-0.551
			c0.065-0.19,0.143-0.384,0.237-0.572c0.088-0.193,0.182-0.392,0.299-0.579c0.115-0.189,0.222-0.395,0.361-0.574
			c0.135-0.185,0.263-0.386,0.416-0.565c0.152-0.178,0.31-0.36,0.467-0.544c0.334-0.34,0.683-0.681,1.063-0.977l0.283-0.226
			l0.071-0.055l0.085-0.063l0.136-0.096c0.181-0.126,0.362-0.249,0.546-0.368c0.395-0.247,0.804-0.478,1.198-0.666
			c0.796-0.386,1.598-0.651,2.32-0.781c0.361-0.063,0.698-0.099,1.002-0.106c0.304-0.005,0.57,0.017,0.79,0.053
			c0.219,0.03,0.388,0.089,0.499,0.131c0.113,0.039,0.167,0.076,0.167,0.076s-0.058,0.027-0.153,0.087
			c-0.096,0.056-0.229,0.151-0.389,0.271c-0.162,0.119-0.351,0.261-0.558,0.432c-0.208,0.166-0.438,0.359-0.685,0.565
			c-0.245,0.205-0.51,0.428-0.793,0.663c-0.143,0.106-0.283,0.237-0.431,0.356c-0.148,0.114-0.3,0.241-0.452,0.369
			c-0.315,0.24-0.613,0.501-0.943,0.743c-0.171,0.135-0.346,0.269-0.525,0.399l-0.133,0.098l-0.034,0.024l-0.017,0.014
			c0.027-0.021-0.001,0,0.001,0l-0.06,0.047l-0.24,0.186c-0.33,0.236-0.635,0.493-0.952,0.735c-0.306,0.25-0.606,0.497-0.892,0.745
			c-0.283,0.248-0.557,0.496-0.812,0.739c-0.255,0.242-0.493,0.478-0.71,0.708c-0.434,0.456-0.788,0.876-1.031,1.193
			C29.245,138.868,29.114,139.079,29.114,139.079z"/>
		<path fill="#AB792B" d="M40.404,141.034c0,0-0.072-0.171-0.16-0.469c-0.093-0.292-0.208-0.699-0.291-1.163
			c-0.04-0.23-0.102-0.489-0.138-0.755c-0.04-0.265-0.073-0.542-0.093-0.827c-0.018-0.141-0.011-0.285-0.029-0.43
			c-0.018-0.145-0.032-0.291-0.041-0.438c-0.021-0.296-0.029-0.593-0.025-0.891c0-0.296,0.025-0.595,0.031-0.91
			c0.014-0.31,0.041-0.608,0.081-0.917c0.075-0.605,0.212-1.167,0.377-1.649c0.083-0.242,0.175-0.462,0.271-0.655
			c0.096-0.194,0.196-0.364,0.292-0.496c0.104-0.14,0.193-0.24,0.305-0.296c0.062-0.032,0.124,0.003,0.13,0.026
			c0.013,0.024,0.012,0.033,0.012,0.033s-0.012-0.006-0.03-0.003c-0.024,0.001-0.026,0.026-0.021,0.048
			c0.005,0.05,0.039,0.163,0.077,0.289c0.086,0.27,0.221,0.647,0.354,1.104c0.068,0.227,0.132,0.475,0.196,0.737
			c0.06,0.263,0.118,0.536,0.165,0.82c0.047,0.278,0.092,0.586,0.125,0.891c0.038,0.303,0.031,0.63,0.033,0.96
			c-0.003,0.326-0.018,0.654-0.045,0.978c-0.027,0.32-0.059,0.638-0.139,0.937c-0.068,0.3-0.149,0.588-0.234,0.859
			c-0.088,0.27-0.17,0.521-0.28,0.753c-0.216,0.465-0.433,0.835-0.609,1.084C40.531,140.898,40.404,141.034,40.404,141.034z"/>
		<path fill="#FFC10D" d="M33.716,164.232c0,0,9.755,6.732,48.256,8.027c38.503,1.296,53.723-8.021,53.723-8.021l-27.439-2.262
			L33.716,164.232z"/>
		<path fill="#AB792B" d="M36.121,114.665c0,0,0.033,0.026,0.094,0.077c0.066,0.044,0.162,0.108,0.288,0.195
			c0.127,0.081,0.294,0.17,0.483,0.284c0.186,0.112,0.41,0.235,0.66,0.364c0.25,0.134,0.527,0.28,0.827,0.441
			c0.306,0.15,0.638,0.314,0.989,0.49c0.695,0.367,1.515,0.729,2.383,1.154c0.867,0.434,1.836,0.849,2.834,1.338
			c0.996,0.492,2.083,0.94,3.172,1.476c0.274,0.13,0.55,0.262,0.828,0.396l0.412,0.193l0.427,0.195
			c0.569,0.26,1.146,0.523,1.728,0.786c0.579,0.278,1.164,0.525,1.751,0.787c0.59,0.256,1.173,0.528,1.771,0.773
			c1.193,0.493,2.381,1.002,3.563,1.471c1.175,0.49,2.353,0.911,3.482,1.355c0.568,0.213,1.126,0.42,1.672,0.622
			c0.55,0.198,1.09,0.388,1.612,0.572c1.048,0.372,2.042,0.718,2.967,1.012c0.922,0.313,1.771,0.58,2.526,0.811
			c0.753,0.232,1.414,0.433,1.96,0.588c1.09,0.319,1.723,0.477,1.723,0.477s-0.648-0.063-1.775-0.248
			c-0.561-0.098-1.241-0.217-2.022-0.376c-0.774-0.162-1.652-0.349-2.602-0.581c-0.949-0.23-1.973-0.507-3.053-0.803
			c-0.54-0.159-1.092-0.321-1.656-0.487c-0.56-0.179-1.134-0.358-1.717-0.543c-0.586-0.178-1.171-0.389-1.766-0.594
			c-0.596-0.201-1.195-0.416-1.797-0.643c-0.602-0.225-1.212-0.442-1.817-0.677c-0.603-0.245-1.208-0.487-1.813-0.731
			c-0.605-0.239-1.203-0.513-1.804-0.766c-0.596-0.258-1.201-0.507-1.777-0.774c-0.578-0.271-1.154-0.537-1.723-0.804l-0.424-0.198
			l-0.424-0.211c-0.279-0.136-0.555-0.272-0.827-0.408c-0.55-0.268-1.083-0.539-1.604-0.813c-0.523-0.268-1.033-0.528-1.525-0.804
			c-0.493-0.264-0.967-0.534-1.426-0.794c-0.459-0.258-0.905-0.503-1.324-0.762c-0.416-0.257-0.814-0.504-1.195-0.739
			c-0.379-0.232-0.738-0.457-1.066-0.689c-0.326-0.227-0.633-0.438-0.918-0.632c-0.283-0.199-0.533-0.399-0.759-0.572
			c-0.46-0.341-0.79-0.654-1.017-0.862c-0.106-0.11-0.189-0.195-0.244-0.253C36.146,114.699,36.121,114.665,36.121,114.665z"/>
		<g>
			<path fill="#CB2A2B" d="M125.471,138.521c-4.175,2.025-7.722,27.497-6.351,29.827c1.371,2.329,38.015,7.499,39.069,5.404
				c1.053-2.096,7.98-24.658,6.951-26.734C164.114,144.942,129.605,136.515,125.471,138.521z"/>
			<path fill="#EEF7FC" d="M125.777,143.757c1.926-3.815,7.565-2.923,6.161,2.264c-1.08,3.978-7.808,21.118-7.808,21.118
				l-2.587-0.529C121.653,168.037,124.338,146.606,125.777,143.757z"/>
			<polygon fill="#8D191B" points="118.979,162.582 124.932,165.484 159.494,170.123 160.913,165.938 126.65,161.82 
				119.363,158.914 			"/>
		</g>
		<path fill="#AB792B" d="M56.053,158.267c0,0-0.082,0.033-0.233,0.08c-0.151,0.041-0.374,0.121-0.654,0.183
			c-0.281,0.068-0.622,0.159-1.011,0.224c-0.39,0.074-0.827,0.155-1.304,0.216c-0.952,0.126-2.057,0.211-3.233,0.222
			c-0.295,0.01-0.593,0.001-0.896-0.004c-0.302-0.001-0.606-0.011-0.913-0.028c-0.614-0.021-1.235-0.079-1.857-0.131
			c-0.619-0.069-1.239-0.138-1.846-0.236c-0.305-0.042-0.606-0.094-0.903-0.153c-0.296-0.052-0.591-0.104-0.876-0.17
			c-1.152-0.243-2.219-0.539-3.128-0.85c-0.455-0.15-0.871-0.316-1.236-0.466c-0.369-0.136-0.687-0.293-0.949-0.415
			c-0.264-0.112-0.466-0.236-0.606-0.307c-0.139-0.073-0.213-0.12-0.213-0.12l0.021-0.204c0,0,0.31,0.022,0.854,0.065
			c0.544,0.048,1.322,0.098,2.254,0.186c1.863,0.17,4.346,0.397,6.831,0.625c2.481,0.263,4.962,0.522,6.821,0.721
			c0.931,0.095,1.702,0.196,2.245,0.259c0.542,0.064,0.853,0.102,0.853,0.102L56.053,158.267z"/>
		<path fill="#EEF7FC" d="M155.287,141.699c0,0-5.68,1.766-7.1,6.229c-1.419,4.462-1.037,17.942-1.037,17.942
			s23.929-3.901,24.428-14.729C172.075,140.315,164.135,141.821,155.287,141.699z"/>
		<path fill="#FFC10D" d="M120.999,115.949c0,0,17.894-6.471,30.011-6.017c8.095,0.302,22.292,7.778,22.223,27.862
			c-0.037,11.605-1.328,14.657-1.328,14.657l-25.028-3.869c0,0,2.057-12.164,1.097-17.884c-1.12-6.66-1.188-8.076-10.791-8.116
			c-9.606-0.036-13.648-4.009-13.648-4.009L120.999,115.949z"/>
		<path fill="#AB792B" d="M132.16,118.382c0,0-0.05,0.136-0.218,0.348c-0.168,0.211-0.435,0.512-0.821,0.833
			c-0.188,0.173-0.409,0.339-0.647,0.528c-0.244,0.18-0.511,0.371-0.798,0.568c-0.577,0.398-1.254,0.804-1.997,1.232
			c-0.743,0.43-1.573,0.846-2.449,1.289c-0.439,0.219-0.897,0.423-1.364,0.646c-0.469,0.208-0.949,0.423-1.438,0.64
			c-0.484,0.224-0.994,0.411-1.501,0.622c-0.504,0.206-1.03,0.42-1.55,0.617c-1.038,0.404-2.103,0.794-3.182,1.168
			c-1.076,0.383-2.152,0.746-3.221,1.084c-1.071,0.324-2.123,0.654-3.154,0.938c-1.025,0.286-2.027,0.538-2.977,0.773
			c-0.952,0.23-1.857,0.418-2.691,0.596c-0.838,0.168-1.609,0.299-2.295,0.412c-0.685,0.114-1.283,0.187-1.779,0.251
			c-0.989,0.114-1.558,0.139-1.558,0.139s0.555-0.127,1.513-0.381c0.48-0.125,1.058-0.293,1.722-0.476
			c0.665-0.183,1.407-0.411,2.22-0.647c0.813-0.245,1.688-0.521,2.612-0.813c0.925-0.295,1.897-0.605,2.897-0.953
			c1.006-0.326,2.039-0.688,3.088-1.051c1.04-0.388,2.113-0.735,3.166-1.135c1.059-0.394,2.117-0.786,3.16-1.175
			c1.037-0.382,2.056-0.789,3.039-1.164c0.494-0.189,0.98-0.375,1.454-0.56c0.47-0.19,0.928-0.384,1.38-0.557
			c0.9-0.357,1.739-0.72,2.514-1.049c0.776-0.331,1.47-0.666,2.09-0.96c0.613-0.303,1.141-0.584,1.563-0.836
			c0.424-0.248,0.736-0.474,0.941-0.64C132.084,118.502,132.16,118.382,132.16,118.382z"/>
		<polyline fill="#AB792B" points="68.167,129.078 65.176,174.89 71.4,174.89 69.975,129.515 		"/>
		<polyline fill="#AB792B" points="100.486,130.884 98.933,162.497 103.846,162.349 102.313,130.582 		"/>
		<path fill="#919090" d="M150.282,164.109c0,0,0.054-0.244,0.184-0.651c0.128-0.407,0.336-0.968,0.626-1.612
			c0.289-0.645,0.663-1.369,1.103-2.118c0.221-0.373,0.456-0.754,0.709-1.13c0.248-0.381,0.519-0.753,0.785-1.128
			c0.278-0.368,0.554-0.735,0.845-1.084c0.281-0.354,0.578-0.69,0.868-1.012c0.583-0.645,1.166-1.214,1.699-1.681
			c0.53-0.468,1.006-0.831,1.354-1.072c0.35-0.241,0.568-0.367,0.568-0.367s-0.053,0.246-0.182,0.651
			c-0.128,0.405-0.335,0.969-0.623,1.614c-0.287,0.645-0.663,1.371-1.105,2.116c-0.221,0.373-0.453,0.757-0.709,1.131
			c-0.246,0.38-0.518,0.753-0.787,1.125c-0.277,0.368-0.553,0.735-0.844,1.085c-0.285,0.352-0.578,0.689-0.871,1.012
			c-0.583,0.642-1.165,1.211-1.697,1.68c-0.529,0.467-1.006,0.831-1.354,1.075C150.501,163.984,150.282,164.109,150.282,164.109z"/>
		<path fill="#2F160C" d="M108.998,80.749c0,4.912-4.56,4.912-4.56,0S108.998,75.837,108.998,80.749z"/>
		<path fill="#2F160C" d="M63.974,79.72c0,4.915,4.56,4.915,4.56,0C68.533,74.809,63.974,74.809,63.974,79.72z"/>
		<g>
			<path fill="#2C2D2D" d="M83.768,83.369l-36.501-4.6c0,0-1.419,5.357,5.136,11.533C58.955,96.477,75.812,102.375,83.768,83.369z"
				/>
			<path fill="#2C2D2D" d="M91.091,83.369l36.174-4.6c0,0,1.744,5.357-4.808,11.532C115.901,96.477,99.047,102.375,91.091,83.369z"
				/>
			<path fill="#2C2D2D" d="M75.096,89.225c0,0,0.199-0.451,0.682-1.129c0.238-0.343,0.551-0.74,0.937-1.172
				c0.193-0.213,0.411-0.432,0.64-0.665c0.234-0.225,0.488-0.454,0.757-0.689c0.276-0.226,0.566-0.461,0.879-0.69
				c0.315-0.226,0.644-0.458,0.999-0.673c0.707-0.438,1.492-0.851,2.355-1.189c0.217-0.082,0.436-0.166,0.654-0.25
				c0.224-0.08,0.455-0.141,0.688-0.213c0.234-0.063,0.468-0.131,0.705-0.194c0.242-0.047,0.487-0.095,0.731-0.142
				c0.487-0.105,0.996-0.151,1.509-0.187l0.383-0.029l0.096-0.007l0.192-0.001l0.166,0.003l0.661,0.014l0.332,0.013l0.398,0.043
				c0.27,0.027,0.538,0.064,0.807,0.102c0.13,0.018,0.272,0.033,0.396,0.057l0.36,0.079c0.238,0.055,0.477,0.108,0.715,0.161
				c0.938,0.237,1.823,0.554,2.646,0.907c0.821,0.36,1.584,0.756,2.273,1.179c0.691,0.421,1.317,0.854,1.87,1.287
				c0.554,0.433,1.038,0.856,1.45,1.255c0.412,0.396,0.751,0.765,1.02,1.082c0.538,0.631,0.79,1.05,0.79,1.05
				s-0.485-0.066-1.28-0.219c-0.389-0.077-0.863-0.173-1.41-0.28c-0.527-0.111-1.122-0.241-1.771-0.381
				c-0.63-0.142-1.313-0.291-2.035-0.451c-0.715-0.153-1.454-0.312-2.207-0.463c-0.754-0.146-1.521-0.281-2.284-0.396
				c-0.19-0.025-0.38-0.051-0.571-0.076l-0.285-0.043c-0.094-0.012-0.174-0.014-0.259-0.021c-0.169-0.014-0.341-0.026-0.508-0.047
				c-0.086-0.013-0.163-0.023-0.257-0.032l-0.331-0.008l-0.662-0.025l-0.165-0.007l-0.041-0.003h-0.021c0.208,0,0.054,0,0.097,0
				h-0.01l-0.068,0.003l-0.275,0.009c-0.182,0.009-0.365,0.011-0.549,0.011c-0.184-0.004-0.368,0.031-0.553,0.037
				c-0.186,0.015-0.37,0.025-0.553,0.038c-0.186,0.024-0.371,0.046-0.554,0.071c-0.184,0.023-0.369,0.036-0.552,0.067
				c-0.186,0.028-0.367,0.059-0.547,0.088c-0.73,0.114-1.446,0.27-2.136,0.421c-0.69,0.153-1.353,0.324-1.974,0.488
				c-0.631,0.174-1.207,0.333-1.72,0.474c-0.528,0.152-0.989,0.285-1.368,0.393c-0.383,0.114-0.695,0.202-0.91,0.262
				C75.211,89.191,75.096,89.225,75.096,89.225z"/>
			<path fill="#676767" d="M108.315,87.639c0,2.232-2.054,4.697-4.588,4.697s-4.589-2.465-4.589-4.697s2.055-3.384,4.589-3.384
				S108.315,85.406,108.315,87.639z"/>
			<path fill="#676767" d="M65.189,86.146c0,2.234-2.055,4.698-4.588,4.698c-2.534,0-4.587-2.464-4.587-4.698
				c0-2.229,2.053-3.384,4.587-3.384C63.135,82.762,65.189,83.916,65.189,86.146z"/>
		</g>
	</g>
</g>
</svg>
